# Blender 4.5.10 LTS
# www.blender.org
mtllib kynda_trough_tower.mtl
o kynda_trough_tower
v 0.357779 0.867129 -0.351084
v 0.357819 0.872172 -0.352151
v 0.366704 0.872090 -0.351112
v 0.361450 1.282074 -0.351090
v 0.361500 1.287111 -0.349997
v 0.370335 1.281993 -0.350052
v 0.358192 0.866898 -0.263245
v 0.367116 0.871859 -0.263274
v 0.358241 0.871935 -0.262152
v 0.361912 1.286880 -0.262159
v 0.361873 1.281838 -0.261092
v 0.370747 1.281762 -0.262214
v -0.364424 0.873518 -0.347677
v -0.373259 0.878637 -0.347622
v -0.364385 0.878561 -0.348744
v -0.360704 1.293500 -0.346591
v -0.360753 1.288463 -0.347684
v -0.369628 1.288539 -0.346562
v -0.364012 0.873287 -0.259839
v -0.363962 0.878324 -0.258745
v -0.372847 0.878406 -0.259784
v -0.360291 1.293270 -0.258752
v -0.369216 1.288308 -0.258724
v -0.360331 1.288227 -0.257685
v 0.363368 0.873578 0.253425
v 0.363324 0.878623 0.252372
v 0.372219 0.878668 0.253328
v 0.361036 1.288531 0.254559
v 0.361023 1.293565 0.255666
v 0.369930 1.288576 0.255515
v 0.364594 0.873116 0.341255
v 0.373444 0.878206 0.341158
v 0.364580 0.878150 0.342362
v 0.362248 1.293103 0.343496
v 0.362292 1.288058 0.344549
v 0.371156 1.288114 0.343346
v -0.358791 0.869492 0.263482
v -0.367698 0.874481 0.263633
v -0.358834 0.874537 0.262429
v -0.361136 1.289479 0.265724
v -0.361123 1.284445 0.264617
v -0.369987 1.284389 0.265820
v -0.357565 0.869030 0.351312
v -0.357578 0.874064 0.352419
v -0.366472 0.874020 0.351463
v -0.359910 1.289017 0.353554
v -0.368761 1.283927 0.353651
v -0.359867 1.283972 0.354607
v 0.372853 0.872502 -0.255358
v 0.372855 0.877575 -0.261571
v 0.373871 0.877555 -0.255321
v 0.367847 1.287459 -0.259470
v 0.367722 1.292465 -0.253204
v 0.368863 1.287439 -0.253219
v 0.367643 0.869837 0.252128
v 0.368661 0.874889 0.252165
v 0.367518 0.874843 0.258394
v 0.362512 1.289800 0.254282
v 0.362509 1.284727 0.260495
v 0.363653 1.284773 0.254267
v 0.285024 0.871434 -0.256265
v 0.283883 0.876460 -0.256250
v 0.285027 0.876506 -0.262479
v 0.279893 1.291397 -0.254112
v 0.280018 1.286390 -0.260377
v 0.278875 1.286344 -0.254149
v 0.279814 0.868768 0.251221
v 0.279689 0.873775 0.257487
v 0.278673 0.873795 0.251236
v 0.274683 1.288731 0.253375
v 0.273665 1.283679 0.253338
v 0.274681 1.283659 0.259588
v -0.280950 0.869461 -0.253569
v -0.280965 0.874520 -0.259794
v -0.279860 0.874499 -0.253558
v -0.280189 1.284437 -0.258562
v -0.280154 1.289458 -0.252307
v -0.279084 1.284416 -0.252326
v -0.278936 0.867932 0.253944
v -0.277847 0.872970 0.253955
v -0.278902 0.872953 0.260199
v -0.278141 1.287929 0.255207
v -0.278125 1.282870 0.261432
v -0.277070 1.282887 0.255187
v -0.368789 0.869626 -0.253220
v -0.369860 0.874668 -0.253201
v -0.368804 0.874685 -0.259445
v -0.367994 1.289623 -0.251958
v -0.368028 1.284602 -0.258213
v -0.369083 1.284586 -0.251969
v -0.366775 0.868097 0.254293
v -0.366741 0.873118 0.260548
v -0.367846 0.873139 0.254313
v -0.365980 1.288094 0.255556
v -0.367069 1.283056 0.255545
v -0.365964 1.283036 0.261781
v 0.358960 0.874004 -0.345690
v 0.358878 0.875025 -0.354083
v 0.367838 0.874972 -0.345769
v 0.358815 0.953103 -0.353519
v 0.358895 0.954002 -0.345113
v 0.367776 0.953050 -0.345205
v 0.365529 0.869080 0.337460
v 0.374407 0.870048 0.337382
v 0.365609 0.869979 0.345867
v 0.365464 0.949078 0.338038
v 0.365546 0.948057 0.346430
v 0.374345 0.948126 0.337945
v -0.363247 0.873375 -0.338750
v -0.372127 0.874327 -0.338658
v -0.363328 0.874395 -0.347143
v -0.363311 0.953373 -0.338173
v -0.363391 0.952473 -0.346579
v -0.372190 0.952405 -0.338095
v -0.356678 0.868451 0.344400
v -0.356598 0.869350 0.352807
v -0.365558 0.869403 0.344493
v -0.356742 0.948449 0.344978
v -0.365621 0.947481 0.345056
v -0.356660 0.947428 0.353370
v -0.011367 1.083043 -0.374826
v -0.011979 1.083583 -0.375915
v -0.010532 1.083946 -0.375408
v -0.037811 1.208472 -0.391602
v -0.037513 1.209450 -0.390703
v -0.036363 1.208836 -0.391095
v 0.063603 1.119103 -0.211196
v 0.064439 1.120005 -0.211778
v 0.063902 1.120080 -0.210298
v 0.037458 1.245510 -0.227074
v 0.038070 1.244970 -0.225985
v 0.038607 1.244895 -0.227465
v -0.174809 1.059301 -0.294709
v -0.175958 1.059915 -0.294318
v -0.175421 1.059840 -0.295798
v -0.200954 1.185707 -0.310587
v -0.201253 1.184730 -0.311485
v -0.201790 1.184805 -0.310005
v -0.099839 1.095360 -0.131080
v -0.099540 1.096338 -0.130181
v -0.100988 1.095975 -0.130688
v -0.125984 1.221767 -0.146957
v -0.126820 1.220864 -0.146375
v -0.125372 1.221228 -0.145868
v -0.327854 1.080175 -0.292501
v -0.328664 1.080732 -0.292779
v -0.327588 1.080793 -0.293270
v -0.333021 1.177081 -0.290314
v -0.332264 1.177694 -0.290006
v -0.331945 1.177143 -0.290805
v -0.198827 1.084775 -0.244258
v -0.198562 1.085394 -0.245027
v -0.198070 1.085388 -0.243950
v -0.203237 1.182295 -0.241763
v -0.202427 1.181738 -0.241485
v -0.202919 1.181743 -0.242562
v -0.375914 1.074700 -0.163441
v -0.376233 1.075251 -0.162642
v -0.376724 1.075257 -0.163719
v -0.380324 1.172219 -0.160946
v -0.381081 1.171606 -0.161254
v -0.380590 1.171601 -0.160177
v -0.246888 1.079300 -0.115198
v -0.246131 1.079913 -0.114890
v -0.247206 1.079852 -0.114399
v -0.251298 1.176820 -0.112703
v -0.251563 1.176201 -0.111934
v -0.250488 1.176262 -0.112425
v 0.312187 1.084174 0.024536
v 0.311768 1.084710 0.023525
v 0.313032 1.084942 0.024111
v 0.297168 1.198099 0.010141
v 0.297409 1.198940 0.010990
v 0.298432 1.198331 0.010726
v 0.366556 1.109252 0.177685
v 0.367401 1.110020 0.177259
v 0.366797 1.110093 0.178534
v 0.351778 1.224018 0.164139
v 0.352197 1.223481 0.165150
v 0.352801 1.223409 0.163875
v 0.158406 1.071070 0.081275
v 0.157384 1.071679 0.081539
v 0.157988 1.071606 0.080264
v 0.143629 1.185836 0.067729
v 0.143387 1.184995 0.066880
v 0.142784 1.185068 0.068154
v 0.212775 1.096148 0.234424
v 0.213017 1.096989 0.235273
v 0.211753 1.096757 0.234687
v 0.197998 1.210914 0.220878
v 0.197152 1.210146 0.221303
v 0.198417 1.210377 0.221889
v -0.306857 1.076936 -0.352651
v -0.307403 1.077471 -0.353292
v -0.306254 1.077531 -0.353179
v -0.312152 1.171560 -0.354755
v -0.311663 1.172167 -0.354132
v -0.311003 1.171620 -0.354642
v -0.221655 1.082854 -0.248619
v -0.221052 1.083449 -0.249146
v -0.221166 1.083462 -0.247996
v -0.226461 1.178086 -0.250100
v -0.225915 1.177550 -0.249460
v -0.225801 1.177538 -0.250610
v -0.410836 1.073016 -0.267269
v -0.411496 1.073563 -0.266760
v -0.411382 1.073551 -0.267910
v -0.415642 1.168247 -0.268751
v -0.416131 1.167640 -0.269374
v -0.416245 1.167652 -0.268223
v -0.325634 1.078934 -0.163237
v -0.325145 1.079542 -0.162615
v -0.326294 1.079482 -0.162728
v -0.330441 1.174166 -0.164719
v -0.331043 1.173570 -0.164191
v -0.329894 1.173630 -0.164078
v 0.367070 1.070100 0.178669
v 0.366284 1.070598 0.177612
v 0.367818 1.071047 0.177942
v 0.332422 1.198181 0.161230
v 0.332797 1.199233 0.162089
v 0.333956 1.198631 0.161561
v 0.462675 1.115729 0.336419
v 0.463422 1.116676 0.335692
v 0.463050 1.116781 0.337277
v 0.428402 1.244862 0.319838
v 0.429188 1.244365 0.320896
v 0.429561 1.244260 0.319310
v 0.210140 1.041716 0.281987
v 0.208982 1.042318 0.282515
v 0.209354 1.042213 0.280930
v 0.175867 1.170849 0.265406
v 0.175493 1.169797 0.264548
v 0.175120 1.169901 0.266133
v 0.305745 1.087345 0.439737
v 0.306120 1.088397 0.440595
v 0.304586 1.087947 0.440265
v 0.271472 1.216478 0.423156
v 0.270725 1.215531 0.423883
v 0.272258 1.215980 0.424214
v 0.024405 1.130732 -0.188370
v 0.023376 1.131285 -0.188645
v 0.024598 1.131500 -0.189272
v 0.006323 1.243200 -0.183526
v 0.007145 1.244006 -0.183190
v 0.007545 1.243415 -0.184154
v 0.176831 1.151655 -0.138003
v 0.177024 1.152422 -0.138906
v 0.177653 1.152462 -0.137666
v 0.159570 1.264929 -0.132823
v 0.160600 1.264377 -0.132548
v 0.159970 1.264337 -0.133787
v -0.024391 1.116268 -0.034689
v -0.024791 1.116860 -0.033724
v -0.025420 1.116821 -0.034964
v -0.041651 1.229543 -0.029508
v -0.042473 1.228736 -0.029845
v -0.041844 1.228775 -0.028606
v 0.128035 1.137191 0.015678
v 0.128857 1.137998 0.016015
v 0.127635 1.137783 0.016642
v 0.110774 1.250466 0.020858
v 0.110582 1.249698 0.021760
v 0.111804 1.249913 0.021133
v 0.241340 1.072364 -0.382401
v 0.241254 1.072896 -0.383568
v 0.242301 1.073203 -0.382555
v 0.227346 1.191503 -0.405085
v 0.227263 1.192411 -0.404180
v 0.228393 1.191810 -0.404072
v 0.241549 1.103331 -0.211843
v 0.242510 1.104170 -0.211997
v 0.241466 1.104240 -0.210938
v 0.227472 1.223379 -0.233622
v 0.227558 1.222846 -0.232456
v 0.228602 1.222777 -0.233514
v 0.069136 1.052852 -0.378647
v 0.068006 1.053454 -0.378755
v 0.069050 1.053384 -0.379814
v 0.055059 1.172899 -0.400426
v 0.055142 1.171991 -0.401331
v 0.054097 1.172060 -0.400273
v 0.069345 1.083819 -0.208089
v 0.069262 1.084727 -0.207184
v 0.068215 1.084421 -0.208197
v 0.055268 1.203866 -0.229868
v 0.054307 1.203027 -0.229715
v 0.055354 1.203334 -0.228702
v 0.260367 1.078659 -0.063354
v 0.259322 1.079198 -0.063767
v 0.260652 1.079461 -0.064263
v 0.237494 1.194760 -0.061087
v 0.238273 1.195624 -0.060641
v 0.238824 1.195023 -0.061583
v 0.410470 1.105372 0.007332
v 0.410756 1.106174 0.006423
v 0.411249 1.106236 0.007778
v 0.388377 1.222338 0.010045
v 0.389421 1.221798 0.010458
v 0.388927 1.221736 0.009103
v 0.191535 1.062122 0.089060
v 0.190985 1.062724 0.090002
v 0.190491 1.062662 0.088647
v 0.169442 1.179088 0.091773
v 0.168663 1.178224 0.091327
v 0.169157 1.178286 0.092682
v 0.341639 1.088836 0.159746
v 0.342418 1.089700 0.160192
v 0.341089 1.089437 0.160688
v 0.319546 1.205802 0.162459
v 0.319260 1.204999 0.163368
v 0.320590 1.205262 0.162872
v 0.100636 1.115901 -0.075574
v 0.099594 1.116464 -0.075750
v 0.100748 1.116658 -0.076495
v 0.084613 1.228419 -0.069834
v 0.085473 1.229215 -0.069586
v 0.085767 1.228613 -0.070579
v 0.257261 1.135020 -0.040762
v 0.257373 1.135777 -0.041683
v 0.258121 1.135816 -0.040515
v 0.242098 1.248335 -0.034774
v 0.243140 1.247771 -0.034599
v 0.242392 1.247732 -0.035767
v 0.067179 1.103098 0.081987
v 0.066884 1.103700 0.082980
v 0.066136 1.103662 0.081812
v 0.052015 1.216413 0.087975
v 0.051155 1.215616 0.087728
v 0.051903 1.215655 0.088896
v 0.223804 1.122217 0.116799
v 0.224664 1.123013 0.117047
v 0.223510 1.122819 0.117792
v 0.208641 1.235532 0.122787
v 0.208528 1.234774 0.123708
v 0.209683 1.234968 0.122963
v 0.356898 0.271820 -0.345099
v 0.356805 0.280240 -0.353479
v 0.365786 0.280212 -0.345187
v 0.357511 0.963438 -0.351921
v 0.357621 0.971818 -0.343503
v 0.366492 0.963409 -0.343629
v 0.365170 0.270254 0.338049
v 0.374059 0.278645 0.337961
v 0.365281 0.278635 0.346468
v 0.365894 0.970252 0.339645
v 0.365987 0.961833 0.348026
v 0.374764 0.961843 0.339519
v -0.365289 0.272547 -0.336352
v -0.374159 0.280955 -0.336225
v -0.365382 0.280966 -0.344732
v -0.364566 0.972544 -0.334756
v -0.364676 0.964164 -0.343174
v -0.373454 0.964153 -0.334667
v -0.357016 0.270980 0.346796
v -0.356906 0.279361 0.355215
v -0.365887 0.279389 0.346923
v -0.356293 0.970978 0.348392
v -0.365181 0.962587 0.348481
v -0.356200 0.962559 0.356773
v 0.323088 0.132990 -0.495920
v 0.323066 0.134221 -0.501220
v 0.330968 0.136248 -0.497640
v 0.319930 0.391892 -0.640243
v 0.319874 0.396997 -0.638362
v 0.327832 0.393920 -0.636663
v 0.321678 0.290544 -0.203871
v 0.329559 0.293803 -0.205591
v 0.321622 0.295649 -0.201990
v 0.318465 0.554551 -0.346313
v 0.318486 0.553320 -0.341013
v 0.326423 0.551474 -0.344614
v -0.321030 0.125618 -0.495051
v -0.328988 0.128696 -0.496750
v -0.321051 0.126849 -0.500351
v -0.324243 0.389626 -0.637493
v -0.324187 0.384520 -0.639374
v -0.332124 0.386367 -0.635773
v -0.322439 0.283172 -0.203002
v -0.322495 0.288278 -0.201121
v -0.330397 0.286250 -0.204701
v -0.325652 0.547180 -0.345444
v -0.333533 0.543921 -0.343724
v -0.325631 0.545949 -0.340144
v 0.284746 0.150329 -0.632531
v 0.284740 0.149863 -0.634993
v 0.291698 0.151034 -0.632891
v 0.284141 0.201841 -0.661960
v 0.284132 0.203585 -0.660161
v 0.291099 0.203012 -0.659858
v 0.284606 0.240220 -0.459261
v 0.291559 0.240925 -0.459621
v 0.284597 0.241965 -0.457462
v 0.283992 0.293477 -0.486891
v 0.283998 0.293943 -0.484429
v 0.290959 0.292903 -0.486588
v -0.281304 0.144999 -0.630222
v -0.288271 0.145572 -0.630525
v -0.281310 0.144532 -0.632684
v -0.281918 0.198255 -0.657852
v -0.281909 0.196511 -0.659650
v -0.288871 0.197550 -0.657492
v -0.281444 0.234890 -0.456952
v -0.281453 0.236634 -0.455153
v -0.288411 0.235463 -0.457255
v -0.282058 0.288146 -0.484581
v -0.289010 0.287442 -0.484221
v -0.282052 0.288612 -0.482119
v 0.052575 0.428763 -0.384793
v 0.052549 0.428979 -0.389471
v 0.053236 0.428941 -0.384795
v 0.052616 0.458618 -0.389241
v 0.052644 0.458762 -0.384560
v 0.053303 0.458580 -0.384565
v 0.057012 0.422773 0.385811
v 0.057673 0.422951 0.385809
v 0.057040 0.422916 0.390492
v 0.057081 0.452772 0.386044
v 0.057108 0.452555 0.390723
v 0.057741 0.452590 0.386039
v -0.056103 0.429006 -0.384165
v -0.056762 0.429188 -0.384160
v -0.056129 0.429223 -0.388843
v -0.056034 0.459005 -0.383932
v -0.056062 0.458862 -0.388613
v -0.056695 0.458827 -0.383930
v -0.051666 0.423016 0.386439
v -0.051638 0.423160 0.391120
v -0.052325 0.423198 0.386444
v -0.051597 0.453015 0.386672
v -0.052257 0.452837 0.386674
v -0.051570 0.452799 0.391350
v 0.051502 0.764816 -0.384478
v 0.051479 0.764984 -0.389159
v 0.052162 0.764998 -0.384482
v 0.051387 0.794623 -0.389240
v 0.051409 0.794816 -0.384561
v 0.052070 0.794638 -0.384564
v 0.055309 0.766948 0.386149
v 0.055968 0.767130 0.386145
v 0.055331 0.767141 0.390829
v 0.055216 0.796948 0.386067
v 0.055239 0.796781 0.390747
v 0.055876 0.796770 0.386064
v -0.057176 0.764481 -0.383941
v -0.057837 0.764659 -0.383938
v -0.057200 0.764648 -0.388621
v -0.057269 0.794481 -0.384023
v -0.057291 0.794288 -0.388703
v -0.057928 0.794299 -0.384019
v -0.053370 0.766613 0.386687
v -0.053347 0.766806 0.391366
v -0.054030 0.766791 0.386690
v -0.053462 0.796613 0.386604
v -0.054122 0.796431 0.386608
v -0.053439 0.796446 0.391285
v 0.413851 0.000115 -0.250030
v 0.413921 0.003452 -0.257480
v 0.415691 0.003453 -0.250032
v 0.417226 0.276711 -0.258300
v 0.417237 0.280093 -0.250871
v 0.418996 0.276712 -0.250853
v 0.411431 0.001962 0.355083
v 0.413272 0.005300 0.355080
v 0.411442 0.005344 0.362513
v 0.414817 0.281940 0.354242
v 0.414747 0.278603 0.361692
v 0.416577 0.278559 0.354259
v 0.267463 0.001884 -0.250620
v 0.265703 0.005265 -0.250638
v 0.267533 0.005221 -0.258070
v 0.270849 0.281862 -0.251461
v 0.270838 0.278480 -0.258891
v 0.269008 0.278524 -0.251458
v 0.265043 0.003731 0.354492
v 0.265054 0.007113 0.361922
v 0.263284 0.007112 0.354475
v 0.268429 0.283709 0.353651
v 0.266589 0.280371 0.353654
v 0.268359 0.280372 0.361101
v -0.268854 0.000055 -0.252178
v -0.268846 0.003462 -0.259597
v -0.267031 0.003403 -0.252161
v -0.266941 0.276730 -0.257885
v -0.266902 0.280043 -0.250424
v -0.265126 0.276671 -0.250449
v -0.267642 -0.003745 0.352928
v -0.265819 -0.000398 0.352946
v -0.267604 -0.000432 0.360389
v -0.265690 0.276243 0.354683
v -0.265699 0.272836 0.362102
v -0.263914 0.272870 0.354658
v -0.415251 0.001074 -0.251879
v -0.417027 0.004447 -0.251854
v -0.415242 0.004481 -0.259298
v -0.413299 0.281062 -0.250124
v -0.413337 0.277749 -0.257585
v -0.415122 0.277714 -0.250142
v -0.414038 -0.002726 0.353228
v -0.414000 0.000587 0.360689
v -0.415815 0.000646 0.353253
v -0.412086 0.277261 0.354982
v -0.413910 0.273914 0.354965
v -0.412095 0.273855 0.362401
v 0.446480 -0.004566 -0.421212
v 0.446438 -0.003313 -0.431526
v 0.457534 -0.003510 -0.421269
v 0.447710 0.094277 -0.431030
v 0.447783 0.095424 -0.420704
v 0.458807 0.094080 -0.420773
v 0.451184 -0.008895 0.418123
v 0.462238 -0.007839 0.418067
v 0.451257 -0.007749 0.428449
v 0.452487 0.091095 0.418631
v 0.452530 0.089842 0.428945
v 0.463511 0.089751 0.418563
v -0.451350 0.007113 -0.416120
v -0.462373 0.008456 -0.416052
v -0.451392 0.008366 -0.426434
v -0.450046 0.107103 -0.415612
v -0.450120 0.105957 -0.425938
v -0.461101 0.106047 -0.415555
v -0.446646 0.002784 0.423215
v -0.446572 0.003931 0.433541
v -0.457669 0.004128 0.423284
v -0.445342 0.102774 0.423724
v -0.456397 0.101718 0.423780
v -0.445300 0.101521 0.434037
vn 0.1117 -0.2066 -0.9720
vn 0.1154 0.2096 -0.9710
vn 0.1208 -0.2117 0.9698
vn 0.1245 0.2045 0.9709
vn -0.1245 -0.2045 -0.9709
vn -0.1208 0.2117 -0.9698
vn -0.1154 -0.2096 0.9710
vn -0.1117 0.2066 0.9720
vn 0.4859 -0.8740 -0.0046
vn 0.1161 0.0015 -0.9932
vn 0.5013 0.8653 -0.0001
vn 0.1254 -0.0037 0.9921
vn 0.0027 -0.2121 0.9772
vn 0.0064 0.2069 0.9783
vn -0.1161 -0.0015 0.9932
vn -0.5013 -0.8653 0.0001
vn -0.4859 0.8740 0.0046
vn -0.1254 0.0037 -0.9921
vn -0.0064 -0.2069 -0.9783
vn -0.0027 0.2121 -0.9772
vn -0.0089 -1.0000 -0.0026
vn 0.9999 -0.0088 -0.0047
vn -0.0047 0.0026 -1.0000
vn 0.0089 1.0000 0.0026
vn 0.0047 -0.0026 1.0000
vn -0.9999 0.0088 0.0047
vn 0.1057 -0.2023 -0.9736
vn 0.1034 0.2138 -0.9714
vn 0.1328 -0.2125 0.9681
vn 0.1305 0.2036 0.9703
vn -0.1305 -0.2036 -0.9703
vn -0.1328 0.2125 -0.9681
vn -0.1034 -0.2138 0.9714
vn -0.1057 0.2023 0.9736
vn 0.4984 -0.8669 -0.0115
vn 0.1069 0.0059 -0.9943
vn 0.4887 0.8725 -0.0022
vn 0.1346 -0.0045 0.9909
vn 0.0148 -0.2147 0.9766
vn 0.0125 0.2044 0.9788
vn -0.1069 -0.0059 0.9943
vn -0.4887 -0.8725 0.0022
vn -0.4984 0.8669 0.0115
vn -0.1346 0.0045 -0.9909
vn -0.0125 -0.2044 -0.9788
vn -0.0148 0.2147 -0.9766
vn 0.0056 -1.0000 -0.0053
vn 0.9999 0.0057 -0.0139
vn -0.0140 0.0053 -0.9999
vn -0.0056 1.0000 0.0053
vn 0.0140 -0.0053 0.9999
vn -0.9999 -0.0057 0.0139
vn 0.9682 -0.1940 -0.1579
vn 0.9632 0.2192 -0.1558
vn 0.9648 -0.1957 0.1758
vn 0.9597 0.2174 0.1779
vn -0.9597 -0.2174 -0.1779
vn -0.9648 0.1957 -0.1757
vn -0.9632 -0.2192 0.1558
vn -0.9682 0.1940 0.1579
vn 0.9802 -0.1976 0.0090
vn 0.9870 0.0129 -0.1604
vn 0.9751 0.2214 0.0112
vn 0.9835 0.0111 0.1807
vn 0.0031 -0.7812 0.6243
vn -0.0160 0.7746 0.6323
vn -0.9870 -0.0129 0.1604
vn -0.9751 -0.2214 -0.0112
vn -0.9802 0.1976 -0.0090
vn -0.9835 -0.0111 -0.1807
vn 0.0160 -0.7746 -0.6323
vn -0.0031 0.7812 -0.6243
vn 0.0122 -0.9999 -0.0051
vn 0.9999 0.0122 0.0103
vn 0.0103 0.0053 -0.9999
vn -0.0122 0.9999 0.0051
vn -0.0103 -0.0053 0.9999
vn -0.9999 -0.0122 -0.0103
vn 0.9630 -0.2079 -0.1713
vn 0.9638 0.2053 -0.1701
vn 0.9644 -0.2089 0.1624
vn 0.9651 0.2043 0.1636
vn -0.9651 -0.2043 -0.1636
vn -0.9644 0.2089 -0.1624
vn -0.9638 -0.2053 0.1701
vn -0.9630 0.2079 0.1713
vn 0.9774 -0.2114 -0.0045
vn 0.9847 -0.0013 -0.1745
vn 0.9782 0.2077 -0.0033
vn 0.9860 -0.0024 0.1666
vn 0.0010 -0.7798 0.6260
vn 0.0040 0.7760 0.6307
vn -0.9847 0.0013 0.1745
vn -0.9782 -0.2077 0.0033
vn -0.9774 0.2114 0.0045
vn -0.9860 0.0024 -0.1666
vn -0.0040 -0.7760 -0.6307
vn -0.0010 0.7798 -0.6260
vn -0.0019 -1.0000 -0.0030
vn 1.0000 -0.0019 -0.0040
vn -0.0040 0.0030 -1.0000
vn 0.0019 1.0000 0.0030
vn 0.0040 -0.0030 1.0000
vn -1.0000 0.0019 0.0040
vn 0.1065 -0.9869 -0.1210
vn 0.1049 0.9887 -0.1068
vn 0.1087 -0.9885 0.1047
vn 0.1071 0.9871 0.1190
vn -0.1071 -0.9871 -0.1190
vn -0.1087 0.9885 -0.1047
vn -0.1049 -0.9887 0.1068
vn -0.1065 0.9869 0.1210
vn 0.1083 -0.9941 -0.0082
vn 0.6802 0.0058 -0.7330
vn 0.1067 0.9943 0.0061
vn 0.6941 -0.0046 0.7198
vn 0.0019 -0.9943 0.1064
vn 0.0003 0.9927 0.1207
vn -0.6802 -0.0058 0.7330
vn -0.1067 -0.9943 -0.0061
vn -0.1083 0.9941 0.0082
vn -0.6942 0.0046 -0.7198
vn -0.0003 -0.9927 -0.1207
vn -0.0019 0.9943 -0.1064
vn 0.0008 -1.0000 -0.0072
vn 1.0000 0.0009 -0.0096
vn -0.0096 0.0072 -0.9999
vn -0.0008 1.0000 0.0072
vn 0.0096 -0.0072 0.9999
vn -1.0000 -0.0009 0.0096
vn 0.3827 -0.7241 -0.5738
vn 0.0968 0.6573 -0.7474
vn 0.7889 -0.5287 0.3131
vn 0.5034 0.8527 0.1396
vn -0.5033 -0.8528 -0.1396
vn -0.7891 0.5286 -0.3131
vn -0.0969 -0.6573 0.7474
vn -0.3827 0.7241 0.5737
vn 0.6753 -0.7221 -0.1503
vn 0.3408 -0.0474 -0.9389
vn 0.3459 0.8704 -0.3503
vn 0.9184 0.2304 0.3217
vn 0.3989 -0.6836 0.6112
vn 0.0696 0.9089 0.4112
vn -0.3408 0.0474 0.9389
vn -0.3459 -0.8704 0.3503
vn -0.6752 0.7221 0.1503
vn -0.9184 -0.2304 -0.3217
vn -0.0696 -0.9089 -0.4112
vn -0.3989 0.6836 -0.6112
vn 0.2010 -0.9719 0.1221
vn 0.8904 0.1293 -0.4365
vn -0.4084 -0.1964 -0.8914
vn -0.2010 0.9719 -0.1221
vn 0.4084 0.1964 0.8914
vn -0.8904 -0.1293 0.4365
vn -0.2601 -0.7066 -0.6581
vn -0.3245 0.7128 -0.6217
vn 0.6714 -0.6733 -0.3098
vn 0.6072 0.7460 -0.2735
vn -0.6072 -0.7460 0.2735
vn -0.6714 0.6733 0.3098
vn 0.3245 -0.7129 0.6217
vn 0.2601 0.7065 0.6581
vn 0.2369 -0.7954 -0.5579
vn -0.4154 0.0045 -0.9096
vn 0.1630 0.8409 -0.5160
vn 0.9085 0.0517 -0.4146
vn 0.5739 -0.7990 0.1798
vn 0.4997 0.8373 0.2217
vn 0.4154 -0.0045 0.9096
vn -0.1630 -0.8409 0.5160
vn -0.2370 0.7953 0.5580
vn -0.9085 -0.0517 0.4146
vn -0.4997 -0.8373 -0.2217
vn -0.5738 0.7990 -0.1798
vn 0.0452 -0.9987 -0.0255
vn 0.3487 0.0397 -0.9364
vn -0.9361 -0.0334 -0.3500
vn -0.0452 0.9987 0.0255
vn 0.9361 0.0334 0.3500
vn -0.3487 -0.0397 0.9364
vn 0.3910 -0.7363 -0.5523
vn 0.2106 0.6639 -0.7176
vn 0.7198 -0.5846 0.3743
vn 0.5397 0.8155 0.2090
vn -0.5397 -0.8155 -0.2090
vn -0.7199 0.5845 -0.3743
vn -0.2105 -0.6639 0.7176
vn -0.3909 0.7363 0.5523
vn 0.6401 -0.7614 -0.1026
vn 0.4275 -0.0515 -0.9025
vn 0.4324 0.8527 -0.2931
vn 0.8951 0.1642 0.4146
vn 0.2936 -0.7195 0.6293
vn 0.0857 0.8945 0.4388
vn -0.4275 0.0515 0.9025
vn -0.4324 -0.8527 0.2931
vn -0.6401 0.7614 0.1026
vn -0.8951 -0.1642 -0.4146
vn -0.0857 -0.8945 -0.4388
vn -0.2935 0.7196 -0.6294
vn 0.1268 -0.9851 0.1163
vn 0.9352 0.0797 -0.3450
vn -0.3306 -0.1525 -0.9314
vn -0.1268 0.9851 -0.1163
vn 0.3306 0.1525 0.9314
vn -0.9352 -0.0797 0.3450
vn 0.1053 -0.7170 -0.6890
vn 0.0334 0.7023 -0.7111
vn 0.7350 -0.6733 0.0800
vn 0.6633 0.7461 0.0579
vn -0.6634 -0.7460 -0.0579
vn -0.7351 0.6732 -0.0800
vn -0.0333 -0.7023 0.7111
vn -0.1054 0.7170 0.6890
vn 0.4844 -0.8013 -0.3510
vn 0.0986 -0.0105 -0.9951
vn 0.4018 0.8348 -0.3764
vn 0.9938 0.0517 0.0980
vn 0.4044 -0.7928 0.4559
vn 0.3217 0.8433 0.4305
vn -0.0986 0.0105 0.9951
vn -0.4018 -0.8348 0.3765
vn -0.4844 0.8013 0.3510
vn -0.9938 -0.0517 -0.0981
vn -0.3218 -0.8433 -0.4305
vn -0.4042 0.7929 -0.4560
vn 0.0504 -0.9986 0.0155
vn 0.7725 0.0291 -0.6343
vn -0.6330 -0.0440 -0.7729
vn -0.0504 0.9986 -0.0155
vn 0.6330 0.0440 0.7729
vn -0.7725 -0.0291 0.6343
vn 0.3414 -0.7268 -0.5960
vn -0.0204 0.6365 -0.7710
vn 0.8421 -0.4879 0.2300
vn 0.4801 0.8755 0.0550
vn -0.4803 -0.8754 -0.0550
vn -0.8421 0.4879 -0.2300
vn 0.0205 -0.6365 0.7710
vn -0.3414 0.7268 0.5960
vn 0.6821 -0.7002 -0.2110
vn 0.2282 -0.0642 -0.9715
vn 0.2650 0.8715 -0.4127
vn 0.9397 0.2754 0.2026
vn 0.4971 -0.6481 0.5770
vn 0.0799 0.9235 0.3752
vn -0.2282 0.0642 0.9715
vn -0.2650 -0.8715 0.4127
vn -0.6823 0.7000 0.2109
vn -0.9397 -0.2754 -0.2026
vn -0.0799 -0.9235 -0.3752
vn -0.4971 0.6481 -0.5770
vn 0.2546 -0.9592 0.1232
vn 0.8259 0.1494 -0.5437
vn -0.5031 -0.2401 -0.8302
vn -0.2546 0.9592 -0.1232
vn 0.5031 0.2401 0.8302
vn -0.8259 -0.1494 0.5437
vn -0.2116 -0.7217 -0.6591
vn -0.4256 0.6820 -0.5948
vn 0.7252 -0.5931 -0.3496
vn 0.5115 0.8105 -0.2854
vn -0.5115 -0.8105 0.2854
vn -0.7252 0.5932 0.3496
vn 0.4253 -0.6820 0.5949
vn 0.2116 0.7217 0.6591
vn 0.2961 -0.7578 -0.5814
vn -0.4526 -0.0282 -0.8912
vn 0.0495 0.8603 -0.5073
vn 0.8789 0.1546 -0.4512
vn 0.6632 -0.7350 0.1414
vn 0.4168 0.8831 0.2154
vn 0.4526 0.0282 0.8912
vn -0.0496 -0.8603 0.5074
vn -0.2961 0.7578 0.5814
vn -0.8789 -0.1546 0.4513
vn -0.4168 -0.8831 -0.2154
vn -0.6633 0.7349 -0.1414
vn 0.1505 -0.9876 -0.0452
vn 0.3014 0.0893 -0.9493
vn -0.9415 -0.1292 -0.3111
vn -0.1505 0.9876 0.0452
vn 0.9415 0.1292 0.3111
vn -0.3014 -0.0893 0.9493
vn 0.5750 -0.7276 -0.3742
vn 0.4122 0.6617 -0.6263
vn 0.5763 -0.5497 0.6047
vn 0.4133 0.8395 0.3526
vn -0.4133 -0.8395 -0.3526
vn -0.5762 0.5498 -0.6048
vn -0.4120 -0.6618 0.6263
vn -0.5751 0.7275 0.3742
vn 0.6636 -0.7362 0.1328
vn 0.7016 -0.0467 -0.7110
vn 0.4758 0.8653 -0.1577
vn 0.7033 0.2059 0.6804
vn 0.0946 -0.6983 0.7095
vn -0.0932 0.9032 0.4189
vn -0.7016 0.0467 0.7110
vn -0.4758 -0.8653 0.1577
vn -0.6636 0.7362 -0.1329
vn -0.7033 -0.2059 -0.6804
vn 0.0932 -0.9032 -0.4189
vn -0.0946 0.6983 -0.7095
vn 0.1146 -0.9775 0.1773
vn 0.9934 0.1126 -0.0217
vn -0.0012 -0.1786 -0.9839
vn -0.1146 0.9775 -0.1773
vn 0.0012 0.1786 0.9839
vn -0.9934 -0.1126 0.0217
vn -0.1088 -0.7282 -0.6766
vn -0.3725 0.6680 -0.6442
vn 0.7800 -0.5701 -0.2581
vn 0.5163 0.8261 -0.2257
vn -0.5162 -0.8262 0.2257
vn -0.7800 0.5701 0.2581
vn 0.3724 -0.6680 0.6442
vn 0.1088 0.7282 0.6767
vn 0.3868 -0.7484 -0.5387
vn -0.3420 -0.0428 -0.9387
vn 0.0828 0.8612 -0.5014
vn 0.9212 0.1820 -0.3438
vn 0.6643 -0.7136 0.2225
vn 0.3604 0.8959 0.2599
vn 0.3420 0.0428 0.9387
vn -0.0829 -0.8612 0.5015
vn -0.3868 0.7484 0.5388
vn -0.9212 -0.1820 0.3439
vn -0.3603 -0.8959 -0.2599
vn -0.6642 0.7136 -0.2225
vn 0.1856 -0.9824 -0.0228
vn 0.4096 0.0984 -0.9070
vn -0.8932 -0.1590 -0.4206
vn -0.1856 0.9824 0.0228
vn 0.8932 0.1590 0.4206
vn -0.4096 -0.0984 0.9070
vn -0.2852 -0.7229 -0.6294
vn -0.4733 0.6840 -0.5551
vn 0.6794 -0.6051 -0.4150
vn 0.4911 0.8017 -0.3408
vn -0.4911 -0.8017 0.3408
vn -0.6793 0.6052 0.4151
vn 0.4733 -0.6840 0.5551
vn 0.2851 0.7229 0.6294
vn 0.2273 -0.7654 -0.6021
vn -0.5390 -0.0276 -0.8419
vn 0.0103 0.8563 -0.5163
vn 0.8318 0.1397 -0.5372
vn 0.6644 -0.7430 0.0807
vn 0.4473 0.8788 0.1664
vn 0.5390 0.0276 0.8418
vn -0.0102 -0.8563 0.5164
vn -0.2273 0.7655 0.6020
vn -0.8318 -0.1397 0.5372
vn -0.4475 -0.8787 -0.1664
vn -0.6645 0.7430 -0.0807
vn 0.1324 -0.9898 -0.0523
vn 0.2071 0.0792 -0.9751
vn -0.9693 -0.1183 -0.2154
vn -0.1325 0.9898 0.0523
vn 0.9693 0.1183 0.2154
vn -0.2071 -0.0792 0.9751
vn 0.5482 -0.5870 -0.5958
vn 0.5494 0.5885 -0.5931
vn 0.5624 -0.5897 0.5796
vn 0.5637 0.5858 0.5823
vn -0.5637 -0.5858 -0.5823
vn -0.5624 0.5897 -0.5796
vn -0.5494 -0.5885 0.5931
vn -0.5482 0.5870 0.5958
vn 0.6864 -0.7272 -0.0100
vn 0.6784 0.0010 -0.7347
vn 0.6879 0.7258 -0.0067
vn 0.6959 -0.0024 0.7181
vn 0.0078 -0.7087 0.7054
vn 0.0093 0.7055 0.7087
vn -0.6784 -0.0010 0.7347
vn -0.6879 -0.7258 0.0067
vn -0.6864 0.7271 0.0100
vn -0.6959 0.0024 -0.7181
vn -0.0093 -0.7055 -0.7087
vn -0.0078 0.7087 -0.7054
vn -0.0010 -1.0000 -0.0023
vn 0.9999 -0.0010 -0.0121
vn -0.0121 0.0023 -0.9999
vn 0.0010 1.0000 0.0023
vn 0.0121 -0.0023 0.9999
vn -0.9999 0.0010 0.0121
vn 0.3329 -0.9182 -0.2146
vn 0.3176 0.3310 -0.8886
vn 0.3275 -0.3236 0.8877
vn 0.3123 0.9256 0.2137
vn -0.3123 -0.9256 -0.2137
vn -0.3275 0.3236 -0.8877
vn -0.3176 -0.3310 0.8886
vn -0.3329 0.9182 0.2146
vn 0.4235 -0.7964 0.4317
vn 0.4617 -0.4168 -0.7830
vn 0.4040 0.8059 -0.4328
vn 0.4542 0.4273 0.7818
vn 0.0052 -0.3457 0.9383
vn -0.0108 0.9740 0.2263
vn -0.4617 0.4168 0.7830
vn -0.4040 -0.8059 0.4328
vn -0.4235 0.7964 -0.4317
vn -0.4541 -0.4273 -0.7818
vn 0.0108 -0.9740 -0.2263
vn -0.0052 0.3457 -0.9383
vn 0.0107 -0.8800 0.4748
vn 0.9999 0.0114 -0.0013
vn 0.0042 -0.4748 -0.8801
vn -0.0107 0.8800 -0.4748
vn -0.0042 0.4748 0.8801
vn -0.9999 -0.0114 0.0013
vn 0.1086 -0.9768 0.1847
vn 0.0890 0.7153 -0.6932
vn 0.1081 -0.7134 0.6924
vn 0.0886 0.9786 -0.1855
vn -0.0886 -0.9786 0.1855
vn -0.1081 0.7134 -0.6924
vn -0.0890 -0.7153 0.6932
vn -0.1086 0.9768 -0.1847
vn 0.1131 -0.8819 0.4576
vn 0.3266 -0.4323 -0.8405
vn 0.0927 0.8839 -0.4585
vn 0.3253 0.4384 0.8378
vn 0.0096 -0.7178 0.6961
vn -0.0100 0.9825 -0.1860
vn -0.3266 0.4323 0.8405
vn -0.0927 -0.8839 0.4585
vn -0.1131 0.8819 -0.4576
vn -0.3253 -0.4384 -0.8378
vn 0.0100 -0.9825 0.1860
vn -0.0096 0.7179 -0.6961
vn 0.0102 -0.8876 0.4605
vn 0.9999 0.0094 -0.0041
vn 0.0007 -0.4605 -0.8877
vn -0.0102 0.8876 -0.4605
vn -0.0007 0.4605 0.8877
vn -0.9999 -0.0094 0.0041
vn 0.2605 -0.9644 -0.0461
vn 0.2649 0.9638 -0.0311
vn 0.2610 -0.9649 0.0281
vn 0.2654 0.9632 0.0430
vn -0.2653 -0.9632 -0.0430
vn -0.2609 0.9650 -0.0281
vn -0.2650 -0.9638 0.0311
vn -0.2606 0.9643 0.0461
vn 0.2609 -0.9653 -0.0090
vn 0.9894 -0.0011 -0.1454
vn 0.2652 0.9642 0.0060
vn 0.9910 -0.0033 0.1339
vn -0.0021 -0.9995 0.0307
vn 0.0025 0.9989 0.0462
vn -0.9894 0.0011 0.1454
vn -0.2652 -0.9642 -0.0060
vn -0.2608 0.9653 0.0090
vn -0.9910 0.0033 -0.1339
vn -0.0025 -0.9989 -0.0462
vn 0.0021 0.9995 -0.0307
vn -0.0023 -1.0000 -0.0078
vn 1.0000 -0.0022 -0.0058
vn -0.0058 0.0078 -1.0000
vn 0.0023 1.0000 0.0078
vn 0.0058 -0.0078 1.0000
vn -1.0000 0.0022 0.0058
vn 0.2658 -0.9634 -0.0357
vn 0.2597 0.9648 -0.0410
vn 0.2661 -0.9632 0.0384
vn 0.2602 0.9650 0.0331
vn -0.2603 -0.9650 -0.0331
vn -0.2661 0.9632 -0.0384
vn -0.2596 -0.9648 0.0410
vn -0.2660 0.9633 0.0357
vn 0.2659 -0.9640 0.0014
vn 0.9895 0.0027 -0.1445
vn 0.2600 0.9656 -0.0040
vn 0.9909 0.0034 0.1347
vn 0.0033 -0.9991 0.0412
vn -0.0029 0.9994 0.0357
vn -0.9895 -0.0027 0.1445
vn -0.2600 -0.9656 0.0040
vn -0.2661 0.9639 -0.0014
vn -0.9909 -0.0034 -0.1347
vn 0.0029 -0.9994 -0.0357
vn -0.0033 0.9991 -0.0412
vn 0.0031 -1.0000 0.0028
vn 1.0000 0.0031 -0.0049
vn -0.0049 -0.0028 -1.0000
vn -0.0031 1.0000 -0.0028
vn 0.0049 0.0028 1.0000
vn -1.0000 -0.0031 0.0049
vn 0.8573 -0.4728 -0.2037
vn 0.8684 0.4507 -0.2065
vn 0.8556 -0.4716 0.2134
vn 0.8668 0.4520 0.2107
vn -0.8668 -0.4520 -0.2107
vn -0.8556 0.4716 -0.2134
vn -0.8684 -0.4507 0.2065
vn -0.8573 0.4728 0.2037
vn 0.8757 -0.4828 0.0050
vn 0.9728 -0.0125 -0.2312
vn 0.8871 0.4615 0.0021
vn 0.9709 -0.0110 0.2391
vn -0.0127 -0.9100 0.4143
vn 0.0094 0.9126 0.4088
vn -0.9728 0.0125 0.2312
vn -0.8871 -0.4615 -0.0021
vn -0.8757 0.4828 -0.0050
vn -0.9709 0.0110 -0.2391
vn -0.0094 -0.9126 -0.4088
vn 0.0127 0.9100 -0.4143
vn -0.0121 -0.9999 0.0030
vn 0.9999 -0.0121 0.0040
vn 0.0040 -0.0031 -1.0000
vn 0.0121 0.9999 -0.0030
vn -0.0040 0.0031 1.0000
vn -0.9999 0.0121 -0.0040
vn 0.8584 -0.4665 -0.2132
vn 0.8649 0.4571 -0.2074
vn 0.8593 -0.4691 0.2039
vn 0.8657 0.4545 0.2097
vn -0.8657 -0.4545 -0.2097
vn -0.8593 0.4691 -0.2039
vn -0.8649 -0.4571 0.2074
vn -0.8584 0.4665 0.2132
vn 0.8782 -0.4783 -0.0048
vn 0.9715 -0.0053 -0.2371
vn 0.8848 0.4661 0.0012
vn 0.9724 -0.0082 0.2332
vn -0.0055 -0.9139 0.4059
vn 0.0072 0.9087 0.4173
vn -0.9715 0.0053 0.2371
vn -0.8848 -0.4661 -0.0012
vn -0.8782 0.4783 0.0048
vn -0.9724 0.0082 -0.2331
vn -0.0072 -0.9087 -0.4173
vn 0.0055 0.9139 -0.4059
vn -0.0070 -1.0000 -0.0063
vn 1.0000 -0.0070 -0.0020
vn -0.0020 0.0063 -1.0000
vn 0.0070 1.0000 0.0063
vn 0.0020 -0.0063 1.0000
vn -1.0000 0.0070 0.0020
vn 0.0938 -0.9883 -0.1205
vn 0.1196 0.9867 -0.1104
vn 0.0951 -0.9895 0.1092
vn 0.1209 0.9855 0.1192
vn -0.1209 -0.9855 -0.1192
vn -0.0951 0.9895 -0.1092
vn -0.1196 -0.9867 0.1104
vn -0.0938 0.9883 0.1205
vn 0.0951 -0.9955 -0.0057
vn 0.6787 -0.0051 -0.7344
vn 0.1210 0.9926 0.0044
vn 0.6869 -0.0126 0.7266
vn -0.0123 -0.9938 0.1104
vn 0.0136 0.9926 0.1205
vn -0.6787 0.0051 0.7344
vn -0.1210 -0.9926 -0.0044
vn -0.0951 0.9955 0.0057
vn -0.6869 0.0126 -0.7266
vn -0.0136 -0.9926 -0.1205
vn 0.0123 0.9938 -0.1104
vn -0.0130 -0.9999 -0.0051
vn 0.9999 -0.0130 -0.0057
vn -0.0056 0.0052 -1.0000
vn 0.0130 0.9999 0.0051
vn 0.0056 -0.0052 1.0000
vn -0.9999 0.0130 0.0057
vn 0.0148 -0.2146 0.9766
vn -0.4887 -0.8724 0.0022
vn 0.9870 0.0129 -0.1603
vn -0.9847 0.0013 0.1744
vn 0.6942 -0.0046 0.7198
vn -0.1082 0.9941 0.0082
vn -0.6941 0.0046 -0.7198
vn 0.6753 -0.7221 -0.1502
vn 0.3408 -0.0475 -0.9389
vn 0.3460 0.8704 -0.3503
vn 0.0695 0.9089 0.4112
vn -0.3458 -0.8705 0.3503
vn -0.6753 0.7221 0.1503
vn 0.2370 -0.7953 -0.5580
vn 0.5738 -0.7990 0.1798
vn 0.5000 0.8372 0.2216
vn -0.1629 -0.8409 0.5160
vn -0.2369 0.7954 0.5579
vn -0.9085 -0.0517 0.4147
vn -0.5000 -0.8372 -0.2216
vn -0.5739 0.7989 -0.1798
vn 0.6403 -0.7613 -0.1026
vn 0.4275 -0.0515 -0.9026
vn 0.2934 -0.7196 0.6294
vn 0.0857 0.8945 0.4389
vn -0.6402 0.7613 0.1026
vn -0.8951 -0.1642 -0.4145
vn -0.0858 -0.8945 -0.4388
vn -0.2936 0.7195 -0.6293
vn 0.4018 0.8348 -0.3765
vn 0.4042 -0.7929 0.4560
vn -0.4843 0.8014 0.3511
vn -0.9938 -0.0517 -0.0980
vn -0.3216 -0.8434 -0.4305
vn -0.4044 0.7928 -0.4560
vn 0.6823 -0.7000 -0.2109
vn 0.2649 0.8715 -0.4127
vn 0.9397 0.2754 0.2025
vn -0.6821 0.7001 0.2109
vn 0.0496 0.8603 -0.5074
vn 0.8789 0.1546 -0.4513
vn 0.6633 -0.7349 0.1414
vn 0.4167 0.8831 0.2154
vn 0.4527 0.0282 0.8912
vn -0.0495 -0.8603 0.5074
vn -0.4166 -0.8832 -0.2154
vn -0.6631 0.7350 -0.1414
vn 0.6636 -0.7362 0.1329
vn -0.4757 -0.8654 0.1577
vn -0.6635 0.7363 -0.1329
vn 0.3869 -0.7483 -0.5388
vn 0.0829 0.8612 -0.5015
vn 0.9212 0.1820 -0.3439
vn 0.6642 -0.7136 0.2225
vn 0.3602 0.8959 0.2599
vn -0.0828 -0.8612 0.5014
vn -0.3869 0.7484 0.5387
vn -0.6643 0.7136 -0.2225
vn -0.4096 -0.0984 0.9069
vn 0.2272 -0.7655 -0.6020
vn 0.0102 0.8563 -0.5164
vn 0.6643 -0.7431 0.0807
vn 0.4475 0.8787 0.1664
vn 0.5390 0.0276 0.8419
vn -0.0103 -0.8563 0.5163
vn -0.2273 0.7654 0.6021
vn -0.4473 -0.8788 -0.1664
vn -0.6642 0.7432 -0.0807
vn 0.1325 -0.9898 -0.0523
vn -0.6864 0.7272 0.0100
vn 0.4541 0.4273 0.7818
vn 0.0052 -0.3458 0.9383
vn -0.4542 -0.4273 -0.7818
vn -0.0052 0.3458 -0.9383
vn 0.3267 -0.4323 -0.8405
vn -0.0096 0.7178 -0.6962
vn 0.2608 -0.9653 -0.0090
vn 0.2654 0.9641 0.0060
vn -0.2654 -0.9641 -0.0060
vn -0.2609 0.9653 0.0090
vn 0.2663 -0.9639 0.0014
vn 0.2603 0.9655 -0.0040
vn -0.2602 -0.9655 0.0040
vn -0.2658 0.9640 -0.0014
vn -0.9724 0.0082 -0.2332
vn 0.6869 -0.0127 0.7266
vn -0.6869 0.0127 -0.7266
vt 0.138880 0.290000
vt 0.138880 0.295040
vt 0.130000 0.295040
vt 0.138880 0.704960
vt 0.138880 0.710000
vt 0.130000 0.704960
vt 0.861120 0.290000
vt 0.870000 0.295040
vt 0.861120 0.295040
vt 0.861120 0.710000
vt 0.861120 0.704960
vt 0.870000 0.704960
vt 0.138880 0.543920
vt 0.130000 0.456080
vt 0.130000 0.543920
vt 0.138880 0.456080
vt 0.861120 0.543920
vt 0.870000 0.456080
vt 0.861120 0.456080
vt 0.870000 0.543920
vt 0.456080 0.704960
vt 0.543920 0.295040
vt 0.456080 0.295040
vt 0.543920 0.704960
vt 0.246240 0.290000
vt 0.240000 0.295040
vt 0.246240 0.295040
vt 0.240000 0.704960
vt 0.246240 0.710000
vt 0.246240 0.704960
vt 0.753760 0.290000
vt 0.753760 0.295040
vt 0.760000 0.295040
vt 0.753760 0.710000
vt 0.760000 0.704960
vt 0.753760 0.704960
vt 0.456080 0.753760
vt 0.543920 0.760000
vt 0.543920 0.753760
vt 0.456080 0.760000
vt 0.543920 0.246240
vt 0.456080 0.240000
vt 0.456080 0.246240
vt 0.543920 0.240000
vt 0.138880 0.158400
vt 0.138880 0.150000
vt 0.130000 0.158400
vt 0.138880 0.841600
vt 0.130000 0.841600
vt 0.138880 0.850000
vt 0.861120 0.158400
vt 0.870000 0.158400
vt 0.861120 0.150000
vt 0.861120 0.841600
vt 0.861120 0.850000
vt 0.870000 0.841600
vt 0.138880 0.539040
vt 0.130000 0.460960
vt 0.138880 0.460960
vt 0.130000 0.539040
vt 0.870000 0.460960
vt 0.861120 0.539040
vt 0.870000 0.539040
vt 0.158400 0.539040
vt 0.841600 0.460960
vt 0.158400 0.460960
vt 0.861120 0.460960
vt 0.841600 0.539040
vt 0.408218 0.408218
vt 0.408218 0.407104
vt 0.407104 0.408218
vt 0.408218 0.591782
vt 0.407104 0.591782
vt 0.408218 0.592897
vt 0.591782 0.408218
vt 0.592897 0.408218
vt 0.591782 0.407104
vt 0.591782 0.591782
vt 0.591782 0.592897
vt 0.592897 0.591782
vt 0.408218 0.564247
vt 0.407104 0.435753
vt 0.408218 0.435753
vt 0.407104 0.564247
vt 0.592897 0.564247
vt 0.591782 0.435753
vt 0.591782 0.564247
vt 0.431086 0.431086
vt 0.431086 0.430249
vt 0.430249 0.431086
vt 0.431086 0.568914
vt 0.430249 0.568914
vt 0.431086 0.569751
vt 0.568914 0.431086
vt 0.569751 0.431086
vt 0.568914 0.430249
vt 0.568914 0.568914
vt 0.568914 0.569751
vt 0.569751 0.568914
vt 0.431086 0.548240
vt 0.430249 0.451760
vt 0.431086 0.451760
vt 0.430249 0.548240
vt 0.569751 0.548240
vt 0.568914 0.451760
vt 0.568914 0.548240
vt 0.417782 0.417782
vt 0.417782 0.416783
vt 0.416783 0.417782
vt 0.417782 0.582218
vt 0.416783 0.582218
vt 0.417782 0.583217
vt 0.582218 0.417782
vt 0.583217 0.417782
vt 0.582218 0.416783
vt 0.582218 0.582218
vt 0.582218 0.583217
vt 0.583217 0.582218
vt 0.417782 0.557553
vt 0.416783 0.442447
vt 0.417782 0.442447
vt 0.416783 0.557553
vt 0.583217 0.442447
vt 0.582218 0.557553
vt 0.583217 0.557553
vt 0.582218 0.442447
vt 0.432700 0.432700
vt 0.432700 0.431883
vt 0.431883 0.432700
vt 0.432700 0.567300
vt 0.431883 0.567300
vt 0.432700 0.568117
vt 0.567300 0.432700
vt 0.568117 0.432700
vt 0.567300 0.431883
vt 0.567300 0.567300
vt 0.567300 0.568117
vt 0.568117 0.567300
vt 0.432700 0.547110
vt 0.431883 0.452890
vt 0.432700 0.452890
vt 0.431883 0.547110
vt 0.568117 0.547110
vt 0.567300 0.452890
vt 0.567300 0.547110
vt 0.568117 0.452890
vt 0.404990 0.404990
vt 0.404990 0.403836
vt 0.403836 0.404990
vt 0.404990 0.595010
vt 0.403836 0.595010
vt 0.404990 0.596164
vt 0.595010 0.404990
vt 0.596164 0.404990
vt 0.595010 0.403836
vt 0.595010 0.595010
vt 0.595010 0.596164
vt 0.596164 0.595010
vt 0.404990 0.566507
vt 0.403836 0.433493
vt 0.404990 0.433493
vt 0.403836 0.566507
vt 0.596164 0.566507
vt 0.595010 0.433493
vt 0.595010 0.566507
vt 0.419055 0.419055
vt 0.419055 0.418072
vt 0.418072 0.419055
vt 0.419055 0.580945
vt 0.418072 0.580945
vt 0.419055 0.581928
vt 0.580945 0.419055
vt 0.581928 0.419055
vt 0.580945 0.418072
vt 0.580945 0.580945
vt 0.580945 0.581928
vt 0.581928 0.580945
vt 0.419055 0.443339
vt 0.418072 0.556661
vt 0.418072 0.443339
vt 0.419055 0.556661
vt 0.581928 0.556661
vt 0.580945 0.443339
vt 0.580945 0.556661
vt 0.413327 0.413327
vt 0.413327 0.412274
vt 0.412274 0.413327
vt 0.413327 0.586673
vt 0.412274 0.586673
vt 0.413327 0.587726
vt 0.586673 0.413327
vt 0.587726 0.413327
vt 0.586673 0.412274
vt 0.586673 0.586673
vt 0.586673 0.587726
vt 0.587726 0.586673
vt 0.413327 0.560671
vt 0.412274 0.439329
vt 0.413327 0.439329
vt 0.412274 0.560671
vt 0.587726 0.560671
vt 0.586673 0.439329
vt 0.586673 0.560671
vt 0.587726 0.439329
vt 0.415974 0.415974
vt 0.415974 0.414954
vt 0.414954 0.415974
vt 0.415974 0.584026
vt 0.414954 0.584026
vt 0.415974 0.585046
vt 0.584026 0.415974
vt 0.585046 0.415974
vt 0.584026 0.414954
vt 0.584026 0.584026
vt 0.584026 0.585046
vt 0.585046 0.584026
vt 0.415974 0.558818
vt 0.414954 0.441182
vt 0.415974 0.441182
vt 0.414954 0.558818
vt 0.585046 0.558818
vt 0.584026 0.441182
vt 0.584026 0.558818
vt 0.585046 0.441182
vt 0.419209 0.419209
vt 0.419209 0.418227
vt 0.418227 0.419209
vt 0.419209 0.580791
vt 0.418227 0.580791
vt 0.419209 0.581773
vt 0.580791 0.419209
vt 0.581773 0.419209
vt 0.580791 0.418227
vt 0.580791 0.580791
vt 0.580791 0.581773
vt 0.581773 0.580791
vt 0.419209 0.443446
vt 0.418227 0.556554
vt 0.418227 0.443446
vt 0.419209 0.556554
vt 0.581773 0.443446
vt 0.580791 0.556554
vt 0.581773 0.556554
vt 0.580791 0.443446
vt 0.158400 0.841600
vt 0.841600 0.158400
vt 0.158400 0.158400
vt 0.841600 0.841600
vt 0.177920 0.334080
vt 0.177920 0.330000
vt 0.170000 0.334080
vt 0.177920 0.665920
vt 0.170000 0.665920
vt 0.177920 0.670000
vt 0.822080 0.334080
vt 0.830000 0.334080
vt 0.822080 0.330000
vt 0.822080 0.665920
vt 0.822080 0.670000
vt 0.830000 0.665920
vt 0.177920 0.646400
vt 0.170000 0.353600
vt 0.177920 0.353600
vt 0.170000 0.646400
vt 0.830000 0.353600
vt 0.822080 0.646400
vt 0.830000 0.646400
vt 0.822080 0.353600
vt 0.334080 0.646400
vt 0.665920 0.353600
vt 0.334080 0.353600
vt 0.665920 0.646400
vt 0.216960 0.402400
vt 0.216960 0.400000
vt 0.210000 0.402400
vt 0.216960 0.597600
vt 0.210000 0.597600
vt 0.216960 0.600000
vt 0.783040 0.402400
vt 0.790000 0.402400
vt 0.783040 0.400000
vt 0.783040 0.597600
vt 0.783040 0.600000
vt 0.790000 0.597600
vt 0.216960 0.470720
vt 0.210000 0.529280
vt 0.210000 0.470720
vt 0.216960 0.529280
vt 0.790000 0.470720
vt 0.783040 0.529280
vt 0.790000 0.529280
vt 0.783040 0.470720
vt 0.402400 0.529280
vt 0.597600 0.470720
vt 0.402400 0.470720
vt 0.597600 0.529280
vt 0.445660 0.114680
vt 0.445660 0.110000
vt 0.445000 0.114680
vt 0.445660 0.885320
vt 0.445000 0.885320
vt 0.445660 0.890000
vt 0.554340 0.114680
vt 0.555000 0.114680
vt 0.554340 0.110000
vt 0.554340 0.885320
vt 0.554340 0.890000
vt 0.555000 0.885320
vt 0.110000 0.485180
vt 0.114680 0.514820
vt 0.114680 0.485180
vt 0.890000 0.485180
vt 0.885320 0.514820
vt 0.890000 0.514820
vt 0.885320 0.485180
vt 0.110000 0.514820
vt 0.554340 0.485180
vt 0.445660 0.514820
vt 0.445660 0.485180
vt 0.554340 0.514820
vt 0.197440 0.360000
vt 0.190000 0.363360
vt 0.197440 0.363360
vt 0.190000 0.636640
vt 0.197440 0.640000
vt 0.197440 0.636640
vt 0.802560 0.360000
vt 0.802560 0.363360
vt 0.810000 0.363360
vt 0.802560 0.640000
vt 0.810000 0.636640
vt 0.802560 0.636640
vt 0.426800 0.802560
vt 0.573200 0.810000
vt 0.573200 0.802560
vt 0.426800 0.810000
vt 0.573200 0.197440
vt 0.426800 0.190000
vt 0.426800 0.197440
vt 0.573200 0.190000
vt 0.573200 0.363360
vt 0.426800 0.636640
vt 0.426800 0.363360
vt 0.573200 0.636640
vt 0.051040 0.080320
vt 0.051040 0.070000
vt 0.040000 0.080320
vt 0.051040 0.919680
vt 0.040000 0.919680
vt 0.051040 0.930000
vt 0.948960 0.080320
vt 0.960000 0.080320
vt 0.948960 0.070000
vt 0.948960 0.919680
vt 0.948960 0.930000
vt 0.960000 0.919680
vt 0.051040 0.548800
vt 0.040000 0.451200
vt 0.051040 0.451200
vt 0.040000 0.548800
vt 0.960000 0.548800
vt 0.948960 0.451200
vt 0.948960 0.548800
vt 0.960000 0.451200
vt 0.080320 0.548800
vt 0.919680 0.451200
vt 0.080320 0.451200
vt 0.592897 0.435753
vt 0.569751 0.451760
vt 0.596164 0.433493
vt 0.581928 0.443339
vt 0.919680 0.548800
s 0
usemtl wood
f 1/1/1 2/2/1 3/3/1
f 4/4/2 5/5/2 6/6/2
f 7/1/3 8/3/3 9/2/3
f 10/5/4 11/4/4 12/6/4
f 13/7/5 14/8/5 15/9/5
f 16/10/6 17/11/6 18/12/6
f 19/7/7 20/9/7 21/8/7
f 22/10/8 23/12/8 24/11/8
f 7/13/9 3/14/9 8/15/9
f 4/4/10 3/3/10 2/2/10
f 10/13/11 6/14/11 5/16/11
f 9/2/12 12/6/12 11/4/12
f 19/7/13 9/2/13 20/9/13
f 22/10/14 11/4/14 10/5/14
f 21/8/15 24/11/15 23/12/15
f 19/17/16 14/18/16 13/19/16
f 16/19/17 23/20/17 22/17/17
f 15/9/18 18/12/18 17/11/18
f 13/7/19 2/2/19 1/1/19
f 5/5/20 17/11/20 16/10/20
f 19/17/21 1/16/21 7/13/21
f 6/21/22 8/22/22 3/23/22
f 15/9/23 4/4/23 2/2/23
f 22/17/24 5/16/24 16/19/24
f 11/4/25 20/9/25 9/2/25
f 23/24/26 14/23/26 21/22/26
f 25/1/27 26/2/27 27/3/27
f 28/4/28 29/5/28 30/6/28
f 31/1/29 32/3/29 33/2/29
f 34/5/30 35/4/30 36/6/30
f 37/7/31 38/8/31 39/9/31
f 40/10/32 41/11/32 42/12/32
f 43/7/33 44/9/33 45/8/33
f 46/10/34 47/12/34 48/11/34
f 25/16/35 32/15/35 31/13/35
f 28/4/36 27/3/36 26/2/36
f 29/16/37 36/15/37 30/14/37
f 33/2/38 36/6/38 35/4/38
f 31/1/39 44/9/39 43/7/39
f 46/10/40 35/4/40 34/5/40
f 45/8/41 48/11/41 47/12/41
f 43/17/42 38/18/42 37/19/42
f 46/17/43 42/18/43 47/20/43
f 41/11/44 38/8/44 42/12/44
f 37/7/45 26/2/45 25/1/45
f 29/5/46 41/11/46 40/10/46
f 43/17/47 25/16/47 31/13/47
f 30/21/48 32/22/48 27/23/48
f 41/11/49 26/2/49 39/9/49
f 34/13/50 40/19/50 46/17/50
f 33/2/51 48/11/51 44/9/51
f 47/24/52 38/23/52 45/22/52
f 49/25/53 50/26/53 51/27/53
f 52/28/54 53/29/54 54/30/54
f 55/31/55 56/32/55 57/33/55
f 58/34/56 59/35/56 60/36/56
f 61/25/57 62/27/57 63/26/57
f 64/29/58 65/28/58 66/30/58
f 67/31/59 68/33/59 69/32/59
f 70/34/60 71/36/60 72/35/60
f 49/25/61 56/32/61 55/31/61
f 50/26/62 54/30/62 51/27/62
f 58/34/63 54/30/63 53/29/63
f 57/33/64 60/36/64 59/35/64
f 55/37/65 68/38/65 67/39/65
f 58/37/66 72/38/66 59/40/66
f 69/32/67 72/35/67 71/36/67
f 67/31/68 62/27/68 61/25/68
f 64/29/69 71/36/69 70/34/69
f 65/28/70 62/27/70 66/30/70
f 61/41/71 50/42/71 49/43/71
f 53/43/72 65/44/72 64/41/72
f 67/39/73 49/43/73 55/37/73
f 54/30/74 56/32/74 51/27/74
f 63/22/75 52/21/75 50/23/75
f 58/37/76 64/41/76 70/39/76
f 59/21/77 68/22/77 57/23/77
f 69/32/78 66/30/78 62/27/78
f 73/25/79 74/26/79 75/27/79
f 76/28/80 77/29/80 78/30/80
f 79/31/81 80/32/81 81/33/81
f 82/34/82 83/35/82 84/36/82
f 85/25/83 86/27/83 87/26/83
f 88/29/84 89/28/84 90/30/84
f 91/31/85 92/33/85 93/32/85
f 94/34/86 95/36/86 96/35/86
f 79/31/87 75/27/87 80/32/87
f 76/28/88 75/27/88 74/26/88
f 82/34/89 78/30/89 77/29/89
f 83/35/90 80/32/90 84/36/90
f 79/37/91 92/38/91 91/39/91
f 82/37/92 96/38/92 83/40/92
f 93/32/93 96/35/93 95/36/93
f 91/31/94 86/27/94 85/25/94
f 88/29/95 95/36/95 94/34/95
f 89/28/96 86/27/96 90/30/96
f 85/41/97 74/42/97 73/43/97
f 77/43/98 89/44/98 88/41/98
f 79/37/99 85/41/99 73/43/99
f 75/27/100 84/36/100 80/32/100
f 87/22/101 76/21/101 74/23/101
f 82/37/102 88/41/102 94/39/102
f 83/21/103 92/22/103 81/23/103
f 95/36/104 86/27/104 93/32/104
f 97/45/105 98/46/105 99/47/105
f 100/46/106 101/45/106 102/47/106
f 103/48/107 104/49/107 105/50/107
f 106/48/108 107/50/108 108/49/108
f 109/51/109 110/52/109 111/53/109
f 112/51/110 113/53/110 114/52/110
f 115/54/111 116/55/111 117/56/111
f 118/54/112 119/56/112 120/55/112
f 97/45/113 104/49/113 103/48/113
f 100/57/114 99/58/114 98/59/114
f 106/48/115 102/47/115 101/45/115
f 105/59/116 108/60/116 107/57/116
f 103/48/117 116/55/117 115/54/117
f 118/54/118 107/50/118 106/48/118
f 117/61/119 120/62/119 119/63/119
f 115/54/120 110/52/120 109/51/120
f 112/51/121 119/56/121 118/54/121
f 113/62/122 110/61/122 114/63/122
f 97/45/123 111/53/123 98/46/123
f 112/51/124 100/46/124 113/53/124
f 115/54/125 97/45/125 103/48/125
f 102/64/126 104/65/126 99/66/126
f 113/62/127 98/59/127 111/67/127
f 106/48/128 112/51/128 118/54/128
f 107/57/129 116/67/129 105/59/129
f 119/68/130 110/66/130 117/65/130
f 337/45/365 338/46/365 339/47/365
f 340/46/366 341/45/366 342/47/366
f 343/48/367 344/49/367 345/50/367
f 346/48/368 347/50/368 348/49/368
f 349/51/369 350/52/369 351/53/369
f 352/51/370 353/53/370 354/52/370
f 355/54/371 356/55/371 357/56/371
f 358/54/372 359/56/372 360/55/372
f 343/48/373 339/47/373 344/49/373
f 340/48/374 339/47/374 338/45/374
f 346/48/375 342/47/375 341/45/375
f 345/45/376 348/49/376 347/48/376
f 343/48/377 356/55/377 355/54/377
f 358/54/378 347/50/378 346/48/378
f 357/52/379 360/54/379 359/56/379
f 355/54/380 350/52/380 349/51/380
f 352/51/381 359/56/381 358/54/381
f 351/51/382 354/56/382 353/54/382
f 349/51/383 338/46/383 337/45/383
f 341/45/384 353/53/384 352/51/384
f 355/54/385 337/45/385 343/48/385
f 342/245/386 344/246/386 339/247/386
f 353/54/387 338/45/387 351/51/387
f 346/48/388 352/51/388 358/54/388
f 347/48/389 356/51/389 345/45/389
f 359/248/390 350/247/390 357/246/390
f 361/249/391 362/250/391 363/251/391
f 364/250/392 365/249/392 366/251/392
f 367/252/393 368/253/393 369/254/393
f 370/252/394 371/254/394 372/253/394
f 373/255/395 374/256/395 375/257/395
f 376/255/396 377/257/396 378/256/396
f 379/258/397 380/259/397 381/260/397
f 382/258/398 383/260/398 384/259/398
f 367/252/399 363/251/399 368/253/399
f 364/261/400 363/262/400 362/263/400
f 370/252/401 366/251/401 365/249/401
f 369/263/402 372/264/402 371/261/402
f 367/252/403 380/259/403 379/258/403
f 382/258/404 371/254/404 370/252/404
f 381/265/405 384/266/405 383/267/405
f 379/258/406 374/256/406 373/255/406
f 376/255/407 383/260/407 382/258/407
f 375/268/408 378/267/408 377/266/408
f 373/255/409 362/250/409 361/249/409
f 365/249/410 377/257/410 376/255/410
f 379/258/411 361/249/411 367/252/411
f 366/269/412 368/270/412 363/271/412
f 377/266/413 362/263/413 375/268/413
f 370/252/414 376/255/414 382/258/414
f 371/261/415 380/268/415 369/263/415
f 383/272/416 374/271/416 381/270/416
f 457/321/495 458/322/495 459/323/495
f 460/324/496 461/325/496 462/326/496
f 463/327/497 464/328/497 465/329/497
f 466/330/498 467/331/498 468/332/498
f 469/321/499 470/323/499 471/322/499
f 472/325/500 473/324/500 474/326/500
f 475/327/501 476/329/501 477/328/501
f 478/330/502 479/332/502 480/331/502
f 457/321/503 464/328/503 463/327/503
f 458/322/504 462/326/504 459/323/504
f 466/330/505 462/326/505 461/325/505
f 467/331/506 464/328/506 468/332/506
f 463/333/507 476/334/507 475/335/507
f 478/335/508 467/336/508 466/333/508
f 477/328/509 480/331/509 479/332/509
f 469/321/510 477/328/510 470/323/510
f 478/330/511 474/326/511 479/332/511
f 473/324/512 470/323/512 474/326/512
f 469/337/513 458/338/513 457/339/513
f 461/339/514 473/340/514 472/337/514
f 475/335/515 457/339/515 463/333/515
f 462/326/516 464/328/516 459/323/516
f 471/341/517 460/342/517 458/343/517
f 466/333/518 472/337/518 478/335/518
f 467/342/519 476/341/519 465/343/519
f 477/328/520 474/326/520 470/323/520
f 481/321/521 482/322/521 483/323/521
f 484/324/522 485/325/522 486/326/522
f 487/327/523 488/328/523 489/329/523
f 490/330/524 491/331/524 492/332/524
f 493/321/525 494/323/525 495/322/525
f 496/325/526 497/324/526 498/326/526
f 499/327/527 500/329/527 501/328/527
f 502/330/528 503/332/528 504/331/528
f 481/321/529 488/328/529 487/327/529
f 484/324/530 483/323/530 482/322/530
f 485/325/531 492/332/531 486/326/531
f 489/329/532 492/332/532 491/331/532
f 487/333/533 500/334/533 499/335/533
f 502/335/534 491/336/534 490/333/534
f 501/328/535 504/331/535 503/332/535
f 499/327/536 494/323/536 493/321/536
f 496/325/537 503/332/537 502/330/537
f 497/324/538 494/323/538 498/326/538
f 481/339/539 495/340/539 482/338/539
f 485/339/540 497/340/540 496/337/540
f 499/335/541 481/339/541 487/333/541
f 486/326/542 488/328/542 483/323/542
f 497/344/543 482/343/543 495/341/543
f 502/335/544 485/339/544 496/337/544
f 491/342/545 500/341/545 489/343/545
f 501/328/546 498/326/546 494/323/546
f 7/13/9 1/16/9 3/14/9
f 4/4/10 6/6/10 3/3/10
f 10/13/11 12/15/11 6/14/11
f 9/2/12 8/3/12 12/6/12
f 19/7/13 7/1/13 9/2/13
f 22/10/14 24/11/14 11/4/14
f 21/8/15 20/9/15 24/11/15
f 19/17/16 21/20/16 14/18/16
f 16/19/17 18/18/17 23/20/17
f 15/9/18 14/8/18 18/12/18
f 13/7/19 15/9/19 2/2/19
f 5/5/20 4/4/20 17/11/20
f 19/17/21 13/19/21 1/16/21
f 6/21/22 12/24/22 8/22/22
f 15/9/23 17/11/23 4/4/23
f 22/17/24 10/13/24 5/16/24
f 11/4/25 24/11/25 20/9/25
f 23/24/26 18/21/26 14/23/26
f 25/16/35 27/14/35 32/15/35
f 28/4/36 30/6/36 27/3/36
f 29/16/37 34/13/37 36/15/37
f 33/2/38 32/3/38 36/6/38
f 31/1/573 33/2/573 44/9/573
f 46/10/40 48/11/40 35/4/40
f 45/8/41 44/9/41 48/11/41
f 43/17/574 45/20/574 38/18/574
f 46/17/43 40/19/43 42/18/43
f 41/11/44 39/9/44 38/8/44
f 37/7/45 39/9/45 26/2/45
f 29/5/46 28/4/46 41/11/46
f 43/17/47 37/19/47 25/16/47
f 30/21/48 36/24/48 32/22/48
f 41/11/49 28/4/49 26/2/49
f 34/13/50 29/16/50 40/19/50
f 33/2/51 35/4/51 48/11/51
f 47/24/52 42/21/52 38/23/52
f 49/25/61 51/27/61 56/32/61
f 50/26/575 52/28/575 54/30/575
f 58/34/63 60/36/63 54/30/63
f 57/33/64 56/32/64 60/36/64
f 55/37/65 57/40/65 68/38/65
f 58/37/66 70/39/66 72/38/66
f 69/32/67 68/33/67 72/35/67
f 67/31/68 69/32/68 62/27/68
f 64/29/69 66/30/69 71/36/69
f 65/28/70 63/26/70 62/27/70
f 61/41/71 63/44/71 50/42/71
f 53/43/72 52/42/72 65/44/72
f 67/39/73 61/41/73 49/43/73
f 54/30/74 60/36/74 56/32/74
f 63/22/75 65/24/75 52/21/75
f 58/37/76 53/43/76 64/41/76
f 59/21/77 72/24/77 68/22/77
f 69/32/78 71/36/78 66/30/78
f 79/31/87 73/25/87 75/27/87
f 76/28/88 78/30/88 75/27/88
f 82/34/89 84/36/89 78/30/89
f 83/35/90 81/33/90 80/32/90
f 79/37/91 81/40/91 92/38/91
f 82/37/92 94/39/92 96/38/92
f 93/32/576 92/33/576 96/35/576
f 91/31/94 93/32/94 86/27/94
f 88/29/95 90/30/95 95/36/95
f 89/28/96 87/26/96 86/27/96
f 85/41/97 87/44/97 74/42/97
f 77/43/98 76/42/98 89/44/98
f 79/37/99 91/39/99 85/41/99
f 75/27/100 78/30/100 84/36/100
f 87/22/101 89/24/101 76/21/101
f 82/37/102 77/43/102 88/41/102
f 83/21/103 96/24/103 92/22/103
f 95/36/104 90/30/104 86/27/104
f 97/45/113 99/47/113 104/49/113
f 100/57/114 102/60/114 99/58/114
f 106/48/115 108/49/115 102/47/115
f 105/59/577 104/58/577 108/60/577
f 103/48/117 105/50/117 116/55/117
f 118/54/118 120/55/118 107/50/118
f 117/61/119 116/67/119 120/62/119
f 115/54/120 117/56/120 110/52/120
f 112/51/578 114/52/578 119/56/578
f 113/62/579 111/67/579 110/61/579
f 97/45/123 109/51/123 111/53/123
f 112/51/124 101/45/124 100/46/124
f 115/54/125 109/51/125 97/45/125
f 102/64/126 108/68/126 104/65/126
f 113/62/127 100/57/127 98/59/127
f 106/48/128 101/45/128 112/51/128
f 107/57/129 120/62/129 116/67/129
f 119/68/130 114/64/130 110/66/130
f 343/48/373 337/45/373 339/47/373
f 340/48/374 342/49/374 339/47/374
f 346/48/375 348/49/375 342/47/375
f 345/45/376 344/47/376 348/49/376
f 343/48/377 345/50/377 356/55/377
f 358/54/378 360/55/378 347/50/378
f 357/52/379 356/51/379 360/54/379
f 355/54/380 357/56/380 350/52/380
f 352/51/642 354/52/642 359/56/642
f 351/51/382 350/52/382 354/56/382
f 349/51/383 351/53/383 338/46/383
f 341/45/384 340/46/384 353/53/384
f 355/54/385 349/51/385 337/45/385
f 342/245/386 348/248/386 344/246/386
f 353/54/387 340/48/387 338/45/387
f 346/48/388 341/45/388 352/51/388
f 347/48/389 360/54/389 356/51/389
f 359/248/390 354/245/390 350/247/390
f 367/252/399 361/249/399 363/251/399
f 364/261/400 366/264/400 363/262/400
f 370/252/401 372/253/401 366/251/401
f 369/263/643 368/262/643 372/264/643
f 367/252/644 369/254/644 380/259/644
f 382/258/404 384/259/404 371/254/404
f 381/265/405 380/268/405 384/266/405
f 379/258/406 381/260/406 374/256/406
f 376/255/407 378/256/407 383/260/407
f 375/268/645 374/265/645 378/267/645
f 373/255/409 375/257/409 362/250/409
f 365/249/646 364/250/646 377/257/646
f 379/258/411 373/255/411 361/249/411
f 366/269/412 372/272/412 368/270/412
f 377/266/413 364/261/413 362/263/413
f 370/252/414 365/249/414 376/255/414
f 371/261/415 384/266/415 380/268/415
f 383/272/416 378/269/416 374/271/416
f 457/321/503 459/323/503 464/328/503
f 458/322/504 460/324/504 462/326/504
f 466/330/505 468/332/505 462/326/505
f 467/331/506 465/329/506 464/328/506
f 463/333/507 465/336/507 476/334/507
f 478/335/508 480/334/508 467/336/508
f 477/328/509 476/329/509 480/331/509
f 469/321/510 475/327/510 477/328/510
f 478/330/511 472/325/511 474/326/511
f 473/324/512 471/322/512 470/323/512
f 469/337/513 471/340/513 458/338/513
f 461/339/514 460/338/514 473/340/514
f 475/335/515 469/337/515 457/339/515
f 462/326/516 468/332/516 464/328/516
f 471/341/517 473/344/517 460/342/517
f 466/333/518 461/339/518 472/337/518
f 467/342/519 480/344/519 476/341/519
f 477/328/520 479/332/520 474/326/520
f 481/321/529 483/323/529 488/328/529
f 484/324/530 486/326/530 483/323/530
f 485/325/531 490/330/531 492/332/531
f 489/329/532 488/328/532 492/332/532
f 487/333/533 489/336/533 500/334/533
f 502/335/534 504/334/534 491/336/534
f 501/328/535 500/329/535 504/331/535
f 499/327/536 501/328/536 494/323/536
f 496/325/537 498/326/537 503/332/537
f 497/324/657 495/322/657 494/323/657
f 481/339/539 493/337/539 495/340/539
f 485/339/540 484/338/540 497/340/540
f 499/335/541 493/337/541 481/339/541
f 486/326/542 492/332/542 488/328/542
f 497/344/543 484/342/543 482/343/543
f 502/335/544 490/333/544 485/339/544
f 491/342/545 504/344/545 500/341/545
f 501/328/546 503/332/546 498/326/546
usemtl coal
f 121/69/131 122/70/131 123/71/131
f 124/70/132 125/69/132 126/71/132
f 127/72/133 128/73/133 129/74/133
f 130/72/134 131/74/134 132/73/134
f 133/75/135 134/76/135 135/77/135
f 136/75/136 137/77/136 138/76/136
f 139/78/137 140/79/137 141/80/137
f 142/78/138 143/80/138 144/79/138
f 127/72/139 123/71/139 128/73/139
f 124/81/140 123/82/140 122/83/140
f 125/69/141 132/73/141 126/71/141
f 129/83/142 132/84/142 131/81/142
f 139/78/143 129/74/143 140/79/143
f 130/72/144 144/79/144 131/74/144
f 143/85/145 140/86/145 144/87/145
f 133/75/146 141/80/146 134/76/146
f 136/75/147 143/80/147 142/78/147
f 135/86/148 138/85/148 137/87/148
f 133/75/149 122/70/149 121/69/149
f 136/75/150 124/70/150 137/77/150
f 139/78/151 121/69/151 127/72/151
f 126/81/152 128/86/152 123/83/152
f 137/87/153 122/83/153 135/86/153
f 142/78/154 125/69/154 136/75/154
f 131/81/155 140/86/155 129/83/155
f 143/87/156 134/83/156 141/86/156
f 145/88/157 146/89/157 147/90/157
f 148/89/158 149/88/158 150/90/158
f 151/91/159 152/92/159 153/93/159
f 154/91/160 155/93/160 156/92/160
f 157/94/161 158/95/161 159/96/161
f 160/94/162 161/96/162 162/95/162
f 163/97/163 164/98/163 165/99/163
f 166/97/164 167/99/164 168/98/164
f 145/88/165 152/92/165 151/91/165
f 148/100/166 147/101/166 146/102/166
f 154/91/167 150/90/167 149/88/167
f 153/102/168 156/103/168 155/100/168
f 151/91/169 164/98/169 163/97/169
f 154/91/170 168/98/170 155/93/170
f 167/104/171 164/105/171 168/106/171
f 157/94/172 165/99/172 158/95/172
f 166/97/173 162/95/173 167/99/173
f 159/105/174 162/104/174 161/106/174
f 145/88/175 159/96/175 146/89/175
f 149/88/176 161/96/176 160/94/176
f 151/91/177 157/94/177 145/88/177
f 147/102/178 156/106/178 152/105/178
f 161/106/179 146/102/179 159/105/179
f 154/91/180 160/94/180 166/97/180
f 153/102/181 168/106/181 164/105/181
f 167/106/182 158/102/182 165/105/182
f 169/107/183 170/108/183 171/109/183
f 172/108/184 173/107/184 174/109/184
f 175/110/185 176/111/185 177/112/185
f 178/110/186 179/112/186 180/111/186
f 181/113/187 182/114/187 183/115/187
f 184/113/188 185/115/188 186/114/188
f 187/116/189 188/117/189 189/118/189
f 190/116/190 191/118/190 192/117/190
f 175/110/191 171/109/191 176/111/191
f 172/119/192 171/120/192 170/121/192
f 178/110/193 174/109/193 173/107/193
f 177/121/194 180/122/194 179/119/194
f 187/116/195 177/112/195 188/117/195
f 178/110/196 192/117/196 179/112/196
f 189/123/197 192/124/197 191/125/197
f 187/116/198 182/114/198 181/113/198
f 190/116/199 186/114/199 191/118/199
f 183/126/200 186/125/200 185/124/200
f 181/113/201 170/108/201 169/107/201
f 173/107/202 185/115/202 184/113/202
f 187/116/203 169/107/203 175/110/203
f 174/119/204 176/126/204 171/121/204
f 185/124/205 170/121/205 183/126/205
f 190/116/206 173/107/206 184/113/206
f 177/121/207 192/124/207 188/126/207
f 191/124/208 182/121/208 189/126/208
f 193/127/209 194/128/209 195/129/209
f 196/128/210 197/127/210 198/129/210
f 199/130/211 200/131/211 201/132/211
f 202/130/212 203/132/212 204/131/212
f 205/133/213 206/134/213 207/135/213
f 208/133/214 209/135/214 210/134/214
f 211/136/215 212/137/215 213/138/215
f 214/136/216 215/138/216 216/137/216
f 193/127/217 200/131/217 199/130/217
f 196/139/218 195/140/218 194/141/218
f 202/130/219 198/129/219 197/127/219
f 201/141/220 204/142/220 203/139/220
f 199/130/221 212/137/221 211/136/221
f 214/136/222 203/132/222 202/130/222
f 215/143/223 212/144/223 216/145/223
f 211/136/224 206/134/224 205/133/224
f 214/136/225 210/134/225 215/138/225
f 209/145/226 206/146/226 210/143/226
f 193/127/227 207/135/227 194/128/227
f 208/133/228 196/128/228 209/135/228
f 211/136/229 193/127/229 199/130/229
f 195/141/230 204/145/230 200/144/230
f 209/145/231 194/141/231 207/144/231
f 202/130/232 208/133/232 214/136/232
f 201/141/233 216/145/233 212/144/233
f 215/145/234 206/141/234 213/144/234
f 217/147/235 218/148/235 219/149/235
f 220/148/236 221/147/236 222/149/236
f 223/150/237 224/151/237 225/152/237
f 226/150/238 227/152/238 228/151/238
f 229/153/239 230/154/239 231/155/239
f 232/153/240 233/155/240 234/154/240
f 235/156/241 236/157/241 237/158/241
f 238/156/242 239/158/242 240/157/242
f 223/150/243 219/149/243 224/151/243
f 220/159/244 219/160/244 218/161/244
f 226/150/245 222/149/245 221/147/245
f 227/159/246 224/160/246 228/162/246
f 223/150/247 236/157/247 235/156/247
f 226/150/248 240/157/248 227/152/248
f 239/163/249 236/164/249 240/165/249
f 235/156/250 230/154/250 229/153/250
f 232/153/251 239/158/251 238/156/251
f 231/164/252 234/163/252 233/165/252
f 229/153/253 218/148/253 217/147/253
f 232/153/254 220/148/254 233/155/254
f 235/156/255 217/147/255 223/150/255
f 222/159/256 224/164/256 219/161/256
f 233/165/257 218/161/257 231/164/257
f 226/150/258 232/153/258 238/156/258
f 227/159/259 236/164/259 225/161/259
f 239/165/260 230/161/260 237/164/260
f 241/166/261 242/167/261 243/168/261
f 244/167/262 245/166/262 246/168/262
f 247/169/263 248/170/263 249/171/263
f 250/169/264 251/171/264 252/170/264
f 253/172/265 254/173/265 255/174/265
f 256/172/266 257/174/266 258/173/266
f 259/175/267 260/176/267 261/177/267
f 262/175/268 263/177/268 264/176/268
f 241/166/269 248/170/269 247/169/269
f 242/178/270 246/179/270 243/180/270
f 250/169/271 246/168/271 245/166/271
f 249/178/272 252/179/272 251/181/272
f 247/169/273 260/176/273 259/175/273
f 250/169/274 264/176/274 251/171/274
f 263/182/275 260/183/275 264/184/275
f 259/175/276 254/173/276 253/172/276
f 256/172/277 263/177/277 262/175/277
f 255/183/278 258/182/278 257/184/278
f 241/166/279 255/174/279 242/167/279
f 256/172/280 244/167/280 257/174/280
f 259/175/281 241/166/281 247/169/281
f 246/181/282 248/183/282 243/178/282
f 255/183/283 244/181/283 242/178/283
f 262/175/284 245/166/284 256/172/284
f 251/181/285 260/183/285 249/178/285
f 263/184/286 254/178/286 261/183/286
f 265/185/287 266/186/287 267/187/287
f 268/186/288 269/185/288 270/187/288
f 271/188/289 272/189/289 273/190/289
f 274/188/290 275/190/290 276/189/290
f 277/191/291 278/192/291 279/193/291
f 280/191/292 281/193/292 282/192/292
f 283/194/293 284/195/293 285/196/293
f 286/194/294 287/196/294 288/195/294
f 271/188/295 267/187/295 272/189/295
f 268/197/296 267/198/296 266/199/296
f 269/185/297 276/189/297 270/187/297
f 273/199/298 276/200/298 275/197/298
f 283/194/299 273/190/299 284/195/299
f 274/188/300 288/195/300 275/190/300
f 287/201/301 284/202/301 288/203/301
f 277/191/302 285/196/302 278/192/302
f 280/191/303 287/196/303 286/194/303
f 281/203/304 278/204/304 282/201/304
f 277/191/305 266/186/305 265/185/305
f 280/191/306 268/186/306 281/193/306
f 271/188/307 277/191/307 265/185/307
f 267/199/308 276/203/308 272/202/308
f 281/203/309 266/199/309 279/202/309
f 274/188/310 280/191/310 286/194/310
f 273/199/311 288/203/311 284/202/311
f 287/203/312 278/199/312 285/202/312
f 289/205/313 290/206/313 291/207/313
f 292/206/314 293/205/314 294/207/314
f 295/208/315 296/209/315 297/210/315
f 298/208/316 299/210/316 300/209/316
f 301/211/317 302/212/317 303/213/317
f 304/211/318 305/213/318 306/212/318
f 307/214/319 308/215/319 309/216/319
f 310/214/320 311/216/320 312/215/320
f 289/205/321 296/209/321 295/208/321
f 292/217/322 291/218/322 290/219/322
f 293/205/323 300/209/323 294/207/323
f 299/217/324 296/218/324 300/220/324
f 295/208/325 308/215/325 307/214/325
f 298/208/326 312/215/326 299/210/326
f 311/221/327 308/222/327 312/223/327
f 301/211/328 309/216/328 302/212/328
f 304/211/329 311/216/329 310/214/329
f 305/223/330 302/224/330 306/221/330
f 301/211/331 290/206/331 289/205/331
f 304/211/332 292/206/332 305/213/332
f 307/214/333 289/205/333 295/208/333
f 291/219/334 300/223/334 296/222/334
f 303/222/335 292/217/335 290/219/335
f 310/214/336 293/205/336 304/211/336
f 297/219/337 312/223/337 308/222/337
f 311/223/338 302/219/338 309/222/338
f 313/225/339 314/226/339 315/227/339
f 316/226/340 317/225/340 318/227/340
f 319/228/341 320/229/341 321/230/341
f 322/228/342 323/230/342 324/229/342
f 325/231/343 326/232/343 327/233/343
f 328/231/344 329/233/344 330/232/344
f 331/234/345 332/235/345 333/236/345
f 334/234/346 335/236/346 336/235/346
f 319/228/347 315/227/347 320/229/347
f 314/237/348 318/238/348 315/239/348
f 317/225/349 324/229/349 318/227/349
f 321/237/350 324/238/350 323/240/350
f 319/228/351 332/235/351 331/234/351
f 334/234/352 323/230/352 322/228/352
f 333/241/353 336/242/353 335/243/353
f 325/231/354 333/236/354 326/232/354
f 328/231/355 335/236/355 334/234/355
f 327/244/356 330/243/356 329/242/356
f 313/225/357 327/233/357 314/226/357
f 317/225/358 329/233/358 328/231/358
f 331/234/359 313/225/359 319/228/359
f 318/240/360 320/244/360 315/237/360
f 329/242/361 314/237/361 327/244/361
f 322/228/362 328/231/362 334/234/362
f 323/240/363 332/244/363 321/237/363
f 335/242/364 326/237/364 333/244/364
f 127/72/580 121/69/580 123/71/580
f 124/81/581 126/84/581 123/82/581
f 125/69/582 130/72/582 132/73/582
f 129/83/142 128/82/142 132/84/142
f 139/78/143 127/72/143 129/74/143
f 130/72/583 142/78/583 144/79/583
f 143/85/145 141/368/145 140/86/145
f 133/75/584 139/78/584 141/80/584
f 136/75/585 138/76/585 143/80/585
f 135/86/148 134/368/148 138/85/148
f 133/75/149 135/77/149 122/70/149
f 136/75/150 125/69/150 124/70/150
f 139/78/151 133/75/151 121/69/151
f 126/81/152 132/87/152 128/86/152
f 137/87/153 124/81/153 122/83/153
f 142/78/154 130/72/154 125/69/154
f 131/81/155 144/87/155 140/86/155
f 143/87/156 138/81/156 134/83/156
f 145/88/586 147/90/586 152/92/586
f 148/100/166 150/103/166 147/101/166
f 154/91/167 156/92/167 150/90/167
f 153/102/168 152/101/168 156/103/168
f 151/91/587 153/93/587 164/98/587
f 154/91/588 166/97/588 168/98/588
f 167/104/171 165/369/171 164/105/171
f 157/94/589 163/97/589 165/99/589
f 166/97/590 160/94/590 162/95/590
f 159/105/591 158/369/591 162/104/591
f 145/88/592 157/94/592 159/96/592
f 149/88/593 148/89/593 161/96/593
f 151/91/177 163/97/177 157/94/177
f 147/102/178 150/100/178 156/106/178
f 161/106/179 148/100/179 146/102/179
f 154/91/180 149/88/180 160/94/180
f 153/102/181 155/100/181 168/106/181
f 167/106/182 162/100/182 158/102/182
f 175/110/594 169/107/594 171/109/594
f 172/119/595 174/122/595 171/120/595
f 178/110/193 180/111/193 174/109/193
f 177/121/194 176/120/194 180/122/194
f 187/116/596 175/110/596 177/112/596
f 178/110/597 190/116/597 192/117/597
f 189/123/197 188/126/197 192/124/197
f 187/116/198 189/118/198 182/114/198
f 190/116/598 184/113/598 186/114/598
f 183/126/599 182/123/599 186/125/599
f 181/113/600 183/115/600 170/108/600
f 173/107/601 172/108/601 185/115/601
f 187/116/203 181/113/203 169/107/203
f 174/119/204 180/124/204 176/126/204
f 185/124/205 172/119/205 170/121/205
f 190/116/206 178/110/206 173/107/206
f 177/121/207 179/119/207 192/124/207
f 191/124/208 186/119/208 182/121/208
f 193/127/217 195/129/217 200/131/217
f 196/139/218 198/142/218 195/140/218
f 202/130/602 204/131/602 198/129/602
f 201/141/220 200/140/220 204/142/220
f 199/130/603 201/132/603 212/137/603
f 214/136/222 216/137/222 203/132/222
f 215/143/223 213/146/223 212/144/223
f 211/136/224 213/138/224 206/134/224
f 214/136/604 208/133/604 210/134/604
f 209/145/605 207/144/605 206/146/605
f 193/127/606 205/133/606 207/135/606
f 208/133/607 197/127/607 196/128/607
f 211/136/229 205/133/229 193/127/229
f 195/141/230 198/139/230 204/145/230
f 209/145/231 196/139/231 194/141/231
f 202/130/232 197/127/232 208/133/232
f 201/141/233 203/139/233 216/145/233
f 215/145/234 210/139/234 206/141/234
f 223/150/608 217/147/608 219/149/608
f 220/159/244 222/162/244 219/160/244
f 226/150/609 228/151/609 222/149/609
f 227/159/610 225/161/610 224/160/610
f 223/150/247 225/152/247 236/157/247
f 226/150/248 238/156/248 240/157/248
f 239/163/249 237/370/249 236/164/249
f 235/156/250 237/158/250 230/154/250
f 232/153/611 234/154/611 239/158/611
f 231/164/252 230/370/252 234/163/252
f 229/153/253 231/155/253 218/148/253
f 232/153/254 221/147/254 220/148/254
f 235/156/255 229/153/255 217/147/255
f 222/159/256 228/165/256 224/164/256
f 233/165/257 220/159/257 218/161/257
f 226/150/258 221/147/258 232/153/258
f 227/159/259 240/165/259 236/164/259
f 239/165/260 234/159/260 230/161/260
f 241/166/269 243/168/269 248/170/269
f 242/178/270 244/181/270 246/179/270
f 250/169/612 252/170/612 246/168/612
f 249/178/613 248/180/613 252/179/613
f 247/169/614 249/171/614 260/176/614
f 250/169/615 262/175/615 264/176/615
f 263/182/616 261/371/616 260/183/616
f 259/175/617 261/177/617 254/173/617
f 256/172/277 258/173/277 263/177/277
f 255/183/278 254/371/278 258/182/278
f 241/166/618 253/172/618 255/174/618
f 256/172/619 245/166/619 244/167/619
f 259/175/281 253/172/281 241/166/281
f 246/181/282 252/184/282 248/183/282
f 255/183/283 257/184/283 244/181/283
f 262/175/284 250/169/284 245/166/284
f 251/181/285 264/184/285 260/183/285
f 263/184/286 258/181/286 254/178/286
f 271/188/620 265/185/620 267/187/620
f 268/197/296 270/200/296 267/198/296
f 269/185/297 274/188/297 276/189/297
f 273/199/298 272/198/298 276/200/298
f 283/194/299 271/188/299 273/190/299
f 274/188/300 286/194/300 288/195/300
f 287/201/301 285/204/301 284/202/301
f 277/191/621 283/194/621 285/196/621
f 280/191/622 282/192/622 287/196/622
f 281/203/304 279/202/304 278/204/304
f 277/191/305 279/193/305 266/186/305
f 280/191/306 269/185/306 268/186/306
f 271/188/307 283/194/307 277/191/307
f 267/199/308 270/197/308 276/203/308
f 281/203/309 268/197/309 266/199/309
f 274/188/310 269/185/310 280/191/310
f 273/199/311 275/197/311 288/203/311
f 287/203/312 282/197/312 278/199/312
f 289/205/623 291/207/623 296/209/623
f 292/217/322 294/220/322 291/218/322
f 293/205/624 298/208/624 300/209/624
f 299/217/625 297/219/625 296/218/625
f 295/208/626 297/210/626 308/215/626
f 298/208/627 310/214/627 312/215/627
f 311/221/327 309/224/327 308/222/327
f 301/211/628 307/214/628 309/216/628
f 304/211/629 306/212/629 311/216/629
f 305/223/330 303/222/330 302/224/330
f 301/211/331 303/213/331 290/206/331
f 304/211/630 293/205/630 292/206/630
f 307/214/333 301/211/333 289/205/333
f 291/219/334 294/217/334 300/223/334
f 303/222/335 305/223/335 292/217/335
f 310/214/336 298/208/336 293/205/336
f 297/219/337 299/217/337 312/223/337
f 311/223/631 306/217/631 302/219/631
f 319/228/632 313/225/632 315/227/632
f 314/237/348 316/240/348 318/238/348
f 317/225/633 322/228/633 324/229/633
f 321/237/350 320/239/350 324/238/350
f 319/228/634 321/230/634 332/235/634
f 334/234/635 336/235/635 323/230/635
f 333/241/636 332/244/636 336/242/636
f 325/231/637 331/234/637 333/236/637
f 328/231/638 330/232/638 335/236/638
f 327/244/356 326/241/356 330/243/356
f 313/225/639 325/231/639 327/233/639
f 317/225/640 316/226/640 329/233/640
f 331/234/641 325/231/641 313/225/641
f 318/240/360 324/242/360 320/244/360
f 329/242/361 316/240/361 314/237/361
f 322/228/362 317/225/362 328/231/362
f 323/240/363 336/242/363 332/244/363
f 335/242/364 330/240/364 326/237/364
usemtl iron
f 385/273/417 386/274/417 387/275/417
f 388/274/418 389/273/418 390/275/418
f 391/276/419 392/277/419 393/278/419
f 394/276/420 395/278/420 396/277/420
f 397/279/421 398/280/421 399/281/421
f 400/279/422 401/281/422 402/280/422
f 403/282/423 404/283/423 405/284/423
f 406/282/424 407/284/424 408/283/424
f 385/273/425 392/277/425 391/276/425
f 386/285/426 390/286/426 387/287/426
f 394/276/427 390/275/427 389/273/427
f 395/288/428 392/287/428 396/286/428
f 391/276/429 404/283/429 403/282/429
f 394/276/430 408/283/430 395/278/430
f 405/289/431 408/290/431 407/291/431
f 403/282/432 398/280/432 397/279/432
f 400/279/433 407/284/433 406/282/433
f 399/292/434 402/291/434 401/290/434
f 385/273/435 399/281/435 386/274/435
f 389/273/436 401/281/436 400/279/436
f 403/282/437 385/273/437 391/276/437
f 390/293/438 392/294/438 387/295/438
f 399/292/439 388/288/439 386/285/439
f 406/282/440 389/273/440 400/279/440
f 393/285/441 408/290/441 404/292/441
f 407/296/442 398/295/442 405/294/442
f 409/297/443 410/298/443 411/299/443
f 412/298/444 413/297/444 414/299/444
f 415/300/445 416/301/445 417/302/445
f 418/300/446 419/302/446 420/301/446
f 421/303/447 422/304/447 423/305/447
f 424/303/448 425/305/448 426/304/448
f 427/306/449 428/307/449 429/308/449
f 430/306/450 431/308/450 432/307/450
f 409/297/451 416/301/451 415/300/451
f 410/309/452 414/310/452 411/311/452
f 413/297/453 420/301/453 414/299/453
f 417/312/454 420/313/454 419/314/454
f 415/300/455 428/307/455 427/306/455
f 430/306/456 419/302/456 418/300/456
f 429/315/457 432/314/457 431/313/457
f 421/303/458 429/308/458 422/304/458
f 430/306/459 426/304/459 431/308/459
f 425/316/460 422/311/460 426/310/460
f 421/303/461 410/298/461 409/297/461
f 413/297/462 425/305/462 424/303/462
f 427/306/463 409/297/463 415/300/463
f 411/311/464 420/313/464 416/315/464
f 423/317/465 412/318/465 410/319/465
f 418/300/466 424/303/466 430/306/466
f 417/319/467 432/320/467 428/317/467
f 431/313/468 422/311/468 429/315/468
f 433/297/469 434/298/469 435/299/469
f 436/298/470 437/297/470 438/299/470
f 439/300/471 440/301/471 441/302/471
f 442/300/472 443/302/472 444/301/472
f 445/303/473 446/304/473 447/305/473
f 448/303/474 449/305/474 450/304/474
f 451/306/475 452/307/475 453/308/475
f 454/306/476 455/308/476 456/307/476
f 433/297/477 440/301/477 439/300/477
f 434/309/478 438/310/478 435/311/478
f 437/297/479 444/301/479 438/299/479
f 441/312/480 444/313/480 443/314/480
f 439/300/481 452/307/481 451/306/481
f 454/306/482 443/302/482 442/300/482
f 453/315/483 456/314/483 455/313/483
f 445/303/484 453/308/484 446/304/484
f 454/306/485 450/304/485 455/308/485
f 449/316/486 446/311/486 450/310/486
f 445/303/487 434/298/487 433/297/487
f 448/303/488 436/298/488 449/305/488
f 439/300/489 445/303/489 433/297/489
f 438/310/490 440/315/490 435/311/490
f 449/320/491 434/319/491 447/317/491
f 442/300/492 448/303/492 454/306/492
f 441/319/493 456/320/493 452/317/493
f 453/315/494 450/310/494 446/311/494
f 385/273/425 387/275/425 392/277/425
f 386/285/647 388/288/647 390/286/647
f 394/276/427 396/277/427 390/275/427
f 395/288/428 393/285/428 392/287/428
f 391/276/429 393/278/429 404/283/429
f 394/276/430 406/282/430 408/283/430
f 405/289/431 404/292/431 408/290/431
f 403/282/432 405/284/432 398/280/432
f 400/279/433 402/280/433 407/284/433
f 399/292/434 398/289/434 402/291/434
f 385/273/435 397/279/435 399/281/435
f 389/273/648 388/274/648 401/281/648
f 403/282/437 397/279/437 385/273/437
f 390/293/438 396/296/438 392/294/438
f 399/292/439 401/290/439 388/288/439
f 406/282/440 394/276/440 389/273/440
f 393/285/441 395/288/441 408/290/441
f 407/296/442 402/293/442 398/295/442
f 409/297/649 411/299/649 416/301/649
f 410/309/452 412/316/452 414/310/452
f 413/297/650 418/300/650 420/301/650
f 417/312/454 416/315/454 420/313/454
f 415/300/455 417/302/455 428/307/455
f 430/306/456 432/307/456 419/302/456
f 429/315/457 428/312/457 432/314/457
f 421/303/651 427/306/651 429/308/651
f 430/306/652 424/303/652 426/304/652
f 425/316/460 423/309/460 422/311/460
f 421/303/461 423/305/461 410/298/461
f 413/297/462 412/298/462 425/305/462
f 427/306/463 421/303/463 409/297/463
f 411/311/464 414/310/464 420/313/464
f 423/317/465 425/320/465 412/318/465
f 418/300/466 413/297/466 424/303/466
f 417/319/467 419/318/467 432/320/467
f 431/313/468 426/310/468 422/311/468
f 433/297/653 435/299/653 440/301/653
f 434/309/478 436/316/478 438/310/478
f 437/297/654 442/300/654 444/301/654
f 441/312/480 440/315/480 444/313/480
f 439/300/481 441/302/481 452/307/481
f 454/306/482 456/307/482 443/302/482
f 453/315/483 452/312/483 456/314/483
f 445/303/655 451/306/655 453/308/655
f 454/306/656 448/303/656 450/304/656
f 449/316/486 447/309/486 446/311/486
f 445/303/487 447/305/487 434/298/487
f 448/303/488 437/297/488 436/298/488
f 439/300/489 451/306/489 445/303/489
f 438/310/490 444/313/490 440/315/490
f 449/320/491 436/318/491 434/319/491
f 442/300/492 437/297/492 448/303/492
f 441/319/493 443/318/493 456/320/493
f 453/315/494 455/313/494 450/310/494
usemtl stone
f 505/345/547 506/346/547 507/347/547
f 508/346/548 509/345/548 510/347/548
f 511/348/549 512/349/549 513/350/549
f 514/348/550 515/350/550 516/349/550
f 517/351/551 518/352/551 519/353/551
f 520/351/552 521/353/552 522/352/552
f 523/354/553 524/355/553 525/356/553
f 526/354/554 527/356/554 528/355/554
f 505/345/555 512/349/555 511/348/555
f 508/357/556 507/358/556 506/359/556
f 514/348/557 510/347/557 509/345/557
f 513/359/558 516/360/558 515/357/558
f 511/348/559 524/355/559 523/354/559
f 526/354/560 515/350/560 514/348/560
f 527/361/561 524/362/561 528/363/561
f 523/354/562 518/352/562 517/351/562
f 520/351/563 527/356/563 526/354/563
f 521/363/564 518/364/564 522/361/564
f 517/351/565 506/346/565 505/345/565
f 520/351/566 508/346/566 521/353/566
f 511/348/567 517/351/567 505/345/567
f 510/365/568 512/366/568 507/367/568
f 519/362/569 508/357/569 506/359/569
f 514/348/570 520/351/570 526/354/570
f 515/357/571 524/362/571 513/359/571
f 525/366/572 522/365/572 518/367/572
f 505/345/555 507/347/555 512/349/555
f 508/357/556 510/360/556 507/358/556
f 514/348/557 516/349/557 510/347/557
f 513/359/658 512/358/658 516/360/658
f 511/348/559 513/350/559 524/355/559
f 526/354/560 528/355/560 515/350/560
f 527/361/561 525/364/561 524/362/561
f 523/354/562 525/356/562 518/352/562
f 520/351/563 522/352/563 527/356/563
f 521/363/659 519/362/659 518/364/659
f 517/351/565 519/353/565 506/346/565
f 520/351/566 509/345/566 508/346/566
f 511/348/567 523/354/567 517/351/567
f 510/365/568 516/372/568 512/366/568
f 519/362/569 521/363/569 508/357/569
f 514/348/570 509/345/570 520/351/570
f 515/357/571 528/363/571 524/362/571
f 525/366/572 527/372/572 522/365/572
