# Blender 4.5.10 LTS
# www.blender.org
mtllib kynda_trough_scuttle.mtl
o kynda_trough_scuttle
v 0.454820 0.386281 -0.411579
v 0.454872 0.392764 -0.412762
v 0.466157 0.392661 -0.411615
v 0.459541 0.919781 -0.411399
v 0.459604 0.926258 -0.410183
v 0.470826 0.919678 -0.410253
v 0.455278 0.386024 -0.313980
v 0.466615 0.392404 -0.314017
v 0.455341 0.392501 -0.312764
v 0.460062 0.926001 -0.312584
v 0.460010 0.919519 -0.311401
v 0.471284 0.919422 -0.312654
v -0.462574 0.394397 -0.407252
v -0.473796 0.400977 -0.407182
v -0.462522 0.400880 -0.408435
v -0.457790 0.934374 -0.405856
v -0.457853 0.927898 -0.407072
v -0.469127 0.927994 -0.405819
v -0.462116 0.394141 -0.309653
v -0.462053 0.400617 -0.308437
v -0.473338 0.400720 -0.309583
v -0.457332 0.934118 -0.308257
v -0.468669 0.927738 -0.308221
v -0.457384 0.927635 -0.307074
v 0.461224 0.394158 0.301866
v 0.461171 0.400644 0.300700
v 0.472466 0.400701 0.301743
v 0.458228 0.927668 0.303513
v 0.458208 0.934141 0.304747
v 0.469523 0.927725 0.304556
v 0.462586 0.393644 0.399455
v 0.473828 0.400188 0.399332
v 0.462566 0.400118 0.400689
v 0.459570 0.933628 0.402337
v 0.459623 0.927142 0.403502
v 0.470885 0.927212 0.402145
v -0.456113 0.388967 0.314642
v -0.467428 0.395383 0.314833
v -0.456166 0.395453 0.313476
v -0.459128 0.928951 0.317523
v -0.459109 0.922477 0.316289
v -0.470371 0.922407 0.317646
v -0.454751 0.388454 0.412231
v -0.454770 0.394927 0.413465
v -0.466066 0.394870 0.412422
v -0.457766 0.928438 0.415113
v -0.469009 0.921894 0.415235
v -0.457713 0.921952 0.416278
v 0.473966 0.392823 -0.304412
v 0.473964 0.399342 -0.311818
v 0.475087 0.399317 -0.304366
v 0.467524 0.926336 -0.309116
v 0.467369 0.932776 -0.301643
v 0.468648 0.926311 -0.301664
v 0.467755 0.389645 0.300668
v 0.468875 0.396139 0.300714
v 0.467599 0.396085 0.308141
v 0.461157 0.929598 0.303437
v 0.461160 0.923079 0.310843
v 0.462436 0.923133 0.303416
v 0.376379 0.391636 -0.305420
v 0.375100 0.398101 -0.305399
v 0.376376 0.398155 -0.312826
v 0.369781 0.931589 -0.302651
v 0.369937 0.925148 -0.310124
v 0.368661 0.925095 -0.302697
v 0.370167 0.388458 0.299660
v 0.370011 0.394898 0.307133
v 0.368888 0.394923 0.299681
v 0.363570 0.928410 0.302428
v 0.362449 0.921916 0.302383
v 0.363572 0.921892 0.309835
v -0.371377 0.389599 -0.302568
v -0.371395 0.396101 -0.309989
v -0.370165 0.396077 -0.302554
v -0.370396 0.923138 -0.308405
v -0.370354 0.929596 -0.300945
v -0.369167 0.923113 -0.300970
v -0.368976 0.387776 0.302544
v -0.367764 0.394253 0.302559
v -0.368934 0.394233 0.310003
v -0.367953 0.927772 0.304167
v -0.367936 0.921270 0.311587
v -0.366766 0.921290 0.304143
v -0.468976 0.389783 -0.302181
v -0.470164 0.396265 -0.302156
v -0.468994 0.396285 -0.309601
v -0.467954 0.929779 -0.300558
v -0.467995 0.923322 -0.308017
v -0.469166 0.923302 -0.300572
v -0.466575 0.387959 0.302932
v -0.466533 0.394417 0.310391
v -0.467763 0.394442 0.302956
v -0.465552 0.927956 0.304555
v -0.466765 0.921478 0.304540
v -0.465535 0.921454 0.311975
v 0.455992 0.394511 -0.405184
v 0.455897 0.395542 -0.415016
v 0.467271 0.395481 -0.405285
v 0.455834 0.473620 -0.414453
v 0.455928 0.474509 -0.404607
v 0.467208 0.473559 -0.404722
v 0.463687 0.388743 0.395078
v 0.474966 0.389713 0.394977
v 0.463781 0.389632 0.404925
v 0.463623 0.468741 0.395656
v 0.463718 0.467710 0.405488
v 0.474903 0.467791 0.395540
v -0.461405 0.393712 -0.396368
v -0.472686 0.394662 -0.396253
v -0.461501 0.394743 -0.406201
v -0.461469 0.473710 -0.395791
v -0.461563 0.472821 -0.405637
v -0.472748 0.472740 -0.395690
v -0.453710 0.387944 0.403894
v -0.453616 0.388833 0.413740
v -0.464990 0.388894 0.404009
v -0.453774 0.467942 0.404471
v -0.465053 0.466972 0.404573
v -0.453679 0.466911 0.414304
v -0.020517 0.709330 -0.432927
v -0.021170 0.709905 -0.434088
v -0.019626 0.710293 -0.433547
v -0.048724 0.843121 -0.450821
v -0.048406 0.844164 -0.449863
v -0.047180 0.843508 -0.450280
v 0.059451 0.747793 -0.258388
v 0.060343 0.748756 -0.259009
v 0.059770 0.748836 -0.257430
v 0.031563 0.882627 -0.275324
v 0.032216 0.882052 -0.274163
v 0.032789 0.881972 -0.275742
v -0.194855 0.684004 -0.347469
v -0.196081 0.684660 -0.347052
v -0.195508 0.684580 -0.348631
v -0.222743 0.818838 -0.364405
v -0.223062 0.817796 -0.365363
v -0.223635 0.817875 -0.363785
v -0.114887 0.722468 -0.172931
v -0.114568 0.723511 -0.171972
v -0.116113 0.723123 -0.172513
v -0.142775 0.857302 -0.189867
v -0.143667 0.856339 -0.189246
v -0.142122 0.856726 -0.188705
v -0.385908 0.706167 -0.337121
v -0.386772 0.706761 -0.337417
v -0.385625 0.706826 -0.337941
v -0.391420 0.809534 -0.334788
v -0.390612 0.810188 -0.334459
v -0.390272 0.809599 -0.335311
v -0.248280 0.711074 -0.285661
v -0.247997 0.711733 -0.286481
v -0.247472 0.711728 -0.285333
v -0.252984 0.815095 -0.283000
v -0.252120 0.814500 -0.282704
v -0.252644 0.814506 -0.283852
v -0.437173 0.700326 -0.199456
v -0.437512 0.700915 -0.198604
v -0.438037 0.700921 -0.199752
v -0.441876 0.804347 -0.196795
v -0.442684 0.803693 -0.197123
v -0.442160 0.803688 -0.195975
v -0.299544 0.705234 -0.147997
v -0.298737 0.705888 -0.147668
v -0.299884 0.705822 -0.147145
v -0.304248 0.809254 -0.145335
v -0.304531 0.808595 -0.144515
v -0.303384 0.808660 -0.145039
v 0.364775 0.710332 0.041638
v 0.364328 0.710904 0.040560
v 0.365676 0.711152 0.041184
v 0.348754 0.831852 0.026283
v 0.349012 0.832749 0.027189
v 0.350103 0.832100 0.026908
v 0.422768 0.737082 0.204997
v 0.423670 0.737901 0.204543
v 0.423026 0.737979 0.205903
v 0.407006 0.859499 0.190548
v 0.407452 0.858927 0.191626
v 0.408096 0.858849 0.190267
v 0.200742 0.696355 0.102160
v 0.199652 0.697004 0.102441
v 0.200295 0.696927 0.101081
v 0.184980 0.818772 0.087710
v 0.184722 0.817875 0.086805
v 0.184078 0.817953 0.088164
v 0.258736 0.723104 0.265519
v 0.258993 0.724001 0.266424
v 0.257645 0.723754 0.265800
v 0.242973 0.845522 0.251069
v 0.242071 0.844702 0.251523
v 0.243420 0.844950 0.252148
v -0.367674 0.702850 -0.408900
v -0.368257 0.703421 -0.409583
v -0.367031 0.703485 -0.409463
v -0.373322 0.803783 -0.411144
v -0.372801 0.804430 -0.410480
v -0.372096 0.803846 -0.411023
v -0.276792 0.709163 -0.297932
v -0.276149 0.709798 -0.298495
v -0.276271 0.709811 -0.297268
v -0.281919 0.810743 -0.299512
v -0.281336 0.810172 -0.298829
v -0.281214 0.810159 -0.300056
v -0.478585 0.698669 -0.317826
v -0.479289 0.699253 -0.317283
v -0.479168 0.699240 -0.318510
v -0.483712 0.800249 -0.319406
v -0.484233 0.799601 -0.320071
v -0.484355 0.799614 -0.318844
v -0.387703 0.704982 -0.206859
v -0.387182 0.705630 -0.206194
v -0.388407 0.705566 -0.206315
v -0.392830 0.806562 -0.208439
v -0.393473 0.805927 -0.207876
v -0.392247 0.805991 -0.207755
v 0.431389 0.695373 0.228043
v 0.430550 0.695904 0.226915
v 0.432186 0.696383 0.227268
v 0.394431 0.831993 0.209442
v 0.394831 0.833115 0.210357
v 0.396067 0.832473 0.209794
v 0.533367 0.744044 0.396310
v 0.534164 0.745054 0.395534
v 0.533767 0.745166 0.397225
v 0.496809 0.881786 0.378624
v 0.497648 0.881255 0.379752
v 0.498045 0.881144 0.378061
v 0.263997 0.665096 0.338249
v 0.262761 0.665739 0.338812
v 0.263158 0.665627 0.337121
v 0.227439 0.802838 0.320563
v 0.227039 0.801716 0.319647
v 0.226642 0.801828 0.321338
v 0.365975 0.713767 0.506515
v 0.366375 0.714889 0.507431
v 0.364739 0.714410 0.507079
v 0.329418 0.851510 0.488829
v 0.328620 0.850499 0.489605
v 0.330256 0.850979 0.489957
v 0.034571 0.760049 -0.211452
v 0.033473 0.760638 -0.211745
v 0.034777 0.760867 -0.212414
v 0.015283 0.880014 -0.206285
v 0.016160 0.880875 -0.205926
v 0.016586 0.880243 -0.206955
v 0.197158 0.782366 -0.157727
v 0.197364 0.783185 -0.158690
v 0.198035 0.783227 -0.157368
v 0.178747 0.903192 -0.152202
v 0.179845 0.902603 -0.151909
v 0.179174 0.902561 -0.153230
v -0.017478 0.744621 -0.047525
v -0.017905 0.745252 -0.046497
v -0.018576 0.745210 -0.047818
v -0.035889 0.865447 -0.042000
v -0.036766 0.864586 -0.042359
v -0.036095 0.864628 -0.041037
v 0.145109 0.766938 0.006199
v 0.145986 0.767799 0.006558
v 0.144683 0.767570 0.007228
v 0.126698 0.887764 0.011725
v 0.126493 0.886946 0.012687
v 0.127796 0.887175 0.012018
v 0.275789 0.697833 -0.446671
v 0.275698 0.698401 -0.447915
v 0.276815 0.698728 -0.446835
v 0.260862 0.824915 -0.470867
v 0.260774 0.825884 -0.469902
v 0.261979 0.825242 -0.469787
v 0.276013 0.730865 -0.264742
v 0.277038 0.731759 -0.264906
v 0.275924 0.731834 -0.263777
v 0.260997 0.858915 -0.287973
v 0.261088 0.858348 -0.286729
v 0.262203 0.858273 -0.287858
v 0.092105 0.677020 -0.442667
v 0.090900 0.677662 -0.442782
v 0.092014 0.677588 -0.443911
v 0.077089 0.805071 -0.465897
v 0.077178 0.804102 -0.466863
v 0.076064 0.804176 -0.465734
v 0.092328 0.710052 -0.260738
v 0.092240 0.711021 -0.259773
v 0.091123 0.710694 -0.260853
v 0.077313 0.838102 -0.283969
v 0.076287 0.837208 -0.283805
v 0.077404 0.837535 -0.282725
v 0.314343 0.704641 -0.061246
v 0.313229 0.705217 -0.061687
v 0.314647 0.705497 -0.062216
v 0.289945 0.828483 -0.058828
v 0.290776 0.829405 -0.058353
v 0.291364 0.828763 -0.059357
v 0.474453 0.733136 0.014152
v 0.474758 0.733992 0.013182
v 0.475284 0.734058 0.014627
v 0.450887 0.857899 0.017046
v 0.452001 0.857324 0.017486
v 0.451474 0.857258 0.016041
v 0.240923 0.687003 0.101329
v 0.240336 0.687644 0.102334
v 0.239809 0.687578 0.100889
v 0.217356 0.811766 0.104222
v 0.216526 0.810845 0.103747
v 0.217052 0.810910 0.105192
v 0.401034 0.715497 0.176727
v 0.401864 0.716419 0.177203
v 0.400446 0.716139 0.177732
v 0.377467 0.840261 0.179621
v 0.377163 0.839405 0.180591
v 0.378581 0.839685 0.180061
v 0.126523 0.744403 -0.077338
v 0.125411 0.745004 -0.077525
v 0.126643 0.745211 -0.078320
v 0.109431 0.864423 -0.071215
v 0.110349 0.865272 -0.070951
v 0.110663 0.864630 -0.072010
v 0.293590 0.764797 -0.040205
v 0.293710 0.765605 -0.041187
v 0.294507 0.765646 -0.039941
v 0.277416 0.885666 -0.033818
v 0.278527 0.885064 -0.033631
v 0.277730 0.885023 -0.034877
v 0.090835 0.730746 0.090728
v 0.090521 0.731389 0.091787
v 0.089723 0.731348 0.090540
v 0.074661 0.851615 0.097115
v 0.073743 0.850766 0.096851
v 0.074541 0.850807 0.098097
v 0.257902 0.751140 0.127861
v 0.258819 0.751989 0.128124
v 0.257588 0.751782 0.128920
v 0.241728 0.872009 0.134248
v 0.241608 0.871201 0.135230
v 0.242840 0.871408 0.134435
v 0.093439 0.712505 0.187436
v 0.092563 0.713073 0.186438
v 0.094175 0.713467 0.186650
v 0.061583 0.845450 0.175755
v 0.062082 0.846491 0.176624
v 0.063195 0.845845 0.175967
v 0.206676 0.751408 0.341119
v 0.207412 0.752370 0.340333
v 0.207175 0.752448 0.341988
v 0.175319 0.885393 0.330307
v 0.176195 0.884826 0.331305
v 0.176432 0.884748 0.329651
v -0.058788 0.686462 0.306192
v -0.059901 0.687108 0.306849
v -0.059664 0.687030 0.305194
v -0.090145 0.820448 0.295380
v -0.090645 0.819408 0.294512
v -0.090882 0.819486 0.296166
v 0.054448 0.725365 0.459876
v 0.054948 0.726405 0.460744
v 0.053336 0.726011 0.460532
v 0.023091 0.859351 0.449064
v 0.022355 0.858388 0.449850
v 0.023967 0.858783 0.450062
v -0.368166 0.720445 -0.051389
v -0.369063 0.721026 -0.051566
v -0.368013 0.721083 -0.052251
v -0.373900 0.823129 -0.050491
v -0.373063 0.823789 -0.050301
v -0.372851 0.823186 -0.051175
v -0.225433 0.726889 -0.021198
v -0.225279 0.727527 -0.022059
v -0.224595 0.727548 -0.021008
v -0.230329 0.830233 -0.020109
v -0.229433 0.829652 -0.019932
v -0.230117 0.829631 -0.020983
v -0.398255 0.717514 0.091482
v -0.398467 0.718116 0.092356
v -0.399151 0.718095 0.091305
v -0.403151 0.820858 0.092570
v -0.403988 0.820199 0.092380
v -0.403304 0.820220 0.093431
v -0.255521 0.723958 0.121673
v -0.254684 0.724618 0.121863
v -0.255733 0.724561 0.122547
v -0.260417 0.827302 0.122762
v -0.260571 0.826665 0.123623
v -0.259521 0.826721 0.122939
v -0.339221 0.703258 -0.454018
v -0.340235 0.703844 -0.454223
v -0.339066 0.703997 -0.454937
v -0.352128 0.815421 -0.449880
v -0.351258 0.816190 -0.449621
v -0.350959 0.815573 -0.450593
v -0.184148 0.718300 -0.415805
v -0.183994 0.719039 -0.416724
v -0.183279 0.719069 -0.415546
v -0.196186 0.831232 -0.411408
v -0.195172 0.830645 -0.411203
v -0.195887 0.830615 -0.412380
v -0.376608 0.693213 -0.298341
v -0.376908 0.693829 -0.297369
v -0.377622 0.693799 -0.298547
v -0.388646 0.806144 -0.293945
v -0.389515 0.805376 -0.294203
v -0.388801 0.805406 -0.293026
v -0.221536 0.708255 -0.260128
v -0.220666 0.709024 -0.259870
v -0.221835 0.708871 -0.259156
v -0.233574 0.821186 -0.255732
v -0.233728 0.820448 -0.254813
v -0.232560 0.820600 -0.255526
v -0.360811 0.837097 -0.319253
v -0.361163 0.838081 -0.327178
v -0.356285 0.840022 -0.319238
v -0.393081 0.919916 -0.327575
v -0.393514 0.920945 -0.319660
v -0.388202 0.921857 -0.319635
v -0.364125 0.838929 0.324896
v -0.359599 0.841854 0.324911
v -0.364558 0.839958 0.332811
v -0.396828 0.922776 0.324489
v -0.396476 0.921793 0.332414
v -0.391516 0.923689 0.324514
v -0.760892 0.681048 -0.320868
v -0.766204 0.680135 -0.320892
v -0.761244 0.682031 -0.328792
v -0.793595 0.764895 -0.321274
v -0.793162 0.763866 -0.329189
v -0.798121 0.761970 -0.321289
v -0.764206 0.682880 0.323281
v -0.764639 0.683908 0.331196
v -0.769517 0.681967 0.323257
v -0.796909 0.766727 0.322875
v -0.801435 0.763802 0.322860
v -0.796557 0.765743 0.330799
v 0.058415 0.484549 -0.424129
v 0.058410 0.484760 -0.429288
v 0.059136 0.484738 -0.424129
v 0.058542 0.516376 -0.429169
v 0.058549 0.516548 -0.424008
v 0.059268 0.516353 -0.424010
v 0.059445 0.481347 0.425545
v 0.060166 0.481536 0.425545
v 0.059452 0.481519 0.430706
v 0.059579 0.513346 0.425665
v 0.059585 0.513135 0.430825
v 0.060298 0.513151 0.425664
v -0.060144 0.485044 -0.423983
v -0.060863 0.485239 -0.423981
v -0.060149 0.485255 -0.429142
v -0.060010 0.517043 -0.423862
v -0.060017 0.516871 -0.429023
v -0.060731 0.516854 -0.423862
v -0.059113 0.481842 0.425691
v -0.059106 0.482014 0.430851
v -0.059833 0.482037 0.425692
v -0.058980 0.513841 0.425811
v -0.059701 0.513652 0.425811
v -0.058974 0.513630 0.430970
v 0.058059 0.784315 -0.424333
v 0.058043 0.784523 -0.429492
v 0.058780 0.784501 -0.424335
v 0.058290 0.816138 -0.429395
v 0.058309 0.816314 -0.424235
v 0.059027 0.816116 -0.424238
v 0.060930 0.781686 0.425338
v 0.061651 0.781872 0.425336
v 0.060948 0.781862 0.430499
v 0.061180 0.813684 0.425436
v 0.061196 0.813477 0.430596
v 0.061898 0.813487 0.425433
v -0.060497 0.785240 -0.423930
v -0.061216 0.785438 -0.423926
v -0.060513 0.785448 -0.429089
v -0.060247 0.817239 -0.423831
v -0.060266 0.817063 -0.428992
v -0.060968 0.817053 -0.423829
v -0.057626 0.782611 0.425742
v -0.057607 0.782787 0.430902
v -0.058345 0.782808 0.425745
v -0.057376 0.814610 0.425840
v -0.058098 0.814423 0.425842
v -0.057360 0.814402 0.430999
v 0.513608 0.012878 -0.419015
v 0.513628 0.015696 -0.429352
v 0.526362 0.015603 -0.419050
v 0.516467 0.249915 -0.430745
v 0.516517 0.252856 -0.420442
v 0.529201 0.249822 -0.420443
v 0.514833 0.017854 0.420329
v 0.527587 0.020579 0.420294
v 0.514883 0.020795 0.430632
v 0.517742 0.257832 0.418902
v 0.517722 0.255013 0.429239
v 0.530426 0.254798 0.418902
v -0.520875 0.025428 -0.417580
v -0.533559 0.028462 -0.417579
v -0.520855 0.028246 -0.427917
v -0.517966 0.265406 -0.419007
v -0.518016 0.262465 -0.429309
v -0.530720 0.262680 -0.418972
v -0.519650 0.030403 0.421765
v -0.519600 0.033344 0.432067
v -0.532334 0.033437 0.421765
v -0.516741 0.270381 0.420338
v -0.529495 0.267656 0.420373
v -0.516760 0.267563 0.430675
v 0.467904 0.200513 -0.424671
v 0.467862 0.205793 -0.426233
v 0.469412 0.205808 -0.424663
v 0.463600 0.635211 -0.426351
v 0.463538 0.640492 -0.424793
v 0.465151 0.635227 -0.424782
v 0.467117 0.200541 -0.297794
v 0.468625 0.205836 -0.297786
v 0.467055 0.205821 -0.296235
v 0.462751 0.640519 -0.297915
v 0.462794 0.635239 -0.296354
v 0.464363 0.635255 -0.297904
v 0.341033 0.199254 -0.425458
v 0.339421 0.204518 -0.425469
v 0.340990 0.204533 -0.427020
v 0.336667 0.639232 -0.425580
v 0.336729 0.633952 -0.427138
v 0.335159 0.633937 -0.425588
v 0.340246 0.199281 -0.298581
v 0.340184 0.204561 -0.297022
v 0.338634 0.204546 -0.298592
v 0.335880 0.639260 -0.298702
v 0.334372 0.633964 -0.298711
v 0.335922 0.633980 -0.297141
v 0.465679 0.199990 0.300835
v 0.465692 0.205249 0.299207
v 0.467240 0.205269 0.300778
v 0.465759 0.634653 0.293625
v 0.465747 0.639952 0.295116
v 0.467307 0.634673 0.295197
v 0.464700 0.201639 0.427701
v 0.466261 0.206918 0.427644
v 0.464689 0.206939 0.429192
v 0.464769 0.641602 0.421981
v 0.464756 0.636342 0.423610
v 0.466328 0.636322 0.422062
v 0.338803 0.199997 0.299856
v 0.337243 0.205276 0.299775
v 0.338815 0.205256 0.298228
v 0.338871 0.639960 0.294137
v 0.338882 0.634660 0.292646
v 0.337310 0.634680 0.294194
v 0.337824 0.201646 0.426722
v 0.337813 0.206946 0.428213
v 0.336265 0.206926 0.426641
v 0.337892 0.641609 0.421002
v 0.336332 0.636329 0.421059
v 0.337880 0.636349 0.422631
v -0.340881 0.199343 -0.425871
v -0.340816 0.204630 -0.427406
v -0.339252 0.204602 -0.425851
v -0.335157 0.634028 -0.425390
v -0.335083 0.639300 -0.423806
v -0.333593 0.634000 -0.423835
v -0.340501 0.198742 -0.298993
v -0.338872 0.204001 -0.298973
v -0.340427 0.204014 -0.297408
v -0.334703 0.638699 -0.296928
v -0.334768 0.633412 -0.295392
v -0.333213 0.633399 -0.296957
v -0.467750 0.201013 -0.425483
v -0.469240 0.206313 -0.425453
v -0.467685 0.206300 -0.427018
v -0.461951 0.640970 -0.423418
v -0.462026 0.635698 -0.425003
v -0.463581 0.635711 -0.423438
v -0.467370 0.200412 -0.298605
v -0.467295 0.205684 -0.297020
v -0.468860 0.205712 -0.298575
v -0.461571 0.640369 -0.296540
v -0.463201 0.635110 -0.296560
v -0.461636 0.635082 -0.295005
v -0.338524 0.198505 0.296594
v -0.338460 0.203794 0.295068
v -0.336900 0.203765 0.296628
v -0.333279 0.633194 0.297864
v -0.333215 0.638463 0.299459
v -0.331719 0.633165 0.299424
v -0.338497 0.197678 0.423471
v -0.336873 0.202939 0.423505
v -0.338432 0.202947 0.425065
v -0.333188 0.637637 0.426336
v -0.333251 0.632347 0.427862
v -0.331692 0.632338 0.426301
v -0.465394 0.200035 0.296631
v -0.466891 0.205334 0.296666
v -0.465331 0.205325 0.295105
v -0.460086 0.639994 0.299496
v -0.460150 0.634725 0.297902
v -0.461709 0.634733 0.299462
v -0.465367 0.199209 0.423508
v -0.465303 0.204478 0.425103
v -0.466863 0.204507 0.423543
v -0.460059 0.639167 0.426373
v -0.461682 0.633907 0.426339
v -0.460122 0.633878 0.427899
vn 0.0978 -0.1794 -0.9789
vn 0.1010 0.1827 -0.9780
vn 0.1070 -0.1846 0.9770
vn 0.1102 0.1776 0.9779
vn -0.1102 -0.1776 -0.9779
vn -0.1070 0.1846 -0.9770
vn -0.1010 -0.1827 0.9780
vn -0.0978 0.1794 0.9789
vn 0.4904 -0.8715 -0.0046
vn 0.1011 0.0017 -0.9949
vn 0.5058 0.8627 -0.0001
vn 0.1104 -0.0035 0.9939
vn 0.0030 -0.1847 0.9828
vn 0.0062 0.1795 0.9837
vn -0.1011 -0.0017 0.9949
vn -0.5058 -0.8627 0.0001
vn -0.4904 0.8715 0.0046
vn -0.1104 0.0035 -0.9939
vn -0.0062 -0.1795 -0.9837
vn -0.0030 0.1847 -0.9828
vn -0.0089 -1.0000 -0.0026
vn 0.9999 -0.0088 -0.0047
vn -0.0047 0.0026 -1.0000
vn 0.0089 1.0000 0.0026
vn 0.0047 -0.0026 1.0000
vn -0.9999 0.0088 0.0047
vn 0.0914 -0.1754 -0.9803
vn 0.0894 0.1868 -0.9783
vn 0.1187 -0.1856 0.9754
vn 0.1167 0.1765 0.9774
vn -0.1167 -0.1766 -0.9774
vn -0.1187 0.1856 -0.9754
vn -0.0894 -0.1868 0.9783
vn -0.0914 0.1754 0.9803
vn 0.5029 -0.8643 -0.0116
vn 0.0919 0.0058 -0.9958
vn 0.4932 0.8699 -0.0023
vn 0.1197 -0.0046 0.9928
vn 0.0147 -0.1872 0.9822
vn 0.0127 0.1769 0.9841
vn -0.0919 -0.0058 0.9958
vn -0.4932 -0.8699 0.0023
vn -0.5029 0.8643 0.0116
vn -0.1196 0.0046 -0.9928
vn -0.0127 -0.1769 -0.9841
vn -0.0147 0.1873 -0.9822
vn 0.0056 -1.0000 -0.0053
vn 0.9999 0.0057 -0.0139
vn -0.0140 0.0053 -0.9999
vn -0.0056 1.0000 0.0053
vn 0.0140 -0.0053 0.9999
vn -0.9999 -0.0057 0.0139
vn 0.9748 -0.1672 -0.1475
vn 0.9704 0.1925 -0.1457
vn 0.9716 -0.1688 0.1657
vn 0.9672 0.1908 0.1676
vn -0.9672 -0.1908 -0.1676
vn -0.9716 0.1688 -0.1657
vn -0.9704 -0.1925 0.1457
vn -0.9748 0.1672 0.1475
vn 0.9854 -0.1701 0.0092
vn 0.9888 0.0128 -0.1490
vn 0.9809 0.1940 0.0111
vn 0.9855 0.0112 0.1694
vn 0.0025 -0.7575 0.6529
vn -0.0160 0.7506 0.6606
vn -0.9887 -0.0128 0.1490
vn -0.9809 -0.1940 -0.0111
vn -0.9854 0.1701 -0.0092
vn -0.9855 -0.0112 -0.1694
vn 0.0160 -0.7506 -0.6606
vn -0.0025 0.7575 -0.6529
vn 0.0122 -0.9999 -0.0051
vn 0.9999 0.0122 0.0103
vn 0.0103 0.0053 -0.9999
vn -0.0122 0.9999 0.0051
vn -0.0103 -0.0053 0.9999
vn -0.9999 -0.0122 -0.0103
vn 0.9702 -0.1812 -0.1610
vn 0.9709 0.1785 -0.1600
vn 0.9714 -0.1821 0.1522
vn 0.9721 0.1775 0.1533
vn -0.9721 -0.1775 -0.1533
vn -0.9714 0.1821 -0.1522
vn -0.9709 -0.1785 0.1600
vn -0.9702 0.1812 0.1610
vn 0.9829 -0.1839 -0.0045
vn 0.9866 -0.0014 -0.1632
vn 0.9836 0.1802 -0.0034
vn 0.9879 -0.0023 0.1553
vn 0.0012 -0.7561 0.6545
vn 0.0040 0.7521 0.6590
vn -0.9866 0.0014 0.1632
vn -0.9836 -0.1802 0.0034
vn -0.9829 0.1839 0.0045
vn -0.9879 0.0023 -0.1553
vn -0.0040 -0.7521 -0.6590
vn -0.0012 0.7561 -0.6545
vn -0.0019 -1.0000 -0.0030
vn 1.0000 -0.0019 -0.0040
vn -0.0040 0.0030 -1.0000
vn 0.0019 1.0000 0.0030
vn 0.0040 -0.0030 1.0000
vn -1.0000 0.0019 0.0040
vn 0.0843 -0.9909 -0.1047
vn 0.0827 0.9925 -0.0904
vn 0.0861 -0.9923 0.0888
vn 0.0845 0.9911 0.1031
vn -0.0845 -0.9911 -0.1031
vn -0.0861 0.9923 -0.0888
vn -0.0827 -0.9925 0.0904
vn -0.0843 0.9909 0.1047
vn 0.0856 -0.9963 -0.0080
vn 0.6501 0.0060 -0.7598
vn 0.0840 0.9964 0.0064
vn 0.6646 -0.0049 0.7472
vn 0.0017 -0.9959 0.0899
vn 0.0001 0.9945 0.1043
vn -0.6501 -0.0060 0.7598
vn -0.0840 -0.9964 -0.0064
vn -0.0856 0.9963 0.0080
vn -0.6646 0.0049 -0.7472
vn -0.0001 -0.9945 -0.1043
vn -0.0017 0.9959 -0.0899
vn 0.0008 -1.0000 -0.0072
vn 1.0000 0.0009 -0.0096
vn -0.0096 0.0072 -0.9999
vn -0.0008 1.0000 0.0072
vn 0.0096 -0.0072 0.9999
vn -1.0000 -0.0009 0.0096
vn 0.3826 -0.7241 -0.5738
vn 0.0969 0.6574 -0.7473
vn 0.7890 -0.5287 0.3131
vn 0.5032 0.8528 0.1396
vn -0.5032 -0.8528 -0.1396
vn -0.7890 0.5287 -0.3131
vn -0.0969 -0.6573 0.7473
vn -0.3826 0.7241 0.5738
vn 0.6753 -0.7221 -0.1503
vn 0.3408 -0.0475 -0.9389
vn 0.3458 0.8704 -0.3503
vn 0.9184 0.2304 0.3217
vn 0.3989 -0.6836 0.6112
vn 0.0695 0.9089 0.4112
vn -0.3408 0.0474 0.9389
vn -0.3459 -0.8704 0.3503
vn -0.6753 0.7221 0.1503
vn -0.9184 -0.2304 -0.3217
vn -0.0695 -0.9089 -0.4112
vn -0.3989 0.6836 -0.6112
vn 0.2010 -0.9719 0.1221
vn 0.8904 0.1293 -0.4365
vn -0.4084 -0.1964 -0.8914
vn -0.2010 0.9719 -0.1221
vn 0.4084 0.1964 0.8914
vn -0.8904 -0.1293 0.4365
vn -0.2601 -0.7066 -0.6581
vn -0.3242 0.7129 -0.6219
vn 0.6712 -0.6735 -0.3098
vn 0.6071 0.7461 -0.2735
vn -0.6071 -0.7461 0.2735
vn -0.6712 0.6734 0.3099
vn 0.3243 -0.7129 0.6218
vn 0.2601 0.7066 0.6581
vn 0.2370 -0.7953 -0.5579
vn -0.4154 0.0045 -0.9096
vn 0.1630 0.8409 -0.5161
vn 0.9085 0.0517 -0.4146
vn 0.5739 -0.7990 0.1798
vn 0.4998 0.8373 0.2217
vn 0.4154 -0.0045 0.9096
vn -0.1630 -0.8409 0.5160
vn -0.2369 0.7954 0.5579
vn -0.9085 -0.0517 0.4146
vn -0.4999 -0.8373 -0.2217
vn -0.5738 0.7990 -0.1798
vn 0.0452 -0.9987 -0.0255
vn 0.3487 0.0397 -0.9364
vn -0.9361 -0.0334 -0.3500
vn -0.0452 0.9987 0.0255
vn 0.9361 0.0334 0.3500
vn -0.3487 -0.0397 0.9364
vn 0.3909 -0.7363 -0.5524
vn 0.2106 0.6639 -0.7176
vn 0.7198 -0.5846 0.3743
vn 0.5395 0.8156 0.2091
vn -0.5395 -0.8156 -0.2091
vn -0.7198 0.5846 -0.3743
vn -0.2106 -0.6638 0.7176
vn -0.3909 0.7363 0.5523
vn 0.6402 -0.7613 -0.1026
vn 0.4275 -0.0515 -0.9025
vn 0.4324 0.8527 -0.2931
vn 0.8951 0.1642 0.4146
vn 0.2935 -0.7195 0.6294
vn 0.0857 0.8945 0.4389
vn -0.4275 0.0515 0.9026
vn -0.4324 -0.8527 0.2931
vn -0.6402 0.7613 0.1026
vn -0.8951 -0.1642 -0.4146
vn -0.0857 -0.8945 -0.4389
vn -0.2935 0.7195 -0.6294
vn 0.1268 -0.9851 0.1163
vn 0.9352 0.0797 -0.3450
vn -0.3306 -0.1525 -0.9314
vn -0.1268 0.9851 -0.1163
vn 0.3306 0.1525 0.9314
vn -0.9352 -0.0797 0.3450
vn 0.1053 -0.7171 -0.6890
vn 0.0335 0.7023 -0.7111
vn 0.7350 -0.6733 0.0799
vn 0.6633 0.7461 0.0579
vn -0.6633 -0.7461 -0.0579
vn -0.7350 0.6733 -0.0799
vn -0.0336 -0.7023 0.7111
vn -0.1053 0.7170 0.6890
vn 0.4842 -0.8014 -0.3510
vn 0.0986 -0.0105 -0.9951
vn 0.4018 0.8348 -0.3765
vn 0.9938 0.0517 0.0980
vn 0.4042 -0.7929 0.4560
vn 0.3217 0.8433 0.4305
vn -0.0986 0.0105 0.9951
vn -0.4017 -0.8348 0.3765
vn -0.4843 0.8014 0.3511
vn -0.9938 -0.0517 -0.0980
vn -0.3216 -0.8434 -0.4305
vn -0.4042 0.7929 -0.4560
vn 0.0504 -0.9986 0.0155
vn 0.7725 0.0291 -0.6343
vn -0.6330 -0.0440 -0.7729
vn -0.0504 0.9986 -0.0155
vn 0.6330 0.0440 0.7729
vn -0.7725 -0.0291 0.6343
vn 0.3415 -0.7268 -0.5959
vn -0.0204 0.6365 -0.7710
vn 0.8421 -0.4879 0.2300
vn 0.4801 0.8755 0.0550
vn -0.4802 -0.8754 -0.0550
vn -0.8421 0.4879 -0.2300
vn 0.0204 -0.6365 0.7710
vn -0.3415 0.7268 0.5959
vn 0.6822 -0.7001 -0.2109
vn 0.2282 -0.0642 -0.9715
vn 0.2650 0.8715 -0.4127
vn 0.9397 0.2754 0.2026
vn 0.4971 -0.6481 0.5770
vn 0.0800 0.9235 0.3752
vn -0.2282 0.0642 0.9715
vn -0.2650 -0.8715 0.4127
vn -0.6822 0.7001 0.2109
vn -0.9397 -0.2754 -0.2025
vn -0.0800 -0.9235 -0.3752
vn -0.4971 0.6481 -0.5770
vn 0.2546 -0.9592 0.1232
vn 0.8259 0.1494 -0.5437
vn -0.5031 -0.2401 -0.8302
vn -0.2546 0.9592 -0.1232
vn 0.5031 0.2401 0.8302
vn -0.8259 -0.1494 0.5437
vn -0.2115 -0.7217 -0.6591
vn -0.4254 0.6820 -0.5949
vn 0.7253 -0.5931 -0.3496
vn 0.5114 0.8106 -0.2854
vn -0.5114 -0.8106 0.2854
vn -0.7252 0.5931 0.3496
vn 0.4254 -0.6820 0.5949
vn 0.2115 0.7217 0.6591
vn 0.2962 -0.7578 -0.5814
vn -0.4526 -0.0282 -0.8912
vn 0.0495 0.8603 -0.5074
vn 0.8789 0.1546 -0.4513
vn 0.6632 -0.7349 0.1414
vn 0.4166 0.8832 0.2154
vn 0.4527 0.0282 0.8912
vn -0.0496 -0.8603 0.5074
vn -0.2961 0.7578 0.5814
vn -0.8789 -0.1546 0.4513
vn -0.4166 -0.8832 -0.2154
vn -0.6632 0.7350 -0.1414
vn 0.1505 -0.9876 -0.0452
vn 0.3014 0.0893 -0.9493
vn -0.9415 -0.1292 -0.3111
vn -0.1505 0.9876 0.0452
vn 0.9415 0.1292 0.3111
vn -0.3014 -0.0893 0.9493
vn 0.5750 -0.7275 -0.3742
vn 0.4122 0.6618 -0.6262
vn 0.5763 -0.5497 0.6047
vn 0.4133 0.8395 0.3527
vn -0.4133 -0.8395 -0.3527
vn -0.5762 0.5498 -0.6047
vn -0.4121 -0.6618 0.6262
vn -0.5750 0.7276 0.3742
vn 0.6635 -0.7363 0.1329
vn 0.7016 -0.0467 -0.7110
vn 0.4758 0.8653 -0.1577
vn 0.7033 0.2059 0.6804
vn 0.0946 -0.6983 0.7095
vn -0.0932 0.9032 0.4189
vn -0.7016 0.0467 0.7110
vn -0.4757 -0.8653 0.1577
vn -0.6635 0.7363 -0.1329
vn -0.7033 -0.2059 -0.6804
vn 0.0932 -0.9032 -0.4190
vn -0.0946 0.6984 -0.7095
vn 0.1146 -0.9775 0.1773
vn 0.9934 0.1126 -0.0217
vn -0.0012 -0.1786 -0.9839
vn -0.1146 0.9775 -0.1773
vn 0.0012 0.1786 0.9839
vn -0.9934 -0.1126 0.0217
vn -0.1087 -0.7283 -0.6766
vn -0.3724 0.6680 -0.6443
vn 0.7799 -0.5702 -0.2582
vn 0.5162 0.8262 -0.2257
vn -0.5163 -0.8261 0.2257
vn -0.7800 0.5701 0.2581
vn 0.3724 -0.6680 0.6442
vn 0.1087 0.7283 0.6766
vn 0.3869 -0.7484 -0.5388
vn -0.3420 -0.0428 -0.9387
vn 0.0829 0.8612 -0.5014
vn 0.9212 0.1820 -0.3439
vn 0.6642 -0.7136 0.2225
vn 0.3602 0.8959 0.2599
vn 0.3420 0.0428 0.9387
vn -0.0828 -0.8612 0.5014
vn -0.3869 0.7484 0.5388
vn -0.9212 -0.1820 0.3439
vn -0.3602 -0.8959 -0.2599
vn -0.6643 0.7136 -0.2225
vn 0.1856 -0.9824 -0.0228
vn 0.4096 0.0984 -0.9070
vn -0.8932 -0.1590 -0.4206
vn -0.1856 0.9824 0.0228
vn 0.8932 0.1590 0.4206
vn -0.4096 -0.0984 0.9070
vn -0.2850 -0.7229 -0.6295
vn -0.4734 0.6840 -0.5551
vn 0.6793 -0.6051 -0.4151
vn 0.4912 0.8017 -0.3407
vn -0.4910 -0.8017 0.3407
vn -0.6793 0.6052 0.4151
vn 0.4734 -0.6840 0.5551
vn 0.2851 0.7229 0.6294
vn 0.2272 -0.7655 -0.6020
vn -0.5390 -0.0276 -0.8419
vn 0.0102 0.8563 -0.5163
vn 0.8318 0.1397 -0.5371
vn 0.6643 -0.7431 0.0807
vn 0.4474 0.8787 0.1664
vn 0.5390 0.0276 0.8419
vn -0.0102 -0.8563 0.5163
vn -0.2272 0.7655 0.6020
vn -0.8318 -0.1397 0.5372
vn -0.4473 -0.8788 -0.1664
vn -0.6643 0.7431 -0.0807
vn 0.1325 -0.9898 -0.0523
vn 0.2071 0.0792 -0.9751
vn -0.9693 -0.1183 -0.2154
vn -0.1325 0.9898 0.0523
vn 0.9693 0.1183 0.2154
vn -0.2071 -0.0792 0.9751
vn 0.2610 -0.7227 -0.6400
vn -0.0618 0.6570 -0.7513
vn 0.8393 -0.5240 0.1449
vn 0.5164 0.8557 0.0335
vn -0.5164 -0.8557 -0.0335
vn -0.8393 0.5240 -0.1448
vn 0.0619 -0.6570 0.7513
vn -0.2609 0.7227 0.6400
vn 0.6342 -0.7186 -0.2854
vn 0.1415 -0.0467 -0.9888
vn 0.2620 0.8719 -0.4137
vn 0.9635 0.2357 0.1268
vn 0.5195 -0.6807 0.5166
vn 0.1472 0.9097 0.3882
vn -0.1415 0.0467 0.9888
vn -0.2619 -0.8719 0.4138
vn -0.6342 0.7185 0.2854
vn -0.9635 -0.2357 -0.1268
vn -0.1472 -0.9097 -0.3882
vn -0.5194 0.6807 -0.5165
vn 0.2272 -0.9707 0.0783
vn 0.7814 0.1337 -0.6096
vn -0.5812 -0.1997 -0.7889
vn -0.2272 0.9707 -0.0783
vn 0.5812 0.1997 0.7889
vn -0.7814 -0.1337 0.6096
vn -0.3501 -0.7218 -0.5970
vn -0.4173 0.6979 -0.5821
vn 0.6223 -0.6779 -0.3914
vn 0.5550 0.7418 -0.3764
vn -0.5550 -0.7418 0.3764
vn -0.6224 0.6779 0.3913
vn 0.4174 -0.6978 0.5821
vn 0.3500 0.7218 0.5970
vn 0.1569 -0.8068 -0.5697
vn -0.5455 -0.0170 -0.8380
vn 0.0794 0.8298 -0.5524
vn 0.8368 0.0454 -0.5456
vn 0.5993 -0.7929 0.1099
vn 0.5217 0.8436 0.1272
vn 0.5455 0.0170 0.8380
vn -0.0794 -0.8298 0.5524
vn -0.1569 0.8068 0.5696
vn -0.8368 -0.0454 0.5456
vn -0.5218 -0.8436 -0.1272
vn -0.5993 0.7929 -0.1099
vn 0.0473 -0.9988 -0.0105
vn 0.2060 0.0201 -0.9783
vn -0.9774 -0.0441 -0.2067
vn -0.0473 0.9988 0.0105
vn 0.9774 0.0441 0.2067
vn -0.2060 -0.0201 0.9783
vn -0.2897 -0.7216 -0.6288
vn -0.4402 0.6907 -0.5738
vn 0.6721 -0.6283 -0.3918
vn 0.5216 0.7839 -0.3368
vn -0.5215 -0.7839 0.3368
vn -0.6721 0.6283 0.3918
vn 0.4401 -0.6907 0.5738
vn 0.2897 0.7216 0.6288
vn 0.2204 -0.7781 -0.5882
vn -0.5188 -0.0220 -0.8546
vn 0.0469 0.8499 -0.5248
vn 0.8484 0.1106 -0.5178
vn 0.6411 -0.7602 0.1049
vn 0.4677 0.8677 0.1683
vn 0.5187 0.0220 0.8546
vn -0.0469 -0.8499 0.5248
vn -0.2204 0.7781 0.5882
vn -0.8483 -0.1106 0.5178
vn -0.4676 -0.8678 -0.1683
vn -0.6411 0.7602 -0.1049
vn 0.1059 -0.9936 -0.0387
vn 0.2331 0.0626 -0.9704
vn -0.9667 -0.0938 -0.2382
vn -0.1059 0.9936 0.0387
vn 0.9667 0.0938 0.2382
vn -0.2331 -0.0626 0.9704
vn 0.5386 -0.8329 -0.1273
vn -0.1671 0.9765 -0.1361
vn 0.5373 -0.8321 0.1376
vn -0.1685 0.9773 0.1288
vn 0.1685 -0.9773 -0.1288
vn -0.5372 0.8322 -0.1375
vn 0.1671 -0.9765 0.1361
vn -0.5386 0.8329 0.1273
vn 0.5427 -0.8399 0.0052
vn 0.7780 0.3008 -0.5516
vn -0.1693 0.9856 -0.0037
vn 0.7723 0.3039 0.5578
vn 0.3593 -0.9227 0.1396
vn -0.3607 0.9235 0.1306
vn -0.7780 -0.3008 0.5516
vn 0.1693 -0.9856 0.0037
vn -0.5427 0.8399 -0.0052
vn -0.7723 -0.3039 -0.5578
vn 0.3607 -0.9235 -0.1306
vn -0.3593 0.9227 -0.1396
vn 0.3634 -0.9316 0.0045
vn 0.9316 0.3634 0.0038
vn 0.0051 -0.0028 -1.0000
vn -0.3634 0.9316 -0.0045
vn -0.0051 0.0028 1.0000
vn -0.9316 -0.3634 -0.0038
vn 0.2534 -0.9665 -0.0399
vn 0.2616 0.9646 -0.0326
vn 0.2536 -0.9668 0.0320
vn 0.2617 0.9644 0.0392
vn -0.2615 -0.9644 -0.0392
vn -0.2536 0.9668 -0.0320
vn -0.2615 -0.9646 0.0326
vn -0.2532 0.9666 0.0399
vn 0.2536 -0.9673 -0.0040
vn 0.9902 -0.0036 -0.1394
vn 0.2618 0.9651 0.0033
vn 0.9906 -0.0047 0.1370
vn -0.0041 -0.9994 0.0334
vn 0.0042 0.9992 0.0409
vn -0.9902 0.0036 0.1394
vn -0.2617 -0.9651 -0.0033
vn -0.2534 0.9674 0.0040
vn -0.9906 0.0047 -0.1370
vn -0.0042 -0.9992 -0.0409
vn 0.0041 0.9994 -0.0334
vn -0.0042 -1.0000 -0.0038
vn 1.0000 -0.0042 -0.0012
vn -0.0012 0.0038 -1.0000
vn 0.0042 1.0000 0.0038
vn 0.0012 -0.0038 1.0000
vn -1.0000 0.0042 0.0012
vn 0.2500 -0.9674 -0.0398
vn 0.2650 0.9637 -0.0338
vn 0.2503 -0.9676 0.0321
vn 0.2653 0.9634 0.0380
vn -0.2651 -0.9635 -0.0380
vn -0.2500 0.9677 -0.0321
vn -0.2650 -0.9636 0.0338
vn -0.2500 0.9674 0.0398
vn 0.2502 -0.9682 -0.0038
vn 0.9899 -0.0073 -0.1416
vn 0.2652 0.9642 0.0021
vn 0.9908 -0.0082 0.1348
vn -0.0077 -0.9994 0.0341
vn 0.0079 0.9992 0.0402
vn -0.9899 0.0073 0.1416
vn -0.2653 -0.9642 -0.0021
vn -0.2501 0.9682 0.0038
vn -0.9908 0.0082 -0.1348
vn -0.0079 -0.9992 -0.0402
vn 0.0077 0.9994 -0.0341
vn -0.0078 -1.0000 -0.0031
vn 1.0000 -0.0078 -0.0034
vn -0.0034 0.0031 -1.0000
vn 0.0078 1.0000 0.0031
vn 0.0034 -0.0031 1.0000
vn -1.0000 0.0078 0.0034
vn 0.2013 -0.9451 -0.2573
vn 0.2241 0.9368 -0.2685
vn 0.2020 -0.9420 0.2679
vn 0.2249 0.9400 0.2567
vn -0.2249 -0.9400 -0.2567
vn -0.2020 0.9420 -0.2679
vn -0.2241 -0.9369 0.2685
vn -0.2013 0.9451 0.2573
vn 0.2090 -0.9779 0.0055
vn 0.6289 -0.0122 -0.7774
vn 0.2326 0.9725 -0.0061
vn 0.6311 -0.0030 0.7757
vn -0.0113 -0.9615 0.2745
vn 0.0121 0.9647 0.2631
vn -0.6289 0.0122 0.7774
vn -0.2326 -0.9725 0.0061
vn -0.2090 0.9779 -0.0055
vn -0.6311 0.0030 -0.7757
vn -0.0121 -0.9647 -0.2631
vn 0.0113 0.9615 -0.2745
vn -0.0121 -0.9999 0.0059
vn 0.9999 -0.0121 -0.0014
vn -0.0015 -0.0059 -1.0000
vn 0.0121 0.9999 -0.0059
vn 0.0015 0.0059 1.0000
vn -0.9999 0.0121 0.0014
vn 0.6984 -0.1978 -0.6878
vn 0.6944 0.2112 -0.6879
vn 0.6899 -0.1975 0.6965
vn 0.6858 0.2115 0.6964
vn -0.6858 -0.2115 -0.6964
vn -0.6898 0.1975 -0.6965
vn -0.6944 -0.2112 0.6879
vn -0.6984 0.1978 0.6878
vn 0.9618 -0.2738 0.0060
vn 0.7114 0.0069 -0.7027
vn 0.9561 0.2929 0.0059
vn 0.7027 0.0072 0.7115
vn -0.0031 -0.2831 0.9591
vn -0.0088 0.2835 0.9589
vn -0.7115 -0.0069 0.7027
vn -0.9561 -0.2929 -0.0059
vn -0.9618 0.2738 -0.0060
vn -0.7027 -0.0072 -0.7115
vn 0.0088 -0.2835 -0.9589
vn 0.0031 0.2831 -0.9591
vn 0.0099 -1.0000 0.0003
vn 0.9999 0.0099 0.0062
vn 0.0062 -0.0002 -1.0000
vn -0.0099 1.0000 -0.0003
vn -0.0062 0.0002 1.0000
vn -0.9999 -0.0099 -0.0062
vn 0.6974 -0.2135 -0.6841
vn 0.6975 0.1954 -0.6894
vn 0.6868 -0.1955 0.7001
vn 0.6868 0.2135 0.6947
vn -0.6868 -0.2135 -0.6948
vn -0.6868 0.1955 -0.7001
vn -0.6975 -0.1955 0.6894
vn -0.6974 0.2135 0.6841
vn 0.9589 -0.2834 0.0111
vn 0.7125 -0.0092 -0.7016
vn 0.9590 0.2833 0.0037
vn 0.7016 0.0092 0.7125
vn -0.0074 -0.2709 0.9626
vn -0.0074 0.2958 0.9552
vn -0.7125 0.0092 0.7016
vn -0.9590 -0.2833 -0.0037
vn -0.9589 0.2834 -0.0111
vn -0.7016 -0.0092 -0.7125
vn 0.0074 -0.2958 -0.9552
vn 0.0074 0.2709 -0.9626
vn -0.0002 -0.9999 0.0130
vn 1.0000 -0.0001 0.0077
vn 0.0077 -0.0130 -0.9999
vn 0.0002 0.9999 -0.0130
vn -0.0077 0.0130 0.9999
vn -1.0000 0.0001 -0.0077
vn 0.6873 -0.2103 -0.6952
vn 0.6927 0.1986 -0.6933
vn 0.6915 -0.2169 0.6891
vn 0.6969 0.1921 0.6910
vn -0.6969 -0.1921 -0.6910
vn -0.6915 0.2169 -0.6891
vn -0.6927 -0.1987 0.6933
vn -0.6873 0.2103 0.6952
vn 0.9552 -0.2959 -0.0043
vn 0.7049 -0.0060 -0.7093
vn 0.9627 0.2707 -0.0016
vn 0.7092 -0.0127 0.7049
vn -0.0009 -0.2879 0.9577
vn 0.0066 0.2788 0.9603
vn -0.7049 0.0060 0.7093
vn -0.9627 -0.2707 0.0016
vn -0.9552 0.2959 0.0043
vn -0.7091 0.0127 -0.7050
vn -0.0066 -0.2788 -0.9603
vn 0.0009 0.2879 -0.9577
vn -0.0132 -0.9999 -0.0047
vn 0.9999 -0.0132 -0.0031
vn -0.0030 0.0047 -1.0000
vn 0.0132 0.9999 0.0047
vn 0.0030 -0.0047 1.0000
vn -0.9999 0.0132 0.0031
vn 0.6895 -0.2083 -0.6937
vn 0.6944 0.2007 -0.6910
vn 0.6898 -0.2173 0.6906
vn 0.6947 0.1916 0.6933
vn -0.6947 -0.1916 -0.6933
vn -0.6898 0.2173 -0.6906
vn -0.6944 -0.2006 0.6910
vn -0.6895 0.2083 0.6937
vn 0.9555 -0.2949 -0.0021
vn 0.7069 -0.0039 -0.7073
vn 0.9624 0.2718 0.0016
vn 0.7072 -0.0131 0.7069
vn -0.0032 -0.2896 0.9572
vn 0.0036 0.2771 0.9608
vn -0.7069 0.0039 0.7073
vn -0.9624 -0.2718 -0.0016
vn -0.9555 0.2949 0.0021
vn -0.7072 0.0131 -0.7069
vn -0.0036 -0.2771 -0.9608
vn 0.0032 0.2896 -0.9572
vn -0.0121 -0.9999 -0.0065
vn 0.9999 -0.0121 -0.0003
vn -0.0002 0.0065 -1.0000
vn 0.0121 0.9999 0.0065
vn 0.0002 -0.0065 1.0000
vn -0.9999 0.0121 0.0003
vn 0.1196 -0.0046 0.9928
vn -0.1197 0.0046 -0.9928
vn -0.0147 0.1872 -0.9822
vn 0.9887 0.0128 -0.1490
vn -0.9888 -0.0128 0.1490
vn 0.6753 -0.7220 -0.1503
vn 0.3408 -0.0474 -0.9389
vn 0.3460 0.8704 -0.3503
vn -0.3408 0.0475 0.9389
vn 0.2370 -0.7954 -0.5579
vn 0.4999 0.8372 0.2217
vn -0.1629 -0.8409 0.5161
vn -0.2370 0.7953 0.5579
vn -0.4998 -0.8373 -0.2217
vn -0.5739 0.7990 -0.1798
vn 0.4275 -0.0515 -0.9026
vn 0.4323 0.8527 -0.2931
vn 0.2935 -0.7196 0.6294
vn 0.0857 0.8945 0.4388
vn -0.2935 0.7196 -0.6293
vn 0.4844 -0.8013 -0.3511
vn 0.4017 0.8348 -0.3765
vn 0.9938 0.0517 0.0979
vn 0.4043 -0.7929 0.4559
vn -0.0987 0.0105 0.9951
vn -0.9938 -0.0517 -0.0979
vn -0.3218 -0.8433 -0.4305
vn -0.4043 0.7929 -0.4559
vn 0.2651 0.8714 -0.4127
vn 0.9397 0.2754 0.2025
vn 0.0799 0.9235 0.3752
vn 0.2961 -0.7578 -0.5814
vn 0.0496 0.8603 -0.5074
vn 0.8789 0.1546 -0.4512
vn 0.6632 -0.7350 0.1414
vn -0.0495 -0.8603 0.5073
vn -0.2962 0.7578 0.5814
vn -0.6632 0.7349 -0.1414
vn 0.6636 -0.7362 0.1328
vn 0.4757 0.8654 -0.1577
vn -0.0932 0.9032 0.4190
vn -0.4757 -0.8654 0.1577
vn -0.6636 0.7362 -0.1328
vn 0.0932 -0.9032 -0.4189
vn -0.0946 0.6983 -0.7095
vn 0.3602 0.8960 0.2599
vn -0.0829 -0.8612 0.5014
vn -0.3601 -0.8960 -0.2599
vn -0.6642 0.7137 -0.2226
vn 0.2273 -0.7654 -0.6021
vn -0.5390 -0.0276 -0.8418
vn 0.8318 0.1397 -0.5372
vn 0.6644 -0.7430 0.0807
vn 0.4475 0.8787 0.1664
vn -0.2273 0.7655 0.6020
vn -0.4474 -0.8787 -0.1664
vn -0.6644 0.7430 -0.0807
vn 0.5194 -0.6807 0.5165
vn -0.2620 -0.8719 0.4137
vn -0.6342 0.7186 0.2854
vn -0.5194 0.6807 -0.5166
vn 0.1569 -0.8068 -0.5696
vn 0.5218 0.8435 0.1272
vn 0.5454 0.0170 0.8380
vn -0.1569 0.8067 0.5697
vn -0.8368 -0.0454 0.5457
vn -0.5217 -0.8436 -0.1272
vn -0.5187 -0.0220 -0.8547
vn 0.8483 0.1106 -0.5178
vn 0.6411 -0.7603 0.1049
vn 0.4676 0.8678 0.1683
vn 0.5187 0.0220 0.8547
vn -0.6411 0.7603 -0.1049
vn 0.2535 -0.9673 -0.0040
vn 0.2617 0.9651 0.0033
vn -0.2537 0.9673 0.0040
vn 0.2500 -0.9682 -0.0038
vn 0.2653 0.9642 0.0021
vn -0.2651 -0.9642 -0.0021
vn -0.2502 0.9682 0.0038
vn 0.7115 0.0069 -0.7027
vn -0.7114 -0.0069 0.7027
vn -0.7092 0.0127 -0.7049
vn -0.0032 -0.2896 0.9571
vn 0.0032 0.2896 -0.9571
vt 0.041280 0.230000
vt 0.041280 0.236480
vt 0.030000 0.236480
vt 0.041280 0.763520
vt 0.041280 0.770000
vt 0.030000 0.763520
vt 0.958720 0.230000
vt 0.970000 0.236480
vt 0.958720 0.236480
vt 0.958720 0.770000
vt 0.958720 0.763520
vt 0.970000 0.763520
vt 0.041280 0.451200
vt 0.030000 0.548800
vt 0.041280 0.548800
vt 0.030000 0.451200
vt 0.958720 0.451200
vt 0.970000 0.548800
vt 0.970000 0.451200
vt 0.958720 0.548800
vt 0.451200 0.763520
vt 0.548800 0.236480
vt 0.451200 0.236480
vt 0.548800 0.763520
vt 0.197440 0.230000
vt 0.190000 0.236480
vt 0.197440 0.236480
vt 0.190000 0.763520
vt 0.197440 0.770000
vt 0.197440 0.763520
vt 0.802560 0.230000
vt 0.802560 0.236480
vt 0.810000 0.236480
vt 0.802560 0.770000
vt 0.810000 0.763520
vt 0.802560 0.763520
vt 0.451200 0.802560
vt 0.548800 0.810000
vt 0.548800 0.802560
vt 0.451200 0.810000
vt 0.548800 0.197440
vt 0.451200 0.190000
vt 0.451200 0.197440
vt 0.548800 0.190000
vt 0.041280 0.099840
vt 0.041280 0.090000
vt 0.030000 0.099840
vt 0.041280 0.900160
vt 0.030000 0.900160
vt 0.041280 0.910000
vt 0.958720 0.099840
vt 0.970000 0.099840
vt 0.958720 0.090000
vt 0.958720 0.900160
vt 0.958720 0.910000
vt 0.970000 0.900160
vt 0.041280 0.460960
vt 0.030000 0.539040
vt 0.030000 0.460960
vt 0.041280 0.539040
vt 0.970000 0.460960
vt 0.958720 0.539040
vt 0.970000 0.539040
vt 0.958720 0.460960
vt 0.099840 0.539040
vt 0.900160 0.460960
vt 0.099840 0.460960
vt 0.900160 0.539040
vt 0.402099 0.402099
vt 0.402099 0.400910
vt 0.400910 0.402099
vt 0.402099 0.597901
vt 0.400910 0.597901
vt 0.402099 0.599090
vt 0.597901 0.402099
vt 0.599090 0.402099
vt 0.597901 0.400910
vt 0.597901 0.597901
vt 0.597901 0.599090
vt 0.599090 0.597901
vt 0.402099 0.568530
vt 0.400910 0.431470
vt 0.402099 0.431470
vt 0.400910 0.568530
vt 0.599090 0.431470
vt 0.597901 0.568530
vt 0.599090 0.568530
vt 0.597901 0.431470
vt 0.426492 0.426492
vt 0.426492 0.425599
vt 0.425599 0.426492
vt 0.426492 0.573508
vt 0.425599 0.573508
vt 0.426492 0.574401
vt 0.573508 0.426492
vt 0.574401 0.426492
vt 0.573508 0.425599
vt 0.573508 0.573508
vt 0.573508 0.574401
vt 0.574401 0.573508
vt 0.426492 0.448544
vt 0.425599 0.551456
vt 0.425599 0.448544
vt 0.426492 0.551456
vt 0.574401 0.448544
vt 0.573508 0.551456
vt 0.574401 0.551456
vt 0.573508 0.448544
vt 0.412300 0.412300
vt 0.412300 0.411235
vt 0.411235 0.412300
vt 0.412300 0.587700
vt 0.411235 0.587700
vt 0.412300 0.588765
vt 0.587700 0.412300
vt 0.588765 0.412300
vt 0.587700 0.411235
vt 0.587700 0.587700
vt 0.587700 0.588765
vt 0.588765 0.587700
vt 0.412300 0.438610
vt 0.411235 0.561390
vt 0.411235 0.438610
vt 0.412300 0.561390
vt 0.588765 0.438610
vt 0.587700 0.561390
vt 0.588765 0.561390
vt 0.587700 0.438610
vt 0.428214 0.428214
vt 0.428214 0.427342
vt 0.427342 0.428214
vt 0.428214 0.571787
vt 0.427342 0.571787
vt 0.428214 0.572658
vt 0.571787 0.428214
vt 0.572658 0.428214
vt 0.571787 0.427342
vt 0.571787 0.571787
vt 0.571787 0.572658
vt 0.572658 0.571787
vt 0.428214 0.550251
vt 0.427342 0.449749
vt 0.428214 0.449749
vt 0.427342 0.550251
vt 0.572658 0.550251
vt 0.571787 0.449749
vt 0.571787 0.550251
vt 0.398656 0.398656
vt 0.398656 0.397426
vt 0.397426 0.398656
vt 0.398656 0.601344
vt 0.397426 0.601344
vt 0.398656 0.602574
vt 0.601344 0.398656
vt 0.602574 0.398656
vt 0.601344 0.397426
vt 0.601344 0.601344
vt 0.601344 0.602574
vt 0.602574 0.601344
vt 0.398656 0.429060
vt 0.397426 0.570940
vt 0.397426 0.429060
vt 0.398656 0.570940
vt 0.602574 0.570940
vt 0.601344 0.429060
vt 0.601344 0.570940
vt 0.602574 0.429060
vt 0.413659 0.413659
vt 0.413659 0.412610
vt 0.412610 0.413659
vt 0.413659 0.586341
vt 0.412610 0.586341
vt 0.413659 0.587390
vt 0.586341 0.413659
vt 0.587390 0.413659
vt 0.586341 0.412610
vt 0.586341 0.586341
vt 0.586341 0.587390
vt 0.587390 0.586341
vt 0.413659 0.439561
vt 0.412610 0.560439
vt 0.412610 0.439561
vt 0.413659 0.560439
vt 0.587390 0.439561
vt 0.586341 0.560439
vt 0.587390 0.560439
vt 0.586341 0.439561
vt 0.407548 0.407548
vt 0.407548 0.406426
vt 0.406426 0.407548
vt 0.407548 0.592452
vt 0.406426 0.592452
vt 0.407548 0.593574
vt 0.592452 0.407548
vt 0.593574 0.407548
vt 0.592452 0.406426
vt 0.592452 0.592452
vt 0.592452 0.593574
vt 0.593574 0.592452
vt 0.407548 0.435284
vt 0.406426 0.564716
vt 0.406426 0.435284
vt 0.407548 0.564716
vt 0.593574 0.435284
vt 0.592452 0.564716
vt 0.593574 0.564716
vt 0.592452 0.435284
vt 0.410373 0.410373
vt 0.410373 0.409284
vt 0.409284 0.410373
vt 0.410373 0.589627
vt 0.409284 0.589627
vt 0.410373 0.590716
vt 0.589627 0.410373
vt 0.590716 0.410373
vt 0.589627 0.409284
vt 0.589627 0.589627
vt 0.589627 0.590716
vt 0.590716 0.589627
vt 0.410373 0.562739
vt 0.409284 0.437261
vt 0.410373 0.437261
vt 0.409284 0.562739
vt 0.590716 0.562739
vt 0.589627 0.437261
vt 0.589627 0.562739
vt 0.590716 0.437261
vt 0.413823 0.413823
vt 0.413823 0.412776
vt 0.412776 0.413823
vt 0.413823 0.586177
vt 0.412776 0.586177
vt 0.413823 0.587224
vt 0.586177 0.413823
vt 0.587224 0.413823
vt 0.586177 0.412776
vt 0.586177 0.586177
vt 0.586177 0.587224
vt 0.587224 0.586177
vt 0.413823 0.560324
vt 0.412776 0.439676
vt 0.413823 0.439676
vt 0.412776 0.560324
vt 0.587224 0.560324
vt 0.586177 0.439676
vt 0.586177 0.560324
vt 0.402590 0.402590
vt 0.402590 0.401407
vt 0.401407 0.402590
vt 0.402590 0.597410
vt 0.401407 0.597410
vt 0.402590 0.598593
vt 0.597410 0.402590
vt 0.598593 0.402590
vt 0.597410 0.401407
vt 0.597410 0.597410
vt 0.597410 0.598593
vt 0.598593 0.597410
vt 0.402590 0.431813
vt 0.401407 0.568187
vt 0.401407 0.431813
vt 0.402590 0.568187
vt 0.598593 0.431813
vt 0.597410 0.568187
vt 0.598593 0.568187
vt 0.597410 0.431813
vt 0.426983 0.426983
vt 0.426983 0.426096
vt 0.426096 0.426983
vt 0.426983 0.573017
vt 0.426096 0.573017
vt 0.426983 0.573904
vt 0.573017 0.426983
vt 0.573904 0.426983
vt 0.573017 0.426096
vt 0.573017 0.573017
vt 0.573017 0.573904
vt 0.573904 0.573017
vt 0.426983 0.551112
vt 0.426096 0.448888
vt 0.426983 0.448888
vt 0.426096 0.551112
vt 0.573904 0.448888
vt 0.573017 0.551112
vt 0.573904 0.551112
vt 0.573017 0.448888
vt 0.419791 0.419791
vt 0.419791 0.418817
vt 0.418817 0.419791
vt 0.419791 0.580209
vt 0.418817 0.580209
vt 0.419791 0.581183
vt 0.580209 0.419791
vt 0.581183 0.419791
vt 0.580209 0.418817
vt 0.580209 0.580209
vt 0.580209 0.581183
vt 0.581183 0.580209
vt 0.419791 0.556146
vt 0.418817 0.443854
vt 0.419791 0.443854
vt 0.418817 0.556146
vt 0.581183 0.556146
vt 0.580209 0.443854
vt 0.580209 0.556146
vt 0.285280 0.177920
vt 0.285280 0.170000
vt 0.280000 0.177920
vt 0.285280 0.822080
vt 0.280000 0.822080
vt 0.285280 0.830000
vt 0.714720 0.177920
vt 0.720000 0.177920
vt 0.714720 0.170000
vt 0.714720 0.822080
vt 0.714720 0.830000
vt 0.720000 0.822080
vt 0.170000 0.543920
vt 0.177920 0.456080
vt 0.170000 0.456080
vt 0.830000 0.456080
vt 0.822080 0.543920
vt 0.830000 0.543920
vt 0.822080 0.456080
vt 0.177920 0.543920
vt 0.714720 0.543920
vt 0.285280 0.456080
vt 0.714720 0.456080
vt 0.285280 0.543920
vt 0.440720 0.075160
vt 0.440720 0.070000
vt 0.440000 0.075160
vt 0.440720 0.924840
vt 0.440000 0.924840
vt 0.440720 0.930000
vt 0.559280 0.075160
vt 0.560000 0.075160
vt 0.559280 0.070000
vt 0.559280 0.924840
vt 0.559280 0.930000
vt 0.560000 0.924840
vt 0.070000 0.484192
vt 0.075160 0.515808
vt 0.075160 0.484192
vt 0.930000 0.484192
vt 0.924840 0.515808
vt 0.930000 0.515808
vt 0.924840 0.484192
vt 0.070000 0.515808
vt 0.559280 0.515808
vt 0.440720 0.484192
vt 0.559280 0.484192
vt 0.440720 0.515808
vt -0.017280 0.080320
vt -0.017280 0.070000
vt -0.030000 0.080320
vt -0.017280 0.919680
vt -0.030000 0.919680
vt -0.017280 0.930000
vt 1.017280 0.080320
vt 1.030000 0.080320
vt 1.017280 0.070000
vt 1.017280 0.919680
vt 1.017280 0.930000
vt 1.030000 0.919680
vt -0.017280 0.617120
vt -0.030000 0.382880
vt -0.017280 0.382880
vt -0.030000 0.617120
vt 1.030000 0.617120
vt 1.017280 0.382880
vt 1.017280 0.617120
vt 0.080320 0.382880
vt 0.919680 0.617120
vt 0.919680 0.382880
vt 0.080320 0.617120
vt 0.436560 0.280000
vt 0.436560 0.285280
vt 0.435000 0.285280
vt 0.436560 0.714720
vt 0.436560 0.720000
vt 0.435000 0.714720
vt 0.563440 0.280000
vt 0.565000 0.285280
vt 0.563440 0.285280
vt 0.563440 0.720000
vt 0.563440 0.714720
vt 0.565000 0.714720
vt 0.436560 0.563440
vt 0.563440 0.436560
vt 0.436560 0.436560
vt 0.563440 0.563440
vt 0.572658 0.449749
vt 0.587224 0.439676
vt 0.581183 0.443854
vt 1.030000 0.382880
s 0
usemtl wood
f 1/1/1 2/2/1 3/3/1
f 4/4/2 5/5/2 6/6/2
f 7/1/3 8/3/3 9/2/3
f 10/5/4 11/4/4 12/6/4
f 13/7/5 14/8/5 15/9/5
f 16/10/6 17/11/6 18/12/6
f 19/7/7 20/9/7 21/8/7
f 22/10/8 23/12/8 24/11/8
f 1/13/9 8/14/9 7/15/9
f 4/4/10 3/3/10 2/2/10
f 10/15/11 6/16/11 5/13/11
f 11/4/12 8/3/12 12/6/12
f 7/1/13 20/9/13 19/7/13
f 22/10/14 11/4/14 10/5/14
f 21/8/15 24/11/15 23/12/15
f 13/17/16 21/18/16 14/19/16
f 22/20/17 18/19/17 23/18/17
f 17/11/18 14/8/18 18/12/18
f 13/7/19 2/2/19 1/1/19
f 5/5/20 17/11/20 16/10/20
f 19/20/21 1/13/21 7/15/21
f 6/21/22 8/22/22 3/23/22
f 17/11/23 2/2/23 15/9/23
f 10/15/24 16/17/24 22/20/24
f 9/2/25 24/11/25 20/9/25
f 21/22/26 18/21/26 14/23/26
f 25/1/27 26/2/27 27/3/27
f 28/4/28 29/5/28 30/6/28
f 31/1/29 32/3/29 33/2/29
f 34/5/30 35/4/30 36/6/30
f 37/7/31 38/8/31 39/9/31
f 40/10/32 41/11/32 42/12/32
f 43/7/33 44/9/33 45/8/33
f 46/10/34 47/12/34 48/11/34
f 31/15/35 27/16/35 32/14/35
f 26/2/36 30/6/36 27/3/36
f 34/15/37 30/16/37 29/13/37
f 33/2/38 36/6/38 35/4/38
f 31/1/39 44/9/39 43/7/39
f 46/10/40 35/4/40 34/5/40
f 45/8/41 48/11/41 47/12/41
f 37/17/42 45/18/42 38/19/42
f 40/17/43 47/18/43 46/20/43
f 39/9/44 42/12/44 41/11/44
f 37/7/45 26/2/45 25/1/45
f 29/5/46 41/11/46 40/10/46
f 31/15/47 37/17/47 25/13/47
f 30/21/48 32/22/48 27/23/48
f 41/11/49 26/2/49 39/9/49
f 34/15/50 40/17/50 46/20/50
f 35/4/51 44/9/51 33/2/51
f 47/24/52 38/23/52 45/22/52
f 49/25/53 50/26/53 51/27/53
f 52/28/54 53/29/54 54/30/54
f 55/31/55 56/32/55 57/33/55
f 58/34/56 59/35/56 60/36/56
f 61/25/57 62/27/57 63/26/57
f 64/29/58 65/28/58 66/30/58
f 67/31/59 68/33/59 69/32/59
f 70/34/60 71/36/60 72/35/60
f 49/25/61 56/32/61 55/31/61
f 50/26/62 54/30/62 51/27/62
f 53/29/63 60/36/63 54/30/63
f 57/33/64 60/36/64 59/35/64
f 55/37/65 68/38/65 67/39/65
f 70/39/66 59/40/66 58/37/66
f 69/32/67 72/35/67 71/36/67
f 61/25/68 69/32/68 62/27/68
f 64/29/69 71/36/69 70/34/69
f 63/26/70 66/30/70 65/28/70
f 61/41/71 50/42/71 49/43/71
f 53/43/72 65/44/72 64/41/72
f 67/39/73 49/43/73 55/37/73
f 54/30/74 56/32/74 51/27/74
f 65/24/75 50/23/75 63/22/75
f 58/37/76 64/41/76 70/39/76
f 59/21/77 68/22/77 57/23/77
f 71/36/78 62/27/78 69/32/78
f 73/25/79 74/26/79 75/27/79
f 76/28/80 77/29/80 78/30/80
f 79/31/81 80/32/81 81/33/81
f 82/34/82 83/35/82 84/36/82
f 85/25/83 86/27/83 87/26/83
f 88/29/84 89/28/84 90/30/84
f 91/31/85 92/33/85 93/32/85
f 94/34/86 95/36/86 96/35/86
f 73/25/87 80/32/87 79/31/87
f 76/28/88 75/27/88 74/26/88
f 82/34/89 78/30/89 77/29/89
f 81/33/90 84/36/90 83/35/90
f 79/37/91 92/38/91 91/39/91
f 94/39/92 83/40/92 82/37/92
f 93/32/93 96/35/93 95/36/93
f 91/31/94 86/27/94 85/25/94
f 94/34/95 90/30/95 95/36/95
f 89/28/96 86/27/96 90/30/96
f 85/41/97 74/42/97 73/43/97
f 88/41/98 76/42/98 89/44/98
f 79/37/99 85/41/99 73/43/99
f 75/27/100 84/36/100 80/32/100
f 89/24/101 74/23/101 87/22/101
f 82/37/102 88/41/102 94/39/102
f 83/21/103 92/22/103 81/23/103
f 95/36/104 86/27/104 93/32/104
f 97/45/105 98/46/105 99/47/105
f 100/46/106 101/45/106 102/47/106
f 103/48/107 104/49/107 105/50/107
f 106/48/108 107/50/108 108/49/108
f 109/51/109 110/52/109 111/53/109
f 112/51/110 113/53/110 114/52/110
f 115/54/111 116/55/111 117/56/111
f 118/54/112 119/56/112 120/55/112
f 103/48/113 99/47/113 104/49/113
f 98/57/114 102/58/114 99/59/114
f 101/45/115 108/49/115 102/47/115
f 105/57/116 108/58/116 107/60/116
f 103/48/117 116/55/117 115/54/117
f 118/54/118 107/50/118 106/48/118
f 117/61/119 120/62/119 119/63/119
f 109/51/120 117/56/120 110/52/120
f 112/51/121 119/56/121 118/54/121
f 111/64/122 114/63/122 113/62/122
f 109/51/123 98/46/123 97/45/123
f 101/45/124 113/53/124 112/51/124
f 115/54/125 97/45/125 103/48/125
f 102/65/126 104/66/126 99/67/126
f 111/64/127 100/60/127 98/57/127
f 106/48/128 112/51/128 118/54/128
f 107/60/129 116/64/129 105/57/129
f 119/68/130 110/67/130 117/66/130
f 505/377/547 506/378/547 507/379/547
f 508/380/548 509/381/548 510/382/548
f 511/377/549 512/379/549 513/378/549
f 514/381/550 515/380/550 516/382/550
f 517/383/551 518/384/551 519/385/551
f 520/386/552 521/387/552 522/388/552
f 523/383/553 524/385/553 525/384/553
f 526/386/554 527/388/554 528/387/554
f 511/383/555 507/378/555 512/385/555
f 508/380/556 507/379/556 506/378/556
f 514/386/557 510/380/557 509/381/557
f 513/378/558 516/382/558 515/380/558
f 511/377/559 524/385/559 523/383/559
f 526/386/560 515/380/560 514/381/560
f 525/384/561 528/387/561 527/388/561
f 523/383/562 518/378/562 517/377/562
f 520/381/563 527/387/563 526/386/563
f 521/387/564 518/384/564 522/388/564
f 505/377/565 519/385/565 506/378/565
f 509/381/566 521/387/566 520/386/566
f 511/389/567 517/390/567 505/391/567
f 510/380/568 512/385/568 507/378/568
f 519/385/569 508/380/569 506/378/569
f 514/389/570 520/390/570 526/392/570
f 515/380/571 524/385/571 513/378/571
f 527/387/572 518/378/572 525/385/572
f 529/377/573 530/378/573 531/379/573
f 532/380/574 533/381/574 534/382/574
f 535/377/575 536/379/575 537/378/575
f 538/381/576 539/380/576 540/382/576
f 541/383/577 542/384/577 543/385/577
f 544/386/578 545/387/578 546/388/578
f 547/383/579 548/385/579 549/384/579
f 550/386/580 551/388/580 552/387/580
f 529/377/581 536/385/581 535/383/581
f 532/380/582 531/379/582 530/378/582
f 538/386/583 534/380/583 533/381/583
f 537/378/584 540/382/584 539/380/584
f 535/377/585 548/385/585 547/383/585
f 550/386/586 539/380/586 538/381/586
f 549/384/587 552/387/587 551/388/587
f 547/383/588 542/378/588 541/377/588
f 544/381/589 551/387/589 550/386/589
f 543/385/590 546/388/590 545/387/590
f 541/383/591 530/378/591 529/377/591
f 533/381/592 545/387/592 544/386/592
f 535/389/593 541/390/593 529/391/593
f 534/380/594 536/385/594 531/378/594
f 543/385/595 532/380/595 530/378/595
f 550/392/596 533/391/596 544/390/596
f 537/378/597 552/387/597 548/385/597
f 551/387/598 542/378/598 549/385/598
f 553/377/599 554/378/599 555/379/599
f 556/380/600 557/381/600 558/382/600
f 559/377/601 560/379/601 561/378/601
f 562/381/602 563/380/602 564/382/602
f 565/383/603 566/384/603 567/385/603
f 568/386/604 569/387/604 570/388/604
f 571/383/605 572/385/605 573/384/605
f 574/386/606 575/388/606 576/387/606
f 553/377/607 560/385/607 559/383/607
f 556/380/608 555/379/608 554/378/608
f 557/381/609 564/387/609 558/380/609
f 563/380/610 560/379/610 564/382/610
f 559/377/611 572/385/611 571/383/611
f 562/381/612 576/387/612 563/380/612
f 575/388/613 572/385/613 576/387/613
f 571/383/614 566/378/614 565/377/614
f 568/381/615 575/387/615 574/386/615
f 567/385/616 570/388/616 569/387/616
f 553/377/617 567/385/617 554/378/617
f 557/381/618 569/387/618 568/386/618
f 571/392/619 553/391/619 559/389/619
f 558/380/620 560/385/620 555/378/620
f 569/387/621 554/378/621 567/385/621
f 562/389/622 568/390/622 574/392/622
f 563/380/623 572/385/623 561/378/623
f 575/387/624 566/378/624 573/385/624
f 577/377/625 578/378/625 579/379/625
f 580/380/626 581/381/626 582/382/626
f 583/377/627 584/379/627 585/378/627
f 586/381/628 587/380/628 588/382/628
f 589/383/629 590/384/629 591/385/629
f 592/386/630 593/387/630 594/388/630
f 595/383/631 596/385/631 597/384/631
f 598/386/632 599/388/632 600/387/632
f 577/377/633 584/385/633 583/383/633
f 580/380/634 579/379/634 578/378/634
f 586/386/635 582/380/635 581/381/635
f 585/378/636 588/382/636 587/380/636
f 595/383/637 585/378/637 596/385/637
f 598/386/638 587/380/638 586/381/638
f 597/384/639 600/387/639 599/388/639
f 595/383/640 590/378/640 589/377/640
f 592/381/641 599/387/641 598/386/641
f 591/385/642 594/388/642 593/387/642
f 589/383/643 578/378/643 577/377/643
f 581/381/644 593/387/644 592/386/644
f 595/392/645 577/391/645 583/389/645
f 582/380/646 584/385/646 579/378/646
f 593/387/647 578/378/647 591/385/647
f 586/389/648 592/390/648 598/392/648
f 587/380/649 596/385/649 585/378/649
f 599/387/650 590/378/650 597/385/650
f 1/13/9 3/16/9 8/14/9
f 4/4/10 6/6/10 3/3/10
f 10/15/11 12/14/11 6/16/11
f 11/4/12 9/2/12 8/3/12
f 7/1/13 9/2/13 20/9/13
f 22/10/14 24/11/14 11/4/14
f 21/8/15 20/9/15 24/11/15
f 13/17/16 19/20/16 21/18/16
f 22/20/17 16/17/17 18/19/17
f 17/11/18 15/9/18 14/8/18
f 13/7/19 15/9/19 2/2/19
f 5/5/20 4/4/20 17/11/20
f 19/20/21 13/17/21 1/13/21
f 6/21/22 12/24/22 8/22/22
f 17/11/23 4/4/23 2/2/23
f 10/15/24 5/13/24 16/17/24
f 9/2/25 11/4/25 24/11/25
f 21/22/26 23/24/26 18/21/26
f 31/15/35 25/13/35 27/16/35
f 26/2/36 28/4/36 30/6/36
f 34/15/37 36/14/37 30/16/37
f 33/2/651 32/3/651 36/6/651
f 31/1/39 33/2/39 44/9/39
f 46/10/40 48/11/40 35/4/40
f 45/8/41 44/9/41 48/11/41
f 37/17/42 43/20/42 45/18/42
f 40/17/43 42/19/43 47/18/43
f 39/9/652 38/8/652 42/12/652
f 37/7/45 39/9/45 26/2/45
f 29/5/653 28/4/653 41/11/653
f 31/15/47 43/20/47 37/17/47
f 30/21/48 36/24/48 32/22/48
f 41/11/49 28/4/49 26/2/49
f 34/15/50 29/13/50 40/17/50
f 35/4/51 48/11/51 44/9/51
f 47/24/52 42/21/52 38/23/52
f 49/25/61 51/27/61 56/32/61
f 50/26/654 52/28/654 54/30/654
f 53/29/63 58/34/63 60/36/63
f 57/33/64 56/32/64 60/36/64
f 55/37/65 57/40/65 68/38/65
f 70/39/66 72/38/66 59/40/66
f 69/32/655 68/33/655 72/35/655
f 61/25/68 67/31/68 69/32/68
f 64/29/69 66/30/69 71/36/69
f 63/26/70 62/27/70 66/30/70
f 61/41/71 63/44/71 50/42/71
f 53/43/72 52/42/72 65/44/72
f 67/39/73 61/41/73 49/43/73
f 54/30/74 60/36/74 56/32/74
f 65/24/75 52/21/75 50/23/75
f 58/37/76 53/43/76 64/41/76
f 59/21/77 72/24/77 68/22/77
f 71/36/78 66/30/78 62/27/78
f 73/25/87 75/27/87 80/32/87
f 76/28/88 78/30/88 75/27/88
f 82/34/89 84/36/89 78/30/89
f 81/33/90 80/32/90 84/36/90
f 79/37/91 81/40/91 92/38/91
f 94/39/92 96/38/92 83/40/92
f 93/32/93 92/33/93 96/35/93
f 91/31/94 93/32/94 86/27/94
f 94/34/95 88/29/95 90/30/95
f 89/28/96 87/26/96 86/27/96
f 85/41/97 87/44/97 74/42/97
f 88/41/98 77/43/98 76/42/98
f 79/37/99 91/39/99 85/41/99
f 75/27/100 78/30/100 84/36/100
f 89/24/101 76/21/101 74/23/101
f 82/37/102 77/43/102 88/41/102
f 83/21/103 96/24/103 92/22/103
f 95/36/104 90/30/104 86/27/104
f 103/48/113 97/45/113 99/47/113
f 98/57/114 100/60/114 102/58/114
f 101/45/115 106/48/115 108/49/115
f 105/57/116 104/59/116 108/58/116
f 103/48/117 105/50/117 116/55/117
f 118/54/118 120/55/118 107/50/118
f 117/61/119 116/64/119 120/62/119
f 109/51/120 115/54/120 117/56/120
f 112/51/121 114/52/121 119/56/121
f 111/64/122 110/61/122 114/63/122
f 109/51/123 111/53/123 98/46/123
f 101/45/124 100/46/124 113/53/124
f 115/54/125 109/51/125 97/45/125
f 102/65/126 108/68/126 104/66/126
f 111/64/127 113/62/127 100/60/127
f 106/48/128 101/45/128 112/51/128
f 107/60/129 120/62/129 116/64/129
f 119/68/130 114/65/130 110/67/130
f 511/383/555 505/377/555 507/378/555
f 508/380/731 510/382/731 507/379/731
f 514/386/557 516/387/557 510/380/557
f 513/378/558 512/379/558 516/382/558
f 511/377/559 513/378/559 524/385/559
f 526/386/560 528/387/560 515/380/560
f 525/384/732 524/385/732 528/387/732
f 523/383/562 525/385/562 518/378/562
f 520/381/563 522/380/563 527/387/563
f 521/387/564 519/385/564 518/384/564
f 505/377/565 517/383/565 519/385/565
f 509/381/566 508/380/566 521/387/566
f 511/389/567 523/392/567 517/390/567
f 510/380/568 516/387/568 512/385/568
f 519/385/569 521/387/569 508/380/569
f 514/389/570 509/391/570 520/390/570
f 515/380/571 528/387/571 524/385/571
f 527/387/572 522/380/572 518/378/572
f 529/377/581 531/378/581 536/385/581
f 532/380/582 534/382/582 531/379/582
f 538/386/583 540/387/583 534/380/583
f 537/378/584 536/379/584 540/382/584
f 535/377/585 537/378/585 548/385/585
f 550/386/586 552/387/586 539/380/586
f 549/384/587 548/385/587 552/387/587
f 547/383/588 549/385/588 542/378/588
f 544/381/589 546/380/589 551/387/589
f 543/385/590 542/384/590 546/388/590
f 541/383/591 543/385/591 530/378/591
f 533/381/592 532/380/592 545/387/592
f 535/389/593 547/392/593 541/390/593
f 534/380/594 540/387/594 536/385/594
f 543/385/595 545/387/595 532/380/595
f 550/392/596 538/389/596 533/391/596
f 537/378/597 539/380/597 552/387/597
f 551/387/598 546/380/598 542/378/598
f 553/377/607 555/378/607 560/385/607
f 556/380/608 558/382/608 555/379/608
f 557/381/609 562/386/609 564/387/609
f 563/380/610 561/378/610 560/379/610
f 559/377/611 561/378/611 572/385/611
f 562/381/612 574/386/612 576/387/612
f 575/388/613 573/384/613 572/385/613
f 571/383/614 573/385/614 566/378/614
f 568/381/615 570/380/615 575/387/615
f 567/385/733 566/384/733 570/388/733
f 553/377/617 565/383/617 567/385/617
f 557/381/618 556/380/618 569/387/618
f 571/392/619 565/390/619 553/391/619
f 558/380/620 564/387/620 560/385/620
f 569/387/621 556/380/621 554/378/621
f 562/389/622 557/391/622 568/390/622
f 563/380/623 576/387/623 572/385/623
f 575/387/624 570/380/624 566/378/624
f 577/377/633 579/378/633 584/385/633
f 580/380/634 582/382/634 579/379/634
f 586/386/635 588/387/635 582/380/635
f 585/378/636 584/379/636 588/382/636
f 595/383/734 583/377/734 585/378/734
f 598/386/638 600/387/638 587/380/638
f 597/384/639 596/385/639 600/387/639
f 595/383/640 597/385/640 590/378/640
f 592/381/641 594/380/641 599/387/641
f 591/385/642 590/384/642 594/388/642
f 589/383/643 591/385/643 578/378/643
f 581/381/735 580/380/735 593/387/735
f 595/392/645 589/390/645 577/391/645
f 582/380/646 588/387/646 584/385/646
f 593/387/647 580/380/647 578/378/647
f 586/389/648 581/391/648 592/390/648
f 587/380/649 600/387/649 596/385/649
f 599/387/650 594/380/650 590/378/650
usemtl coal
f 121/69/131 122/70/131 123/71/131
f 124/70/132 125/69/132 126/71/132
f 127/72/133 128/73/133 129/74/133
f 130/72/134 131/74/134 132/73/134
f 133/75/135 134/76/135 135/77/135
f 136/75/136 137/77/136 138/76/136
f 139/78/137 140/79/137 141/80/137
f 142/78/138 143/80/138 144/79/138
f 127/72/139 123/71/139 128/73/139
f 124/81/140 123/82/140 122/83/140
f 130/72/141 126/71/141 125/69/141
f 129/83/142 132/84/142 131/81/142
f 139/78/143 129/74/143 140/79/143
f 130/72/144 144/79/144 131/74/144
f 141/85/145 144/86/145 143/87/145
f 139/78/146 134/76/146 133/75/146
f 142/78/147 138/76/147 143/80/147
f 135/88/148 138/87/148 137/86/148
f 121/69/149 135/77/149 122/70/149
f 125/69/150 137/77/150 136/75/150
f 127/72/151 133/75/151 121/69/151
f 126/81/152 128/88/152 123/83/152
f 135/88/153 124/81/153 122/83/153
f 142/78/154 125/69/154 136/75/154
f 131/81/155 140/88/155 129/83/155
f 143/86/156 134/83/156 141/88/156
f 145/89/157 146/90/157 147/91/157
f 148/90/158 149/89/158 150/91/158
f 151/92/159 152/93/159 153/94/159
f 154/92/160 155/94/160 156/93/160
f 157/95/161 158/96/161 159/97/161
f 160/95/162 161/97/162 162/96/162
f 163/98/163 164/99/163 165/100/163
f 166/98/164 167/100/164 168/99/164
f 145/89/165 152/93/165 151/92/165
f 146/101/166 150/102/166 147/103/166
f 154/92/167 150/91/167 149/89/167
f 153/101/168 156/102/168 155/104/168
f 163/98/169 153/94/169 164/99/169
f 166/98/170 155/94/170 154/92/170
f 165/105/171 168/106/171 167/107/171
f 157/95/172 165/100/172 158/96/172
f 160/95/173 167/100/173 166/98/173
f 159/108/174 162/107/174 161/106/174
f 157/95/175 146/90/175 145/89/175
f 160/95/176 148/90/176 161/97/176
f 151/92/177 157/95/177 145/89/177
f 150/104/178 152/108/178 147/101/178
f 159/108/179 148/104/179 146/101/179
f 154/92/180 160/95/180 166/98/180
f 155/104/181 164/108/181 153/101/181
f 167/106/182 158/101/182 165/108/182
f 169/109/183 170/110/183 171/111/183
f 172/110/184 173/109/184 174/111/184
f 175/112/185 176/113/185 177/114/185
f 178/112/186 179/114/186 180/113/186
f 181/115/187 182/116/187 183/117/187
f 184/115/188 185/117/188 186/116/188
f 187/118/189 188/119/189 189/120/189
f 190/118/190 191/120/190 192/119/190
f 175/112/191 171/111/191 176/113/191
f 170/121/192 174/122/192 171/123/192
f 173/109/193 180/113/193 174/111/193
f 177/121/194 180/122/194 179/124/194
f 187/118/195 177/114/195 188/119/195
f 190/118/196 179/114/196 178/112/196
f 189/125/197 192/126/197 191/127/197
f 181/115/198 189/120/198 182/116/198
f 190/118/199 186/116/199 191/120/199
f 183/128/200 186/127/200 185/126/200
f 181/115/201 170/110/201 169/109/201
f 173/109/202 185/117/202 184/115/202
f 187/118/203 169/109/203 175/112/203
f 174/124/204 176/128/204 171/121/204
f 185/126/205 170/121/205 183/128/205
f 178/112/206 184/115/206 190/118/206
f 177/121/207 192/126/207 188/128/207
f 189/128/208 186/124/208 182/121/208
f 193/129/209 194/130/209 195/131/209
f 196/130/210 197/129/210 198/131/210
f 199/132/211 200/133/211 201/134/211
f 202/132/212 203/134/212 204/133/212
f 205/135/213 206/136/213 207/137/213
f 208/135/214 209/137/214 210/136/214
f 211/138/215 212/139/215 213/140/215
f 214/138/216 215/140/216 216/139/216
f 193/129/217 200/133/217 199/132/217
f 196/141/218 195/142/218 194/143/218
f 202/132/219 198/131/219 197/129/219
f 201/143/220 204/144/220 203/141/220
f 199/132/221 212/139/221 211/138/221
f 202/132/222 216/139/222 203/134/222
f 215/145/223 212/146/223 216/147/223
f 205/135/224 213/140/224 206/136/224
f 208/135/225 215/140/225 214/138/225
f 207/146/226 210/145/226 209/147/226
f 205/135/227 194/130/227 193/129/227
f 197/129/228 209/137/228 208/135/228
f 211/138/229 193/129/229 199/132/229
f 195/143/230 204/147/230 200/146/230
f 209/147/231 194/143/231 207/146/231
f 202/132/232 208/135/232 214/138/232
f 203/141/233 212/146/233 201/143/233
f 213/146/234 210/141/234 206/143/234
f 217/148/235 218/149/235 219/150/235
f 220/149/236 221/148/236 222/150/236
f 223/151/237 224/152/237 225/153/237
f 226/151/238 227/153/238 228/152/238
f 229/154/239 230/155/239 231/156/239
f 232/154/240 233/156/240 234/155/240
f 235/157/241 236/158/241 237/159/241
f 238/157/242 239/159/242 240/158/242
f 223/151/243 219/150/243 224/152/243
f 218/160/244 222/161/244 219/162/244
f 221/148/245 228/152/245 222/150/245
f 225/160/246 228/161/246 227/163/246
f 223/151/247 236/158/247 235/157/247
f 226/151/248 240/158/248 227/153/248
f 239/164/249 236/165/249 240/166/249
f 229/154/250 237/159/250 230/155/250
f 232/154/251 239/159/251 238/157/251
f 233/166/252 230/167/252 234/164/252
f 217/148/253 231/156/253 218/149/253
f 232/154/254 220/149/254 233/156/254
f 235/157/255 217/148/255 223/151/255
f 219/160/256 228/166/256 224/165/256
f 233/166/257 218/160/257 231/165/257
f 226/151/258 232/154/258 238/157/258
f 225/160/259 240/166/259 236/165/259
f 239/166/260 230/160/260 237/165/260
f 241/168/261 242/169/261 243/170/261
f 244/169/262 245/168/262 246/170/262
f 247/171/263 248/172/263 249/173/263
f 250/171/264 251/173/264 252/172/264
f 253/174/265 254/175/265 255/176/265
f 256/174/266 257/176/266 258/175/266
f 259/177/267 260/178/267 261/179/267
f 262/177/268 263/179/268 264/178/268
f 241/168/269 248/172/269 247/171/269
f 242/180/270 246/181/270 243/182/270
f 250/171/271 246/170/271 245/168/271
f 249/180/272 252/181/272 251/183/272
f 247/171/273 260/178/273 259/177/273
f 262/177/274 251/173/274 250/171/274
f 261/184/275 264/185/275 263/186/275
f 253/174/276 261/179/276 254/175/276
f 262/177/277 258/175/277 263/179/277
f 255/187/278 258/186/278 257/185/278
f 253/174/279 242/169/279 241/168/279
f 256/174/280 244/169/280 257/176/280
f 259/177/281 241/168/281 247/171/281
f 246/183/282 248/187/282 243/180/282
f 257/185/283 242/180/283 255/187/283
f 250/171/284 256/174/284 262/177/284
f 251/183/285 260/187/285 249/180/285
f 263/185/286 254/180/286 261/187/286
f 265/188/287 266/189/287 267/190/287
f 268/189/288 269/188/288 270/190/288
f 271/191/289 272/192/289 273/193/289
f 274/191/290 275/193/290 276/192/290
f 277/194/291 278/195/291 279/196/291
f 280/194/292 281/196/292 282/195/292
f 283/197/293 284/198/293 285/199/293
f 286/197/294 287/199/294 288/198/294
f 265/188/295 272/192/295 271/191/295
f 266/200/296 270/201/296 267/202/296
f 274/191/297 270/190/297 269/188/297
f 273/200/298 276/201/298 275/203/298
f 271/191/299 284/198/299 283/197/299
f 274/191/300 288/198/300 275/193/300
f 285/204/301 288/205/301 287/206/301
f 283/197/302 278/195/302 277/194/302
f 280/194/303 287/199/303 286/197/303
f 279/207/304 282/206/304 281/205/304
f 265/188/305 279/196/305 266/189/305
f 269/188/306 281/196/306 280/194/306
f 283/197/307 265/188/307 271/191/307
f 270/203/308 272/207/308 267/200/308
f 281/205/309 266/200/309 279/207/309
f 274/191/310 280/194/310 286/197/310
f 273/200/311 288/205/311 284/207/311
f 287/205/312 278/200/312 285/207/312
f 289/208/313 290/209/313 291/210/313
f 292/209/314 293/208/314 294/210/314
f 295/211/315 296/212/315 297/213/315
f 298/211/316 299/213/316 300/212/316
f 301/214/317 302/215/317 303/216/317
f 304/214/318 305/216/318 306/215/318
f 307/217/319 308/218/319 309/219/319
f 310/217/320 311/219/320 312/218/320
f 295/211/321 291/210/321 296/212/321
f 292/220/322 291/221/322 290/222/322
f 293/208/323 300/212/323 294/210/323
f 297/222/324 300/223/324 299/220/324
f 307/217/325 297/213/325 308/218/325
f 298/211/326 312/218/326 299/213/326
f 311/224/327 308/225/327 312/226/327
f 301/214/328 309/219/328 302/215/328
f 304/214/329 311/219/329 310/217/329
f 305/226/330 302/227/330 306/224/330
f 301/214/331 290/209/331 289/208/331
f 293/208/332 305/216/332 304/214/332
f 307/217/333 289/208/333 295/211/333
f 294/220/334 296/225/334 291/222/334
f 305/226/335 290/222/335 303/225/335
f 298/211/336 304/214/336 310/217/336
f 299/220/337 308/225/337 297/222/337
f 309/225/338 306/220/338 302/222/338
f 313/228/339 314/229/339 315/230/339
f 316/229/340 317/228/340 318/230/340
f 319/231/341 320/232/341 321/233/341
f 322/231/342 323/233/342 324/232/342
f 325/234/343 326/235/343 327/236/343
f 328/234/344 329/236/344 330/235/344
f 331/237/345 332/238/345 333/239/345
f 334/237/346 335/239/346 336/238/346
f 319/231/347 315/230/347 320/232/347
f 316/240/348 315/241/348 314/242/348
f 317/228/349 324/232/349 318/230/349
f 323/240/350 320/241/350 324/243/350
f 331/237/351 321/233/351 332/238/351
f 322/231/352 336/238/352 323/233/352
f 335/244/353 332/245/353 336/246/353
f 331/237/354 326/235/354 325/234/354
f 334/237/355 330/235/355 335/239/355
f 327/245/356 330/244/356 329/246/356
f 325/234/357 314/229/357 313/228/357
f 317/228/358 329/236/358 328/234/358
f 331/237/359 313/228/359 319/231/359
f 318/240/360 320/245/360 315/242/360
f 329/246/361 314/242/361 327/245/361
f 334/237/362 317/228/362 328/234/362
f 323/240/363 332/245/363 321/242/363
f 335/246/364 326/242/364 333/245/364
f 337/247/365 338/248/365 339/249/365
f 340/248/366 341/247/366 342/249/366
f 343/250/367 344/251/367 345/252/367
f 346/250/368 347/252/368 348/251/368
f 349/253/369 350/254/369 351/255/369
f 352/253/370 353/255/370 354/254/370
f 355/256/371 356/257/371 357/258/371
f 358/256/372 359/258/372 360/257/372
f 343/250/373 339/249/373 344/251/373
f 338/259/374 342/260/374 339/261/374
f 346/250/375 342/249/375 341/247/375
f 345/259/376 348/260/376 347/262/376
f 343/250/377 356/257/377 355/256/377
f 358/256/378 347/252/378 346/250/378
f 357/263/379 360/264/379 359/265/379
f 349/253/380 357/258/380 350/254/380
f 358/256/381 354/254/381 359/258/381
f 353/264/382 350/263/382 354/265/382
f 337/247/383 351/255/383 338/248/383
f 352/253/384 340/248/384 353/255/384
f 355/256/385 337/247/385 343/250/385
f 342/262/386 344/266/386 339/259/386
f 351/266/387 340/262/387 338/259/387
f 358/256/388 341/247/388 352/253/388
f 347/262/389 356/266/389 345/259/389
f 359/264/390 350/259/390 357/266/390
f 361/267/391 362/268/391 363/269/391
f 364/268/392 365/267/392 366/269/392
f 367/270/393 368/271/393 369/272/393
f 370/270/394 371/272/394 372/271/394
f 373/273/395 374/274/395 375/275/395
f 376/273/396 377/275/396 378/274/396
f 379/276/397 380/277/397 381/278/397
f 382/276/398 383/278/398 384/277/398
f 367/270/399 363/269/399 368/271/399
f 364/279/400 363/280/400 362/281/400
f 370/270/401 366/269/401 365/267/401
f 371/279/402 368/280/402 372/282/402
f 379/276/403 369/272/403 380/277/403
f 370/270/404 384/277/404 371/272/404
f 381/283/405 384/284/405 383/285/405
f 379/276/406 374/274/406 373/273/406
f 376/273/407 383/278/407 382/276/407
f 375/286/408 378/285/408 377/284/408
f 373/273/409 362/268/409 361/267/409
f 376/273/410 364/268/410 377/275/410
f 367/270/411 373/273/411 361/267/411
f 366/279/412 368/286/412 363/281/412
f 377/284/413 362/281/413 375/286/413
f 370/270/414 376/273/414 382/276/414
f 369/281/415 384/284/415 380/286/415
f 381/286/416 378/279/416 374/281/416
f 385/287/417 386/288/417 387/289/417
f 388/288/418 389/287/418 390/289/418
f 391/290/419 392/291/419 393/292/419
f 394/290/420 395/292/420 396/291/420
f 397/293/421 398/294/421 399/295/421
f 400/293/422 401/295/422 402/294/422
f 403/296/423 404/297/423 405/298/423
f 406/296/424 407/298/424 408/297/424
f 391/290/425 387/289/425 392/291/425
f 388/299/426 387/300/426 386/301/426
f 394/290/427 390/289/427 389/287/427
f 395/299/428 392/300/428 396/302/428
f 391/290/429 404/297/429 403/296/429
f 406/296/430 395/292/430 394/290/430
f 407/303/431 404/304/431 408/305/431
f 397/293/432 405/298/432 398/294/432
f 406/296/433 402/294/433 407/298/433
f 399/304/434 402/303/434 401/305/434
f 397/293/435 386/288/435 385/287/435
f 400/293/436 388/288/436 401/295/436
f 403/296/437 385/287/437 391/290/437
f 387/301/438 396/305/438 392/304/438
f 401/305/439 386/301/439 399/304/439
f 394/290/440 400/293/440 406/296/440
f 395/299/441 404/304/441 393/301/441
f 407/305/442 398/301/442 405/304/442
f 127/72/656 121/69/656 123/71/656
f 124/81/657 126/84/657 123/82/657
f 130/72/658 132/73/658 126/71/658
f 129/83/142 128/82/142 132/84/142
f 139/78/143 127/72/143 129/74/143
f 130/72/144 142/78/144 144/79/144
f 141/85/659 140/88/659 144/86/659
f 139/78/146 141/80/146 134/76/146
f 142/78/147 136/75/147 138/76/147
f 135/88/148 134/85/148 138/87/148
f 121/69/149 133/75/149 135/77/149
f 125/69/150 124/70/150 137/77/150
f 127/72/151 139/78/151 133/75/151
f 126/81/152 132/86/152 128/88/152
f 135/88/153 137/86/153 124/81/153
f 142/78/154 130/72/154 125/69/154
f 131/81/155 144/86/155 140/88/155
f 143/86/156 138/81/156 134/83/156
f 145/89/660 147/91/660 152/93/660
f 146/101/166 148/104/166 150/102/166
f 154/92/167 156/93/167 150/91/167
f 153/101/168 152/103/168 156/102/168
f 163/98/169 151/92/169 153/94/169
f 166/98/661 168/99/661 155/94/661
f 165/105/171 164/108/171 168/106/171
f 157/95/662 163/98/662 165/100/662
f 160/95/663 162/96/663 167/100/663
f 159/108/174 158/105/174 162/107/174
f 157/95/664 159/97/664 146/90/664
f 160/95/665 149/89/665 148/90/665
f 151/92/177 163/98/177 157/95/177
f 150/104/178 156/106/178 152/108/178
f 159/108/179 161/106/179 148/104/179
f 154/92/180 149/89/180 160/95/180
f 155/104/181 168/106/181 164/108/181
f 167/106/182 162/104/182 158/101/182
f 175/112/191 169/109/191 171/111/191
f 170/121/666 172/124/666 174/122/666
f 173/109/667 178/112/667 180/113/667
f 177/121/194 176/123/194 180/122/194
f 187/118/668 175/112/668 177/114/668
f 190/118/669 192/119/669 179/114/669
f 189/125/197 188/128/197 192/126/197
f 181/115/198 187/118/198 189/120/198
f 190/118/199 184/115/199 186/116/199
f 183/128/200 182/125/200 186/127/200
f 181/115/201 183/117/201 170/110/201
f 173/109/670 172/110/670 185/117/670
f 187/118/203 181/115/203 169/109/203
f 174/124/204 180/126/204 176/128/204
f 185/126/205 172/124/205 170/121/205
f 178/112/206 173/109/206 184/115/206
f 177/121/207 179/124/207 192/126/207
f 189/128/208 191/126/208 186/124/208
f 193/129/671 195/131/671 200/133/671
f 196/141/218 198/144/218 195/142/218
f 202/132/672 204/133/672 198/131/672
f 201/143/673 200/142/673 204/144/673
f 199/132/674 201/134/674 212/139/674
f 202/132/222 214/138/222 216/139/222
f 215/145/675 213/393/675 212/146/675
f 205/135/224 211/138/224 213/140/224
f 208/135/225 210/136/225 215/140/225
f 207/146/676 206/393/676 210/145/676
f 205/135/677 207/137/677 194/130/677
f 197/129/678 196/130/678 209/137/678
f 211/138/229 205/135/229 193/129/229
f 195/143/230 198/141/230 204/147/230
f 209/147/231 196/141/231 194/143/231
f 202/132/232 197/129/232 208/135/232
f 203/141/233 216/147/233 212/146/233
f 213/146/234 215/147/234 210/141/234
f 223/151/243 217/148/243 219/150/243
f 218/160/244 220/163/244 222/161/244
f 221/148/679 226/151/679 228/152/679
f 225/160/680 224/162/680 228/161/680
f 223/151/247 225/153/247 236/158/247
f 226/151/681 238/157/681 240/158/681
f 239/164/249 237/167/249 236/165/249
f 229/154/250 235/157/250 237/159/250
f 232/154/251 234/155/251 239/159/251
f 233/166/252 231/165/252 230/167/252
f 217/148/253 229/154/253 231/156/253
f 232/154/254 221/148/254 220/149/254
f 235/157/255 229/154/255 217/148/255
f 219/160/256 222/163/256 228/166/256
f 233/166/257 220/163/257 218/160/257
f 226/151/258 221/148/258 232/154/258
f 225/160/259 227/163/259 240/166/259
f 239/166/260 234/163/260 230/160/260
f 241/168/682 243/170/682 248/172/682
f 242/180/270 244/183/270 246/181/270
f 250/171/683 252/172/683 246/170/683
f 249/180/684 248/182/684 252/181/684
f 247/171/685 249/173/685 260/178/685
f 262/177/274 264/178/274 251/173/274
f 261/184/275 260/187/275 264/185/275
f 253/174/686 259/177/686 261/179/686
f 262/177/687 256/174/687 258/175/687
f 255/187/278 254/184/278 258/186/278
f 253/174/279 255/176/279 242/169/279
f 256/174/688 245/168/688 244/169/688
f 259/177/281 253/174/281 241/168/281
f 246/183/282 252/185/282 248/187/282
f 257/185/283 244/183/283 242/180/283
f 250/171/284 245/168/284 256/174/284
f 251/183/285 264/185/285 260/187/285
f 263/185/286 258/183/286 254/180/286
f 265/188/689 267/190/689 272/192/689
f 266/200/296 268/203/296 270/201/296
f 274/191/690 276/192/690 270/190/690
f 273/200/298 272/202/298 276/201/298
f 271/191/299 273/193/299 284/198/299
f 274/191/691 286/197/691 288/198/691
f 285/204/301 284/207/301 288/205/301
f 283/197/692 285/199/692 278/195/692
f 280/194/693 282/195/693 287/199/693
f 279/207/304 278/204/304 282/206/304
f 265/188/694 277/194/694 279/196/694
f 269/188/695 268/189/695 281/196/695
f 283/197/307 277/194/307 265/188/307
f 270/203/308 276/205/308 272/207/308
f 281/205/309 268/203/309 266/200/309
f 274/191/310 269/188/310 280/194/310
f 273/200/311 275/203/311 288/205/311
f 287/205/312 282/203/312 278/200/312
f 295/211/321 289/208/321 291/210/321
f 292/220/322 294/223/322 291/221/322
f 293/208/323 298/211/323 300/212/323
f 297/222/324 296/221/324 300/223/324
f 307/217/325 295/211/325 297/213/325
f 298/211/696 310/217/696 312/218/696
f 311/224/327 309/227/327 308/225/327
f 301/214/697 307/217/697 309/219/697
f 304/214/329 306/215/329 311/219/329
f 305/226/330 303/225/330 302/227/330
f 301/214/698 303/216/698 290/209/698
f 293/208/699 292/209/699 305/216/699
f 307/217/333 301/214/333 289/208/333
f 294/220/334 300/226/334 296/225/334
f 305/226/335 292/220/335 290/222/335
f 298/211/336 293/208/336 304/214/336
f 299/220/337 312/226/337 308/225/337
f 309/225/338 311/226/338 306/220/338
f 319/231/700 313/228/700 315/230/700
f 316/240/701 318/243/701 315/241/701
f 317/228/349 322/231/349 324/232/349
f 323/240/702 321/242/702 320/241/702
f 331/237/703 319/231/703 321/233/703
f 322/231/704 334/237/704 336/238/704
f 335/244/353 333/394/353 332/245/353
f 331/237/354 333/239/354 326/235/354
f 334/237/705 328/234/705 330/235/705
f 327/245/356 326/394/356 330/244/356
f 325/234/706 327/236/706 314/229/706
f 317/228/707 316/229/707 329/236/707
f 331/237/359 325/234/359 313/228/359
f 318/240/360 324/246/360 320/245/360
f 329/246/361 316/240/361 314/242/361
f 334/237/362 322/231/362 317/228/362
f 323/240/363 336/246/363 332/245/363
f 335/246/364 330/240/364 326/242/364
f 343/250/373 337/247/373 339/249/373
f 338/259/374 340/262/374 342/260/374
f 346/250/375 348/251/375 342/249/375
f 345/259/376 344/261/376 348/260/376
f 343/250/708 345/252/708 356/257/708
f 358/256/378 360/257/378 347/252/378
f 357/263/379 356/266/379 360/264/379
f 349/253/709 355/256/709 357/258/709
f 358/256/710 352/253/710 354/254/710
f 353/264/382 351/266/382 350/263/382
f 337/247/383 349/253/383 351/255/383
f 352/253/711 341/247/711 340/248/711
f 355/256/385 349/253/385 337/247/385
f 342/262/386 348/264/386 344/266/386
f 351/266/387 353/264/387 340/262/387
f 358/256/388 346/250/388 341/247/388
f 347/262/389 360/264/389 356/266/389
f 359/264/390 354/262/390 350/259/390
f 367/270/712 361/267/712 363/269/712
f 364/279/400 366/282/400 363/280/400
f 370/270/401 372/271/401 366/269/401
f 371/279/402 369/281/402 368/280/402
f 379/276/403 367/270/403 369/272/403
f 370/270/713 382/276/713 384/277/713
f 381/283/714 380/286/714 384/284/714
f 379/276/406 381/278/406 374/274/406
f 376/273/715 378/274/715 383/278/715
f 375/286/716 374/283/716 378/285/716
f 373/273/717 375/275/717 362/268/717
f 376/273/410 365/267/410 364/268/410
f 367/270/411 379/276/411 373/273/411
f 366/279/412 372/284/412 368/286/412
f 377/284/413 364/279/413 362/281/413
f 370/270/414 365/267/414 376/273/414
f 369/281/415 371/279/415 384/284/415
f 381/286/416 383/284/416 378/279/416
f 391/290/425 385/287/425 387/289/425
f 388/299/718 390/302/718 387/300/718
f 394/290/427 396/291/427 390/289/427
f 395/299/719 393/301/719 392/300/719
f 391/290/720 393/292/720 404/297/720
f 406/296/721 408/297/721 395/292/721
f 407/303/722 405/395/722 404/304/722
f 397/293/432 403/296/432 405/298/432
f 406/296/433 400/293/433 402/294/433
f 399/304/434 398/395/434 402/303/434
f 397/293/435 399/295/435 386/288/435
f 400/293/723 389/287/723 388/288/723
f 403/296/437 397/293/437 385/287/437
f 387/301/438 390/299/438 396/305/438
f 401/305/439 388/299/439 386/301/439
f 394/290/440 389/287/440 400/293/440
f 395/299/441 408/305/441 404/304/441
f 407/305/442 402/299/442 398/301/442
usemtl iron
f 409/306/443 410/307/443 411/308/443
f 412/307/444 413/306/444 414/308/444
f 415/309/445 416/310/445 417/311/445
f 418/309/446 419/311/446 420/310/446
f 421/312/447 422/313/447 423/314/447
f 424/312/448 425/314/448 426/313/448
f 427/315/449 428/316/449 429/317/449
f 430/315/450 431/317/450 432/316/450
f 409/306/451 416/310/451 415/309/451
f 412/318/452 411/319/452 410/320/452
f 418/309/453 414/308/453 413/306/453
f 417/321/454 420/322/454 419/323/454
f 415/309/455 428/316/455 427/315/455
f 418/309/456 432/316/456 419/311/456
f 429/324/457 432/323/457 431/322/457
f 427/315/458 422/313/458 421/312/458
f 430/315/459 426/313/459 431/317/459
f 423/320/460 426/325/460 425/318/460
f 409/306/461 423/314/461 410/307/461
f 424/312/462 412/307/462 425/314/462
f 427/315/463 409/306/463 415/309/463
f 414/325/464 416/324/464 411/319/464
f 425/326/465 410/327/465 423/328/465
f 418/309/466 424/312/466 430/315/466
f 419/329/467 428/328/467 417/327/467
f 431/322/468 422/319/468 429/324/468
f 433/330/469 434/331/469 435/332/469
f 436/331/470 437/330/470 438/332/470
f 439/333/471 440/334/471 441/335/471
f 442/333/472 443/335/472 444/334/472
f 445/336/473 446/337/473 447/338/473
f 448/336/474 449/338/474 450/337/474
f 451/339/475 452/340/475 453/341/475
f 454/339/476 455/341/476 456/340/476
f 433/330/477 440/334/477 439/333/477
f 434/342/478 438/343/478 435/344/478
f 442/333/479 438/332/479 437/330/479
f 441/345/480 444/346/480 443/347/480
f 439/333/481 452/340/481 451/339/481
f 442/333/482 456/340/482 443/335/482
f 453/348/483 456/347/483 455/346/483
f 445/336/484 453/341/484 446/337/484
f 448/336/485 455/341/485 454/339/485
f 447/342/486 450/343/486 449/349/486
f 445/336/487 434/331/487 433/330/487
f 437/330/488 449/338/488 448/336/488
f 451/339/489 433/330/489 439/333/489
f 435/344/490 444/346/490 440/348/490
f 449/350/491 434/351/491 447/352/491
f 442/333/492 448/336/492 454/339/492
f 441/351/493 456/350/493 452/352/493
f 455/346/494 446/344/494 453/348/494
f 457/330/495 458/331/495 459/332/495
f 460/331/496 461/330/496 462/332/496
f 463/333/497 464/334/497 465/335/497
f 466/333/498 467/335/498 468/334/498
f 469/336/499 470/337/499 471/338/499
f 472/336/500 473/338/500 474/337/500
f 475/339/501 476/340/501 477/341/501
f 478/339/502 479/341/502 480/340/502
f 463/333/503 459/332/503 464/334/503
f 460/349/504 459/344/504 458/342/504
f 466/333/505 462/332/505 461/330/505
f 465/345/506 468/346/506 467/347/506
f 463/333/507 476/340/507 475/339/507
f 478/339/508 467/335/508 466/333/508
f 477/348/509 480/347/509 479/346/509
f 469/336/510 477/341/510 470/337/510
f 472/336/511 479/341/511 478/339/511
f 471/342/512 474/343/512 473/349/512
f 457/330/513 471/338/513 458/331/513
f 472/336/514 460/331/514 473/338/514
f 463/333/515 469/336/515 457/330/515
f 459/344/516 468/346/516 464/348/516
f 473/350/517 458/351/517 471/352/517
f 466/333/518 472/336/518 478/339/518
f 467/353/519 476/352/519 465/351/519
f 479/346/520 470/344/520 477/348/520
f 409/306/451 411/308/451 416/310/451
f 412/318/452 414/325/452 411/319/452
f 418/309/453 420/310/453 414/308/453
f 417/321/454 416/324/454 420/322/454
f 415/309/455 417/311/455 428/316/455
f 418/309/456 430/315/456 432/316/456
f 429/324/457 428/321/457 432/323/457
f 427/315/458 429/317/458 422/313/458
f 430/315/459 424/312/459 426/313/459
f 423/320/460 422/319/460 426/325/460
f 409/306/461 421/312/461 423/314/461
f 424/312/462 413/306/462 412/307/462
f 427/315/463 421/312/463 409/306/463
f 414/325/464 420/322/464 416/324/464
f 425/326/465 412/329/465 410/327/465
f 418/309/466 413/306/466 424/312/466
f 419/329/467 432/326/467 428/328/467
f 431/322/468 426/325/468 422/319/468
f 433/330/724 435/332/724 440/334/724
f 434/342/478 436/349/478 438/343/478
f 442/333/725 444/334/725 438/332/725
f 441/345/480 440/348/480 444/346/480
f 439/333/481 441/335/481 452/340/481
f 442/333/482 454/339/482 456/340/482
f 453/348/483 452/345/483 456/347/483
f 445/336/484 451/339/484 453/341/484
f 448/336/726 450/337/726 455/341/726
f 447/342/486 446/344/486 450/343/486
f 445/336/487 447/338/487 434/331/487
f 437/330/488 436/331/488 449/338/488
f 451/339/489 445/336/489 433/330/489
f 435/344/490 438/343/490 444/346/490
f 449/350/491 436/353/491 434/351/491
f 442/333/492 437/330/492 448/336/492
f 441/351/493 443/353/493 456/350/493
f 455/346/494 450/343/494 446/344/494
f 463/333/727 457/330/727 459/332/727
f 460/349/504 462/343/504 459/344/504
f 466/333/728 468/334/728 462/332/728
f 465/345/506 464/348/506 468/346/506
f 463/333/507 465/335/507 476/340/507
f 478/339/508 480/340/508 467/335/508
f 477/348/509 476/345/509 480/347/509
f 469/336/729 475/339/729 477/341/729
f 472/336/730 474/337/730 479/341/730
f 471/342/512 470/344/512 474/343/512
f 457/330/513 469/336/513 471/338/513
f 472/336/514 461/330/514 460/331/514
f 463/333/515 475/339/515 469/336/515
f 459/344/516 462/343/516 468/346/516
f 473/350/517 460/353/517 458/351/517
f 466/333/518 461/330/518 472/336/518
f 467/353/519 480/350/519 476/352/519
f 479/346/520 474/343/520 470/344/520
usemtl stone
f 481/354/521 482/355/521 483/356/521
f 484/355/522 485/354/522 486/356/522
f 487/357/523 488/358/523 489/359/523
f 490/357/524 491/359/524 492/358/524
f 493/360/525 494/361/525 495/362/525
f 496/360/526 497/362/526 498/361/526
f 499/363/527 500/364/527 501/365/527
f 502/363/528 503/365/528 504/364/528
f 481/354/529 488/358/529 487/357/529
f 484/366/530 483/367/530 482/368/530
f 485/354/531 492/358/531 486/356/531
f 489/368/532 492/369/532 491/366/532
f 487/357/533 500/364/533 499/363/533
f 502/363/534 491/359/534 490/357/534
f 503/370/535 500/371/535 504/372/535
f 499/363/536 494/361/536 493/360/536
f 496/360/537 503/365/537 502/363/537
f 495/371/538 498/370/538 497/372/538
f 493/360/539 482/355/539 481/354/539
f 496/360/540 484/355/540 497/362/540
f 487/357/541 493/360/541 481/354/541
f 483/373/542 492/374/542 488/375/542
f 497/372/543 482/368/543 495/371/543
f 490/357/544 496/360/544 502/363/544
f 491/366/545 500/371/545 489/368/545
f 501/375/546 498/376/546 494/373/546
f 481/354/529 483/356/529 488/358/529
f 484/366/530 486/369/530 483/367/530
f 485/354/531 490/357/531 492/358/531
f 489/368/532 488/367/532 492/369/532
f 487/357/533 489/359/533 500/364/533
f 502/363/534 504/364/534 491/359/534
f 503/370/535 501/396/535 500/371/535
f 499/363/536 501/365/536 494/361/536
f 496/360/537 498/361/537 503/365/537
f 495/371/538 494/396/538 498/370/538
f 493/360/539 495/362/539 482/355/539
f 496/360/540 485/354/540 484/355/540
f 487/357/541 499/363/541 493/360/541
f 483/373/542 486/376/542 492/374/542
f 497/372/543 484/366/543 482/368/543
f 490/357/544 485/354/544 496/360/544
f 491/366/545 504/372/545 500/371/545
f 501/375/546 503/374/546 498/376/546
