# Blender 4.5.10 LTS
# www.blender.org
mtllib kynda_smelter_orecrate.mtl
o kynda_smelter_orecrate
v 0.430000 0.180000 -0.360000
v 0.430000 0.860000 -0.360000
v 0.430000 0.180000 0.360000
v 0.430000 0.860000 0.360000
v -0.430000 0.180000 -0.360000
v -0.430000 0.860000 -0.360000
v -0.430000 0.180000 0.360000
v -0.430000 0.860000 0.360000
v 0.450000 0.245000 -0.380000
v 0.450000 0.315000 -0.380000
v 0.450000 0.245000 0.380000
v 0.450000 0.315000 0.380000
v -0.450000 0.245000 -0.380000
v -0.450000 0.315000 -0.380000
v -0.450000 0.245000 0.380000
v -0.450000 0.315000 0.380000
v 0.450000 0.705000 -0.380000
v 0.450000 0.775000 -0.380000
v 0.450000 0.705000 0.380000
v 0.450000 0.775000 0.380000
v -0.450000 0.705000 -0.380000
v -0.450000 0.775000 -0.380000
v -0.450000 0.705000 0.380000
v -0.450000 0.775000 0.380000
v 0.455000 0.170000 -0.385000
v 0.455000 0.870000 -0.385000
v 0.455000 0.170000 -0.315000
v 0.455000 0.870000 -0.315000
v 0.385000 0.170000 -0.385000
v 0.385000 0.870000 -0.385000
v 0.385000 0.170000 -0.315000
v 0.385000 0.870000 -0.315000
v 0.455000 0.170000 0.315000
v 0.455000 0.870000 0.315000
v 0.455000 0.170000 0.385000
v 0.455000 0.870000 0.385000
v 0.385000 0.170000 0.315000
v 0.385000 0.870000 0.315000
v 0.385000 0.170000 0.385000
v 0.385000 0.870000 0.385000
v -0.385000 0.170000 -0.385000
v -0.385000 0.870000 -0.385000
v -0.385000 0.170000 -0.315000
v -0.385000 0.870000 -0.315000
v -0.455000 0.170000 -0.385000
v -0.455000 0.870000 -0.385000
v -0.455000 0.170000 -0.315000
v -0.455000 0.870000 -0.315000
v -0.385000 0.170000 0.315000
v -0.385000 0.870000 0.315000
v -0.385000 0.170000 0.385000
v -0.385000 0.870000 0.385000
v -0.455000 0.170000 0.315000
v -0.455000 0.870000 0.315000
v -0.455000 0.170000 0.385000
v -0.455000 0.870000 0.385000
v -0.049818 0.735451 -0.300767
v -0.085704 0.894652 -0.303907
v 0.176747 0.786913 -0.280946
v 0.140861 0.946114 -0.284085
v -0.070141 0.735451 -0.068475
v -0.106027 0.894652 -0.071614
v 0.156424 0.786913 -0.048653
v 0.120538 0.946114 -0.051793
v -0.292998 0.711826 0.132595
v -0.316022 0.846862 0.123757
v -0.112902 0.747057 0.201728
v -0.135926 0.882094 0.192890
v -0.363274 0.711826 0.315670
v -0.386298 0.846862 0.306832
v -0.183178 0.747057 0.384803
v -0.206202 0.882094 0.375965
v 0.155797 0.724281 -0.068746
v 0.127125 0.855124 -0.072267
v 0.341323 0.765549 -0.045967
v 0.312651 0.896392 -0.049487
v 0.132469 0.724281 0.121247
v 0.103797 0.855124 0.117727
v 0.317995 0.765549 0.144027
v 0.289323 0.896392 0.140506
v 0.086554 0.752049 -0.149702
v 0.058670 0.872517 -0.151163
v 0.258416 0.791939 -0.140695
v 0.230531 0.912407 -0.142156
v 0.077309 0.752049 0.026716
v 0.049424 0.872517 0.025255
v 0.249170 0.791939 0.035723
v 0.221286 0.912407 0.034262
v -0.225181 0.714214 0.047825
v -0.239432 0.860603 0.035437
v -0.067351 0.741189 0.185025
v -0.081602 0.887578 0.172637
v -0.363518 0.714214 0.206963
v -0.377769 0.860603 0.194575
v -0.205688 0.741189 0.344163
v -0.219939 0.887578 0.331775
v -0.022606 0.748305 0.080088
v -0.025501 0.871239 0.073266
v 0.046015 0.758892 0.241749
v 0.043119 0.881827 0.234926
v -0.184559 0.748305 0.148834
v -0.187455 0.871239 0.142011
v -0.115939 0.758892 0.310494
v -0.118834 0.881827 0.303672
v -0.145409 0.726137 -0.302868
v -0.145912 0.862613 -0.306045
v -0.114909 0.730731 -0.110303
v -0.115412 0.867207 -0.113479
v -0.338028 0.726137 -0.272361
v -0.338531 0.862613 -0.275537
v -0.307528 0.730731 -0.079795
v -0.308031 0.867207 -0.082972
v 0.500000 -0.000000 -0.430000
v 0.500000 0.160000 -0.430000
v 0.500000 -0.000000 0.430000
v 0.500000 0.160000 0.430000
v -0.500000 -0.000000 -0.430000
v -0.500000 0.160000 -0.430000
v -0.500000 -0.000000 0.430000
v -0.500000 0.160000 0.430000
vn 1.0000 -0.0000 -0.0000
vn -0.0000 -0.0000 1.0000
vn -1.0000 -0.0000 -0.0000
vn -0.0000 -0.0000 -1.0000
vn -0.0000 -1.0000 -0.0000
vn -0.0000 1.0000 -0.0000
vn 0.0872 -0.0000 -0.9962
vn 0.9716 0.2207 0.0850
vn -0.0872 -0.0000 0.9962
vn -0.9716 -0.2207 -0.0850
vn 0.2199 -0.9753 0.0192
vn -0.2199 0.9753 -0.0192
vn 0.3584 -0.0000 -0.9336
vn 0.9184 0.1797 0.3525
vn -0.3584 -0.0000 0.9336
vn -0.9184 -0.1797 -0.3525
vn 0.1677 -0.9837 0.0644
vn -0.1677 0.9837 -0.0644
vn 0.1219 -0.0000 -0.9925
vn 0.9692 0.2156 0.1190
vn -0.1219 -0.0000 0.9925
vn -0.9692 -0.2156 -0.1190
vn 0.2140 -0.9765 0.0263
vn -0.2140 0.9765 -0.0263
vn 0.0523 -0.0000 -0.9986
vn 0.9728 0.2258 0.0510
vn -0.0523 -0.0000 0.9986
vn -0.9728 -0.2258 -0.0510
vn 0.2255 -0.9742 0.0118
vn -0.2255 0.9742 -0.0118
vn 0.6561 -0.0000 -0.7547
vn 0.7485 0.1279 0.6507
vn -0.6561 -0.0000 0.7547
vn -0.7485 -0.1279 -0.6507
vn 0.0966 -0.9918 0.0839
vn -0.0966 0.9918 -0.0839
vn 0.9205 -0.0000 -0.3907
vn 0.3900 0.0602 0.9188
vn -0.9205 -0.0000 0.3907
vn -0.3900 -0.0602 -0.9188
vn 0.0235 -0.9982 0.0554
vn -0.0235 0.9982 -0.0554
vn 0.9877 -0.0000 -0.1564
vn 0.1564 0.0236 0.9874
vn -0.9877 -0.0000 0.1564
vn -0.1564 -0.0236 -0.9874
vn 0.0037 -0.9997 0.0233
vn -0.0037 0.9997 -0.0233
vt 0.000000 1.069034
vt 1.000000 0.069034
vt 0.000000 0.069034
vt 1.000000 1.069034
vt 1.000000 1.000000
vt 0.000000 0.000000
vt 0.000000 1.000000
vt 1.000000 0.000000
vt -0.027778 0.267563
vt 1.027778 0.164622
vt -0.027778 0.164622
vt -0.023256 0.267563
vt 1.023256 0.164622
vt -0.023256 0.164622
vt 1.027778 0.267563
vt 1.023256 0.267563
vt 1.023256 1.027778
vt -0.023256 -0.027778
vt -0.023256 1.027778
vt 1.023256 -0.027778
vt -0.027778 0.944034
vt 1.027778 0.841093
vt -0.027778 0.841093
vt -0.023256 0.944034
vt 1.023256 0.841093
vt -0.023256 0.841093
vt 1.027778 0.944034
vt 1.023256 0.944034
vt -0.034722 1.083740
vt 0.062500 0.054328
vt -0.034722 0.054328
vt -0.029070 1.083740
vt 0.052326 0.054328
vt -0.029070 0.054328
vt 0.062500 1.083740
vt 0.052326 1.083740
vt 0.052326 0.062500
vt -0.029070 -0.034722
vt -0.029070 0.062500
vt 0.052326 -0.034722
vt 0.937500 1.083740
vt 1.034722 0.054328
vt 0.937500 0.054328
vt 1.034722 1.083740
vt 0.052326 1.034722
vt -0.029070 0.937500
vt -0.029070 1.034722
vt 0.052326 0.937500
vt 0.947674 1.083740
vt 1.029070 0.054328
vt 0.947674 0.054328
vt 1.029070 1.083740
vt 1.029070 0.062500
vt 0.947674 -0.034722
vt 0.947674 0.062500
vt 1.029070 -0.034722
vt 1.029070 1.034722
vt 0.947674 0.937500
vt 0.947674 1.034722
vt 1.029070 0.937500
vt 0.599656 1.119992
vt 0.294480 0.961553
vt 0.557928 0.885873
vt 0.109798 0.961553
vt 0.428066 1.195672
vt 0.432427 0.961553
vt 0.318111 0.961553
vt 0.623287 1.119992
vt 0.581559 0.885873
vt 0.400536 1.119992
vt 0.082267 0.885873
vt 0.404896 0.885873
vt 0.294480 0.109798
vt 0.581559 0.404896
vt 0.557928 0.082267
vt 0.336208 0.105437
vt 0.623287 0.400536
vt 0.359840 0.428066
vt 0.867468 1.049714
vt 0.631281 0.902942
vt 0.840696 0.851131
vt 0.780177 0.902942
vt 1.022173 1.101525
vt 1.034448 0.902942
vt 0.712998 0.902942
vt 0.949184 1.049714
vt 0.922412 0.851131
vt 0.926156 1.049714
vt 0.684160 0.851131
vt 0.938431 0.851131
vt 0.631281 0.780177
vt 0.922412 0.938431
vt 0.840696 0.684160
vt 0.658053 0.767902
vt 0.949184 0.926156
vt 0.739770 1.022173
vt 0.352180 1.061863
vt 0.103113 0.930135
vt 0.318840 0.869447
vt 0.436158 0.930135
vt 0.695147 1.122551
vt 0.700037 0.930135
vt 0.130239 0.930135
vt 0.379306 1.061863
vt 0.345966 0.869447
vt 0.663509 1.061863
vt 0.404519 0.869447
vt 0.668399 0.869447
vt 0.103113 0.436158
vt 0.345966 0.668399
vt 0.318840 0.404519
vt 0.136453 0.431268
vt 0.379306 0.663509
vt 0.163578 0.695147
vt 0.431780 1.087441
vt 0.199516 0.968944
vt 0.399355 0.910282
vt 0.304591 0.968944
vt 0.547586 1.146103
vt 0.549615 0.968944
vt 0.210267 0.968944
vt 0.442530 1.087441
vt 0.410106 0.910282
vt 0.535076 1.087441
vt 0.292081 0.910282
vt 0.537106 0.910282
vt 0.199516 0.304591
vt 0.410106 0.537106
vt 0.399355 0.292081
vt 0.231940 0.302561
vt 0.442530 0.535076
vt 0.242691 0.547586
vt 0.549218 1.069920
vt 0.756979 0.894312
vt 0.566424 0.854642
vt 0.960798 1.109590
vt 0.978004 0.894312
vt 0.770243 1.069920
vt 0.787449 0.854642
vt 0.578315 0.756979
vt 0.922695 0.787449
vt 0.761839 0.566424
vt 0.594886 0.739773
vt 0.939266 0.770243
vt 0.755743 0.960798
vt 0.601759 1.085562
vt 0.835762 0.920346
vt 0.611234 0.904776
vt 0.446494 0.920346
vt 0.638180 1.101132
vt 0.634812 0.920346
vt 0.931241 0.920346
vt 0.697238 1.085562
vt 0.706713 0.904776
vt 0.717971 1.085562
vt 0.526286 0.904776
vt 0.714604 0.904776
vt 0.446494 0.835762
vt 0.714604 0.706713
vt 0.526286 0.611234
vt 0.449861 0.826287
vt 0.717971 0.697238
vt 0.638180 0.921766
vt 0.074938 1.072876
vt 0.346802 0.878933
vt 0.079350 0.872176
vt 0.633615 0.878933
vt 0.858176 1.079633
vt 0.857591 0.878933
vt 0.389174 0.878933
vt 0.117310 1.072876
vt 0.121722 0.872176
vt 0.893640 1.072876
vt 0.669080 0.872176
vt 0.893055 0.872176
vt 0.633615 0.346802
vt 0.893055 0.121722
vt 0.669080 0.079350
vt 0.634200 0.342390
vt 0.893640 0.117310
vt 0.858176 0.384762
vt -0.097222 0.039622
vt 1.097222 -0.195672
vt -0.097222 -0.195672
vt -0.081395 0.039622
vt 1.081395 -0.195672
vt -0.081395 -0.195672
vt 1.097222 0.039622
vt 1.081395 0.039622
vt 1.081395 1.097222
vt -0.081395 -0.097222
vt -0.081395 1.097222
vt 1.081395 -0.097222
vt 0.336208 1.195672
vt 0.105437 1.195672
vt 0.359840 1.195672
vt 0.077907 1.119992
vt 0.318111 0.432427
vt 0.599656 0.077907
vt 0.658053 1.101525
vt 0.767902 1.101525
vt 0.739770 1.101525
vt 0.671885 1.049714
vt 0.712998 1.034448
vt 0.867468 0.671885
vt 0.136453 1.122551
vt 0.431268 1.122551
vt 0.163578 1.122551
vt 0.399630 1.061863
vt 0.130239 0.700037
vt 0.352180 0.399630
vt 0.231940 1.146103
vt 0.302561 1.146103
vt 0.242691 1.146103
vt 0.290051 1.087441
vt 0.210267 0.549615
vt 0.431780 0.290051
vt 0.739773 1.109590
vt 0.739172 0.978004
vt 0.778410 0.549218
vt 0.826287 1.101132
vt 0.449861 1.101132
vt 0.921766 1.101132
vt 0.529653 1.085562
vt 0.634812 0.931241
vt 0.529653 0.601759
vt 0.342390 1.079633
vt 0.634200 1.079633
vt 0.384762 1.079633
vt 0.669665 1.072876
vt 0.857591 0.389174
vt 0.669665 0.074938
s 0
usemtl wood
f 2/1/1 3/2/1 1/3/1
f 4/1/2 7/2/2 3/3/2
f 8/4/3 5/3/3 7/2/3
f 6/4/4 1/3/4 5/2/4
f 7/5/5 1/6/5 3/7/5
f 4/7/6 6/8/6 8/5/6
f 2/1/1 4/4/1 3/2/1
f 4/1/2 8/4/2 7/2/2
f 8/4/3 6/1/3 5/3/3
f 6/4/4 2/1/4 1/3/4
f 7/5/5 5/8/5 1/6/5
f 4/7/6 2/6/6 6/8/6
usemtl iron
f 10/9/1 11/10/1 9/11/1
f 12/12/2 15/13/2 11/14/2
f 16/15/3 13/11/3 15/10/3
f 14/16/4 9/14/4 13/13/4
f 15/17/5 9/18/5 11/19/5
f 12/19/6 14/20/6 16/17/6
f 18/21/1 19/22/1 17/23/1
f 20/24/2 23/25/2 19/26/2
f 24/27/3 21/23/3 23/22/3
f 22/28/4 17/26/4 21/25/4
f 23/17/5 17/18/5 19/19/5
f 20/19/6 22/20/6 24/17/6
f 26/29/1 27/30/1 25/31/1
f 28/32/2 31/33/2 27/34/2
f 32/35/3 29/31/3 31/30/3
f 30/36/4 25/34/4 29/33/4
f 31/37/5 25/38/5 27/39/5
f 28/39/6 30/40/6 32/37/6
f 34/41/1 35/42/1 33/43/1
f 36/32/2 39/33/2 35/34/2
f 40/44/3 37/43/3 39/42/3
f 38/36/4 33/34/4 37/33/4
f 39/45/5 33/46/5 35/47/5
f 36/47/6 38/48/6 40/45/6
f 42/29/1 43/30/1 41/31/1
f 44/49/2 47/50/2 43/51/2
f 48/35/3 45/31/3 47/30/3
f 46/52/4 41/51/4 45/50/4
f 47/53/5 41/54/5 43/55/5
f 44/55/6 46/56/6 48/53/6
f 50/41/1 51/42/1 49/43/1
f 52/49/2 55/50/2 51/51/2
f 56/44/3 53/43/3 55/42/3
f 54/52/4 49/51/4 53/50/4
f 55/57/5 49/58/5 51/59/5
f 52/59/6 54/60/6 56/57/6
f 10/9/1 12/15/1 11/10/1
f 12/12/2 16/16/2 15/13/2
f 16/15/3 14/9/3 13/11/3
f 14/16/4 10/12/4 9/14/4
f 15/17/5 13/20/5 9/18/5
f 12/19/6 10/18/6 14/20/6
f 18/21/1 20/27/1 19/22/1
f 20/24/2 24/28/2 23/25/2
f 24/27/3 22/21/3 21/23/3
f 22/28/4 18/24/4 17/26/4
f 23/17/5 21/20/5 17/18/5
f 20/19/6 18/18/6 22/20/6
f 26/29/1 28/35/1 27/30/1
f 28/32/2 32/36/2 31/33/2
f 32/35/3 30/29/3 29/31/3
f 30/36/4 26/32/4 25/34/4
f 31/37/5 29/40/5 25/38/5
f 28/39/6 26/38/6 30/40/6
f 34/41/1 36/44/1 35/42/1
f 36/32/2 40/36/2 39/33/2
f 40/44/3 38/41/3 37/43/3
f 38/36/4 34/32/4 33/34/4
f 39/45/5 37/48/5 33/46/5
f 36/47/6 34/46/6 38/48/6
f 42/29/1 44/35/1 43/30/1
f 44/49/2 48/52/2 47/50/2
f 48/35/3 46/29/3 45/31/3
f 46/52/4 42/49/4 41/51/4
f 47/53/5 45/56/5 41/54/5
f 44/55/6 42/54/6 46/56/6
f 50/41/1 52/44/1 51/42/1
f 52/49/2 56/52/2 55/50/2
f 56/44/3 54/41/3 53/43/3
f 54/52/4 50/49/4 49/51/4
f 55/57/5 53/60/5 49/58/5
f 52/59/6 50/58/6 54/60/6
usemtl ore
f 58/61/7 59/62/7 57/63/7
f 59/64/8 64/65/8 63/66/8
f 63/67/9 62/68/9 61/69/9
f 62/70/10 57/71/10 61/72/10
f 59/73/11 61/74/11 57/75/11
f 60/76/12 62/77/12 64/78/12
f 66/79/13 67/80/13 65/81/13
f 67/82/14 72/83/14 71/84/14
f 71/85/15 70/86/15 69/87/15
f 70/88/16 65/89/16 69/90/16
f 67/91/17 69/92/17 65/93/17
f 68/94/18 70/95/18 72/96/18
f 74/97/19 75/98/19 73/99/19
f 75/100/20 80/101/20 79/102/20
f 79/103/21 78/104/21 77/105/21
f 78/106/22 73/107/22 77/108/22
f 75/109/23 77/110/23 73/111/23
f 76/112/24 78/113/24 80/114/24
f 82/115/25 83/116/25 81/117/25
f 83/118/26 88/119/26 87/120/26
f 87/121/27 86/122/27 85/123/27
f 86/124/28 81/125/28 85/126/28
f 83/127/29 85/128/29 81/129/29
f 84/130/30 86/131/30 88/132/30
f 90/133/31 91/134/31 89/135/31
f 91/134/32 96/136/32 95/137/32
f 95/137/33 94/138/33 93/139/33
f 94/138/34 89/135/34 93/139/34
f 91/140/35 93/141/35 89/142/35
f 92/143/36 94/144/36 96/145/36
f 98/146/37 99/147/37 97/148/37
f 99/149/38 104/150/38 103/151/38
f 103/152/39 102/153/39 101/154/39
f 102/155/40 97/156/40 101/157/40
f 99/158/41 101/159/41 97/160/41
f 100/161/42 102/162/42 104/163/42
f 106/164/43 107/165/43 105/166/43
f 107/167/44 112/168/44 111/169/44
f 111/170/45 110/171/45 109/172/45
f 110/173/46 105/174/46 109/175/46
f 107/176/47 109/177/47 105/178/47
f 108/179/48 110/180/48 112/181/48
f 58/61/7 60/194/7 59/62/7
f 59/64/8 60/195/8 64/65/8
f 63/67/9 64/196/9 62/68/9
f 62/70/10 58/197/10 57/71/10
f 59/73/11 63/198/11 61/74/11
f 60/76/12 58/199/12 62/77/12
f 66/79/13 68/200/13 67/80/13
f 67/82/14 68/201/14 72/83/14
f 71/85/15 72/202/15 70/86/15
f 70/88/16 66/203/16 65/89/16
f 67/91/17 71/204/17 69/92/17
f 68/94/18 66/205/18 70/95/18
f 74/97/19 76/206/19 75/98/19
f 75/100/20 76/207/20 80/101/20
f 79/103/21 80/208/21 78/104/21
f 78/106/22 74/209/22 73/107/22
f 75/109/23 79/210/23 77/110/23
f 76/112/24 74/211/24 78/113/24
f 82/115/25 84/212/25 83/116/25
f 83/118/26 84/213/26 88/119/26
f 87/121/27 88/214/27 86/122/27
f 86/124/28 82/215/28 81/125/28
f 83/127/29 87/216/29 85/128/29
f 84/130/30 82/217/30 86/131/30
f 90/133/31 92/218/31 91/134/31
f 91/134/32 92/218/32 96/136/32
f 95/137/33 96/136/33 94/138/33
f 94/138/34 90/133/34 89/135/34
f 91/140/35 95/219/35 93/141/35
f 92/143/36 90/220/36 94/144/36
f 98/146/37 100/221/37 99/147/37
f 99/149/38 100/222/38 104/150/38
f 103/152/39 104/223/39 102/153/39
f 102/155/40 98/224/40 97/156/40
f 99/158/41 103/225/41 101/159/41
f 100/161/42 98/226/42 102/162/42
f 106/164/43 108/227/43 107/165/43
f 107/167/44 108/228/44 112/168/44
f 111/170/45 112/229/45 110/171/45
f 110/173/46 106/230/46 105/174/46
f 107/176/47 111/231/47 109/177/47
f 108/179/48 106/232/48 110/180/48
usemtl stone
f 114/182/1 115/183/1 113/184/1
f 116/185/2 119/186/2 115/187/2
f 120/188/3 117/184/3 119/183/3
f 118/189/4 113/187/4 117/186/4
f 119/190/5 113/191/5 115/192/5
f 116/192/6 118/193/6 120/190/6
f 114/182/1 116/188/1 115/183/1
f 116/185/2 120/189/2 119/186/2
f 120/188/3 118/182/3 117/184/3
f 118/189/4 114/185/4 113/187/4
f 119/190/5 117/193/5 113/191/5
f 116/192/6 114/191/6 118/193/6
