# Blender 4.5.10 LTS
# www.blender.org
mtllib kynda_tun_hopper.mtl
o kynda_tun_hopper
v 0.012607 0.520000 0.287363
v 0.021244 0.529671 0.296520
v 0.004805 0.529671 0.297241
v 0.024002 1.320000 0.547113
v 0.015925 1.310329 0.550711
v 0.032363 1.310329 0.549990
v -0.269403 0.520000 0.100790
v -0.275442 0.529671 0.111833
v -0.281208 0.529671 0.096422
v -0.512918 1.320000 0.191895
v -0.518836 1.310329 0.185325
v -0.513070 1.310329 0.200736
v -0.179107 0.520000 -0.225071
v -0.191476 0.529671 -0.227403
v -0.178601 0.529671 -0.237649
v -0.341003 1.320000 -0.428516
v -0.336583 1.310329 -0.436174
v -0.349458 1.310329 -0.425928
v 0.158709 0.520000 -0.239892
v 0.157104 0.529671 -0.252376
v 0.170826 0.529671 -0.243297
v 0.302167 1.320000 -0.456732
v 0.310816 1.310329 -0.454895
v 0.297093 1.310329 -0.463974
v 0.277194 0.520000 0.076810
v 0.288572 0.529671 0.071426
v 0.284178 0.529671 0.087282
v 0.527753 1.320000 0.146240
v 0.528678 1.310329 0.155033
v 0.533072 1.310329 0.139177
v 0.335087 0.000627 -0.314362
v 0.335073 0.008765 -0.316390
v 0.337148 0.008756 -0.314265
v 0.332354 0.572497 -0.311435
v 0.332290 0.580598 -0.309264
v 0.334429 0.572488 -0.309310
v 0.333334 -0.000663 -0.168578
v 0.335394 0.007467 -0.168481
v 0.333269 0.007438 -0.166407
v 0.330537 0.579308 -0.163480
v 0.330550 0.571170 -0.161452
v 0.332676 0.571198 -0.163526
v 0.189299 -0.000061 -0.316121
v 0.187160 0.008049 -0.316075
v 0.189286 0.008077 -0.318150
v 0.186502 0.579910 -0.311024
v 0.186567 0.571809 -0.313195
v 0.184442 0.571781 -0.311120
v 0.187546 -0.001351 -0.170338
v 0.187482 0.006750 -0.168166
v 0.185407 0.006759 -0.170292
v 0.184749 0.578620 -0.165240
v 0.182688 0.570491 -0.165337
v 0.184763 0.570482 -0.163212
v 0.337832 -0.000118 0.169380
v 0.337701 0.007990 0.167236
v 0.339818 0.008031 0.169317
v 0.329823 0.571686 0.164114
v 0.329727 0.579817 0.166169
v 0.331941 0.571727 0.166195
v 0.339075 0.000707 0.315173
v 0.341061 0.008856 0.315110
v 0.338979 0.008838 0.317228
v 0.330970 0.580642 0.311961
v 0.331101 0.572534 0.314106
v 0.333183 0.572552 0.311988
v 0.192052 -0.002148 0.170634
v 0.189839 0.005942 0.170607
v 0.191920 0.005959 0.168489
v 0.183947 0.577786 0.167422
v 0.184042 0.569655 0.165368
v 0.181961 0.569638 0.167485
v 0.193294 -0.001323 0.316427
v 0.193199 0.006808 0.318482
v 0.191081 0.006767 0.316400
v 0.185189 0.578611 0.313215
v 0.183203 0.570463 0.313278
v 0.185321 0.570504 0.315360
v -0.188377 -0.002355 -0.307997
v -0.188270 0.005738 -0.310195
v -0.186193 0.005742 -0.308073
v -0.182374 0.569426 -0.316990
v -0.182311 0.577571 -0.314988
v -0.180297 0.569430 -0.314867
v -0.189921 -0.000582 -0.162216
v -0.187737 0.007515 -0.162292
v -0.189859 0.007563 -0.160214
v -0.183856 0.579344 -0.169207
v -0.183963 0.571251 -0.167009
v -0.181841 0.571204 -0.169086
v -0.334161 -0.000849 -0.309560
v -0.336176 0.007291 -0.309680
v -0.334054 0.007244 -0.311757
v -0.328095 0.579077 -0.316550
v -0.328158 0.570932 -0.318552
v -0.330280 0.570980 -0.316475
v -0.335705 0.000924 -0.163779
v -0.335643 0.009069 -0.161777
v -0.337720 0.009065 -0.163899
v -0.329639 0.580850 -0.170769
v -0.331824 0.572753 -0.170694
v -0.329747 0.572757 -0.168572
v -0.186376 -0.000002 0.165907
v -0.186392 0.008122 0.163822
v -0.184308 0.008126 0.165939
v -0.188640 0.571877 0.164866
v -0.188689 0.579992 0.166981
v -0.186556 0.571881 0.166982
v -0.187503 -0.000276 0.311703
v -0.185436 0.007852 0.311734
v -0.187552 0.007840 0.313818
v -0.189816 0.579718 0.312776
v -0.189800 0.571594 0.314861
v -0.187684 0.571606 0.312778
v -0.332170 -0.000581 0.164779
v -0.334302 0.007530 0.164777
v -0.332186 0.007543 0.162694
v -0.334483 0.579413 0.165852
v -0.334435 0.571297 0.163738
v -0.336551 0.571285 0.165821
v -0.333298 -0.000856 0.310574
v -0.333346 0.007260 0.312689
v -0.335430 0.007256 0.310573
v -0.335611 0.579139 0.311648
v -0.337678 0.571010 0.311617
v -0.335595 0.571015 0.313733
v 0.166238 0.368298 -0.551707
v 0.166186 0.371872 -0.557905
v 0.170963 0.371983 -0.551759
v 0.163750 0.624566 -0.560581
v 0.163732 0.628271 -0.554460
v 0.168527 0.624678 -0.554435
v 0.167444 0.372839 -0.124052
v 0.172169 0.376525 -0.124105
v 0.167426 0.376544 -0.117931
v 0.164938 0.632813 -0.126806
v 0.164990 0.629238 -0.120608
v 0.169733 0.629219 -0.126781
v -0.164225 0.365122 -0.550741
v -0.169020 0.368716 -0.550766
v -0.164277 0.368697 -0.556939
v -0.166731 0.625096 -0.553495
v -0.166713 0.621391 -0.559616
v -0.171456 0.621410 -0.553442
v -0.163019 0.369664 -0.123087
v -0.163037 0.373369 -0.116966
v -0.167814 0.373258 -0.123112
v -0.165526 0.629637 -0.125841
v -0.170250 0.625952 -0.125788
v -0.165473 0.626063 -0.119642
v -0.024415 1.250000 0.572063
v -0.019731 1.256000 0.576156
v -0.029430 1.256000 0.575742
v -0.024415 1.350000 0.572063
v -0.029430 1.344000 0.575742
v -0.019731 1.344000 0.576156
v -0.551609 1.250000 0.153557
v -0.554054 1.256000 0.159277
v -0.556658 1.256000 0.149924
v -0.551609 1.350000 0.153557
v -0.556658 1.344000 0.149924
v -0.554054 1.344000 0.159277
v -0.316498 1.250000 -0.477159
v -0.322693 1.256000 -0.477717
v -0.314603 1.256000 -0.483084
v -0.316498 1.350000 -0.477159
v -0.314603 1.344000 -0.483084
v -0.322693 1.344000 -0.477717
v 0.356002 1.250000 -0.448458
v 0.354619 1.256000 -0.454522
v 0.362222 1.256000 -0.448486
v 0.356002 1.350000 -0.448458
v 0.362222 1.344000 -0.448486
v 0.354619 1.344000 -0.454522
v 0.536520 1.250000 0.199997
v 0.541860 1.256000 0.196807
v 0.538469 1.256000 0.205904
v 0.536520 1.350000 0.199997
v 0.538469 1.344000 0.205904
v 0.541860 1.344000 0.196807
vn 0.0312 -0.7018 0.7117
vn 0.0416 0.3177 0.9473
vn -0.6673 -0.7018 0.2496
vn -0.8881 0.3177 0.3323
vn -0.4436 -0.7018 -0.5575
vn -0.5904 0.3177 -0.7419
vn 0.3931 -0.7018 -0.5942
vn 0.5232 0.3177 -0.7908
vn 0.6866 -0.7018 0.1902
vn 0.9138 0.3177 0.2532
vn -0.3369 -0.7919 0.5093
vn -0.4369 0.6106 0.6605
vn 0.0417 -0.3091 0.9501
vn -0.8907 -0.3091 0.3332
vn -0.5884 -0.7919 -0.1631
vn -0.7632 0.6106 -0.2115
vn -0.5922 -0.3091 -0.7442
vn -0.0268 -0.7919 -0.6100
vn -0.0347 0.6106 -0.7912
vn 0.5247 -0.3091 -0.7932
vn 0.5719 -0.7919 -0.2140
vn 0.7417 0.6106 -0.2775
vn 0.9165 -0.3091 0.2540
vn 0.3802 -0.7919 0.4778
vn 0.4931 0.6106 0.6197
vn -0.0000 -1.0000 -0.0000
vn -0.5336 -0.2543 0.8066
vn 0.6022 -0.2543 0.7568
vn -0.0000 1.0000 -0.0000
vn -0.9320 -0.2543 -0.2583
vn -0.0424 -0.2543 -0.9662
vn 0.9058 -0.2543 -0.3389
vn 0.7048 -0.1705 -0.6887
vn 0.7030 0.1893 -0.6855
vn 0.6880 -0.1828 0.7023
vn 0.6863 0.1770 0.7055
vn -0.6863 -0.1770 -0.7055
vn -0.6880 0.1827 -0.7023
vn -0.7030 -0.1893 0.6855
vn -0.7047 0.1704 0.6887
vn 0.9693 -0.2458 0.0095
vn 0.7155 0.0096 -0.6985
vn 0.9669 0.2549 0.0139
vn 0.6985 -0.0029 0.7156
vn -0.0104 -0.2589 0.9658
vn -0.0129 0.2418 0.9702
vn -0.7155 -0.0096 0.6985
vn -0.9669 -0.2549 -0.0139
vn -0.9693 0.2458 -0.0095
vn -0.6985 0.0029 -0.7156
vn 0.0129 -0.2418 -0.9702
vn 0.0104 0.2589 -0.9658
vn 0.0048 -0.9999 -0.0088
vn 0.9999 0.0047 0.0121
vn 0.0120 0.0088 -0.9999
vn -0.0048 0.9999 0.0088
vn -0.0120 -0.0088 0.9999
vn -0.9999 -0.0047 -0.0121
vn 0.6921 -0.1741 -0.7005
vn 0.6870 0.1856 -0.7025
vn 0.7039 -0.1662 0.6905
vn 0.6989 0.1935 0.6886
vn -0.6989 -0.1935 -0.6886
vn -0.7039 0.1662 -0.6905
vn -0.6870 -0.1856 0.7025
vn -0.6921 0.1741 0.7005
vn 0.9715 -0.2369 -0.0069
vn 0.7010 0.0058 -0.7132
vn 0.9645 0.2638 -0.0097
vn 0.7130 0.0138 0.7010
vn 0.0117 -0.2449 0.9695
vn 0.0048 0.2558 0.9667
vn -0.7010 -0.0058 0.7131
vn -0.9645 -0.2638 0.0097
vn -0.9715 0.2369 0.0069
vn -0.7130 -0.0138 -0.7010
vn -0.0048 -0.2558 -0.9667
vn -0.0117 0.2449 -0.9695
vn 0.0140 -0.9999 0.0055
vn 0.9999 0.0139 -0.0086
vn -0.0085 -0.0057 -0.9999
vn -0.0140 0.9999 -0.0055
vn 0.0085 0.0057 0.9999
vn -0.9999 -0.0139 0.0086
vn 0.7010 -0.1955 -0.6859
vn 0.7048 0.1642 -0.6902
vn 0.6863 -0.1786 0.7051
vn 0.6900 0.1811 0.7008
vn -0.6900 -0.1811 -0.7008
vn -0.6862 0.1786 -0.7051
vn -0.7047 -0.1642 0.6902
vn -0.7010 0.1955 0.6859
vn 0.9654 -0.2604 0.0134
vn 0.7145 -0.0159 -0.6994
vn 0.9707 0.2403 0.0074
vn 0.6995 0.0013 0.7146
vn -0.0129 -0.2386 0.9710
vn -0.0076 0.2621 0.9650
vn -0.7145 0.0159 0.6994
vn -0.9707 -0.2404 -0.0074
vn -0.9654 0.2603 -0.0134
vn -0.6995 -0.0013 -0.7146
vn 0.0076 -0.2621 -0.9650
vn 0.0129 0.2386 -0.9710
vn -0.0105 -0.9999 0.0121
vn 0.9999 -0.0103 0.0107
vn 0.0106 -0.0122 -0.9999
vn 0.0105 0.9999 -0.0121
vn -0.0106 0.0122 0.9999
vn -0.9999 0.0103 -0.0107
vn 0.7016 -0.1758 -0.6905
vn 0.7002 0.1840 -0.6898
vn 0.6909 -0.1784 0.7006
vn 0.6894 0.1813 0.7013
vn -0.6895 -0.1813 -0.7013
vn -0.6909 0.1784 -0.7006
vn -0.7002 -0.1840 0.6898
vn -0.7016 0.1758 0.6905
vn 0.9691 -0.2465 0.0070
vn 0.7125 0.0041 -0.7016
vn 0.9671 0.2542 0.0080
vn 0.7016 0.0015 0.7126
vn -0.0065 -0.2522 0.9677
vn -0.0085 0.2486 0.9686
vn -0.7126 -0.0041 0.7016
vn -0.9671 -0.2542 -0.0080
vn -0.9691 0.2465 -0.0070
vn -0.7016 -0.0015 -0.7126
vn 0.0085 -0.2486 -0.9686
vn 0.0065 0.2522 -0.9677
vn 0.0040 -1.0000 -0.0019
vn 1.0000 0.0040 0.0077
vn 0.0077 0.0019 -1.0000
vn -0.0040 1.0000 0.0019
vn -0.0077 -0.0019 1.0000
vn -1.0000 -0.0040 -0.0077
vn 0.5556 -0.7182 -0.4189
vn 0.5417 0.7198 -0.4341
vn 0.5580 -0.7092 0.4309
vn 0.5441 0.7288 0.4157
vn -0.5441 -0.7288 -0.4157
vn -0.5580 0.7092 -0.4309
vn -0.5417 -0.7198 0.4341
vn -0.5556 0.7182 0.4189
vn 0.6151 -0.7884 0.0066
vn 0.7895 0.0011 -0.6137
vn 0.5998 0.8001 -0.0102
vn 0.7930 0.0141 0.6091
vn 0.0097 -0.8554 0.5178
vn -0.0069 0.8662 0.4996
vn -0.7895 -0.0011 0.6137
vn -0.5998 -0.8001 0.0102
vn -0.6151 0.7884 -0.0066
vn -0.7930 -0.0141 -0.6091
vn 0.0069 -0.8662 -0.4996
vn -0.0097 0.8554 -0.5178
vn 0.0096 -0.9999 0.0106
vn 0.9999 0.0096 -0.0029
vn -0.0028 -0.0106 -0.9999
vn -0.0096 0.9999 -0.0106
vn 0.0028 0.0106 0.9999
vn -0.9999 -0.0096 0.0029
vn -0.0358 -0.5440 0.8383
vn -0.0358 0.5440 0.8383
vn -0.8084 -0.5440 0.2250
vn -0.8084 0.5440 0.2250
vn -0.4638 -0.5440 -0.6993
vn -0.4638 0.5440 -0.6993
vn 0.5217 -0.5440 -0.6572
vn 0.5217 0.5440 -0.6572
vn 0.7862 -0.5440 0.2931
vn 0.7863 0.5440 0.2931
vn -0.4396 -0.7071 0.5538
vn -0.4396 0.7071 0.5538
vn -0.0426 -0.0000 0.9991
vn -0.9634 -0.0000 0.2682
vn -0.6626 -0.7071 -0.2470
vn -0.6626 0.7071 -0.2470
vn -0.5528 -0.0000 -0.8333
vn 0.0301 -0.7071 -0.7065
vn 0.0302 0.7071 -0.7065
vn 0.6217 -0.0000 -0.7832
vn 0.6812 -0.7071 -0.1896
vn 0.6812 0.7071 -0.1896
vn 0.9370 -0.0000 0.3493
vn 0.3909 -0.7071 0.5893
vn 0.3908 0.7071 0.5893
vn -0.6217 -0.0000 0.7832
vn 0.5528 -0.0000 0.8333
vn -0.9370 -0.0000 -0.3493
vn 0.0426 -0.0000 -0.9991
vn 0.9634 -0.0000 -0.2682
vn -0.4370 0.6106 0.6605
vn -0.5885 -0.7919 -0.1631
vn 0.7156 0.0096 -0.6985
vn -0.7156 -0.0096 0.6985
vn -0.7010 -0.0058 0.7132
vn 0.9707 0.2404 0.0074
vn -0.9654 0.2604 -0.0134
vn -0.7016 -0.0015 -0.7125
vn 0.5997 0.8001 -0.0102
vn 0.0302 -0.7071 -0.7065
vn 0.0301 0.7071 -0.7065
vn 0.3909 0.7071 0.5893
vt 1.759292 0.300000
vt 1.777939 0.304836
vt 1.740645 0.304836
vt 1.759292 0.700000
vt 1.750091 0.695164
vt 1.768492 0.695164
vt 0.958343 0.300000
vt 0.977543 0.304836
vt 0.945749 0.304836
vt 1.005479 0.700000
vt 0.997255 0.695164
vt 1.014330 0.695164
vt 0.301666 0.300000
vt 0.316637 0.304836
vt 0.289569 0.304836
vt 0.323799 0.700000
vt 0.316189 0.695164
vt 0.331727 0.695164
vt 3.216918 0.300000
vt 3.229015 0.304836
vt 3.201946 0.304836
vt 3.194784 0.700000
vt 3.186856 0.695164
vt 3.202395 0.695164
vt 2.560241 0.300000
vt 2.572834 0.304836
vt 2.541041 0.304836
vt 2.513104 0.700000
vt 2.504254 0.695164
vt 2.521328 0.695164
vt 3.820250 0.300000
vt 3.808152 0.304836
vt 3.834772 0.695164
vt 3.842383 0.700000
vt 0.427100 0.210000
vt 0.427100 0.218120
vt 0.425000 0.218120
vt 0.427100 0.781880
vt 0.427100 0.790000
vt 0.425000 0.781880
vt 0.572900 0.210000
vt 0.575000 0.218120
vt 0.572900 0.218120
vt 0.572900 0.790000
vt 0.572900 0.781880
vt 0.575000 0.781880
vt 0.572900 0.572900
vt 0.427100 0.427100
vt 0.427100 0.572900
vt 0.572900 0.427100
vt 0.334760 0.286160
vt 0.334760 0.280000
vt 0.330000 0.286160
vt 0.334760 0.713840
vt 0.330000 0.713840
vt 0.334760 0.720000
vt 0.665240 0.286160
vt 0.670000 0.286160
vt 0.665240 0.280000
vt 0.665240 0.713840
vt 0.665240 0.720000
vt 0.670000 0.713840
vt 0.280000 0.626360
vt 0.286160 0.373640
vt 0.280000 0.373640
vt 0.720000 0.373640
vt 0.713840 0.626360
vt 0.720000 0.626360
vt 0.713840 0.373640
vt 0.286160 0.626360
vt 0.665240 0.626360
vt 0.334760 0.373640
vt 0.665240 0.373640
vt 0.334760 0.626360
vt 1.822124 0.475000
vt 1.827508 0.478000
vt 1.816739 0.478000
vt 1.822124 0.525000
vt 1.816739 0.522000
vt 1.827508 0.522000
vt 1.040225 0.475000
vt 1.045583 0.478000
vt 1.035609 0.478000
vt 1.040225 0.525000
vt 1.035609 0.522000
vt 1.045583 0.522000
vt 0.334773 0.475000
vt 0.339491 0.478000
vt 0.330430 0.478000
vt 0.334773 0.525000
vt 0.330430 0.522000
vt 0.339491 0.522000
vt 3.309475 0.475000
vt 3.313817 0.478000
vt 3.304757 0.478000
vt 3.309475 0.525000
vt 3.304757 0.522000
vt 3.313817 0.522000
vt 2.604022 0.475000
vt 2.608639 0.478000
vt 2.598665 0.478000
vt 2.604022 0.525000
vt 2.598665 0.522000
vt 2.608639 0.522000
vt 3.979020 0.475000
vt 3.974677 0.478000
vt 3.979020 0.525000
vt 3.974677 0.522000
s 0
usemtl wood
f 1/1/1 2/2/1 3/3/1
f 4/4/2 5/5/2 6/6/2
f 7/7/3 8/8/3 9/9/3
f 10/10/4 11/11/4 12/12/4
f 13/13/5 14/14/5 15/15/5
f 16/16/6 17/17/6 18/18/6
f 19/19/7 20/20/7 21/21/7
f 22/22/8 23/23/8 24/24/8
f 25/25/9 26/26/9 27/27/9
f 28/28/10 29/29/10 30/30/10
f 8/8/11 1/1/11 3/3/11
f 5/5/12 10/10/12 12/12/12
f 6/6/13 3/3/13 2/2/13
f 9/9/14 12/12/14 11/11/14
f 9/9/15 13/13/15 7/7/15
f 18/18/16 10/10/16 16/16/16
f 15/15/17 18/18/17 17/17/17
f 20/20/18 13/31/18 15/32/18
f 17/33/19 22/22/19 24/24/19
f 21/21/20 24/24/20 23/23/20
f 26/26/21 19/19/21 21/21/21
f 23/23/22 28/28/22 30/30/22
f 27/27/23 30/30/23 29/29/23
f 2/2/24 25/25/24 27/27/24
f 29/29/25 4/4/25 6/6/25
f 7/7/26 13/31/26 19/19/26
f 5/5/27 8/8/27 3/3/27
f 27/27/28 6/6/28 2/2/28
f 4/4/29 22/22/29 16/34/29
f 11/11/30 14/14/30 9/9/30
f 17/33/31 20/20/31 15/32/31
f 23/23/32 26/26/32 21/21/32
f 31/35/33 32/36/33 33/37/33
f 34/38/34 35/39/34 36/40/34
f 37/35/35 38/37/35 39/36/35
f 40/39/36 41/38/36 42/40/36
f 43/41/37 44/42/37 45/43/37
f 46/44/38 47/45/38 48/46/38
f 49/41/39 50/43/39 51/42/39
f 52/44/40 53/46/40 54/45/40
f 31/35/41 38/43/41 37/41/41
f 34/38/42 33/37/42 32/36/42
f 40/44/43 36/38/43 35/39/43
f 41/38/44 38/37/44 42/40/44
f 37/35/45 50/43/45 49/41/45
f 40/39/46 54/45/46 41/38/46
f 51/42/47 54/45/47 53/46/47
f 43/35/48 51/43/48 44/36/48
f 52/44/49 48/38/49 53/45/49
f 47/45/50 44/42/50 48/46/50
f 43/41/51 32/36/51 31/35/51
f 35/39/52 47/45/52 46/44/52
f 49/47/53 31/48/53 37/49/53
f 36/38/54 38/43/54 33/36/54
f 47/45/55 32/36/55 45/43/55
f 52/47/56 35/48/56 46/50/56
f 41/38/57 50/43/57 39/36/57
f 53/45/58 44/36/58 51/43/58
f 55/35/59 56/36/59 57/37/59
f 58/38/60 59/39/60 60/40/60
f 61/35/61 62/37/61 63/36/61
f 64/39/62 65/38/62 66/40/62
f 67/41/63 68/42/63 69/43/63
f 70/44/64 71/45/64 72/46/64
f 73/41/65 74/43/65 75/42/65
f 76/44/66 77/46/66 78/45/66
f 55/35/67 62/43/67 61/41/67
f 58/38/68 57/37/68 56/36/68
f 64/44/69 60/38/69 59/39/69
f 65/38/70 62/37/70 66/40/70
f 61/35/71 74/43/71 73/41/71
f 64/39/72 78/45/72 65/38/72
f 75/42/73 78/45/73 77/46/73
f 67/35/74 75/43/74 68/36/74
f 76/44/75 72/38/75 77/45/75
f 69/43/76 72/46/76 71/45/76
f 55/35/77 69/43/77 56/36/77
f 70/44/78 58/38/78 71/45/78
f 61/49/79 67/50/79 55/48/79
f 60/38/80 62/43/80 57/36/80
f 71/45/81 56/36/81 69/43/81
f 64/49/82 70/50/82 76/47/82
f 65/38/83 74/43/83 63/36/83
f 77/45/84 68/36/84 75/43/84
f 79/35/85 80/36/85 81/37/85
f 82/38/86 83/39/86 84/40/86
f 85/35/87 86/37/87 87/36/87
f 88/39/88 89/38/88 90/40/88
f 91/41/89 92/42/89 93/43/89
f 94/44/90 95/45/90 96/46/90
f 97/41/91 98/43/91 99/42/91
f 100/44/92 101/46/92 102/45/92
f 79/35/93 86/43/93 85/41/93
f 80/36/94 84/40/94 81/37/94
f 83/39/95 90/45/95 84/38/95
f 89/38/96 86/37/96 90/40/96
f 97/41/97 87/36/97 98/43/97
f 100/44/98 89/38/98 88/39/98
f 101/46/99 98/43/99 102/45/99
f 97/41/100 92/36/100 91/35/100
f 100/44/101 96/38/101 101/45/101
f 93/43/102 96/46/102 95/45/102
f 91/41/103 80/36/103 79/35/103
f 83/39/104 95/45/104 94/44/104
f 97/47/105 79/48/105 85/49/105
f 84/38/106 86/43/106 81/36/106
f 95/45/107 80/36/107 93/43/107
f 100/47/108 83/48/108 94/50/108
f 89/38/109 98/43/109 87/36/109
f 101/45/110 92/36/110 99/43/110
f 103/35/111 104/36/111 105/37/111
f 106/38/112 107/39/112 108/40/112
f 109/35/113 110/37/113 111/36/113
f 112/39/114 113/38/114 114/40/114
f 115/41/115 116/42/115 117/43/115
f 118/44/116 119/45/116 120/46/116
f 121/41/117 122/43/117 123/42/117
f 124/44/118 125/46/118 126/45/118
f 109/41/119 105/36/119 110/43/119
f 104/36/120 108/40/120 105/37/120
f 107/39/121 114/45/121 108/38/121
f 111/36/122 114/40/122 113/38/122
f 109/35/123 122/43/123 121/41/123
f 124/44/124 113/38/124 112/39/124
f 123/42/125 126/45/125 125/46/125
f 121/41/126 116/36/126 115/35/126
f 118/39/127 125/45/127 124/44/127
f 119/45/128 116/42/128 120/46/128
f 115/41/129 104/36/129 103/35/129
f 118/44/130 106/38/130 119/45/130
f 121/47/131 103/48/131 109/49/131
f 108/38/132 110/43/132 105/36/132
f 119/45/133 104/36/133 117/43/133
f 124/47/134 107/48/134 118/50/134
f 113/38/135 122/43/135 111/36/135
f 125/45/136 116/36/136 123/43/136
f 127/51/137 128/52/137 129/53/137
f 130/52/138 131/51/138 132/53/138
f 133/54/139 134/55/139 135/56/139
f 136/54/140 137/56/140 138/55/140
f 139/57/141 140/58/141 141/59/141
f 142/57/142 143/59/142 144/58/142
f 145/60/143 146/61/143 147/62/143
f 148/60/144 149/62/144 150/61/144
f 127/51/145 134/55/145 133/54/145
f 130/63/146 129/64/146 128/65/146
f 136/54/147 132/53/147 131/51/147
f 135/66/148 138/67/148 137/68/148
f 145/60/149 135/56/149 146/61/149
f 148/60/150 137/56/150 136/54/150
f 147/69/151 150/68/151 149/67/151
f 139/57/152 147/62/152 140/58/152
f 142/57/153 149/62/153 148/60/153
f 141/65/154 144/70/154 143/63/154
f 127/51/155 141/59/155 128/52/155
f 142/57/156 130/52/156 143/59/156
f 145/60/157 127/51/157 133/54/157
f 132/70/158 134/69/158 129/64/158
f 143/71/159 128/72/159 141/73/159
f 136/54/160 142/57/160 148/60/160
f 137/74/161 146/73/161 135/72/161
f 147/69/162 144/70/162 140/64/162
f 151/75/163 152/76/163 153/77/163
f 154/78/164 155/79/164 156/80/164
f 157/81/165 158/82/165 159/83/165
f 160/84/166 161/85/166 162/86/166
f 163/87/167 164/88/167 165/89/167
f 166/90/168 167/91/168 168/92/168
f 169/93/169 170/94/169 171/95/169
f 172/96/170 173/97/170 174/98/170
f 175/99/171 176/100/171 177/101/171
f 178/102/172 179/103/172 180/104/172
f 153/77/173 157/81/173 151/75/173
f 155/79/174 160/84/174 162/86/174
f 156/80/175 153/77/175 152/76/175
f 159/83/176 162/86/176 161/85/176
f 164/88/177 157/81/177 159/83/177
f 161/85/178 166/90/178 168/92/178
f 165/89/179 168/92/179 167/91/179
f 170/94/180 163/105/180 165/106/180
f 174/98/181 166/107/181 172/96/181
f 171/95/182 174/98/182 173/97/182
f 176/100/183 169/93/183 171/95/183
f 173/97/184 178/102/184 180/104/184
f 179/103/185 176/100/185 180/104/185
f 152/76/186 175/99/186 177/101/186
f 156/80/187 178/102/187 154/78/187
f 157/81/26 169/93/26 175/99/26
f 155/79/188 158/82/188 153/77/188
f 179/103/189 152/76/189 177/101/189
f 154/78/29 178/102/29 172/96/29
f 161/85/190 164/88/190 159/83/190
f 167/108/191 170/94/191 165/106/191
f 173/97/192 176/100/192 171/95/192
f 8/8/11 7/7/11 1/1/11
f 5/5/193 4/4/193 10/10/193
f 6/6/13 5/5/13 3/3/13
f 9/9/14 8/8/14 12/12/14
f 9/9/194 14/14/194 13/13/194
f 18/18/16 11/11/16 10/10/16
f 15/15/17 14/14/17 18/18/17
f 20/20/18 19/19/18 13/31/18
f 17/33/19 16/34/19 22/22/19
f 21/21/20 20/20/20 24/24/20
f 26/26/21 25/25/21 19/19/21
f 23/23/22 22/22/22 28/28/22
f 27/27/23 26/26/23 30/30/23
f 2/2/24 1/1/24 25/25/24
f 29/29/25 28/28/25 4/4/25
f 25/25/26 1/1/26 19/19/26
f 1/1/26 7/7/26 19/19/26
f 5/5/27 12/12/27 8/8/27
f 27/27/28 29/29/28 6/6/28
f 16/34/29 10/10/29 4/4/29
f 4/4/29 28/28/29 22/22/29
f 11/11/30 18/18/30 14/14/30
f 17/33/31 24/24/31 20/20/31
f 23/23/32 30/30/32 26/26/32
f 31/35/41 33/36/41 38/43/41
f 34/38/195 36/40/195 33/37/195
f 40/44/43 42/45/43 36/38/43
f 41/38/44 39/36/44 38/37/44
f 37/35/45 39/36/45 50/43/45
f 40/39/46 52/44/46 54/45/46
f 51/42/196 50/43/196 54/45/196
f 43/35/48 49/41/48 51/43/48
f 52/44/49 46/39/49 48/38/49
f 47/45/50 45/43/50 44/42/50
f 43/41/51 45/43/51 32/36/51
f 35/39/52 34/38/52 47/45/52
f 49/47/53 43/50/53 31/48/53
f 36/38/54 42/45/54 38/43/54
f 47/45/55 34/38/55 32/36/55
f 52/47/56 40/49/56 35/48/56
f 41/38/57 54/45/57 50/43/57
f 53/45/58 48/38/58 44/36/58
f 55/35/67 57/36/67 62/43/67
f 58/38/68 60/40/68 57/37/68
f 64/44/69 66/45/69 60/38/69
f 65/38/70 63/36/70 62/37/70
f 61/35/71 63/36/71 74/43/71
f 64/39/72 76/44/72 78/45/72
f 75/42/197 74/43/197 78/45/197
f 67/35/74 73/41/74 75/43/74
f 76/44/75 70/39/75 72/38/75
f 69/43/76 68/42/76 72/46/76
f 55/35/77 67/41/77 69/43/77
f 70/44/78 59/39/78 58/38/78
f 61/49/79 73/47/79 67/50/79
f 60/38/80 66/45/80 62/43/80
f 71/45/81 58/38/81 56/36/81
f 64/49/82 59/48/82 70/50/82
f 65/38/83 78/45/83 74/43/83
f 77/45/84 72/38/84 68/36/84
f 79/35/93 81/36/93 86/43/93
f 80/36/94 82/38/94 84/40/94
f 83/39/198 88/44/198 90/45/198
f 89/38/96 87/36/96 86/37/96
f 97/41/97 85/35/97 87/36/97
f 100/44/98 102/45/98 89/38/98
f 101/46/99 99/42/99 98/43/99
f 97/41/100 99/43/100 92/36/100
f 100/44/199 94/39/199 96/38/199
f 93/43/102 92/42/102 96/46/102
f 91/41/103 93/43/103 80/36/103
f 83/39/104 82/38/104 95/45/104
f 97/47/105 91/50/105 79/48/105
f 84/38/106 90/45/106 86/43/106
f 95/45/107 82/38/107 80/36/107
f 100/47/108 88/49/108 83/48/108
f 89/38/109 102/45/109 98/43/109
f 101/45/110 96/38/110 92/36/110
f 109/41/119 103/35/119 105/36/119
f 104/36/120 106/38/120 108/40/120
f 107/39/121 112/44/121 114/45/121
f 111/36/122 110/37/122 114/40/122
f 109/35/123 111/36/123 122/43/123
f 124/44/124 126/45/124 113/38/124
f 123/42/125 122/43/125 126/45/125
f 121/41/126 123/43/126 116/36/126
f 118/39/127 120/38/127 125/45/127
f 119/45/200 117/43/200 116/42/200
f 115/41/129 117/43/129 104/36/129
f 118/44/130 107/39/130 106/38/130
f 121/47/131 115/50/131 103/48/131
f 108/38/132 114/45/132 110/43/132
f 119/45/133 106/38/133 104/36/133
f 124/47/134 112/49/134 107/48/134
f 113/38/135 126/45/135 122/43/135
f 125/45/136 120/38/136 116/36/136
f 127/51/145 129/53/145 134/55/145
f 130/63/146 132/70/146 129/64/146
f 136/54/201 138/55/201 132/53/201
f 135/66/148 134/69/148 138/67/148
f 145/60/149 133/54/149 135/56/149
f 148/60/150 150/61/150 137/56/150
f 147/69/151 146/66/151 150/68/151
f 139/57/152 145/60/152 147/62/152
f 142/57/153 144/58/153 149/62/153
f 141/65/154 140/64/154 144/70/154
f 127/51/155 139/57/155 141/59/155
f 142/57/156 131/51/156 130/52/156
f 145/60/157 139/57/157 127/51/157
f 132/70/158 138/67/158 134/69/158
f 143/71/159 130/74/159 128/72/159
f 136/54/160 131/51/160 142/57/160
f 137/74/161 150/71/161 146/73/161
f 147/69/162 149/67/162 144/70/162
f 153/77/173 158/82/173 157/81/173
f 155/79/174 154/78/174 160/84/174
f 156/80/175 155/79/175 153/77/175
f 159/83/176 158/82/176 162/86/176
f 164/88/177 163/87/177 157/81/177
f 161/85/178 160/84/178 166/90/178
f 165/89/179 164/88/179 168/92/179
f 170/94/202 169/93/202 163/105/202
f 174/98/203 167/108/203 166/107/203
f 171/95/182 170/94/182 174/98/182
f 176/100/183 175/99/183 169/93/183
f 173/97/184 172/96/184 178/102/184
f 179/103/185 177/101/185 176/100/185
f 152/76/186 151/75/186 175/99/186
f 156/80/204 179/103/204 178/102/204
f 175/99/26 151/75/26 157/81/26
f 157/81/26 163/105/26 169/93/26
f 155/79/188 162/86/188 158/82/188
f 179/103/189 156/80/189 152/76/189
f 166/107/29 160/84/29 172/96/29
f 160/84/29 154/78/29 172/96/29
f 161/85/190 168/92/190 164/88/190
f 167/108/191 174/98/191 170/94/191
f 173/97/192 180/104/192 176/100/192
