# Blender 4.5.10 LTS
# www.blender.org
mtllib kynda_rack_barrow.mtl
o kynda_rack_barrow
v 0.474535 0.327483 -0.324376
v 0.474844 0.328654 -0.332294
v 0.486956 0.325054 -0.324431
v 0.502576 0.422231 -0.332169
v 0.502949 0.423361 -0.324247
v 0.514688 0.418631 -0.324306
v 0.477092 0.325860 0.319777
v 0.489513 0.323431 0.319721
v 0.477464 0.326991 0.327698
v 0.505506 0.421738 0.319906
v 0.505196 0.420568 0.327824
v 0.517245 0.417008 0.319847
v -0.508018 0.618660 -0.319742
v -0.519757 0.623391 -0.319683
v -0.507708 0.619830 -0.327660
v -0.479604 0.714538 -0.319613
v -0.479976 0.713408 -0.327534
v -0.492025 0.716968 -0.319558
v -0.505461 0.617037 0.324411
v -0.505088 0.618168 0.332333
v -0.517200 0.621768 0.324470
v -0.477047 0.712915 0.324540
v -0.489468 0.715345 0.324595
v -0.477356 0.711745 0.332458
v 0.453938 0.378653 -0.352521
v 0.454897 0.382125 -0.353596
v 0.467041 0.378715 -0.352685
v 0.534023 0.664031 -0.353158
v 0.535009 0.667491 -0.352073
v 0.546166 0.660621 -0.352247
v 0.455036 0.378209 -0.264689
v 0.468139 0.378270 -0.264853
v 0.456023 0.381669 -0.263604
v 0.536108 0.667046 -0.264241
v 0.535148 0.663575 -0.263166
v 0.547265 0.660176 -0.264415
v -0.532650 0.655549 -0.338781
v -0.543807 0.662419 -0.338607
v -0.531691 0.659020 -0.339855
v -0.451579 0.944386 -0.338332
v -0.452565 0.940926 -0.339418
v -0.464682 0.944325 -0.338169
v -0.531551 0.655104 -0.250949
v -0.530565 0.658565 -0.249864
v -0.542709 0.661975 -0.250775
v -0.450480 0.943942 -0.250500
v -0.463583 0.943880 -0.250337
v -0.451439 0.940470 -0.249426
v 0.453910 0.380925 0.259000
v 0.454873 0.384403 0.257949
v 0.467013 0.381072 0.259155
v 0.532129 0.666817 0.260285
v 0.533066 0.670284 0.261394
v 0.544269 0.663486 0.261491
v 0.452881 0.380480 0.346833
v 0.465984 0.380627 0.346987
v 0.453818 0.383947 0.347942
v 0.532037 0.669839 0.349227
v 0.531074 0.666361 0.350278
v 0.543240 0.663041 0.349324
v -0.534501 0.651395 0.248790
v -0.545704 0.658192 0.248693
v -0.533538 0.654872 0.247739
v -0.455345 0.940754 0.251184
v -0.456282 0.937287 0.250075
v -0.468448 0.940607 0.251029
v -0.535530 0.650950 0.336623
v -0.534593 0.654416 0.337732
v -0.546733 0.657747 0.336526
v -0.456374 0.940309 0.339016
v -0.469477 0.940162 0.338862
v -0.457337 0.936831 0.340068
v 0.506712 0.462572 -0.301980
v 0.507554 0.465591 -0.309414
v 0.508615 0.465270 -0.301978
v 0.577961 0.709388 -0.308929
v 0.578850 0.712364 -0.301483
v 0.579022 0.709067 -0.301493
v 0.508611 0.460820 0.303134
v 0.510514 0.463518 0.303136
v 0.509500 0.463796 0.310580
v 0.580749 0.710612 0.303631
v 0.579907 0.707593 0.311065
v 0.580921 0.707315 0.303621
v 0.422321 0.486943 -0.301645
v 0.422149 0.490240 -0.301635
v 0.423164 0.489962 -0.309079
v 0.494460 0.736735 -0.301148
v 0.493571 0.733759 -0.308594
v 0.492556 0.734037 -0.301150
v 0.424220 0.485191 0.303470
v 0.425109 0.488167 0.310916
v 0.424048 0.488489 0.303480
v 0.496358 0.734983 0.303966
v 0.494455 0.732285 0.303965
v 0.495516 0.731964 0.311400
v -0.337873 0.784668 -0.377470
v -0.337649 0.785482 -0.378306
v -0.330489 0.783431 -0.377535
v -0.318871 0.851170 -0.377994
v -0.318634 0.851971 -0.377150
v -0.311711 0.849119 -0.377223
v -0.337352 0.784195 -0.309153
v -0.329968 0.782958 -0.309218
v -0.337115 0.784996 -0.308310
v -0.318112 0.851498 -0.308834
v -0.318337 0.850685 -0.307998
v -0.311190 0.848646 -0.308906
v -0.919670 0.950955 -0.371879
v -0.926592 0.953807 -0.371807
v -0.919445 0.951768 -0.372715
v -0.900431 1.018258 -0.371559
v -0.900668 1.017456 -0.372403
v -0.907815 1.019495 -0.371495
v -0.919149 0.950481 -0.303563
v -0.918911 0.951283 -0.302719
v -0.926071 0.953334 -0.303490
v -0.899909 1.017785 -0.303243
v -0.907293 1.019022 -0.303178
v -0.900134 1.016971 -0.302407
v -0.338613 0.787032 0.300581
v -0.338398 0.787847 0.299744
v -0.331220 0.785853 0.300497
v -0.320127 0.853678 0.299938
v -0.319894 0.854483 0.300780
v -0.312950 0.851684 0.300691
v -0.337897 0.786632 0.368896
v -0.330504 0.785452 0.368812
v -0.337663 0.787436 0.369739
v -0.319177 0.854082 0.369095
v -0.319393 0.853268 0.369933
v -0.312233 0.851283 0.369006
v -0.921660 0.948827 0.307646
v -0.928604 0.951625 0.307735
v -0.921444 0.949641 0.306809
v -0.902940 1.016277 0.307845
v -0.903173 1.015472 0.307003
v -0.910333 1.017457 0.307930
v -0.920943 0.948426 0.375961
v -0.920710 0.949231 0.376804
v -0.927887 0.951225 0.376051
v -0.902223 1.015876 0.376160
v -0.909617 1.017056 0.376245
v -0.902439 1.015062 0.376998
v 0.301031 0.371297 -0.301222
v 0.300917 0.379784 -0.309249
v 0.299893 0.371035 -0.381214
v 0.300006 0.379575 -0.373243
v 0.184387 0.328838 -0.299424
v 0.186318 0.338069 -0.307483
v 0.174802 0.328405 -0.307287
v 0.183250 0.328575 -0.379415
v 0.173892 0.328195 -0.371280
v 0.185408 0.337859 -0.371476
v 0.122326 0.221326 -0.298189
v 0.113829 0.222778 -0.306073
v 0.121189 0.221064 -0.378180
v 0.112919 0.222569 -0.370066
v 0.143887 0.099069 -0.298094
v 0.136402 0.094786 -0.305974
v 0.142750 0.098806 -0.378085
v 0.135492 0.094576 -0.369968
v 0.238981 0.019271 -0.299185
v 0.235957 0.011245 -0.307116
v 0.237844 0.019009 -0.379176
v 0.235046 0.011035 -0.371109
v 0.363113 0.019271 -0.300950
v 0.365911 0.011245 -0.308964
v 0.361975 0.019009 -0.380942
v 0.365001 0.011035 -0.372958
v 0.458200 0.099069 -0.302564
v 0.465458 0.094786 -0.310654
v 0.457062 0.098806 -0.382556
v 0.464548 0.094576 -0.374648
v 0.479749 0.221326 -0.303272
v 0.488019 0.222778 -0.311395
v 0.478611 0.221064 -0.383264
v 0.487108 0.222569 -0.375389
v 0.417678 0.328838 -0.302742
v 0.427036 0.328405 -0.310875
v 0.415519 0.338069 -0.310742
v 0.416541 0.328575 -0.382734
v 0.414609 0.337859 -0.374736
v 0.426126 0.328195 -0.374868
v 0.300774 0.371774 0.380096
v 0.300714 0.380313 0.372124
v 0.300169 0.372031 0.300099
v 0.300230 0.380518 0.308126
v 0.184119 0.329315 0.380843
v 0.186104 0.338598 0.372857
v 0.174587 0.328934 0.372914
v 0.183514 0.329571 0.300846
v 0.174102 0.329139 0.308916
v 0.185620 0.338803 0.308859
v 0.122046 0.221803 0.380968
v 0.113602 0.223307 0.373037
v 0.121441 0.222060 0.300971
v 0.113118 0.223512 0.309039
v 0.143600 0.099546 0.380414
v 0.136167 0.095315 0.372456
v 0.142995 0.099802 0.300417
v 0.135683 0.095520 0.308458
v 0.238695 0.019748 0.379439
v 0.235723 0.011774 0.371436
v 0.238090 0.020004 0.299442
v 0.235239 0.011979 0.307438
v 0.362836 0.019748 0.378500
v 0.365687 0.011774 0.370452
v 0.362231 0.020004 0.298503
v 0.365203 0.011979 0.306455
v 0.457935 0.099546 0.378036
v 0.465247 0.095315 0.369967
v 0.457330 0.099802 0.298039
v 0.464763 0.095520 0.305969
v 0.479495 0.221803 0.378264
v 0.487818 0.223307 0.370206
v 0.478890 0.222060 0.298267
v 0.487334 0.223512 0.306208
v 0.417427 0.329315 0.379078
v 0.426839 0.328934 0.371005
v 0.415322 0.338598 0.371123
v 0.416822 0.329571 0.299081
v 0.414838 0.338803 0.307125
v 0.426355 0.329139 0.307007
v 0.665123 0.224831 -0.051493
v 0.665123 0.225002 -0.052092
v 0.669564 0.224970 -0.051507
v 0.665305 0.252665 -0.051967
v 0.665308 0.252830 -0.051366
v 0.669747 0.252633 -0.051381
v 0.665436 0.224380 0.047305
v 0.669877 0.224519 0.047292
v 0.665439 0.224545 0.047906
v 0.665621 0.252379 0.047432
v 0.665622 0.252209 0.048032
v 0.670060 0.252182 0.047418
v -0.065977 0.229650 -0.049157
v -0.070416 0.229847 -0.049142
v -0.065978 0.229821 -0.049756
v -0.065792 0.257649 -0.049030
v -0.065795 0.257484 -0.049631
v -0.070233 0.257510 -0.049017
v -0.065664 0.229199 0.049641
v -0.065661 0.229365 0.050242
v -0.070103 0.229397 0.049656
v -0.065479 0.257198 0.049769
v -0.069920 0.257060 0.049782
v -0.065479 0.257028 0.050368
v 0.257744 0.737403 0.297566
v 0.265005 0.742723 0.289556
v 0.250590 0.742723 0.289459
v 0.261502 0.731257 -0.262387
v 0.254242 0.736752 -0.254496
v 0.268657 0.736752 -0.254399
v 0.182593 0.701215 0.297459
v 0.182913 0.710134 0.289363
v 0.173924 0.698864 0.289426
v 0.186351 0.695068 -0.262495
v 0.177575 0.692893 -0.254529
v 0.186564 0.704163 -0.254592
v 0.164026 0.619901 0.298227
v 0.157204 0.625636 0.290118
v 0.160411 0.611583 0.290293
v 0.167785 0.613754 -0.261727
v 0.164062 0.605612 -0.253662
v 0.160856 0.619665 -0.253837
v 0.216026 0.554692 0.299292
v 0.207239 0.552859 0.291252
v 0.220226 0.546604 0.291408
v 0.219785 0.548545 -0.260662
v 0.223878 0.540634 -0.252547
v 0.210891 0.546888 -0.252703
v 0.299434 0.554692 0.299852
v 0.295340 0.546604 0.291912
v 0.308328 0.552859 0.291931
v 0.303193 0.548545 -0.260102
v 0.311980 0.546888 -0.252024
v 0.298992 0.540634 -0.252043
v 0.351444 0.619901 0.299485
v 0.355165 0.611583 0.291601
v 0.358374 0.625636 0.291468
v 0.355202 0.613754 -0.260469
v 0.362025 0.619665 -0.252487
v 0.358817 0.605612 -0.252354
v 0.332889 0.701215 0.298468
v 0.341665 0.698864 0.290552
v 0.332678 0.710134 0.290368
v 0.336648 0.695068 -0.261486
v 0.336330 0.704163 -0.253587
v 0.345316 0.692893 -0.253403
v 0.012342 0.732268 0.298614
v 0.019127 0.737754 0.290304
v 0.004731 0.737754 0.291053
v -0.016777 0.737783 -0.260601
v -0.023556 0.743113 -0.252184
v -0.009160 0.743113 -0.252934
v -0.062725 0.696079 0.302166
v -0.062871 0.705165 0.294252
v -0.071852 0.693895 0.294609
v -0.091844 0.701595 -0.257049
v -0.100140 0.699253 -0.248629
v -0.091158 0.710523 -0.248986
v -0.081302 0.614764 0.302331
v -0.088582 0.620666 0.294757
v -0.085386 0.606613 0.294452
v -0.110421 0.620280 -0.256884
v -0.113673 0.611971 -0.248785
v -0.116869 0.626024 -0.248480
v -0.029400 0.549554 0.298985
v -0.038645 0.547888 0.291439
v -0.025678 0.541633 0.290702
v -0.058519 0.555070 -0.260230
v -0.053966 0.546991 -0.252535
v -0.066933 0.553246 -0.251798
v 0.053898 0.549554 0.294648
v 0.049336 0.541633 0.286796
v 0.062309 0.547888 0.286182
v 0.024778 0.555070 -0.264567
v 0.034022 0.553246 -0.257055
v 0.021048 0.546991 -0.256441
v 0.105866 0.614764 0.292585
v 0.109110 0.606613 0.284325
v 0.112320 0.620666 0.284296
v 0.076747 0.620280 -0.266630
v 0.084033 0.626024 -0.258942
v 0.080822 0.611971 -0.258913
v 0.087372 0.696079 0.294350
v 0.095666 0.693895 0.285886
v 0.086696 0.705165 0.286464
v 0.058253 0.701595 -0.264865
v 0.058408 0.710523 -0.256774
v 0.067378 0.699253 -0.257352
v -0.249070 0.730963 0.300557
v -0.242122 0.736458 0.292387
v -0.256530 0.736458 0.292853
v -0.267157 0.737047 -0.259118
v -0.274101 0.742368 -0.250831
v -0.259693 0.742368 -0.251297
v -0.324193 0.694775 0.302591
v -0.324183 0.703869 0.294685
v -0.333170 0.692599 0.294853
v -0.342281 0.700858 -0.257084
v -0.350741 0.698508 -0.248831
v -0.341753 0.709778 -0.248999
v -0.342773 0.613461 0.302308
v -0.349902 0.619371 0.294598
v -0.346701 0.605318 0.294341
v -0.360860 0.619544 -0.257367
v -0.364271 0.611227 -0.249343
v -0.367472 0.625280 -0.249087
v -0.290817 0.548252 0.299920
v -0.299912 0.546593 0.292191
v -0.286933 0.540339 0.291703
v -0.308904 0.554335 -0.259755
v -0.304504 0.546249 -0.251981
v -0.317483 0.552503 -0.251493
v -0.207450 0.548252 0.297225
v -0.211857 0.540339 0.289277
v -0.198873 0.546593 0.288926
v -0.225538 0.554335 -0.262449
v -0.216444 0.552503 -0.254758
v -0.229427 0.546249 -0.254407
v -0.155449 0.613461 0.296254
v -0.152044 0.605318 0.288051
v -0.148833 0.619371 0.288099
v -0.173536 0.619544 -0.263421
v -0.166403 0.625280 -0.255585
v -0.169614 0.611227 -0.255634
v -0.173971 0.694775 0.297736
v -0.165513 0.692599 0.289435
v -0.174492 0.703869 0.289847
v -0.192059 0.700858 -0.261939
v -0.192063 0.709778 -0.253837
v -0.183083 0.698508 -0.254250
v 0.243391 0.920013 0.350097
v 0.251005 0.925330 0.342419
v 0.236608 0.925330 0.341675
v 0.272287 0.913665 -0.209121
v 0.264679 0.919164 -0.201565
v 0.279075 0.919164 -0.200821
v 0.168319 0.883825 0.346629
v 0.169003 0.892741 0.338551
v 0.160020 0.881471 0.338215
v 0.197216 0.877477 -0.212589
v 0.188091 0.875305 -0.205025
v 0.197073 0.886574 -0.204689
v 0.149736 0.802511 0.346591
v 0.143285 0.808243 0.338182
v 0.146480 0.794190 0.338506
v 0.178632 0.796163 -0.212627
v 0.174551 0.788024 -0.204734
v 0.171355 0.802077 -0.205059
v 0.201634 0.737302 0.350013
v 0.193217 0.735466 0.341588
v 0.206184 0.729212 0.342329
v 0.230530 0.730955 -0.209205
v 0.234255 0.723046 -0.200911
v 0.221288 0.729300 -0.201652
v 0.284933 0.737302 0.354317
v 0.281200 0.729212 0.346205
v 0.294174 0.735466 0.346805
v 0.313830 0.730955 -0.204901
v 0.322245 0.729300 -0.196436
v 0.309270 0.723046 -0.197035
v 0.336908 0.802511 0.356263
v 0.340980 0.794190 0.348557
v 0.344191 0.808243 0.348563
v 0.365804 0.796163 -0.202955
v 0.372262 0.802077 -0.194677
v 0.369050 0.788024 -0.194684
v 0.318419 0.883825 0.354385
v 0.327542 0.881471 0.346872
v 0.318572 0.892741 0.346280
v 0.347316 0.877477 -0.204833
v 0.346643 0.886574 -0.196960
v 0.355612 0.875305 -0.196369
v 0.010787 0.916101 0.348494
v 0.017610 0.921460 0.340133
v 0.003211 0.921460 0.340808
v -0.015446 0.912675 -0.210880
v -0.022273 0.918132 -0.202585
v -0.007873 0.918132 -0.203260
v -0.064270 0.879911 0.352236
v -0.064383 0.888869 0.344177
v -0.073357 0.877599 0.344667
v -0.090503 0.876485 -0.207139
v -0.098841 0.874271 -0.198725
v -0.089866 0.885541 -0.199215
v -0.082787 0.798594 0.353602
v -0.090033 0.804368 0.345898
v -0.086825 0.790314 0.345834
v -0.109020 0.795167 -0.205772
v -0.112308 0.786986 -0.197559
v -0.115516 0.801040 -0.197495
v -0.030820 0.733382 0.351565
v -0.040025 0.731588 0.343999
v -0.027050 0.725333 0.343428
v -0.057053 0.729956 -0.207810
v -0.052533 0.722005 -0.199964
v -0.065508 0.728259 -0.199394
v 0.052499 0.733382 0.347657
v 0.047983 0.725333 0.339910
v 0.060955 0.731588 0.339263
v 0.026266 0.729956 -0.211717
v 0.035472 0.728259 -0.204130
v 0.022500 0.722005 -0.203483
v 0.104428 0.798594 0.344823
v 0.107721 0.790314 0.336710
v 0.110921 0.804368 0.336474
v 0.078196 0.795167 -0.214552
v 0.085438 0.801040 -0.206919
v 0.082238 0.786986 -0.206683
v 0.085865 0.879911 0.345195
v 0.094203 0.877599 0.336809
v 0.085222 0.888869 0.337162
v 0.059632 0.876485 -0.214180
v 0.059739 0.885541 -0.206231
v 0.068720 0.874271 -0.206583
v -0.264992 0.912915 0.350122
v -0.257697 0.918349 0.342219
v -0.272112 0.918349 0.342060
v -0.258823 0.914692 -0.209842
v -0.266119 0.920075 -0.201904
v -0.251704 0.920075 -0.201745
v -0.340137 0.876725 0.349179
v -0.339783 0.885757 0.341211
v -0.348770 0.874487 0.341076
v -0.333968 0.878502 -0.210784
v -0.342777 0.876214 -0.202888
v -0.333791 0.887484 -0.202753
v -0.358693 0.795406 0.348716
v -0.365482 0.801255 0.340660
v -0.362273 0.787201 0.340650
v -0.352524 0.797184 -0.211247
v -0.356281 0.788928 -0.203314
v -0.359489 0.802982 -0.203305
v -0.306689 0.730193 0.349082
v -0.315440 0.728474 0.340980
v -0.302453 0.722219 0.341103
v -0.300520 0.731971 -0.210881
v -0.296460 0.723946 -0.202861
v -0.309448 0.730200 -0.202984
v -0.223283 0.730193 0.350001
v -0.227342 0.722219 0.341931
v -0.214355 0.728474 0.342094
v -0.217114 0.731971 -0.209962
v -0.208362 0.730200 -0.201871
v -0.221349 0.723946 -0.202034
v -0.171283 0.795406 0.350781
v -0.167526 0.787201 0.342796
v -0.164319 0.801255 0.342876
v -0.165114 0.797184 -0.209182
v -0.158326 0.802982 -0.201088
v -0.161533 0.788928 -0.201168
v -0.189846 0.876725 0.350835
v -0.181036 0.874487 0.342924
v -0.190023 0.885757 0.342861
v -0.183676 0.878502 -0.209129
v -0.184031 0.887484 -0.201103
v -0.175043 0.876214 -0.201040
vn -0.1904 -0.9700 -0.1508
vn 0.3690 0.9175 -0.1483
vn -0.1892 -0.9708 0.1475
vn 0.3702 0.9168 0.1500
vn -0.3702 -0.9168 -0.1500
vn 0.1892 0.9708 -0.1475
vn -0.3690 -0.9175 0.1483
vn 0.1904 0.9701 0.1508
vn -0.1920 -0.9814 -0.0017
vn 0.5069 -0.1491 -0.8490
vn 0.3738 0.9275 0.0009
vn 0.5136 -0.1533 0.8442
vn -0.2803 -0.9483 0.1485
vn 0.2815 0.9476 0.1511
vn -0.5069 0.1491 0.8490
vn -0.3738 -0.9275 -0.0009
vn 0.1920 0.9814 0.0017
vn -0.5136 0.1533 -0.8442
vn -0.2815 -0.9476 -0.1511
vn 0.2803 0.9483 -0.1485
vn -0.2841 -0.9588 -0.0013
vn 0.9588 -0.2841 -0.0045
vn -0.0040 0.0025 -1.0000
vn 0.2841 0.9588 0.0013
vn 0.0040 -0.0025 1.0000
vn -0.9588 0.2841 0.0045
vn -0.0106 -0.2930 -0.9560
vn 0.1442 0.2585 -0.9552
vn 0.0133 -0.3027 0.9530
vn 0.1681 0.2488 0.9539
vn -0.1681 -0.2488 -0.9539
vn -0.0133 0.3027 -0.9530
vn -0.1442 -0.2585 0.9552
vn 0.0106 0.2930 0.9561
vn 0.0046 -1.0000 -0.0051
vn 0.0698 -0.0180 -0.9974
vn 0.5243 0.8515 -0.0022
vn 0.0947 -0.0281 0.9951
vn -0.0657 -0.2815 0.9573
vn 0.0896 0.2718 0.9582
vn -0.0698 0.0180 0.9974
vn -0.5243 -0.8515 0.0022
vn -0.0047 1.0000 0.0051
vn -0.0947 0.0281 -0.9951
vn -0.0896 -0.2718 -0.9582
vn 0.0657 0.2815 -0.9573
vn -0.2702 -0.9628 -0.0015
vn 0.9627 -0.2702 -0.0134
vn -0.0125 0.0051 -0.9999
vn 0.2702 0.9628 0.0015
vn 0.0125 -0.0051 0.9999
vn -0.9627 0.2702 0.0134
vn 0.0145 -0.2930 -0.9560
vn 0.1657 0.2595 -0.9514
vn -0.0078 -0.3027 0.9531
vn 0.1433 0.2498 0.9576
vn -0.1433 -0.2498 -0.9576
vn 0.0078 0.3027 -0.9531
vn -0.1657 -0.2595 0.9514
vn -0.0145 0.2930 0.9560
vn 0.0113 -0.9999 -0.0049
vn 0.0940 -0.0175 -0.9954
vn 0.5187 0.8549 0.0104
vn 0.0707 -0.0276 0.9971
vn -0.0870 -0.2820 0.9555
vn 0.0646 0.2723 0.9600
vn -0.0940 0.0175 0.9954
vn -0.5187 -0.8549 -0.0104
vn -0.0113 0.9999 0.0049
vn -0.0707 0.0276 -0.9971
vn -0.0646 -0.2723 -0.9600
vn 0.0870 0.2820 -0.9555
vn -0.2639 -0.9645 -0.0080
vn 0.9645 -0.2639 0.0100
vn 0.0117 0.0051 -0.9999
vn 0.2639 0.9645 0.0080
vn -0.0117 -0.0051 0.9999
vn -0.9645 0.2639 -0.0100
vn 0.8091 -0.5707 -0.1401
vn 0.9889 0.0520 -0.1389
vn 0.8100 -0.5715 0.1317
vn 0.9898 0.0512 0.1329
vn -0.9898 -0.0512 -0.1329
vn -0.8100 0.5715 -0.1317
vn -0.9889 -0.0520 0.1389
vn -0.8091 0.5707 0.1401
vn 0.8171 -0.5765 -0.0042
vn 0.9503 -0.2742 -0.1474
vn 0.9986 0.0521 -0.0030
vn 0.9512 -0.2750 0.1399
vn -0.2547 -0.8871 0.3850
vn 0.2571 0.8849 0.3885
vn -0.9503 0.2742 0.1474
vn -0.9986 -0.0521 0.0030
vn -0.8171 0.5765 0.0042
vn -0.9512 0.2750 -0.1399
vn -0.2571 -0.8849 -0.3885
vn 0.2547 0.8871 -0.3850
vn -0.2775 -0.9607 -0.0019
vn 0.9607 -0.2774 -0.0038
vn -0.0031 0.0029 -1.0000
vn 0.2775 0.9607 0.0019
vn 0.0031 -0.0029 1.0000
vn -0.9607 0.2774 0.0038
vn -0.1226 -0.6947 -0.7088
vn 0.2649 0.6607 -0.7024
vn -0.1118 -0.7045 0.7008
vn 0.2756 0.6510 0.7073
vn -0.2756 -0.6510 -0.7073
vn 0.1119 0.7045 -0.7009
vn -0.2649 -0.6607 0.7023
vn 0.1226 0.6947 0.7088
vn -0.1652 -0.9862 -0.0056
vn 0.1003 -0.0239 -0.9947
vn 0.3810 0.9246 0.0035
vn 0.1154 -0.0377 0.9926
vn -0.1890 -0.6848 0.7038
vn 0.1997 0.6750 0.7103
vn -0.1003 0.0239 0.9947
vn -0.3810 -0.9246 -0.0035
vn 0.1652 0.9862 0.0056
vn -0.1154 0.0377 -0.9926
vn -0.1997 -0.6750 -0.7103
vn 0.1890 0.6848 -0.7038
vn -0.2748 -0.9615 -0.0046
vn 0.9615 -0.2748 -0.0092
vn -0.0076 0.0069 -0.9999
vn 0.2748 0.9615 0.0046
vn 0.0076 -0.0069 0.9999
vn -0.9615 0.2748 0.0092
vn -0.1192 -0.6964 -0.7077
vn 0.2578 0.6620 -0.7037
vn -0.1044 -0.7046 0.7019
vn 0.2726 0.6537 0.7059
vn -0.2726 -0.6537 -0.7059
vn 0.1044 0.7046 -0.7019
vn -0.2578 -0.6620 0.7038
vn 0.1192 0.6964 0.7077
vn -0.1576 -0.9875 -0.0041
vn 0.0977 -0.0242 -0.9949
vn 0.3738 0.9275 0.0015
vn 0.1185 -0.0358 0.9923
vn -0.1817 -0.6855 0.7051
vn 0.1965 0.6772 0.7091
vn -0.0977 0.0242 0.9949
vn -0.3739 -0.9275 -0.0015
vn 0.1576 0.9875 0.0041
vn -0.1185 0.0358 -0.9923
vn -0.1965 -0.6772 -0.7091
vn 0.1817 0.6855 -0.7051
vn -0.2674 -0.9636 -0.0028
vn 0.9635 -0.2674 -0.0117
vn -0.0105 0.0059 -0.9999
vn 0.2674 0.9636 0.0028
vn 0.0105 -0.0059 0.9999
vn -0.9635 0.2674 0.0117
vn -0.5128 0.6230 0.5908
vn -0.5294 0.6191 -0.5800
vn 0.5294 0.6229 0.5760
vn 0.5127 0.6191 -0.5948
vn -0.2318 0.6668 0.7083
vn -0.2519 0.6621 -0.7058
vn -0.6428 0.7660 0.0066
vn -0.6023 0.3559 0.7146
vn -0.6224 0.3512 -0.6995
vn -0.6862 -0.1205 0.7173
vn -0.7063 -0.1251 -0.6967
vn -0.4444 -0.5394 0.7153
vn -0.4645 -0.5440 -0.6988
vn 0.0101 -0.7048 0.7094
vn -0.0100 -0.7094 -0.7047
vn 0.4646 -0.5394 0.7023
vn 0.4444 -0.5440 -0.7117
vn 0.7064 -0.1205 0.6975
vn 0.6862 -0.1251 -0.7165
vn 0.6223 0.3559 0.6972
vn 0.6022 0.3512 -0.7169
vn 0.6427 0.7660 -0.0117
vn 0.2518 0.6668 0.7014
vn 0.2317 0.6621 -0.7126
vn 0.0142 0.0033 0.9999
vn -0.3420 0.9397 0.0018
vn 0.3419 0.9397 -0.0079
vn -0.0142 -0.0033 -0.9999
vn -0.8660 0.5000 0.0107
vn -0.9847 -0.1736 0.0146
vn -0.6427 -0.7660 0.0117
vn -0.0000 -1.0000 0.0033
vn 0.6428 -0.7660 -0.0066
vn 0.9847 -0.1736 -0.0134
vn 0.8659 0.5000 -0.0140
vn -0.5167 0.6192 0.5914
vn -0.5255 0.6229 -0.5795
vn 0.5255 0.6192 0.5835
vn 0.5167 0.6229 -0.5874
vn -0.2365 0.6622 0.7110
vn -0.2472 0.6667 -0.7031
vn -0.6428 0.7660 0.0073
vn -0.6070 0.3513 0.7128
vn -0.6177 0.3558 -0.7013
vn -0.6910 -0.1251 0.7120
vn -0.7017 -0.1205 -0.7022
vn -0.4492 -0.5439 0.7088
vn -0.4599 -0.5394 -0.7054
vn 0.0053 -0.7094 0.7048
vn -0.0054 -0.7048 -0.7093
vn 0.4598 -0.5439 0.7019
vn 0.4491 -0.5394 -0.7123
vn 0.7017 -0.1250 0.7014
vn 0.6910 -0.1205 -0.7127
vn 0.6177 0.3513 0.7036
vn 0.6070 0.3558 -0.7106
vn 0.6428 0.7660 -0.0024
vn 0.2472 0.6622 0.7074
vn 0.2365 0.6667 -0.7068
vn 0.0076 -0.0032 1.0000
vn -0.3420 0.9397 0.0056
vn 0.3420 0.9397 0.0004
vn -0.0076 0.0032 -1.0000
vn -0.8660 0.5000 0.0082
vn -0.9848 -0.1736 0.0069
vn -0.6428 -0.7660 0.0024
vn -0.0000 -1.0000 -0.0032
vn 0.6428 -0.7660 -0.0073
vn 0.9848 -0.1736 -0.0080
vn 0.8660 0.5000 -0.0049
vn 0.0292 -0.9613 -0.2739
vn 0.0419 0.9633 -0.2652
vn 0.0309 -0.9638 0.2649
vn 0.0436 0.9608 0.2737
vn -0.0436 -0.9608 -0.2737
vn -0.0309 0.9638 -0.2650
vn -0.0419 -0.9633 0.2652
vn -0.0292 0.9613 0.2739
vn 0.0312 -0.9995 -0.0047
vn 0.1308 0.0036 -0.9914
vn 0.0444 0.9990 0.0044
vn 0.1371 -0.0054 0.9905
vn -0.0055 -0.9642 0.2652
vn 0.0072 0.9617 0.2740
vn -0.1308 -0.0036 0.9914
vn -0.0444 -0.9990 -0.0044
vn -0.0312 0.9995 0.0047
vn -0.1371 0.0054 -0.9905
vn -0.0072 -0.9617 -0.2740
vn 0.0055 0.9642 -0.2652
vn -0.0066 -1.0000 -0.0045
vn 1.0000 -0.0066 -0.0032
vn -0.0032 0.0046 -1.0000
vn 0.0066 1.0000 0.0045
vn 0.0032 -0.0046 1.0000
vn -1.0000 0.0066 0.0032
vn -0.0037 0.8346 0.5509
vn 0.0038 0.8223 -0.5691
vn -0.6514 0.5226 0.5500
vn -0.6439 0.5104 -0.5700
vn -0.8114 -0.1782 0.5566
vn -0.8039 -0.1905 -0.5634
vn -0.3633 -0.7402 0.5658
vn -0.3557 -0.7525 -0.5542
vn 0.3556 -0.7402 0.5706
vn 0.3632 -0.7525 -0.5494
vn 0.8039 -0.1782 0.5675
vn 0.8114 -0.1905 -0.5526
vn 0.6440 0.5227 0.5587
vn 0.6515 0.5104 -0.5613
vn -0.3115 0.6448 0.6980
vn -0.3020 0.6293 -0.7161
vn 0.0001 0.9999 -0.0110
vn -0.7818 0.6234 -0.0121
vn -0.6941 0.1651 0.7007
vn -0.6846 0.1496 -0.7134
vn -0.9749 -0.2225 -0.0041
vn -0.5576 -0.4331 0.7082
vn -0.5481 -0.4486 -0.7059
vn -0.4339 -0.9009 0.0070
vn -0.0048 -0.6993 0.7148
vn 0.0047 -0.7148 -0.6993
vn 0.4338 -0.9009 0.0128
vn 0.5480 -0.4331 0.7156
vn 0.5575 -0.4486 -0.6985
vn 0.9749 -0.2225 0.0090
vn 0.6846 0.1651 0.7100
vn 0.6941 0.1496 -0.7042
vn 0.7819 0.6234 -0.0016
vn 0.3021 0.6448 0.7021
vn 0.3116 0.6293 -0.7120
vn -0.0067 0.0110 0.9999
vn -0.4338 0.9009 -0.0128
vn 0.4339 0.9009 -0.0070
vn 0.0067 -0.0110 -0.9999
vn -0.9749 0.2225 -0.0090
vn -0.7819 -0.6235 0.0016
vn -0.0001 -0.9999 0.0110
vn 0.7818 -0.6235 0.0121
vn 0.9749 0.2225 0.0041
vn 0.0295 0.8229 0.5674
vn -0.0287 0.8339 -0.5511
vn -0.6175 0.5110 0.5980
vn -0.6757 0.5220 -0.5205
vn -0.7776 -0.1899 0.5995
vn -0.8358 -0.1788 -0.5191
vn -0.3302 -0.7519 0.5706
vn -0.3885 -0.7409 -0.5479
vn 0.3877 -0.7519 0.5332
vn 0.3295 -0.7409 -0.5853
vn 0.8356 -0.1899 0.5155
vn 0.7774 -0.1788 -0.6031
vn 0.6762 0.5110 0.5307
vn 0.6180 0.5220 -0.5879
vn -0.2693 0.6301 0.7283
vn -0.3428 0.6440 -0.6839
vn 0.0005 1.0000 0.0098
vn -0.7805 0.6235 0.0468
vn -0.6516 0.1504 0.7435
vn -0.7251 0.1643 -0.6687
vn -0.9737 -0.2225 0.0485
vn -0.5155 -0.4478 0.7305
vn -0.5891 -0.4339 -0.6817
vn -0.4338 -0.9009 0.0137
vn 0.0364 -0.7140 0.6992
vn -0.0371 -0.7001 -0.7131
vn 0.4328 -0.9009 -0.0314
vn 0.5886 -0.4478 0.6730
vn 0.5151 -0.4339 -0.7392
vn 0.9735 -0.2225 -0.0529
vn 0.7253 0.1504 0.6718
vn 0.6518 0.1643 -0.7404
vn 0.7811 0.6235 -0.0345
vn 0.3435 0.6301 0.6964
vn 0.2699 0.6440 -0.7158
vn 0.0520 -0.0099 0.9986
vn -0.4328 0.9009 0.0314
vn 0.4338 0.9009 -0.0137
vn -0.0520 0.0098 -0.9986
vn -0.9735 0.2225 0.0529
vn -0.7811 -0.6235 0.0345
vn -0.0005 -1.0000 -0.0098
vn 0.7805 -0.6235 -0.0468
vn 0.9737 0.2225 -0.0485
vn 0.0184 0.8223 0.5687
vn -0.0178 0.8345 -0.5507
vn -0.6291 0.5104 0.5863
vn -0.6653 0.5226 -0.5332
vn -0.7892 -0.1904 0.5838
vn -0.8254 -0.1783 -0.5357
vn -0.3414 -0.7525 0.5632
vn -0.3776 -0.7403 -0.5562
vn 0.3771 -0.7525 0.5400
vn 0.3409 -0.7403 -0.5794
vn 0.8253 -0.1904 0.5316
vn 0.7891 -0.1783 -0.5878
vn 0.6656 0.5104 0.5444
vn 0.6295 0.5226 -0.5751
vn -0.2836 0.6294 0.7235
vn -0.3293 0.6447 -0.6899
vn 0.0003 0.9999 0.0109
vn -0.7812 0.6235 0.0320
vn -0.6661 0.1497 0.7307
vn -0.7118 0.1650 -0.6827
vn -0.9745 -0.2225 0.0291
vn -0.5299 -0.4485 0.7198
vn -0.5755 -0.4332 -0.6936
vn -0.4340 -0.9009 0.0042
vn 0.0226 -0.7147 0.6990
vn -0.0231 -0.6994 -0.7144
vn 0.4333 -0.9009 -0.0238
vn 0.5752 -0.4485 0.6841
vn 0.5296 -0.4332 -0.7293
vn 0.9743 -0.2225 -0.0339
vn 0.7119 0.1497 0.6861
vn 0.6662 0.1650 -0.7273
vn 0.7816 0.6235 -0.0185
vn 0.3297 0.6294 0.7037
vn 0.2840 0.6447 -0.7097
vn 0.0323 -0.0109 0.9994
vn -0.4333 0.9009 0.0238
vn 0.4340 0.9009 -0.0042
vn -0.0323 0.0109 -0.9994
vn -0.9743 0.2225 0.0339
vn -0.7816 -0.6235 0.0185
vn -0.0004 -0.9999 -0.0109
vn 0.7812 -0.6235 -0.0320
vn 0.9745 0.2225 -0.0291
vn -0.0284 0.8347 0.5499
vn 0.0294 0.8220 -0.5687
vn -0.6754 0.5228 0.5200
vn -0.6176 0.5102 -0.5985
vn -0.8356 -0.1780 0.5197
vn -0.7778 -0.1907 -0.5989
vn -0.3883 -0.7400 0.5492
vn -0.3305 -0.7527 -0.5694
vn 0.3296 -0.7400 0.5863
vn 0.3874 -0.7527 -0.5323
vn 0.7776 -0.1780 0.6030
vn 0.8354 -0.1907 -0.5155
vn 0.6182 0.5228 0.5869
vn 0.6760 0.5102 -0.5317
vn -0.3425 0.6451 0.6831
vn -0.2695 0.6290 -0.7292
vn 0.0006 0.9999 -0.0113
vn -0.7804 0.6235 -0.0474
vn -0.7249 0.1653 0.6688
vn -0.6519 0.1493 -0.7435
vn -0.9738 -0.2225 -0.0478
vn -0.5888 -0.4328 0.6826
vn -0.5159 -0.4489 -0.7297
vn -0.4338 -0.9009 -0.0122
vn -0.0369 -0.6990 0.7141
vn 0.0361 -0.7151 -0.6981
vn 0.4328 -0.9009 0.0326
vn 0.5154 -0.4328 0.7396
vn 0.5883 -0.4489 -0.6726
vn 0.9735 -0.2225 0.0528
vn 0.6521 0.1653 0.7399
vn 0.7250 0.1493 -0.6723
vn 0.7812 0.6235 0.0333
vn 0.2703 0.6451 0.7147
vn 0.3433 0.6290 -0.6975
vn -0.0516 0.0113 0.9986
vn -0.4328 0.9009 -0.0326
vn 0.4338 0.9009 0.0122
vn 0.0516 -0.0113 -0.9986
vn -0.9735 0.2225 -0.0528
vn -0.7812 -0.6235 -0.0333
vn -0.0006 -0.9999 0.0113
vn 0.7804 -0.6235 0.0474
vn 0.9738 0.2225 0.0478
vn 0.0260 0.8319 0.5544
vn -0.0265 0.8250 -0.5645
vn -0.6209 0.5199 0.5866
vn -0.6734 0.5131 -0.5323
vn -0.7805 -0.1809 0.5984
vn -0.8330 -0.1878 -0.5205
vn -0.3326 -0.7430 0.5808
vn -0.3851 -0.7498 -0.5380
vn 0.3855 -0.7430 0.5472
vn 0.3330 -0.7498 -0.5717
vn 0.8331 -0.1809 0.5227
vn 0.7806 -0.1878 -0.5961
vn 0.6731 0.5200 0.5259
vn 0.6206 0.5131 -0.5929
vn -0.2735 0.6414 0.7168
vn -0.3398 0.6327 -0.6958
vn -0.0003 1.0000 -0.0061
vn -0.7811 0.6235 0.0328
vn -0.6555 0.1617 0.7376
vn -0.7218 0.1530 -0.6750
vn -0.9738 -0.2225 0.0470
vn -0.5190 -0.4365 0.7349
vn -0.5852 -0.4452 -0.6777
vn -0.4331 -0.9010 0.0258
vn 0.0333 -0.7028 0.7106
vn -0.0329 -0.7114 -0.7020
vn 0.4337 -0.9009 -0.0148
vn 0.5855 -0.4365 0.6831
vn 0.5192 -0.4452 -0.7295
vn 0.9739 -0.2225 -0.0443
vn 0.7217 0.1617 0.6731
vn 0.6555 0.1530 -0.7396
vn 0.7808 0.6235 -0.0404
vn 0.3394 0.6414 0.6880
vn 0.2732 0.6327 -0.7246
vn 0.0468 0.0061 0.9989
vn -0.4337 0.9010 0.0148
vn 0.4331 0.9010 -0.0258
vn -0.0468 -0.0061 -0.9989
vn -0.9739 0.2225 0.0443
vn -0.7808 -0.6235 0.0404
vn 0.0003 -1.0000 0.0061
vn 0.7812 -0.6235 -0.0328
vn 0.9738 0.2225 -0.0470
vn -0.0062 0.8267 0.5627
vn 0.0061 0.8302 -0.5574
vn -0.6539 0.5148 0.5545
vn -0.6415 0.5183 -0.5655
vn -0.8138 -0.1861 0.5505
vn -0.8015 -0.1826 -0.5695
vn -0.3656 -0.7482 0.5537
vn -0.3532 -0.7446 -0.5664
vn 0.3533 -0.7482 0.5616
vn 0.3656 -0.7446 -0.5584
vn 0.8015 -0.1861 0.5683
vn 0.8138 -0.1826 -0.5517
vn 0.6415 0.5148 0.5688
vn 0.6538 0.5183 -0.5513
vn -0.3146 0.6348 0.7057
vn -0.2990 0.6393 -0.7084
vn -0.0000 1.0000 0.0032
vn -0.7818 0.6235 -0.0066
vn -0.6971 0.1551 0.7000
vn -0.6816 0.1596 -0.7142
vn -0.9749 -0.2225 -0.0114
vn -0.5606 -0.4431 0.6996
vn -0.5450 -0.4386 -0.7146
vn -0.4338 -0.9010 -0.0076
vn -0.0078 -0.7093 0.7048
vn 0.0078 -0.7049 -0.7093
vn 0.4339 -0.9010 0.0019
vn 0.5450 -0.4431 0.7118
vn 0.5606 -0.4386 -0.7024
vn 0.9749 -0.2225 0.0100
vn 0.6815 0.1551 0.7152
vn 0.6971 0.1596 -0.6990
vn 0.7818 0.6235 0.0106
vn 0.2990 0.6348 0.7125
vn 0.3145 0.6393 -0.7017
vn -0.0110 -0.0032 0.9999
vn -0.4339 0.9010 -0.0019
vn 0.4338 0.9010 0.0076
vn 0.0110 0.0032 -0.9999
vn -0.9749 0.2225 -0.0100
vn -0.7818 -0.6235 -0.0106
vn 0.7818 -0.6235 0.0066
vn 0.9749 0.2225 0.0114
vn -0.0046 1.0000 0.0051
vn 0.8171 -0.5764 -0.0042
vn -0.1653 -0.9862 -0.0056
vn -0.1998 -0.6750 -0.7103
vn 0.1965 0.6773 0.7090
vn -0.3738 -0.9275 -0.0015
vn 0.1817 0.6855 -0.7050
vn 0.6224 0.3559 0.6972
vn 0.2317 0.6621 -0.7127
vn 0.7017 -0.1251 0.7014
vn 0.8660 0.5000 -0.0050
vn -0.7818 0.6235 -0.0121
vn 0.6846 0.1651 0.7099
vn 0.6941 0.1496 -0.7041
vn 0.7819 0.6235 -0.0016
vn 0.0520 -0.0098 0.9986
vn 0.0004 0.9999 0.0109
vn -0.7812 0.6234 0.0320
vn -0.7804 0.6234 -0.0474
vn -0.7249 0.1654 0.6688
vn 0.6521 0.1654 0.7399
vn 0.7812 0.6234 0.0333
vn -0.7812 -0.6234 -0.0333
vn -0.7812 0.6235 0.0328
vn -0.6555 0.1617 0.7377
vn 0.4337 -0.9010 -0.0148
vn 0.3394 0.6414 0.6881
vn 0.4332 0.9010 -0.0258
vn 0.3146 0.6393 -0.7017
vt -0.012400 0.177920
vt -0.012400 0.170000
vt -0.025000 0.177920
vt -0.012400 0.822080
vt -0.025000 0.822080
vt -0.012400 0.830000
vt 1.012400 0.177920
vt 1.025000 0.177920
vt 1.012400 0.170000
vt 1.012400 0.822080
vt 1.012400 0.830000
vt 1.025000 0.822080
vt -0.012400 0.548800
vt -0.025000 0.451200
vt -0.012400 0.451200
vt -0.025000 0.548800
vt 1.025000 0.451200
vt 1.012400 0.548800
vt 1.025000 0.548800
vt 1.012400 0.451200
vt 0.177920 0.548800
vt 0.822080 0.451200
vt 0.177920 0.451200
vt 0.822080 0.548800
vt -0.012400 0.350000
vt -0.012400 0.353600
vt -0.025000 0.353600
vt -0.012400 0.646400
vt -0.012400 0.650000
vt -0.025000 0.646400
vt 1.012400 0.350000
vt 1.025000 0.353600
vt 1.012400 0.353600
vt 1.012400 0.650000
vt 1.012400 0.646400
vt 1.025000 0.646400
vt -0.012400 0.543920
vt -0.025000 0.456080
vt -0.025000 0.543920
vt -0.012400 0.456080
vt 1.012400 0.543920
vt 1.025000 0.456080
vt 1.012400 0.456080
vt 1.025000 0.543920
vt 0.456080 0.353600
vt 0.543920 0.646400
vt 0.543920 0.353600
vt 0.456080 0.646400
vt 0.197440 0.370000
vt 0.190000 0.373120
vt 0.197440 0.373120
vt 0.190000 0.626880
vt 0.197440 0.630000
vt 0.197440 0.626880
vt 0.802560 0.370000
vt 0.802560 0.373120
vt 0.810000 0.373120
vt 0.802560 0.630000
vt 0.810000 0.626880
vt 0.802560 0.626880
vt 0.456080 0.802560
vt 0.543920 0.810000
vt 0.543920 0.802560
vt 0.456080 0.810000
vt 0.543920 0.197440
vt 0.456080 0.190000
vt 0.456080 0.197440
vt 0.543920 0.190000
vt 0.543920 0.626880
vt 0.456080 0.373120
vt 0.543920 0.373120
vt 0.197440 0.465840
vt 0.197440 0.465000
vt 0.190000 0.465840
vt 0.197440 0.534160
vt 0.190000 0.534160
vt 0.197440 0.535000
vt 0.802560 0.465840
vt 0.810000 0.465840
vt 0.802560 0.465000
vt 0.802560 0.534160
vt 0.802560 0.535000
vt 0.810000 0.534160
vt 0.465840 0.534160
vt 0.534160 0.465840
vt 0.465840 0.465840
vt 0.460307 0.480000
vt 0.468241 0.484000
vt 0.452636 0.484000
vt 0.460307 0.520000
vt 0.452636 0.516000
vt 0.468241 0.516000
vt 0.733498 0.480000
vt 0.741170 0.484000
vt 0.725564 0.484000
vt 0.733498 0.520000
vt 0.725564 0.516000
vt 0.741170 0.516000
vt 0.596903 0.480000
vt 0.596903 0.484000
vt 0.596903 0.520000
vt 0.325675 0.480000
vt 0.325675 0.520000
vt 0.325942 0.516000
vt 0.194081 0.484000
vt 0.325942 0.484000
vt 0.193855 0.520000
vt 0.194081 0.516000
vt 0.064417 0.484000
vt 0.193855 0.480000
vt 0.064330 0.520000
vt 0.064417 0.516000
vt 1.129388 0.484000
vt 1.258136 0.480000
vt 1.258222 0.484000
vt 1.129388 0.516000
vt 1.258136 0.520000
vt 1.129475 0.520000
vt 0.999725 0.484000
vt 1.129475 0.480000
vt 0.999725 0.516000
vt 0.999950 0.520000
vt 0.867863 0.484000
vt 0.999950 0.480000
vt 0.867863 0.516000
vt 0.868130 0.520000
vt 0.868130 0.480000
vt 0.596903 0.516000
vt 0.821394 0.883022
vt 0.328990 0.030154
vt 0.007596 0.586824
vt 0.500000 1.000000
vt 1.258222 0.516000
vt 0.178606 0.883022
vt 0.933013 0.250000
vt 0.134440 0.450600
vt 0.134440 0.450000
vt 0.130000 0.450600
vt 0.134440 0.549400
vt 0.130000 0.549400
vt 0.134440 0.550000
vt 0.865560 0.450600
vt 0.870000 0.450600
vt 0.865560 0.450000
vt 0.865560 0.549400
vt 0.865560 0.550000
vt 0.870000 0.549400
vt 0.134440 0.486168
vt 0.130000 0.513832
vt 0.130000 0.486168
vt 0.134440 0.513832
vt 0.870000 0.486168
vt 0.865560 0.513832
vt 0.870000 0.513832
vt 0.865560 0.486168
vt 0.450600 0.513832
vt 0.549400 0.486168
vt 0.450600 0.486168
vt 0.549400 0.513832
vt 0.329867 0.360000
vt 0.337571 0.364000
vt 0.322164 0.364000
vt 0.329867 0.640000
vt 0.322164 0.636000
vt 0.337571 0.636000
vt 0.232594 0.360000
vt 0.240371 0.364000
vt 0.225176 0.364000
vt 0.232594 0.640000
vt 0.225176 0.636000
vt 0.240371 0.636000
vt 0.137714 0.360000
vt 0.145302 0.364000
vt 0.130546 0.364000
vt 0.137714 0.640000
vt 0.130546 0.636000
vt 0.145302 0.636000
vt 0.045534 0.360000
vt 0.052842 0.364000
vt 0.038404 0.364000
vt 0.045534 0.640000
vt 0.038404 0.636000
vt 0.052842 0.636000
vt 0.614200 0.360000
vt 0.621330 0.364000
vt 0.606892 0.364000
vt 0.614200 0.640000
vt 0.606892 0.636000
vt 0.621330 0.636000
vt 0.522021 0.360000
vt 0.529188 0.364000
vt 0.514432 0.364000
vt 0.522021 0.640000
vt 0.514432 0.636000
vt 0.529188 0.636000
vt 0.427140 0.360000
vt 0.434558 0.364000
vt 0.419363 0.364000
vt 0.427140 0.640000
vt 0.419363 0.636000
vt 0.434558 0.636000
vt 0.705269 0.360000
vt 0.698139 0.364000
vt 0.698139 0.636000
vt 0.283058 0.049516
vt 0.012536 0.388740
vt 0.890916 0.811745
vt 0.500000 1.000000
vt 0.716942 0.049516
vt 0.109084 0.811745
vt 0.987464 0.388740
vt 0.456080 0.626880
vt 0.534160 0.534160
vt 0.064330 0.480000
vt 0.992404 0.586824
vt 0.671010 0.030154
vt 0.066987 0.250000
vt 0.705269 0.640000
s 0
usemtl wood
f 1/1/1 2/2/1 3/3/1
f 4/2/2 5/1/2 6/3/2
f 7/4/3 8/5/3 9/6/3
f 10/4/4 11/6/4 12/5/4
f 13/7/5 14/8/5 15/9/5
f 16/7/6 17/9/6 18/8/6
f 19/10/7 20/11/7 21/12/7
f 22/10/8 23/12/8 24/11/8
f 7/4/9 3/3/9 8/5/9
f 4/13/10 3/14/10 2/15/10
f 10/4/11 6/3/11 5/1/11
f 9/15/12 12/16/12 11/13/12
f 7/4/13 20/11/13 19/10/13
f 22/10/14 11/6/14 10/4/14
f 21/17/15 24/18/15 23/19/15
f 19/10/16 14/8/16 13/7/16
f 16/7/17 23/12/17 22/10/17
f 15/20/18 18/19/18 17/18/18
f 1/1/19 15/9/19 2/2/19
f 16/7/20 4/2/20 17/9/20
f 7/4/21 13/7/21 1/1/21
f 6/21/22 8/22/22 3/23/22
f 15/20/23 4/13/23 2/15/23
f 10/4/24 16/7/24 22/10/24
f 9/15/25 24/18/25 20/20/25
f 23/24/26 14/23/26 21/22/26
f 25/25/27 26/26/27 27/27/27
f 28/28/28 29/29/28 30/30/28
f 31/25/29 32/27/29 33/26/29
f 34/29/30 35/28/30 36/30/30
f 37/31/31 38/32/31 39/33/31
f 40/34/32 41/35/32 42/36/32
f 43/31/33 44/33/33 45/32/33
f 46/34/34 47/36/34 48/35/34
f 31/37/35 27/38/35 32/39/35
f 26/26/36 30/30/36 27/27/36
f 29/40/37 36/39/37 30/38/37
f 33/26/38 36/30/38 35/28/38
f 31/25/39 44/33/39 43/31/39
f 46/34/40 35/28/40 34/29/40
f 45/32/41 48/35/41 47/36/41
f 43/41/42 38/42/42 37/43/42
f 46/41/43 42/42/43 47/44/43
f 41/35/44 38/32/44 42/36/44
f 37/31/45 26/26/45 25/25/45
f 29/29/46 41/35/46 40/34/46
f 43/41/47 25/40/47 31/37/47
f 27/45/48 36/46/48 32/47/48
f 41/35/49 26/26/49 39/33/49
f 34/37/50 40/43/50 46/41/50
f 35/28/51 44/33/51 33/26/51
f 45/47/52 42/48/52 38/45/52
f 49/25/53 50/26/53 51/27/53
f 52/28/54 53/29/54 54/30/54
f 55/25/55 56/27/55 57/26/55
f 58/29/56 59/28/56 60/30/56
f 61/31/57 62/32/57 63/33/57
f 64/34/58 65/35/58 66/36/58
f 67/31/59 68/33/59 69/32/59
f 70/34/60 71/36/60 72/35/60
f 49/40/61 56/39/61 55/37/61
f 52/28/62 51/27/62 50/26/62
f 58/37/63 54/38/63 53/40/63
f 57/26/64 60/30/64 59/28/64
f 55/25/65 68/33/65 67/31/65
f 58/29/66 72/35/66 59/28/66
f 71/36/67 68/33/67 72/35/67
f 67/41/68 62/42/68 61/43/68
f 64/43/69 71/44/69 70/41/69
f 63/33/70 66/36/70 65/35/70
f 49/25/71 63/33/71 50/26/71
f 64/34/72 52/28/72 65/35/72
f 67/41/73 49/40/73 55/37/73
f 51/45/74 60/46/74 56/47/74
f 65/35/75 50/26/75 63/33/75
f 70/41/76 53/40/76 64/43/76
f 59/28/77 68/33/77 57/26/77
f 71/46/78 62/45/78 69/47/78
f 73/49/79 74/50/79 75/51/79
f 76/52/80 77/53/80 78/54/80
f 79/55/81 80/56/81 81/57/81
f 82/58/82 83/59/82 84/60/82
f 85/49/83 86/51/83 87/50/83
f 88/53/84 89/52/84 90/54/84
f 91/55/85 92/57/85 93/56/85
f 94/58/86 95/60/86 96/59/86
f 79/55/87 75/51/87 80/56/87
f 76/52/88 75/51/88 74/50/88
f 77/53/89 84/60/89 78/54/89
f 81/57/90 84/60/90 83/59/90
f 79/61/91 92/62/91 91/63/91
f 82/61/92 96/62/92 83/64/92
f 93/56/93 96/59/93 95/60/93
f 91/55/94 86/51/94 85/49/94
f 88/53/95 95/60/95 94/58/95
f 87/50/96 90/54/96 89/52/96
f 85/65/97 74/66/97 73/67/97
f 88/65/98 76/66/98 89/68/98
f 91/63/99 73/67/99 79/61/99
f 78/54/100 80/56/100 75/51/100
f 89/69/101 74/70/101 87/71/101
f 82/61/102 88/65/102 94/63/102
f 81/70/103 96/69/103 92/71/103
f 95/60/104 86/51/104 93/56/104
f 97/72/105 98/73/105 99/74/105
f 100/73/106 101/72/106 102/74/106
f 103/75/107 104/76/107 105/77/107
f 106/75/108 107/77/108 108/76/108
f 109/78/109 110/79/109 111/80/109
f 112/78/110 113/80/110 114/79/110
f 115/81/111 116/82/111 117/83/111
f 118/81/112 119/83/112 120/82/112
f 97/72/113 104/76/113 103/75/113
f 100/75/114 99/74/114 98/72/114
f 106/75/115 102/74/115 101/72/115
f 107/75/116 104/74/116 108/76/116
f 115/81/117 105/77/117 116/82/117
f 118/81/118 107/77/118 106/75/118
f 119/83/119 116/78/119 120/81/119
f 109/78/120 117/83/120 110/79/120
f 112/78/121 119/83/121 118/81/121
f 111/78/122 114/83/122 113/81/122
f 97/72/123 111/80/123 98/73/123
f 112/78/124 100/73/124 113/80/124
f 115/81/125 97/72/125 103/75/125
f 102/84/126 104/85/126 99/86/126
f 111/78/127 100/75/127 98/72/127
f 106/75/128 112/78/128 118/81/128
f 107/75/129 116/78/129 105/72/129
f 117/85/130 114/84/130 110/86/130
f 121/72/131 122/73/131 123/74/131
f 124/73/132 125/72/132 126/74/132
f 127/75/133 128/76/133 129/77/133
f 130/75/134 131/77/134 132/76/134
f 133/78/135 134/79/135 135/80/135
f 136/78/136 137/80/136 138/79/136
f 139/81/137 140/82/137 141/83/137
f 142/81/138 143/83/138 144/82/138
f 121/72/139 128/76/139 127/75/139
f 124/75/140 123/74/140 122/72/140
f 130/75/141 126/74/141 125/72/141
f 131/75/142 128/74/142 132/76/142
f 127/75/143 140/82/143 139/81/143
f 130/75/144 144/82/144 131/77/144
f 143/83/145 140/78/145 144/81/145
f 139/81/146 134/79/146 133/78/146
f 142/81/147 138/79/147 143/83/147
f 137/81/148 134/79/148 138/83/148
f 133/78/149 122/73/149 121/72/149
f 125/72/150 137/80/150 136/78/150
f 139/81/151 121/72/151 127/75/151
f 126/84/152 128/85/152 123/86/152
f 135/78/153 124/75/153 122/72/153
f 142/81/154 125/72/154 136/78/154
f 131/75/155 140/78/155 129/72/155
f 141/85/156 138/84/156 134/86/156
f 149/87/157 150/88/157 151/89/157
f 152/90/158 153/91/158 154/92/158
f 179/93/159 180/94/159 181/95/159
f 182/96/160 183/97/160 184/98/160
f 150/88/161 145/99/161 146/100/161
f 154/92/162 147/101/162 152/90/162
f 151/89/163 154/92/163 153/91/163
f 151/89/164 155/102/164 149/87/164
f 153/91/165 157/103/165 158/104/165
f 160/105/166 155/102/166 156/106/166
f 158/104/167 161/107/167 162/108/167
f 164/109/168 159/110/168 160/105/168
f 162/108/169 165/111/169 166/112/169
f 168/113/170 163/114/170 164/115/170
f 170/116/171 165/117/171 169/118/171
f 172/119/172 167/120/172 168/113/172
f 174/121/173 169/118/173 173/122/173
f 176/123/174 171/124/174 172/119/174
f 178/125/175 173/122/175 177/126/175
f 180/94/176 175/127/176 176/123/176
f 184/98/177 177/126/177 182/96/177
f 183/97/178 180/94/178 184/98/178
f 181/95/179 145/99/179 179/93/179
f 183/97/180 147/101/180 148/128/180
f 148/128/182 150/88/182 146/100/182
f 183/97/183 146/100/183 181/95/183
f 151/89/185 158/104/185 156/106/185
f 158/104/186 160/105/186 156/106/186
f 162/108/187 164/109/187 160/105/187
f 164/115/188 170/116/188 168/113/188
f 168/113/189 174/121/189 172/119/189
f 174/121/190 176/123/190 172/119/190
f 178/125/191 180/94/191 176/123/191
f 189/87/192 190/88/192 191/89/192
f 192/90/193 193/91/193 194/92/193
f 219/93/194 220/94/194 221/95/194
f 222/96/195 223/97/195 224/98/195
f 190/88/196 185/99/196 186/100/196
f 194/92/197 187/101/197 192/90/197
f 193/91/198 190/88/198 194/92/198
f 191/89/199 195/102/199 189/87/199
f 193/91/200 197/103/200 198/104/200
f 200/105/201 195/102/201 196/106/201
f 198/104/202 201/107/202 202/108/202
f 204/109/203 199/110/203 200/105/203
f 202/108/204 205/111/204 206/112/204
f 204/115/205 207/120/205 203/114/205
f 206/133/206 209/118/206 210/116/206
f 212/119/207 207/120/207 208/113/207
f 210/116/208 213/122/208 214/121/208
f 216/123/209 211/124/209 212/119/209
f 214/121/210 217/126/210 218/125/210
f 220/94/211 215/127/211 216/123/211
f 224/98/212 217/126/212 222/96/212
f 221/95/213 224/98/213 223/97/213
f 221/95/214 185/99/214 219/93/214
f 223/97/215 187/101/215 188/128/215
f 186/100/217 194/92/217 190/88/217
f 221/95/218 188/128/218 186/100/218
f 191/89/220 198/104/220 196/106/220
f 196/106/221 202/108/221 200/105/221
f 200/105/222 206/112/222 204/109/222
f 204/115/223 210/116/223 208/113/223
f 210/116/224 212/119/224 208/113/224
f 214/121/225 216/123/225 212/119/225
f 216/123/226 224/98/226 220/94/226
f 249/160/253 250/161/253 251/162/253
f 252/163/254 253/164/254 254/165/254
f 255/166/255 256/167/255 257/168/255
f 258/169/256 259/170/256 260/171/256
f 261/172/257 262/173/257 263/174/257
f 264/175/258 265/176/258 266/177/258
f 267/178/259 268/179/259 269/180/259
f 270/181/260 271/182/260 272/183/260
f 273/184/261 274/185/261 275/186/261
f 276/187/262 277/188/262 278/189/262
f 279/190/263 280/191/263 281/192/263
f 282/193/264 283/194/264 284/195/264
f 285/196/265 286/197/265 287/198/265
f 288/199/266 289/200/266 290/201/266
f 256/167/267 249/160/267 251/162/267
f 253/164/268 258/169/268 260/171/268
f 254/165/269 251/162/269 250/161/269
f 259/170/270 256/167/270 260/171/270
f 257/168/271 261/172/271 255/166/271
f 266/177/272 258/169/272 264/175/272
f 263/174/273 266/177/273 265/176/273
f 268/179/274 261/172/274 263/174/274
f 272/183/275 264/175/275 270/181/275
f 269/180/276 272/183/276 271/182/276
f 274/185/277 267/202/277 269/203/277
f 271/204/278 276/187/278 278/189/278
f 275/186/279 278/189/279 277/188/279
f 280/191/280 273/184/280 275/186/280
f 284/195/281 276/187/281 282/193/281
f 283/194/282 280/191/282 284/195/282
f 281/192/283 285/196/283 279/190/283
f 283/194/284 288/199/284 290/201/284
f 287/198/285 290/201/285 289/200/285
f 250/161/286 285/196/286 287/198/286
f 289/200/287 252/163/287 254/165/287
f 253/164/289 256/167/289 251/162/289
f 289/200/290 250/161/290 287/198/290
f 259/170/292 262/173/292 257/168/292
f 263/174/293 272/183/293 268/179/293
f 271/204/294 274/185/294 269/203/294
f 277/188/295 280/191/295 275/186/295
f 283/194/296 286/197/296 281/192/296
f 291/160/297 292/161/297 293/162/297
f 294/163/298 295/164/298 296/165/298
f 297/166/299 298/167/299 299/168/299
f 300/169/300 301/170/300 302/171/300
f 303/172/301 304/173/301 305/174/301
f 306/175/302 307/176/302 308/177/302
f 309/178/303 310/179/303 311/180/303
f 312/181/304 313/182/304 314/183/304
f 315/184/305 316/185/305 317/186/305
f 318/187/306 319/188/306 320/189/306
f 321/190/307 322/191/307 323/192/307
f 324/193/308 325/194/308 326/195/308
f 327/196/309 328/197/309 329/198/309
f 330/199/310 331/200/310 332/201/310
f 293/162/311 297/166/311 291/160/311
f 295/164/312 300/169/312 302/171/312
f 296/165/313 293/162/313 292/161/313
f 301/170/314 298/167/314 302/171/314
f 304/173/315 297/166/315 299/168/315
f 308/177/316 300/169/316 306/175/316
f 307/176/317 304/173/317 308/177/317
f 310/179/318 303/172/318 305/174/318
f 307/176/319 312/181/319 314/183/319
f 311/180/320 314/183/320 313/182/320
f 311/203/321 315/184/321 309/202/321
f 313/204/322 318/187/322 320/189/322
f 317/186/323 320/189/323 319/188/323
f 322/191/324 315/184/324 317/186/324
f 326/195/325 318/187/325 324/193/325
f 323/192/326 326/195/326 325/194/326
f 328/197/327 321/190/327 323/192/327
f 332/201/328 324/193/328 330/199/328
f 331/200/329 328/197/329 332/201/329
f 292/161/330 327/196/330 329/198/330
f 331/200/331 294/163/331 296/165/331
f 293/162/333 302/171/333 298/167/333
f 331/200/334 292/161/334 329/198/334
f 299/168/336 308/177/336 304/173/336
f 307/176/337 310/179/337 305/174/337
f 313/204/338 316/185/338 311/203/338
f 317/186/339 326/195/339 322/191/339
f 325/194/340 328/197/340 323/192/340
f 333/160/341 334/161/341 335/162/341
f 336/163/342 337/164/342 338/165/342
f 339/166/343 340/167/343 341/168/343
f 342/169/344 343/170/344 344/171/344
f 345/172/345 346/173/345 347/174/345
f 348/175/346 349/176/346 350/177/346
f 351/178/347 352/179/347 353/180/347
f 354/181/348 355/182/348 356/183/348
f 357/184/349 358/185/349 359/186/349
f 360/187/350 361/188/350 362/189/350
f 363/190/351 364/191/351 365/192/351
f 366/193/352 367/194/352 368/195/352
f 369/196/353 370/197/353 371/198/353
f 372/199/354 373/200/354 374/201/354
f 340/167/355 333/160/355 335/162/355
f 337/164/356 342/169/356 344/171/356
f 338/165/357 335/162/357 334/161/357
f 341/168/358 344/171/358 343/170/358
f 341/168/359 345/172/359 339/166/359
f 350/177/360 342/169/360 348/175/360
f 347/174/361 350/177/361 349/176/361
f 347/174/362 351/178/362 345/172/362
f 349/176/363 354/181/363 356/183/363
f 353/180/364 356/183/364 355/182/364
f 358/185/365 351/202/365 353/203/365
f 355/204/366 360/187/366 362/189/366
f 359/186/367 362/189/367 361/188/367
f 364/191/368 357/184/368 359/186/368
f 361/188/369 366/193/369 368/195/369
f 365/192/370 368/195/370 367/194/370
f 370/197/371 363/190/371 365/192/371
f 374/201/372 366/193/372 372/199/372
f 371/198/373 374/201/373 373/200/373
f 334/161/374 369/196/374 371/198/374
f 338/165/375 372/199/375 336/163/375
f 335/162/377 344/171/377 340/167/377
f 371/198/378 338/165/378 334/161/378
f 343/170/380 346/173/380 341/168/380
f 349/176/381 352/179/381 347/174/381
f 353/203/382 362/189/382 358/185/382
f 361/188/383 364/191/383 359/186/383
f 367/194/384 370/197/384 365/192/384
f 375/160/385 376/161/385 377/162/385
f 378/163/386 379/164/386 380/165/386
f 381/166/387 382/167/387 383/168/387
f 384/169/388 385/170/388 386/171/388
f 387/172/389 388/173/389 389/174/389
f 390/175/390 391/176/390 392/177/390
f 393/178/391 394/179/391 395/180/391
f 396/181/392 397/182/392 398/183/392
f 399/184/393 400/185/393 401/186/393
f 402/187/394 403/188/394 404/189/394
f 405/190/395 406/191/395 407/192/395
f 408/193/396 409/194/396 410/195/396
f 411/196/397 412/197/397 413/198/397
f 414/199/398 415/200/398 416/201/398
f 377/162/399 381/166/399 375/160/399
f 386/171/400 378/163/400 384/169/400
f 380/165/401 377/162/401 376/161/401
f 383/168/402 386/171/402 385/170/402
f 383/168/403 387/172/403 381/166/403
f 392/177/404 384/169/404 390/175/404
f 389/174/405 392/177/405 391/176/405
f 394/179/406 387/172/406 389/174/406
f 398/183/407 390/175/407 396/181/407
f 395/180/408 398/183/408 397/182/408
f 400/185/409 393/202/409 395/203/409
f 397/204/410 402/187/410 404/189/410
f 403/188/411 400/185/411 404/189/411
f 406/191/412 399/184/412 401/186/412
f 403/188/413 408/193/413 410/195/413
f 409/194/414 406/191/414 410/195/414
f 412/197/415 405/190/415 407/192/415
f 416/201/416 408/193/416 414/199/416
f 413/198/417 416/201/417 415/200/417
f 376/161/418 411/196/418 413/198/418
f 415/200/419 378/163/419 380/165/419
f 379/164/421 382/167/421 377/162/421
f 415/200/422 376/161/422 413/198/422
f 385/170/424 388/173/424 383/168/424
f 389/174/425 398/183/425 394/179/425
f 395/203/426 404/189/426 400/185/426
f 403/188/427 406/191/427 401/186/427
f 409/194/428 412/197/428 407/192/428
f 417/160/429 418/161/429 419/162/429
f 420/163/430 421/164/430 422/165/430
f 423/166/431 424/167/431 425/168/431
f 426/169/432 427/170/432 428/171/432
f 429/172/433 430/173/433 431/174/433
f 432/175/434 433/176/434 434/177/434
f 435/178/435 436/179/435 437/180/435
f 438/181/436 439/182/436 440/183/436
f 441/184/437 442/185/437 443/186/437
f 444/187/438 445/188/438 446/189/438
f 447/190/439 448/191/439 449/192/439
f 450/193/440 451/194/440 452/195/440
f 453/196/441 454/197/441 455/198/441
f 456/199/442 457/200/442 458/201/442
f 424/167/443 417/160/443 419/162/443
f 421/164/444 426/169/444 428/171/444
f 422/165/445 419/162/445 418/161/445
f 425/168/446 428/171/446 427/170/446
f 430/173/447 423/166/447 425/168/447
f 434/177/448 426/169/448 432/175/448
f 431/174/449 434/177/449 433/176/449
f 431/174/450 435/178/450 429/172/450
f 433/176/451 438/181/451 440/183/451
f 437/180/452 440/183/452 439/182/452
f 437/203/453 441/184/453 435/202/453
f 439/204/454 444/187/454 446/189/454
f 443/186/455 446/189/455 445/188/455
f 448/191/456 441/184/456 443/186/456
f 452/195/457 444/187/457 450/193/457
f 449/192/458 452/195/458 451/194/458
f 454/197/459 447/190/459 449/192/459
f 451/194/460 456/199/460 458/201/460
f 455/198/461 458/201/461 457/200/461
f 418/161/462 453/196/462 455/198/462
f 457/200/463 420/163/463 422/165/463
f 421/164/465 424/167/465 419/162/465
f 457/200/466 418/161/466 455/198/466
f 425/168/468 434/177/468 430/173/468
f 433/176/469 436/179/469 431/174/469
f 439/204/470 442/185/470 437/203/470
f 443/186/471 452/195/471 448/191/471
f 449/192/472 458/201/472 454/197/472
f 459/160/473 460/161/473 461/162/473
f 462/163/474 463/164/474 464/165/474
f 465/166/475 466/167/475 467/168/475
f 468/169/476 469/170/476 470/171/476
f 471/172/477 472/173/477 473/174/477
f 474/175/478 475/176/478 476/177/478
f 477/178/479 478/179/479 479/180/479
f 480/181/480 481/182/480 482/183/480
f 483/184/481 484/185/481 485/186/481
f 486/187/482 487/188/482 488/189/482
f 489/190/483 490/191/483 491/192/483
f 492/193/484 493/194/484 494/195/484
f 495/196/485 496/197/485 497/198/485
f 498/199/486 499/200/486 500/201/486
f 461/162/487 465/166/487 459/160/487
f 470/171/488 462/163/488 468/169/488
f 464/165/489 461/162/489 460/161/489
f 467/168/490 470/171/490 469/170/490
f 472/173/491 465/166/491 467/168/491
f 469/170/492 474/175/492 476/177/492
f 473/174/493 476/177/493 475/176/493
f 478/179/494 471/172/494 473/174/494
f 475/176/495 480/181/495 482/183/495
f 479/180/496 482/183/496 481/182/496
f 484/185/497 477/202/497 479/203/497
f 481/204/498 486/187/498 488/189/498
f 487/188/499 484/185/499 488/189/499
f 490/191/500 483/184/500 485/186/500
f 494/195/501 486/187/501 492/193/501
f 491/192/502 494/195/502 493/194/502
f 491/192/503 495/196/503 489/190/503
f 500/201/504 492/193/504 498/199/504
f 497/198/505 500/201/505 499/200/505
f 460/161/506 495/196/506 497/198/506
f 499/200/507 462/163/507 464/165/507
f 463/164/509 466/167/509 461/162/509
f 497/198/510 464/165/510 460/161/510
f 467/168/512 476/177/512 472/173/512
f 475/176/513 478/179/513 473/174/513
f 481/204/223 484/185/223 479/203/223
f 485/186/514 494/195/514 490/191/514
f 493/194/515 496/197/515 491/192/515
f 7/4/9 1/1/9 3/3/9
f 4/13/10 6/16/10 3/14/10
f 10/4/11 12/5/11 6/3/11
f 9/15/12 8/14/12 12/16/12
f 7/4/13 9/6/13 20/11/13
f 22/10/14 24/11/14 11/6/14
f 21/17/15 20/20/15 24/18/15
f 19/10/16 21/12/16 14/8/16
f 16/7/17 18/8/17 23/12/17
f 15/20/18 14/17/18 18/19/18
f 1/1/19 13/7/19 15/9/19
f 16/7/20 5/1/20 4/2/20
f 7/4/21 19/10/21 13/7/21
f 6/21/22 12/24/22 8/22/22
f 15/20/23 17/18/23 4/13/23
f 10/4/24 5/1/24 16/7/24
f 9/15/25 11/13/25 24/18/25
f 23/24/26 18/21/26 14/23/26
f 31/37/35 25/40/35 27/38/35
f 26/26/36 28/28/36 30/30/36
f 29/40/37 34/37/37 36/39/37
f 33/26/38 32/27/38 36/30/38
f 31/25/39 33/26/39 44/33/39
f 46/34/40 48/35/40 35/28/40
f 45/32/41 44/33/41 48/35/41
f 43/41/42 45/44/42 38/42/42
f 46/41/516 40/43/516 42/42/516
f 41/35/44 39/33/44 38/32/44
f 37/31/45 39/33/45 26/26/45
f 29/29/46 28/28/46 41/35/46
f 43/41/47 37/43/47 25/40/47
f 27/45/48 30/48/48 36/46/48
f 41/35/49 28/28/49 26/26/49
f 34/37/50 29/40/50 40/43/50
f 35/28/51 48/35/51 44/33/51
f 45/47/52 47/46/52 42/48/52
f 49/40/61 51/38/61 56/39/61
f 52/28/62 54/30/62 51/27/62
f 58/37/63 60/39/63 54/38/63
f 57/26/64 56/27/64 60/30/64
f 55/25/65 57/26/65 68/33/65
f 58/29/66 70/34/66 72/35/66
f 71/36/67 69/32/67 68/33/67
f 67/41/68 69/44/68 62/42/68
f 64/43/69 66/42/69 71/44/69
f 63/33/70 62/32/70 66/36/70
f 49/25/71 61/31/71 63/33/71
f 64/34/72 53/29/72 52/28/72
f 67/41/73 61/43/73 49/40/73
f 51/45/74 54/48/74 60/46/74
f 65/35/75 52/28/75 50/26/75
f 70/41/76 58/37/76 53/40/76
f 59/28/77 72/35/77 68/33/77
f 71/46/78 66/48/78 62/45/78
f 79/55/517 73/49/517 75/51/517
f 76/52/88 78/54/88 75/51/88
f 77/53/89 82/58/89 84/60/89
f 81/57/90 80/56/90 84/60/90
f 79/61/91 81/64/91 92/62/91
f 82/61/92 94/63/92 96/62/92
f 93/56/93 92/57/93 96/59/93
f 91/55/94 93/56/94 86/51/94
f 88/53/95 90/54/95 95/60/95
f 87/50/96 86/51/96 90/54/96
f 85/65/97 87/68/97 74/66/97
f 88/65/98 77/67/98 76/66/98
f 91/63/99 85/65/99 73/67/99
f 78/54/100 84/60/100 80/56/100
f 89/69/101 76/212/101 74/70/101
f 82/61/102 77/67/102 88/65/102
f 81/70/103 83/212/103 96/69/103
f 95/60/104 90/54/104 86/51/104
f 97/72/518 99/74/518 104/76/518
f 100/75/114 102/76/114 99/74/114
f 106/75/115 108/76/115 102/74/115
f 107/75/116 105/72/116 104/74/116
f 115/81/117 103/75/117 105/77/117
f 118/81/118 120/82/118 107/77/118
f 119/83/119 117/79/119 116/78/119
f 109/78/120 115/81/120 117/83/120
f 112/78/121 114/79/121 119/83/121
f 111/78/122 110/79/122 114/83/122
f 97/72/519 109/78/519 111/80/519
f 112/78/124 101/72/124 100/73/124
f 115/81/125 109/78/125 97/72/125
f 102/84/126 108/213/126 104/85/126
f 111/78/127 113/81/127 100/75/127
f 106/75/128 101/72/128 112/78/128
f 107/75/129 120/81/129 116/78/129
f 117/85/130 119/213/130 114/84/130
f 121/72/139 123/74/139 128/76/139
f 124/75/140 126/76/140 123/74/140
f 130/75/141 132/76/141 126/74/141
f 131/75/142 129/72/142 128/74/142
f 127/75/143 129/77/143 140/82/143
f 130/75/520 142/81/520 144/82/520
f 143/83/145 141/79/145 140/78/145
f 139/81/521 141/83/521 134/79/521
f 142/81/147 136/78/147 138/79/147
f 137/81/148 135/78/148 134/79/148
f 133/78/149 135/80/149 122/73/149
f 125/72/522 124/73/522 137/80/522
f 139/81/151 133/78/151 121/72/151
f 126/84/152 132/213/152 128/85/152
f 135/78/153 137/81/153 124/75/153
f 142/81/154 130/75/154 125/72/154
f 131/75/155 144/81/155 140/78/155
f 141/85/156 143/213/156 138/84/156
f 150/88/161 149/87/161 145/99/161
f 154/92/162 148/128/162 147/101/162
f 151/89/163 150/88/163 154/92/163
f 151/89/164 156/106/164 155/102/164
f 153/91/165 152/90/165 157/103/165
f 160/105/166 159/110/166 155/102/166
f 158/104/167 157/103/167 161/107/167
f 164/109/168 163/214/168 159/110/168
f 162/108/169 161/107/169 165/111/169
f 168/113/170 167/120/170 163/114/170
f 170/116/171 166/133/171 165/117/171
f 172/119/172 171/124/172 167/120/172
f 174/121/173 170/116/173 169/118/173
f 176/123/174 175/127/174 171/124/174
f 178/125/175 174/121/175 173/122/175
f 180/94/523 179/93/523 175/127/523
f 184/98/177 178/125/177 177/126/177
f 183/97/178 181/95/178 180/94/178
f 181/95/179 146/100/179 145/99/179
f 183/97/524 182/96/524 147/101/524
f 148/128/182 154/92/182 150/88/182
f 183/97/183 148/128/183 146/100/183
f 151/89/185 153/91/185 158/104/185
f 158/104/186 162/108/186 160/105/186
f 162/108/187 166/112/187 164/109/187
f 164/115/188 166/133/188 170/116/188
f 168/113/189 170/116/189 174/121/189
f 174/121/190 178/125/190 176/123/190
f 178/125/191 184/98/191 180/94/191
f 190/88/196 189/87/196 185/99/196
f 194/92/197 188/128/197 187/101/197
f 193/91/198 191/89/198 190/88/198
f 191/89/199 196/106/199 195/102/199
f 193/91/200 192/90/200 197/103/200
f 200/105/201 199/110/201 195/102/201
f 198/104/202 197/103/202 201/107/202
f 204/109/203 203/214/203 199/110/203
f 202/108/204 201/107/204 205/111/204
f 204/115/205 208/113/205 207/120/205
f 206/133/206 205/117/206 209/118/206
f 212/119/207 211/124/207 207/120/207
f 210/116/208 209/118/208 213/122/208
f 216/123/525 215/127/525 211/124/525
f 214/121/210 213/122/210 217/126/210
f 220/94/211 219/93/211 215/127/211
f 224/98/212 218/125/212 217/126/212
f 221/95/213 220/94/213 224/98/213
f 221/95/214 186/100/214 185/99/214
f 223/97/215 222/96/215 187/101/215
f 186/100/217 188/128/217 194/92/217
f 221/95/218 223/97/218 188/128/218
f 191/89/220 193/91/220 198/104/220
f 196/106/221 198/104/221 202/108/221
f 200/105/222 202/108/222 206/112/222
f 204/115/223 206/133/223 210/116/223
f 210/116/224 214/121/224 212/119/224
f 214/121/225 218/125/225 216/123/225
f 216/123/526 218/125/526 224/98/526
f 256/167/267 255/166/267 249/160/267
f 253/164/268 252/163/268 258/169/268
f 254/165/269 253/164/269 251/162/269
f 259/170/527 257/168/527 256/167/527
f 257/168/271 262/173/271 261/172/271
f 266/177/272 259/170/272 258/169/272
f 263/174/273 262/173/273 266/177/273
f 268/179/274 267/178/274 261/172/274
f 272/183/275 265/176/275 264/175/275
f 269/180/276 268/179/276 272/183/276
f 274/185/277 273/184/277 267/202/277
f 271/204/278 270/218/278 276/187/278
f 275/186/279 274/185/279 278/189/279
f 280/191/280 279/190/280 273/184/280
f 284/195/281 277/188/281 276/187/281
f 283/194/282 281/192/282 280/191/282
f 281/192/528 286/197/528 285/196/528
f 283/194/529 282/193/529 288/199/529
f 287/198/530 286/197/530 290/201/530
f 250/161/286 249/160/286 285/196/286
f 289/200/287 288/199/287 252/163/287
f 253/164/289 260/171/289 256/167/289
f 289/200/290 254/165/290 250/161/290
f 259/170/292 266/177/292 262/173/292
f 263/174/293 265/176/293 272/183/293
f 271/204/294 278/189/294 274/185/294
f 277/188/295 284/195/295 280/191/295
f 283/194/296 290/201/296 286/197/296
f 293/162/311 298/167/311 297/166/311
f 295/164/312 294/163/312 300/169/312
f 296/165/313 295/164/313 293/162/313
f 301/170/314 299/168/314 298/167/314
f 304/173/315 303/172/315 297/166/315
f 308/177/316 301/170/316 300/169/316
f 307/176/317 305/174/317 304/173/317
f 310/179/318 309/178/318 303/172/318
f 307/176/319 306/175/319 312/181/319
f 311/180/320 310/179/320 314/183/320
f 311/203/321 316/185/321 315/184/321
f 313/204/322 312/218/322 318/187/322
f 317/186/323 316/185/323 320/189/323
f 322/191/324 321/190/324 315/184/324
f 326/195/325 319/188/325 318/187/325
f 323/192/326 322/191/326 326/195/326
f 328/197/327 327/196/327 321/190/327
f 332/201/328 325/194/328 324/193/328
f 331/200/329 329/198/329 328/197/329
f 292/161/330 291/160/330 327/196/330
f 331/200/331 330/199/331 294/163/331
f 293/162/333 295/164/333 302/171/333
f 331/200/334 296/165/334 292/161/334
f 299/168/336 301/170/336 308/177/336
f 307/176/337 314/183/337 310/179/337
f 313/204/338 320/189/338 316/185/338
f 317/186/339 319/188/339 326/195/339
f 325/194/340 332/201/340 328/197/340
f 340/167/355 339/166/355 333/160/355
f 337/164/356 336/163/356 342/169/356
f 338/165/532 337/164/532 335/162/532
f 341/168/533 340/167/533 344/171/533
f 341/168/359 346/173/359 345/172/359
f 350/177/360 343/170/360 342/169/360
f 347/174/361 346/173/361 350/177/361
f 347/174/362 352/179/362 351/178/362
f 349/176/363 348/175/363 354/181/363
f 353/180/364 352/179/364 356/183/364
f 358/185/365 357/184/365 351/202/365
f 355/204/366 354/218/366 360/187/366
f 359/186/367 358/185/367 362/189/367
f 364/191/368 363/190/368 357/184/368
f 361/188/369 360/187/369 366/193/369
f 365/192/370 364/191/370 368/195/370
f 370/197/371 369/196/371 363/190/371
f 374/201/372 367/194/372 366/193/372
f 371/198/373 370/197/373 374/201/373
f 334/161/374 333/160/374 369/196/374
f 338/165/375 373/200/375 372/199/375
f 335/162/377 337/164/377 344/171/377
f 371/198/378 373/200/378 338/165/378
f 343/170/380 350/177/380 346/173/380
f 349/176/381 356/183/381 352/179/381
f 353/203/382 355/204/382 362/189/382
f 361/188/383 368/195/383 364/191/383
f 367/194/384 374/201/384 370/197/384
f 377/162/399 382/167/399 381/166/399
f 386/171/400 379/164/400 378/163/400
f 380/165/401 379/164/401 377/162/401
f 383/168/534 382/167/534 386/171/534
f 383/168/535 388/173/535 387/172/535
f 392/177/404 385/170/404 384/169/404
f 389/174/405 388/173/405 392/177/405
f 394/179/406 393/178/406 387/172/406
f 398/183/407 391/176/407 390/175/407
f 395/180/408 394/179/408 398/183/408
f 400/185/409 399/184/409 393/202/409
f 397/204/410 396/218/410 402/187/410
f 403/188/411 401/186/411 400/185/411
f 406/191/412 405/190/412 399/184/412
f 403/188/413 402/187/413 408/193/413
f 409/194/414 407/192/414 406/191/414
f 412/197/536 411/196/536 405/190/536
f 416/201/416 409/194/416 408/193/416
f 413/198/537 412/197/537 416/201/537
f 376/161/418 375/160/418 411/196/418
f 415/200/419 414/199/419 378/163/419
f 379/164/421 386/171/421 382/167/421
f 415/200/422 380/165/422 376/161/422
f 385/170/424 392/177/424 388/173/424
f 389/174/538 391/176/538 398/183/538
f 395/203/426 397/204/426 404/189/426
f 403/188/427 410/195/427 406/191/427
f 409/194/428 416/201/428 412/197/428
f 424/167/443 423/166/443 417/160/443
f 421/164/444 420/163/444 426/169/444
f 422/165/445 421/164/445 419/162/445
f 425/168/539 424/167/539 428/171/539
f 430/173/540 429/172/540 423/166/540
f 434/177/448 427/170/448 426/169/448
f 431/174/449 430/173/449 434/177/449
f 431/174/450 436/179/450 435/178/450
f 433/176/451 432/175/451 438/181/451
f 437/180/452 436/179/452 440/183/452
f 437/203/453 442/185/453 441/184/453
f 439/204/454 438/218/454 444/187/454
f 443/186/541 442/185/541 446/189/541
f 448/191/456 447/190/456 441/184/456
f 452/195/457 445/188/457 444/187/457
f 449/192/458 448/191/458 452/195/458
f 454/197/459 453/196/459 447/190/459
f 451/194/460 450/193/460 456/199/460
f 455/198/461 454/197/461 458/201/461
f 418/161/542 417/160/542 453/196/542
f 457/200/463 456/199/463 420/163/463
f 421/164/465 428/171/465 424/167/465
f 457/200/543 422/165/543 418/161/543
f 425/168/468 427/170/468 434/177/468
f 433/176/469 440/183/469 436/179/469
f 439/204/470 446/189/470 442/185/470
f 443/186/471 445/188/471 452/195/471
f 449/192/472 451/194/472 458/201/472
f 461/162/487 466/167/487 465/166/487
f 470/171/488 463/164/488 462/163/488
f 464/165/489 463/164/489 461/162/489
f 467/168/490 466/167/490 470/171/490
f 472/173/491 471/172/491 465/166/491
f 469/170/492 468/169/492 474/175/492
f 473/174/493 472/173/493 476/177/493
f 478/179/494 477/178/494 471/172/494
f 475/176/495 474/175/495 480/181/495
f 479/180/496 478/179/496 482/183/496
f 484/185/497 483/184/497 477/202/497
f 481/204/498 480/218/498 486/187/498
f 487/188/499 485/186/499 484/185/499
f 490/191/500 489/190/500 483/184/500
f 494/195/501 487/188/501 486/187/501
f 491/192/502 490/191/502 494/195/502
f 491/192/503 496/197/503 495/196/503
f 500/201/504 493/194/504 492/193/504
f 497/198/505 496/197/505 500/201/505
f 460/161/506 459/160/506 495/196/506
f 499/200/544 498/199/544 462/163/544
f 463/164/509 470/171/509 466/167/509
f 497/198/510 499/200/510 464/165/510
f 467/168/512 469/170/512 476/177/512
f 475/176/513 482/183/513 478/179/513
f 481/204/223 488/189/223 484/185/223
f 485/186/514 487/188/514 494/195/514
f 493/194/515 500/201/515 496/197/515
usemtl wood_end
f 149/129/181 167/130/181 175/131/181
f 147/132/184 177/131/184 169/130/184
f 219/134/216 189/129/216 207/130/216
f 187/132/219 209/130/219 201/135/219
f 273/205/288 279/206/288 255/207/288
f 252/208/291 282/206/291 270/209/291
f 327/210/332 297/207/332 309/209/332
f 312/209/335 306/211/335 294/208/335
f 339/207/376 351/209/376 363/206/376
f 366/206/379 360/205/379 354/209/379
f 411/210/420 381/207/420 393/209/420
f 396/209/423 390/211/423 378/208/423
f 441/205/464 447/206/464 423/207/464
f 444/205/467 438/209/467 420/208/467
f 495/210/508 465/207/508 477/209/508
f 462/208/511 492/206/511 480/209/511
f 179/134/181 145/132/181 149/129/181
f 149/129/181 155/215/181 159/135/181
f 159/135/181 163/216/181 149/129/181
f 163/216/181 167/130/181 149/129/181
f 167/130/181 171/217/181 175/131/181
f 175/131/181 179/134/181 149/129/181
f 157/215/184 152/129/184 147/132/184
f 147/132/184 182/134/184 177/131/184
f 177/131/184 173/217/184 169/130/184
f 169/130/184 165/216/184 161/135/184
f 161/135/184 157/215/184 169/130/184
f 157/215/184 147/132/184 169/130/184
f 219/134/216 185/132/216 189/129/216
f 189/129/216 195/215/216 199/135/216
f 199/135/216 203/216/216 189/129/216
f 203/216/216 207/130/216 189/129/216
f 207/130/216 211/217/216 215/131/216
f 215/131/216 219/134/216 207/130/216
f 197/215/219 192/129/219 201/135/219
f 192/129/219 187/132/219 201/135/219
f 187/132/219 222/134/219 217/131/219
f 217/131/219 213/217/219 209/130/219
f 209/130/219 205/216/219 201/135/219
f 187/132/219 217/131/219 209/130/219
f 285/210/288 249/208/288 279/206/288
f 249/208/288 255/207/288 279/206/288
f 255/207/288 261/211/288 267/209/288
f 267/209/288 273/205/288 255/207/288
f 264/211/291 258/207/291 252/208/291
f 252/208/291 288/210/291 282/206/291
f 282/206/291 276/205/291 270/209/291
f 270/209/291 264/211/291 252/208/291
f 327/210/531 291/208/531 297/207/531
f 297/207/531 303/211/531 309/209/531
f 309/209/531 315/205/531 321/206/531
f 321/206/531 327/210/531 309/209/531
f 306/211/335 300/207/335 294/208/335
f 294/208/335 330/210/335 324/206/335
f 324/206/335 318/205/335 294/208/335
f 318/205/335 312/209/335 294/208/335
f 369/210/376 333/208/376 363/206/376
f 333/208/376 339/207/376 363/206/376
f 339/207/376 345/211/376 351/209/376
f 351/209/376 357/205/376 363/206/376
f 348/211/379 342/207/379 354/209/379
f 342/207/379 336/208/379 354/209/379
f 336/208/379 372/210/379 354/209/379
f 372/210/379 366/206/379 354/209/379
f 411/210/420 375/208/420 381/207/420
f 381/207/420 387/211/420 393/209/420
f 393/209/420 399/205/420 405/206/420
f 405/206/420 411/210/420 393/209/420
f 390/211/423 384/207/423 378/208/423
f 378/208/423 414/210/423 408/206/423
f 408/206/423 402/205/423 378/208/423
f 402/205/423 396/209/423 378/208/423
f 453/210/464 417/208/464 447/206/464
f 417/208/464 423/207/464 447/206/464
f 423/207/464 429/211/464 435/209/464
f 435/209/464 441/205/464 423/207/464
f 432/211/467 426/207/467 438/209/467
f 426/207/467 420/208/467 438/209/467
f 420/208/467 456/210/467 450/206/467
f 450/206/467 444/205/467 420/208/467
f 495/210/508 459/208/508 465/207/508
f 465/207/508 471/211/508 477/209/508
f 477/209/508 483/205/508 489/206/508
f 489/206/508 495/210/508 477/209/508
f 474/211/511 468/207/511 462/208/511
f 462/208/511 498/210/511 492/206/511
f 492/206/511 486/205/511 480/209/511
f 480/209/511 474/211/511 462/208/511
usemtl iron
f 225/136/227 226/137/227 227/138/227
f 228/137/228 229/136/228 230/138/228
f 231/139/229 232/140/229 233/141/229
f 234/139/230 235/141/230 236/140/230
f 237/142/231 238/143/231 239/144/231
f 240/142/232 241/144/232 242/143/232
f 243/145/233 244/146/233 245/147/233
f 246/145/234 247/147/234 248/146/234
f 225/136/235 232/140/235 231/139/235
f 226/148/236 230/149/236 227/150/236
f 229/136/237 236/140/237 230/138/237
f 235/151/238 232/150/238 236/149/238
f 231/139/239 244/146/239 243/145/239
f 246/145/240 235/141/240 234/139/240
f 245/152/241 248/153/241 247/154/241
f 243/145/242 238/143/242 237/142/242
f 240/142/243 247/147/243 246/145/243
f 239/155/244 242/154/244 241/153/244
f 237/142/245 226/137/245 225/136/245
f 229/136/246 241/144/246 240/142/246
f 243/145/247 225/136/247 231/139/247
f 230/156/248 232/157/248 227/158/248
f 241/153/249 226/148/249 239/155/249
f 234/139/250 240/142/250 246/145/250
f 235/151/251 244/155/251 233/148/251
f 247/159/252 238/158/252 245/157/252
f 225/136/235 227/138/235 232/140/235
f 226/148/236 228/151/236 230/149/236
f 229/136/237 234/139/237 236/140/237
f 235/151/238 233/148/238 232/150/238
f 231/139/239 233/141/239 244/146/239
f 246/145/240 248/146/240 235/141/240
f 245/152/241 244/155/241 248/153/241
f 243/145/242 245/147/242 238/143/242
f 240/142/243 242/143/243 247/147/243
f 239/155/244 238/152/244 242/154/244
f 237/142/245 239/144/245 226/137/245
f 229/136/246 228/137/246 241/144/246
f 243/145/247 237/142/247 225/136/247
f 230/156/248 236/159/248 232/157/248
f 241/153/249 228/151/249 226/148/249
f 234/139/250 229/136/250 240/142/250
f 235/151/251 248/153/251 244/155/251
f 247/159/252 242/156/252 238/158/252
