# Blender 4.5.10 LTS
# www.blender.org
mtllib kynda_trough_timber.mtl
o kynda_trough_timber
v 0.650000 0.120000 -0.300000
v 0.650000 0.560000 -0.300000
v 0.650000 0.120000 0.300000
v 0.650000 0.560000 0.300000
v -0.650000 0.120000 -0.300000
v -0.650000 0.560000 -0.300000
v -0.650000 0.120000 0.300000
v -0.650000 0.560000 0.300000
v 0.480000 0.100000 -0.330000
v 0.480000 0.580000 -0.330000
v 0.480000 0.100000 0.330000
v 0.480000 0.580000 0.330000
v 0.400000 0.100000 -0.330000
v 0.400000 0.580000 -0.330000
v 0.400000 0.100000 0.330000
v 0.400000 0.580000 0.330000
v 0.040000 0.100000 -0.330000
v 0.040000 0.580000 -0.330000
v 0.040000 0.100000 0.330000
v 0.040000 0.580000 0.330000
v -0.040000 0.100000 -0.330000
v -0.040000 0.580000 -0.330000
v -0.040000 0.100000 0.330000
v -0.040000 0.580000 0.330000
v -0.400000 0.100000 -0.330000
v -0.400000 0.580000 -0.330000
v -0.400000 0.100000 0.330000
v -0.400000 0.580000 0.330000
v -0.480000 0.100000 -0.330000
v -0.480000 0.580000 -0.330000
v -0.480000 0.100000 0.330000
v -0.480000 0.580000 0.330000
v 0.427151 0.520000 0.258686
v 0.347859 0.720000 0.067258
v 0.212849 0.520000 0.258686
v 0.292141 0.720000 0.067258
v 0.061314 0.520000 0.107151
v 0.252742 0.720000 0.027859
v 0.061314 0.520000 -0.107151
v 0.252742 0.720000 -0.027859
v 0.212849 0.520000 -0.258686
v 0.292141 0.720000 -0.067258
v 0.427151 0.520000 -0.258686
v 0.347859 0.720000 -0.067258
v 0.578686 0.520000 -0.107151
v 0.387258 0.720000 -0.027859
v 0.578686 0.520000 0.107151
v 0.387258 0.720000 0.027859
v -0.212849 0.520000 0.258686
v -0.292141 0.720000 0.067258
v -0.427151 0.520000 0.258686
v -0.347859 0.720000 0.067258
v -0.578686 0.520000 0.107151
v -0.387258 0.720000 0.027859
v -0.578686 0.520000 -0.107151
v -0.387258 0.720000 -0.027859
v -0.427151 0.520000 -0.258686
v -0.347859 0.720000 -0.067258
v -0.212849 0.520000 -0.258686
v -0.292141 0.720000 -0.067258
v -0.061314 0.520000 -0.107151
v -0.252742 0.720000 -0.027859
v -0.061314 0.520000 0.107151
v -0.252742 0.720000 0.027859
v 0.590000 -0.000000 -0.300000
v 0.590000 0.140000 -0.300000
v 0.590000 -0.000000 0.300000
v 0.590000 0.140000 0.300000
v 0.450000 -0.000000 -0.300000
v 0.450000 0.140000 -0.300000
v 0.450000 -0.000000 0.300000
v 0.450000 0.140000 0.300000
v -0.450000 -0.000000 -0.300000
v -0.450000 0.140000 -0.300000
v -0.450000 -0.000000 0.300000
v -0.450000 0.140000 0.300000
v -0.590000 -0.000000 -0.300000
v -0.590000 0.140000 -0.300000
v -0.590000 -0.000000 0.300000
v -0.590000 0.140000 0.300000
vn 1.0000 -0.0000 -0.0000
vn -0.0000 -0.0000 1.0000
vn -1.0000 -0.0000 -0.0000
vn -0.0000 -0.0000 -1.0000
vn -0.0000 -1.0000 -0.0000
vn -0.0000 1.0000 -0.0000
vn -0.0000 0.6915 0.7224
vn -0.5108 0.6915 0.5108
vn -0.7224 0.6915 -0.0000
vn -0.5108 0.6915 -0.5108
vn -0.0000 0.6915 -0.7224
vn 0.5108 0.6915 -0.5108
vn 0.7224 0.6915 -0.0000
vn 0.5108 0.6915 0.5108
vt 0.045455 0.777778
vt 0.954545 0.166667
vt 0.045455 0.166667
vt 0.954545 0.777778
vt 0.954545 0.805556
vt 0.045455 0.194444
vt 0.045455 0.805556
vt 0.954545 0.194444
vt 0.000000 0.805556
vt 1.000000 0.138889
vt 0.000000 0.138889
vt 0.164336 0.805556
vt 0.220280 0.138889
vt 0.164336 0.138889
vt 1.000000 0.805556
vt 0.220280 0.805556
vt 0.220280 0.836111
vt 0.164336 0.163889
vt 0.164336 0.836111
vt 0.220280 0.163889
vt 0.472028 0.805556
vt 0.527972 0.138889
vt 0.472028 0.138889
vt 0.527972 0.805556
vt 0.527972 0.836111
vt 0.472028 0.163889
vt 0.472028 0.836111
vt 0.527972 0.163889
vt 0.779720 0.805556
vt 0.835664 0.138889
vt 0.779720 0.138889
vt 0.835664 0.805556
vt 0.835664 0.836111
vt 0.779720 0.163889
vt 0.779720 0.836111
vt 0.835664 0.163889
vt 0.256742 1.000000
vt 0.351155 0.722222
vt 0.201293 0.722222
vt 0.601907 1.000000
vt 0.662351 0.722222
vt 0.891949 0.722222
vt 0.542211 1.000000
vt 0.337649 0.722222
vt 0.398093 1.000000
vt 0.108051 0.722222
vt 0.295706 1.000000
vt 0.201293 0.722222
vt 0.323258 0.471625
vt 0.323258 0.528375
vt 0.229190 0.471625
vt 0.457789 1.000000
vt 0.662351 0.722222
vt 0.095324 0.390864
vt 0.095324 0.609136
vt 0.457123 0.390864
vt 0.704294 1.000000
vt 0.798707 0.722222
vt 0.648845 0.722222
vt 0.743258 1.000000
vt 0.770810 0.471625
vt 0.770810 0.528375
vt 0.676742 0.471625
vt 0.542877 0.390864
vt 0.542877 0.609136
vt 0.904676 0.390864
vt 0.954545 0.000000
vt 0.045455 0.000000
vt 0.087413 0.194444
vt 0.185315 0.000000
vt 0.087413 0.000000
vt 0.185315 0.194444
vt 0.185315 0.805556
vt 0.087413 0.805556
vt 0.814685 0.194444
vt 0.912588 0.000000
vt 0.814685 0.000000
vt 0.912588 0.194444
vt 0.912588 0.805556
vt 0.814685 0.805556
vt 0.295706 0.568504
vt 0.256742 0.568504
vt 0.229190 0.528375
vt 0.256742 0.431496
vt 0.295706 0.431496
vt 0.201293 0.763477
vt 0.351155 0.763477
vt 0.457123 0.609136
vt 0.351155 0.236523
vt 0.201293 0.236523
vt 0.743258 0.568504
vt 0.704294 0.568504
vt 0.676742 0.528375
vt 0.704294 0.431496
vt 0.743258 0.431496
vt 0.648845 0.763477
vt 0.798707 0.763477
vt 0.904676 0.609136
vt 0.798707 0.236523
vt 0.648845 0.236523
s 0
usemtl wood
f 2/1/1 3/2/1 1/3/1
f 4/1/2 7/2/2 3/3/2
f 8/4/3 5/3/3 7/2/3
f 6/4/4 1/3/4 5/2/4
f 7/5/5 1/6/5 3/7/5
f 4/7/6 6/8/6 8/5/6
f 66/6/1 67/67/1 65/68/1
f 68/69/2 71/70/2 67/71/2
f 72/8/3 69/68/3 71/67/3
f 70/72/4 65/71/4 69/70/4
f 71/73/5 65/69/5 67/74/5
f 68/74/6 70/72/6 72/73/6
f 74/6/1 75/67/1 73/68/1
f 76/75/2 79/76/2 75/77/2
f 80/8/3 77/68/3 79/67/3
f 78/78/4 73/77/4 77/76/4
f 79/79/5 73/75/5 75/80/5
f 76/80/6 78/78/6 80/79/6
f 2/1/1 4/4/1 3/2/1
f 4/1/2 8/4/2 7/2/2
f 8/4/3 6/1/3 5/3/3
f 6/4/4 2/1/4 1/3/4
f 7/5/5 5/8/5 1/6/5
f 4/7/6 2/6/6 6/8/6
f 66/6/1 68/8/1 67/67/1
f 68/69/2 72/72/2 71/70/2
f 72/8/3 70/6/3 69/68/3
f 70/72/4 66/69/4 65/71/4
f 71/73/5 69/72/5 65/69/5
f 68/74/6 66/69/6 70/72/6
f 74/6/1 76/8/1 75/67/1
f 76/75/2 80/78/2 79/76/2
f 80/8/3 78/6/3 77/68/3
f 78/78/4 74/75/4 73/77/4
f 79/79/5 77/78/5 73/75/5
f 76/80/6 74/75/6 78/78/6
usemtl iron
f 10/9/1 11/10/1 9/11/1
f 12/12/2 15/13/2 11/14/2
f 16/15/3 13/11/3 15/10/3
f 14/16/4 9/14/4 13/13/4
f 15/17/5 9/18/5 11/19/5
f 12/19/6 14/20/6 16/17/6
f 18/9/1 19/10/1 17/11/1
f 20/21/2 23/22/2 19/23/2
f 24/15/3 21/11/3 23/10/3
f 22/24/4 17/23/4 21/22/4
f 23/25/5 17/26/5 19/27/5
f 20/27/6 22/28/6 24/25/6
f 26/9/1 27/10/1 25/11/1
f 28/29/2 31/30/2 27/31/2
f 32/15/3 29/11/3 31/10/3
f 30/32/4 25/31/4 29/30/4
f 31/33/5 25/34/5 27/35/5
f 28/35/6 30/36/6 32/33/6
f 10/9/1 12/15/1 11/10/1
f 12/12/2 16/16/2 15/13/2
f 16/15/3 14/9/3 13/11/3
f 14/16/4 10/12/4 9/14/4
f 15/17/5 13/20/5 9/18/5
f 12/19/6 10/18/6 14/20/6
f 18/9/1 20/15/1 19/10/1
f 20/21/2 24/24/2 23/22/2
f 24/15/3 22/9/3 21/11/3
f 22/24/4 18/21/4 17/23/4
f 23/25/5 21/28/5 17/26/5
f 20/27/6 18/26/6 22/28/6
f 26/9/1 28/15/1 27/10/1
f 28/29/2 32/32/2 31/30/2
f 32/15/3 30/9/3 29/11/3
f 30/32/4 26/29/4 25/31/4
f 31/33/5 29/36/5 25/34/5
f 28/35/6 26/34/6 30/36/6
usemtl coal
f 34/37/7 35/38/7 33/39/7
f 36/40/8 37/41/8 35/42/8
f 38/43/9 39/44/9 37/41/9
f 39/44/10 42/45/10 41/46/10
f 42/47/11 43/48/11 41/38/11
f 44/45/12 45/44/12 43/46/12
f 40/49/6 38/50/6 46/51/6
f 46/52/13 47/53/13 45/44/13
f 47/53/14 34/40/14 33/42/14
f 45/54/5 47/55/5 39/56/5
f 34/37/7 36/47/7 35/38/7
f 36/40/8 38/43/8 37/41/8
f 38/43/9 40/52/9 39/44/9
f 39/44/10 40/52/10 42/45/10
f 42/47/11 44/37/11 43/48/11
f 44/45/12 46/52/12 45/44/12
f 38/50/6 36/81/6 34/82/6
f 34/82/6 48/83/6 38/50/6
f 48/83/6 46/51/6 38/50/6
f 46/51/6 44/84/6 42/85/6
f 42/85/6 40/49/6 46/51/6
f 46/52/13 48/43/13 47/53/13
f 47/53/14 48/43/14 34/40/14
f 47/55/5 33/86/5 35/87/5
f 35/87/5 37/88/5 47/55/5
f 37/88/5 39/56/5 47/55/5
f 39/56/5 41/89/5 43/90/5
f 43/90/5 45/54/5 39/56/5
usemtl ore
f 50/57/7 51/58/7 49/59/7
f 52/40/8 53/41/8 51/42/8
f 54/43/9 55/44/9 53/41/9
f 55/44/10 58/45/10 57/46/10
f 58/60/11 59/59/11 57/58/11
f 60/45/12 61/44/12 59/46/12
f 56/61/6 54/62/6 62/63/6
f 62/52/13 63/53/13 61/44/13
f 63/53/14 50/40/14 49/42/14
f 61/64/5 63/65/5 55/66/5
f 50/57/7 52/60/7 51/58/7
f 52/40/8 54/43/8 53/41/8
f 54/43/9 56/52/9 55/44/9
f 55/44/10 56/52/10 58/45/10
f 58/60/11 60/57/11 59/59/11
f 60/45/12 62/52/12 61/44/12
f 54/62/6 52/91/6 50/92/6
f 50/92/6 64/93/6 54/62/6
f 64/93/6 62/63/6 54/62/6
f 62/63/6 60/94/6 58/95/6
f 58/95/6 56/61/6 62/63/6
f 62/52/13 64/43/13 63/53/13
f 63/53/14 64/43/14 50/40/14
f 63/65/5 49/96/5 51/97/5
f 51/97/5 53/98/5 63/65/5
f 53/98/5 55/66/5 63/65/5
f 55/66/5 57/99/5 59/100/5
f 59/100/5 61/64/5 55/66/5
