# Blender 4.5.10 LTS
# www.blender.org
mtllib kynda_smelter_skip.mtl
o kynda_smelter_skip
v 0.530485 0.043811 -0.385000
v 0.358407 1.130268 -0.385000
v 0.530485 0.043811 -0.295000
v 0.358407 1.130268 -0.295000
v 0.441593 0.029732 -0.385000
v 0.269515 1.116189 -0.385000
v 0.441593 0.029732 -0.295000
v 0.269515 1.116189 -0.295000
v -0.441593 0.029732 -0.385000
v -0.269515 1.116189 -0.385000
v -0.441593 0.029732 -0.295000
v -0.269515 1.116189 -0.295000
v -0.530485 0.043811 -0.385000
v -0.358407 1.130268 -0.385000
v -0.530485 0.043811 -0.295000
v -0.358407 1.130268 -0.295000
v 0.530485 0.043811 0.295000
v 0.358407 1.130268 0.295000
v 0.530485 0.043811 0.385000
v 0.358407 1.130268 0.385000
v 0.441593 0.029732 0.295000
v 0.269515 1.116189 0.295000
v 0.441593 0.029732 0.385000
v 0.269515 1.116189 0.385000
v -0.441593 0.029732 0.295000
v -0.269515 1.116189 0.295000
v -0.441593 0.029732 0.385000
v -0.269515 1.116189 0.385000
v -0.530485 0.043811 0.295000
v -0.358407 1.130268 0.295000
v -0.530485 0.043811 0.385000
v -0.358407 1.130268 0.385000
v 0.530000 1.090000 -0.390000
v 0.530000 1.190000 -0.390000
v 0.530000 1.090000 -0.290000
v 0.530000 1.190000 -0.290000
v -0.530000 1.090000 -0.390000
v -0.530000 1.190000 -0.390000
v -0.530000 1.090000 -0.290000
v -0.530000 1.190000 -0.290000
v 0.530000 1.090000 0.290000
v 0.530000 1.190000 0.290000
v 0.530000 1.090000 0.390000
v 0.530000 1.190000 0.390000
v -0.530000 1.090000 0.290000
v -0.530000 1.190000 0.290000
v -0.530000 1.090000 0.390000
v -0.530000 1.190000 0.390000
v 0.050000 1.090000 -0.430000
v 0.050000 1.190000 -0.430000
v 0.050000 1.090000 0.430000
v 0.050000 1.190000 0.430000
v -0.050000 1.090000 -0.430000
v -0.050000 1.190000 -0.430000
v -0.050000 1.090000 0.430000
v -0.050000 1.190000 0.430000
v 0.020000 0.830000 -0.150000
v 0.020000 1.130000 -0.150000
v 0.020000 0.830000 -0.110000
v 0.020000 1.130000 -0.110000
v -0.020000 0.830000 -0.150000
v -0.020000 1.130000 -0.150000
v -0.020000 0.830000 -0.110000
v -0.020000 1.130000 -0.110000
v 0.020000 0.830000 0.110000
v 0.020000 1.130000 0.110000
v 0.020000 0.830000 0.150000
v 0.020000 1.130000 0.150000
v -0.020000 0.830000 0.110000
v -0.020000 1.130000 0.110000
v -0.020000 0.830000 0.150000
v -0.020000 1.130000 0.150000
v 0.000000 0.390000 0.240000
v 0.000000 0.850000 0.360000
v -0.207846 0.390000 0.120000
v -0.311769 0.850000 0.180000
v -0.207846 0.390000 -0.120000
v -0.311769 0.850000 -0.180000
v 0.000000 0.390000 -0.240000
v 0.000000 0.850000 -0.360000
v 0.207846 0.390000 -0.120000
v 0.311769 0.850000 -0.180000
v 0.207846 0.390000 0.120000
v 0.311769 0.850000 0.180000
v 0.310000 0.805000 -0.050000
v 0.310000 0.875000 -0.050000
v 0.310000 0.805000 0.050000
v 0.310000 0.875000 0.050000
v -0.310000 0.805000 -0.050000
v -0.310000 0.875000 -0.050000
v -0.310000 0.805000 0.050000
v -0.310000 0.875000 0.050000
v 0.000847 0.712991 -0.136701
v -0.020063 0.801116 -0.137066
v 0.126721 0.742867 -0.134504
v 0.105811 0.830992 -0.134869
v -0.001411 0.712991 -0.007331
v -0.022321 0.801116 -0.007696
v 0.124463 0.742867 -0.005134
v 0.103553 0.830992 -0.005499
v -0.130115 0.701471 -0.141329
v -0.147758 0.800700 -0.147404
v 0.003918 0.728128 -0.095178
v -0.013725 0.827357 -0.101253
v -0.177075 0.701471 -0.004947
v -0.194718 0.800700 -0.011022
v -0.043042 0.728128 0.041204
v -0.060685 0.827357 0.035129
v 0.086373 0.675861 -0.042293
v 0.065032 0.801029 -0.050485
v 0.253309 0.708518 0.021788
v 0.231967 0.833686 0.013596
v 0.021233 0.675861 0.127404
v -0.000109 0.801029 0.119212
v 0.188168 0.708518 0.191485
v 0.166827 0.833686 0.183293
v -0.071667 0.695809 -0.114806
v -0.074236 0.826064 -0.121498
v -0.004982 0.706049 0.058913
v -0.007551 0.836304 0.052221
v -0.245649 0.695809 -0.048021
v -0.248218 0.826064 -0.054713
v -0.178964 0.706049 0.125698
v -0.181533 0.836304 0.119006
v -0.065349 0.716283 -0.068747
v -0.069494 0.815224 -0.075645
v 0.007448 0.727780 0.052408
v 0.003304 0.826720 0.045510
v -0.186904 0.716283 0.004290
v -0.191048 0.815224 -0.002608
v -0.114106 0.727780 0.125445
v -0.118251 0.826720 0.118547
v -0.068483 0.021566 0.036882
v -0.070320 0.134893 0.031548
v -0.015775 0.029625 0.189958
v -0.017611 0.142953 0.184624
v -0.221749 0.021566 0.089656
v -0.223585 0.134893 0.084322
v -0.169040 0.029625 0.242732
v -0.170877 0.142953 0.237398
v -0.172563 0.017687 0.355652
v -0.183631 0.116924 0.347311
v -0.059343 0.037485 0.440969
v -0.070411 0.136722 0.432629
v -0.258709 0.017687 0.469971
v -0.269777 0.116924 0.461631
v -0.145489 0.037485 0.555289
v -0.156557 0.136722 0.546948
v -0.106680 0.022121 0.236406
v -0.107860 0.138121 0.232004
v -0.063790 0.028632 0.396473
v -0.064970 0.144632 0.392071
v -0.266870 0.022121 0.279329
v -0.268050 0.138121 0.274927
v -0.223980 0.028632 0.439396
v -0.225160 0.144632 0.434994
v 0.059550 0.023918 0.063567
v 0.046232 0.136050 0.054242
v 0.190769 0.047144 0.155447
v 0.177451 0.159276 0.146122
v -0.033291 0.023918 0.196158
v -0.046609 0.136050 0.186832
v 0.097928 0.047144 0.288038
v 0.084610 0.159276 0.278713
v 0.570000 0.000000 -0.470000
v 0.570000 0.100000 -0.470000
v 0.570000 0.000000 0.470000
v 0.570000 0.100000 0.470000
v -0.570000 0.000000 -0.470000
v -0.570000 0.100000 -0.470000
v -0.570000 0.000000 0.470000
v -0.570000 0.100000 0.470000
vn 0.9877 0.1564 -0.0000
vn -0.0000 -0.0000 1.0000
vn -0.9877 -0.1564 -0.0000
vn -0.0000 -0.0000 -1.0000
vn 0.1564 -0.9877 -0.0000
vn -0.1564 0.9877 -0.0000
vn 0.9877 -0.1564 -0.0000
vn -0.9877 0.1564 -0.0000
vn -0.1564 -0.9877 -0.0000
vn 0.1564 0.9877 -0.0000
vn 1.0000 -0.0000 -0.0000
vn -1.0000 -0.0000 -0.0000
vn -0.0000 -1.0000 -0.0000
vn -0.0000 1.0000 -0.0000
vn -0.4877 -0.2204 0.8447
vn -0.9754 -0.2204 -0.0000
vn -0.4877 -0.2204 -0.8447
vn 0.4877 -0.2204 -0.8447
vn 0.9754 -0.2204 -0.0000
vn 0.4877 -0.2204 0.8447
vn 0.0175 -0.0000 -0.9998
vn 0.9728 0.2309 0.0170
vn -0.0175 -0.0000 0.9998
vn -0.9728 -0.2309 -0.0170
vn 0.2309 -0.9730 0.0040
vn -0.2309 0.9730 -0.0040
vn 0.3256 -0.0000 -0.9455
vn 0.9292 0.1848 0.3200
vn -0.3256 -0.0000 0.9455
vn -0.9292 -0.1848 -0.3200
vn 0.1747 -0.9828 0.0602
vn -0.1747 0.9828 -0.0602
vn 0.3584 -0.0000 -0.9336
vn 0.9184 0.1797 0.3525
vn -0.3584 -0.0000 0.9336
vn -0.9184 -0.1797 -0.3525
vn 0.1677 -0.9837 0.0644
vn -0.1677 0.9837 -0.0644
vn 0.9336 -0.0000 -0.3584
vn 0.3578 0.0549 0.9322
vn -0.9336 -0.0000 0.3584
vn -0.3578 -0.0550 -0.9322
vn 0.0197 -0.9985 0.0513
vn -0.0197 0.9985 -0.0513
vn 0.8572 -0.0000 -0.5150
vn 0.5133 0.0811 0.8543
vn -0.8572 -0.0000 0.5150
vn -0.5133 -0.0811 -0.8543
vn 0.0418 -0.9967 0.0695
vn -0.0418 0.9967 -0.0695
vn 0.9455 -0.0000 -0.3256
vn 0.3252 0.0497 0.9443
vn -0.9455 -0.0000 0.3256
vn -0.3252 -0.0497 -0.9443
vn 0.0162 -0.9988 0.0470
vn -0.0162 0.9988 -0.0470
vn 0.6018 -0.0000 -0.7986
vn 0.7910 0.1383 0.5960
vn -0.6018 -0.0000 0.7986
vn -0.7910 -0.1383 -0.5960
vn 0.1105 -0.9904 0.0832
vn -0.1105 0.9904 -0.0832
vn 0.9659 -0.0000 -0.2588
vn 0.2586 0.0393 0.9652
vn -0.9659 -0.0000 0.2588
vn -0.2586 -0.0393 -0.9652
vn 0.0102 -0.9992 0.0379
vn -0.0102 0.9992 -0.0379
vn 0.5736 -0.0000 -0.8192
vn 0.8107 0.1435 0.5676
vn -0.5736 -0.0000 0.8192
vn -0.8107 -0.1435 -0.5676
vn 0.1175 -0.9897 0.0823
vn -0.1175 0.9897 -0.0823
vn 0.3578 0.0550 0.9322
vt -4.251603 0.932491
vt -3.251603 -0.067509
vt -4.251603 -0.067509
vt -4.583140 0.932491
vt -3.583140 -0.067509
vt -4.583140 -0.067509
vt -3.251603 0.932491
vt -3.583140 0.932491
vt -3.583140 -3.251603
vt -4.583140 -4.251603
vt -4.583140 -3.251603
vt -3.583140 -4.251603
vt 2.332346 -4.251603
vt 6.109220 -3.251603
vt 6.109220 -4.251603
vt 6.109220 0.058091
vt 3.283402 1.034431
vt 7.060277 0.083374
vt 3.283402 -3.251603
vt 7.060277 -4.251603
vt 7.060277 -3.251603
vt 2.332346 -3.251603
vt 3.283402 -4.251603
vt 3.303953 0.932491
vt 4.303953 -0.067509
vt 3.303953 -0.067509
vt -4.583140 0.932491
vt -3.583140 -0.067509
vt -4.583140 -0.067509
vt 4.303953 0.932491
vt -3.583140 4.303953
vt -4.583140 3.303953
vt -4.583140 4.303953
vt -3.583140 3.303953
vt 2.332346 3.303953
vt 6.109220 4.303953
vt 6.109220 3.303953
vt 3.283402 4.303953
vt 7.060277 3.303953
vt 7.060277 4.303953
vt 2.332346 4.303953
vt 3.283402 3.303953
vt -6.570078 -4.307158
vt -6.396263 -3.196047
vt -6.396263 -4.307158
vt -6.396263 0.871931
vt 5.062695 1.112467
vt 5.236511 1.022677
vt 5.062695 -3.196047
vt 5.236511 -4.307158
vt 5.236511 -3.196047
vt -6.570078 -3.196047
vt 5.062695 -4.307158
vt -6.570078 3.248397
vt -6.396263 4.359508
vt -6.396263 3.248397
vt 5.062695 4.359508
vt 5.236511 3.248397
vt 5.236511 4.359508
vt -6.570078 4.359508
vt 5.062695 3.248397
vt -1.302408 -4.751603
vt -1.128592 4.803953
vt -1.128592 -4.751603
vt -1.128592 0.940193
vt -0.204976 1.044204
vt -0.031160 0.954415
vt -0.204976 4.803953
vt -0.031160 -4.751603
vt -0.031160 4.803953
vt -1.302408 4.803953
vt -0.204976 -4.751603
vt -0.868888 -1.640492
vt -0.347440 -1.196047
vt -0.347440 -1.640492
vt -0.347440 0.711006
vt -0.429916 0.986064
vt 0.091532 0.716695
vt -0.429916 -1.196047
vt 0.091532 -1.640492
vt 0.091532 -1.196047
vt -0.868888 -1.196047
vt -0.429916 -1.640492
vt -0.868888 1.248397
vt -0.347440 1.692842
vt -0.347440 1.248397
vt -0.429916 1.692842
vt 0.091532 1.248397
vt 0.091532 1.692842
vt -0.868888 1.692842
vt -0.429916 1.248397
vt 0.636837 2.692841
vt 3.258735 2.026175
vt 2.917805 1.359508
vt 1.359508 0.348334
vt -1.973825 0.776146
vt -1.307158 0.348334
vt 3.258735 -1.973825
vt 0.636837 -2.640492
vt 2.917805 -1.307158
vt -0.162717 -3.973825
vt -1.644132 -1.307158
vt -3.584170 -1.973825
vt -1.644132 1.359508
vt -0.162717 4.026175
vt -3.608209 -0.529381
vt -3.486538 0.581730
vt -3.486538 -0.529381
vt -3.486538 0.647317
vt 3.195866 0.798342
vt 3.317538 0.735489
vt 3.195866 0.581730
vt 3.317538 -0.529381
vt 3.317538 0.581730
vt -3.608209 0.581730
vt 3.195866 -0.529381
vt 0.066133 0.608667
vt -1.290885 0.699694
vt -1.367182 0.617592
vt -1.468315 0.617592
vt -0.034923 0.700015
vt -0.030867 0.617913
vt -1.266103 0.700015
vt 0.090915 0.608989
vt -1.342400 0.617913
vt -0.059335 0.691090
vt -1.492728 0.608667
vt -0.055280 0.608989
vt -1.342400 -0.030867
vt 0.066133 -1.492728
vt -1.367182 -1.468315
vt -1.266103 -0.034923
vt 0.142430 -1.496783
vt 0.167212 -0.059335
vt 1.523368 0.616948
vt 0.027267 0.713429
vt 0.006121 0.621822
vt -1.031356 0.621822
vt 0.416495 0.720107
vt 0.483995 0.628501
vt 0.542621 0.720107
vt 2.038722 0.623627
vt 0.521474 0.628501
vt -0.096294 0.715233
vt -1.544145 0.616948
vt -0.028794 0.623627
vt 0.521474 0.483995
vt 1.523368 -1.544145
vt 0.006121 -1.031356
vt 0.542621 0.416495
vt 1.544515 -1.611645
vt 2.059868 -0.096294
vt -0.807922 0.563166
vt -2.680045 0.684172
vt -2.696690 0.568748
vt 0.268263 0.568748
vt 2.062759 0.693435
vt 2.153784 0.578012
vt -1.965172 0.693435
vt -0.093049 0.572429
vt -1.981817 0.578012
vt 1.350752 0.687853
vt -0.443744 0.563166
vt 1.441778 0.572429
vt -1.981817 2.153784
vt -0.807922 -0.443744
vt -2.696690 0.268263
vt -1.965172 2.062759
vt -0.791277 -0.534769
vt -0.076404 1.350752
vt 0.693573 -1.323808
vt 0.142169 0.680764
vt 0.891786 -1.249450
vt 0.142169 0.603264
vt 1.853291 0.745327
vt 2.051503 0.628006
vt 2.051503 1.422824
vt 2.602908 -0.581747
vt 2.801119 -0.507389
vt 2.602908 0.745616
vt 0.891786 0.603552
vt 2.801119 0.628295
vt -0.056043 0.606405
vt 1.853291 1.348466
vt 0.660373 -0.814327
vt -0.032020 0.608482
vt 0.786861 -0.737682
vt -0.032020 0.621008
vt 1.175473 0.727722
vt 1.301961 0.638294
vt 1.301961 1.420010
vt 1.994355 -0.002799
vt 2.120843 0.073846
vt 1.994355 0.727752
vt 0.786861 0.621038
vt 2.120843 0.638325
vt -0.158508 0.531837
vt 1.175473 1.343366
vt 1.851964 0.376707
vt 1.436341 2.136824
vt 2.028788 0.435978
vt 1.436341 -0.002561
vt 2.941503 0.121253
vt 3.118327 0.019235
vt 3.118327 2.723198
vt 3.533950 0.963081
vt 3.710774 1.022352
vt 3.533950 0.121512
vt 2.028788 -0.002302
vt 3.710774 0.019494
vt 1.259517 2.077553
vt 2.941503 2.663927
vt 3.177742 3.977861
vt 1.849786 4.833166
vt 1.900813 4.925835
vt 4.925835 0.010692
vt 6.103378 0.113622
vt 6.196047 0.022943
vt 2.795175 6.103378
vt 4.123130 5.248073
vt 2.846202 6.196047
vt 5.155404 0.111947
vt 3.977861 0.009017
vt 5.248073 0.021268
vt 3.126714 3.885191
vt 4.072103 5.155404
vt 2.258329 2.603998
vt 1.965006 4.431430
vt 2.447009 2.652913
vt 1.965006 0.003375
vt 3.534303 0.130480
vt 3.722983 0.026157
vt 3.722983 4.908350
vt 4.016305 3.080918
vt 4.204985 3.129833
vt 4.016305 0.130733
vt 2.447009 0.003629
vt 4.204985 0.026410
vt 1.776327 4.382516
vt 3.534303 4.859437
vt 0.619622 0.732480
vt -0.909526 1.649754
vt -0.860780 1.753369
vt 1.753369 -0.016204
vt 3.122981 0.099576
vt 3.226595 -0.003001
vt 0.109338 3.122981
vt 1.638486 2.205707
vt 0.158085 3.226595
vt 2.102091 0.097382
vt 0.732480 -0.018398
vt 2.205707 -0.005195
vt 0.570875 0.628865
vt 1.589739 2.102091
vt -5.114456 -5.196047
vt -4.940640 5.248396
vt -4.940640 -5.196047
vt -4.940640 -0.112467
vt 7.396263 0.139446
vt 7.570078 0.049656
vt 7.396263 5.248396
vt 7.570078 -5.196047
vt 7.570078 5.248396
vt -5.114456 5.248396
vt 7.396263 -5.196047
vt 2.332346 1.009148
vt -3.583140 0.932491
vt -6.570078 0.961721
vt -1.302408 1.029983
vt -0.868888 0.980376
vt 2.026175 0.776146
vt -3.584170 2.026175
vt -3.608209 0.710170
vt 0.142430 0.690769
vt -1.472370 0.699694
vt 0.167212 0.691090
vt -1.496783 0.690769
vt 0.090915 -0.055280
vt -1.290885 -1.472370
vt 1.544515 0.708555
vt -1.098856 0.713429
vt 2.059868 0.715233
vt -1.611645 0.708555
vt 2.038722 -0.028794
vt 0.027267 -1.098856
vt -0.791277 0.678589
vt 0.177238 0.684172
vt -0.076404 0.687853
vt -0.534769 0.678589
vt -0.093049 1.441778
vt -2.680045 0.177238
vt -0.056043 0.720585
vt 0.693573 0.720873
vt -0.158508 0.710435
vt 0.660373 0.710466
vt 1.259517 0.099456
vt 1.851964 0.099715
vt 4.833166 0.101371
vt 3.885191 0.099696
vt 1.776327 0.107699
vt 2.258329 0.107952
vt 1.649754 0.086373
vt 0.628865 0.084179
vt -5.114456 -0.022677
s 0
usemtl wood
f 2/1/1 3/2/1 1/3/1
f 4/4/2 7/5/2 3/6/2
f 8/7/3 5/3/3 7/2/3
f 6/8/4 1/6/4 5/5/4
f 7/9/5 1/10/5 3/11/5
f 4/11/6 6/12/6 8/9/6
f 10/13/7 11/14/7 9/15/7
f 11/16/2 16/17/2 15/18/2
f 16/19/8 13/20/8 15/21/8
f 14/17/4 9/16/4 13/18/4
f 15/21/9 9/15/9 11/14/9
f 12/22/10 14/23/10 16/19/10
f 18/24/1 19/25/1 17/26/1
f 20/27/2 23/28/2 19/29/2
f 24/30/3 21/26/3 23/25/3
f 21/28/4 18/27/4 17/29/4
f 23/31/5 17/32/5 19/33/5
f 20/33/6 22/34/6 24/31/6
f 26/35/7 27/36/7 25/37/7
f 27/16/2 32/17/2 31/18/2
f 32/38/8 29/39/8 31/40/8
f 30/17/4 25/16/4 29/18/4
f 31/40/9 25/37/9 27/36/9
f 28/41/10 30/42/10 32/38/10
f 34/43/11 35/44/11 33/45/11
f 35/46/2 40/47/2 39/48/2
f 40/49/12 37/50/12 39/51/12
f 38/47/4 33/46/4 37/48/4
f 39/51/13 33/45/13 35/44/13
f 36/52/14 38/53/14 40/49/14
f 42/54/11 43/55/11 41/56/11
f 43/46/2 48/47/2 47/48/2
f 48/57/12 45/58/12 47/59/12
f 46/47/4 41/46/4 45/48/4
f 47/59/13 41/56/13 43/55/13
f 44/60/14 46/61/14 48/57/14
f 50/62/11 51/63/11 49/64/11
f 51/65/2 56/66/2 55/67/2
f 56/68/12 53/69/12 55/70/12
f 54/66/4 49/65/4 53/67/4
f 55/70/13 49/64/13 51/63/13
f 52/71/14 54/72/14 56/68/14
f 2/1/1 4/7/1 3/2/1
f 4/4/2 8/8/2 7/5/2
f 8/7/3 6/1/3 5/3/3
f 6/8/4 2/4/4 1/6/4
f 7/9/5 5/12/5 1/10/5
f 4/11/6 2/10/6 6/12/6
f 10/13/7 12/22/7 11/14/7
f 11/16/2 12/266/2 16/17/2
f 16/19/8 14/23/8 13/20/8
f 14/17/4 10/266/4 9/16/4
f 15/21/9 13/20/9 9/15/9
f 12/22/10 10/13/10 14/23/10
f 18/24/1 20/30/1 19/25/1
f 20/27/2 24/267/2 23/28/2
f 24/30/3 22/24/3 21/26/3
f 21/28/4 22/267/4 18/27/4
f 23/31/5 21/34/5 17/32/5
f 20/33/6 18/32/6 22/34/6
f 26/35/7 28/41/7 27/36/7
f 27/16/2 28/266/2 32/17/2
f 32/38/8 30/42/8 29/39/8
f 30/17/4 26/266/4 25/16/4
f 31/40/9 29/39/9 25/37/9
f 28/41/10 26/35/10 30/42/10
f 34/43/11 36/52/11 35/44/11
f 35/46/2 36/268/2 40/47/2
f 40/49/12 38/53/12 37/50/12
f 38/47/4 34/268/4 33/46/4
f 39/51/13 37/50/13 33/45/13
f 36/52/14 34/43/14 38/53/14
f 42/54/11 44/60/11 43/55/11
f 43/46/2 44/268/2 48/47/2
f 48/57/12 46/61/12 45/58/12
f 46/47/4 42/268/4 41/46/4
f 47/59/13 45/58/13 41/56/13
f 44/60/14 42/54/14 46/61/14
f 50/62/11 52/71/11 51/63/11
f 51/65/2 52/269/2 56/66/2
f 56/68/12 54/72/12 53/69/12
f 54/66/4 50/269/4 49/65/4
f 55/70/13 53/69/13 49/64/13
f 52/71/14 50/62/14 54/72/14
usemtl iron
f 58/73/11 59/74/11 57/75/11
f 59/76/2 64/77/2 63/78/2
f 64/79/12 61/80/12 63/81/12
f 62/77/4 57/76/4 61/78/4
f 63/81/13 57/75/13 59/74/13
f 60/82/14 62/83/14 64/79/14
f 66/84/11 67/85/11 65/86/11
f 67/76/2 72/77/2 71/78/2
f 72/87/12 69/88/12 71/89/12
f 70/77/4 65/76/4 69/78/4
f 71/89/13 65/86/13 67/85/13
f 68/90/14 70/91/14 72/87/14
f 73/92/15 76/93/15 75/94/15
f 75/95/16 78/96/16 77/97/16
f 78/98/17 79/99/17 77/100/17
f 80/101/18 81/102/18 79/99/18
f 82/103/14 80/101/14 78/98/14
f 82/103/19 83/104/19 81/102/19
f 83/104/20 74/105/20 73/92/20
f 81/102/13 83/104/13 75/94/13
f 86/106/11 87/107/11 85/108/11
f 87/109/2 92/110/2 91/111/2
f 92/112/12 89/113/12 91/114/12
f 90/110/4 85/109/4 89/111/4
f 91/114/13 85/108/13 87/107/13
f 88/115/14 90/116/14 92/112/14
f 58/73/11 60/82/11 59/74/11
f 59/76/2 60/270/2 64/77/2
f 64/79/12 62/83/12 61/80/12
f 62/77/4 58/270/4 57/76/4
f 63/81/13 61/80/13 57/75/13
f 60/82/14 58/73/14 62/83/14
f 66/84/11 68/90/11 67/85/11
f 67/76/2 68/270/2 72/77/2
f 72/87/12 70/91/12 69/88/12
f 70/77/4 66/270/4 65/76/4
f 71/89/13 69/88/13 65/86/13
f 68/90/14 66/84/14 70/91/14
f 73/92/15 74/105/15 76/93/15
f 75/95/16 76/271/16 78/96/16
f 78/98/17 80/101/17 79/99/17
f 80/101/18 82/103/18 81/102/18
f 78/98/14 76/93/14 82/103/14
f 76/93/14 74/105/14 84/272/14
f 82/103/14 76/93/14 84/272/14
f 82/103/19 84/272/19 83/104/19
f 83/104/20 84/272/20 74/105/20
f 83/104/13 73/92/13 75/94/13
f 75/94/13 77/100/13 81/102/13
f 77/100/13 79/99/13 81/102/13
f 86/106/11 88/115/11 87/107/11
f 87/109/2 88/273/2 92/110/2
f 92/112/12 90/116/12 89/113/12
f 90/110/4 86/273/4 85/109/4
f 91/114/13 89/113/13 85/108/13
f 88/115/14 86/106/14 90/116/14
usemtl ore
f 93/117/21 96/118/21 95/119/21
f 95/120/22 100/121/22 99/122/22
f 100/123/23 97/124/23 99/125/23
f 98/126/24 93/127/24 97/128/24
f 99/129/25 93/130/25 95/131/25
f 100/132/26 94/133/26 98/134/26
f 101/135/27 104/136/27 103/137/27
f 103/138/28 108/139/28 107/140/28
f 108/141/29 105/142/29 107/143/29
f 106/144/30 101/145/30 105/146/30
f 107/147/31 101/148/31 103/149/31
f 108/150/32 102/151/32 106/152/32
f 109/153/33 112/154/33 111/155/33
f 111/156/34 116/157/34 115/158/34
f 116/159/35 113/160/35 115/161/35
f 114/162/36 109/163/36 113/164/36
f 115/165/37 109/166/37 111/167/37
f 116/168/38 110/169/38 114/170/38
f 118/171/39 119/172/39 117/173/39
f 119/174/40 124/175/40 123/176/40
f 123/177/41 122/178/41 121/179/41
f 122/180/42 117/181/42 121/182/42
f 119/172/43 121/179/43 117/173/43
f 120/183/44 122/178/44 124/184/44
f 126/185/45 127/186/45 125/187/45
f 127/188/46 132/189/46 131/190/46
f 131/191/47 130/192/47 129/193/47
f 130/194/48 125/195/48 129/196/48
f 127/186/49 129/193/49 125/187/49
f 128/197/50 130/192/50 132/198/50
f 93/117/21 94/274/21 96/118/21
f 95/120/22 96/275/22 100/121/22
f 100/123/23 98/276/23 97/124/23
f 98/126/24 94/277/24 93/127/24
f 99/129/25 97/278/25 93/130/25
f 100/132/26 96/279/26 94/133/26
f 101/135/27 102/280/27 104/136/27
f 103/138/28 104/281/28 108/139/28
f 108/141/29 106/282/29 105/142/29
f 106/144/30 102/283/30 101/145/30
f 107/147/31 105/284/31 101/148/31
f 108/150/32 104/285/32 102/151/32
f 109/153/33 110/286/33 112/154/33
f 111/156/34 112/287/34 116/157/34
f 116/159/35 114/288/35 113/160/35
f 114/162/36 110/289/36 109/163/36
f 115/165/37 113/290/37 109/166/37
f 116/168/38 112/291/38 110/169/38
f 118/171/39 120/183/39 119/172/39
f 119/174/75 120/292/75 124/175/75
f 123/177/41 124/184/41 122/178/41
f 122/180/42 118/293/42 117/181/42
f 119/172/43 123/177/43 121/179/43
f 120/183/44 118/171/44 122/178/44
f 126/185/45 128/197/45 127/186/45
f 127/188/46 128/294/46 132/189/46
f 131/191/47 132/198/47 130/192/47
f 130/194/48 126/295/48 125/195/48
f 127/186/49 131/191/49 129/193/49
f 128/197/50 126/185/50 130/192/50
usemtl coal
f 134/199/51 135/200/51 133/201/51
f 135/202/52 140/203/52 139/204/52
f 139/205/53 138/206/53 137/207/53
f 138/208/54 133/209/54 137/210/54
f 135/200/55 137/207/55 133/201/55
f 136/211/56 138/206/56 140/212/56
f 141/213/57 144/214/57 143/215/57
f 143/216/58 148/217/58 147/218/58
f 148/219/59 145/220/59 147/221/59
f 146/222/60 141/223/60 145/224/60
f 147/221/61 141/213/61 143/215/61
f 148/219/62 142/225/62 146/226/62
f 150/227/63 151/228/63 149/229/63
f 151/230/64 156/231/64 155/232/64
f 155/233/65 154/234/65 153/235/65
f 154/236/66 149/237/66 153/238/66
f 151/228/67 153/235/67 149/229/67
f 152/239/68 154/234/68 156/240/68
f 157/241/69 160/242/69 159/243/69
f 159/244/70 164/245/70 163/246/70
f 164/247/71 161/248/71 163/249/71
f 162/250/72 157/251/72 161/252/72
f 163/249/73 157/241/73 159/243/73
f 164/247/74 158/253/74 162/254/74
f 134/199/51 136/211/51 135/200/51
f 135/202/52 136/296/52 140/203/52
f 139/205/53 140/212/53 138/206/53
f 138/208/54 134/297/54 133/209/54
f 135/200/55 139/205/55 137/207/55
f 136/211/56 134/199/56 138/206/56
f 141/213/57 142/225/57 144/214/57
f 143/216/58 144/298/58 148/217/58
f 148/219/59 146/226/59 145/220/59
f 146/222/60 142/299/60 141/223/60
f 147/221/61 145/220/61 141/213/61
f 148/219/62 144/214/62 142/225/62
f 150/227/63 152/239/63 151/228/63
f 151/230/64 152/300/64 156/231/64
f 155/233/65 156/240/65 154/234/65
f 154/236/66 150/301/66 149/237/66
f 151/228/67 155/233/67 153/235/67
f 152/239/68 150/227/68 154/234/68
f 157/241/69 158/253/69 160/242/69
f 159/244/70 160/302/70 164/245/70
f 164/247/71 162/254/71 161/248/71
f 162/250/72 158/303/72 157/251/72
f 163/249/73 161/248/73 157/241/73
f 164/247/74 160/242/74 158/253/74
usemtl stone
f 166/255/11 167/256/11 165/257/11
f 167/258/2 172/259/2 171/260/2
f 172/261/12 169/262/12 171/263/12
f 170/259/4 165/258/4 169/260/4
f 171/263/13 165/257/13 167/256/13
f 168/264/14 170/265/14 172/261/14
f 166/255/11 168/264/11 167/256/11
f 167/258/2 168/304/2 172/259/2
f 172/261/12 170/265/12 169/262/12
f 170/259/4 166/304/4 165/258/4
f 171/263/13 169/262/13 165/257/13
f 168/264/14 166/255/14 170/265/14
