# Blender 4.5.10 LTS
# www.blender.org
mtllib kynda_hopper.mtl
o hopper
v 0.180000 0.032500 -0.180000
v 0.180000 0.097500 -0.180000
v 0.180000 0.032500 0.180000
v 0.180000 0.097500 0.180000
v -0.180000 0.032500 -0.180000
v -0.180000 0.097500 -0.180000
v -0.180000 0.032500 0.180000
v -0.180000 0.097500 0.180000
v 0.113137 0.130000 0.113137
v 0.176777 0.430000 0.176777
v -0.113137 0.130000 0.113137
v -0.176777 0.430000 0.176777
v -0.113137 0.130000 -0.113137
v -0.176777 0.430000 -0.176777
v 0.113137 0.130000 -0.113137
v 0.176777 0.430000 -0.176777
v 0.176777 0.430000 0.176777
v 0.424264 1.330000 0.424264
v -0.176777 0.430000 0.176777
v -0.424264 1.330000 0.424264
v -0.176777 0.430000 -0.176777
v -0.424264 1.330000 -0.424264
v 0.176777 0.430000 -0.176777
v 0.424264 1.330000 -0.424264
v 0.240416 0.577500 0.240416
v 0.240416 0.622500 0.240416
v -0.240416 0.577500 0.240416
v -0.240416 0.622500 0.240416
v -0.240416 0.577500 -0.240416
v -0.240416 0.622500 -0.240416
v 0.240416 0.577500 -0.240416
v 0.240416 0.622500 -0.240416
v 0.353553 0.957500 0.353553
v 0.353553 1.002500 0.353553
v -0.353553 0.957500 0.353553
v -0.353553 1.002500 0.353553
v -0.353553 0.957500 -0.353553
v -0.353553 1.002500 -0.353553
v 0.353553 0.957500 -0.353553
v 0.353553 1.002500 -0.353553
v 0.367696 1.330000 0.367696
v 0.367696 1.350000 0.367696
v -0.367696 1.330000 0.367696
v -0.367696 1.350000 0.367696
v -0.367696 1.330000 -0.367696
v -0.367696 1.350000 -0.367696
v 0.367696 1.330000 -0.367696
v 0.367696 1.350000 -0.367696
v 0.225000 1.303750 -0.431250
v 0.225000 1.346250 -0.431250
v 0.225000 1.303750 -0.393750
v 0.225000 1.346250 -0.393750
v -0.225000 1.303750 -0.431250
v -0.225000 1.346250 -0.431250
v -0.225000 1.303750 -0.393750
v -0.225000 1.346250 -0.393750
v 0.225000 1.303750 0.393750
v 0.225000 1.346250 0.393750
v 0.225000 1.303750 0.431250
v 0.225000 1.346250 0.431250
v -0.225000 1.303750 0.393750
v -0.225000 1.346250 0.393750
v -0.225000 1.303750 0.431250
v -0.225000 1.346250 0.431250
v 0.431250 1.303750 -0.187500
v 0.431250 1.346250 -0.187500
v 0.431250 1.303750 0.187500
v 0.431250 1.346250 0.187500
v 0.393750 1.303750 -0.187500
v 0.393750 1.346250 -0.187500
v 0.393750 1.303750 0.187500
v 0.393750 1.346250 0.187500
v -0.393750 1.303750 -0.187500
v -0.393750 1.346250 -0.187500
v -0.393750 1.303750 0.187500
v -0.393750 1.346250 0.187500
v -0.431250 1.303750 -0.187500
v -0.431250 1.346250 -0.187500
v -0.431250 1.303750 0.187500
v -0.431250 1.346250 0.187500
v 0.075000 0.177870 0.194859
v 0.075000 0.232249 0.169501
v 0.075000 0.287751 0.430499
v 0.075000 0.342130 0.405141
v -0.075000 0.177870 0.194859
v -0.075000 0.232249 0.169501
v -0.075000 0.287751 0.430499
v -0.075000 0.342130 0.405141
vn 1.0000 -0.0000 -0.0000
vn -0.0000 -0.0000 1.0000
vn -1.0000 -0.0000 -0.0000
vn -0.0000 -0.0000 -1.0000
vn -0.0000 -1.0000 -0.0000
vn -0.0000 1.0000 -0.0000
vn -0.0000 -0.2075 0.9782
vn -0.9782 -0.2075 -0.0000
vn -0.0000 -0.2075 -0.9782
vn 0.9782 -0.2075 -0.0000
vn -0.0000 -0.2651 0.9642
vn -0.9642 -0.2651 -0.0000
vn -0.0000 -0.2651 -0.9642
vn 0.9642 -0.2651 -0.0000
vn -0.0000 0.4226 0.9063
vn -0.0000 -0.4226 -0.9063
vn -0.0000 -0.9063 0.4226
vn -0.0000 0.9063 -0.4226
vt 0.000000 -8.634616
vt 1.000000 -9.634616
vt 0.000000 -9.634616
vt 1.000000 -8.634616
vt 1.000000 1.000000
vt 0.000000 0.000000
vt 0.000000 1.000000
vt 1.000000 0.000000
vt 0.008954 -3.519231
vt 0.814270 -8.134616
vt 0.185730 -8.134616
vt 0.991046 -3.519231
vt 0.008954 0.991046
vt 0.991046 0.008954
vt 0.991046 0.991046
vt 0.814270 0.814270
vt 0.185730 0.185730
vt 0.185730 0.814270
vt 0.008954 -3.519231
vt 1.678511 10.326922
vt 0.991046 -3.519231
vt -0.678511 10.326922
vt -0.678511 1.678511
vt 1.678511 -0.678511
vt 1.678511 1.678511
vt 0.008954 0.008954
vt -0.167823 -0.557692
vt 1.167823 -1.250000
vt -0.167823 -1.250000
vt 1.167823 -0.557692
vt -0.167823 1.167823
vt 1.167823 -0.167823
vt 1.167823 1.167823
vt -0.167823 -0.167823
vt -0.482093 5.288463
vt 1.482093 4.596154
vt -0.482093 4.596154
vt 1.482093 5.288463
vt -0.482093 1.482093
vt 1.482093 -0.482093
vt 1.482093 1.482093
vt -0.482093 -0.482093
vt -0.521376 10.634616
vt 1.521376 10.326922
vt -0.521376 10.326922
vt 1.521376 10.634616
vt -0.521376 1.521376
vt 1.521376 -0.521376
vt 1.521376 1.521376
vt -0.521376 -0.521376
vt -0.697917 10.576924
vt -0.593750 9.923078
vt -0.697917 9.923078
vt -0.125000 10.576924
vt 1.125000 9.923078
vt -0.125000 9.923078
vt -0.593750 10.576924
vt 1.125000 10.576924
vt 1.125000 -0.593750
vt -0.125000 -0.697917
vt -0.125000 -0.593750
vt 1.125000 -0.697917
vt 1.593750 10.576924
vt 1.697917 9.923078
vt 1.593750 9.923078
vt 1.697917 10.576924
vt 1.125000 1.697917
vt -0.125000 1.593750
vt -0.125000 1.697917
vt 1.125000 1.593750
vt -0.020833 10.576924
vt 1.020833 9.923078
vt -0.020833 9.923078
vt 1.020833 10.576924
vt -0.593750 1.020833
vt -0.697917 -0.020833
vt -0.697917 1.020833
vt -0.593750 -0.020833
vt 1.697917 1.020833
vt 1.593750 -0.020833
vt 1.593750 1.020833
vt 1.697917 -0.020833
vt 0.970837 -6.561557
vt 1.695829 -5.707675
vt 1.041274 -7.398149
vt 0.291667 -4.871083
vt 0.708333 -5.707675
vt 0.291667 -5.707675
vt 0.708333 -6.561557
vt 0.291667 -7.398149
vt 0.708333 -7.398149
vt 0.708333 -4.871083
vt 0.814270 0.185730
vt -0.678511 -0.678511
vt 1.625393 -4.871083
vt 0.291667 -6.561557
s 0
usemtl stone
f 2/1/1 3/2/1 1/3/1
f 4/1/2 7/2/2 3/3/2
f 8/4/3 5/3/3 7/2/3
f 6/4/4 1/3/4 5/2/4
f 7/5/5 1/6/5 3/7/5
f 4/7/6 6/8/6 8/5/6
f 2/1/1 4/4/1 3/2/1
f 4/1/2 8/4/2 7/2/2
f 8/4/3 6/1/3 5/3/3
f 6/4/4 2/1/4 1/3/4
f 7/5/5 5/8/5 1/6/5
f 4/7/6 2/6/6 6/8/6
usemtl iron
f 10/9/7 11/10/7 9/11/7
f 12/12/8 13/11/8 11/10/8
f 10/13/6 14/14/6 12/15/6
f 14/12/9 15/11/9 13/10/9
f 16/9/10 9/10/10 15/11/10
f 11/16/5 15/17/5 9/18/5
f 26/27/2 27/28/2 25/29/2
f 28/30/3 29/29/3 27/28/3
f 26/31/6 30/32/6 28/33/6
f 30/30/4 31/29/4 29/28/4
f 32/27/1 25/28/1 31/29/1
f 27/33/5 31/34/5 25/31/5
f 34/35/2 35/36/2 33/37/2
f 36/38/3 37/37/3 35/36/3
f 34/39/6 38/40/6 36/41/6
f 38/38/4 39/37/4 37/36/4
f 40/35/1 33/36/1 39/37/1
f 35/41/5 39/42/5 33/39/5
f 42/43/2 43/44/2 41/45/2
f 44/46/3 45/45/3 43/44/3
f 42/47/6 46/48/6 44/49/6
f 46/46/4 47/45/4 45/44/4
f 48/43/1 41/44/1 47/45/1
f 43/49/5 47/50/5 41/47/5
f 50/51/1 51/52/1 49/53/1
f 52/54/2 55/55/2 51/56/2
f 56/57/3 53/53/3 55/52/3
f 54/58/4 49/56/4 53/55/4
f 55/59/5 49/60/5 51/61/5
f 52/61/6 54/62/6 56/59/6
f 58/63/1 59/64/1 57/65/1
f 60/54/2 63/55/2 59/56/2
f 64/66/3 61/65/3 63/64/3
f 62/58/4 57/56/4 61/55/4
f 63/67/5 57/68/5 59/69/5
f 60/69/6 62/70/6 64/67/6
f 66/71/1 67/72/1 65/73/1
f 68/51/2 71/52/2 67/53/2
f 72/74/3 69/73/3 71/72/3
f 70/57/4 65/53/4 69/52/4
f 71/75/5 65/76/5 67/77/5
f 68/77/6 70/78/6 72/75/6
f 74/71/1 75/72/1 73/73/1
f 76/63/2 79/64/2 75/65/2
f 80/74/3 77/73/3 79/72/3
f 78/66/4 73/65/4 77/64/4
f 79/79/5 73/80/5 75/81/5
f 76/81/6 78/82/6 80/79/6
f 82/83/1 83/84/1 81/85/1
f 84/86/15 87/87/15 83/88/15
f 87/84/3 86/83/3 85/85/3
f 86/89/16 81/90/16 85/91/16
f 87/87/17 81/90/17 83/88/17
f 84/86/18 86/89/18 88/92/18
f 10/9/7 12/12/7 11/10/7
f 12/12/8 14/9/8 13/11/8
f 10/13/6 16/26/6 14/14/6
f 14/12/9 16/9/9 15/11/9
f 16/9/10 10/12/10 9/10/10
f 11/16/5 13/93/5 15/17/5
f 26/27/2 28/30/2 27/28/2
f 28/30/3 30/27/3 29/29/3
f 26/31/6 32/34/6 30/32/6
f 30/30/4 32/27/4 31/29/4
f 32/27/1 26/30/1 25/28/1
f 27/33/5 29/32/5 31/34/5
f 34/35/2 36/38/2 35/36/2
f 36/38/3 38/35/3 37/37/3
f 34/39/6 40/42/6 38/40/6
f 38/38/4 40/35/4 39/37/4
f 40/35/1 34/38/1 33/36/1
f 35/41/5 37/40/5 39/42/5
f 42/43/2 44/46/2 43/44/2
f 44/46/3 46/43/3 45/45/3
f 42/47/6 48/50/6 46/48/6
f 46/46/4 48/43/4 47/45/4
f 48/43/1 42/46/1 41/44/1
f 43/49/5 45/48/5 47/50/5
f 50/51/1 52/57/1 51/52/1
f 52/54/2 56/58/2 55/55/2
f 56/57/3 54/51/3 53/53/3
f 54/58/4 50/54/4 49/56/4
f 55/59/5 53/62/5 49/60/5
f 52/61/6 50/60/6 54/62/6
f 58/63/1 60/66/1 59/64/1
f 60/54/2 64/58/2 63/55/2
f 64/66/3 62/63/3 61/65/3
f 62/58/4 58/54/4 57/56/4
f 63/67/5 61/70/5 57/68/5
f 60/69/6 58/68/6 62/70/6
f 66/71/1 68/74/1 67/72/1
f 68/51/2 72/57/2 71/52/2
f 72/74/3 70/71/3 69/73/3
f 70/57/4 66/51/4 65/53/4
f 71/75/5 69/78/5 65/76/5
f 68/77/6 66/76/6 70/78/6
f 74/71/1 76/74/1 75/72/1
f 76/63/2 80/66/2 79/64/2
f 80/74/3 78/71/3 77/73/3
f 78/66/4 74/63/4 73/65/4
f 79/79/5 77/82/5 73/80/5
f 76/81/6 74/80/6 78/82/6
f 82/83/1 84/95/1 83/84/1
f 84/86/15 88/92/15 87/87/15
f 87/84/3 88/95/3 86/83/3
f 86/89/16 82/96/16 81/90/16
f 87/87/17 85/91/17 81/90/17
f 84/86/18 82/96/18 86/89/18
usemtl wood
f 17/19/11 20/20/11 19/21/11
f 19/21/12 22/22/12 21/19/12
f 18/23/6 22/24/6 20/25/6
f 21/21/13 24/22/13 23/19/13
f 23/19/14 18/20/14 17/21/14
f 19/15/5 23/26/5 17/13/5
f 17/19/11 18/22/11 20/20/11
f 19/21/12 20/20/12 22/22/12
f 18/23/6 24/94/6 22/24/6
f 21/21/13 22/20/13 24/22/13
f 23/19/14 24/22/14 18/20/14
f 19/15/5 21/14/5 23/26/5
