# Blender 4.5.10 LTS
# www.blender.org
mtllib kynda_smelter_bunker.mtl
o kynda_smelter_bunker
v 0.460000 0.120000 -0.370000
v 0.460000 0.860000 -0.370000
v 0.460000 0.120000 0.250000
v 0.460000 0.860000 0.250000
v -0.460000 0.120000 -0.370000
v -0.460000 0.860000 -0.370000
v -0.460000 0.120000 0.250000
v -0.460000 0.860000 0.250000
v 0.460000 0.549934 0.097281
v 0.460000 0.632837 0.041362
v 0.460000 0.807162 0.478638
v 0.460000 0.890066 0.422719
v -0.460000 0.549934 0.097281
v -0.460000 0.632837 0.041362
v -0.460000 0.807162 0.478638
v -0.460000 0.890066 0.422719
v 0.180000 0.096206 0.152255
v 0.180000 0.196696 0.107514
v 0.180000 0.283304 0.572486
v 0.180000 0.383794 0.527745
v -0.180000 0.096206 0.152255
v -0.180000 0.196696 0.107514
v -0.180000 0.283304 0.572486
v -0.180000 0.383794 0.527745
v 0.480000 0.275000 -0.390000
v 0.480000 0.325000 -0.390000
v 0.480000 0.275000 0.270000
v 0.480000 0.325000 0.270000
v -0.480000 0.275000 -0.390000
v -0.480000 0.325000 -0.390000
v -0.480000 0.275000 0.270000
v -0.480000 0.325000 0.270000
v 0.480000 0.595000 -0.390000
v 0.480000 0.645000 -0.390000
v 0.480000 0.595000 0.270000
v 0.480000 0.645000 0.270000
v -0.480000 0.595000 -0.390000
v -0.480000 0.645000 -0.390000
v -0.480000 0.595000 0.270000
v -0.480000 0.645000 0.270000
v -0.189033 0.744687 -0.206946
v -0.209742 0.866142 -0.214895
v -0.027051 0.776375 -0.144767
v -0.047759 0.897830 -0.152716
v -0.252241 0.744687 -0.042284
v -0.272950 0.866142 -0.050233
v -0.090258 0.776375 0.019895
v -0.110967 0.897830 0.011946
v -0.050567 0.756746 -0.141553
v -0.059188 0.904174 -0.152994
v 0.076182 0.777211 0.026648
v 0.067561 0.924639 0.015207
v -0.219561 0.756746 -0.014207
v -0.228182 0.904174 -0.025648
v -0.092812 0.777211 0.153994
v -0.101433 0.924639 0.142553
v 0.201873 0.740192 -0.238485
v 0.194698 0.892293 -0.249534
v 0.320216 0.759011 -0.056253
v 0.313042 0.911113 -0.067301
v 0.018958 0.740192 -0.119699
v 0.011784 0.892293 -0.130747
v 0.137302 0.759011 0.062534
v 0.130127 0.911113 0.051485
v -0.144650 0.705279 -0.054894
v -0.149207 0.869806 -0.064668
v -0.045318 0.720684 0.158123
v -0.049876 0.885211 0.148350
v -0.358124 0.705279 0.044650
v -0.362682 0.869806 0.034877
v -0.258793 0.720684 0.257668
v -0.263350 0.885211 0.247894
v 0.082623 0.734026 -0.016521
v 0.081257 0.868398 -0.021621
v 0.132306 0.741568 0.168899
v 0.130940 0.875941 0.163799
v -0.102940 0.734026 0.033201
v -0.104306 0.868398 0.028101
v -0.053257 0.741568 0.218621
v -0.054623 0.875941 0.213521
v 0.236358 0.747580 -0.318758
v 0.236295 0.901922 -0.319968
v 0.247898 0.749312 -0.098572
v 0.247834 0.903654 -0.099782
v 0.016166 0.747580 -0.307218
v 0.016102 0.901922 -0.308428
v 0.027705 0.749312 -0.087032
v 0.027642 0.903654 -0.088242
v -0.161081 0.722217 -0.112479
v -0.186570 0.885895 -0.124365
v 0.050838 0.762395 -0.013659
v 0.025348 0.926074 -0.025546
v -0.261348 0.722217 0.102546
v -0.286838 0.885895 0.090659
v -0.049430 0.762395 0.201365
v -0.074919 0.926074 0.189479
v 0.530000 0.000000 -0.450000
v 0.530000 0.120000 -0.450000
v 0.530000 0.000000 0.330000
v 0.530000 0.120000 0.330000
v -0.530000 0.000000 -0.450000
v -0.530000 0.120000 -0.450000
v -0.530000 0.000000 0.330000
v -0.530000 0.120000 0.330000
vn 1.0000 -0.0000 -0.0000
vn -0.0000 -0.0000 1.0000
vn -1.0000 -0.0000 -0.0000
vn -0.0000 -0.0000 -1.0000
vn -0.0000 -1.0000 -0.0000
vn -0.0000 1.0000 -0.0000
vn -0.0000 0.5592 0.8290
vn -0.0000 -0.5592 -0.8290
vn -0.0000 -0.8290 0.5592
vn -0.0000 0.8290 -0.5592
vn -0.0000 0.4067 0.9135
vn -0.0000 -0.4067 -0.9135
vn -0.0000 -0.9135 0.4067
vn -0.0000 0.9135 -0.4067
vn 0.3584 -0.0000 -0.9336
vn 0.9184 0.1797 0.3525
vn -0.3584 -0.0000 0.9336
vn -0.9184 -0.1797 -0.3525
vn 0.1677 -0.9837 0.0644
vn -0.1677 0.9837 -0.0644
vn 0.7986 -0.0000 -0.6018
vn 0.5990 0.0967 0.7949
vn -0.7986 -0.0000 0.6018
vn -0.5990 -0.0967 -0.7949
vn 0.0582 -0.9953 0.0772
vn -0.0582 0.9953 -0.0772
vn 0.8387 -0.0000 -0.5446
vn 0.5426 0.0863 0.8355
vn -0.8387 -0.0000 0.5446
vn -0.5426 -0.0863 -0.8355
vn 0.0470 -0.9963 0.0724
vn -0.0470 0.9963 -0.0724
vn 0.9063 -0.0000 -0.4226
vn 0.4217 0.0654 0.9044
vn -0.9063 -0.0000 0.4226
vn -0.4217 -0.0654 -0.9044
vn 0.0276 -0.9979 0.0593
vn -0.0276 0.9979 -0.0593
vn 0.9659 -0.0000 -0.2588
vn 0.2586 0.0393 0.9652
vn -0.9659 -0.0000 0.2588
vn -0.2586 -0.0393 -0.9652
vn 0.0102 -0.9992 0.0379
vn -0.0102 0.9992 -0.0379
vn 0.9986 -0.0000 -0.0523
vn 0.0523 0.0079 0.9986
vn -0.9986 -0.0000 0.0523
vn -0.0523 -0.0079 -0.9986
vn 0.0004 -1.0000 0.0078
vn -0.0004 1.0000 -0.0078
vn 0.4226 -0.0000 -0.9063
vn 0.8932 0.1693 0.4165
vn -0.4226 -0.0000 0.9063
vn -0.8932 -0.1693 -0.4165
vn 0.1535 -0.9856 0.0716
vn -0.1535 0.9856 -0.0716
vt -0.195553 1.036437
vt 0.804447 0.036437
vt -0.195553 0.036437
vt 0.000000 1.036437
vt 1.000000 0.036437
vt 0.000000 0.036437
vt 0.804447 1.036437
vt 1.000000 1.036437
vt 1.000000 0.804447
vt 0.000000 -0.195553
vt 0.000000 0.804447
vt 1.000000 -0.195553
vt 0.558126 0.617428
vt 1.083026 1.077067
vt 1.173218 0.965035
vt 0.000000 1.077067
vt 1.000000 0.965035
vt 0.000000 0.965035
vt 1.000000 0.729460
vt 0.000000 0.617428
vt 1.000000 0.617428
vt 1.000000 1.173218
vt 0.000000 0.558126
vt 0.000000 1.173218
vt 0.000000 1.083026
vt 1.000000 0.467933
vt 1.000000 1.083026
vt 0.646794 0.004282
vt 1.252423 0.392916
vt 1.324585 0.257118
vt 0.304348 0.392916
vt 0.695652 0.257118
vt 0.304348 0.257118
vt 0.695652 0.140079
vt 0.304348 0.004282
vt 0.695652 0.004282
vt 0.695652 1.324585
vt 0.304348 0.646794
vt 0.304348 1.324585
vt 0.304348 1.252423
vt 0.695652 0.574631
vt 0.695652 1.252423
vt -0.227811 0.313464
vt 0.836705 0.245896
vt -0.227811 0.245896
vt -0.021739 0.313464
vt 1.021739 0.245896
vt -0.021739 0.245896
vt 0.836705 0.313464
vt 1.021739 0.313464
vt 1.021739 0.836705
vt -0.021739 -0.227811
vt -0.021739 0.836705
vt 1.021739 -0.227811
vt -0.227811 0.745896
vt 0.836705 0.678329
vt -0.227811 0.678329
vt -0.021739 0.745896
vt 1.021739 0.678329
vt -0.021739 0.678329
vt 0.836705 0.745896
vt 1.021739 0.745896
vt 0.727980 1.044737
vt 0.529403 0.923430
vt 0.705471 0.880608
vt 0.167726 0.923430
vt 0.420489 1.087558
vt 0.433310 0.923430
vt 0.598107 0.923430
vt 0.796684 1.044737
vt 0.774175 0.880608
vt 0.320200 1.044737
vt 0.067437 0.880608
vt 0.333021 0.880608
vt 0.529403 0.167726
vt 0.774175 0.333021
vt 0.705471 0.067437
vt 0.551912 0.154905
vt 0.796684 0.320200
vt 0.620616 0.420489
vt 0.172909 0.896904
vt 0.425749 1.123786
vt 0.444202 0.924560
vt 0.631146 1.123786
vt 0.649599 0.924560
vt 0.378306 0.896904
vt 0.359853 1.096131
vt 0.417194 0.444202
vt 0.738653 0.378306
vt 0.554964 0.172909
vt 0.426565 0.425749
vt 0.748024 0.359853
vt 0.610253 0.631146
vt 0.016567 0.874534
vt 0.292671 1.105508
vt 0.310491 0.899966
vt 0.151939 0.899966
vt 0.358558 1.105508
vt 0.350759 0.899966
vt 0.484262 1.105508
vt 0.208158 0.874534
vt 0.502082 0.899966
vt 0.487192 1.080077
vt 0.280573 0.874534
vt 0.479393 0.874534
vt 0.151939 0.310491
vt 0.479393 0.208158
vt 0.280573 0.016567
vt 0.159737 0.292671
vt 0.487192 0.190338
vt 0.358558 0.484262
vt 0.312682 0.827354
vt 0.640495 1.070505
vt 0.656258 0.848172
vt 0.549259 0.848172
vt 0.786250 1.070505
vt 0.781296 0.848172
vt 0.801051 1.070505
vt 0.473238 0.827354
vt 0.816814 0.848172
vt 0.894219 1.049688
vt 0.657228 0.827354
vt 0.889266 0.827354
vt 0.549259 0.656258
vt 0.889266 0.473238
vt 0.657228 0.312682
vt 0.554213 0.640495
vt 0.894219 0.457474
vt 0.786250 0.801051
vt 0.374574 0.866201
vt 0.665414 1.057978
vt 0.673639 0.876393
vt 0.356189 0.876393
vt 0.559373 1.057978
vt 0.557888 0.876393
vt 0.745610 1.057978
vt 0.454770 0.866201
vt 0.753835 0.876393
vt 0.613376 1.047786
vt 0.410192 0.866201
vt 0.611891 0.866201
vt 0.356189 0.673639
vt 0.611891 0.454770
vt 0.410192 0.374574
vt 0.357674 0.665414
vt 0.613376 0.446545
vt 0.559373 0.745610
vt -0.112904 0.884518
vt 0.240282 1.095428
vt 0.242235 0.886859
vt 0.230546 0.886859
vt 0.469955 1.095428
vt 0.469886 0.886859
vt 0.258895 1.095428
vt -0.094292 0.884518
vt 0.260847 0.886859
vt 0.482498 1.093088
vt 0.243089 0.884518
vt 0.482429 0.884518
vt 0.230546 0.242235
vt 0.482429 -0.094292
vt 0.243089 -0.112904
vt 0.230615 0.240282
vt 0.482498 -0.096244
vt 0.469955 0.258895
vt 0.702794 1.071430
vt 0.444741 0.904539
vt 0.675088 0.850243
vt 0.379190 0.904539
vt 0.706832 1.125726
vt 0.726003 0.904539
vt 0.553728 0.904539
vt 0.811780 1.071430
vt 0.784074 0.850243
vt 0.547446 1.071430
vt 0.219804 0.850243
vt 0.566617 0.850243
vt 0.444741 0.379190
vt 0.784074 0.566617
vt 0.675088 0.219804
vt 0.472448 0.360018
vt 0.811780 0.547446
vt 0.581434 0.706832
vt -0.324585 0.036437
vt 0.933479 -0.125725
vt -0.324585 -0.125725
vt -0.076087 0.036437
vt 1.076087 -0.125725
vt -0.076087 -0.125725
vt 0.933479 0.036437
vt 1.076087 0.036437
vt 1.076087 0.933479
vt -0.076087 -0.324585
vt -0.076087 0.933479
vt 1.076087 -0.324585
vt 0.467933 0.729460
vt 1.000000 1.077067
vt 0.000000 0.729460
vt 1.000000 0.558126
vt 0.000000 0.467933
vt 0.574631 0.140079
vt 0.695652 0.392916
vt 0.304348 0.140079
vt 0.695652 0.646794
vt 0.304348 0.574631
vt 0.551912 1.087558
vt 0.154905 1.087558
vt 0.620616 1.087558
vt 0.054616 1.044737
vt 0.598107 0.433310
vt 0.727980 0.054616
vt 0.154456 1.096131
vt 0.600882 0.649599
vt 0.564335 0.154456
vt -0.001253 1.080077
vt 0.159737 1.105508
vt 0.190338 1.080077
vt 0.288371 1.080077
vt 0.350759 0.502082
vt 0.288371 -0.001253
vt 0.296918 1.049688
vt 0.554213 1.070505
vt 0.457474 1.049688
vt 0.662182 1.049688
vt 0.781296 0.816814
vt 0.662182 0.296918
vt 0.366349 1.047786
vt 0.357674 1.057978
vt 0.446545 1.047786
vt 0.411677 1.047786
vt 0.557888 0.753835
vt 0.411677 0.366349
vt -0.114857 1.093088
vt 0.230615 1.095428
vt -0.096244 1.093088
vt 0.243158 1.093088
vt 0.469886 0.260847
vt 0.243158 -0.114857
vt 0.472448 1.125726
vt 0.360018 1.125726
vt 0.581434 1.125726
vt 0.200633 1.071430
vt 0.553728 0.726003
vt 0.702794 0.200633
s 0
usemtl stone
f 2/1/1 3/2/1 1/3/1
f 4/4/2 7/5/2 3/6/2
f 8/7/3 5/3/3 7/2/3
f 6/8/4 1/6/4 5/5/4
f 7/9/5 1/10/5 3/11/5
f 4/11/6 6/12/6 8/9/6
f 9/13/1 12/14/1 11/15/1
f 12/16/7 15/17/7 11/18/7
f 16/14/3 13/13/3 15/15/3
f 14/19/8 9/20/8 13/21/8
f 15/22/9 9/23/9 11/24/9
f 12/25/10 14/26/10 16/27/10
f 26/43/1 27/44/1 25/45/1
f 28/46/2 31/47/2 27/48/2
f 32/49/3 29/45/3 31/44/3
f 30/50/4 25/48/4 29/47/4
f 31/51/5 25/52/5 27/53/5
f 28/53/6 30/54/6 32/51/6
f 34/55/1 35/56/1 33/57/1
f 36/58/2 39/59/2 35/60/2
f 40/61/3 37/57/3 39/56/3
f 38/62/4 33/60/4 37/59/4
f 39/51/5 33/52/5 35/53/5
f 36/53/6 38/54/6 40/51/6
f 98/184/1 99/185/1 97/186/1
f 100/187/2 103/188/2 99/189/2
f 104/190/3 101/186/3 103/185/3
f 102/191/4 97/189/4 101/188/4
f 103/192/5 97/193/5 99/194/5
f 100/194/6 102/195/6 104/192/6
f 2/1/1 4/7/1 3/2/1
f 4/4/2 8/8/2 7/5/2
f 8/7/3 6/1/3 5/3/3
f 6/8/4 2/4/4 1/6/4
f 7/9/5 5/12/5 1/10/5
f 4/11/6 2/10/6 6/12/6
f 9/13/1 10/196/1 12/14/1
f 12/16/7 16/197/7 15/17/7
f 16/14/3 14/196/3 13/13/3
f 14/19/8 10/198/8 9/20/8
f 15/22/9 13/199/9 9/23/9
f 12/25/10 10/200/10 14/26/10
f 26/43/1 28/49/1 27/44/1
f 28/46/2 32/50/2 31/47/2
f 32/49/3 30/43/3 29/45/3
f 30/50/4 26/46/4 25/48/4
f 31/51/5 29/54/5 25/52/5
f 28/53/6 26/52/6 30/54/6
f 34/55/1 36/61/1 35/56/1
f 36/58/2 40/62/2 39/59/2
f 40/61/3 38/55/3 37/57/3
f 38/62/4 34/58/4 33/60/4
f 39/51/5 37/54/5 33/52/5
f 36/53/6 34/52/6 38/54/6
f 98/184/1 100/190/1 99/185/1
f 100/187/2 104/191/2 103/188/2
f 104/190/3 102/184/3 101/186/3
f 102/191/4 98/187/4 97/189/4
f 103/192/5 101/195/5 97/193/5
f 100/194/6 98/193/6 102/195/6
usemtl iron
f 17/28/1 20/29/1 19/30/1
f 20/31/11 23/32/11 19/33/11
f 24/29/3 21/28/3 23/30/3
f 22/34/12 17/35/12 21/36/12
f 23/37/13 17/38/13 19/39/13
f 20/40/14 22/41/14 24/42/14
f 17/28/1 18/201/1 20/29/1
f 20/31/11 24/202/11 23/32/11
f 24/29/3 22/201/3 21/28/3
f 22/34/12 18/203/12 17/35/12
f 23/37/13 21/204/13 17/38/13
f 20/40/14 18/205/14 22/41/14
usemtl ore
f 42/63/15 43/64/15 41/65/15
f 43/66/16 48/67/16 47/68/16
f 47/69/17 46/70/17 45/71/17
f 46/72/18 41/73/18 45/74/18
f 43/75/19 45/76/19 41/77/19
f 44/78/20 46/79/20 48/80/20
f 49/81/21 52/82/21 51/83/21
f 51/83/22 56/84/22 55/85/22
f 56/84/23 53/86/23 55/85/23
f 54/87/24 49/81/24 53/86/24
f 51/88/25 53/89/25 49/90/25
f 52/91/26 54/92/26 56/93/26
f 57/94/27 60/95/27 59/96/27
f 59/97/28 64/98/28 63/99/28
f 64/100/29 61/101/29 63/102/29
f 62/103/30 57/104/30 61/105/30
f 59/106/31 61/107/31 57/108/31
f 60/109/32 62/110/32 64/111/32
f 65/112/33 68/113/33 67/114/33
f 67/115/34 72/116/34 71/117/34
f 72/118/35 69/119/35 71/120/35
f 70/121/36 65/122/36 69/123/36
f 67/124/37 69/125/37 65/126/37
f 68/127/38 70/128/38 72/129/38
f 73/130/39 76/131/39 75/132/39
f 75/133/40 80/134/40 79/135/40
f 80/136/41 77/137/41 79/138/41
f 78/139/42 73/140/42 77/141/42
f 75/142/43 77/143/43 73/144/43
f 76/145/44 78/146/44 80/147/44
f 81/148/45 84/149/45 83/150/45
f 83/151/46 88/152/46 87/153/46
f 88/154/47 85/155/47 87/156/47
f 86/157/48 81/158/48 85/159/48
f 83/160/49 85/161/49 81/162/49
f 84/163/50 86/164/50 88/165/50
f 90/166/51 91/167/51 89/168/51
f 91/169/52 96/170/52 95/171/52
f 95/172/53 94/173/53 93/174/53
f 94/175/54 89/176/54 93/177/54
f 91/178/55 93/179/55 89/180/55
f 92/181/56 94/182/56 96/183/56
f 42/63/15 44/206/15 43/64/15
f 43/66/16 44/207/16 48/67/16
f 47/69/17 48/208/17 46/70/17
f 46/72/18 42/209/18 41/73/18
f 43/75/19 47/210/19 45/76/19
f 44/78/20 42/211/20 46/79/20
f 49/81/21 50/212/21 52/82/21
f 51/83/22 52/82/22 56/84/22
f 56/84/23 54/87/23 53/86/23
f 54/87/24 50/212/24 49/81/24
f 51/88/25 55/213/25 53/89/25
f 52/91/26 50/214/26 54/92/26
f 57/94/27 58/215/27 60/95/27
f 59/97/28 60/216/28 64/98/28
f 64/100/29 62/217/29 61/101/29
f 62/103/30 58/218/30 57/104/30
f 59/106/31 63/219/31 61/107/31
f 60/109/32 58/220/32 62/110/32
f 65/112/33 66/221/33 68/113/33
f 67/115/34 68/222/34 72/116/34
f 72/118/35 70/223/35 69/119/35
f 70/121/36 66/224/36 65/122/36
f 67/124/37 71/225/37 69/125/37
f 68/127/38 66/226/38 70/128/38
f 73/130/39 74/227/39 76/131/39
f 75/133/40 76/228/40 80/134/40
f 80/136/41 78/229/41 77/137/41
f 78/139/42 74/230/42 73/140/42
f 75/142/43 79/231/43 77/143/43
f 76/145/44 74/232/44 78/146/44
f 81/148/45 82/233/45 84/149/45
f 83/151/46 84/234/46 88/152/46
f 88/154/47 86/235/47 85/155/47
f 86/157/48 82/236/48 81/158/48
f 83/160/49 87/237/49 85/161/49
f 84/163/50 82/238/50 86/164/50
f 90/166/51 92/239/51 91/167/51
f 91/169/52 92/240/52 96/170/52
f 95/172/53 96/241/53 94/173/53
f 94/175/54 90/242/54 89/176/54
f 91/178/55 95/243/55 93/179/55
f 92/181/56 90/244/56 94/182/56
