# Blender 4.5.10 LTS
# www.blender.org
mtllib kynda_smelter_charbin.mtl
o kynda_smelter_charbin
v 0.590000 0.160000 -0.310000
v 0.590000 0.680000 -0.310000
v 0.590000 0.160000 0.310000
v 0.590000 0.680000 0.310000
v -0.590000 0.160000 -0.310000
v -0.590000 0.680000 -0.310000
v -0.590000 0.160000 0.310000
v -0.590000 0.680000 0.310000
v 0.620000 0.645000 -0.340000
v 0.620000 0.735000 -0.340000
v 0.620000 0.645000 -0.260000
v 0.620000 0.735000 -0.260000
v -0.620000 0.645000 -0.340000
v -0.620000 0.735000 -0.340000
v -0.620000 0.645000 -0.260000
v -0.620000 0.735000 -0.260000
v 0.620000 0.645000 0.260000
v 0.620000 0.735000 0.260000
v 0.620000 0.645000 0.340000
v 0.620000 0.735000 0.340000
v -0.620000 0.645000 0.260000
v -0.620000 0.735000 0.260000
v -0.620000 0.645000 0.340000
v -0.620000 0.735000 0.340000
v 0.035000 0.160000 -0.330000
v 0.035000 0.780000 -0.330000
v 0.035000 0.160000 0.330000
v 0.035000 0.780000 0.330000
v -0.035000 0.160000 -0.330000
v -0.035000 0.780000 -0.330000
v -0.035000 0.160000 0.330000
v -0.035000 0.780000 0.330000
v 0.605000 0.160000 -0.330000
v 0.605000 0.720000 -0.330000
v 0.605000 0.160000 0.330000
v 0.605000 0.720000 0.330000
v 0.535000 0.160000 -0.330000
v 0.535000 0.720000 -0.330000
v 0.535000 0.160000 0.330000
v 0.535000 0.720000 0.330000
v -0.535000 0.160000 -0.330000
v -0.535000 0.720000 -0.330000
v -0.535000 0.160000 0.330000
v -0.535000 0.720000 0.330000
v -0.605000 0.160000 -0.330000
v -0.605000 0.720000 -0.330000
v -0.605000 0.160000 0.330000
v -0.605000 0.720000 0.330000
v 0.335003 0.567229 0.020697
v 0.308331 0.682460 0.019299
v 0.499393 0.605384 0.029312
v 0.472721 0.720616 0.027915
v 0.326159 0.567229 0.189445
v 0.299487 0.682460 0.188048
v 0.490550 0.605384 0.198061
v 0.463877 0.720616 0.196663
v 0.384544 0.568246 -0.271810
v 0.384496 0.684173 -0.272719
v 0.393211 0.569547 -0.106428
v 0.393163 0.685473 -0.107337
v 0.219157 0.568246 -0.263143
v 0.219109 0.684173 -0.264052
v 0.227824 0.569547 -0.097761
v 0.227776 0.685473 -0.098670
v 0.428881 0.588822 -0.042256
v 0.423100 0.698506 -0.050512
v 0.518755 0.603220 0.086098
v 0.512975 0.712904 0.077843
v 0.299985 0.588822 0.047997
v 0.294205 0.698506 0.039742
v 0.389860 0.603220 0.176352
v 0.384079 0.712904 0.168096
v 0.211744 0.543227 0.070373
v 0.181144 0.687132 0.065526
v 0.414793 0.587487 0.102533
v 0.384192 0.731393 0.097686
v 0.178848 0.543227 0.278074
v 0.148247 0.687132 0.273227
v 0.381896 0.587487 0.310234
v 0.351296 0.731393 0.305387
v 0.481282 0.551040 -0.250049
v 0.473824 0.678578 -0.259946
v 0.590931 0.568744 -0.104539
v 0.583473 0.696282 -0.114437
v 0.335087 0.551040 -0.139883
v 0.327629 0.678578 -0.149781
v 0.444736 0.568744 0.005626
v 0.437278 0.696282 -0.004271
v 0.500704 0.554571 0.128928
v 0.500585 0.658925 0.127568
v 0.513697 0.556523 0.277438
v 0.513578 0.660877 0.276078
v 0.352182 0.554571 0.141922
v 0.352063 0.658925 0.140562
v 0.365175 0.556523 0.290432
v 0.365056 0.660877 0.289072
v -0.434710 0.548760 0.072378
v -0.436040 0.679582 0.067413
v -0.386339 0.556102 0.252899
v -0.387669 0.686925 0.247934
v -0.615371 0.548760 0.120786
v -0.616701 0.679582 0.115821
v -0.567000 0.556102 0.301307
v -0.568330 0.686925 0.296342
v -0.072373 0.573023 -0.063072
v -0.073393 0.706226 -0.067491
v -0.029567 0.579502 0.122340
v -0.030587 0.712705 0.117922
v -0.257893 0.573023 -0.020242
v -0.258913 0.706226 -0.024660
v -0.215087 0.579502 0.165171
v -0.216107 0.712705 0.160752
v -0.475895 0.547095 0.014311
v -0.480363 0.668244 0.006251
v -0.391989 0.560260 0.165681
v -0.396457 0.681409 0.157621
v -0.627703 0.547095 0.098459
v -0.632171 0.668244 0.090399
v -0.543797 0.560260 0.249829
v -0.548265 0.681409 0.241769
v -0.302705 0.549483 -0.318145
v -0.307108 0.654570 -0.325472
v -0.225386 0.561694 -0.189463
v -0.229788 0.666781 -0.196790
v -0.431812 0.549483 -0.240570
v -0.436214 0.654570 -0.247897
v -0.354492 0.561694 -0.111888
v -0.358895 0.666781 -0.119215
v -0.510917 0.556820 -0.084508
v -0.528973 0.672764 -0.092928
v -0.360801 0.585281 -0.014508
v -0.378857 0.701225 -0.022928
v -0.581943 0.556820 0.067808
v -0.599999 0.672764 0.059388
v -0.431827 0.585281 0.137808
v -0.449883 0.701225 0.129388
v -0.318271 0.572692 -0.261768
v -0.320997 0.710904 -0.268869
v -0.247513 0.583558 -0.077437
v -0.250239 0.721770 -0.084538
v -0.502881 0.572692 -0.190902
v -0.505607 0.710904 -0.198003
v -0.432123 0.583558 -0.006571
v -0.434849 0.721770 -0.013672
v 0.660000 -0.000000 -0.380000
v 0.660000 0.160000 -0.380000
v 0.660000 -0.000000 0.380000
v 0.660000 0.160000 0.380000
v -0.660000 -0.000000 -0.380000
v -0.660000 0.160000 -0.380000
v -0.660000 -0.000000 0.380000
v -0.660000 0.160000 0.380000
vn 1.0000 -0.0000 -0.0000
vn -0.0000 -0.0000 1.0000
vn -1.0000 -0.0000 -0.0000
vn -0.0000 -0.0000 -1.0000
vn -0.0000 -1.0000 -0.0000
vn -0.0000 1.0000 -0.0000
vn 0.0523 -0.0000 -0.9986
vn 0.9728 0.2258 0.0510
vn -0.0523 -0.0000 0.9986
vn -0.9728 -0.2258 -0.0510
vn 0.2255 -0.9742 0.0118
vn -0.2255 0.9742 -0.0118
vn 0.9986 -0.0000 -0.0523
vn 0.0523 0.0079 0.9986
vn -0.9986 -0.0000 0.0523
vn -0.0523 -0.0079 -0.9986
vn 0.0004 -1.0000 0.0078
vn -0.0004 1.0000 -0.0078
vn 0.8192 -0.0000 -0.5736
vn 0.5712 0.0915 0.8157
vn -0.8192 -0.0000 0.5736
vn -0.5712 -0.0915 -0.8157
vn 0.0525 -0.9958 0.0750
vn -0.0525 0.9958 -0.0750
vn 0.1564 -0.0000 -0.9877
vn 0.9656 0.2105 0.1529
vn -0.1564 -0.0000 0.9877
vn -0.9656 -0.2105 -0.1529
vn 0.2079 -0.9776 0.0329
vn -0.2079 0.9776 -0.0329
vn 0.7986 -0.0000 -0.6018
vn 0.5990 0.0967 0.7949
vn -0.7986 -0.0000 0.6018
vn -0.5990 -0.0967 -0.7949
vn 0.0582 -0.9953 0.0772
vn -0.0582 0.9953 -0.0772
vn 0.9962 -0.0000 -0.0872
vn 0.0871 0.0131 0.9961
vn -0.9962 -0.0000 0.0872
vn -0.0871 -0.0131 -0.9961
vn 0.0011 -0.9999 0.0130
vn -0.0011 0.9999 -0.0130
vn 0.9659 -0.0000 -0.2588
vn 0.2586 0.0393 0.9652
vn -0.9659 -0.0000 0.2588
vn -0.2586 -0.0393 -0.9652
vn 0.0102 -0.9992 0.0379
vn -0.0102 0.9992 -0.0379
vn 0.9744 -0.0000 -0.2250
vn 0.2248 0.0340 0.9738
vn -0.9744 -0.0000 0.2250
vn -0.2248 -0.0340 -0.9738
vn 0.0077 -0.9994 0.0332
vn -0.0077 0.9994 -0.0332
vn 0.8746 -0.0000 -0.4848
vn 0.4834 0.0758 0.8721
vn -0.8746 -0.0000 0.4848
vn -0.4834 -0.0758 -0.8721
vn 0.0368 -0.9971 0.0663
vn -0.0368 0.9971 -0.0663
vn 0.8572 -0.0000 -0.5150
vn 0.5133 0.0811 0.8543
vn -0.8572 -0.0000 0.5150
vn -0.5133 -0.0811 -0.8543
vn 0.0418 -0.9967 0.0695
vn -0.0418 0.9967 -0.0695
vn 0.4226 -0.0000 -0.9063
vn 0.8932 0.1693 0.4165
vn -0.4226 -0.0000 0.9063
vn -0.8932 -0.1693 -0.4165
vn 0.1535 -0.9856 0.0716
vn -0.1535 0.9856 -0.0716
vn 0.9336 -0.0000 -0.3584
vn 0.3578 0.0550 0.9322
vn -0.9336 -0.0000 0.3584
vn -0.3578 -0.0550 -0.9322
vn 0.0197 -0.9985 0.0513
vn -0.0197 0.9985 -0.0513
vt 0.000000 1.057692
vt 1.000000 0.057692
vt 0.000000 0.057692
vt 1.000000 1.057692
vt 1.000000 1.000000
vt 0.000000 0.000000
vt 0.000000 1.000000
vt 1.000000 0.000000
vt -0.048387 1.163462
vt 0.080645 0.990385
vt -0.048387 0.990385
vt -0.025424 1.163462
vt 1.025424 0.990385
vt -0.025424 0.990385
vt 0.080645 1.163462
vt 1.025424 1.163462
vt 1.025424 0.080645
vt -0.025424 -0.048387
vt -0.025424 0.080645
vt 1.025424 -0.048387
vt 0.919355 1.163462
vt 1.048387 0.990385
vt 0.919355 0.990385
vt 1.048387 1.163462
vt 1.025424 1.048387
vt -0.025424 0.919355
vt -0.025424 1.048387
vt 1.025424 0.919355
vt -0.032258 1.250000
vt 1.032258 0.057692
vt -0.032258 0.057692
vt 0.470339 1.250000
vt 0.529661 0.057692
vt 0.470339 0.057692
vt 1.032258 1.250000
vt 0.529661 1.250000
vt 0.529661 1.032258
vt 0.470339 -0.032258
vt 0.470339 1.032258
vt 0.529661 -0.032258
vt -0.032258 1.134615
vt 1.032258 0.057692
vt -0.032258 0.057692
vt -0.012712 1.134615
vt 0.046610 0.057692
vt -0.012712 0.057692
vt 1.032258 1.134615
vt 0.046610 1.134615
vt 0.046610 1.032258
vt -0.012712 -0.032258
vt -0.012712 1.032258
vt 0.046610 -0.032258
vt 0.953390 1.134615
vt 1.012712 0.057692
vt 0.953390 0.057692
vt 1.012712 1.134615
vt 1.012712 1.032258
vt 0.953390 -0.032258
vt 0.953390 1.032258
vt 1.012712 -0.032258
vt 0.238703 1.062423
vt 0.076785 0.914201
vt 0.216099 0.840824
vt 0.547278 0.914201
vt 0.817198 1.135799
vt 0.819453 0.914201
vt 0.084280 0.914201
vt 0.246198 1.062423
vt 0.223594 0.840824
vt 0.803303 1.062423
vt 0.533382 0.840824
vt 0.805557 0.840824
vt 0.076785 0.547278
vt 0.223594 0.805557
vt 0.216099 0.533382
vt 0.099389 0.545023
vt 0.246198 0.803303
vt 0.106884 0.817198
vt 0.060130 1.065717
vt 0.328342 0.845283
vt 0.061597 0.842782
vt 0.166770 0.845283
vt 0.306969 1.068218
vt 0.306929 0.845283
vt 0.342322 0.845283
vt 0.074110 1.065717
vt 0.075577 0.842782
vt 0.314314 1.065717
vt 0.174115 0.842782
vt 0.314274 0.842782
vt 0.166770 0.328342
vt 0.314274 0.075577
vt 0.174115 0.061597
vt 0.166811 0.326875
vt 0.314314 0.074110
vt 0.306969 0.340855
vt 0.418529 1.093281
vt 0.638869 0.910038
vt 0.431845 0.882349
vt 0.771123 1.120969
vt 0.784438 0.910038
vt 0.564099 1.093281
vt 0.577415 0.882349
vt 0.060377 0.638869
vt 0.245775 0.577415
vt 0.136542 0.431845
vt 0.065276 0.625553
vt 0.250674 0.564099
vt 0.174509 0.771123
vt 0.346488 1.071409
vt 0.148481 0.879783
vt 0.320556 0.794667
vt 0.665375 0.879783
vt 0.992560 1.156524
vt 1.000377 0.879783
vt 0.176359 0.879783
vt 0.374367 1.071409
vt 0.348434 0.794667
vt 0.940689 1.071409
vt 0.613505 0.794667
vt 0.948506 0.794667
vt 0.148481 0.665375
vt 0.348434 0.948506
vt 0.320556 0.613505
vt 0.174413 0.657558
vt 0.374367 0.940689
vt 0.202292 0.992560
vt 0.080732 1.054958
vt 0.331388 0.843738
vt 0.096695 0.809692
vt 0.493111 1.089005
vt 0.509075 0.843738
vt 0.258418 1.054958
vt 0.274382 0.809692
vt -0.000789 0.331388
vt 0.216028 0.274382
vt 0.092134 0.096695
vt 0.005531 0.315425
vt 0.222349 0.258418
vt 0.129425 0.493111
vt 0.705754 1.017164
vt 0.947481 0.820236
vt 0.707949 0.816483
vt 0.064663 0.820236
vt 0.190631 1.020917
vt 0.190530 0.820236
vt 0.968439 0.820236
vt 0.726712 1.017164
vt 0.728907 0.816483
vt 0.201642 1.017164
vt 0.075674 0.816483
vt 0.201541 0.816483
vt 0.064663 0.947481
vt 0.201541 0.728907
vt 0.075674 0.707949
vt 0.064764 0.945286
vt 0.201642 0.726712
vt 0.190631 0.966244
vt 0.608730 1.056889
vt 0.907902 0.819428
vt 0.616738 0.805307
vt 0.827406 0.819428
vt 0.981636 1.071010
vt 0.980509 0.819428
vt 0.985979 0.819428
vt 0.686808 1.056889
vt 0.694815 0.805307
vt 1.022628 1.056889
vt 0.868398 0.805307
vt 1.021501 0.805307
vt 0.827406 0.907902
vt 1.021501 0.694815
vt 0.868398 0.616738
vt 0.828533 0.899894
vt 1.022628 0.686808
vt 0.981636 0.977972
vt 0.391143 1.108127
vt 0.697323 0.864427
vt 0.398271 0.851968
vt 0.525057 0.864427
vt 0.683142 1.120586
vt 0.682277 0.864427
vt 0.766405 0.864427
vt 0.460225 1.108127
vt 0.467352 0.851968
vt 0.719418 1.108127
vt 0.561333 0.851968
vt 0.718553 0.851968
vt 0.525057 0.697323
vt 0.718553 0.467352
vt 0.561333 0.398271
vt 0.525921 0.690196
vt 0.719418 0.460225
vt 0.683142 0.759278
vt 0.510081 1.035084
vt 0.767228 0.827423
vt 0.523082 0.802106
vt 0.889951 1.060402
vt 0.902951 0.827423
vt 0.645805 1.035084
vt 0.658805 0.802106
vt 0.832194 0.767228
vt 1.031952 0.658805
vt 0.903301 0.523082
vt 0.835981 0.754227
vt 1.035738 0.645805
vt 0.964631 0.889951
vt -0.024954 1.008789
vt 0.194414 0.830180
vt -0.013137 0.806699
vt 0.307718 1.032271
vt 0.319535 0.830180
vt 0.100167 1.008789
vt 0.111984 0.806699
vt 0.691005 0.194414
vt 0.865942 0.111984
vt 0.756530 -0.013137
vt 0.694736 0.182597
vt 0.869673 0.100167
vt 0.804148 0.307718
vt 0.948282 1.043777
vt 0.805763 0.875540
vt 0.932980 0.820807
vt 0.476600 0.875540
vt 0.708691 1.098510
vt 0.722271 0.875540
vt 0.865955 0.875540
vt 1.008474 1.043777
vt 0.993172 0.820807
vt 0.595787 1.043777
vt 0.363697 0.820807
vt 0.609367 0.820807
vt 0.805763 0.476600
vt 0.993172 0.609367
vt 0.932980 0.363697
vt 0.821065 0.463020
vt 1.008474 0.595787
vt 0.881257 0.708691
vt 0.066341 1.117123
vt 0.375102 0.872228
vt 0.077794 0.851331
vt 0.709757 0.872228
vt 0.868516 1.138019
vt 0.866206 0.872228
vt 0.489401 0.872228
vt 0.180640 1.117123
vt 0.192093 0.851331
vt 0.928481 1.117123
vt 0.769721 0.851331
vt 0.926170 0.851331
vt 0.709757 0.375102
vt 0.926170 0.192093
vt 0.769721 0.077794
vt 0.712067 0.363649
vt 0.928481 0.180640
vt 0.868516 0.477948
vt -0.112903 0.057692
vt 1.112903 -0.250000
vt -0.112903 -0.250000
vt -0.059322 0.057692
vt 1.059322 -0.250000
vt -0.059322 -0.250000
vt 1.112903 0.057692
vt 1.059322 0.057692
vt 1.059322 1.112903
vt -0.059322 -0.112903
vt -0.059322 1.112903
vt 1.059322 -0.112903
vt 0.099389 1.135799
vt 0.545023 1.135799
vt 0.106884 1.135799
vt 0.531128 1.062423
vt 0.084280 0.819453
vt 0.238703 0.531128
vt 0.326875 1.068218
vt 0.166811 1.068218
vt 0.340855 1.068218
vt 0.174156 1.065717
vt 0.306929 0.342322
vt 0.174156 0.060130
vt 0.625553 1.120969
vt 0.169610 0.784438
vt 0.141441 0.418529
vt 0.174413 1.156524
vt 0.657558 1.156524
vt 0.202292 1.156524
vt 0.605688 1.071409
vt 0.176359 1.000377
vt 0.346488 0.605688
vt 0.315425 1.089005
vt 0.123105 0.509075
vt 0.098454 0.080732
vt 0.945286 1.020917
vt 0.064764 1.020917
vt 0.966244 1.020917
vt 0.075775 1.017164
vt 0.190530 0.968439
vt 0.075775 0.705754
vt 0.899894 1.071010
vt 0.828533 1.071010
vt 0.977972 1.071010
vt 0.869525 1.056889
vt 0.980509 0.985979
vt 0.869525 0.608730
vt 0.690196 1.120586
vt 0.525921 1.120586
vt 0.759278 1.120586
vt 0.562197 1.108127
vt 0.682277 0.766405
vt 0.562197 0.391143
vt 0.754227 1.060402
vt 0.960845 0.902951
vt 0.907087 0.510081
vt 0.182597 1.032271
vt 0.800417 0.319535
vt 0.760261 -0.024954
vt 0.821065 1.098510
vt 0.463020 1.098510
vt 0.881257 1.098510
vt 0.350116 1.043777
vt 0.865955 0.722271
vt 0.948282 0.350116
vt 0.363649 1.138019
vt 0.712067 1.138019
vt 0.477948 1.138019
vt 0.772031 1.117123
vt 0.866206 0.489401
vt 0.772031 0.066341
s 0
usemtl wood
f 2/1/1 3/2/1 1/3/1
f 4/1/2 7/2/2 3/3/2
f 8/4/3 5/3/3 7/2/3
f 6/4/4 1/3/4 5/2/4
f 7/5/5 1/6/5 3/7/5
f 4/7/6 6/8/6 8/5/6
f 2/1/1 4/4/1 3/2/1
f 4/1/2 8/4/2 7/2/2
f 8/4/3 6/1/3 5/3/3
f 6/4/4 2/1/4 1/3/4
f 7/5/5 5/8/5 1/6/5
f 4/7/6 2/6/6 6/8/6
usemtl iron
f 10/9/1 11/10/1 9/11/1
f 12/12/2 15/13/2 11/14/2
f 16/15/3 13/11/3 15/10/3
f 14/16/4 9/14/4 13/13/4
f 15/17/5 9/18/5 11/19/5
f 12/19/6 14/20/6 16/17/6
f 18/21/1 19/22/1 17/23/1
f 20/12/2 23/13/2 19/14/2
f 24/24/3 21/23/3 23/22/3
f 22/16/4 17/14/4 21/13/4
f 23/25/5 17/26/5 19/27/5
f 20/27/6 22/28/6 24/25/6
f 26/29/1 27/30/1 25/31/1
f 28/32/2 31/33/2 27/34/2
f 32/35/3 29/31/3 31/30/3
f 30/36/4 25/34/4 29/33/4
f 31/37/5 25/38/5 27/39/5
f 28/39/6 30/40/6 32/37/6
f 34/41/1 35/42/1 33/43/1
f 36/44/2 39/45/2 35/46/2
f 40/47/3 37/43/3 39/42/3
f 38/48/4 33/46/4 37/45/4
f 39/49/5 33/50/5 35/51/5
f 36/51/6 38/52/6 40/49/6
f 42/41/1 43/42/1 41/43/1
f 44/53/2 47/54/2 43/55/2
f 48/47/3 45/43/3 47/42/3
f 46/56/4 41/55/4 45/54/4
f 47/57/5 41/58/5 43/59/5
f 44/59/6 46/60/6 48/57/6
f 10/9/1 12/15/1 11/10/1
f 12/12/2 16/16/2 15/13/2
f 16/15/3 14/9/3 13/11/3
f 14/16/4 10/12/4 9/14/4
f 15/17/5 13/20/5 9/18/5
f 12/19/6 10/18/6 14/20/6
f 18/21/1 20/24/1 19/22/1
f 20/12/2 24/16/2 23/13/2
f 24/24/3 22/21/3 21/23/3
f 22/16/4 18/12/4 17/14/4
f 23/25/5 21/28/5 17/26/5
f 20/27/6 18/26/6 22/28/6
f 26/29/1 28/35/1 27/30/1
f 28/32/2 32/36/2 31/33/2
f 32/35/3 30/29/3 29/31/3
f 30/36/4 26/32/4 25/34/4
f 31/37/5 29/40/5 25/38/5
f 28/39/6 26/38/6 30/40/6
f 34/41/1 36/47/1 35/42/1
f 36/44/2 40/48/2 39/45/2
f 40/47/3 38/41/3 37/43/3
f 38/48/4 34/44/4 33/46/4
f 39/49/5 37/52/5 33/50/5
f 36/51/6 34/50/6 38/52/6
f 42/41/1 44/47/1 43/42/1
f 44/53/2 48/56/2 47/54/2
f 48/47/3 46/41/3 45/43/3
f 46/56/4 42/53/4 41/55/4
f 47/57/5 45/60/5 41/58/5
f 44/59/6 42/58/6 46/60/6
usemtl coal
f 50/61/7 51/62/7 49/63/7
f 51/64/8 56/65/8 55/66/8
f 55/67/9 54/68/9 53/69/9
f 54/70/10 49/71/10 53/72/10
f 51/73/11 53/74/11 49/75/11
f 52/76/12 54/77/12 56/78/12
f 58/79/13 59/80/13 57/81/13
f 59/82/14 64/83/14 63/84/14
f 63/85/15 62/86/15 61/87/15
f 62/88/16 57/89/16 61/90/16
f 59/91/17 61/92/17 57/93/17
f 60/94/18 62/95/18 64/96/18
f 66/97/19 67/98/19 65/99/19
f 67/98/20 72/100/20 71/101/20
f 71/101/21 70/102/21 69/103/21
f 70/102/22 65/99/22 69/103/22
f 67/104/23 69/105/23 65/106/23
f 68/107/24 70/108/24 72/109/24
f 74/110/25 75/111/25 73/112/25
f 75/113/26 80/114/26 79/115/26
f 79/116/27 78/117/27 77/118/27
f 78/119/28 73/120/28 77/121/28
f 75/122/29 77/123/29 73/124/29
f 76/125/30 78/126/30 80/127/30
f 82/128/31 83/129/31 81/130/31
f 83/129/32 88/131/32 87/132/32
f 87/132/33 86/133/33 85/134/33
f 86/133/34 81/130/34 85/134/34
f 83/135/35 85/136/35 81/137/35
f 84/138/36 86/139/36 88/140/36
f 90/141/37 91/142/37 89/143/37
f 91/144/38 96/145/38 95/146/38
f 95/147/39 94/148/39 93/149/39
f 94/150/40 89/151/40 93/152/40
f 91/153/41 93/154/41 89/155/41
f 92/156/42 94/157/42 96/158/42
f 50/61/7 52/269/7 51/62/7
f 51/64/8 52/270/8 56/65/8
f 55/67/9 56/271/9 54/68/9
f 54/70/10 50/272/10 49/71/10
f 51/73/11 55/273/11 53/74/11
f 52/76/12 50/274/12 54/77/12
f 58/79/13 60/275/13 59/80/13
f 59/82/14 60/276/14 64/83/14
f 63/85/15 64/277/15 62/86/15
f 62/88/16 58/278/16 57/89/16
f 59/91/17 63/279/17 61/92/17
f 60/94/18 58/280/18 62/95/18
f 66/97/19 68/281/19 67/98/19
f 67/98/20 68/281/20 72/100/20
f 71/101/21 72/100/21 70/102/21
f 70/102/22 66/97/22 65/99/22
f 67/104/23 71/282/23 69/105/23
f 68/107/24 66/283/24 70/108/24
f 74/110/25 76/284/25 75/111/25
f 75/113/26 76/285/26 80/114/26
f 79/116/27 80/286/27 78/117/27
f 78/119/28 74/287/28 73/120/28
f 75/122/29 79/288/29 77/123/29
f 76/125/30 74/289/30 78/126/30
f 82/128/31 84/290/31 83/129/31
f 83/129/32 84/290/32 88/131/32
f 87/132/33 88/131/33 86/133/33
f 86/133/34 82/128/34 81/130/34
f 83/135/35 87/291/35 85/136/35
f 84/138/36 82/292/36 86/139/36
f 90/141/37 92/293/37 91/142/37
f 91/144/38 92/294/38 96/145/38
f 95/147/39 96/295/39 94/148/39
f 94/150/40 90/296/40 89/151/40
f 91/153/41 95/297/41 93/154/41
f 92/156/42 90/298/42 94/157/42
usemtl ore
f 98/159/43 99/160/43 97/161/43
f 99/162/44 104/163/44 103/164/44
f 103/165/45 102/166/45 101/167/45
f 102/168/46 97/169/46 101/170/46
f 99/171/47 101/172/47 97/173/47
f 100/174/48 102/175/48 104/176/48
f 106/177/49 107/178/49 105/179/49
f 107/180/50 112/181/50 111/182/50
f 111/183/51 110/184/51 109/185/51
f 110/186/52 105/187/52 109/188/52
f 107/189/53 109/190/53 105/191/53
f 108/192/54 110/193/54 112/194/54
f 114/195/55 115/196/55 113/197/55
f 115/196/56 120/198/56 119/199/56
f 119/199/57 118/200/57 117/201/57
f 118/200/58 113/197/58 117/201/58
f 115/202/59 117/203/59 113/204/59
f 116/205/60 118/206/60 120/207/60
f 122/208/61 123/209/61 121/210/61
f 123/209/62 128/211/62 127/212/62
f 127/212/63 126/213/63 125/214/63
f 126/213/64 121/210/64 125/214/64
f 123/215/65 125/216/65 121/217/65
f 124/218/66 126/219/66 128/220/66
f 130/221/67 131/222/67 129/223/67
f 131/224/68 136/225/68 135/226/68
f 135/227/69 134/228/69 133/229/69
f 134/230/70 129/231/70 133/232/70
f 131/233/71 133/234/71 129/235/71
f 132/236/72 134/237/72 136/238/72
f 138/239/73 139/240/73 137/241/73
f 139/242/74 144/243/74 143/244/74
f 143/245/75 142/246/75 141/247/75
f 142/248/76 137/249/76 141/250/76
f 139/251/77 141/252/77 137/253/77
f 140/254/78 142/255/78 144/256/78
f 98/159/43 100/299/43 99/160/43
f 99/162/44 100/300/44 104/163/44
f 103/165/45 104/301/45 102/166/45
f 102/168/46 98/302/46 97/169/46
f 99/171/47 103/303/47 101/172/47
f 100/174/48 98/304/48 102/175/48
f 106/177/49 108/305/49 107/178/49
f 107/180/50 108/306/50 112/181/50
f 111/183/51 112/307/51 110/184/51
f 110/186/52 106/308/52 105/187/52
f 107/189/53 111/309/53 109/190/53
f 108/192/54 106/310/54 110/193/54
f 114/195/55 116/311/55 115/196/55
f 115/196/56 116/311/56 120/198/56
f 119/199/57 120/198/57 118/200/57
f 118/200/58 114/195/58 113/197/58
f 115/202/59 119/312/59 117/203/59
f 116/205/60 114/313/60 118/206/60
f 122/208/61 124/314/61 123/209/61
f 123/209/62 124/314/62 128/211/62
f 127/212/63 128/211/63 126/213/63
f 126/213/64 122/208/64 121/210/64
f 123/215/65 127/315/65 125/216/65
f 124/218/66 122/316/66 126/219/66
f 130/221/67 132/317/67 131/222/67
f 131/224/68 132/318/68 136/225/68
f 135/227/69 136/319/69 134/228/69
f 134/230/70 130/320/70 129/231/70
f 131/233/71 135/321/71 133/234/71
f 132/236/72 130/322/72 134/237/72
f 138/239/73 140/323/73 139/240/73
f 139/242/74 140/324/74 144/243/74
f 143/245/75 144/325/75 142/246/75
f 142/248/76 138/326/76 137/249/76
f 139/251/77 143/327/77 141/252/77
f 140/254/78 138/328/78 142/255/78
usemtl stone
f 146/257/1 147/258/1 145/259/1
f 148/260/2 151/261/2 147/262/2
f 152/263/3 149/259/3 151/258/3
f 150/264/4 145/262/4 149/261/4
f 151/265/5 145/266/5 147/267/5
f 148/267/6 150/268/6 152/265/6
f 146/257/1 148/263/1 147/258/1
f 148/260/2 152/264/2 151/261/2
f 152/263/3 150/257/3 149/259/3
f 150/264/4 146/260/4 145/262/4
f 151/265/5 149/268/5 145/266/5
f 148/267/6 146/266/6 150/268/6
