# Blender 4.5.10 LTS
# www.blender.org
mtllib kynda_kiln_charbin.mtl
o kynda_kiln_charbin
v 0.198995 0.130000 0.480417
v 0.176034 0.750000 0.424985
v -0.198995 0.130000 0.480417
v -0.176034 0.750000 0.424985
v -0.480417 0.130000 0.198995
v -0.424985 0.750000 0.176034
v -0.480417 0.130000 -0.198995
v -0.424985 0.750000 -0.176034
v -0.198995 0.130000 -0.480417
v -0.176034 0.750000 -0.424985
v 0.198995 0.130000 -0.480417
v 0.176034 0.750000 -0.424985
v 0.480417 0.130000 -0.198995
v 0.424985 0.750000 -0.176034
v 0.480417 0.130000 0.198995
v 0.424985 0.750000 0.176034
v 0.191342 0.175000 0.461940
v 0.191342 0.225000 0.461940
v -0.191342 0.175000 0.461940
v -0.191342 0.225000 0.461940
v -0.461940 0.175000 0.191342
v -0.461940 0.225000 0.191342
v -0.461940 0.175000 -0.191342
v -0.461940 0.225000 -0.191342
v -0.191342 0.175000 -0.461940
v -0.191342 0.225000 -0.461940
v 0.191342 0.175000 -0.461940
v 0.191342 0.225000 -0.461940
v 0.461940 0.175000 -0.191342
v 0.461940 0.225000 -0.191342
v 0.461940 0.175000 0.191342
v 0.461940 0.225000 0.191342
v 0.181775 0.655000 0.438843
v 0.181775 0.705000 0.438843
v -0.181775 0.655000 0.438843
v -0.181775 0.705000 0.438843
v -0.438843 0.655000 0.181775
v -0.438843 0.705000 0.181775
v -0.438843 0.655000 -0.181775
v -0.438843 0.705000 -0.181775
v -0.181775 0.655000 -0.438843
v -0.181775 0.705000 -0.438843
v 0.181775 0.655000 -0.438843
v 0.181775 0.705000 -0.438843
v 0.438843 0.655000 -0.181775
v 0.438843 0.705000 -0.181775
v 0.438843 0.655000 0.181775
v 0.438843 0.705000 0.181775
v 0.168799 0.622680 -0.230490
v 0.152216 0.781538 -0.243918
v 0.345164 0.653162 -0.087672
v 0.328582 0.812020 -0.101100
v 0.024698 0.622680 -0.052540
v 0.008116 0.781538 -0.065968
v 0.201064 0.653162 0.090278
v 0.184481 0.812020 0.076850
v -0.024277 0.690651 -0.103473
v -0.028188 0.812302 -0.111147
v 0.054620 0.702956 0.051372
v 0.050710 0.824607 0.043698
v -0.179510 0.690651 -0.024378
v -0.183420 0.812302 -0.032052
v -0.100612 0.702956 0.130467
v -0.104523 0.824607 0.122793
v -0.192344 0.633119 -0.010368
v -0.218216 0.763048 -0.016341
v -0.011487 0.671051 0.031386
v -0.037359 0.800981 0.025413
v -0.234961 0.633119 0.174227
v -0.260833 0.763048 0.168254
v -0.054104 0.671051 0.215981
v -0.079976 0.800981 0.210008
v -0.150121 0.636939 -0.153939
v -0.158487 0.779993 -0.165041
v -0.027132 0.656797 0.009273
v -0.035498 0.799851 -0.001829
v -0.314102 0.636939 -0.030371
v -0.322468 0.779993 -0.041473
v -0.191113 0.656797 0.132841
v -0.199479 0.799851 0.121739
v -0.159138 0.628707 -0.267370
v -0.190054 0.783968 -0.274508
v 0.056979 0.674034 -0.217476
v 0.026063 0.829296 -0.224613
v -0.210063 0.628707 -0.046787
v -0.240979 0.783968 -0.053924
v 0.006054 0.674034 0.003108
v -0.024862 0.829296 -0.004030
v 0.131809 0.612446 -0.284272
v 0.110317 0.720377 -0.289233
v 0.282044 0.643956 -0.249587
v 0.260553 0.751887 -0.254549
v 0.096407 0.612446 -0.130931
v 0.074916 0.720377 -0.135893
v 0.246643 0.643956 -0.096247
v 0.225151 0.751887 -0.101208
v -0.046390 0.676740 -0.173597
v -0.055614 0.834467 -0.185837
v 0.089214 0.698635 0.006355
v 0.079990 0.856362 -0.005885
v -0.227190 0.676740 -0.037355
v -0.236414 0.834467 -0.049595
v -0.091586 0.698635 0.142597
v -0.100810 0.856362 0.130357
v 0.430000 1.263453 -0.584435
v 0.430000 1.294236 -0.545034
v 0.430000 0.585764 -0.054966
v 0.430000 0.616547 -0.015565
v -0.430000 1.263453 -0.584435
v -0.430000 1.294236 -0.545034
v -0.430000 0.585764 -0.054966
v -0.430000 0.616547 -0.015565
v 0.050000 1.030000 -0.510000
v 0.050000 1.170000 -0.510000
v 0.050000 1.030000 -0.410000
v 0.050000 1.170000 -0.410000
v -0.050000 1.030000 -0.510000
v -0.050000 1.170000 -0.510000
v -0.050000 1.030000 -0.410000
v -0.050000 1.170000 -0.410000
v 0.520000 0.000000 -0.520000
v 0.520000 0.120000 -0.520000
v 0.520000 0.000000 0.520000
v 0.520000 0.120000 0.520000
v -0.520000 0.000000 -0.520000
v -0.520000 0.120000 -0.520000
v -0.520000 0.000000 0.520000
v -0.520000 0.120000 0.520000
vn -0.0000 0.0891 0.9960
vn -0.7043 0.0891 0.7043
vn -0.9960 0.0891 -0.0000
vn -0.7043 0.0891 -0.7043
vn -0.0000 0.0891 -0.9960
vn 0.7043 0.0891 -0.7043
vn -0.0000 1.0000 -0.0000
vn 0.9960 0.0891 -0.0000
vn 0.7043 0.0891 0.7043
vn -0.0000 -1.0000 -0.0000
vn -0.0000 -0.0000 1.0000
vn -0.7071 -0.0000 0.7071
vn -1.0000 -0.0000 -0.0000
vn -0.7071 -0.0000 -0.7071
vn -0.0000 -0.0000 -1.0000
vn 0.7071 -0.0000 -0.7071
vn 1.0000 -0.0000 -0.0000
vn 0.7071 -0.0000 0.7071
vn 0.6293 -0.0000 -0.7771
vn 0.7702 0.1331 0.6237
vn -0.6293 -0.0000 0.7771
vn -0.7702 -0.1331 -0.6237
vn 0.1035 -0.9911 0.0838
vn -0.1035 0.9911 -0.0838
vn 0.8910 -0.0000 -0.4540
vn 0.4529 0.0706 0.8888
vn -0.8910 -0.0000 0.4540
vn -0.4529 -0.0706 -0.8888
vn 0.0321 -0.9975 0.0629
vn -0.0321 0.9975 -0.0629
vn 0.2250 -0.0000 -0.9744
vn 0.9546 0.2002 0.2204
vn -0.2250 -0.0000 0.9744
vn -0.9546 -0.2002 -0.2204
vn 0.1951 -0.9798 0.0450
vn -0.1951 0.9798 -0.0450
vn 0.7986 -0.0000 -0.6018
vn 0.5990 0.0967 0.7949
vn -0.7986 -0.0000 0.6018
vn -0.5990 -0.0967 -0.7949
vn 0.0582 -0.9953 0.0772
vn -0.0582 0.9953 -0.0772
vn -0.0000 -0.7880 0.6157
vn -0.0000 0.7880 -0.6157
vn -0.0000 -0.6157 -0.7880
vn -0.0000 0.6157 0.7880
vt 0.500000 0.602882
vt 0.867696 -0.017118
vt 0.500000 -0.017118
vt 0.837813 0.602882
vt 0.512544 -0.017118
vt 0.880240 -0.017118
vt 0.512544 0.602882
vt 0.144849 -0.017118
vt 0.825269 0.602882
vt 0.132304 -0.017118
vt 0.187275 0.602882
vt 0.825269 0.187275
vt 0.960000 0.512544
vt 0.040000 0.512544
vt 0.174731 0.602882
vt 0.867696 0.144849
vt 0.132304 0.144849
vt 0.132304 0.880240
vt 0.500000 0.077882
vt 0.853553 0.027882
vt 0.500000 0.027882
vt 0.866098 0.077882
vt 0.512544 0.027882
vt 0.866098 0.027882
vt 0.512544 0.077882
vt 0.158991 0.027882
vt 0.853553 0.077882
vt 0.146447 0.027882
vt 0.158991 0.077882
vt 0.000000 0.512544
vt 0.500000 0.012544
vt 1.000000 0.512544
vt 0.146447 0.077882
vt 0.853553 0.158991
vt 0.146447 0.158991
vt 0.146447 0.866098
vt 0.500000 0.557882
vt 0.835876 0.507882
vt 0.500000 0.507882
vt 0.848420 0.557882
vt 0.512544 0.507882
vt 0.848420 0.507882
vt 0.512544 0.557882
vt 0.176668 0.507882
vt 0.835876 0.557882
vt 0.164124 0.507882
vt 0.176668 0.557882
vt 0.025000 0.512544
vt 0.500000 0.037544
vt 0.975000 0.512544
vt 0.164124 0.557882
vt 0.835876 0.176668
vt 0.164124 0.176668
vt 0.164124 0.848420
vt 0.345444 0.634420
vt 0.563635 0.506044
vt 0.364196 0.475562
vt 0.147559 0.506044
vt 0.358971 0.664902
vt 0.348789 0.506044
vt 0.654142 0.664902
vt 0.473455 0.475562
vt 0.672894 0.506044
vt 0.467257 0.634420
vt 0.255846 0.475562
vt 0.457076 0.475562
vt 0.147559 0.563635
vt 0.457076 0.473455
vt 0.255846 0.364196
vt 0.157741 0.544883
vt 0.467257 0.454703
vt 0.358971 0.654142
vt 0.407657 0.543533
vt 0.572322 0.677489
vt 0.580908 0.555838
vt 0.469872 0.677489
vt 0.642882 0.555838
vt 0.469197 0.555838
vt 0.585991 0.677489
vt 0.421327 0.543533
vt 0.594578 0.555838
vt 0.657193 0.665184
vt 0.482832 0.543533
vt 0.656517 0.543533
vt 0.642882 0.594578
vt 0.482832 0.407657
vt 0.469197 0.580908
vt 0.469872 0.572322
vt 0.657193 0.412740
vt 0.643557 0.585991
vt 0.695352 0.615930
vt 0.522624 0.523933
vt 0.673735 0.486001
vt 0.521726 0.653862
vt 0.691380 0.523933
vt 0.537145 0.523933
vt 0.654255 0.653862
vt 0.783749 0.486001
vt 0.632638 0.523933
vt 0.568174 0.615930
vt 0.429359 0.486001
vt 0.583593 0.486001
vt 0.632638 0.691380
vt 0.673735 0.429359
vt 0.522624 0.537145
vt 0.654255 0.675960
vt 0.695352 0.413940
vt 0.805366 0.568174
vt 0.299416 0.632875
vt 0.510728 0.509679
vt 0.312874 0.489821
vt 0.532096 0.652733
vt 0.727401 0.509679
vt 0.528616 0.509679
vt 0.548680 0.652733
vt 0.364283 0.489821
vt 0.562137 0.509679
vt 0.778570 0.489821
vt 0.583264 0.632875
vt 0.579784 0.489821
vt 0.727401 0.562137
vt 0.579784 0.312874
vt 0.528616 0.510728
vt 0.730882 0.548680
vt 0.583264 0.299416
vt 0.782050 0.350826
vt 0.544706 0.481589
vt 0.389965 0.682178
vt 0.364133 0.526916
vt 0.315003 0.682178
vt 0.517732 0.526916
vt 0.333428 0.526916
vt 0.495596 0.526916
vt 0.702000 0.636850
vt 0.676169 0.481589
vt 0.370506 0.636850
vt 0.204627 0.481589
vt 0.388931 0.481589
vt 0.495596 0.517732
vt 0.544706 0.204627
vt 0.364133 0.333428
vt 0.389965 0.315003
vt 0.702000 0.370506
vt 0.521428 0.499307
vt 0.287395 0.573259
vt 0.143912 0.496838
vt 0.269438 0.465328
vt 0.389889 0.496838
vt 0.505202 0.604769
vt 0.518010 0.496838
vt 0.253257 0.604769
vt 0.360826 0.465328
vt 0.235300 0.496838
vt 0.428473 0.465328
vt 0.287544 0.573259
vt 0.300352 0.465328
vt 0.143912 0.389889
vt 0.360826 0.428473
vt 0.269438 0.300352
vt 0.161869 0.377081
vt 0.378783 0.415665
vt 0.253257 0.505202
vt 0.319570 0.687349
vt 0.552556 0.551517
vt 0.334408 0.529622
vt 0.423847 0.709244
vt 0.639184 0.551517
vt 0.420009 0.551517
vt 0.594400 0.709244
vt 0.391091 0.529622
vt 0.609239 0.551517
vt 0.699439 0.687349
vt 0.476426 0.529622
vt 0.695601 0.529622
vt 0.639184 0.609239
vt 0.476426 0.334408
vt 0.420009 0.552556
vt 0.423847 0.537718
vt 0.699439 0.376253
vt 0.643022 0.594400
vt 0.173552 1.147118
vt 0.626316 0.438646
vt 0.137151 1.116335
vt 0.096775 0.662718
vt 0.876234 0.297209
vt 0.081697 0.626316
vt 0.297209 0.438646
vt -0.155556 1.147118
vt -0.191957 1.116335
vt 0.688693 -0.155556
vt -0.120922 0.137151
vt 0.673615 -0.191957
vt 0.876234 0.438646
vt -0.120922 1.116335
vt 0.081697 0.438646
vt 0.096775 0.469429
vt 0.688693 1.147118
vt 0.891312 0.469429
vt 0.060500 1.022882
vt 0.152888 0.882882
vt 0.060500 0.882882
vt 0.296906 1.022882
vt 0.389294 0.882882
vt 0.296906 0.882882
vt 0.114619 1.022882
vt 0.022231 0.882882
vt 0.114619 0.882882
vt 0.351025 1.022882
vt 0.258637 0.882882
vt 0.351025 0.882882
vt 0.389294 0.114619
vt 0.258637 0.060500
vt 0.296906 0.152888
vt 0.351025 0.022231
vt 0.231122 -0.027118
vt 1.191957 -0.147118
vt 0.231122 -0.147118
vt 0.218578 -0.027118
vt 1.179413 -0.147118
vt 0.218578 -0.147118
vt 0.793966 -0.027118
vt -0.166869 -0.147118
vt 0.793966 -0.147118
vt 0.781422 -0.027118
vt -0.179413 -0.147118
vt 0.781422 -0.147118
vt 1.179413 0.793966
vt -0.179413 0.231122
vt 0.218578 1.191957
vt 0.781422 -0.166869
vt 0.825269 0.837813
vt 0.500000 0.972544
vt 0.174731 0.837813
vt 0.174731 0.187275
vt 0.500000 0.052544
vt 0.500000 1.032544
vt 0.867696 0.880240
vt 1.020000 0.512544
vt 0.500000 -0.007456
vt -0.020000 0.512544
vt 0.853553 0.866098
vt 0.500000 1.012544
vt 0.835876 0.848420
vt 0.500000 0.987544
vt 0.544883 0.664902
vt 0.157741 0.664902
vt 0.454703 0.634420
vt 0.266027 0.634420
vt 0.348789 0.672894
vt 0.266027 0.345444
vt 0.399070 0.665184
vt 0.643557 0.677489
vt 0.412740 0.665184
vt 0.483508 0.665184
vt 0.656517 0.421327
vt 0.483508 0.399070
vt 0.544241 0.653862
vt 0.675960 0.653862
vt 0.805366 0.615930
vt 0.413940 0.615930
vt 0.783749 0.583593
vt 0.544241 0.521726
vt 0.497270 0.652733
vt 0.730882 0.652733
vt 0.350826 0.632875
vt 0.782050 0.632875
vt 0.778570 0.364283
vt 0.532096 0.497270
vt 0.570537 0.636850
vt 0.499307 0.682178
vt 0.521428 0.682178
vt 0.186202 0.636850
vt 0.676169 0.388931
vt 0.570537 0.186202
vt 0.161869 0.604769
vt 0.377081 0.604769
vt 0.378783 0.573259
vt 0.415665 0.573259
vt 0.235300 0.518010
vt 0.287395 0.287544
vt 0.537718 0.709244
vt 0.643022 0.709244
vt 0.376253 0.687349
vt 0.480263 0.687349
vt 0.695601 0.391091
vt 0.480263 0.319570
vt 0.662718 0.469429
vt 0.891312 0.333610
vt 0.333610 0.469429
vt -0.105844 0.173552
vt 0.673615 1.116335
vt -0.105844 1.147118
vt 0.152888 1.022882
vt 0.389294 1.022882
vt 0.022231 1.022882
vt 0.258637 1.022882
vt 1.191957 -0.027118
vt 1.179413 -0.027118
vt -0.166869 -0.027118
vt -0.179413 -0.027118
s 0
usemtl stone
f 2/1/1 3/2/1 1/3/1
f 4/4/2 5/5/2 3/6/2
f 6/7/3 7/8/3 5/5/3
f 8/9/4 9/3/4 7/2/4
f 10/1/5 11/10/5 9/3/5
f 12/11/6 13/5/6 11/8/6
f 8/12/7 6/13/7 14/14/7
f 14/7/8 15/6/8 13/5/8
f 16/15/9 1/3/9 15/10/9
f 7/16/10 11/17/10 15/18/10
f 122/215/17 123/216/17 121/217/17
f 124/218/11 127/219/11 123/220/11
f 128/221/13 125/222/13 127/223/13
f 126/224/15 121/225/15 125/226/15
f 127/227/10 121/228/10 123/229/10
f 124/229/7 126/230/7 128/227/7
f 2/1/1 4/9/1 3/2/1
f 4/4/2 6/7/2 5/5/2
f 6/7/3 8/11/3 7/8/3
f 8/9/4 10/1/4 9/3/4
f 10/1/5 12/15/5 11/10/5
f 12/11/6 14/7/6 13/5/6
f 6/13/7 4/231/7 2/232/7
f 2/232/7 16/233/7 6/13/7
f 16/233/7 14/14/7 6/13/7
f 14/14/7 12/234/7 10/235/7
f 10/235/7 8/12/7 14/14/7
f 14/7/8 16/4/8 15/6/8
f 16/15/9 2/1/9 1/3/9
f 15/18/10 1/236/10 3/237/10
f 3/237/10 5/238/10 7/16/10
f 7/16/10 9/239/10 11/17/10
f 11/17/10 13/240/10 15/18/10
f 15/18/10 3/237/10 7/16/10
f 122/215/17 124/297/17 123/216/17
f 124/218/11 128/298/11 127/219/11
f 128/221/13 126/299/13 125/222/13
f 126/224/15 122/300/15 121/225/15
f 127/227/10 125/230/10 121/228/10
f 124/229/7 122/228/7 126/230/7
usemtl iron
f 18/19/11 19/20/11 17/21/11
f 20/22/12 21/23/12 19/24/12
f 22/25/13 23/26/13 21/23/13
f 24/27/14 25/21/14 23/20/14
f 26/19/15 27/28/15 25/21/15
f 28/29/16 29/23/16 27/26/16
f 30/30/7 26/31/7 22/32/7
f 30/25/17 31/24/17 29/23/17
f 32/33/18 17/21/18 31/28/18
f 23/34/10 27/35/10 31/36/10
f 34/37/11 35/38/11 33/39/11
f 36/40/12 37/41/12 35/42/12
f 38/43/13 39/44/13 37/41/13
f 40/45/14 41/39/14 39/38/14
f 42/37/15 43/46/15 41/39/15
f 44/47/16 45/41/16 43/44/16
f 46/48/7 42/49/7 38/50/7
f 46/43/17 47/42/17 45/41/17
f 48/51/18 33/39/18 47/46/18
f 39/52/10 43/53/10 47/54/10
f 106/181/17 107/182/17 105/183/17
f 108/184/43 111/185/43 107/186/43
f 111/187/13 110/188/13 109/189/13
f 110/190/44 105/191/44 109/192/44
f 111/193/45 105/194/45 107/195/45
f 108/196/46 110/197/46 112/198/46
f 114/199/17 115/200/17 113/201/17
f 116/202/11 119/203/11 115/204/11
f 120/205/13 117/206/13 119/207/13
f 118/208/15 113/209/15 117/210/15
f 119/211/10 113/212/10 115/213/10
f 116/213/7 118/214/7 120/211/7
f 18/19/11 20/27/11 19/20/11
f 20/22/12 22/25/12 21/23/12
f 22/25/13 24/29/13 23/26/13
f 24/27/14 26/19/14 25/21/14
f 26/19/15 28/33/15 27/28/15
f 28/29/16 30/25/16 29/23/16
f 22/32/7 20/241/7 18/242/7
f 18/242/7 32/36/7 30/30/7
f 30/30/7 28/35/7 26/31/7
f 26/31/7 24/34/7 22/32/7
f 22/32/7 18/242/7 30/30/7
f 30/25/17 32/22/17 31/24/17
f 32/33/18 18/19/18 17/21/18
f 31/36/10 17/242/10 19/241/10
f 19/241/10 21/32/10 23/34/10
f 23/34/10 25/31/10 27/35/10
f 27/35/10 29/30/10 31/36/10
f 31/36/10 19/241/10 23/34/10
f 34/37/11 36/45/11 35/38/11
f 36/40/12 38/43/12 37/41/12
f 38/43/13 40/47/13 39/44/13
f 40/45/14 42/37/14 41/39/14
f 42/37/15 44/51/15 43/46/15
f 44/47/16 46/43/16 45/41/16
f 38/50/7 36/243/7 34/244/7
f 34/244/7 48/54/7 46/48/7
f 46/48/7 44/53/7 42/49/7
f 42/49/7 40/52/7 38/50/7
f 38/50/7 34/244/7 46/48/7
f 46/43/17 48/40/17 47/42/17
f 48/51/18 34/37/18 33/39/18
f 47/54/10 33/244/10 35/243/10
f 35/243/10 37/50/10 39/52/10
f 39/52/10 41/49/10 43/53/10
f 43/53/10 45/48/10 47/54/10
f 47/54/10 35/243/10 39/52/10
f 106/181/17 108/287/17 107/182/17
f 108/184/43 112/288/43 111/185/43
f 111/187/13 112/289/13 110/188/13
f 110/190/44 106/290/44 105/191/44
f 111/193/45 109/291/45 105/194/45
f 108/196/46 106/292/46 110/197/46
f 114/199/17 116/293/17 115/200/17
f 116/202/11 120/294/11 119/203/11
f 120/205/13 118/295/13 117/206/13
f 118/208/15 114/296/15 113/209/15
f 119/211/10 117/214/10 113/212/10
f 116/213/7 114/212/7 118/214/7
usemtl coal
f 50/55/19 51/56/19 49/57/19
f 51/58/20 56/59/20 55/60/20
f 56/61/21 53/62/21 55/63/21
f 54/64/22 49/65/22 53/66/22
f 51/67/23 53/68/23 49/69/23
f 52/70/24 54/71/24 56/72/24
f 57/73/25 60/74/25 59/75/25
f 60/76/26 63/77/26 59/78/26
f 64/79/27 61/80/27 63/81/27
f 62/82/28 57/83/28 61/84/28
f 63/85/29 57/86/29 59/87/29
f 60/88/30 62/89/30 64/90/30
f 66/91/31 67/92/31 65/93/31
f 68/94/32 71/95/32 67/96/32
f 72/97/33 69/98/33 71/99/33
f 70/100/34 65/101/34 69/102/34
f 71/103/35 65/104/35 67/105/35
f 72/106/36 66/107/36 70/108/36
f 74/109/37 75/110/37 73/111/37
f 76/112/38 79/113/38 75/114/38
f 80/115/39 77/116/39 79/117/39
f 77/118/40 74/119/40 73/120/40
f 79/121/41 73/122/41 75/123/41
f 80/124/42 74/125/42 78/126/42
f 81/127/31 84/128/31 83/129/31
f 84/130/32 87/131/32 83/132/32
f 87/133/33 86/134/33 85/135/33
f 86/136/34 81/137/34 85/138/34
f 87/139/35 81/140/35 83/141/35
f 84/142/36 86/143/36 88/144/36
f 90/145/31 91/146/31 89/147/31
f 91/148/32 96/149/32 95/150/32
f 96/151/33 93/152/33 95/153/33
f 93/154/34 90/155/34 89/156/34
f 91/157/35 93/158/35 89/159/35
f 92/160/36 94/161/36 96/162/36
f 98/163/37 99/164/37 97/165/37
f 100/166/38 103/167/38 99/168/38
f 104/169/39 101/170/39 103/171/39
f 102/172/40 97/173/40 101/174/40
f 103/175/41 97/176/41 99/177/41
f 100/178/42 102/179/42 104/180/42
f 50/55/19 52/245/19 51/56/19
f 51/58/20 52/246/20 56/59/20
f 56/61/21 54/247/21 53/62/21
f 54/64/22 50/248/22 49/65/22
f 51/67/23 55/249/23 53/68/23
f 52/70/24 50/250/24 54/71/24
f 57/73/25 58/251/25 60/74/25
f 60/76/26 64/252/26 63/77/26
f 64/79/27 62/253/27 61/80/27
f 62/82/28 58/254/28 57/83/28
f 63/85/29 61/255/29 57/86/29
f 60/88/30 58/256/30 62/89/30
f 66/91/31 68/257/31 67/92/31
f 68/94/32 72/258/32 71/95/32
f 72/97/33 70/259/33 69/98/33
f 70/100/34 66/260/34 65/101/34
f 71/103/35 69/261/35 65/104/35
f 72/106/36 68/262/36 66/107/36
f 74/109/37 76/263/37 75/110/37
f 76/112/38 80/264/38 79/113/38
f 80/115/39 78/265/39 77/116/39
f 77/118/40 78/266/40 74/119/40
f 79/121/41 77/267/41 73/122/41
f 80/124/42 76/268/42 74/125/42
f 81/127/31 82/269/31 84/128/31
f 84/130/32 88/270/32 87/131/32
f 87/133/33 88/271/33 86/134/33
f 86/136/34 82/272/34 81/137/34
f 87/139/35 85/273/35 81/140/35
f 84/142/36 82/274/36 86/143/36
f 90/145/31 92/275/31 91/146/31
f 91/148/32 92/276/32 96/149/32
f 96/151/33 94/277/33 93/152/33
f 93/154/34 94/278/34 90/155/34
f 91/157/35 95/279/35 93/158/35
f 92/160/36 90/280/36 94/161/36
f 98/163/37 100/281/37 99/164/37
f 100/166/38 104/282/38 103/167/38
f 104/169/39 102/283/39 101/170/39
f 102/172/40 98/284/40 97/173/40
f 103/175/41 101/285/41 97/176/41
f 100/178/42 98/286/42 102/179/42
