# Blender 4.5.10 LTS
# www.blender.org
mtllib kynda_smelter_sacks.mtl
o kynda_smelter_sacks
v 0.530000 0.000000 -0.390000
v 0.530000 0.100000 -0.390000
v 0.530000 0.000000 0.390000
v 0.530000 0.100000 0.390000
v -0.530000 0.000000 -0.390000
v -0.530000 0.100000 -0.390000
v -0.530000 0.000000 0.390000
v -0.530000 0.100000 0.390000
v 0.510000 0.095000 -0.310000
v 0.510000 0.165000 -0.310000
v 0.510000 0.095000 -0.210000
v 0.510000 0.165000 -0.210000
v -0.510000 0.095000 -0.310000
v -0.510000 0.165000 -0.310000
v -0.510000 0.095000 -0.210000
v -0.510000 0.165000 -0.210000
v 0.510000 0.095000 0.210000
v 0.510000 0.165000 0.210000
v 0.510000 0.095000 0.310000
v 0.510000 0.165000 0.310000
v -0.510000 0.095000 0.210000
v -0.510000 0.165000 0.210000
v -0.510000 0.095000 0.310000
v -0.510000 0.165000 0.310000
v 0.320000 0.184000 0.000000
v 0.189752 0.270234 -0.136687
v 0.369749 0.270234 -0.221166
v 0.480996 0.270234 0.000000
v 0.369749 0.270234 0.221166
v 0.189752 0.270234 0.136687
v 0.270251 0.409766 -0.221166
v 0.450248 0.409766 -0.136687
v 0.450248 0.409766 0.136687
v 0.270251 0.409766 0.221166
v 0.159003 0.409766 0.000000
v 0.320000 0.496000 0.000000
v 0.000000 0.184000 0.000000
v -0.155821 0.270234 -0.106620
v 0.002679 0.270234 -0.226677
v 0.157478 0.270234 -0.033473
v 0.094645 0.270234 0.205990
v -0.098983 0.270234 0.160780
v -0.094645 0.409766 -0.205990
v 0.098983 0.409766 -0.160780
v 0.155821 0.409766 0.106620
v -0.002679 0.409766 0.226677
v -0.157478 0.409766 0.033473
v 0.000000 0.496000 0.000000
v -0.320000 0.184000 0.000000
v -0.494583 0.270234 -0.071893
v -0.364508 0.270234 -0.222280
v -0.172922 0.270234 -0.065483
v -0.184595 0.270234 0.181811
v -0.383392 0.270234 0.177847
v -0.455405 0.409766 -0.181811
v -0.256608 0.409766 -0.177847
v -0.145417 0.409766 0.071893
v -0.275492 0.409766 0.222280
v -0.467078 0.409766 0.065483
v -0.320000 0.496000 0.000000
v 0.170000 0.519600 -0.020000
v 0.097560 0.597211 -0.180636
v 0.283976 0.597211 -0.195772
v 0.312882 0.597211 0.032005
v 0.144327 0.597211 0.187912
v 0.011253 0.597211 0.056491
v 0.195673 0.722789 -0.227912
v 0.328747 0.722789 -0.096491
v 0.242440 0.722789 0.140636
v 0.056023 0.722789 0.155772
v 0.027118 0.722789 -0.072005
v 0.170000 0.800400 -0.020000
v -0.170000 0.519600 -0.020000
v -0.328747 0.597211 -0.096491
v -0.195673 0.597211 -0.227912
v -0.027118 0.597211 -0.072005
v -0.056023 0.597211 0.155772
v -0.242440 0.597211 0.140636
v -0.283976 0.722789 -0.195772
v -0.097560 0.722789 -0.180636
v -0.011253 0.722789 0.056491
v -0.144327 0.722789 0.187912
v -0.312882 0.722789 0.032005
v -0.170000 0.800400 -0.020000
v 0.220000 0.780000 -0.360000
v 0.220000 0.820000 -0.360000
v 0.220000 0.780000 0.360000
v 0.220000 0.820000 0.360000
v 0.180000 0.780000 -0.360000
v 0.180000 0.820000 -0.360000
v 0.180000 0.780000 0.360000
v 0.180000 0.820000 0.360000
v -0.180000 0.780000 -0.360000
v -0.180000 0.820000 -0.360000
v -0.180000 0.780000 0.360000
v -0.180000 0.820000 0.360000
v -0.220000 0.780000 -0.360000
v -0.220000 0.820000 -0.360000
v -0.220000 0.780000 0.360000
v -0.220000 0.820000 0.360000
vn 1.0000 -0.0000 -0.0000
vn -0.0000 -0.0000 1.0000
vn -1.0000 -0.0000 -0.0000
vn -0.0000 -0.0000 -1.0000
vn -0.0000 -1.0000 -0.0000
vn -0.0000 1.0000 -0.0000
vn -0.1843 -0.9010 -0.3928
vn -0.5520 -0.8338 -0.0000
vn 0.4594 -0.8577 -0.2311
vn 0.4594 -0.8577 0.2311
vn -0.1843 -0.9010 0.3928
vn -0.9766 -0.2152 -0.0000
vn -0.4066 -0.2900 -0.8664
vn 0.8680 -0.2364 -0.4366
vn 0.8680 -0.2364 0.4366
vn -0.4066 -0.2900 0.8664
vn -0.8680 0.2364 -0.4366
vn 0.4066 0.2900 -0.8664
vn 0.9766 0.2152 -0.0000
vn 0.4066 0.2900 0.8664
vn -0.8680 0.2364 0.4366
vn -0.4594 0.8577 -0.2311
vn 0.1843 0.9010 -0.3928
vn 0.5520 0.8338 -0.0000
vn 0.1843 0.9010 0.3928
vn -0.4594 0.8577 0.2311
vn -0.2620 -0.9010 -0.3459
vn -0.5400 -0.8338 0.1148
vn 0.4013 -0.8577 -0.3215
vn 0.4974 -0.8577 0.1305
vn -0.0986 -0.9010 0.4225
vn -0.9552 -0.2152 0.2030
vn -0.5779 -0.2900 -0.7629
vn 0.7583 -0.2364 -0.6075
vn 0.9398 -0.2364 0.2466
vn -0.2176 -0.2900 0.9320
vn -0.9398 0.2364 -0.2466
vn 0.2176 0.2900 -0.9320
vn 0.9552 0.2152 -0.2030
vn 0.5779 0.2900 0.7629
vn -0.7583 0.2364 0.6075
vn -0.4974 0.8577 -0.1305
vn 0.0986 0.9010 -0.4225
vn 0.5400 0.8338 -0.1148
vn 0.2620 0.9010 0.3459
vn -0.4013 0.8577 0.3215
vn -0.3282 -0.9010 -0.2838
vn -0.5043 -0.8338 0.2245
vn 0.3257 -0.8577 -0.3979
vn 0.5137 -0.8577 0.0242
vn -0.0086 -0.9010 0.4338
vn -0.8921 -0.2152 0.3972
vn -0.7238 -0.2900 -0.6261
vn 0.6154 -0.2364 -0.7519
vn 0.9706 -0.2364 0.0458
vn -0.0191 -0.2900 0.9568
vn -0.9706 0.2364 -0.0458
vn 0.0191 0.2900 -0.9569
vn 0.8921 0.2152 -0.3972
vn 0.7238 0.2900 0.6261
vn -0.6154 0.2364 0.7519
vn -0.5137 0.8577 -0.0242
vn 0.0086 0.9010 -0.4338
vn 0.5043 0.8338 -0.2245
vn 0.3282 0.9010 0.2838
vn -0.3257 0.8577 0.3979
vn -0.0343 -0.9059 -0.4222
vn -0.5014 -0.8457 -0.1825
vn 0.4939 -0.8673 -0.0627
vn 0.3381 -0.8673 0.3655
vn -0.2976 -0.9059 0.3014
vn -0.9155 -0.2253 -0.3332
vn -0.0773 -0.2978 -0.9515
vn 0.9615 -0.2463 -0.1220
vn 0.6581 -0.2463 0.7115
vn -0.6708 -0.2978 0.6792
vn -0.6581 0.2463 -0.7115
vn 0.6708 0.2978 -0.6792
vn 0.9155 0.2253 0.3332
vn 0.0773 0.2978 0.9515
vn -0.9615 0.2463 0.1220
vn -0.3381 0.8673 -0.3655
vn 0.2976 0.9059 -0.3014
vn 0.5014 0.8457 0.1825
vn 0.0343 0.9059 0.4222
vn -0.4939 0.8673 0.0627
vn -0.2976 -0.9059 -0.3014
vn -0.5014 -0.8457 0.1825
vn 0.3381 -0.8673 -0.3655
vn 0.4939 -0.8673 0.0627
vn -0.0343 -0.9059 0.4222
vn -0.9155 -0.2253 0.3332
vn -0.6708 -0.2978 -0.6792
vn 0.6581 -0.2463 -0.7115
vn 0.9615 -0.2463 0.1220
vn -0.0773 -0.2978 0.9515
vn -0.9615 0.2463 -0.1220
vn 0.0773 0.2978 -0.9515
vn 0.9155 0.2253 -0.3332
vn 0.6708 0.2978 0.6792
vn -0.6581 0.2463 0.7115
vn -0.4939 0.8673 -0.0627
vn 0.0343 0.9059 -0.4222
vn 0.5014 0.8457 -0.1825
vn 0.2976 0.9059 0.3014
vn -0.3381 0.8673 0.3655
vt 0.000000 -2.600000
vt 1.000000 -3.599999
vt 0.000000 -3.599999
vt 1.000000 -2.600000
vt 1.000000 1.000000
vt 0.000000 0.000000
vt 0.000000 1.000000
vt 1.000000 0.000000
vt 0.102564 -1.950000
vt 0.230769 -2.650000
vt 0.102564 -2.650000
vt 0.018868 -1.950000
vt 0.981132 -2.650000
vt 0.018868 -2.650000
vt 0.230769 -1.950000
vt 0.981132 -1.950000
vt 0.981132 0.230769
vt 0.018868 0.102564
vt 0.018868 0.230769
vt 0.981132 0.102564
vt 0.769231 -1.950000
vt 0.897436 -2.650000
vt 0.769231 -2.650000
vt 0.897436 -1.950000
vt 0.981132 0.897436
vt 0.018868 0.769231
vt 0.018868 0.897436
vt 0.981132 0.769231
vt 0.198113 -1.760000
vt 0.320989 -0.897655
vt 0.151180 -0.897655
vt 0.324760 -0.897655
vt 0.500000 -1.760000
vt 0.675240 -0.897655
vt 0.216453 -0.897655
vt 0.500000 -0.897655
vt 0.783547 -0.897655
vt 0.500000 0.497655
vt 0.245046 0.497655
vt 0.324760 0.497655
vt 0.675240 0.497655
vt 0.216453 0.497655
vt 0.075238 0.497655
vt 0.783547 0.497655
vt 0.500000 1.360000
vt 0.198113 1.360000
vt 0.363307 -0.897655
vt 0.209389 -0.897655
vt 0.706129 -0.897655
vt 0.457086 -0.897655
vt 0.764090 -0.897655
vt 0.410712 -0.897655
vt 0.593380 -0.897655
vt 0.542914 0.497655
vt 0.235910 0.497655
vt 0.293871 0.497655
vt 0.636693 0.497655
vt 0.502527 0.497655
vt 0.497473 -0.897655
vt 0.589288 0.497655
vt 0.406620 0.497655
vt 0.790611 0.497655
vt 0.407829 -0.897655
vt 0.215025 -0.897655
vt 0.728008 -0.897655
vt 0.416047 -0.897655
vt 0.733091 -0.897655
vt 0.801887 -1.760000
vt 0.674146 -0.897655
vt 0.861690 -0.897655
vt 0.583953 0.497655
vt 0.266909 0.497655
vt 0.271992 0.497655
vt 0.592171 0.497655
vt 0.759898 0.497655
vt 0.843876 -0.897655
vt 0.929627 0.497655
vt 0.742083 0.497655
vt 0.784975 0.497655
vt 0.801887 1.360000
vt 0.339623 1.596000
vt 0.407962 2.372110
vt 0.232098 2.372110
vt 0.268415 2.372110
vt 0.474359 1.596000
vt 0.572424 2.372110
vt 0.249011 2.372110
vt 0.541032 2.372110
vt 0.740912 2.372110
vt 0.407686 3.627889
vt 0.315403 3.627889
vt 0.376293 3.627889
vt 0.680303 3.627889
vt 0.699707 3.627889
vt 0.207806 3.627889
vt 0.363842 2.372110
vt 0.271283 3.627889
vt 0.447148 3.627889
vt 0.474359 4.403999
vt 0.339623 4.403999
vt 0.376293 2.372110
vt 0.207806 2.372110
vt 0.680303 2.372110
vt 0.407686 2.372110
vt 0.699707 2.372110
vt 0.660377 1.596000
vt 0.552852 2.372110
vt 0.728717 2.372110
vt 0.541032 3.627889
vt 0.249011 3.627889
vt 0.268415 3.627889
vt 0.572424 3.627889
vt 0.636158 3.627889
vt 0.684597 2.372110
vt 0.767902 3.627889
vt 0.592038 3.627889
vt 0.740912 3.627889
vt 0.660377 4.403999
vt 0.038462 4.599999
vt 0.961538 4.200000
vt 0.038462 4.200000
vt 0.292453 4.599999
vt 0.330189 4.200000
vt 0.292453 4.200000
vt 0.961538 4.599999
vt 0.330189 4.599999
vt 0.330189 0.961538
vt 0.292453 0.038462
vt 0.292453 0.961538
vt 0.330189 0.038462
vt 0.669811 4.599999
vt 0.707547 4.200000
vt 0.669811 4.200000
vt 0.707547 4.599999
vt 0.707547 0.961538
vt 0.669811 0.038462
vt 0.669811 0.961538
vt 0.707547 0.038462
s 0
usemtl wood
f 2/1/1 3/2/1 1/3/1
f 4/1/2 7/2/2 3/3/2
f 8/4/3 5/3/3 7/2/3
f 6/4/4 1/3/4 5/2/4
f 7/5/5 1/6/5 3/7/5
f 4/7/6 6/8/6 8/5/6
f 10/9/1 11/10/1 9/11/1
f 12/12/2 15/13/2 11/14/2
f 16/15/3 13/11/3 15/10/3
f 14/16/4 9/14/4 13/13/4
f 15/17/5 9/18/5 11/19/5
f 12/19/6 14/20/6 16/17/6
f 18/21/1 19/22/1 17/23/1
f 20/12/2 23/13/2 19/14/2
f 24/24/3 21/23/3 23/22/3
f 22/16/4 17/14/4 21/13/4
f 23/25/5 17/26/5 19/27/5
f 20/27/6 22/28/6 24/25/6
f 2/1/1 4/4/1 3/2/1
f 4/1/2 8/4/2 7/2/2
f 8/4/3 6/1/3 5/3/3
f 6/4/4 2/1/4 1/3/4
f 7/5/5 5/8/5 1/6/5
f 4/7/6 2/6/6 6/8/6
f 10/9/1 12/15/1 11/10/1
f 12/12/2 16/16/2 15/13/2
f 16/15/3 14/9/3 13/11/3
f 14/16/4 10/12/4 9/14/4
f 15/17/5 13/20/5 9/18/5
f 12/19/6 10/18/6 14/20/6
f 18/21/1 20/24/1 19/22/1
f 20/12/2 24/16/2 23/13/2
f 24/24/3 22/21/3 21/23/3
f 22/16/4 18/12/4 17/14/4
f 23/25/5 21/28/5 17/26/5
f 20/27/6 18/26/6 22/28/6
usemtl coal
f 25/29/7 26/30/7 27/31/7
f 26/32/8 25/33/8 30/34/8
f 25/33/9 27/35/9 28/36/9
f 25/33/10 28/36/10 29/37/10
f 25/29/11 29/31/11 30/30/11
f 26/32/12 30/34/12 35/38/12
f 27/31/13 26/30/13 31/39/13
f 28/36/14 27/35/14 32/40/14
f 29/37/15 28/36/15 33/41/15
f 30/30/16 29/31/16 34/39/16
f 26/32/17 35/38/17 31/42/17
f 27/31/18 31/39/18 32/43/18
f 28/36/19 32/40/19 33/41/19
f 29/31/20 33/43/20 34/39/20
f 30/34/21 34/44/21 35/38/21
f 31/42/22 35/38/22 36/45/22
f 32/43/23 31/39/23 36/46/23
f 33/41/24 32/40/24 36/45/24
f 34/39/25 33/43/25 36/46/25
f 35/38/26 34/44/26 36/45/26
f 49/33/47 50/63/47 51/64/47
f 50/63/48 49/33/48 54/65/48
f 49/33/49 51/64/49 52/66/49
f 49/33/50 52/66/50 53/67/50
f 49/68/51 53/69/51 54/70/51
f 50/63/52 54/65/52 59/71/52
f 51/64/53 50/63/53 55/72/53
f 52/66/54 51/64/54 56/73/54
f 53/67/55 52/66/55 57/74/55
f 54/70/56 53/69/56 58/75/56
f 50/63/57 59/71/57 55/72/57
f 51/76/58 55/77/58 56/78/58
f 52/66/59 56/73/59 57/74/59
f 53/67/60 57/74/60 58/79/60
f 54/65/61 58/79/61 59/71/61
f 55/72/62 59/71/62 60/45/62
f 56/78/63 55/77/63 60/80/63
f 57/74/64 56/73/64 60/45/64
f 58/79/65 57/74/65 60/45/65
f 59/71/66 58/79/66 60/45/66
f 73/85/87 74/101/87 75/102/87
f 74/101/88 73/85/88 78/103/88
f 73/85/89 75/102/89 76/104/89
f 73/85/90 76/104/90 77/105/90
f 73/106/91 77/107/91 78/108/91
f 74/101/92 78/103/92 83/109/92
f 75/102/93 74/101/93 79/110/93
f 76/104/94 75/102/94 80/111/94
f 77/105/95 76/104/95 81/112/95
f 78/108/96 77/107/96 82/113/96
f 74/101/97 83/109/97 79/110/97
f 75/114/98 79/115/98 80/116/98
f 76/104/99 80/111/99 81/112/99
f 77/105/100 81/112/100 82/117/100
f 78/103/101 82/117/101 83/109/101
f 79/110/102 83/109/102 84/99/102
f 80/116/103 79/115/103 84/118/103
f 81/112/104 80/111/104 84/99/104
f 82/117/105 81/112/105 84/99/105
f 83/109/106 82/117/106 84/99/106
usemtl ore
f 37/33/27 38/47/27 39/48/27
f 38/47/28 37/33/28 42/49/28
f 37/33/29 39/48/29 40/50/29
f 37/33/30 40/50/30 41/51/30
f 37/33/31 41/52/31 42/53/31
f 38/47/32 42/49/32 47/54/32
f 39/48/33 38/47/33 43/55/33
f 40/50/34 39/48/34 44/56/34
f 41/51/35 40/50/35 45/57/35
f 42/53/36 41/52/36 46/58/36
f 38/47/37 47/54/37 43/55/37
f 39/59/38 43/60/38 44/61/38
f 40/50/39 44/56/39 45/57/39
f 41/51/40 45/57/40 46/62/40
f 42/49/41 46/62/41 47/54/41
f 43/55/42 47/54/42 48/45/42
f 44/61/43 43/60/43 48/45/43
f 45/57/44 44/56/44 48/45/44
f 46/62/45 45/57/45 48/45/45
f 47/54/46 46/62/46 48/45/46
f 61/81/67 62/82/67 63/83/67
f 62/84/68 61/85/68 66/86/68
f 61/85/69 63/87/69 64/88/69
f 61/85/70 64/88/70 65/89/70
f 61/85/71 65/89/71 66/86/71
f 62/84/72 66/86/72 71/90/72
f 63/83/73 62/82/73 67/91/73
f 64/88/74 63/87/74 68/92/74
f 65/89/75 64/88/75 69/93/75
f 66/86/76 65/89/76 70/94/76
f 62/84/77 71/90/77 67/95/77
f 63/87/78 67/95/78 68/92/78
f 64/88/79 68/92/79 69/93/79
f 65/96/80 69/97/80 70/98/80
f 66/86/81 70/94/81 71/90/81
f 67/95/82 71/90/82 72/99/82
f 68/92/83 67/95/83 72/99/83
f 69/93/84 68/92/84 72/99/84
f 70/98/85 69/97/85 72/100/85
f 71/90/86 70/94/86 72/99/86
usemtl iron
f 86/119/1 87/120/1 85/121/1
f 88/122/2 91/123/2 87/124/2
f 92/125/3 89/121/3 91/120/3
f 90/126/4 85/124/4 89/123/4
f 91/127/5 85/128/5 87/129/5
f 88/129/6 90/130/6 92/127/6
f 94/119/1 95/120/1 93/121/1
f 96/131/2 99/132/2 95/133/2
f 100/125/3 97/121/3 99/120/3
f 98/134/4 93/133/4 97/132/4
f 99/135/5 93/136/5 95/137/5
f 96/137/6 98/138/6 100/135/6
f 86/119/1 88/125/1 87/120/1
f 88/122/2 92/126/2 91/123/2
f 92/125/3 90/119/3 89/121/3
f 90/126/4 86/122/4 85/124/4
f 91/127/5 89/130/5 85/128/5
f 88/129/6 86/128/6 90/130/6
f 94/119/1 96/125/1 95/120/1
f 96/131/2 100/134/2 99/132/2
f 100/125/3 98/119/3 97/121/3
f 98/134/4 94/131/4 93/133/4
f 99/135/5 97/138/5 93/136/5
f 96/137/6 94/136/6 98/138/6
