# Blender 4.5.10 LTS
# www.blender.org
mtllib stoker_charcoal_clamp.mtl
o stoker_charcoal_clamp
v 0.237264 0.060000 0.572805
v 0.191342 0.260000 0.461940
v -0.237264 0.060000 0.572805
v -0.191342 0.260000 0.461940
v -0.572805 0.060000 0.237264
v -0.461940 0.260000 0.191342
v -0.572805 0.060000 -0.237264
v -0.461940 0.260000 -0.191342
v -0.237264 0.060000 -0.572805
v -0.191342 0.260000 -0.461940
v 0.237264 0.060000 -0.572805
v 0.191342 0.260000 -0.461940
v 0.572805 0.060000 -0.237264
v 0.461940 0.260000 -0.191342
v 0.572805 0.060000 0.237264
v 0.461940 0.260000 0.191342
v 0.206649 0.220000 0.498895
v 0.114805 0.660000 0.277164
v -0.206649 0.220000 0.498895
v -0.114805 0.660000 0.277164
v -0.498895 0.220000 0.206649
v -0.277164 0.660000 0.114805
v -0.498895 0.220000 -0.206649
v -0.277164 0.660000 -0.114805
v -0.206649 0.220000 -0.498895
v -0.114805 0.660000 -0.277164
v 0.206649 0.220000 -0.498895
v 0.114805 0.660000 -0.277164
v 0.498895 0.220000 -0.206649
v 0.277164 0.660000 -0.114805
v 0.498895 0.220000 0.206649
v 0.277164 0.660000 0.114805
v 0.118632 0.620000 0.286403
v 0.038268 0.860000 0.092388
v -0.118632 0.620000 0.286403
v -0.038268 0.860000 0.092388
v -0.286403 0.620000 0.118632
v -0.092388 0.860000 0.038268
v -0.286403 0.620000 -0.118632
v -0.092388 0.860000 -0.038268
v -0.118632 0.620000 -0.286403
v -0.038268 0.860000 -0.092388
v 0.118632 0.620000 -0.286403
v 0.038268 0.860000 -0.092388
v 0.286403 0.620000 -0.118632
v 0.092388 0.860000 -0.038268
v 0.286403 0.620000 0.118632
v 0.092388 0.860000 0.038268
v 0.150000 0.100000 0.420000
v 0.150000 0.380000 0.420000
v 0.150000 0.100000 0.580000
v 0.150000 0.380000 0.580000
v -0.150000 0.100000 0.420000
v -0.150000 0.380000 0.420000
v -0.150000 0.100000 0.580000
v -0.150000 0.380000 0.580000
v 0.190000 0.355000 0.470000
v 0.190000 0.445000 0.470000
v 0.190000 0.355000 0.570000
v 0.190000 0.445000 0.570000
v -0.190000 0.355000 0.470000
v -0.190000 0.445000 0.470000
v -0.190000 0.355000 0.570000
v -0.190000 0.445000 0.570000
v -0.259731 0.020000 0.392342
v -0.259731 0.280000 0.392342
v -0.259731 0.020000 0.492342
v -0.259731 0.280000 0.492342
v -0.359731 0.020000 0.392342
v -0.359731 0.280000 0.392342
v -0.359731 0.020000 0.492342
v -0.359731 0.280000 0.492342
v 0.359731 0.020000 0.392342
v 0.359731 0.280000 0.392342
v 0.359731 0.020000 0.492342
v 0.359731 0.280000 0.492342
v 0.259731 0.020000 0.392342
v 0.259731 0.280000 0.392342
v 0.259731 0.020000 0.492342
v 0.259731 0.280000 0.492342
v 0.359731 0.020000 -0.492342
v 0.359731 0.280000 -0.492342
v 0.359731 0.020000 -0.392342
v 0.359731 0.280000 -0.392342
v 0.259731 0.020000 -0.492342
v 0.259731 0.280000 -0.492342
v 0.259731 0.020000 -0.392342
v 0.259731 0.280000 -0.392342
v -0.259731 0.020000 -0.492342
v -0.259731 0.280000 -0.492342
v -0.259731 0.020000 -0.392342
v -0.259731 0.280000 -0.392342
v -0.359731 0.020000 -0.492342
v -0.359731 0.280000 -0.492342
v -0.359731 0.020000 -0.392342
v -0.359731 0.280000 -0.392342
vn -0.0000 0.4848 0.8746
vn -0.6184 0.4848 0.6184
vn -0.8746 0.4848 -0.0000
vn -0.6184 0.4848 -0.6184
vn -0.0000 0.4848 -0.8746
vn 0.6184 0.4848 -0.6184
vn -0.0000 1.0000 -0.0000
vn 0.8746 0.4848 -0.0000
vn 0.6184 0.4848 0.6184
vn -0.0000 -1.0000 -0.0000
vn -0.0000 0.4500 0.8930
vn -0.6315 0.4500 0.6315
vn -0.8930 0.4500 -0.0000
vn -0.6315 0.4500 -0.6315
vn -0.0000 0.4500 -0.8930
vn 0.6315 0.4500 -0.6315
vn 0.8930 0.4500 -0.0000
vn 0.6315 0.4500 0.6315
vn -0.0000 0.6287 0.7777
vn -0.5499 0.6287 0.5499
vn -0.7777 0.6287 -0.0000
vn -0.5499 0.6287 -0.5499
vn -0.0000 0.6287 -0.7777
vn 0.5499 0.6287 -0.5499
vn 0.7777 0.6287 -0.0000
vn 0.5499 0.6287 0.5499
vn 1.0000 -0.0000 -0.0000
vn -0.0000 -0.0000 1.0000
vn -1.0000 -0.0000 -0.0000
vn -0.0000 -0.0000 -1.0000
vt 0.500000 0.320000
vt 0.938406 0.120000
vt 0.500000 0.120000
vt 0.853553 0.320000
vt 0.061594 0.120000
vt 0.146447 0.320000
vt 0.000000 0.500000
vt 0.500000 0.000000
vt 1.000000 0.500000
vt -0.120000 0.500000
vt 0.061594 0.938406
vt 0.938406 0.061594
vt 0.500000 0.720000
vt 0.881838 0.280000
vt 0.500000 0.280000
vt 0.712132 0.720000
vt 0.118162 0.280000
vt 0.287868 0.720000
vt 0.200000 0.500000
vt 0.500000 0.200000
vt 0.800000 0.500000
vt 0.881838 0.118162
vt 0.118162 0.118162
vt 0.118162 0.881838
vt 0.500000 0.920000
vt 0.719203 0.680000
vt 0.500000 0.680000
vt 0.570711 0.920000
vt 0.280797 0.680000
vt 0.429289 0.920000
vt 0.400000 0.500000
vt 0.500000 0.400000
vt 0.600000 0.500000
vt 0.190000 0.500000
vt 0.280797 0.719203
vt 0.719203 0.280797
vt 0.945432 0.440000
vt 1.093253 0.160000
vt 0.945432 0.160000
vt 0.583375 0.440000
vt 0.860538 0.160000
vt 0.583375 0.160000
vt 0.978448 0.440000
vt 0.830627 0.160000
vt 0.978448 0.160000
vt 0.799309 0.440000
vt 0.522145 0.160000
vt 0.799309 0.160000
vt 0.860538 0.978448
vt 0.522145 0.945432
vt 0.583375 1.093253
vt 0.799309 0.830627
vt 1.006933 0.505000
vt 1.099321 0.415000
vt 1.006933 0.415000
vt 0.542592 0.505000
vt 0.893667 0.415000
vt 0.542592 0.415000
vt 0.953901 0.505000
vt 0.861513 0.415000
vt 0.953901 0.415000
vt 0.855398 0.505000
vt 0.504324 0.415000
vt 0.855398 0.415000
vt 0.542592 1.099321
vt 0.855398 0.861513
vt 0.504324 1.006933
vt 0.893667 0.953901
vt 0.763082 0.340000
vt 0.855470 0.080000
vt 0.763082 0.080000
vt 0.928372 0.340000
vt 1.020760 0.080000
vt 0.928372 0.080000
vt 0.817202 0.340000
vt 0.724814 0.080000
vt 0.817202 0.080000
vt 0.982491 0.340000
vt 0.890103 0.080000
vt 0.982491 0.080000
vt 0.928372 0.855470
vt 0.982491 0.724814
vt 0.890103 0.763082
vt 1.020760 0.817202
vt 1.000140 0.340000
vt 1.092528 0.080000
vt 1.000140 0.080000
vt 0.356063 0.340000
vt 0.448451 0.080000
vt 0.356063 0.080000
vt 1.054260 0.340000
vt 0.961872 0.080000
vt 1.054260 0.080000
vt 0.410182 0.340000
vt 0.317794 0.080000
vt 0.410182 0.080000
vt 0.356063 1.092528
vt 0.410182 0.961872
vt 0.317794 1.000140
vt 0.448451 1.054260
vt 0.182798 0.340000
vt 0.275186 0.080000
vt 0.182798 0.080000
vt 0.017509 0.340000
vt 0.109897 0.080000
vt 0.017509 0.080000
vt 0.236918 0.340000
vt 0.144530 0.080000
vt 0.236918 0.080000
vt 0.071628 0.340000
vt -0.020760 0.080000
vt 0.071628 0.080000
vt 0.017509 0.275186
vt 0.071628 0.144530
vt -0.020760 0.182798
vt 0.109897 0.236918
vt -0.054260 0.340000
vt 0.038128 0.080000
vt -0.054260 0.080000
vt 0.589818 0.340000
vt 0.682206 0.080000
vt 0.589818 0.080000
vt -0.000140 0.340000
vt -0.092528 0.080000
vt -0.000140 0.080000
vt 0.643937 0.340000
vt 0.551549 0.080000
vt 0.643937 0.080000
vt 0.682206 -0.000140
vt 0.551549 -0.054260
vt 0.589818 0.038128
vt 0.643937 -0.092528
vt 0.853553 0.853553
vt 0.500000 1.000000
vt 0.146447 0.853553
vt 0.146447 0.146447
vt 0.853553 0.146447
vt 0.500000 1.120000
vt 0.938406 0.938406
vt 1.120000 0.500000
vt 0.500000 -0.120000
vt 0.061594 0.061594
vt 0.712132 0.712132
vt 0.500000 0.800000
vt 0.287868 0.712132
vt 0.287868 0.287868
vt 0.712132 0.287868
vt 0.500000 1.040000
vt 0.881838 0.881838
vt 1.040000 0.500000
vt 0.500000 -0.040000
vt -0.040000 0.500000
vt 0.570711 0.570711
vt 0.500000 0.600000
vt 0.429289 0.570711
vt 0.429289 0.429289
vt 0.570711 0.429289
vt 0.500000 0.810000
vt 0.719203 0.719203
vt 0.810000 0.500000
vt 0.500000 0.190000
vt 0.280797 0.280797
vt 1.093253 0.440000
vt 0.860538 0.440000
vt 0.830627 0.440000
vt 0.522145 0.440000
vt 1.099321 0.505000
vt 0.893667 0.505000
vt 0.861513 0.505000
vt 0.504324 0.505000
vt 0.855470 0.340000
vt 1.020760 0.340000
vt 0.724814 0.340000
vt 0.890103 0.340000
vt 1.092528 0.340000
vt 0.448451 0.340000
vt 0.961872 0.340000
vt 0.317794 0.340000
vt 0.275186 0.340000
vt 0.109897 0.340000
vt 0.144530 0.340000
vt -0.020760 0.340000
vt 0.038128 0.340000
vt 0.682206 0.340000
vt -0.092528 0.340000
vt 0.551549 0.340000
s 0
usemtl stone
f 2/1/1 3/2/1 1/3/1
f 4/4/2 5/3/2 3/2/2
f 6/1/3 7/5/3 5/3/3
f 8/4/4 9/3/4 7/2/4
f 10/1/5 11/5/5 9/3/5
f 12/6/6 13/3/6 11/5/6
f 14/7/7 10/8/7 6/9/7
f 14/1/8 15/2/8 13/3/8
f 16/6/9 1/3/9 15/5/9
f 13/10/10 15/11/10 7/12/10
f 66/69/27 67/70/27 65/71/27
f 68/72/28 71/73/28 67/74/28
f 72/75/29 69/76/29 71/77/29
f 70/78/30 65/79/30 69/80/30
f 67/81/10 69/82/10 65/83/10
f 68/81/7 70/82/7 72/84/7
f 74/85/27 75/86/27 73/87/27
f 76/88/28 79/89/28 75/90/28
f 80/91/29 77/92/29 79/93/29
f 78/94/30 73/95/30 77/96/30
f 75/97/10 77/98/10 73/99/10
f 76/97/7 78/98/7 80/100/7
f 82/101/27 83/102/27 81/103/27
f 84/104/28 87/105/28 83/106/28
f 88/107/29 85/108/29 87/109/29
f 86/110/30 81/111/30 85/112/30
f 83/113/10 85/114/10 81/115/10
f 84/113/7 86/114/7 88/116/7
f 90/117/27 91/118/27 89/119/27
f 92/120/28 95/121/28 91/122/28
f 96/123/29 93/124/29 95/125/29
f 94/126/30 89/127/30 93/128/30
f 95/129/10 89/130/10 91/131/10
f 92/131/7 94/132/7 96/129/7
f 2/1/1 4/4/1 3/2/1
f 4/4/2 6/1/2 5/3/2
f 6/1/3 8/6/3 7/5/3
f 8/4/4 10/1/4 9/3/4
f 10/1/5 12/6/5 11/5/5
f 12/6/6 14/1/6 13/3/6
f 6/9/7 4/133/7 2/134/7
f 2/134/7 16/135/7 14/7/7
f 14/7/7 12/136/7 10/8/7
f 10/8/7 8/137/7 6/9/7
f 6/9/7 2/134/7 14/7/7
f 14/1/8 16/4/8 15/2/8
f 16/6/9 2/1/9 1/3/9
f 15/11/10 1/138/10 3/139/10
f 3/139/10 5/140/10 15/11/10
f 5/140/10 7/12/10 15/11/10
f 7/12/10 9/141/10 11/142/10
f 11/142/10 13/10/10 7/12/10
f 66/69/27 68/171/27 67/70/27
f 68/72/28 72/172/28 71/73/28
f 72/75/29 70/173/29 69/76/29
f 70/78/30 66/174/30 65/79/30
f 67/81/10 71/84/10 69/82/10
f 68/81/7 66/83/7 70/82/7
f 74/85/27 76/175/27 75/86/27
f 76/88/28 80/176/28 79/89/28
f 80/91/29 78/177/29 77/92/29
f 78/94/30 74/178/30 73/95/30
f 75/97/10 79/100/10 77/98/10
f 76/97/7 74/99/7 78/98/7
f 82/101/27 84/179/27 83/102/27
f 84/104/28 88/180/28 87/105/28
f 88/107/29 86/181/29 85/108/29
f 86/110/30 82/182/30 81/111/30
f 83/113/10 87/116/10 85/114/10
f 84/113/7 82/115/7 86/114/7
f 90/117/27 92/183/27 91/118/27
f 92/120/28 96/184/28 95/121/28
f 96/123/29 94/185/29 93/124/29
f 94/126/30 90/186/30 89/127/30
f 95/129/10 93/132/10 89/130/10
f 92/131/7 90/130/7 94/132/7
usemtl turf
f 18/13/11 19/14/11 17/15/11
f 20/16/12 21/15/12 19/14/12
f 22/13/13 23/17/13 21/15/13
f 24/16/14 25/15/14 23/14/14
f 26/13/15 27/17/15 25/15/15
f 28/18/16 29/15/16 27/17/16
f 30/19/7 26/20/7 22/21/7
f 30/13/17 31/14/17 29/15/17
f 32/18/18 17/15/18 31/17/18
f 23/22/10 27/23/10 31/24/10
f 34/25/19 35/26/19 33/27/19
f 36/28/20 37/27/20 35/26/20
f 38/25/21 39/29/21 37/27/21
f 40/28/22 41/27/22 39/26/22
f 42/25/23 43/29/23 41/27/23
f 44/30/24 45/27/24 43/29/24
f 46/31/7 42/32/7 38/33/7
f 46/25/25 47/26/25 45/27/25
f 48/30/26 33/27/26 47/29/26
f 45/34/10 47/35/10 39/36/10
f 18/13/11 20/16/11 19/14/11
f 20/16/12 22/13/12 21/15/12
f 22/13/13 24/18/13 23/17/13
f 24/16/14 26/13/14 25/15/14
f 26/13/15 28/18/15 27/17/15
f 28/18/16 30/13/16 29/15/16
f 22/21/7 20/143/7 18/144/7
f 18/144/7 32/145/7 30/19/7
f 30/19/7 28/146/7 26/20/7
f 26/20/7 24/147/7 22/21/7
f 22/21/7 18/144/7 30/19/7
f 30/13/17 32/16/17 31/14/17
f 32/18/18 18/13/18 17/15/18
f 31/24/10 17/148/10 19/149/10
f 19/149/10 21/150/10 23/22/10
f 23/22/10 25/151/10 27/23/10
f 27/23/10 29/152/10 31/24/10
f 31/24/10 19/149/10 23/22/10
f 34/25/19 36/28/19 35/26/19
f 36/28/20 38/25/20 37/27/20
f 38/25/21 40/30/21 39/29/21
f 40/28/22 42/25/22 41/27/22
f 42/25/23 44/30/23 43/29/23
f 44/30/24 46/25/24 45/27/24
f 38/33/7 36/153/7 34/154/7
f 34/154/7 48/155/7 46/31/7
f 46/31/7 44/156/7 42/32/7
f 42/32/7 40/157/7 38/33/7
f 38/33/7 34/154/7 46/31/7
f 46/25/25 48/28/25 47/26/25
f 48/30/26 34/25/26 33/27/26
f 47/35/10 33/158/10 35/159/10
f 35/159/10 37/160/10 47/35/10
f 37/160/10 39/36/10 47/35/10
f 39/36/10 41/161/10 43/162/10
f 43/162/10 45/34/10 39/36/10
usemtl iron
f 50/37/27 51/38/27 49/39/27
f 52/40/28 55/41/28 51/42/28
f 56/43/29 53/44/29 55/45/29
f 54/46/30 49/47/30 53/48/30
f 55/49/10 49/50/10 51/51/10
f 56/49/7 50/50/7 54/52/7
f 58/53/27 59/54/27 57/55/27
f 60/56/28 63/57/28 59/58/28
f 64/59/29 61/60/29 63/61/29
f 62/62/30 57/63/30 61/64/30
f 59/65/10 61/66/10 57/67/10
f 60/65/7 62/66/7 64/68/7
f 50/37/27 52/163/27 51/38/27
f 52/40/28 56/164/28 55/41/28
f 56/43/29 54/165/29 53/44/29
f 54/46/30 50/166/30 49/47/30
f 55/49/10 53/52/10 49/50/10
f 56/49/7 52/51/7 50/50/7
f 58/53/27 60/167/27 59/54/27
f 60/56/28 64/168/28 63/57/28
f 64/59/29 62/169/29 61/60/29
f 62/62/30 58/170/30 57/63/30
f 59/65/10 63/68/10 61/66/10
f 60/65/7 58/67/7 62/66/7
