# Blender 4.5.10 LTS
# www.blender.org
mtllib stoker_kiln_woodrick.mtl
o stoker_kiln_woodrick
v 0.510000 0.000000 -0.060000
v 0.510000 1.050000 -0.060000
v 0.510000 0.000000 0.060000
v 0.510000 1.050000 0.060000
v 0.410000 0.000000 -0.060000
v 0.410000 1.050000 -0.060000
v 0.410000 0.000000 0.060000
v 0.410000 1.050000 0.060000
v 0.510000 0.975000 -0.360000
v 0.510000 1.065000 -0.360000
v 0.510000 0.975000 0.360000
v 0.510000 1.065000 0.360000
v 0.410000 0.975000 -0.360000
v 0.410000 1.065000 -0.360000
v 0.410000 0.975000 0.360000
v 0.410000 1.065000 0.360000
v -0.410000 0.000000 -0.060000
v -0.410000 1.050000 -0.060000
v -0.410000 0.000000 0.060000
v -0.410000 1.050000 0.060000
v -0.510000 0.000000 -0.060000
v -0.510000 1.050000 -0.060000
v -0.510000 0.000000 0.060000
v -0.510000 1.050000 0.060000
v -0.410000 0.975000 -0.360000
v -0.410000 1.065000 -0.360000
v -0.410000 0.975000 0.360000
v -0.410000 1.065000 0.360000
v -0.510000 0.975000 -0.360000
v -0.510000 1.065000 -0.360000
v -0.510000 0.975000 0.360000
v -0.510000 1.065000 0.360000
v 0.310000 0.295000 0.330000
v 0.310000 0.295000 -0.330000
v 0.242825 0.267175 0.330000
v 0.242825 0.267175 -0.330000
v 0.215000 0.200000 0.330000
v 0.215000 0.200000 -0.330000
v 0.242825 0.132825 0.330000
v 0.242825 0.132825 -0.330000
v 0.310000 0.105000 0.330000
v 0.310000 0.105000 -0.330000
v 0.377175 0.132825 0.330000
v 0.377175 0.132825 -0.330000
v 0.405000 0.200000 0.330000
v 0.405000 0.200000 -0.330000
v 0.377175 0.267175 0.330000
v 0.377175 0.267175 -0.330000
v 0.103333 0.295000 0.330000
v 0.103333 0.295000 -0.330000
v 0.036158 0.267175 0.330000
v 0.036158 0.267175 -0.330000
v 0.008333 0.200000 0.330000
v 0.008333 0.200000 -0.330000
v 0.036158 0.132825 0.330000
v 0.036158 0.132825 -0.330000
v 0.103333 0.105000 0.330000
v 0.103333 0.105000 -0.330000
v 0.170509 0.132825 0.330000
v 0.170509 0.132825 -0.330000
v 0.198333 0.200000 0.330000
v 0.198333 0.200000 -0.330000
v 0.170509 0.267175 0.330000
v 0.170509 0.267175 -0.330000
v -0.103333 0.295000 0.330000
v -0.103333 0.295000 -0.330000
v -0.170508 0.267175 0.330000
v -0.170508 0.267175 -0.330000
v -0.198333 0.200000 0.330000
v -0.198333 0.200000 -0.330000
v -0.170508 0.132825 0.330000
v -0.170508 0.132825 -0.330000
v -0.103333 0.105000 0.330000
v -0.103333 0.105000 -0.330000
v -0.036158 0.132825 0.330000
v -0.036158 0.132825 -0.330000
v -0.008333 0.200000 0.330000
v -0.008333 0.200000 -0.330000
v -0.036158 0.267175 0.330000
v -0.036158 0.267175 -0.330000
v -0.310000 0.295000 0.330000
v -0.310000 0.295000 -0.330000
v -0.377175 0.267175 0.330000
v -0.377175 0.267175 -0.330000
v -0.405000 0.200000 0.330000
v -0.405000 0.200000 -0.330000
v -0.377175 0.132825 0.330000
v -0.377175 0.132825 -0.330000
v -0.310000 0.105000 0.330000
v -0.310000 0.105000 -0.330000
v -0.242825 0.132825 0.330000
v -0.242825 0.132825 -0.330000
v -0.215000 0.200000 0.330000
v -0.215000 0.200000 -0.330000
v -0.242825 0.267175 0.330000
v -0.242825 0.267175 -0.330000
v 0.310000 0.495000 0.330000
v 0.310000 0.495000 -0.330000
v 0.242825 0.467175 0.330000
v 0.242825 0.467175 -0.330000
v 0.215000 0.400000 0.330000
v 0.215000 0.400000 -0.330000
v 0.242825 0.332825 0.330000
v 0.242825 0.332825 -0.330000
v 0.310000 0.305000 0.330000
v 0.310000 0.305000 -0.330000
v 0.377175 0.332825 0.330000
v 0.377175 0.332825 -0.330000
v 0.405000 0.400000 0.330000
v 0.405000 0.400000 -0.330000
v 0.377175 0.467175 0.330000
v 0.377175 0.467175 -0.330000
v 0.000000 0.495000 0.330000
v 0.000000 0.495000 -0.330000
v -0.067175 0.467175 0.330000
v -0.067175 0.467175 -0.330000
v -0.095000 0.400000 0.330000
v -0.095000 0.400000 -0.330000
v -0.067175 0.332825 0.330000
v -0.067175 0.332825 -0.330000
v 0.000000 0.305000 0.330000
v 0.000000 0.305000 -0.330000
v 0.067175 0.332825 0.330000
v 0.067175 0.332825 -0.330000
v 0.095000 0.400000 0.330000
v 0.095000 0.400000 -0.330000
v 0.067175 0.467175 0.330000
v 0.067175 0.467175 -0.330000
v -0.310000 0.495000 0.330000
v -0.310000 0.495000 -0.330000
v -0.377175 0.467175 0.330000
v -0.377175 0.467175 -0.330000
v -0.405000 0.400000 0.330000
v -0.405000 0.400000 -0.330000
v -0.377175 0.332825 0.330000
v -0.377175 0.332825 -0.330000
v -0.310000 0.305000 0.330000
v -0.310000 0.305000 -0.330000
v -0.242825 0.332825 0.330000
v -0.242825 0.332825 -0.330000
v -0.215000 0.400000 0.330000
v -0.215000 0.400000 -0.330000
v -0.242825 0.467175 0.330000
v -0.242825 0.467175 -0.330000
v 0.310000 0.695000 0.330000
v 0.310000 0.695000 -0.330000
v 0.242825 0.667175 0.330000
v 0.242825 0.667175 -0.330000
v 0.215000 0.600000 0.330000
v 0.215000 0.600000 -0.330000
v 0.242825 0.532825 0.330000
v 0.242825 0.532825 -0.330000
v 0.310000 0.505000 0.330000
v 0.310000 0.505000 -0.330000
v 0.377175 0.532825 0.330000
v 0.377175 0.532825 -0.330000
v 0.405000 0.600000 0.330000
v 0.405000 0.600000 -0.330000
v 0.377175 0.667175 0.330000
v 0.377175 0.667175 -0.330000
v 0.103333 0.695000 0.330000
v 0.103333 0.695000 -0.330000
v 0.036158 0.667175 0.330000
v 0.036158 0.667175 -0.330000
v 0.008333 0.600000 0.330000
v 0.008333 0.600000 -0.330000
v 0.036158 0.532825 0.330000
v 0.036158 0.532825 -0.330000
v 0.103333 0.505000 0.330000
v 0.103333 0.505000 -0.330000
v 0.170509 0.532825 0.330000
v 0.170509 0.532825 -0.330000
v 0.198333 0.600000 0.330000
v 0.198333 0.600000 -0.330000
v 0.170509 0.667175 0.330000
v 0.170509 0.667175 -0.330000
v -0.103333 0.695000 0.330000
v -0.103333 0.695000 -0.330000
v -0.170508 0.667175 0.330000
v -0.170508 0.667175 -0.330000
v -0.198333 0.600000 0.330000
v -0.198333 0.600000 -0.330000
v -0.170508 0.532825 0.330000
v -0.170508 0.532825 -0.330000
v -0.103333 0.505000 0.330000
v -0.103333 0.505000 -0.330000
v -0.036158 0.532825 0.330000
v -0.036158 0.532825 -0.330000
v -0.008333 0.600000 0.330000
v -0.008333 0.600000 -0.330000
v -0.036158 0.667175 0.330000
v -0.036158 0.667175 -0.330000
v -0.310000 0.695000 0.330000
v -0.310000 0.695000 -0.330000
v -0.377175 0.667175 0.330000
v -0.377175 0.667175 -0.330000
v -0.405000 0.600000 0.330000
v -0.405000 0.600000 -0.330000
v -0.377175 0.532825 0.330000
v -0.377175 0.532825 -0.330000
v -0.310000 0.505000 0.330000
v -0.310000 0.505000 -0.330000
v -0.242825 0.532825 0.330000
v -0.242825 0.532825 -0.330000
v -0.215000 0.600000 0.330000
v -0.215000 0.600000 -0.330000
v -0.242825 0.667175 0.330000
v -0.242825 0.667175 -0.330000
v 0.310000 0.875000 0.330000
v 0.310000 0.875000 -0.330000
v 0.242825 0.847175 0.330000
v 0.242825 0.847175 -0.330000
v 0.215000 0.780000 0.330000
v 0.215000 0.780000 -0.330000
v 0.242825 0.712825 0.330000
v 0.242825 0.712825 -0.330000
v 0.310000 0.685000 0.330000
v 0.310000 0.685000 -0.330000
v 0.377175 0.712825 0.330000
v 0.377175 0.712825 -0.330000
v 0.405000 0.780000 0.330000
v 0.405000 0.780000 -0.330000
v 0.377175 0.847175 0.330000
v 0.377175 0.847175 -0.330000
v 0.000000 0.875000 0.330000
v 0.000000 0.875000 -0.330000
v -0.067175 0.847175 0.330000
v -0.067175 0.847175 -0.330000
v -0.095000 0.780000 0.330000
v -0.095000 0.780000 -0.330000
v -0.067175 0.712825 0.330000
v -0.067175 0.712825 -0.330000
v 0.000000 0.685000 0.330000
v 0.000000 0.685000 -0.330000
v 0.067175 0.712825 0.330000
v 0.067175 0.712825 -0.330000
v 0.095000 0.780000 0.330000
v 0.095000 0.780000 -0.330000
v 0.067175 0.847175 0.330000
v 0.067175 0.847175 -0.330000
v -0.310000 0.875000 0.330000
v -0.310000 0.875000 -0.330000
v -0.377175 0.847175 0.330000
v -0.377175 0.847175 -0.330000
v -0.405000 0.780000 0.330000
v -0.405000 0.780000 -0.330000
v -0.377175 0.712825 0.330000
v -0.377175 0.712825 -0.330000
v -0.310000 0.685000 0.330000
v -0.310000 0.685000 -0.330000
v -0.242825 0.712825 0.330000
v -0.242825 0.712825 -0.330000
v -0.215000 0.780000 0.330000
v -0.215000 0.780000 -0.330000
v -0.242825 0.847175 0.330000
v -0.242825 0.847175 -0.330000
v 0.580000 0.988154 -0.443876
v 0.580000 1.057770 -0.451193
v 0.580000 1.082230 0.451193
v 0.580000 1.151846 0.443876
v -0.580000 0.988154 -0.443876
v -0.580000 1.057770 -0.451193
v -0.580000 1.082230 0.451193
v -0.580000 1.151846 0.443876
v 0.045000 1.050190 -0.425031
v 0.045000 1.099916 -0.430258
v 0.045000 1.140084 0.430258
v 0.045000 1.189810 0.425031
v -0.045000 1.050190 -0.425031
v -0.045000 1.099916 -0.430258
v -0.045000 1.140084 0.430258
v -0.045000 1.189810 0.425031
v 0.530000 0.000000 -0.390000
v 0.530000 0.100000 -0.390000
v 0.530000 0.000000 0.390000
v 0.530000 0.100000 0.390000
v -0.530000 0.000000 -0.390000
v -0.530000 0.100000 -0.390000
v -0.530000 0.000000 0.390000
v -0.530000 0.100000 0.390000
vn 1.0000 -0.0000 -0.0000
vn -0.0000 -0.0000 1.0000
vn -1.0000 -0.0000 -0.0000
vn -0.0000 -0.0000 -1.0000
vn -0.0000 -1.0000 -0.0000
vn -0.0000 1.0000 -0.0000
vn -0.3827 0.9239 -0.0000
vn -0.9239 0.3827 -0.0000
vn -0.9239 -0.3827 -0.0000
vn -0.3827 -0.9239 -0.0000
vn 0.3827 -0.9239 -0.0000
vn 0.9239 -0.3827 -0.0000
vn 0.9239 0.3827 -0.0000
vn 0.3827 0.9239 -0.0000
vn -0.0000 0.1045 0.9945
vn -0.0000 -0.1045 -0.9945
vn -0.0000 -0.9945 0.1045
vn -0.0000 0.9945 -0.1045
vt 0.000000 0.933424
vt 1.000000 -0.066576
vt 0.000000 -0.066576
vt -4.600000 0.933424
vt -3.600000 -0.066576
vt -4.600000 -0.066576
vt 1.000000 0.933424
vt -3.600000 0.933424
vt -3.600000 1.000000
vt -4.600000 0.000000
vt -4.600000 1.000000
vt -3.600000 0.000000
vt -2.500000 0.947709
vt 3.500000 0.861995
vt -2.500000 0.861995
vt -4.600000 0.947709
vt -3.600000 0.861995
vt -4.600000 0.861995
vt 3.500000 0.947709
vt -3.600000 0.947709
vt -3.600000 3.500000
vt -4.600000 -2.500000
vt -4.600000 3.500000
vt -3.600000 -2.500000
vt 0.000000 0.933424
vt 0.000000 -0.066576
vt 4.599998 0.933424
vt 5.599998 -0.066576
vt 4.599998 -0.066576
vt 5.599998 0.933424
vt 5.599998 1.000000
vt 4.599998 0.000000
vt 4.599998 1.000000
vt 5.599998 0.000000
vt 4.599998 0.947709
vt 5.599998 0.861995
vt 4.599998 0.861995
vt 5.599998 0.947709
vt 5.599998 3.500000
vt 4.599998 -2.500000
vt 4.599998 3.500000
vt 5.599998 -2.500000
vt -2.600000 -2.250000
vt -1.928249 3.250000
vt -2.600000 3.250000
vt -1.928249 -2.250000
vt -1.650000 3.250000
vt -1.650000 -2.250000
vt -3.271751 -2.250000
vt -3.271751 3.250000
vt -3.550000 3.250000
vt -2.600000 0.033424
vt -1.928249 0.059924
vt -2.600000 0.214376
vt -3.550000 -2.250000
vt -3.271751 0.059924
vt -3.550000 0.123900
vt -3.271751 0.187876
vt -0.533334 -2.250000
vt 0.138418 3.250000
vt -0.533334 3.250000
vt 0.138418 -2.250000
vt 0.416666 3.250000
vt 0.416666 -2.250000
vt -1.205085 -2.250000
vt -1.205085 3.250000
vt -1.483334 3.250000
vt -0.533334 0.033424
vt 0.138418 0.059924
vt -0.533334 0.214376
vt -1.483334 -2.250000
vt -1.205085 0.059924
vt -1.483334 0.123900
vt -1.205085 0.187876
vt 1.533333 -2.250000
vt 2.205084 3.250000
vt 1.533333 3.250000
vt 2.205084 -2.250000
vt 2.483333 3.250000
vt 2.483333 -2.250000
vt 0.861581 -2.250000
vt 0.861581 3.250000
vt 0.583333 3.250000
vt 1.533333 0.033424
vt 2.205084 0.059924
vt 1.533333 0.214376
vt 0.583333 -2.250000
vt 0.861581 0.059924
vt 0.583333 0.123900
vt 0.861581 0.187876
vt 3.599999 3.250000
vt 4.271750 -2.250000
vt 4.271750 3.250000
vt 4.549999 3.250000
vt 4.549999 -2.250000
vt 3.599999 -2.250000
vt 2.928248 -2.250000
vt 2.928248 3.250000
vt 2.650000 3.250000
vt 3.599999 0.033424
vt 4.271750 0.059924
vt 4.271750 0.187876
vt 2.650000 -2.250000
vt 2.928248 0.059924
vt 2.650000 0.123900
vt 2.928248 0.187876
vt -2.600000 0.223900
vt -1.928249 0.250400
vt -1.928249 0.378352
vt -3.271751 0.250400
vt -3.550000 0.314376
vt -3.271751 0.378352
vt 0.500000 -2.250000
vt 1.171751 3.250000
vt 0.500000 3.250000
vt 1.171751 -2.250000
vt 1.449999 3.250000
vt 1.449999 -2.250000
vt -0.171752 3.250000
vt -0.171752 -2.250000
vt -0.450000 3.250000
vt 0.500000 0.223900
vt 1.171751 0.250400
vt 1.171751 0.378352
vt -0.450000 -2.250000
vt -0.171752 0.250400
vt -0.450000 0.314376
vt -0.171752 0.378352
vt 3.599999 0.223900
vt 4.271750 0.250400
vt 3.599999 0.404852
vt 2.928248 0.250400
vt 2.650000 0.314376
vt 2.928248 0.378352
vt -2.600000 0.414376
vt -1.928249 0.440876
vt -1.928249 0.568829
vt -3.271751 0.440876
vt -3.550000 0.504852
vt -3.271751 0.568829
vt -0.533334 0.414376
vt 0.138418 0.440876
vt 0.138418 0.568829
vt -1.205085 0.440876
vt -1.483334 0.504852
vt -1.205085 0.568829
vt 1.533333 0.414376
vt 2.205084 0.440876
vt 2.205084 0.568829
vt 0.861581 0.440876
vt 0.583333 0.504852
vt 0.861581 0.568829
vt 3.599999 0.414376
vt 4.271750 0.440876
vt 3.599999 0.595329
vt 2.928248 0.440876
vt 2.650000 0.504852
vt 2.928248 0.568829
vt -2.600000 0.585805
vt -1.928249 0.612304
vt -1.928249 0.740257
vt -3.271751 0.612305
vt -3.550000 0.676281
vt -3.271751 0.740257
vt 0.500000 0.585805
vt 1.171751 0.612304
vt 1.171751 0.740257
vt -0.171752 0.612305
vt -0.450000 0.676281
vt -0.171752 0.740257
vt 3.599999 0.585805
vt 4.271750 0.612304
vt 3.599999 0.766757
vt 2.928248 0.612305
vt 2.650000 0.676281
vt 2.928248 0.740257
vt -3.198969 0.874523
vt 4.198969 1.030420
vt 4.259944 0.964119
vt -5.300000 1.030420
vt 6.299999 0.964119
vt -5.300000 0.964119
vt 6.299999 0.940824
vt -5.300000 0.874523
vt 6.299999 0.874523
vt 6.299999 4.259944
vt -5.300000 -3.198969
vt -5.300000 4.259944
vt -5.300000 4.198969
vt 6.299999 -3.259944
vt 6.299999 4.198969
vt -3.041927 0.933604
vt 4.041927 1.066576
vt 4.085480 1.019218
vt 0.050000 1.066576
vt 0.949999 1.019218
vt 0.050000 1.019218
vt 0.949999 0.980963
vt 0.050000 0.933604
vt 0.949999 0.933604
vt 0.949999 4.085480
vt 0.050000 -3.041927
vt 0.050000 4.085480
vt 0.050000 4.041927
vt 0.949999 -3.085480
vt 0.949999 4.041927
vt -2.750000 0.028662
vt 3.750000 -0.066576
vt -2.750000 -0.066576
vt -4.800000 0.028662
vt 5.799999 -0.066576
vt -4.800000 -0.066576
vt 3.750000 0.028662
vt 5.799999 0.028662
vt 5.799999 3.750000
vt -4.800000 -2.750000
vt -4.800000 3.750000
vt 5.799999 -2.750000
vt -1.650000 0.123900
vt -1.928249 0.187876
vt -3.271751 0.187876
vt -3.271751 0.059924
vt -2.600000 0.214376
vt -2.600000 0.033424
vt -1.928249 0.187876
vt -1.928249 0.059924
vt 0.416666 0.123900
vt 0.138418 0.187876
vt -1.205085 0.187876
vt -1.205085 0.059924
vt -0.533334 0.214376
vt -0.533334 0.033424
vt 0.138418 0.187876
vt 0.138418 0.059924
vt 2.483333 0.123900
vt 2.205084 0.187876
vt 0.861581 0.187876
vt 0.861581 0.059924
vt 1.533333 0.214376
vt 1.533333 0.033424
vt 2.205084 0.187876
vt 2.205084 0.059924
vt 4.549999 0.123900
vt 3.599999 0.214376
vt 2.928248 0.187876
vt 2.928248 0.059924
vt 3.599999 0.214376
vt 3.599999 0.033424
vt 4.271750 0.187876
vt 4.271750 0.059924
vt -1.650000 0.314376
vt -2.600000 0.404852
vt -3.271751 0.378352
vt -3.271751 0.250400
vt -3.550000 0.314376
vt -2.600000 0.404852
vt -2.600000 0.223900
vt -1.928249 0.378352
vt -1.928249 0.250400
vt -1.650000 0.314376
vt 1.449999 0.314376
vt 0.500000 0.404852
vt -0.171752 0.378352
vt -0.171752 0.250400
vt -0.450000 0.314376
vt 0.500000 0.404852
vt 0.500000 0.223900
vt 1.171751 0.378352
vt 1.171751 0.250400
vt 1.449999 0.314376
vt 4.549999 0.314376
vt 4.271750 0.378352
vt 2.928248 0.378352
vt 2.650000 0.314376
vt 2.928248 0.250400
vt 3.599999 0.404852
vt 3.599999 0.223900
vt 4.271750 0.378352
vt 4.271750 0.250400
vt 4.549999 0.314376
vt -1.650000 0.504852
vt -2.600000 0.595329
vt -3.271751 0.568829
vt -3.550000 0.504852
vt -3.271751 0.440876
vt -2.600000 0.595329
vt -2.600000 0.414376
vt -1.928249 0.568829
vt -1.928249 0.440876
vt -1.650000 0.504852
vt 0.416666 0.504852
vt -0.533334 0.595329
vt -1.205085 0.568829
vt -1.205085 0.440876
vt -1.483334 0.504852
vt -0.533334 0.595329
vt -0.533334 0.414376
vt 0.138418 0.568829
vt 0.138418 0.440876
vt 0.416666 0.504852
vt 2.483333 0.504852
vt 1.533333 0.595329
vt 0.861581 0.568829
vt 0.861581 0.440876
vt 0.583333 0.504852
vt 1.533333 0.595329
vt 1.533333 0.414376
vt 2.205084 0.568829
vt 2.205084 0.440876
vt 2.483333 0.504852
vt 4.549999 0.504852
vt 4.271750 0.568829
vt 2.928248 0.568829
vt 2.650000 0.504852
vt 2.928248 0.440876
vt 3.599999 0.595329
vt 3.599999 0.414376
vt 4.271750 0.568829
vt 4.271750 0.440876
vt 4.549999 0.504852
vt -1.650000 0.676281
vt -2.600000 0.766757
vt -3.550000 0.676281
vt -3.271751 0.612304
vt -2.600000 0.585805
vt -1.928249 0.612305
vt -1.650000 0.676281
vt 1.449999 0.676281
vt 0.500000 0.766757
vt -0.171752 0.612304
vt -0.450000 0.676281
vt 0.500000 0.585805
vt 1.171751 0.612305
vt 1.449999 0.676281
vt 4.549999 0.676281
vt 4.271750 0.740257
vt 2.928248 0.612304
vt 2.650000 0.676281
vt 3.599999 0.585805
vt 4.271750 0.612305
vt 4.549999 0.676281
vt -3.259944 0.940824
vt 6.299999 1.030420
vt -5.300000 0.940824
vt 6.299999 -3.198969
vt -5.300000 -3.259944
vt -3.085480 0.980963
vt 0.949999 1.066576
vt 0.050000 0.980963
vt 0.949999 -3.041927
vt 0.050000 -3.085480
s 0
usemtl wood
f 2/1/1 3/2/1 1/3/1
f 4/4/2 7/5/2 3/6/2
f 8/7/3 5/3/3 7/2/3
f 6/8/4 1/6/4 5/5/4
f 7/9/5 1/10/5 3/11/5
f 4/11/6 6/12/6 8/9/6
f 10/13/1 11/14/1 9/15/1
f 12/16/2 15/17/2 11/18/2
f 16/19/3 13/15/3 15/14/3
f 14/20/4 9/18/4 13/17/4
f 15/21/5 9/22/5 11/23/5
f 12/23/6 14/24/6 16/21/6
f 18/25/1 19/2/1 17/26/1
f 20/27/2 23/28/2 19/29/2
f 24/7/3 21/26/3 23/2/3
f 22/30/4 17/29/4 21/28/4
f 23/31/5 17/32/5 19/33/5
f 20/33/6 22/34/6 24/31/6
f 26/13/1 27/14/1 25/15/1
f 28/35/2 31/36/2 27/37/2
f 32/19/3 29/15/3 31/14/3
f 30/38/4 25/37/4 29/36/4
f 31/39/5 25/40/5 27/41/5
f 28/41/6 30/42/6 32/39/6
f 34/43/7 35/44/7 33/45/7
f 36/46/8 37/47/8 35/44/8
f 38/48/9 39/44/9 37/47/9
f 40/46/10 41/45/10 39/44/10
f 41/45/11 44/49/11 43/50/11
f 44/49/12 45/51/12 43/50/12
f 42/52/4 40/53/4 34/54/4
f 46/55/13 47/50/13 45/51/13
f 47/50/14 34/43/14 33/45/14
f 43/56/2 45/57/2 47/58/2
f 50/59/7 51/60/7 49/61/7
f 52/62/8 53/63/8 51/60/8
f 54/64/9 55/60/9 53/63/9
f 56/62/10 57/61/10 55/60/10
f 57/61/11 60/65/11 59/66/11
f 60/65/12 61/67/12 59/66/12
f 58/68/4 56/69/4 50/70/4
f 62/71/13 63/66/13 61/67/13
f 63/66/14 50/59/14 49/61/14
f 59/72/2 61/73/2 63/74/2
f 66/75/7 67/76/7 65/77/7
f 68/78/8 69/79/8 67/76/8
f 70/80/9 71/76/9 69/79/9
f 72/78/10 73/77/10 71/76/10
f 73/77/11 76/81/11 75/82/11
f 76/81/12 77/83/12 75/82/12
f 74/84/4 72/85/4 66/86/4
f 78/87/13 79/82/13 77/83/13
f 79/82/14 66/75/14 65/77/14
f 75/88/2 77/89/2 79/90/2
f 81/91/7 84/92/7 83/93/7
f 84/92/8 85/94/8 83/93/8
f 86/95/9 87/93/9 85/94/9
f 87/93/10 90/96/10 89/91/10
f 89/91/11 92/97/11 91/98/11
f 92/97/12 93/99/12 91/98/12
f 90/100/4 88/101/4 84/102/4
f 94/103/13 95/98/13 93/99/13
f 95/98/14 82/96/14 81/91/14
f 91/104/2 93/105/2 95/106/2
f 98/43/7 99/44/7 97/45/7
f 100/46/8 101/47/8 99/44/8
f 102/48/9 103/44/9 101/47/9
f 104/46/10 105/45/10 103/44/10
f 106/43/11 107/50/11 105/45/11
f 108/49/12 109/51/12 107/50/12
f 106/107/4 104/108/4 100/109/4
f 110/55/13 111/50/13 109/51/13
f 111/50/14 98/43/14 97/45/14
f 107/110/2 109/111/2 111/112/2
f 114/113/7 115/114/7 113/115/7
f 116/116/8 117/117/8 115/114/8
f 118/118/9 119/114/9 117/117/9
f 120/116/10 121/115/10 119/114/10
f 122/113/11 123/119/11 121/115/11
f 124/120/12 125/121/12 123/119/12
f 122/122/4 120/123/4 116/124/4
f 126/125/13 127/119/13 125/121/13
f 127/119/14 114/113/14 113/115/14
f 123/126/2 125/127/2 127/128/2
f 129/91/7 132/92/7 131/93/7
f 132/92/8 133/94/8 131/93/8
f 134/95/9 135/93/9 133/94/9
f 136/92/10 137/91/10 135/93/10
f 137/91/11 140/97/11 139/98/11
f 140/97/12 141/99/12 139/98/12
f 138/129/4 136/130/4 130/131/4
f 142/103/13 143/98/13 141/99/13
f 143/98/14 130/96/14 129/91/14
f 139/132/2 141/133/2 143/134/2
f 146/43/7 147/44/7 145/45/7
f 148/46/8 149/47/8 147/44/8
f 150/48/9 151/44/9 149/47/9
f 152/46/10 153/45/10 151/44/10
f 153/45/11 156/49/11 155/50/11
f 156/49/12 157/51/12 155/50/12
f 154/135/4 152/136/4 148/137/4
f 158/55/13 159/50/13 157/51/13
f 160/49/14 145/45/14 159/50/14
f 155/138/2 157/139/2 159/140/2
f 162/59/7 163/60/7 161/61/7
f 164/62/8 165/63/8 163/60/8
f 166/64/9 167/60/9 165/63/9
f 168/62/10 169/61/10 167/60/10
f 169/61/11 172/65/11 171/66/11
f 172/65/12 173/67/12 171/66/12
f 170/141/4 168/142/4 164/143/4
f 174/71/13 175/66/13 173/67/13
f 175/66/14 162/59/14 161/61/14
f 171/144/2 173/145/2 175/146/2
f 178/75/7 179/76/7 177/77/7
f 180/78/8 181/79/8 179/76/8
f 182/80/9 183/76/9 181/79/9
f 184/78/10 185/77/10 183/76/10
f 185/77/11 188/81/11 187/82/11
f 188/81/12 189/83/12 187/82/12
f 186/147/4 184/148/4 180/149/4
f 190/87/13 191/82/13 189/83/13
f 191/82/14 178/75/14 177/77/14
f 187/150/2 189/151/2 191/152/2
f 193/91/7 196/92/7 195/93/7
f 196/92/8 197/94/8 195/93/8
f 198/95/9 199/93/9 197/94/9
f 200/92/10 201/91/10 199/93/10
f 201/91/11 204/97/11 203/98/11
f 204/97/12 205/99/12 203/98/12
f 202/153/4 200/154/4 194/155/4
f 206/103/13 207/98/13 205/99/13
f 207/98/14 194/96/14 193/91/14
f 203/156/2 205/157/2 207/158/2
f 210/43/7 211/44/7 209/45/7
f 212/46/8 213/47/8 211/44/8
f 214/48/9 215/44/9 213/47/9
f 216/46/10 217/45/10 215/44/10
f 218/43/11 219/50/11 217/45/11
f 220/49/12 221/51/12 219/50/12
f 218/159/4 216/160/4 212/161/4
f 222/55/13 223/50/13 221/51/13
f 223/50/14 210/43/14 209/45/14
f 219/162/2 221/163/2 223/164/2
f 226/113/7 227/114/7 225/115/7
f 228/116/8 229/117/8 227/114/8
f 230/118/9 231/114/9 229/117/9
f 232/116/10 233/115/10 231/114/10
f 233/115/11 236/120/11 235/119/11
f 236/120/12 237/121/12 235/119/12
f 234/165/4 232/166/4 228/167/4
f 238/125/13 239/119/13 237/121/13
f 239/119/14 226/113/14 225/115/14
f 235/168/2 237/169/2 239/170/2
f 242/96/7 243/93/7 241/91/7
f 244/92/8 245/94/8 243/93/8
f 246/95/9 247/93/9 245/94/9
f 248/92/10 249/91/10 247/93/10
f 249/91/11 252/97/11 251/98/11
f 252/97/12 253/99/12 251/98/12
f 250/171/4 248/172/4 242/173/4
f 254/103/13 255/98/13 253/99/13
f 255/98/14 242/96/14 241/91/14
f 251/174/2 253/175/2 255/176/2
f 257/177/1 260/178/1 259/179/1
f 260/180/15 263/181/15 259/182/15
f 264/178/3 261/177/3 263/179/3
f 262/183/16 257/184/16 261/185/16
f 263/186/17 257/187/17 259/188/17
f 260/189/18 262/190/18 264/191/18
f 2/1/1 4/7/1 3/2/1
f 4/4/2 8/8/2 7/5/2
f 8/7/3 6/1/3 5/3/3
f 6/8/4 2/4/4 1/6/4
f 7/9/5 5/12/5 1/10/5
f 4/11/6 2/10/6 6/12/6
f 10/13/1 12/19/1 11/14/1
f 12/16/2 16/20/2 15/17/2
f 16/19/3 14/13/3 13/15/3
f 14/20/4 10/16/4 9/18/4
f 15/21/5 13/24/5 9/22/5
f 12/23/6 10/22/6 14/24/6
f 18/25/1 20/7/1 19/2/1
f 20/27/2 24/30/2 23/28/2
f 24/7/3 22/25/3 21/26/3
f 22/30/4 18/27/4 17/29/4
f 23/31/5 21/34/5 17/32/5
f 20/33/6 18/32/6 22/34/6
f 26/13/1 28/19/1 27/14/1
f 28/35/2 32/38/2 31/36/2
f 32/19/3 30/13/3 29/15/3
f 30/38/4 26/35/4 25/37/4
f 31/39/5 29/42/5 25/40/5
f 28/41/6 26/40/6 30/42/6
f 34/43/7 36/46/7 35/44/7
f 36/46/8 38/48/8 37/47/8
f 38/48/9 40/46/9 39/44/9
f 40/46/10 42/43/10 41/45/10
f 41/45/11 42/43/11 44/49/11
f 44/49/12 46/55/12 45/51/12
f 38/219/4 36/220/4 40/53/4
f 36/220/4 34/54/4 40/53/4
f 34/54/4 48/221/4 44/222/4
f 48/221/4 46/57/4 44/222/4
f 44/222/4 42/52/4 34/54/4
f 46/55/13 48/49/13 47/50/13
f 47/50/14 48/49/14 34/43/14
f 47/58/2 33/223/2 41/224/2
f 33/223/2 35/225/2 39/226/2
f 35/225/2 37/219/2 39/226/2
f 39/226/2 41/224/2 33/223/2
f 41/224/2 43/56/2 47/58/2
f 50/59/7 52/62/7 51/60/7
f 52/62/8 54/64/8 53/63/8
f 54/64/9 56/62/9 55/60/9
f 56/62/10 58/59/10 57/61/10
f 57/61/11 58/59/11 60/65/11
f 60/65/12 62/71/12 61/67/12
f 54/227/4 52/228/4 56/69/4
f 52/228/4 50/70/4 56/69/4
f 50/70/4 64/229/4 58/68/4
f 64/229/4 62/73/4 60/230/4
f 58/68/4 64/229/4 60/230/4
f 62/71/13 64/65/13 63/66/13
f 63/66/14 64/65/14 50/59/14
f 63/74/2 49/231/2 57/232/2
f 49/231/2 51/233/2 55/234/2
f 51/233/2 53/227/2 55/234/2
f 55/234/2 57/232/2 49/231/2
f 57/232/2 59/72/2 63/74/2
f 66/75/7 68/78/7 67/76/7
f 68/78/8 70/80/8 69/79/8
f 70/80/9 72/78/9 71/76/9
f 72/78/10 74/75/10 73/77/10
f 73/77/11 74/75/11 76/81/11
f 76/81/12 78/87/12 77/83/12
f 70/235/4 68/236/4 72/85/4
f 68/236/4 66/86/4 72/85/4
f 66/86/4 80/237/4 74/84/4
f 80/237/4 78/89/4 76/238/4
f 74/84/4 80/237/4 76/238/4
f 78/87/13 80/81/13 79/82/13
f 79/82/14 80/81/14 66/75/14
f 79/90/2 65/239/2 73/240/2
f 65/239/2 67/241/2 71/242/2
f 67/241/2 69/235/2 71/242/2
f 71/242/2 73/240/2 65/239/2
f 73/240/2 75/88/2 79/90/2
f 81/91/7 82/96/7 84/92/7
f 84/92/8 86/95/8 85/94/8
f 86/95/9 88/92/9 87/93/9
f 87/93/10 88/92/10 90/96/10
f 89/91/11 90/96/11 92/97/11
f 92/97/12 94/103/12 93/99/12
f 86/243/4 84/102/4 88/101/4
f 84/102/4 82/244/4 90/100/4
f 82/244/4 96/245/4 90/100/4
f 96/245/4 94/105/4 92/246/4
f 90/100/4 96/245/4 92/246/4
f 94/103/13 96/97/13 95/98/13
f 95/98/14 96/97/14 82/96/14
f 95/106/2 81/247/2 89/248/2
f 81/247/2 83/249/2 87/250/2
f 83/249/2 85/243/2 87/250/2
f 87/250/2 89/248/2 81/247/2
f 89/248/2 91/104/2 95/106/2
f 98/43/7 100/46/7 99/44/7
f 100/46/8 102/48/8 101/47/8
f 102/48/9 104/46/9 103/44/9
f 104/46/10 106/43/10 105/45/10
f 106/43/11 108/49/11 107/50/11
f 108/49/12 110/55/12 109/51/12
f 102/251/4 100/109/4 104/108/4
f 100/109/4 98/252/4 106/107/4
f 98/252/4 112/253/4 108/254/4
f 112/253/4 110/255/4 108/254/4
f 108/254/4 106/107/4 98/252/4
f 110/55/13 112/49/13 111/50/13
f 111/50/14 112/49/14 98/43/14
f 111/112/2 97/256/2 105/257/2
f 97/256/2 99/258/2 103/259/2
f 99/258/2 101/260/2 103/259/2
f 103/259/2 105/257/2 97/256/2
f 105/257/2 107/110/2 111/112/2
f 114/113/7 116/116/7 115/114/7
f 116/116/8 118/118/8 117/117/8
f 118/118/9 120/116/9 119/114/9
f 120/116/10 122/113/10 121/115/10
f 122/113/11 124/120/11 123/119/11
f 124/120/12 126/125/12 125/121/12
f 118/261/4 116/124/4 120/123/4
f 116/124/4 114/262/4 122/122/4
f 114/262/4 128/263/4 124/264/4
f 128/263/4 126/265/4 124/264/4
f 124/264/4 122/122/4 114/262/4
f 126/125/13 128/120/13 127/119/13
f 127/119/14 128/120/14 114/113/14
f 127/128/2 113/266/2 121/267/2
f 113/266/2 115/268/2 119/269/2
f 115/268/2 117/270/2 119/269/2
f 119/269/2 121/267/2 113/266/2
f 121/267/2 123/126/2 127/128/2
f 129/91/7 130/96/7 132/92/7
f 132/92/8 134/95/8 133/94/8
f 134/95/9 136/92/9 135/93/9
f 136/92/10 138/96/10 137/91/10
f 137/91/11 138/96/11 140/97/11
f 140/97/12 142/103/12 141/99/12
f 134/271/4 132/272/4 136/130/4
f 132/272/4 130/131/4 136/130/4
f 130/131/4 144/273/4 138/129/4
f 144/273/4 142/274/4 140/275/4
f 138/129/4 144/273/4 140/275/4
f 142/103/13 144/97/13 143/98/13
f 143/98/14 144/97/14 130/96/14
f 143/134/2 129/276/2 137/277/2
f 129/276/2 131/278/2 135/279/2
f 131/278/2 133/280/2 135/279/2
f 135/279/2 137/277/2 129/276/2
f 137/277/2 139/132/2 143/134/2
f 146/43/7 148/46/7 147/44/7
f 148/46/8 150/48/8 149/47/8
f 150/48/9 152/46/9 151/44/9
f 152/46/10 154/43/10 153/45/10
f 153/45/11 154/43/11 156/49/11
f 156/49/12 158/55/12 157/51/12
f 150/281/4 148/137/4 152/136/4
f 148/137/4 146/282/4 154/135/4
f 146/282/4 160/283/4 154/135/4
f 160/283/4 158/284/4 156/285/4
f 154/135/4 160/283/4 156/285/4
f 158/55/13 160/49/13 159/50/13
f 160/49/14 146/43/14 145/45/14
f 159/140/2 145/286/2 153/287/2
f 145/286/2 147/288/2 151/289/2
f 147/288/2 149/290/2 151/289/2
f 151/289/2 153/287/2 145/286/2
f 153/287/2 155/138/2 159/140/2
f 162/59/7 164/62/7 163/60/7
f 164/62/8 166/64/8 165/63/8
f 166/64/9 168/62/9 167/60/9
f 168/62/10 170/59/10 169/61/10
f 169/61/11 170/59/11 172/65/11
f 172/65/12 174/71/12 173/67/12
f 166/291/4 164/143/4 168/142/4
f 164/143/4 162/292/4 170/141/4
f 162/292/4 176/293/4 172/294/4
f 176/293/4 174/295/4 172/294/4
f 172/294/4 170/141/4 162/292/4
f 174/71/13 176/65/13 175/66/13
f 175/66/14 176/65/14 162/59/14
f 175/146/2 161/296/2 169/297/2
f 161/296/2 163/298/2 167/299/2
f 163/298/2 165/300/2 167/299/2
f 167/299/2 169/297/2 161/296/2
f 169/297/2 171/144/2 175/146/2
f 178/75/7 180/78/7 179/76/7
f 180/78/8 182/80/8 181/79/8
f 182/80/9 184/78/9 183/76/9
f 184/78/10 186/75/10 185/77/10
f 185/77/11 186/75/11 188/81/11
f 188/81/12 190/87/12 189/83/12
f 182/301/4 180/149/4 184/148/4
f 180/149/4 178/302/4 186/147/4
f 178/302/4 192/303/4 188/304/4
f 192/303/4 190/305/4 188/304/4
f 188/304/4 186/147/4 178/302/4
f 190/87/13 192/81/13 191/82/13
f 191/82/14 192/81/14 178/75/14
f 191/152/2 177/306/2 185/307/2
f 177/306/2 179/308/2 183/309/2
f 179/308/2 181/310/2 183/309/2
f 183/309/2 185/307/2 177/306/2
f 185/307/2 187/150/2 191/152/2
f 193/91/7 194/96/7 196/92/7
f 196/92/8 198/95/8 197/94/8
f 198/95/9 200/92/9 199/93/9
f 200/92/10 202/96/10 201/91/10
f 201/91/11 202/96/11 204/97/11
f 204/97/12 206/103/12 205/99/12
f 198/311/4 196/312/4 200/154/4
f 196/312/4 194/155/4 200/154/4
f 194/155/4 208/313/4 202/153/4
f 208/313/4 206/314/4 204/315/4
f 202/153/4 208/313/4 204/315/4
f 206/103/13 208/97/13 207/98/13
f 207/98/14 208/97/14 194/96/14
f 207/158/2 193/316/2 201/317/2
f 193/316/2 195/318/2 199/319/2
f 195/318/2 197/320/2 199/319/2
f 199/319/2 201/317/2 193/316/2
f 201/317/2 203/156/2 207/158/2
f 210/43/7 212/46/7 211/44/7
f 212/46/8 214/48/8 213/47/8
f 214/48/9 216/46/9 215/44/9
f 216/46/10 218/43/10 217/45/10
f 218/43/11 220/49/11 219/50/11
f 220/49/12 222/55/12 221/51/12
f 214/321/4 212/161/4 216/160/4
f 212/161/4 210/322/4 218/159/4
f 210/322/4 224/164/4 218/159/4
f 224/164/4 222/323/4 220/324/4
f 218/159/4 224/164/4 220/324/4
f 222/55/13 224/49/13 223/50/13
f 223/50/14 224/49/14 210/43/14
f 223/164/2 209/322/2 217/325/2
f 209/322/2 211/161/2 215/326/2
f 211/161/2 213/327/2 215/326/2
f 215/326/2 217/325/2 209/322/2
f 217/325/2 219/162/2 223/164/2
f 226/113/7 228/116/7 227/114/7
f 228/116/8 230/118/8 229/117/8
f 230/118/9 232/116/9 231/114/9
f 232/116/10 234/113/10 233/115/10
f 233/115/11 234/113/11 236/120/11
f 236/120/12 238/125/12 237/121/12
f 230/328/4 228/167/4 232/166/4
f 228/167/4 226/329/4 234/165/4
f 226/329/4 240/170/4 236/330/4
f 240/170/4 238/331/4 236/330/4
f 236/330/4 234/165/4 226/329/4
f 238/125/13 240/120/13 239/119/13
f 239/119/14 240/120/14 226/113/14
f 239/170/2 225/329/2 233/332/2
f 225/329/2 227/167/2 231/333/2
f 227/167/2 229/334/2 231/333/2
f 231/333/2 233/332/2 225/329/2
f 233/332/2 235/168/2 239/170/2
f 242/96/7 244/92/7 243/93/7
f 244/92/8 246/95/8 245/94/8
f 246/95/9 248/92/9 247/93/9
f 248/92/10 250/96/10 249/91/10
f 249/91/11 250/96/11 252/97/11
f 252/97/12 254/103/12 253/99/12
f 246/335/4 244/336/4 248/172/4
f 244/336/4 242/173/4 248/172/4
f 242/173/4 256/176/4 252/337/4
f 256/176/4 254/338/4 252/337/4
f 252/337/4 250/171/4 242/173/4
f 254/103/13 256/97/13 255/98/13
f 255/98/14 256/97/14 242/96/14
f 255/176/2 241/173/2 249/339/2
f 241/173/2 243/336/2 247/340/2
f 243/336/2 245/341/2 247/340/2
f 247/340/2 249/339/2 241/173/2
f 249/339/2 251/174/2 255/176/2
f 257/177/1 258/342/1 260/178/1
f 260/180/15 264/343/15 263/181/15
f 264/178/3 262/342/3 261/177/3
f 262/183/16 258/344/16 257/184/16
f 263/186/17 261/345/17 257/187/17
f 260/189/18 258/346/18 262/190/18
usemtl iron
f 265/192/1 268/193/1 267/194/1
f 268/195/15 271/196/15 267/197/15
f 272/193/3 269/192/3 271/194/3
f 270/198/16 265/199/16 269/200/16
f 271/201/17 265/202/17 267/203/17
f 268/204/18 270/205/18 272/206/18
f 265/192/1 266/347/1 268/193/1
f 268/195/15 272/348/15 271/196/15
f 272/193/3 270/347/3 269/192/3
f 270/198/16 266/349/16 265/199/16
f 271/201/17 269/350/17 265/202/17
f 268/204/18 266/351/18 270/205/18
usemtl stone
f 274/207/1 275/208/1 273/209/1
f 276/210/2 279/211/2 275/212/2
f 280/213/3 277/209/3 279/208/3
f 278/214/4 273/212/4 277/211/4
f 279/215/5 273/216/5 275/217/5
f 276/217/6 278/218/6 280/215/6
f 274/207/1 276/213/1 275/208/1
f 276/210/2 280/214/2 279/211/2
f 280/213/3 278/207/3 277/209/3
f 278/214/4 274/210/4 273/212/4
f 279/215/5 277/218/5 273/216/5
f 276/217/6 274/216/6 278/218/6
