# Blender 4.5.10 LTS
# www.blender.org
mtllib stoker_trough_tower.mtl
o stoker_trough_tower
v 0.357779 0.867129 -0.351084
v 0.357819 0.872172 -0.352151
v 0.366704 0.872090 -0.351112
v 0.361450 1.282074 -0.351090
v 0.361500 1.287111 -0.349997
v 0.370335 1.281993 -0.350052
v 0.358192 0.866898 -0.263245
v 0.367116 0.871859 -0.263274
v 0.358241 0.871935 -0.262152
v 0.361912 1.286880 -0.262159
v 0.361873 1.281838 -0.261092
v 0.370747 1.281762 -0.262214
v -0.364424 0.873518 -0.347677
v -0.373259 0.878637 -0.347622
v -0.364385 0.878561 -0.348744
v -0.360704 1.293500 -0.346591
v -0.360753 1.288463 -0.347684
v -0.369628 1.288539 -0.346562
v -0.364012 0.873287 -0.259839
v -0.363962 0.878324 -0.258745
v -0.372847 0.878406 -0.259784
v -0.360291 1.293270 -0.258752
v -0.369216 1.288308 -0.258724
v -0.360331 1.288227 -0.257685
v 0.363368 0.873578 0.253425
v 0.363324 0.878623 0.252372
v 0.372219 0.878668 0.253328
v 0.361036 1.288531 0.254559
v 0.361022 1.293565 0.255666
v 0.369930 1.288576 0.255515
v 0.364594 0.873116 0.341255
v 0.373444 0.878206 0.341158
v 0.364580 0.878150 0.342362
v 0.362248 1.293103 0.343496
v 0.362292 1.288058 0.344549
v 0.371155 1.288114 0.343346
v -0.358791 0.869492 0.263482
v -0.367698 0.874481 0.263633
v -0.358834 0.874537 0.262429
v -0.361136 1.289479 0.265724
v -0.361123 1.284445 0.264617
v -0.369987 1.284389 0.265820
v -0.357565 0.869030 0.351313
v -0.357578 0.874064 0.352419
v -0.366472 0.874019 0.351463
v -0.359910 1.289017 0.353554
v -0.368761 1.283927 0.353651
v -0.359867 1.283972 0.354607
v 0.372853 0.872502 -0.255358
v 0.372855 0.877575 -0.261571
v 0.373871 0.877555 -0.255321
v 0.367847 1.287459 -0.259470
v 0.367722 1.292465 -0.253204
v 0.368863 1.287439 -0.253219
v 0.367643 0.869837 0.252129
v 0.368661 0.874889 0.252165
v 0.367517 0.874843 0.258394
v 0.362512 1.289800 0.254282
v 0.362509 1.284727 0.260496
v 0.363653 1.284773 0.254267
v 0.285024 0.871434 -0.256265
v 0.283883 0.876460 -0.256250
v 0.285027 0.876506 -0.262479
v 0.279893 1.291397 -0.254112
v 0.280018 1.286390 -0.260377
v 0.278875 1.286344 -0.254149
v 0.279814 0.868768 0.251221
v 0.279689 0.873775 0.257487
v 0.278673 0.873795 0.251236
v 0.274683 1.288731 0.253375
v 0.273665 1.283679 0.253338
v 0.274680 1.283659 0.259588
v -0.280950 0.869461 -0.253569
v -0.280965 0.874520 -0.259794
v -0.279860 0.874499 -0.253559
v -0.280189 1.284437 -0.258562
v -0.280154 1.289458 -0.252307
v -0.279084 1.284416 -0.252326
v -0.278936 0.867932 0.253944
v -0.277846 0.872970 0.253955
v -0.278902 0.872953 0.260199
v -0.278141 1.287929 0.255207
v -0.278125 1.282870 0.261432
v -0.277070 1.282887 0.255187
v -0.368789 0.869626 -0.253220
v -0.369859 0.874668 -0.253201
v -0.368804 0.874685 -0.259445
v -0.367994 1.289623 -0.251958
v -0.368028 1.284602 -0.258213
v -0.369083 1.284585 -0.251969
v -0.366775 0.868097 0.254293
v -0.366741 0.873118 0.260548
v -0.367846 0.873139 0.254313
v -0.365980 1.288094 0.255556
v -0.367069 1.283056 0.255545
v -0.365964 1.283035 0.261781
v 0.358960 0.874004 -0.345690
v 0.358878 0.875025 -0.354083
v 0.367838 0.874972 -0.345769
v 0.358815 0.953103 -0.353519
v 0.358895 0.954002 -0.345113
v 0.367776 0.953050 -0.345205
v 0.365528 0.869080 0.337460
v 0.374407 0.870048 0.337382
v 0.365609 0.869979 0.345867
v 0.365464 0.949078 0.338037
v 0.365546 0.948057 0.346430
v 0.374345 0.948126 0.337945
v -0.363247 0.873375 -0.338750
v -0.372127 0.874327 -0.338658
v -0.363328 0.874395 -0.347143
v -0.363311 0.953373 -0.338173
v -0.363391 0.952473 -0.346579
v -0.372190 0.952405 -0.338095
v -0.356678 0.868451 0.344400
v -0.356598 0.869350 0.352807
v -0.365558 0.869403 0.344493
v -0.356742 0.948449 0.344977
v -0.365621 0.947481 0.345056
v -0.356660 0.947428 0.353370
v 0.022356 1.083043 -0.243512
v 0.021744 1.083583 -0.244601
v 0.023192 1.083946 -0.244094
v -0.004088 1.208472 -0.260288
v -0.003790 1.209450 -0.259390
v -0.002640 1.208836 -0.259781
v 0.097326 1.119103 -0.079882
v 0.098162 1.120005 -0.080464
v 0.097625 1.120080 -0.078984
v 0.071181 1.245510 -0.095760
v 0.071793 1.244970 -0.094671
v 0.072330 1.244895 -0.096151
v -0.141086 1.059301 -0.163396
v -0.142235 1.059915 -0.163005
v -0.141698 1.059840 -0.164485
v -0.167231 1.185707 -0.179273
v -0.167530 1.184730 -0.180172
v -0.168067 1.184805 -0.178692
v -0.066116 1.095360 0.000234
v -0.065817 1.096338 0.001132
v -0.067265 1.095975 0.000625
v -0.092261 1.221767 -0.015644
v -0.093097 1.220864 -0.015062
v -0.091649 1.221227 -0.014555
v -0.183547 1.080175 -0.192074
v -0.184358 1.080732 -0.192352
v -0.183282 1.080793 -0.192842
v -0.188715 1.177081 -0.189887
v -0.187957 1.177694 -0.189579
v -0.187639 1.177142 -0.190377
v -0.054521 1.084775 -0.143831
v -0.054256 1.085394 -0.144599
v -0.053764 1.085388 -0.143523
v -0.058931 1.182295 -0.141336
v -0.058121 1.181738 -0.141058
v -0.058613 1.181743 -0.142134
v -0.231608 1.074700 -0.063013
v -0.231926 1.075251 -0.062214
v -0.232418 1.075257 -0.063291
v -0.236018 1.172219 -0.060518
v -0.236775 1.171606 -0.060826
v -0.236283 1.171601 -0.059749
v -0.102581 1.079300 -0.014770
v -0.101824 1.079913 -0.014462
v -0.102900 1.079852 -0.013971
v -0.106991 1.176820 -0.012275
v -0.107257 1.176201 -0.011506
v -0.106181 1.176262 -0.011997
v 0.185355 1.084174 -0.036945
v 0.184936 1.084710 -0.037957
v 0.186200 1.084942 -0.037371
v 0.170336 1.198099 -0.051341
v 0.170577 1.198940 -0.050492
v 0.171600 1.198331 -0.050755
v 0.239724 1.109251 0.116204
v 0.240569 1.110020 0.115778
v 0.239965 1.110092 0.117052
v 0.224946 1.224018 0.102657
v 0.225365 1.223481 0.103668
v 0.225969 1.223409 0.102394
v 0.031574 1.071070 0.019794
v 0.030552 1.071679 0.020057
v 0.031155 1.071606 0.018782
v 0.016797 1.185836 0.006247
v 0.016555 1.184995 0.005398
v 0.015951 1.185068 0.006673
v 0.085943 1.096148 0.172942
v 0.086185 1.096989 0.173791
v 0.084921 1.096757 0.173206
v 0.071166 1.210914 0.159396
v 0.070320 1.210145 0.159822
v 0.071584 1.210377 0.160407
v -0.146688 1.076936 -0.222692
v -0.147235 1.077471 -0.223332
v -0.146086 1.077531 -0.223219
v -0.151984 1.171560 -0.224796
v -0.151495 1.172167 -0.224173
v -0.150835 1.171620 -0.224683
v -0.061486 1.082854 -0.118660
v -0.060884 1.083449 -0.119187
v -0.060998 1.083462 -0.118037
v -0.066293 1.178086 -0.120141
v -0.065747 1.177550 -0.119500
v -0.065633 1.177538 -0.120650
v -0.250668 1.073016 -0.137310
v -0.251328 1.073563 -0.136800
v -0.251214 1.073551 -0.137951
v -0.255474 1.168247 -0.138791
v -0.255963 1.167640 -0.139414
v -0.256077 1.167652 -0.138264
v -0.165466 1.078934 -0.033278
v -0.164977 1.079541 -0.032655
v -0.166126 1.079482 -0.032768
v -0.170272 1.174165 -0.034759
v -0.170875 1.173570 -0.034232
v -0.169726 1.173630 -0.034118
v 0.208127 1.070100 0.029108
v 0.207341 1.070597 0.028050
v 0.208874 1.071047 0.028381
v 0.173479 1.198181 0.011669
v 0.173854 1.199233 0.012527
v 0.175013 1.198631 0.011999
v 0.303732 1.115729 0.186858
v 0.304479 1.116676 0.186131
v 0.304107 1.116781 0.187716
v 0.269459 1.244862 0.170277
v 0.270245 1.244364 0.171334
v 0.270617 1.244260 0.169749
v 0.051197 1.041715 0.132426
v 0.050039 1.042318 0.132954
v 0.050411 1.042213 0.131368
v 0.016924 1.170849 0.115845
v 0.016549 1.169797 0.114987
v 0.016177 1.169901 0.116572
v 0.146802 1.087344 0.290175
v 0.147177 1.088396 0.291034
v 0.145643 1.087947 0.290703
v 0.112529 1.216478 0.273595
v 0.111782 1.215531 0.274322
v 0.113315 1.215980 0.274652
v -0.009511 1.130732 -0.146490
v -0.010541 1.131284 -0.146765
v -0.009319 1.131499 -0.147392
v -0.027594 1.243200 -0.141647
v -0.026772 1.244006 -0.141310
v -0.026372 1.243414 -0.142274
v 0.142914 1.151655 -0.096124
v 0.143107 1.152422 -0.097026
v 0.143736 1.152462 -0.095787
v 0.125654 1.264929 -0.090943
v 0.126683 1.264377 -0.090668
v 0.126054 1.264337 -0.091908
v -0.058307 1.116268 0.007191
v -0.058707 1.116860 0.008155
v -0.059337 1.116821 0.006916
v -0.075568 1.229543 0.012371
v -0.076390 1.228736 0.012034
v -0.075761 1.228775 0.013274
v 0.094118 1.137191 0.057557
v 0.094940 1.137998 0.057894
v 0.093718 1.137783 0.058522
v 0.076858 1.250465 0.062738
v 0.076665 1.249698 0.063640
v 0.077887 1.249913 0.063013
v 0.167897 1.072364 -0.228520
v 0.167811 1.072896 -0.229686
v 0.168858 1.073203 -0.228673
v 0.153903 1.191503 -0.251204
v 0.153820 1.192411 -0.250299
v 0.154950 1.191810 -0.250191
v 0.168106 1.103331 -0.057962
v 0.169068 1.104170 -0.058115
v 0.168023 1.104239 -0.057057
v 0.154029 1.223379 -0.079741
v 0.154115 1.222846 -0.078574
v 0.155159 1.222777 -0.079633
v -0.004307 1.052852 -0.224766
v -0.005437 1.053453 -0.224873
v -0.004393 1.053384 -0.225932
v -0.018384 1.172899 -0.246545
v -0.018301 1.171991 -0.247450
v -0.019345 1.172060 -0.246391
v -0.004098 1.083819 -0.054208
v -0.004181 1.084727 -0.053302
v -0.005228 1.084421 -0.054316
v -0.018175 1.203866 -0.075987
v -0.019136 1.203027 -0.075833
v -0.018089 1.203334 -0.074820
v 0.114900 1.078658 -0.088404
v 0.113856 1.079198 -0.088817
v 0.115185 1.079461 -0.089314
v 0.092027 1.194760 -0.086137
v 0.092806 1.195624 -0.085692
v 0.093357 1.195023 -0.086634
v 0.265003 1.105372 -0.017718
v 0.265289 1.106174 -0.018628
v 0.265782 1.106236 -0.017273
v 0.242910 1.222338 -0.015006
v 0.243954 1.221798 -0.014593
v 0.243461 1.221736 -0.015948
v 0.046069 1.062122 0.064010
v 0.045518 1.062724 0.064952
v 0.045024 1.062662 0.063597
v 0.023975 1.179088 0.066722
v 0.023196 1.178224 0.066277
v 0.023690 1.178286 0.067632
v 0.196172 1.088836 0.134696
v 0.196951 1.089700 0.135141
v 0.195622 1.089437 0.135638
v 0.174079 1.205801 0.137408
v 0.173793 1.204999 0.138318
v 0.175123 1.205262 0.137821
v 0.023969 1.115901 -0.088180
v 0.022927 1.116464 -0.088355
v 0.024081 1.116658 -0.089101
v 0.007946 1.228419 -0.082440
v 0.008806 1.229215 -0.082192
v 0.009100 1.228613 -0.083185
v 0.180594 1.135020 -0.053368
v 0.180707 1.135777 -0.054289
v 0.181455 1.135816 -0.053120
v 0.165431 1.248335 -0.047380
v 0.166473 1.247771 -0.047205
v 0.165725 1.247732 -0.048373
v -0.009488 1.103098 0.069381
v -0.009782 1.103700 0.070374
v -0.010530 1.103661 0.069206
v -0.024651 1.216412 0.075369
v -0.025512 1.215616 0.075122
v -0.024764 1.215655 0.076290
v 0.147137 1.122217 0.104194
v 0.147997 1.123013 0.104441
v 0.146843 1.122819 0.105186
v 0.131974 1.235532 0.110181
v 0.131862 1.234774 0.111102
v 0.133016 1.234968 0.110357
v 0.356898 0.271820 -0.345099
v 0.356805 0.280240 -0.353479
v 0.365786 0.280212 -0.345187
v 0.357511 0.963437 -0.351921
v 0.357621 0.971818 -0.343503
v 0.366492 0.963409 -0.343629
v 0.365170 0.270254 0.338049
v 0.374058 0.278645 0.337961
v 0.365281 0.278635 0.346468
v 0.365893 0.970252 0.339645
v 0.365986 0.961833 0.348026
v 0.374764 0.961843 0.339519
v -0.365289 0.272547 -0.336352
v -0.374159 0.280955 -0.336225
v -0.365382 0.280966 -0.344732
v -0.364566 0.972544 -0.334756
v -0.364676 0.964164 -0.343174
v -0.373454 0.964153 -0.334667
v -0.357016 0.270980 0.346796
v -0.356906 0.279361 0.355215
v -0.365887 0.279389 0.346923
v -0.356293 0.970978 0.348392
v -0.365181 0.962587 0.348481
v -0.356200 0.962559 0.356773
v 0.323088 0.132990 -0.495920
v 0.323066 0.134221 -0.501220
v 0.330968 0.136248 -0.497640
v 0.319930 0.391892 -0.640243
v 0.319874 0.396997 -0.638362
v 0.327832 0.393920 -0.636663
v 0.321678 0.290544 -0.203871
v 0.329559 0.293803 -0.205591
v 0.321622 0.295649 -0.201990
v 0.318465 0.554551 -0.346313
v 0.318486 0.553320 -0.341013
v 0.326423 0.551474 -0.344614
v -0.321030 0.125618 -0.495051
v -0.328988 0.128696 -0.496750
v -0.321051 0.126849 -0.500351
v -0.324243 0.389626 -0.637493
v -0.324187 0.384520 -0.639374
v -0.332124 0.386367 -0.635773
v -0.322439 0.283172 -0.203002
v -0.322495 0.288278 -0.201121
v -0.330397 0.286250 -0.204701
v -0.325652 0.547180 -0.345444
v -0.333533 0.543921 -0.343724
v -0.325631 0.545949 -0.340144
v 0.284746 0.150329 -0.632531
v 0.284740 0.149863 -0.634993
v 0.291698 0.151033 -0.632891
v 0.284141 0.201841 -0.661960
v 0.284132 0.203585 -0.660161
v 0.291099 0.203012 -0.659858
v 0.284606 0.240220 -0.459261
v 0.291559 0.240925 -0.459621
v 0.284597 0.241965 -0.457462
v 0.283992 0.293477 -0.486891
v 0.283998 0.293943 -0.484429
v 0.290959 0.292903 -0.486588
v -0.281304 0.144999 -0.630222
v -0.288271 0.145572 -0.630525
v -0.281310 0.144532 -0.632684
v -0.281918 0.198255 -0.657851
v -0.281909 0.196511 -0.659650
v -0.288871 0.197550 -0.657492
v -0.281444 0.234890 -0.456952
v -0.281453 0.236634 -0.455153
v -0.288411 0.235463 -0.457255
v -0.282058 0.288146 -0.484581
v -0.289010 0.287442 -0.484221
v -0.282052 0.288612 -0.482119
v 0.052575 0.428762 -0.384793
v 0.052549 0.428979 -0.389471
v 0.053236 0.428941 -0.384795
v 0.052616 0.458618 -0.389241
v 0.052644 0.458762 -0.384560
v 0.053303 0.458580 -0.384565
v 0.057012 0.422773 0.385811
v 0.057673 0.422951 0.385809
v 0.057040 0.422916 0.390492
v 0.057081 0.452772 0.386044
v 0.057108 0.452555 0.390723
v 0.057741 0.452590 0.386039
v -0.056103 0.429006 -0.384165
v -0.056762 0.429188 -0.384160
v -0.056129 0.429223 -0.388843
v -0.056034 0.459005 -0.383932
v -0.056062 0.458862 -0.388613
v -0.056695 0.458827 -0.383930
v -0.051666 0.423016 0.386439
v -0.051638 0.423160 0.391120
v -0.052325 0.423198 0.386444
v -0.051597 0.453015 0.386672
v -0.052257 0.452837 0.386674
v -0.051570 0.452799 0.391350
v 0.051502 0.764816 -0.384478
v 0.051479 0.764983 -0.389159
v 0.052162 0.764998 -0.384482
v 0.051387 0.794623 -0.389240
v 0.051409 0.794816 -0.384561
v 0.052070 0.794638 -0.384564
v 0.055309 0.766948 0.386149
v 0.055968 0.767130 0.386145
v 0.055331 0.767141 0.390829
v 0.055216 0.796948 0.386067
v 0.055239 0.796781 0.390747
v 0.055876 0.796770 0.386064
v -0.057176 0.764481 -0.383941
v -0.057837 0.764659 -0.383938
v -0.057200 0.764648 -0.388621
v -0.057269 0.794481 -0.384023
v -0.057291 0.794288 -0.388703
v -0.057928 0.794299 -0.384019
v -0.053370 0.766613 0.386687
v -0.053347 0.766806 0.391366
v -0.054030 0.766791 0.386690
v -0.053463 0.796613 0.386604
v -0.054122 0.796431 0.386608
v -0.053439 0.796446 0.391285
v 0.413851 0.000115 -0.250030
v 0.413921 0.003452 -0.257480
v 0.415691 0.003453 -0.250032
v 0.417226 0.276711 -0.258300
v 0.417237 0.280093 -0.250871
v 0.418996 0.276712 -0.250853
v 0.411431 0.001962 0.355083
v 0.413272 0.005300 0.355080
v 0.411442 0.005344 0.362513
v 0.414817 0.281940 0.354242
v 0.414747 0.278603 0.361692
v 0.416576 0.278559 0.354259
v 0.267463 0.001884 -0.250620
v 0.265703 0.005265 -0.250638
v 0.267533 0.005221 -0.258070
v 0.270849 0.281862 -0.251461
v 0.270838 0.278480 -0.258891
v 0.269008 0.278524 -0.251458
v 0.265043 0.003731 0.354492
v 0.265054 0.007113 0.361922
v 0.263284 0.007112 0.354475
v 0.268429 0.283709 0.353651
v 0.266589 0.280371 0.353654
v 0.268359 0.280372 0.361101
v -0.268854 0.000055 -0.252178
v -0.268846 0.003462 -0.259597
v -0.267031 0.003403 -0.252161
v -0.266941 0.276730 -0.257885
v -0.266902 0.280043 -0.250424
v -0.265126 0.276671 -0.250449
v -0.267642 -0.003745 0.352928
v -0.265819 -0.000398 0.352946
v -0.267604 -0.000432 0.360389
v -0.265690 0.276243 0.354683
v -0.265699 0.272836 0.362102
v -0.263914 0.272870 0.354658
v -0.415251 0.001074 -0.251879
v -0.417027 0.004447 -0.251854
v -0.415242 0.004481 -0.259298
v -0.413298 0.281062 -0.250124
v -0.413337 0.277749 -0.257585
v -0.415122 0.277714 -0.250142
v -0.414038 -0.002726 0.353228
v -0.414000 0.000587 0.360689
v -0.415815 0.000646 0.353253
v -0.412086 0.277261 0.354982
v -0.413910 0.273914 0.354965
v -0.412095 0.273855 0.362401
v 0.446480 -0.004566 -0.421213
v 0.446437 -0.003313 -0.431526
v 0.457534 -0.003510 -0.421269
v 0.447710 0.094277 -0.431030
v 0.447783 0.095424 -0.420704
v 0.458807 0.094080 -0.420773
v 0.451184 -0.008895 0.418123
v 0.462238 -0.007839 0.418067
v 0.451257 -0.007749 0.428449
v 0.452487 0.091095 0.418632
v 0.452530 0.089842 0.428945
v 0.463511 0.089751 0.418563
v -0.451350 0.007113 -0.416120
v -0.462373 0.008457 -0.416052
v -0.451392 0.008366 -0.426434
v -0.450046 0.107103 -0.415612
v -0.450120 0.105957 -0.425938
v -0.461101 0.106047 -0.415555
v -0.446646 0.002784 0.423215
v -0.446572 0.003931 0.433541
v -0.457669 0.004128 0.423284
v -0.445342 0.102774 0.423724
v -0.456397 0.101718 0.423780
v -0.445300 0.101521 0.434037
vn 0.1117 -0.2066 -0.9720
vn 0.1154 0.2096 -0.9710
vn 0.1208 -0.2117 0.9698
vn 0.1245 0.2045 0.9709
vn -0.1245 -0.2045 -0.9709
vn -0.1208 0.2117 -0.9698
vn -0.1154 -0.2096 0.9710
vn -0.1117 0.2066 0.9720
vn 0.4859 -0.8740 -0.0046
vn 0.1161 0.0015 -0.9932
vn 0.5013 0.8653 -0.0001
vn 0.1254 -0.0037 0.9921
vn 0.0027 -0.2121 0.9772
vn 0.0064 0.2069 0.9783
vn -0.1161 -0.0015 0.9932
vn -0.5013 -0.8653 0.0001
vn -0.4859 0.8740 0.0046
vn -0.1254 0.0037 -0.9921
vn -0.0064 -0.2069 -0.9783
vn -0.0027 0.2121 -0.9772
vn -0.0089 -1.0000 -0.0026
vn 0.9999 -0.0088 -0.0047
vn -0.0047 0.0026 -1.0000
vn 0.0089 1.0000 0.0026
vn 0.0047 -0.0026 1.0000
vn -0.9999 0.0088 0.0047
vn 0.1057 -0.2023 -0.9736
vn 0.1034 0.2138 -0.9714
vn 0.1328 -0.2125 0.9681
vn 0.1305 0.2036 0.9703
vn -0.1305 -0.2036 -0.9703
vn -0.1328 0.2125 -0.9681
vn -0.1034 -0.2138 0.9714
vn -0.1057 0.2023 0.9736
vn 0.4984 -0.8669 -0.0115
vn 0.1069 0.0059 -0.9943
vn 0.4887 0.8725 -0.0022
vn 0.1346 -0.0045 0.9909
vn 0.0148 -0.2147 0.9766
vn 0.0125 0.2044 0.9788
vn -0.1069 -0.0059 0.9943
vn -0.4887 -0.8725 0.0022
vn -0.4984 0.8669 0.0115
vn -0.1346 0.0045 -0.9909
vn -0.0125 -0.2044 -0.9788
vn -0.0148 0.2146 -0.9766
vn 0.0056 -1.0000 -0.0053
vn 0.9999 0.0057 -0.0139
vn -0.0140 0.0053 -0.9999
vn -0.0056 1.0000 0.0053
vn 0.0140 -0.0053 0.9999
vn -0.9999 -0.0057 0.0139
vn 0.9682 -0.1940 -0.1580
vn 0.9632 0.2192 -0.1558
vn 0.9648 -0.1957 0.1757
vn 0.9597 0.2174 0.1779
vn -0.9597 -0.2174 -0.1779
vn -0.9648 0.1957 -0.1758
vn -0.9632 -0.2192 0.1558
vn -0.9682 0.1940 0.1580
vn 0.9802 -0.1976 0.0090
vn 0.9870 0.0129 -0.1604
vn 0.9751 0.2214 0.0112
vn 0.9835 0.0111 0.1807
vn 0.0031 -0.7812 0.6243
vn -0.0160 0.7746 0.6323
vn -0.9870 -0.0129 0.1604
vn -0.9751 -0.2214 -0.0112
vn -0.9802 0.1976 -0.0090
vn -0.9835 -0.0111 -0.1807
vn 0.0160 -0.7746 -0.6323
vn -0.0031 0.7812 -0.6243
vn 0.0122 -0.9999 -0.0051
vn 0.9999 0.0122 0.0103
vn 0.0103 0.0053 -0.9999
vn -0.0122 0.9999 0.0051
vn -0.0103 -0.0053 0.9999
vn -0.9999 -0.0122 -0.0103
vn 0.9630 -0.2079 -0.1713
vn 0.9638 0.2053 -0.1701
vn 0.9644 -0.2089 0.1624
vn 0.9651 0.2043 0.1636
vn -0.9651 -0.2043 -0.1636
vn -0.9644 0.2089 -0.1624
vn -0.9638 -0.2053 0.1701
vn -0.9630 0.2079 0.1713
vn 0.9774 -0.2114 -0.0045
vn 0.9847 -0.0013 -0.1745
vn 0.9782 0.2077 -0.0033
vn 0.9860 -0.0024 0.1666
vn 0.0010 -0.7798 0.6260
vn 0.0040 0.7760 0.6307
vn -0.9847 0.0013 0.1745
vn -0.9782 -0.2077 0.0033
vn -0.9774 0.2114 0.0045
vn -0.9860 0.0024 -0.1666
vn -0.0040 -0.7760 -0.6307
vn -0.0010 0.7798 -0.6260
vn -0.0019 -1.0000 -0.0030
vn 1.0000 -0.0019 -0.0040
vn -0.0040 0.0030 -1.0000
vn 0.0019 1.0000 0.0030
vn 0.0040 -0.0030 1.0000
vn -1.0000 0.0019 0.0040
vn 0.1065 -0.9869 -0.1210
vn 0.1049 0.9887 -0.1068
vn 0.1087 -0.9885 0.1047
vn 0.1071 0.9871 0.1190
vn -0.1071 -0.9871 -0.1190
vn -0.1087 0.9885 -0.1047
vn -0.1049 -0.9887 0.1068
vn -0.1065 0.9869 0.1210
vn 0.1083 -0.9941 -0.0082
vn 0.6802 0.0058 -0.7330
vn 0.1067 0.9943 0.0061
vn 0.6942 -0.0046 0.7198
vn 0.0019 -0.9943 0.1064
vn 0.0003 0.9927 0.1207
vn -0.6802 -0.0058 0.7330
vn -0.1067 -0.9943 -0.0061
vn -0.1083 0.9941 0.0082
vn -0.6942 0.0046 -0.7198
vn -0.0003 -0.9927 -0.1207
vn -0.0019 0.9943 -0.1064
vn 0.0008 -1.0000 -0.0072
vn 1.0000 0.0009 -0.0096
vn -0.0096 0.0072 -0.9999
vn -0.0008 1.0000 0.0072
vn 0.0096 -0.0072 0.9999
vn -1.0000 -0.0009 0.0096
vn 0.3826 -0.7241 -0.5738
vn 0.0971 0.6573 -0.7473
vn 0.7890 -0.5287 0.3131
vn 0.5032 0.8528 0.1395
vn -0.5034 -0.8527 -0.1395
vn -0.7889 0.5287 -0.3131
vn -0.0968 -0.6574 0.7473
vn -0.3827 0.7241 0.5738
vn 0.6753 -0.7221 -0.1503
vn 0.3408 -0.0474 -0.9389
vn 0.3459 0.8704 -0.3503
vn 0.9184 0.2304 0.3217
vn 0.3989 -0.6836 0.6112
vn 0.0696 0.9089 0.4112
vn -0.3408 0.0474 0.9389
vn -0.3459 -0.8704 0.3503
vn -0.6753 0.7221 0.1503
vn -0.9184 -0.2304 -0.3217
vn -0.0695 -0.9089 -0.4112
vn -0.3989 0.6836 -0.6112
vn 0.2010 -0.9719 0.1221
vn 0.8904 0.1293 -0.4365
vn -0.4084 -0.1964 -0.8914
vn -0.2010 0.9719 -0.1221
vn 0.4084 0.1964 0.8914
vn -0.8904 -0.1293 0.4365
vn -0.2600 -0.7065 -0.6582
vn -0.3242 0.7129 -0.6218
vn 0.6713 -0.6734 -0.3098
vn 0.6069 0.7462 -0.2736
vn -0.6070 -0.7461 0.2736
vn -0.6713 0.6734 0.3098
vn 0.3241 -0.7130 0.6218
vn 0.2601 0.7065 0.6581
vn 0.2370 -0.7953 -0.5579
vn -0.4154 0.0045 -0.9096
vn 0.1630 0.8409 -0.5160
vn 0.9085 0.0517 -0.4146
vn 0.5736 -0.7991 0.1798
vn 0.4997 0.8373 0.2217
vn 0.4154 -0.0045 0.9096
vn -0.1629 -0.8409 0.5161
vn -0.2369 0.7953 0.5580
vn -0.9085 -0.0517 0.4146
vn -0.4995 -0.8374 -0.2217
vn -0.5737 0.7991 -0.1798
vn 0.0452 -0.9987 -0.0255
vn 0.3487 0.0397 -0.9364
vn -0.9361 -0.0334 -0.3500
vn -0.0452 0.9987 0.0255
vn 0.9361 0.0334 0.3500
vn -0.3487 -0.0397 0.9364
vn 0.3909 -0.7363 -0.5523
vn 0.2106 0.6638 -0.7176
vn 0.7199 -0.5845 0.3743
vn 0.5396 0.8156 0.2090
vn -0.5396 -0.8156 -0.2090
vn -0.7198 0.5846 -0.3743
vn -0.2106 -0.6638 0.7176
vn -0.3908 0.7363 0.5524
vn 0.6402 -0.7613 -0.1026
vn 0.4275 -0.0515 -0.9025
vn 0.4326 0.8526 -0.2931
vn 0.8951 0.1642 0.4146
vn 0.2935 -0.7196 0.6294
vn 0.0856 0.8945 0.4389
vn -0.4275 0.0515 0.9026
vn -0.4324 -0.8527 0.2931
vn -0.6402 0.7613 0.1026
vn -0.8951 -0.1642 -0.4146
vn -0.0857 -0.8945 -0.4388
vn -0.2934 0.7196 -0.6294
vn 0.1268 -0.9851 0.1163
vn 0.9352 0.0797 -0.3450
vn -0.3306 -0.1525 -0.9314
vn -0.1268 0.9851 -0.1163
vn 0.3306 0.1525 0.9314
vn -0.9352 -0.0797 0.3451
vn 0.1051 -0.7171 -0.6890
vn 0.0337 0.7022 -0.7111
vn 0.7350 -0.6733 0.0800
vn 0.6634 0.7460 0.0579
vn -0.6634 -0.7460 -0.0579
vn -0.7350 0.6733 -0.0800
vn -0.0336 -0.7023 0.7111
vn -0.1051 0.7170 0.6891
vn 0.4842 -0.8014 -0.3511
vn 0.0987 -0.0105 -0.9951
vn 0.4019 0.8347 -0.3765
vn 0.9938 0.0517 0.0980
vn 0.4044 -0.7928 0.4560
vn 0.3217 0.8433 0.4305
vn -0.0987 0.0105 0.9951
vn -0.4017 -0.8348 0.3765
vn -0.4841 0.8015 0.3511
vn -0.9938 -0.0517 -0.0980
vn -0.3216 -0.8434 -0.4305
vn -0.4044 0.7928 -0.4560
vn 0.0504 -0.9986 0.0155
vn 0.7725 0.0291 -0.6343
vn -0.6330 -0.0440 -0.7729
vn -0.0504 0.9986 -0.0155
vn 0.6330 0.0440 0.7729
vn -0.7725 -0.0291 0.6343
vn 0.3416 -0.7268 -0.5959
vn -0.0203 0.6365 -0.7710
vn 0.8421 -0.4879 0.2300
vn 0.4800 0.8756 0.0549
vn -0.4801 -0.8755 -0.0550
vn -0.8421 0.4879 -0.2300
vn 0.0203 -0.6365 0.7710
vn -0.3415 0.7269 0.5959
vn 0.6821 -0.7002 -0.2110
vn 0.2282 -0.0642 -0.9715
vn 0.2651 0.8714 -0.4127
vn 0.9397 0.2754 0.2025
vn 0.4971 -0.6481 0.5770
vn 0.0801 0.9235 0.3752
vn -0.2282 0.0642 0.9715
vn -0.2650 -0.8715 0.4127
vn -0.6821 0.7002 0.2109
vn -0.9397 -0.2754 -0.2026
vn -0.0800 -0.9235 -0.3752
vn -0.4971 0.6481 -0.5770
vn 0.2546 -0.9592 0.1232
vn 0.8259 0.1494 -0.5437
vn -0.5031 -0.2401 -0.8302
vn -0.2546 0.9592 -0.1232
vn 0.5031 0.2401 0.8302
vn -0.8259 -0.1494 0.5437
vn -0.2115 -0.7217 -0.6591
vn -0.4252 0.6820 -0.5950
vn 0.7253 -0.5931 -0.3496
vn 0.5114 0.8106 -0.2854
vn -0.5115 -0.8105 0.2854
vn -0.7253 0.5931 0.3495
vn 0.4253 -0.6820 0.5949
vn 0.2115 0.7217 0.6591
vn 0.2961 -0.7578 -0.5814
vn -0.4526 -0.0282 -0.8912
vn 0.0496 0.8603 -0.5074
vn 0.8789 0.1546 -0.4513
vn 0.6631 -0.7350 0.1414
vn 0.4168 0.8831 0.2154
vn 0.4526 0.0282 0.8912
vn -0.0495 -0.8603 0.5074
vn -0.2961 0.7578 0.5814
vn -0.8789 -0.1546 0.4513
vn -0.4166 -0.8832 -0.2154
vn -0.6632 0.7350 -0.1414
vn 0.1505 -0.9876 -0.0452
vn 0.3014 0.0893 -0.9493
vn -0.9415 -0.1292 -0.3111
vn -0.1505 0.9876 0.0452
vn 0.9415 0.1292 0.3111
vn -0.3014 -0.0893 0.9493
vn 0.5750 -0.7276 -0.3742
vn 0.4122 0.6617 -0.6263
vn 0.5762 -0.5498 0.6048
vn 0.4133 0.8395 0.3527
vn -0.4133 -0.8395 -0.3527
vn -0.5762 0.5498 -0.6047
vn -0.4123 -0.6617 0.6262
vn -0.5751 0.7275 0.3742
vn 0.6636 -0.7362 0.1328
vn 0.7016 -0.0467 -0.7110
vn 0.4758 0.8653 -0.1577
vn 0.7033 0.2059 0.6804
vn 0.0946 -0.6983 0.7095
vn -0.0932 0.9032 0.4190
vn -0.7016 0.0467 0.7111
vn -0.4757 -0.8654 0.1577
vn -0.6636 0.7362 -0.1329
vn -0.7033 -0.2059 -0.6804
vn 0.0932 -0.9032 -0.4189
vn -0.0946 0.6983 -0.7095
vn 0.1146 -0.9775 0.1773
vn 0.9934 0.1126 -0.0217
vn -0.0012 -0.1786 -0.9839
vn -0.1146 0.9775 -0.1773
vn 0.0012 0.1786 0.9839
vn -0.9934 -0.1126 0.0217
vn -0.1088 -0.7282 -0.6766
vn -0.3724 0.6680 -0.6442
vn 0.7799 -0.5702 -0.2581
vn 0.5164 0.8261 -0.2257
vn -0.5163 -0.8261 0.2257
vn -0.7799 0.5702 0.2581
vn 0.3725 -0.6680 0.6442
vn 0.1089 0.7283 0.6766
vn 0.3869 -0.7484 -0.5387
vn -0.3420 -0.0428 -0.9387
vn 0.0828 0.8612 -0.5014
vn 0.9212 0.1820 -0.3439
vn 0.6642 -0.7136 0.2225
vn 0.3602 0.8960 0.2599
vn 0.3420 0.0428 0.9387
vn -0.0828 -0.8612 0.5014
vn -0.3869 0.7484 0.5387
vn -0.9212 -0.1820 0.3439
vn -0.3602 -0.8959 -0.2599
vn -0.6642 0.7136 -0.2226
vn 0.1856 -0.9824 -0.0228
vn 0.4096 0.0984 -0.9070
vn -0.8932 -0.1590 -0.4206
vn -0.1856 0.9824 0.0228
vn 0.8932 0.1590 0.4206
vn -0.4096 -0.0984 0.9070
vn -0.2852 -0.7228 -0.6295
vn -0.4734 0.6840 -0.5551
vn 0.6792 -0.6053 -0.4151
vn 0.4913 0.8016 -0.3407
vn -0.4910 -0.8018 0.3408
vn -0.6794 0.6051 0.4151
vn 0.4735 -0.6839 0.5550
vn 0.2850 0.7229 0.6294
vn 0.2273 -0.7655 -0.6020
vn -0.5390 -0.0276 -0.8419
vn 0.0103 0.8563 -0.5163
vn 0.8318 0.1397 -0.5372
vn 0.6645 -0.7429 0.0807
vn 0.4475 0.8787 0.1664
vn 0.5390 0.0276 0.8419
vn -0.0102 -0.8563 0.5163
vn -0.2272 0.7655 0.6020
vn -0.8318 -0.1397 0.5372
vn -0.4474 -0.8787 -0.1664
vn -0.6644 0.7430 -0.0807
vn 0.1325 -0.9898 -0.0523
vn 0.2071 0.0792 -0.9751
vn -0.9693 -0.1183 -0.2154
vn -0.1325 0.9898 0.0523
vn 0.9693 0.1183 0.2154
vn -0.2071 -0.0792 0.9751
vn 0.5482 -0.5870 -0.5958
vn 0.5494 0.5885 -0.5931
vn 0.5624 -0.5897 0.5796
vn 0.5636 0.5858 0.5823
vn -0.5637 -0.5858 -0.5823
vn -0.5624 0.5897 -0.5796
vn -0.5494 -0.5885 0.5931
vn -0.5482 0.5870 0.5958
vn 0.6864 -0.7272 -0.0100
vn 0.6783 0.0010 -0.7347
vn 0.6879 0.7258 -0.0067
vn 0.6959 -0.0024 0.7181
vn 0.0078 -0.7087 0.7054
vn 0.0093 0.7055 0.7087
vn -0.6784 -0.0010 0.7347
vn -0.6879 -0.7258 0.0067
vn -0.6864 0.7272 0.0100
vn -0.6959 0.0024 -0.7181
vn -0.0093 -0.7055 -0.7087
vn -0.0078 0.7087 -0.7054
vn -0.0010 -1.0000 -0.0023
vn 0.9999 -0.0010 -0.0121
vn -0.0121 0.0023 -0.9999
vn 0.0010 1.0000 0.0023
vn 0.0121 -0.0023 0.9999
vn -0.9999 0.0010 0.0121
vn 0.3329 -0.9182 -0.2146
vn 0.3176 0.3310 -0.8886
vn 0.3275 -0.3236 0.8877
vn 0.3123 0.9256 0.2137
vn -0.3123 -0.9256 -0.2137
vn -0.3275 0.3235 -0.8877
vn -0.3176 -0.3309 0.8886
vn -0.3329 0.9182 0.2146
vn 0.4235 -0.7964 0.4317
vn 0.4617 -0.4168 -0.7830
vn 0.4040 0.8059 -0.4328
vn 0.4541 0.4273 0.7818
vn 0.0052 -0.3458 0.9383
vn -0.0108 0.9740 0.2263
vn -0.4617 0.4168 0.7830
vn -0.4040 -0.8059 0.4328
vn -0.4235 0.7964 -0.4317
vn -0.4542 -0.4273 -0.7818
vn 0.0108 -0.9740 -0.2263
vn -0.0052 0.3457 -0.9383
vn 0.0107 -0.8800 0.4748
vn 0.9999 0.0114 -0.0013
vn 0.0042 -0.4748 -0.8801
vn -0.0107 0.8800 -0.4748
vn -0.0042 0.4748 0.8801
vn -0.9999 -0.0114 0.0013
vn 0.1086 -0.9768 0.1847
vn 0.0890 0.7153 -0.6931
vn 0.1081 -0.7134 0.6924
vn 0.0886 0.9786 -0.1855
vn -0.0886 -0.9786 0.1855
vn -0.1082 0.7134 -0.6923
vn -0.0890 -0.7153 0.6931
vn -0.1086 0.9768 -0.1847
vn 0.1131 -0.8819 0.4576
vn 0.3266 -0.4323 -0.8405
vn 0.0927 0.8839 -0.4585
vn 0.3253 0.4384 0.8378
vn 0.0096 -0.7178 0.6961
vn -0.0100 0.9825 -0.1860
vn -0.3267 0.4323 0.8405
vn -0.0927 -0.8839 0.4585
vn -0.1131 0.8819 -0.4576
vn -0.3253 -0.4384 -0.8378
vn 0.0100 -0.9825 0.1860
vn -0.0096 0.7178 -0.6961
vn 0.0102 -0.8876 0.4605
vn 0.9999 0.0094 -0.0041
vn 0.0007 -0.4605 -0.8877
vn -0.0102 0.8876 -0.4605
vn -0.0007 0.4605 0.8877
vn -0.9999 -0.0094 0.0041
vn 0.2605 -0.9644 -0.0461
vn 0.2650 0.9638 -0.0311
vn 0.2609 -0.9650 0.0281
vn 0.2654 0.9632 0.0431
vn -0.2654 -0.9632 -0.0430
vn -0.2610 0.9649 -0.0281
vn -0.2648 -0.9638 0.0311
vn -0.2605 0.9644 0.0461
vn 0.2609 -0.9653 -0.0090
vn 0.9894 -0.0011 -0.1454
vn 0.2654 0.9641 0.0060
vn 0.9910 -0.0033 0.1339
vn -0.0021 -0.9995 0.0307
vn 0.0025 0.9989 0.0462
vn -0.9894 0.0011 0.1454
vn -0.2652 -0.9642 -0.0060
vn -0.2608 0.9653 0.0090
vn -0.9910 0.0033 -0.1339
vn -0.0025 -0.9989 -0.0462
vn 0.0021 0.9995 -0.0307
vn -0.0023 -1.0000 -0.0078
vn 1.0000 -0.0022 -0.0058
vn -0.0058 0.0078 -1.0000
vn 0.0023 1.0000 0.0078
vn 0.0058 -0.0078 1.0000
vn -1.0000 0.0022 0.0058
vn 0.2656 -0.9634 -0.0357
vn 0.2600 0.9647 -0.0410
vn 0.2661 -0.9632 0.0384
vn 0.2602 0.9650 0.0331
vn -0.2603 -0.9650 -0.0331
vn -0.2660 0.9632 -0.0384
vn -0.2599 -0.9648 0.0410
vn -0.2658 0.9634 0.0357
vn 0.2662 -0.9639 0.0014
vn 0.9895 0.0027 -0.1445
vn 0.2603 0.9655 -0.0040
vn 0.9909 0.0034 0.1347
vn 0.0033 -0.9991 0.0412
vn -0.0029 0.9994 0.0357
vn -0.9895 -0.0027 0.1445
vn -0.2600 -0.9656 0.0040
vn -0.2659 0.9640 -0.0014
vn -0.9909 -0.0034 -0.1347
vn 0.0029 -0.9994 -0.0357
vn -0.0033 0.9991 -0.0412
vn 0.0031 -1.0000 0.0028
vn 1.0000 0.0031 -0.0049
vn -0.0049 -0.0028 -1.0000
vn -0.0031 1.0000 -0.0028
vn 0.0049 0.0028 1.0000
vn -1.0000 -0.0031 0.0049
vn 0.8573 -0.4728 -0.2037
vn 0.8684 0.4508 -0.2065
vn 0.8556 -0.4716 0.2134
vn 0.8668 0.4520 0.2107
vn -0.8668 -0.4520 -0.2107
vn -0.8556 0.4716 -0.2134
vn -0.8684 -0.4507 0.2065
vn -0.8573 0.4729 0.2037
vn 0.8757 -0.4828 0.0050
vn 0.9728 -0.0125 -0.2312
vn 0.8871 0.4615 0.0021
vn 0.9709 -0.0110 0.2391
vn -0.0127 -0.9100 0.4143
vn 0.0094 0.9126 0.4088
vn -0.9728 0.0125 0.2312
vn -0.8871 -0.4615 -0.0021
vn -0.8757 0.4828 -0.0050
vn -0.9709 0.0110 -0.2391
vn -0.0094 -0.9126 -0.4088
vn 0.0127 0.9100 -0.4143
vn -0.0121 -0.9999 0.0030
vn 0.9999 -0.0121 0.0040
vn 0.0040 -0.0031 -1.0000
vn 0.0121 0.9999 -0.0030
vn -0.0040 0.0031 1.0000
vn -0.9999 0.0121 -0.0040
vn 0.8584 -0.4665 -0.2132
vn 0.8649 0.4571 -0.2074
vn 0.8593 -0.4691 0.2039
vn 0.8657 0.4545 0.2097
vn -0.8657 -0.4545 -0.2097
vn -0.8593 0.4691 -0.2039
vn -0.8649 -0.4571 0.2074
vn -0.8584 0.4665 0.2132
vn 0.8782 -0.4783 -0.0048
vn 0.9715 -0.0053 -0.2371
vn 0.8847 0.4661 0.0012
vn 0.9724 -0.0082 0.2332
vn -0.0055 -0.9139 0.4059
vn 0.0072 0.9087 0.4173
vn -0.9715 0.0053 0.2371
vn -0.8848 -0.4661 -0.0012
vn -0.8782 0.4783 0.0048
vn -0.9724 0.0082 -0.2332
vn -0.0072 -0.9087 -0.4173
vn 0.0055 0.9139 -0.4059
vn -0.0070 -1.0000 -0.0063
vn 1.0000 -0.0070 -0.0020
vn -0.0020 0.0063 -1.0000
vn 0.0070 1.0000 0.0063
vn 0.0020 -0.0063 1.0000
vn -1.0000 0.0070 0.0020
vn 0.0938 -0.9883 -0.1205
vn 0.1196 0.9867 -0.1104
vn 0.0951 -0.9895 0.1092
vn 0.1209 0.9855 0.1192
vn -0.1209 -0.9855 -0.1193
vn -0.0951 0.9895 -0.1092
vn -0.1196 -0.9867 0.1104
vn -0.0938 0.9883 0.1204
vn 0.0951 -0.9955 -0.0057
vn 0.6787 -0.0051 -0.7344
vn 0.1210 0.9926 0.0044
vn 0.6869 -0.0126 0.7266
vn -0.0123 -0.9938 0.1104
vn 0.0136 0.9926 0.1205
vn -0.6787 0.0051 0.7344
vn -0.1210 -0.9926 -0.0044
vn -0.0951 0.9955 0.0057
vn -0.6869 0.0126 -0.7266
vn -0.0136 -0.9926 -0.1205
vn 0.0123 0.9938 -0.1104
vn -0.0130 -0.9999 -0.0051
vn 0.9999 -0.0130 -0.0057
vn -0.0056 0.0052 -1.0000
vn 0.0130 0.9999 0.0051
vn 0.0056 -0.0052 1.0000
vn -0.9999 0.0130 0.0057
vn -0.0148 0.2147 -0.9766
vn -0.9847 0.0013 0.1744
vn -0.1082 0.9941 0.0082
vn 0.3460 0.8704 -0.3503
vn 0.3988 -0.6836 0.6112
vn 0.0695 0.9089 0.4112
vn -0.3408 0.0475 0.9390
vn -0.0695 -0.9089 -0.4111
vn 0.2370 -0.7953 -0.5580
vn 0.1629 0.8409 -0.5160
vn 0.5739 -0.7989 0.1798
vn 0.5000 0.8372 0.2216
vn -0.1630 -0.8409 0.5160
vn -0.2370 0.7953 0.5579
vn -0.5000 -0.8372 -0.2216
vn -0.5738 0.7990 -0.1798
vn 0.4275 -0.0515 -0.9026
vn 0.4324 0.8527 -0.2931
vn 0.2936 -0.7195 0.6293
vn 0.0857 0.8945 0.4388
vn -0.4325 -0.8527 0.2931
vn -0.6401 0.7614 0.1026
vn -0.2936 0.7195 -0.6293
vn -0.9352 -0.0797 0.3450
vn 0.0986 -0.0105 -0.9951
vn 0.4015 0.8348 -0.3766
vn 0.4042 -0.7929 0.4560
vn 0.3218 0.8433 0.4305
vn -0.4015 -0.8349 0.3765
vn -0.4842 0.8014 0.3511
vn -0.3217 -0.8433 -0.4305
vn -0.4042 0.7929 -0.4560
vn 0.6823 -0.7000 -0.2109
vn 0.9397 0.2754 0.2026
vn 0.0800 0.9235 0.3751
vn -0.2283 0.0642 0.9715
vn -0.2652 -0.8714 0.4127
vn -0.6822 0.7001 0.2109
vn 0.0495 0.8603 -0.5074
vn 0.6633 -0.7349 0.1414
vn 0.4166 0.8832 0.2154
vn 0.4527 0.0282 0.8912
vn -0.0496 -0.8603 0.5074
vn -0.2962 0.7578 0.5814
vn -0.4167 -0.8831 -0.2154
vn -0.6633 0.7349 -0.1414
vn 0.6636 -0.7362 0.1329
vn 0.4760 0.8652 -0.1577
vn -0.7016 0.0467 0.7110
vn -0.4758 -0.8653 0.1577
vn -0.6636 0.7362 -0.1328
vn 0.0932 -0.9032 -0.4190
vn 0.3869 -0.7483 -0.5388
vn 0.0829 0.8612 -0.5015
vn 0.6643 -0.7136 0.2225
vn -0.0829 -0.8612 0.5014
vn -0.3602 -0.8960 -0.2599
vn -0.6642 0.7136 -0.2225
vn 0.2272 -0.7654 -0.6021
vn -0.5390 -0.0276 -0.8418
vn 0.0102 0.8563 -0.5163
vn 0.6643 -0.7431 0.0807
vn 0.5390 0.0276 0.8418
vn -0.2273 0.7654 0.6021
vn -0.4472 -0.8788 -0.1664
vn -0.6643 0.7431 -0.0807
vn 0.6784 0.0010 -0.7347
vn 0.0052 -0.3457 0.9383
vn 0.0108 -0.9740 -0.2262
vn -0.0052 0.3458 -0.9383
vn 0.3267 -0.4323 -0.8405
vn 0.0096 -0.7179 0.6961
vn -0.3266 0.4323 0.8405
vn 0.2608 -0.9653 -0.0090
vn 0.2653 0.9641 0.0060
vn -0.2653 -0.9642 -0.0060
vn -0.2610 0.9653 0.0090
vn 0.2661 -0.9639 0.0014
vn 0.2599 0.9656 -0.0040
vn -0.2605 -0.9655 0.0040
vn -0.2664 0.9639 -0.0014
vn -0.0094 -0.9126 -0.4089
vn -0.8847 -0.4661 -0.0012
vn -0.9724 0.0082 -0.2331
vn 0.6869 -0.0127 0.7266
vn -0.0136 -0.9926 -0.1206
vn 0.0123 0.9938 -0.1105
vt 0.142789 0.724794
vt 0.142750 0.729836
vt 0.133865 0.729755
vt 0.139118 1.139739
vt 0.139069 1.144776
vt 0.130234 1.139658
vt 0.142377 0.724563
vt 0.133453 0.729524
vt 0.142327 0.729600
vt 0.138656 1.144545
vt 0.138696 1.139503
vt 0.129822 1.139427
vt 0.864993 0.731183
vt 0.873828 0.736302
vt 0.864954 0.736226
vt 0.861272 1.151165
vt 0.861322 1.146128
vt 0.870197 1.146204
vt 0.864581 0.730952
vt 0.864531 0.735989
vt 0.873416 0.736071
vt 0.860860 1.150935
vt 0.869784 1.145973
vt 0.860900 1.145892
vt 0.142377 0.350716
vt 0.133865 0.262849
vt 0.133453 0.350688
vt 0.138656 0.351802
vt 0.130234 0.263909
vt 0.139069 0.263964
vt 0.864581 0.354123
vt 0.873828 0.266339
vt 0.864993 0.266284
vt 0.861272 0.267370
vt 0.869784 0.355238
vt 0.860860 0.355209
vt 0.142789 0.262878
vt 0.263909 1.139658
vt 0.350688 0.729524
vt 0.262849 0.729755
vt 0.355238 1.145973
vt 0.266339 0.736302
vt 0.354178 0.736071
vt 0.137201 0.731243
vt 0.137244 0.736288
vt 0.128350 0.736333
vt 0.139533 1.146196
vt 0.139546 1.151230
vt 0.130639 1.146241
vt 0.135975 0.730781
vt 0.127124 0.735871
vt 0.135988 0.735815
vt 0.138320 1.150768
vt 0.138277 1.145723
vt 0.129413 1.145779
vt 0.859360 0.727157
vt 0.868267 0.732146
vt 0.859403 0.732202
vt 0.861705 1.147144
vt 0.861692 1.142110
vt 0.870556 1.142054
vt 0.858134 0.726695
vt 0.858147 0.731729
vt 0.867041 0.731684
vt 0.860479 1.146682
vt 0.869330 1.141592
vt 0.860436 1.141637
vt 0.135975 0.955216
vt 0.128350 0.867289
vt 0.127124 0.955119
vt 0.138320 0.957457
vt 0.130639 0.869477
vt 0.139546 0.869627
vt 0.859360 0.877443
vt 0.867041 0.965424
vt 0.868267 0.877594
vt 0.860479 0.967515
vt 0.870556 0.879782
vt 0.869330 0.967612
vt 0.858134 0.965274
vt 0.137201 0.867386
vt 0.869477 1.146241
vt 0.955119 0.735871
vt 0.867289 0.736333
vt 0.861705 0.879685
vt 0.967612 1.141592
vt 0.877594 0.732146
vt 0.965424 0.731684
vt 0.358604 0.730167
vt 0.352390 0.735240
vt 0.358641 0.735220
vt 0.354491 1.145124
vt 0.360757 1.150130
vt 0.360742 1.145104
vt 0.866090 0.727502
vt 0.866127 0.732554
vt 0.872355 0.732508
vt 0.868243 1.147465
vt 0.874457 1.142392
vt 0.868228 1.142438
vt 0.357696 0.729099
vt 0.357711 0.734125
vt 0.351483 0.734171
vt 0.359850 1.149062
vt 0.353584 1.144055
vt 0.359812 1.144009
vt 0.865182 0.726433
vt 0.871448 0.731440
vt 0.865197 0.731459
vt 0.867336 1.146396
vt 0.867299 1.141343
vt 0.873549 1.141324
vt 0.132926 0.866090
vt 0.220880 0.871448
vt 0.220755 0.865182
vt 0.225886 0.867336
vt 0.138059 0.874457
vt 0.138057 0.868243
vt 0.127716 0.358604
vt 0.215542 0.351483
vt 0.127713 0.352390
vt 0.132847 0.360757
vt 0.220550 0.353584
vt 0.220676 0.359850
vt 0.220550 1.144055
vt 0.127713 0.735240
vt 0.215542 0.734171
vt 0.138059 1.142392
vt 0.220880 0.731440
vt 0.133051 0.732508
vt 0.360392 0.727126
vt 0.354167 0.732184
vt 0.360403 0.732164
vt 0.355399 1.142102
vt 0.361654 1.147123
vt 0.361635 1.142081
vt 0.867905 0.725597
vt 0.867916 0.730634
vt 0.874161 0.730618
vt 0.869168 1.145594
vt 0.875393 1.140535
vt 0.869148 1.140552
vt 0.360741 0.727291
vt 0.360760 0.732333
vt 0.354516 0.732350
vt 0.362003 1.147288
vt 0.355748 1.142267
vt 0.361992 1.142250
vt 0.868255 0.725762
vt 0.874510 0.730783
vt 0.868274 0.730804
vt 0.869517 1.145759
vt 0.869506 1.140721
vt 0.875742 1.140700
vt 0.867344 0.868255
vt 0.779471 0.874161
vt 0.867310 0.874510
vt 0.778709 0.869168
vt 0.866533 0.875742
vt 0.778694 0.875393
vt 0.869358 0.360741
vt 0.781534 0.354167
vt 0.781519 0.360392
vt 0.868562 0.362003
vt 0.780757 0.355399
vt 0.868597 0.355748
vt 0.779505 0.867905
vt 0.869373 0.732350
vt 0.780757 1.142102
vt 0.781534 0.732184
vt 0.866548 0.869517
vt 0.778694 1.140535
vt 0.867310 0.730783
vt 0.779471 0.730618
vt 0.141609 0.268271
vt 0.141691 0.259878
vt 0.132730 0.268192
vt 0.141753 0.260442
vt 0.141673 0.268848
vt 0.132793 0.268756
vt 0.135040 0.951422
vt 0.126162 0.951343
vt 0.134960 0.959828
vt 0.135104 0.951999
vt 0.135023 0.960391
vt 0.126224 0.951907
vt 0.863816 0.275211
vt 0.872696 0.275303
vt 0.863897 0.266818
vt 0.863880 0.275788
vt 0.863960 0.267382
vt 0.872759 0.275866
vt 0.857247 0.958361
vt 0.857167 0.966768
vt 0.866127 0.958454
vt 0.857311 0.958939
vt 0.866190 0.959017
vt 0.857229 0.967331
vt 0.141753 0.810767
vt 0.132730 0.732637
vt 0.141691 0.732690
vt 0.135023 0.805722
vt 0.126162 0.727713
vt 0.126224 0.805791
vt 0.866127 0.727068
vt 0.857229 0.805093
vt 0.866190 0.805146
vt 0.863897 0.732060
vt 0.872759 0.810070
vt 0.863960 0.810138
vt 0.268756 0.810715
vt 0.951343 0.727713
vt 0.268192 0.732637
vt 0.857167 0.727015
vt 0.134960 0.727644
vt 0.958454 0.727068
vt 0.275866 0.810070
vt 0.275303 0.731992
vt 0.478213 0.370449
vt 0.478825 0.369360
vt 0.477377 0.369867
vt 0.504657 1.066137
vt 0.504359 1.067115
vt 0.503209 1.066501
vt 0.534079 0.976768
vt 0.533497 0.977670
vt 0.534977 0.977745
vt 0.429388 0.518201
vt 0.428776 0.519290
vt 0.428239 0.517810
vt 0.641655 0.450565
vt 0.642804 0.450957
vt 0.642267 0.449476
vt 0.434688 1.043372
vt 0.433789 1.042395
vt 0.435270 1.042470
vt 0.566684 0.953025
vt 0.566386 0.954003
vt 0.567834 0.953640
vt 0.592830 0.598318
vt 0.593666 0.598899
vt 0.592218 0.599407
vt 0.402407 0.533497
vt 0.403243 0.534079
vt 0.477377 0.941611
vt 0.478825 0.941248
vt 0.503209 0.354180
vt 0.504359 0.354571
vt 0.519290 1.102635
vt 0.517810 1.102560
vt 0.566386 0.615094
vt 0.566684 0.614195
vt 0.592218 1.078892
vt 0.593666 1.078529
vt 0.667800 0.434688
vt 0.449476 0.917505
vt 0.668099 0.433789
vt 0.354180 1.066501
vt 0.369867 0.941611
vt 0.668099 1.042395
vt 0.642267 0.917505
vt 0.402944 0.977745
vt 0.598899 1.078529
vt 0.450957 0.917580
vt 0.614586 0.953640
vt 0.684116 0.421888
vt 0.684926 0.421610
vt 0.683851 0.421119
vt 0.689283 0.424075
vt 0.688526 0.424383
vt 0.688208 0.423584
vt 0.555090 0.470131
vt 0.554824 0.469362
vt 0.554333 0.470439
vt 0.559500 0.472625
vt 0.558690 0.472904
vt 0.559181 0.471827
vt 0.732177 0.550948
vt 0.732495 0.551747
vt 0.732987 0.550670
vt 0.736587 0.553443
vt 0.737344 0.553135
vt 0.736852 0.554212
vt 0.603150 0.599191
vt 0.602393 0.599499
vt 0.603469 0.599990
vt 0.607560 0.601686
vt 0.607826 0.602455
vt 0.606750 0.601964
vt 0.689283 1.034746
vt 0.683851 0.938458
vt 0.684926 0.938397
vt 0.470439 0.943053
vt 0.471827 1.039408
vt 0.472904 1.039402
vt 0.607826 1.033866
vt 0.602393 0.937578
vt 0.606750 1.033927
vt 0.553135 1.029271
vt 0.551747 0.932916
vt 0.554212 1.029266
vt 0.559181 1.039408
vt 0.554824 0.943058
vt 0.550670 0.932922
vt 0.424075 1.034746
vt 0.421610 0.938397
vt 0.601964 1.033927
vt 0.599499 0.937578
vt 0.732495 0.932916
vt 0.603469 0.937517
vt 0.315214 0.577016
vt 0.315633 0.576005
vt 0.314369 0.576590
vt 0.330233 1.055764
vt 0.329992 1.056605
vt 0.328969 1.055996
vt 0.730165 0.966916
vt 0.729739 0.967685
vt 0.731014 0.967757
vt 0.275623 0.716618
vt 0.275204 0.717629
vt 0.274600 0.716355
vt 0.468995 0.633755
vt 0.470017 0.634018
vt 0.469413 0.632743
vt 0.620208 1.043501
vt 0.619359 1.042660
vt 0.620634 1.042733
vt 0.414626 0.953813
vt 0.414384 0.954654
vt 0.415648 0.954422
vt 0.429403 0.773357
vt 0.430248 0.773783
vt 0.428984 0.774368
vt 0.260000 0.729739
vt 0.260845 0.730165
vt 0.314369 0.942607
vt 0.315633 0.942375
vt 0.328969 0.563206
vt 0.329992 0.563469
vt 0.716355 1.081074
vt 0.717629 1.081146
vt 0.414626 0.786904
vt 0.260604 0.731014
vt 0.414384 0.787752
vt 0.428984 1.068042
vt 0.430248 1.067810
vt 0.415648 0.787167
vt 0.483772 0.620208
vt 0.634018 0.929344
vt 0.330233 0.562621
vt 0.484014 0.619359
vt 0.563206 1.055996
vt 0.576590 0.942607
vt 0.469413 0.929271
vt 0.275204 1.081146
vt 0.260604 0.967757
vt 0.787167 0.954422
vt 0.647257 0.391269
vt 0.647803 0.390629
vt 0.646655 0.390742
vt 0.652552 1.029225
vt 0.652064 1.029832
vt 0.651403 1.029284
vt 0.495302 0.940519
vt 0.494774 0.941114
vt 0.495924 0.941126
vt 0.566862 0.493820
vt 0.566316 0.494461
vt 0.566202 0.493311
vt 0.751236 0.476651
vt 0.751897 0.477161
vt 0.751783 0.476011
vt 0.475170 1.025912
vt 0.474547 1.025305
vt 0.475697 1.025317
vt 0.666034 0.936599
vt 0.665546 0.937206
vt 0.666695 0.937147
vt 0.670841 0.579202
vt 0.671444 0.579729
vt 0.670295 0.579843
vt 0.561453 0.494774
vt 0.562055 0.495302
vt 0.646655 0.935196
vt 0.647803 0.935136
vt 0.652064 0.389788
vt 0.651403 0.389279
vt 0.493311 1.035203
vt 0.494461 1.035215
vt 0.666034 0.580683
vt 0.561567 0.495924
vt 0.665546 0.581306
vt 0.671444 1.031235
vt 0.670295 1.031295
vt 0.666695 0.581193
vt 0.756646 0.475697
vt 0.477161 0.931228
vt 0.756043 0.475170
vt 0.652552 0.389165
vt 0.756532 0.474547
vt 0.389279 1.029284
vt 0.390742 0.935196
vt 0.751783 0.931216
vt 0.561567 0.941126
vt 0.579729 1.031235
vt 0.581193 0.937147
vt 0.292442 0.643069
vt 0.293228 0.642012
vt 0.291694 0.642342
vt 0.327090 1.055846
vt 0.326715 1.056898
vt 0.325556 1.056296
vt 0.800819 0.973394
vt 0.800092 0.974341
vt 0.801677 0.974446
vt 0.231110 0.784238
vt 0.230324 0.785296
vt 0.229951 0.783710
vt 0.449372 0.746387
vt 0.450530 0.746915
vt 0.450158 0.745329
vt 0.729806 1.028514
vt 0.728948 1.027462
vt 0.730533 1.027566
vt 0.353767 0.945009
vt 0.353392 0.946061
vt 0.354926 0.945612
vt 0.388040 0.887556
vt 0.388787 0.888283
vt 0.387254 0.888614
vt 0.196090 0.800092
vt 0.196837 0.800819
vt 0.293228 0.928262
vt 0.291694 0.928712
vt 0.325556 0.625960
vt 0.326715 0.626488
vt 0.785296 1.102029
vt 0.783710 1.101925
vt 0.353767 0.904137
vt 0.196462 0.801677
vt 0.353392 0.904995
vt 0.388787 1.073195
vt 0.387254 1.073645
vt 0.484392 0.730533
vt 0.746915 0.899983
vt 0.483645 0.729806
vt 0.327090 0.625630
vt 0.484019 0.728948
vt 0.625960 1.056296
vt 0.642342 0.928712
vt 0.450158 0.899878
vt 0.196462 0.974446
vt 0.904665 0.945612
vt 0.510080 0.467471
vt 0.511109 0.467196
vt 0.509887 0.466569
vt 0.528163 0.472314
vt 0.527341 0.472651
vt 0.526941 0.471687
vt 0.517838 1.009320
vt 0.516935 1.010087
vt 0.518175 1.010126
vt 0.374915 0.523018
vt 0.373886 0.523293
vt 0.374515 0.522054
vt 0.558876 0.621152
vt 0.559276 0.622117
vt 0.559905 0.620877
vt 0.626333 1.087208
vt 0.625996 1.086401
vt 0.627235 1.086440
vt 0.406450 0.671519
vt 0.405628 0.671856
vt 0.406850 0.672483
vt 0.423711 0.676699
vt 0.423904 0.677601
vt 0.422682 0.676974
vt 0.357655 0.517838
vt 0.357462 0.516935
vt 0.511109 0.988949
vt 0.526941 1.101079
vt 0.509887 0.989164
vt 0.522054 1.122002
vt 0.523293 1.122041
vt 0.356832 0.518175
vt 0.423904 1.107363
vt 0.405628 0.995663
vt 0.422682 1.107578
vt 0.576329 0.627235
vt 0.620877 0.974486
vt 0.576137 0.626333
vt 0.576959 0.625996
vt 0.357462 1.010087
vt 0.472314 1.100865
vt 0.467196 0.988949
vt 0.676974 1.107578
vt 0.671856 0.995663
vt 0.559276 0.974525
vt 0.406850 0.995448
vt 0.332672 0.385442
vt 0.332757 0.384275
vt 0.331710 0.385288
vt 0.346666 0.362758
vt 0.346749 0.363663
vt 0.345619 0.363770
vt 0.332462 0.960996
vt 0.331501 0.961835
vt 0.332546 0.961904
vt 0.346540 0.534221
vt 0.346454 0.535387
vt 0.345409 0.534328
vt 0.504876 0.389196
vt 0.506006 0.389088
vt 0.504961 0.388029
vt 0.518953 1.030564
vt 0.518870 1.029656
vt 0.519914 1.029725
vt 0.504666 0.559754
vt 0.504750 0.560659
vt 0.505797 0.559646
vt 0.518744 0.537975
vt 0.519705 0.538128
vt 0.518658 0.539141
vt 0.331501 0.555846
vt 0.332462 0.556000
vt 0.346666 1.049168
vt 0.331710 0.930868
vt 0.332757 0.930561
vt 0.556905 0.961904
vt 0.534328 1.080442
vt 0.535387 1.080511
vt 0.504666 0.941484
vt 0.504750 0.942392
vt 0.505797 0.942086
vt 0.518658 1.060999
vt 0.519705 1.060692
vt 0.519914 0.367570
vt 0.366512 1.029656
vt 0.389088 0.911118
vt 0.367570 1.029725
vt 0.346749 1.050076
vt 0.363770 1.049474
vt 0.555846 0.961835
vt 0.385288 0.930868
vt 0.504961 0.911049
vt 0.518953 0.367417
vt 0.559646 0.942086
vt 0.385669 0.525557
vt 0.386713 0.525144
vt 0.385384 0.524648
vt 0.408542 0.527824
vt 0.407763 0.528269
vt 0.407212 0.527328
vt 0.596243 0.963037
vt 0.595334 0.963839
vt 0.596688 0.963901
vt 0.257659 0.598955
vt 0.256615 0.599368
vt 0.257108 0.598014
vt 0.454500 0.677971
vt 0.455051 0.678913
vt 0.455544 0.677558
vt 0.680684 1.036753
vt 0.680238 1.035889
vt 0.681593 1.035951
vt 0.304397 0.748657
vt 0.303617 0.749103
vt 0.304947 0.749599
vt 0.326490 0.751370
vt 0.326775 0.752279
vt 0.325446 0.751783
vt 0.235280 0.595334
vt 0.235565 0.596243
vt 0.408542 1.052425
vt 0.385384 0.937126
vt 0.386713 0.936863
vt 0.598014 1.079401
vt 0.599368 1.079463
vt 0.326775 1.062664
vt 0.303617 0.947365
vt 0.325446 1.062927
vt 0.476594 0.680684
vt 0.677558 0.920327
vt 0.477373 0.680238
vt 0.257108 1.079401
vt 0.235280 0.963839
vt 0.525144 0.936863
vt 0.749103 0.947365
vt 0.455051 0.920389
vt 0.304947 0.947102
vt 0.476600 0.525781
vt 0.477642 0.525606
vt 0.476487 0.524860
vt 0.492623 0.531522
vt 0.491763 0.531769
vt 0.491469 0.530776
vt 0.560593 0.992685
vt 0.559673 0.993442
vt 0.560841 0.993481
vt 0.335138 0.566581
vt 0.334095 0.566757
vt 0.334843 0.565588
vt 0.510057 0.683343
vt 0.510351 0.684335
vt 0.511099 0.683167
vt 0.689330 1.074077
vt 0.689083 1.073281
vt 0.690251 1.073320
vt 0.353432 0.718155
vt 0.352572 0.718402
vt 0.353726 0.719148
vt 0.368595 0.724143
vt 0.368707 0.725063
vt 0.367553 0.724318
vt 0.319862 0.559673
vt 0.319974 0.560593
vt 0.477642 0.974129
vt 0.491469 1.086278
vt 0.476487 0.974323
vt 0.565588 1.105397
vt 0.566757 1.105436
vt 0.368707 1.092439
vt 0.352572 0.980678
vt 0.367553 1.092633
vt 0.525220 0.689330
vt 0.684335 0.961365
vt 0.526080 0.689083
vt 0.319862 0.993442
vt 0.525606 0.974129
vt 0.683167 0.961326
vt 0.724318 1.092633
vt 0.718402 0.980678
vt 0.510351 0.961365
vt 0.353726 0.980484
vt 0.143671 0.129485
vt 0.143764 0.137905
vt 0.134783 0.137876
vt 0.143058 0.821102
vt 0.142948 0.829483
vt 0.134077 0.821074
vt 0.135398 0.952010
vt 0.126510 0.951922
vt 0.135288 0.960429
vt 0.134675 0.953607
vt 0.134582 0.961987
vt 0.125805 0.953480
vt 0.865857 0.277609
vt 0.874728 0.277736
vt 0.865951 0.269229
vt 0.865134 0.279206
vt 0.865245 0.270787
vt 0.874022 0.279294
vt 0.857585 0.128645
vt 0.857475 0.137026
vt 0.866456 0.137054
vt 0.856862 0.828643
vt 0.865750 0.820252
vt 0.856769 0.820224
vt 0.143671 0.268862
vt 0.142948 0.270459
vt 0.134077 0.270332
vt 0.135288 0.136300
vt 0.125805 0.819508
vt 0.134582 0.819498
vt 0.857585 0.960757
vt 0.857475 0.969176
vt 0.134675 0.827917
vt 0.856862 0.962354
vt 0.865750 0.962442
vt 0.865951 0.138631
vt 0.874022 0.821818
vt 0.865245 0.821828
vt 0.865857 0.130211
vt 0.270332 0.821074
vt 0.951922 0.136310
vt 0.268774 0.137876
vt 0.962442 0.820252
vt 0.277736 0.138620
vt 0.960884 0.137054
vt 0.177481 0.118041
vt 0.177502 0.112741
vt 0.169600 0.116322
vt 0.180639 0.249557
vt 0.180695 0.254662
vt 0.172737 0.251585
vt 0.178890 0.148209
vt 0.171010 0.151468
vt 0.178946 0.153314
vt 0.182104 0.267648
vt 0.182083 0.272948
vt 0.174146 0.269347
vt 0.821598 0.118910
vt 0.829556 0.117212
vt 0.821620 0.113610
vt 0.824812 0.247291
vt 0.824756 0.242185
vt 0.832693 0.244032
vt 0.823008 0.140837
vt 0.823063 0.145943
vt 0.830966 0.143915
vt 0.826221 0.268517
vt 0.834102 0.270237
vt 0.826200 0.273817
vt 0.171010 0.408370
vt 0.178890 0.410090
vt 0.169600 -0.006087
vt 0.177502 -0.008114
vt 0.180695 -0.024401
vt 0.172737 -0.022702
vt 0.182083 0.410985
vt 0.174146 0.409139
vt 0.826200 0.403614
vt 0.834102 0.401586
vt 0.830966 0.409260
vt 0.824812 -0.023532
vt 0.821620 -0.015486
vt 0.823008 0.410959
vt -0.022702 0.251585
vt 0.408370 0.151468
vt 0.116322 -0.006087
vt 0.409260 0.143915
vt -0.021812 0.244032
vt 0.117212 -0.013639
vt 0.215823 -0.018570
vt 0.215828 -0.021032
vt 0.208871 -0.018930
vt 0.216428 -0.047999
vt 0.216437 -0.046200
vt 0.209470 -0.045897
vt 0.215962 0.154700
vt 0.209010 0.154340
vt 0.215971 0.156499
vt 0.216577 0.127071
vt 0.216571 0.129532
vt 0.209610 0.127374
vt 0.781873 -0.016261
vt 0.788840 -0.016564
vt 0.781879 -0.018723
vt 0.782487 -0.043890
vt 0.782478 -0.045689
vt 0.789439 -0.043530
vt 0.782013 0.157009
vt 0.782022 0.158808
vt 0.788980 0.156706
vt 0.782627 0.129380
vt 0.789579 0.129740
vt 0.782621 0.131842
vt 0.215828 0.007528
vt 0.209470 0.060677
vt 0.208871 0.008698
vt 0.215971 0.099630
vt 0.209610 0.150568
vt 0.216571 0.151608
vt 0.789579 0.145106
vt 0.782022 0.094299
vt 0.782621 0.146277
vt 0.781879 0.002197
vt 0.789439 0.055215
vt 0.782478 0.054175
vt -0.045897 0.060677
vt 0.154340 0.098590
vt -0.018930 0.008698
vt 0.216428 0.059506
vt 0.129740 0.145106
vt -0.016564 0.003237
vt 0.156706 0.093128
vt 0.447994 0.229169
vt 0.448020 0.224490
vt 0.447333 0.229166
vt 0.447952 0.224720
vt 0.447925 0.229401
vt 0.447265 0.229396
vt 0.443556 0.999773
vt 0.442896 0.999770
vt 0.443529 1.004454
vt 0.443488 1.000005
vt 0.443461 1.004684
vt 0.442828 1.000000
vt 0.556672 0.229796
vt 0.557331 0.229802
vt 0.556698 0.225118
vt 0.556603 0.230029
vt 0.556630 0.225348
vt 0.557263 0.230032
vt 0.552234 1.000400
vt 0.552207 1.005081
vt 0.552894 1.000405
vt 0.552166 1.000633
vt 0.552826 1.000635
vt 0.552139 1.005311
vt 0.224720 0.316283
vt 0.229166 0.286606
vt 0.224490 0.286644
vt 1.004684 0.310220
vt 0.999770 0.280616
vt 1.000000 0.310255
vt 1.000635 0.310502
vt 1.005081 0.280825
vt 1.005311 0.310464
vt 0.225118 0.286888
vt 0.230032 0.316492
vt 0.225348 0.316526
vt 0.229396 0.316245
vt 0.556698 0.286888
vt 0.447952 0.316283
vt 0.448020 0.286644
vt 0.443461 0.310220
vt 0.552207 0.280825
vt 0.443529 0.280581
vt 0.229802 0.286853
vt 1.000405 0.280863
vt 0.449067 0.229483
vt 0.449090 0.224802
vt 0.448407 0.229479
vt 0.449182 0.224721
vt 0.449160 0.229400
vt 0.448499 0.229398
vt 0.445260 1.000110
vt 0.444601 1.000107
vt 0.445238 1.004790
vt 0.445353 1.000028
vt 0.445329 1.004708
vt 0.444693 1.000025
vt 0.557745 0.230021
vt 0.558405 0.230023
vt 0.557768 0.225340
vt 0.557838 0.229938
vt 0.557860 0.225259
vt 0.558497 0.229942
vt 0.553938 1.000648
vt 0.553916 1.005327
vt 0.554599 1.000651
vt 0.554031 1.000566
vt 0.554691 1.000569
vt 0.554008 1.005246
vt 0.224802 0.622648
vt 0.229398 0.652303
vt 0.229479 0.622663
vt 1.004790 0.624806
vt 1.000025 0.654435
vt 1.004708 0.654446
vt 1.000569 0.654096
vt 1.005327 0.624471
vt 1.005246 0.654111
vt 0.225340 0.622313
vt 0.229942 0.651964
vt 0.225259 0.651953
vt 1.000107 0.624795
vt 0.557860 0.651953
vt 0.449090 0.622648
vt 0.557768 0.622313
vt 0.445329 0.654446
vt 0.553916 0.624471
vt 0.445238 0.624806
vt 1.000651 0.624456
vt 0.230023 0.622324
vt 0.363932 -0.142220
vt 0.356482 -0.138883
vt 0.363929 -0.138882
vt 0.355661 0.134376
vt 0.363091 0.137758
vt 0.363108 0.134377
vt 0.969044 -0.140373
vt 0.969041 -0.137035
vt 0.976474 -0.136991
vt 0.968203 0.139605
vt 0.975653 0.136268
vt 0.968220 0.136224
vt 0.363341 -0.140451
vt 0.363324 -0.137070
vt 0.355891 -0.137114
vt 0.362500 0.139527
vt 0.355070 0.136145
vt 0.362503 0.136189
vt 0.968453 -0.138605
vt 0.975883 -0.135222
vt 0.968436 -0.135223
vt 0.967612 0.141374
vt 0.967615 0.138036
vt 0.975062 0.138037
vt 0.089137 0.969044
vt 0.235515 0.975883
vt 0.235526 0.968453
vt 0.232140 0.967612
vt 0.085822 0.975653
vt 0.085752 0.968203
vt 0.233106 0.363341
vt 0.086648 0.356482
vt 0.086718 0.363932
vt 0.229720 0.362500
vt 0.083343 0.355661
vt 0.229731 0.355070
vt 0.233036 -0.137114
vt 0.083343 0.134376
vt 0.086648 -0.138883
vt 0.083332 0.363091
vt 0.085822 0.136268
vt 0.235515 -0.135222
vt 0.089127 -0.136991
vt 0.361783 -0.142280
vt 0.354364 -0.138873
vt 0.361800 -0.138932
vt 0.356076 0.134395
vt 0.363537 0.137708
vt 0.363512 0.134336
vt 0.966890 -0.146080
vt 0.966907 -0.142733
vt 0.974350 -0.142767
vt 0.968644 0.133908
vt 0.976063 0.130501
vt 0.968619 0.130535
vt 0.362082 -0.141261
vt 0.362107 -0.137889
vt 0.354664 -0.137854
vt 0.363837 0.138727
vt 0.356376 0.135414
vt 0.363820 0.135379
vt 0.967189 -0.145061
vt 0.974650 -0.141748
vt 0.967214 -0.141689
vt 0.968944 0.134926
vt 0.968926 0.131579
vt 0.976362 0.131520
vt 0.914607 0.967189
vt 0.768173 0.974350
vt 0.914569 0.974650
vt 0.912655 0.968944
vt 0.766268 0.976063
vt 0.766259 0.968644
vt 0.915819 0.362082
vt 0.769415 0.354364
vt 0.769423 0.361783
vt 0.767471 0.363537
vt 0.913906 0.356376
vt 0.913867 0.363837
vt 0.768211 0.966890
vt 0.913906 0.135414
vt 0.769415 -0.138873
vt 0.915811 -0.137854
vt 0.766268 0.130501
vt 0.914569 -0.141748
vt 0.768173 -0.142767
vt 0.054089 0.192749
vt 0.054131 0.182435
vt 0.043035 0.192692
vt 0.052859 0.182931
vt 0.052786 0.193257
vt 0.041762 0.193188
vt 0.049385 1.032084
vt 0.038330 1.032028
vt 0.049312 1.042410
vt 0.048081 1.032593
vt 0.048039 1.042906
vt 0.037058 1.032524
vt 0.951919 0.197841
vt 0.962942 0.197910
vt 0.951961 0.187527
vt 0.950615 0.198349
vt 0.950688 0.188024
vt 0.961670 0.198406
vt 0.947214 1.037177
vt 0.947141 1.047502
vt 0.958238 1.037245
vt 0.945911 1.037685
vt 0.956965 1.037742
vt 0.945869 1.047999
vt 0.054131 -0.145648
vt 0.041762 -0.048255
vt 0.043035 -0.145845
vt 0.048039 -0.052493
vt 0.038330 -0.150174
vt 0.037058 -0.052584
vt 0.958238 -0.138207
vt 0.945869 -0.040814
vt 0.956965 -0.040617
vt 0.951961 -0.133969
vt 0.961670 -0.036288
vt 0.950688 -0.036378
vt 0.192692 -0.145845
vt 1.032524 -0.052584
vt 1.032028 -0.150174
vt 0.947141 -0.138404
vt 0.049312 -0.150084
vt 1.037245 -0.138207
vt 0.198406 -0.036288
vt 0.197910 -0.133878
vt 0.129822 0.351748
vt 0.873416 0.354178
vt 0.870197 0.267399
vt 0.351748 1.139427
vt 0.267399 1.146204
vt 0.129413 0.957307
vt 0.957307 1.145779
vt 0.879782 1.142054
vt 0.133051 0.872355
vt 0.225888 0.873549
vt 0.215545 0.357696
vt 0.132722 0.354491
vt 0.132722 1.145124
vt 0.225888 1.141324
vt 0.869373 0.354516
vt 0.780723 0.361654
vt 0.868597 1.142267
vt 0.866533 1.140700
vt 0.132793 0.810715
vt 0.872696 0.731992
vt 0.951907 0.805791
vt 0.959017 0.805146
vt 0.402944 0.534977
vt 0.567834 0.614586
vt 0.668636 0.435270
vt 0.504657 0.353673
vt 0.428776 1.102635
vt 0.688208 1.034807
vt 0.469362 0.943058
vt 0.736852 1.029266
vt 0.484617 0.620634
vt 0.632743 0.929271
vt 0.484014 1.042660
vt 0.773783 1.067810
vt 0.476011 0.931216
vt 0.756532 1.025305
vt 0.566316 1.035215
vt 0.354926 0.904665
vt 0.745329 0.899878
vt 0.484019 1.027462
vt 0.230324 1.102029
vt 0.888283 1.073195
vt 0.528163 1.100865
vt 0.622117 0.974525
vt 0.374515 1.122002
vt 0.576329 1.086440
vt 0.345619 1.049474
vt 0.388029 0.911049
vt 0.346454 1.080511
vt 0.538128 1.060692
vt 0.407212 1.052688
vt 0.234786 0.596688
vt 0.476879 0.681593
vt 0.678913 0.920389
vt 0.527824 1.052425
vt 0.751783 1.062927
vt 0.476879 1.035951
vt 0.492623 1.086084
vt 0.319114 0.560841
vt 0.525332 0.690251
vt 0.334843 1.105397
vt 0.531522 1.086084
vt 0.525332 1.073320
vt 0.134783 0.268774
vt 0.126510 0.136310
vt 0.866456 0.960884
vt 0.874728 0.138620
vt 0.143058 0.262040
vt 0.953480 0.819508
vt 0.279294 0.821818
vt 0.832693 -0.021812
vt 0.829556 -0.013639
vt 0.269347 0.409139
vt 0.270237 0.401586
vt 0.209010 0.098590
vt 0.788980 0.093128
vt 0.788840 0.003237
vt 0.127374 0.150568
vt -0.043530 0.055215
vt 1.004454 0.280581
vt 0.556630 0.316526
vt 0.552139 0.310464
vt 0.224721 0.652288
vt 0.449182 0.652288
vt 0.554008 0.654111
vt 0.089127 0.976474
vt 0.232210 0.975062
vt 0.233036 0.355891
vt 0.229731 0.136145
vt 0.232210 0.138037
vt 0.912664 0.976362
vt 0.915811 0.354664
vt 0.767509 0.356076
vt 0.767509 0.134395
vt 0.912664 0.131520
vt 0.052859 -0.048058
vt 0.962942 -0.133878
vt 0.193188 -0.048255
vt 1.037742 -0.040617
s 0
usemtl wood
f 1/1/1 2/2/1 3/3/1
f 4/4/2 5/5/2 6/6/2
f 7/7/3 8/8/3 9/9/3
f 10/10/4 11/11/4 12/12/4
f 13/13/5 14/14/5 15/15/5
f 16/16/6 17/17/6 18/18/6
f 19/19/7 20/20/7 21/21/7
f 22/22/8 23/23/8 24/24/8
f 7/25/9 3/26/9 8/27/9
f 4/4/10 3/3/10 2/2/10
f 10/28/11 6/29/11 5/30/11
f 9/9/12 12/12/12 11/11/12
f 19/19/13 9/9/13 20/20/13
f 22/22/14 11/11/14 10/10/14
f 21/21/15 24/24/15 23/23/15
f 19/31/16 14/32/16 13/33/16
f 16/34/17 23/35/17 22/36/17
f 15/15/18 18/18/18 17/17/18
f 13/13/19 2/2/19 1/1/19
f 5/5/20 17/17/20 16/16/20
f 19/31/21 1/37/21 7/25/21
f 6/38/22 8/39/22 3/40/22
f 15/15/23 4/4/23 2/2/23
f 22/36/24 5/30/24 16/34/24
f 11/11/25 20/20/25 9/9/25
f 23/41/26 14/42/26 21/43/26
f 25/44/27 26/45/27 27/46/27
f 28/47/28 29/48/28 30/49/28
f 31/50/29 32/51/29 33/52/29
f 34/53/30 35/54/30 36/55/30
f 37/56/31 38/57/31 39/58/31
f 40/59/32 41/60/32 42/61/32
f 43/62/33 44/63/33 45/64/33
f 46/65/34 47/66/34 48/67/34
f 31/68/35 27/69/35 32/70/35
f 28/47/36 27/46/36 26/45/36
f 34/71/37 30/72/37 29/73/37
f 33/52/38 36/55/38 35/54/38
f 31/50/39 44/63/39 43/62/39
f 46/65/40 35/54/40 34/53/40
f 45/64/41 48/67/41 47/66/41
f 37/74/42 45/75/42 38/76/42
f 46/77/43 42/78/43 47/79/43
f 39/58/44 42/61/44 41/60/44
f 37/56/45 26/45/45 25/44/45
f 29/48/46 41/60/46 40/59/46
f 43/80/47 25/81/47 31/68/47
f 30/82/48 32/83/48 27/84/48
f 41/60/49 26/45/49 39/58/49
f 34/71/50 40/85/50 46/77/50
f 35/54/51 44/63/51 33/52/51
f 47/86/52 38/87/52 45/88/52
f 49/89/53 50/90/53 51/91/53
f 52/92/54 53/93/54 54/94/54
f 55/95/55 56/96/55 57/97/55
f 58/98/56 59/99/56 60/100/56
f 61/101/57 62/102/57 63/103/57
f 64/104/58 65/105/58 66/106/58
f 67/107/59 68/108/59 69/109/59
f 70/110/60 71/111/60 72/112/60
f 49/89/61 56/96/61 55/95/61
f 52/92/62 51/91/62 50/90/62
f 58/98/63 54/94/63 53/93/63
f 59/99/64 56/96/64 60/100/64
f 55/113/65 68/114/65 67/115/65
f 70/116/66 59/117/66 58/118/66
f 71/111/67 68/108/67 72/112/67
f 67/107/68 62/102/68 61/101/68
f 64/104/69 71/111/69 70/110/69
f 63/103/70 66/106/70 65/105/70
f 49/119/71 63/120/71 50/121/71
f 53/122/72 65/123/72 64/124/72
f 67/115/73 49/119/73 55/113/73
f 51/91/74 60/100/74 56/96/74
f 65/125/75 50/126/75 63/127/75
f 58/118/76 64/124/76 70/116/76
f 59/128/77 68/129/77 57/130/77
f 71/111/78 62/102/78 69/109/78
f 73/131/79 74/132/79 75/133/79
f 76/134/80 77/135/80 78/136/80
f 79/137/81 80/138/81 81/139/81
f 82/140/82 83/141/82 84/142/82
f 85/143/83 86/144/83 87/145/83
f 88/146/84 89/147/84 90/148/84
f 91/149/85 92/150/85 93/151/85
f 94/152/86 95/153/86 96/154/86
f 79/137/87 75/133/87 80/138/87
f 76/134/88 75/133/88 74/132/88
f 82/140/89 78/136/89 77/135/89
f 83/141/90 80/138/90 84/142/90
f 91/155/91 81/156/91 92/157/91
f 82/158/92 96/159/92 83/160/92
f 93/151/93 96/154/93 95/153/93
f 91/149/94 86/144/94 85/143/94
f 88/146/95 95/153/95 94/152/95
f 87/145/96 90/148/96 89/147/96
f 85/161/97 74/162/97 73/163/97
f 88/164/98 76/165/98 89/166/98
f 91/155/99 73/163/99 79/167/99
f 78/136/100 80/138/100 75/133/100
f 87/168/101 76/169/101 74/170/101
f 82/158/102 88/164/102 94/171/102
f 83/172/103 92/173/103 81/174/103
f 95/153/104 86/144/104 93/151/104
f 97/175/105 98/176/105 99/177/105
f 100/178/106 101/179/106 102/180/106
f 103/181/107 104/182/107 105/183/107
f 106/184/108 107/185/108 108/186/108
f 109/187/109 110/188/109 111/189/109
f 112/190/110 113/191/110 114/192/110
f 115/193/111 116/194/111 117/195/111
f 118/196/112 119/197/112 120/198/112
f 97/175/113 104/182/113 103/181/113
f 100/199/114 99/200/114 98/201/114
f 106/184/115 102/180/115 101/179/115
f 107/202/116 104/203/116 108/204/116
f 115/193/117 105/183/117 116/194/117
f 118/196/118 107/185/118 106/184/118
f 117/205/119 120/206/119 119/207/119
f 109/187/120 117/195/120 110/188/120
f 112/190/121 119/197/121 118/196/121
f 111/208/122 114/209/122 113/210/122
f 109/187/123 98/176/123 97/175/123
f 112/190/124 100/178/124 113/191/124
f 115/193/125 97/175/125 103/181/125
f 102/211/126 104/212/126 99/213/126
f 111/208/127 100/199/127 98/201/127
f 106/184/128 112/190/128 118/196/128
f 107/202/129 116/214/129 105/215/129
f 117/216/130 114/217/130 110/218/130
f 337/636/365 338/637/365 339/638/365
f 340/639/366 341/640/366 342/641/366
f 343/642/367 344/643/367 345/644/367
f 346/645/368 347/646/368 348/647/368
f 349/648/369 350/649/369 351/650/369
f 352/651/370 353/652/370 354/653/370
f 355/654/371 356/655/371 357/656/371
f 358/657/372 359/658/372 360/659/372
f 337/660/373 344/643/373 343/642/373
f 340/639/374 339/638/374 338/637/374
f 341/661/375 348/647/375 342/662/375
f 345/663/376 348/664/376 347/665/376
f 355/666/377 345/644/377 356/667/377
f 346/668/378 360/659/378 347/665/378
f 357/656/379 360/659/379 359/658/379
f 355/666/380 350/649/380 349/648/380
f 358/669/381 354/653/381 359/670/381
f 351/671/382 354/672/382 353/673/382
f 349/674/383 338/637/383 337/636/383
f 341/661/384 353/652/384 352/651/384
f 355/666/385 337/660/385 343/642/385
f 342/675/386 344/676/386 339/677/386
f 351/671/387 340/639/387 338/637/387
f 346/645/388 352/651/388 358/669/388
f 347/665/389 356/655/389 345/663/389
f 359/678/390 350/679/390 357/680/390
f 361/681/391 362/682/391 363/683/391
f 364/684/392 365/685/392 366/686/392
f 367/687/393 368/688/393 369/689/393
f 370/690/394 371/691/394 372/692/394
f 373/693/395 374/694/395 375/695/395
f 376/696/396 377/697/396 378/698/396
f 379/699/397 380/700/397 381/701/397
f 382/702/398 383/703/398 384/704/398
f 361/681/399 368/705/399 367/706/399
f 364/684/400 363/707/400 362/708/400
f 365/709/401 372/692/401 366/710/401
f 371/711/402 368/688/402 372/712/402
f 367/687/403 380/700/403 379/699/403
f 370/690/404 384/704/404 371/691/404
f 381/701/405 384/713/405 383/714/405
f 373/693/406 381/715/406 374/694/406
f 376/716/407 383/703/407 382/702/407
f 375/717/408 378/698/408 377/697/408
f 361/681/409 375/695/409 362/682/409
f 365/685/410 377/697/410 376/696/410
f 379/718/411 361/681/411 367/706/411
f 366/719/412 368/720/412 363/721/412
f 377/697/413 362/708/413 375/717/413
f 370/690/414 376/716/414 382/702/414
f 369/689/415 384/713/415 380/700/415
f 381/722/416 378/723/416 374/724/416
f 457/858/495 458/859/495 459/860/495
f 460/861/496 461/862/496 462/863/496
f 463/864/497 464/865/497 465/866/497
f 466/867/498 467/868/498 468/869/498
f 469/870/499 470/871/499 471/872/499
f 472/873/500 473/874/500 474/875/500
f 475/876/501 476/877/501 477/878/501
f 478/879/502 479/880/502 480/881/502
f 463/864/503 459/860/503 464/865/503
f 460/861/504 459/860/504 458/859/504
f 466/867/505 462/863/505 461/862/505
f 467/868/506 464/865/506 468/869/506
f 463/882/507 476/883/507 475/884/507
f 478/885/508 467/886/508 466/887/508
f 479/880/509 476/877/509 480/881/509
f 475/876/510 470/871/510 469/870/510
f 478/879/511 474/875/511 479/880/511
f 471/872/512 474/875/512 473/874/512
f 469/888/513 458/889/513 457/890/513
f 472/891/514 460/892/514 473/893/514
f 463/882/515 469/888/515 457/890/515
f 462/863/516 464/865/516 459/860/516
f 471/894/517 460/895/517 458/896/517
f 478/885/518 461/897/518 472/891/518
f 467/898/519 476/899/519 465/900/519
f 479/880/520 470/871/520 477/878/520
f 481/901/521 482/902/521 483/903/521
f 484/904/522 485/905/522 486/906/522
f 487/907/523 488/908/523 489/909/523
f 490/910/524 491/911/524 492/912/524
f 493/913/525 494/914/525 495/915/525
f 496/916/526 497/917/526 498/918/526
f 499/919/527 500/920/527 501/921/527
f 502/922/528 503/923/528 504/924/528
f 487/907/529 483/903/529 488/908/529
f 482/902/530 486/906/530 483/903/530
f 490/910/531 486/906/531 485/905/531
f 491/911/532 488/908/532 492/912/532
f 499/925/533 489/926/533 500/927/533
f 502/928/534 491/929/534 490/930/534
f 501/921/535 504/924/535 503/923/535
f 499/919/536 494/914/536 493/913/536
f 502/922/537 498/918/537 503/923/537
f 497/917/538 494/914/538 498/918/538
f 493/931/539 482/932/539 481/933/539
f 485/934/540 497/935/540 496/936/540
f 499/925/541 481/933/541 487/937/541
f 486/906/542 488/908/542 483/903/542
f 497/938/543 482/939/543 495/940/543
f 490/930/544 496/936/544 502/928/544
f 491/941/545 500/942/545 489/943/545
f 501/921/546 498/918/546 494/914/546
f 7/25/9 1/37/9 3/26/9
f 4/4/10 6/6/10 3/3/10
f 10/28/11 12/988/11 6/29/11
f 9/9/12 8/8/12 12/12/12
f 19/19/13 7/7/13 9/9/13
f 22/22/14 24/24/14 11/11/14
f 21/21/15 20/20/15 24/24/15
f 19/31/16 21/989/16 14/32/16
f 16/34/17 18/990/17 23/35/17
f 15/15/18 14/14/18 18/18/18
f 13/13/19 15/15/19 2/2/19
f 5/5/20 4/4/20 17/17/20
f 19/31/21 13/33/21 1/37/21
f 6/38/22 12/991/22 8/39/22
f 15/15/23 17/17/23 4/4/23
f 22/36/24 10/28/24 5/30/24
f 11/11/25 24/24/25 20/20/25
f 23/41/26 18/992/26 14/42/26
f 31/68/35 25/81/35 27/69/35
f 28/47/36 30/49/36 27/46/36
f 34/71/37 36/993/37 30/72/37
f 33/52/38 32/51/38 36/55/38
f 31/50/39 33/52/39 44/63/39
f 46/65/40 48/67/40 35/54/40
f 45/64/41 44/63/41 48/67/41
f 37/74/42 43/80/42 45/75/42
f 46/77/43 40/85/43 42/78/43
f 39/58/44 38/57/44 42/61/44
f 37/56/45 39/58/45 26/45/45
f 29/48/573 28/47/573 41/60/573
f 43/80/47 37/74/47 25/81/47
f 30/82/48 36/994/48 32/83/48
f 41/60/49 28/47/49 26/45/49
f 34/71/50 29/73/50 40/85/50
f 35/54/51 48/67/51 44/63/51
f 47/86/52 42/995/52 38/87/52
f 49/89/61 51/91/61 56/96/61
f 52/92/62 54/94/62 51/91/62
f 58/98/63 60/100/63 54/94/63
f 59/99/64 57/97/64 56/96/64
f 55/113/65 57/996/65 68/114/65
f 70/116/66 72/997/66 59/117/66
f 71/111/67 69/109/67 68/108/67
f 67/107/68 69/109/68 62/102/68
f 64/104/69 66/106/69 71/111/69
f 63/103/70 62/102/70 66/106/70
f 49/119/71 61/998/71 63/120/71
f 53/122/72 52/999/72 65/123/72
f 67/115/73 61/998/73 49/119/73
f 51/91/74 54/94/74 60/100/74
f 65/125/75 52/1000/75 50/126/75
f 58/118/76 53/122/76 64/124/76
f 59/128/77 72/1001/77 68/129/77
f 71/111/78 66/106/78 62/102/78
f 79/137/87 73/131/87 75/133/87
f 76/134/88 78/136/88 75/133/88
f 82/140/89 84/142/89 78/136/89
f 83/141/90 81/139/90 80/138/90
f 91/155/91 79/167/91 81/156/91
f 82/158/92 94/171/92 96/159/92
f 93/151/574 92/150/574 96/154/574
f 91/149/94 93/151/94 86/144/94
f 88/146/95 90/148/95 95/153/95
f 87/145/96 86/144/96 90/148/96
f 85/161/97 87/1002/97 74/162/97
f 88/164/98 77/1003/98 76/165/98
f 91/155/99 85/161/99 73/163/99
f 78/136/100 84/142/100 80/138/100
f 87/168/101 89/1004/101 76/169/101
f 82/158/102 77/1003/102 88/164/102
f 83/172/103 96/1005/103 92/173/103
f 95/153/104 90/148/104 86/144/104
f 97/175/113 99/177/113 104/182/113
f 100/199/114 102/1006/114 99/200/114
f 106/184/115 108/186/115 102/180/115
f 107/202/116 105/215/116 104/203/116
f 115/193/117 103/181/117 105/183/117
f 118/196/118 120/198/118 107/185/118
f 117/205/119 116/214/119 120/206/119
f 109/187/120 115/193/120 117/195/120
f 112/190/575 114/192/575 119/197/575
f 111/208/122 110/1007/122 114/209/122
f 109/187/123 111/189/123 98/176/123
f 112/190/124 101/179/124 100/178/124
f 115/193/125 109/187/125 97/175/125
f 102/211/126 108/1008/126 104/212/126
f 111/208/127 113/210/127 100/199/127
f 106/184/128 101/179/128 112/190/128
f 107/202/129 120/206/129 116/214/129
f 117/216/130 119/1009/130 114/217/130
f 337/660/373 339/1051/373 344/643/373
f 340/639/639 342/641/639 339/638/639
f 341/661/375 346/645/375 348/647/375
f 345/663/376 344/1052/376 348/664/376
f 355/666/377 343/642/377 345/644/377
f 346/668/378 358/657/378 360/659/378
f 357/656/379 356/655/379 360/659/379
f 355/666/380 357/1053/380 350/649/380
f 358/669/381 352/651/381 354/653/381
f 351/671/382 350/1054/382 354/672/382
f 349/674/383 351/671/383 338/637/383
f 341/661/384 340/1055/384 353/652/384
f 355/666/385 349/648/385 337/660/385
f 342/675/386 348/1056/386 344/676/386
f 351/671/387 353/673/387 340/639/387
f 346/645/388 341/661/388 352/651/388
f 347/665/389 360/659/389 356/655/389
f 359/678/390 354/1057/390 350/679/390
f 361/681/399 363/683/399 368/705/399
f 364/684/400 366/686/400 363/707/400
f 365/709/401 370/690/401 372/692/401
f 371/711/402 369/689/402 368/688/402
f 367/687/640 369/689/640 380/700/640
f 370/690/404 382/702/404 384/704/404
f 381/701/405 380/700/405 384/713/405
f 373/693/406 379/718/406 381/715/406
f 376/716/407 378/1058/407 383/703/407
f 375/717/408 374/1059/408 378/698/408
f 361/681/641 373/693/641 375/695/641
f 365/685/642 364/684/642 377/697/642
f 379/718/411 373/693/411 361/681/411
f 366/719/412 372/1060/412 368/720/412
f 377/697/413 364/684/413 362/708/413
f 370/690/414 365/709/414 376/716/414
f 369/689/415 371/711/415 384/713/415
f 381/722/416 383/1061/416 378/723/416
f 463/864/503 457/858/503 459/860/503
f 460/861/504 462/863/504 459/860/504
f 466/867/505 468/869/505 462/863/505
f 467/868/506 465/866/506 464/865/506
f 463/882/507 465/1073/507 476/883/507
f 478/885/508 480/1074/508 467/886/508
f 479/880/509 477/878/509 476/877/509
f 475/876/510 477/878/510 470/871/510
f 478/879/511 472/873/511 474/875/511
f 471/872/512 470/871/512 474/875/512
f 469/888/654 471/1075/654 458/889/654
f 472/891/514 461/897/514 460/892/514
f 463/882/515 475/884/515 469/888/515
f 462/863/516 468/869/516 464/865/516
f 471/894/517 473/1076/517 460/895/517
f 478/885/518 466/887/518 461/897/518
f 467/898/519 480/1077/519 476/899/519
f 479/880/520 474/875/520 470/871/520
f 487/907/529 481/901/529 483/903/529
f 482/902/530 484/904/530 486/906/530
f 490/910/531 492/912/531 486/906/531
f 491/911/532 489/909/532 488/908/532
f 499/925/533 487/937/533 489/926/533
f 502/928/534 504/1078/534 491/929/534
f 501/921/535 500/920/535 504/924/535
f 499/919/655 501/921/655 494/914/655
f 502/922/537 496/916/537 498/918/537
f 497/917/656 495/915/656 494/914/656
f 493/931/539 495/1079/539 482/932/539
f 485/934/540 484/1080/540 497/935/540
f 499/925/541 493/931/541 481/933/541
f 486/906/542 492/912/542 488/908/542
f 497/938/543 484/1081/543 482/939/543
f 490/930/544 485/934/544 496/936/544
f 491/941/545 504/1082/545 500/942/545
f 501/921/546 503/923/546 498/918/546
usemtl coal
f 121/219/131 122/220/131 123/221/131
f 124/222/132 125/223/132 126/224/132
f 127/225/133 128/226/133 129/227/133
f 130/228/134 131/229/134 132/230/134
f 133/231/135 134/232/135 135/233/135
f 136/234/136 137/235/136 138/236/136
f 139/237/137 140/238/137 141/239/137
f 142/240/138 143/241/138 144/242/138
f 121/219/139 128/243/139 127/244/139
f 124/222/140 123/245/140 122/246/140
f 130/228/141 126/247/141 125/248/141
f 131/249/142 128/226/142 132/250/142
f 127/244/143 140/251/143 139/252/143
f 142/240/144 131/229/144 130/228/144
f 141/239/145 144/253/145 143/254/145
f 139/252/146 134/232/146 133/231/146
f 136/255/147 143/241/147 142/240/147
f 135/256/148 138/236/148 137/235/148
f 133/231/149 122/220/149 121/219/149
f 125/248/150 137/257/150 136/255/150
f 127/244/151 133/231/151 121/219/151
f 126/258/152 128/226/152 123/259/152
f 137/260/153 122/246/153 135/261/153
f 130/228/154 136/255/154 142/240/154
f 129/262/155 144/253/155 140/238/155
f 143/263/156 134/264/156 141/265/156
f 145/266/157 146/267/157 147/268/157
f 148/269/158 149/270/158 150/271/158
f 151/272/159 152/273/159 153/274/159
f 154/275/160 155/276/160 156/277/160
f 157/278/161 158/279/161 159/280/161
f 160/281/162 161/282/162 162/283/162
f 163/284/163 164/285/163 165/286/163
f 166/287/164 167/288/164 168/289/164
f 145/266/165 152/273/165 151/272/165
f 148/290/166 147/291/166 146/292/166
f 154/275/167 150/271/167 149/270/167
f 153/293/168 156/294/168 155/295/168
f 151/272/169 164/285/169 163/284/169
f 166/287/170 155/276/170 154/275/170
f 167/296/171 164/297/171 168/298/171
f 157/278/172 165/286/172 158/279/172
f 166/287/173 162/283/173 167/288/173
f 161/299/174 158/300/174 162/301/174
f 157/278/175 146/267/175 145/266/175
f 149/270/176 161/282/176 160/281/176
f 163/284/177 145/266/177 151/272/177
f 147/291/178 156/302/178 152/303/178
f 159/304/179 148/305/179 146/306/179
f 154/275/180 160/281/180 166/287/180
f 153/293/181 168/307/181 164/308/181
f 167/296/182 158/309/182 165/310/182
f 169/311/183 170/312/183 171/313/183
f 172/314/184 173/315/184 174/316/184
f 175/317/185 176/318/185 177/319/185
f 178/320/186 179/321/186 180/322/186
f 181/323/187 182/324/187 183/325/187
f 184/326/188 185/327/188 186/328/188
f 187/329/189 188/330/189 189/331/189
f 190/332/190 191/333/190 192/334/190
f 169/311/191 176/335/191 175/336/191
f 172/314/192 171/337/192 170/338/192
f 178/320/193 174/339/193 173/340/193
f 177/319/194 180/341/194 179/342/194
f 187/343/195 177/344/195 188/345/195
f 178/320/196 192/334/196 179/321/196
f 189/331/197 192/346/197 191/347/197
f 181/323/198 189/348/198 182/324/198
f 184/349/199 191/333/199 190/332/199
f 185/327/200 182/350/200 186/328/200
f 169/311/201 183/325/201 170/312/201
f 184/349/202 172/351/202 185/352/202
f 175/336/203 181/323/203 169/311/203
f 174/353/204 176/318/204 171/354/204
f 183/355/205 172/314/205 170/338/205
f 178/320/206 184/349/206 190/332/206
f 179/356/207 188/330/207 177/357/207
f 189/358/208 186/328/208 182/350/208
f 193/359/209 194/360/209 195/361/209
f 196/362/210 197/363/210 198/364/210
f 199/365/211 200/366/211 201/367/211
f 202/368/212 203/369/212 204/370/212
f 205/371/213 206/372/213 207/373/213
f 208/374/214 209/375/214 210/376/214
f 211/377/215 212/378/215 213/379/215
f 214/380/216 215/381/216 216/382/216
f 193/359/217 200/383/217 199/384/217
f 196/362/218 195/385/218 194/386/218
f 197/387/219 204/370/219 198/388/219
f 201/367/220 204/389/220 203/390/220
f 211/391/221 201/392/221 212/393/221
f 214/380/222 203/369/222 202/368/222
f 215/394/223 212/378/223 216/395/223
f 205/371/224 213/396/224 206/372/224
f 214/380/225 210/397/225 215/381/225
f 209/375/226 206/398/226 210/376/226
f 193/359/227 207/373/227 194/360/227
f 208/399/228 196/400/228 209/401/228
f 199/384/229 205/371/229 193/359/229
f 198/402/230 200/366/230 195/403/230
f 207/404/231 196/362/231 194/386/231
f 202/368/232 208/399/232 214/380/232
f 201/405/233 216/395/233 212/378/233
f 215/406/234 206/398/234 213/407/234
f 217/408/235 218/409/235 219/410/235
f 220/411/236 221/412/236 222/413/236
f 223/414/237 224/415/237 225/416/237
f 226/417/238 227/418/238 228/419/238
f 229/420/239 230/421/239 231/422/239
f 232/423/240 233/424/240 234/425/240
f 235/426/241 236/427/241 237/428/241
f 238/429/242 239/430/242 240/431/242
f 217/408/243 224/432/243 223/433/243
f 218/434/244 222/413/244 219/435/244
f 226/417/245 222/436/245 221/437/245
f 227/438/246 224/415/246 228/439/246
f 235/440/247 225/441/247 236/442/247
f 226/417/248 240/431/248 227/418/248
f 239/443/249 236/427/249 240/444/249
f 235/440/250 230/421/250 229/420/250
f 238/429/251 234/445/251 239/430/251
f 233/424/252 230/446/252 234/425/252
f 217/408/253 231/422/253 218/409/253
f 232/447/254 220/448/254 233/449/254
f 235/440/255 217/408/255 223/433/255
f 222/450/256 224/415/256 219/451/256
f 231/452/257 220/411/257 218/434/257
f 238/429/258 221/437/258 232/447/258
f 225/453/259 240/444/259 236/427/259
f 237/454/260 234/425/260 230/446/260
f 241/455/261 242/456/261 243/457/261
f 244/458/262 245/459/262 246/460/262
f 247/461/263 248/462/263 249/463/263
f 250/464/264 251/465/264 252/466/264
f 253/467/265 254/468/265 255/469/265
f 256/470/266 257/471/266 258/472/266
f 259/473/267 260/474/267 261/475/267
f 262/476/268 263/477/268 264/478/268
f 247/479/269 243/457/269 248/480/269
f 242/481/270 246/482/270 243/483/270
f 245/459/271 252/466/271 246/460/271
f 249/463/272 252/484/272 251/485/272
f 259/473/273 249/486/273 260/474/273
f 250/464/274 264/478/274 251/465/274
f 263/487/275 260/488/275 264/489/275
f 253/467/276 261/475/276 254/468/276
f 262/476/277 258/490/277 263/477/277
f 255/491/278 258/472/278 257/471/278
f 241/455/279 255/469/279 242/456/279
f 256/492/280 244/458/280 257/493/280
f 259/473/281 241/455/281 247/479/281
f 246/482/282 248/494/282 243/483/282
f 255/491/283 244/495/283 242/496/283
f 262/476/284 245/459/284 256/492/284
f 249/463/285 264/497/285 260/498/285
f 263/487/286 254/499/286 261/500/286
f 265/501/287 266/502/287 267/503/287
f 268/504/288 269/505/288 270/506/288
f 271/507/289 272/508/289 273/509/289
f 274/510/290 275/511/290 276/512/290
f 277/513/291 278/514/291 279/515/291
f 280/516/292 281/517/292 282/518/292
f 283/519/293 284/520/293 285/521/293
f 286/522/294 287/523/294 288/524/294
f 265/501/295 272/525/295 271/526/295
f 268/527/296 267/528/296 266/529/296
f 269/505/297 276/512/297 270/506/297
f 273/530/298 276/531/298 275/532/298
f 283/533/299 273/509/299 284/534/299
f 286/522/300 275/511/300 274/510/300
f 285/535/301 288/536/301 287/537/301
f 283/519/302 278/514/302 277/513/302
f 286/522/303 282/538/303 287/523/303
f 281/539/304 278/540/304 282/541/304
f 265/501/305 279/515/305 266/502/305
f 269/542/306 281/517/306 280/516/306
f 283/519/307 265/501/307 271/526/307
f 270/543/308 272/544/308 267/545/308
f 279/546/309 268/527/309 266/529/309
f 286/522/310 269/505/310 280/547/310
f 273/509/311 288/536/311 284/534/311
f 285/548/312 282/541/312 278/540/312
f 289/549/313 290/550/313 291/551/313
f 292/552/314 293/553/314 294/554/314
f 295/555/315 296/556/315 297/557/315
f 298/558/316 299/559/316 300/560/316
f 301/561/317 302/562/317 303/563/317
f 304/564/318 305/565/318 306/566/318
f 307/567/319 308/568/319 309/569/319
f 310/570/320 311/571/320 312/572/320
f 289/549/321 296/573/321 295/574/321
f 292/575/322 291/576/322 290/577/322
f 298/558/323 294/554/323 293/553/323
f 297/557/324 300/578/324 299/579/324
f 295/574/325 308/568/325 307/567/325
f 310/570/326 299/559/326 298/558/326
f 311/580/327 308/581/327 312/582/327
f 307/567/328 302/562/328 301/561/328
f 304/583/329 311/571/329 310/570/329
f 303/584/330 306/566/330 305/565/330
f 301/561/331 290/550/331 289/549/331
f 304/583/332 292/552/332 305/585/332
f 307/567/333 289/549/333 295/574/333
f 291/576/334 300/586/334 296/587/334
f 305/565/335 290/588/335 303/584/335
f 298/558/336 304/583/336 310/570/336
f 299/579/337 308/589/337 297/557/337
f 311/580/338 302/590/338 309/591/338
f 313/592/339 314/593/339 315/594/339
f 316/595/340 317/596/340 318/597/340
f 319/598/341 320/599/341 321/600/341
f 322/601/342 323/602/342 324/603/342
f 325/604/343 326/605/343 327/606/343
f 328/607/344 329/608/344 330/609/344
f 331/610/345 332/611/345 333/612/345
f 334/613/346 335/614/346 336/615/346
f 313/592/347 320/616/347 319/617/347
f 314/618/348 318/619/348 315/620/348
f 317/596/349 324/603/349 318/597/349
f 321/600/350 324/621/350 323/622/350
f 319/617/351 332/611/351 331/610/351
f 334/613/352 323/602/352 322/601/352
f 335/623/353 332/624/353 336/625/353
f 331/610/354 326/605/354 325/604/354
f 328/626/355 335/614/355 334/613/355
f 329/608/356 326/627/356 330/609/356
f 325/604/357 314/593/357 313/592/357
f 328/626/358 316/595/358 329/628/358
f 319/617/359 325/604/359 313/592/359
f 318/619/360 320/629/360 315/620/360
f 329/608/361 314/630/361 327/631/361
f 322/601/362 328/626/362 334/613/362
f 321/600/363 336/632/363 332/633/363
f 335/623/364 326/634/364 333/635/364
f 121/219/139 123/221/139 128/243/139
f 124/222/140 126/224/140 123/245/140
f 130/228/576 132/230/576 126/247/576
f 131/249/142 129/227/142 128/226/142
f 127/244/577 129/1010/577 140/251/577
f 142/240/578 144/242/578 131/229/578
f 141/239/579 140/238/579 144/253/579
f 139/252/146 141/1011/146 134/232/146
f 136/255/147 138/1012/147 143/241/147
f 135/256/148 134/264/148 138/236/148
f 133/231/580 135/233/580 122/220/580
f 125/248/150 124/1013/150 137/257/150
f 127/244/151 139/252/151 133/231/151
f 126/258/152 132/250/152 128/226/152
f 137/260/153 124/222/153 122/246/153
f 130/228/154 125/248/154 136/255/154
f 129/262/155 131/1014/155 144/253/155
f 143/263/156 138/236/156 134/264/156
f 145/266/581 147/268/581 152/273/581
f 148/290/166 150/1015/166 147/291/166
f 154/275/582 156/277/582 150/271/582
f 153/293/168 152/1016/168 156/294/168
f 151/272/583 153/274/583 164/285/583
f 166/287/584 168/289/584 155/276/584
f 167/296/171 165/310/171 164/297/171
f 157/278/585 163/284/585 165/286/585
f 166/287/586 160/281/586 162/283/586
f 161/299/174 159/304/174 158/300/174
f 157/278/587 159/280/587 146/267/587
f 149/270/588 148/269/588 161/282/588
f 163/284/177 157/278/177 145/266/177
f 147/291/178 150/1015/178 156/302/178
f 159/304/179 161/299/179 148/305/179
f 154/275/180 149/270/180 160/281/180
f 153/293/181 155/295/181 168/307/181
f 167/296/182 162/1017/182 158/309/182
f 169/311/191 171/313/191 176/335/191
f 172/314/589 174/316/589 171/337/589
f 178/320/590 180/322/590 174/339/590
f 177/319/194 176/318/194 180/341/194
f 187/343/591 175/336/591 177/344/591
f 178/320/592 190/332/592 192/334/592
f 189/331/197 188/330/197 192/346/197
f 181/323/593 187/343/593 189/348/593
f 184/349/594 186/1018/594 191/333/594
f 185/327/200 183/1019/200 182/350/200
f 169/311/201 181/323/201 183/325/201
f 184/349/595 173/340/595 172/351/595
f 175/336/203 187/343/203 181/323/203
f 174/353/204 180/341/204 176/318/204
f 183/355/205 185/1020/205 172/314/205
f 178/320/206 173/340/206 184/349/206
f 179/356/207 192/346/207 188/330/207
f 189/358/596 191/1021/596 186/328/596
f 193/359/217 195/361/217 200/383/217
f 196/362/597 198/364/597 195/385/597
f 197/387/598 202/368/598 204/370/598
f 201/367/220 200/366/220 204/389/220
f 211/391/599 199/384/599 201/392/599
f 214/380/600 216/382/600 203/369/600
f 215/394/223 213/379/223 212/378/223
f 205/371/601 211/391/601 213/396/601
f 214/380/602 208/399/602 210/397/602
f 209/375/226 207/1022/226 206/398/226
f 193/359/603 205/371/603 207/373/603
f 208/399/604 197/387/604 196/400/604
f 199/384/229 211/391/229 205/371/229
f 198/402/230 204/389/230 200/366/230
f 207/404/231 209/1023/231 196/362/231
f 202/368/232 197/387/232 208/399/232
f 201/405/233 203/1024/233 216/395/233
f 215/406/234 210/376/234 206/398/234
f 217/408/605 219/410/605 224/432/605
f 218/434/244 220/411/244 222/413/244
f 226/417/245 228/419/245 222/436/245
f 227/438/606 225/416/606 224/415/606
f 235/440/247 223/433/247 225/441/247
f 226/417/607 238/429/607 240/431/607
f 239/443/608 237/428/608 236/427/608
f 235/440/609 237/1025/609 230/421/609
f 238/429/610 232/447/610 234/445/610
f 233/424/252 231/1026/252 230/446/252
f 217/408/253 229/420/253 231/422/253
f 232/447/254 221/437/254 220/448/254
f 235/440/255 229/420/255 217/408/255
f 222/450/256 228/439/256 224/415/256
f 231/452/257 233/1027/257 220/411/257
f 238/429/258 226/417/258 221/437/258
f 225/453/259 227/1028/259 240/444/259
f 237/454/260 239/1029/260 234/425/260
f 247/479/269 241/455/269 243/457/269
f 242/481/270 244/1030/270 246/482/270
f 245/459/611 250/464/611 252/466/611
f 249/463/272 248/462/272 252/484/272
f 259/473/612 247/479/612 249/486/612
f 250/464/613 262/476/613 264/478/613
f 263/487/614 261/500/614 260/488/614
f 253/467/615 259/473/615 261/475/615
f 262/476/616 256/492/616 258/490/616
f 255/491/278 254/1031/278 258/472/278
f 241/455/617 253/467/617 255/469/617
f 256/492/618 245/459/618 244/458/618
f 259/473/281 253/467/281 241/455/281
f 246/482/282 252/1032/282 248/494/282
f 255/491/283 257/471/283 244/495/283
f 262/476/284 250/464/284 245/459/284
f 249/463/285 251/485/285 264/497/285
f 263/487/286 258/1033/286 254/499/286
f 265/501/619 267/503/619 272/525/619
f 268/527/296 270/1034/296 267/528/296
f 269/505/620 274/510/620 276/512/620
f 273/530/298 272/544/298 276/531/298
f 283/533/299 271/507/299 273/509/299
f 286/522/300 288/524/300 275/511/300
f 285/535/621 284/534/621 288/536/621
f 283/519/622 285/521/622 278/514/622
f 286/522/623 280/547/623 282/538/623
f 281/539/304 279/1035/304 278/540/304
f 265/501/624 277/513/624 279/515/624
f 269/542/306 268/527/306 281/517/306
f 283/519/307 277/513/307 265/501/307
f 270/543/308 276/531/308 272/544/308
f 279/546/309 281/517/309 268/527/309
f 286/522/310 274/510/310 269/505/310
f 273/509/311 275/1036/311 288/536/311
f 285/548/312 287/1037/312 282/541/312
f 289/549/625 291/551/625 296/573/625
f 292/575/322 294/1038/322 291/576/322
f 298/558/626 300/560/626 294/554/626
f 297/557/324 296/556/324 300/578/324
f 295/574/627 297/1039/627 308/568/627
f 310/570/326 312/572/326 299/559/326
f 311/580/327 309/591/327 308/581/327
f 307/567/628 309/569/628 302/562/628
f 304/583/329 306/1040/329 311/571/329
f 303/584/330 302/1041/330 306/566/330
f 301/561/629 303/563/629 290/550/629
f 304/583/630 293/553/630 292/552/630
f 307/567/333 301/561/333 289/549/333
f 291/576/334 294/1038/334 300/586/334
f 305/565/335 292/1042/335 290/588/335
f 298/558/336 293/553/336 304/583/336
f 299/579/337 312/1043/337 308/589/337
f 311/580/338 306/1044/338 302/590/338
f 313/592/631 315/594/631 320/616/631
f 314/618/632 316/1045/632 318/619/632
f 317/596/633 322/601/633 324/603/633
f 321/600/350 320/599/350 324/621/350
f 319/617/634 321/1046/634 332/611/634
f 334/613/352 336/615/352 323/602/352
f 335/623/635 333/635/635 332/624/635
f 331/610/354 333/612/354 326/605/354
f 328/626/636 330/1047/636 335/614/636
f 329/608/356 327/631/356 326/627/356
f 325/604/637 327/606/637 314/593/637
f 328/626/638 317/596/638 316/595/638
f 319/617/359 331/610/359 325/604/359
f 318/619/360 324/1048/360 320/629/360
f 329/608/361 316/1049/361 314/630/361
f 322/601/362 317/596/362 328/626/362
f 321/600/363 323/622/363 336/632/363
f 335/623/364 330/1050/364 326/634/364
usemtl iron
f 385/725/417 386/726/417 387/727/417
f 388/728/418 389/729/418 390/730/418
f 391/731/419 392/732/419 393/733/419
f 394/734/420 395/735/420 396/736/420
f 397/737/421 398/738/421 399/739/421
f 400/740/422 401/741/422 402/742/422
f 403/743/423 404/744/423 405/745/423
f 406/746/424 407/747/424 408/748/424
f 385/725/425 392/732/425 391/731/425
f 386/749/426 390/750/426 387/751/426
f 394/734/427 390/730/427 389/729/427
f 393/752/428 396/753/428 395/754/428
f 391/731/429 404/744/429 403/743/429
f 394/734/430 408/748/430 395/735/430
f 407/755/431 404/756/431 408/757/431
f 403/743/432 398/738/432 397/737/432
f 400/740/433 407/747/433 406/746/433
f 399/758/434 402/759/434 401/760/434
f 397/737/435 386/726/435 385/725/435
f 389/729/436 401/741/436 400/740/436
f 403/743/437 385/725/437 391/731/437
f 390/761/438 392/762/438 387/763/438
f 399/758/439 388/764/439 386/749/439
f 394/734/440 400/740/440 406/746/440
f 395/754/441 404/756/441 393/752/441
f 407/765/442 398/766/442 405/767/442
f 409/768/443 410/769/443 411/770/443
f 412/771/444 413/772/444 414/773/444
f 415/774/445 416/775/445 417/776/445
f 418/777/446 419/778/446 420/779/446
f 421/780/447 422/781/447 423/782/447
f 424/783/448 425/784/448 426/785/448
f 427/786/449 428/787/449 429/788/449
f 430/789/450 431/790/450 432/791/450
f 409/768/451 416/775/451 415/774/451
f 412/792/452 411/793/452 410/794/452
f 418/777/453 414/773/453 413/772/453
f 419/795/454 416/796/454 420/797/454
f 415/774/455 428/787/455 427/786/455
f 430/789/456 419/778/456 418/777/456
f 431/798/457 428/799/457 432/800/457
f 421/780/458 429/788/458 422/781/458
f 424/783/459 431/790/459 430/789/459
f 423/801/460 426/802/460 425/803/460
f 421/780/461 410/769/461 409/768/461
f 413/772/462 425/784/462 424/783/462
f 415/774/463 421/780/463 409/768/463
f 414/804/464 416/796/464 411/793/464
f 423/805/465 412/806/465 410/807/465
f 418/777/466 424/783/466 430/789/466
f 419/808/467 428/809/467 417/810/467
f 431/798/468 422/811/468 429/812/468
f 433/813/469 434/814/469 435/815/469
f 436/816/470 437/817/470 438/818/470
f 439/819/471 440/820/471 441/821/471
f 442/822/472 443/823/472 444/824/472
f 445/825/473 446/826/473 447/827/473
f 448/828/474 449/829/474 450/830/474
f 451/831/475 452/832/475 453/833/475
f 454/834/476 455/835/476 456/836/476
f 433/813/477 440/820/477 439/819/477
f 434/837/478 438/838/478 435/839/478
f 437/817/479 444/824/479 438/818/479
f 441/840/480 444/841/480 443/842/480
f 439/819/481 452/832/481 451/831/481
f 454/834/482 443/823/482 442/822/482
f 455/843/483 452/844/483 456/845/483
f 451/831/484 446/826/484 445/825/484
f 454/834/485 450/830/485 455/835/485
f 447/846/486 450/847/486 449/848/486
f 445/825/487 434/814/487 433/813/487
f 448/828/488 436/816/488 449/829/488
f 451/831/489 433/813/489 439/819/489
f 438/838/490 440/849/490 435/839/490
f 449/850/491 434/851/491 447/852/491
f 454/834/492 437/817/492 448/828/492
f 443/853/493 452/854/493 441/855/493
f 453/856/494 450/847/494 446/857/494
f 385/725/425 387/727/425 392/732/425
f 386/749/643 388/764/643 390/750/643
f 394/734/427 396/736/427 390/730/427
f 393/752/428 392/1062/428 396/753/428
f 391/731/644 393/733/644 404/744/644
f 394/734/430 406/746/430 408/748/430
f 407/755/645 405/1063/645 404/756/645
f 403/743/432 405/745/432 398/738/432
f 400/740/433 402/742/433 407/747/433
f 399/758/434 398/1064/434 402/759/434
f 397/737/435 399/739/435 386/726/435
f 389/729/436 388/728/436 401/741/436
f 403/743/437 397/737/437 385/725/437
f 390/761/438 396/1065/438 392/762/438
f 399/758/439 401/760/439 388/764/439
f 394/734/440 389/729/440 400/740/440
f 395/754/441 408/757/441 404/756/441
f 407/765/442 402/1066/442 398/766/442
f 409/768/646 411/770/646 416/775/646
f 412/792/452 414/804/452 411/793/452
f 418/777/647 420/779/647 414/773/647
f 419/795/454 417/1067/454 416/796/454
f 415/774/455 417/776/455 428/787/455
f 430/789/456 432/791/456 419/778/456
f 431/798/457 429/812/457 428/799/457
f 421/780/648 427/786/648 429/788/648
f 424/783/649 426/785/649 431/790/649
f 423/801/460 422/811/460 426/802/460
f 421/780/461 423/782/461 410/769/461
f 413/772/462 412/771/462 425/784/462
f 415/774/463 427/786/463 421/780/463
f 414/804/464 420/797/464 416/796/464
f 423/805/465 425/1068/465 412/806/465
f 418/777/466 413/772/466 424/783/466
f 419/808/467 432/1069/467 428/809/467
f 431/798/468 426/802/468 422/811/468
f 433/813/650 435/815/650 440/820/650
f 434/837/478 436/1070/478 438/838/478
f 437/817/651 442/822/651 444/824/651
f 441/840/480 440/849/480 444/841/480
f 439/819/481 441/821/481 452/832/481
f 454/834/482 456/836/482 443/823/482
f 455/843/483 453/856/483 452/844/483
f 451/831/652 453/833/652 446/826/652
f 454/834/653 448/828/653 450/830/653
f 447/846/486 446/857/486 450/847/486
f 445/825/487 447/827/487 434/814/487
f 448/828/488 437/817/488 436/816/488
f 451/831/489 445/825/489 433/813/489
f 438/838/490 444/841/490 440/849/490
f 449/850/491 436/1071/491 434/851/491
f 454/834/492 442/822/492 437/817/492
f 443/853/493 456/1072/493 452/854/493
f 453/856/494 455/843/494 450/847/494
usemtl stone
f 505/944/547 506/945/547 507/946/547
f 508/947/548 509/948/548 510/949/548
f 511/950/549 512/951/549 513/952/549
f 514/953/550 515/954/550 516/955/550
f 517/956/551 518/957/551 519/958/551
f 520/959/552 521/960/552 522/961/552
f 523/962/553 524/963/553 525/964/553
f 526/965/554 527/966/554 528/967/554
f 505/944/555 512/951/555 511/950/555
f 506/968/556 510/969/556 507/970/556
f 509/948/557 516/955/557 510/949/557
f 515/971/558 512/972/558 516/973/558
f 523/962/559 513/952/559 524/963/559
f 526/965/560 515/954/560 514/953/560
f 525/974/561 528/975/561 527/976/561
f 523/962/562 518/957/562 517/956/562
f 520/959/563 527/966/563 526/965/563
f 519/977/564 522/978/564 521/979/564
f 517/956/565 506/945/565 505/944/565
f 509/948/566 521/960/566 520/959/566
f 523/962/567 505/944/567 511/950/567
f 507/980/568 516/981/568 512/982/568
f 521/979/569 506/968/569 519/977/569
f 526/965/570 509/948/570 520/959/570
f 515/971/571 524/983/571 513/984/571
f 525/985/572 522/986/572 518/987/572
f 505/944/555 507/946/555 512/951/555
f 506/968/556 508/1083/556 510/969/556
f 509/948/557 514/953/557 516/955/557
f 515/971/657 513/984/657 512/972/657
f 523/962/559 511/950/559 513/952/559
f 526/965/560 528/967/560 515/954/560
f 525/974/561 524/983/561 528/975/561
f 523/962/562 525/964/562 518/957/562
f 520/959/563 522/961/563 527/966/563
f 519/977/564 518/1084/564 522/978/564
f 517/956/658 519/958/658 506/945/658
f 509/948/659 508/947/659 521/960/659
f 523/962/567 517/956/567 505/944/567
f 507/980/568 510/1085/568 516/981/568
f 521/979/569 508/1083/569 506/968/569
f 526/965/570 514/953/570 509/948/570
f 515/971/571 528/975/571 524/983/571
f 525/985/572 527/1086/572 522/986/572
