# Blender 4.5.10 LTS
# www.blender.org
mtllib stoker_trough_stone.mtl
o stoker_trough_stone
v 0.680000 0.000000 -0.330000
v 0.680000 0.140000 -0.330000
v 0.680000 0.000000 0.330000
v 0.680000 0.140000 0.330000
v -0.680000 0.000000 -0.330000
v -0.680000 0.140000 -0.330000
v -0.680000 0.000000 0.330000
v -0.680000 0.140000 0.330000
v 0.640000 0.120000 -0.290000
v 0.640000 0.540000 -0.290000
v 0.640000 0.120000 0.290000
v 0.640000 0.540000 0.290000
v -0.640000 0.120000 -0.290000
v -0.640000 0.540000 -0.290000
v -0.640000 0.120000 0.290000
v -0.640000 0.540000 0.290000
v 0.424805 0.500000 0.277164
v 0.339849 0.720000 0.072063
v 0.195195 0.500000 0.277164
v 0.280151 0.720000 0.072063
v 0.032836 0.500000 0.114805
v 0.237937 0.720000 0.029849
v 0.032836 0.500000 -0.114805
v 0.237937 0.720000 -0.029849
v 0.195195 0.500000 -0.277164
v 0.280151 0.720000 -0.072063
v 0.424805 0.500000 -0.277164
v 0.339849 0.720000 -0.072063
v 0.587164 0.500000 -0.114805
v 0.382063 0.720000 -0.029849
v 0.587164 0.500000 0.114805
v 0.382063 0.720000 0.029849
v -0.195195 0.500000 0.277164
v -0.280151 0.720000 0.072063
v -0.424805 0.500000 0.277164
v -0.339849 0.720000 0.072063
v -0.587164 0.500000 0.114805
v -0.382063 0.720000 0.029849
v -0.587164 0.500000 -0.114805
v -0.382063 0.720000 -0.029849
v -0.424805 0.500000 -0.277164
v -0.339849 0.720000 -0.072063
v -0.195195 0.500000 -0.277164
v -0.280151 0.720000 -0.072063
v -0.032836 0.500000 -0.114805
v -0.237937 0.720000 -0.029849
v -0.032836 0.500000 0.114805
v -0.237937 0.720000 0.029849
v 0.045000 0.300000 -0.300000
v 0.045000 0.620000 -0.300000
v 0.045000 0.300000 0.300000
v 0.045000 0.620000 0.300000
v -0.045000 0.300000 -0.300000
v -0.045000 0.620000 -0.300000
v -0.045000 0.300000 0.300000
v -0.045000 0.620000 0.300000
v 0.660000 0.505000 -0.330000
v 0.660000 0.615000 -0.330000
v 0.660000 0.505000 -0.240000
v 0.660000 0.615000 -0.240000
v -0.660000 0.505000 -0.330000
v -0.660000 0.615000 -0.330000
v -0.660000 0.505000 -0.240000
v -0.660000 0.615000 -0.240000
v 0.660000 0.505000 0.240000
v 0.660000 0.615000 0.240000
v 0.660000 0.505000 0.330000
v 0.660000 0.615000 0.330000
v -0.660000 0.505000 0.240000
v -0.660000 0.615000 0.240000
v -0.660000 0.505000 0.330000
v -0.660000 0.615000 0.330000
v 0.660000 0.505000 -0.240000
v 0.660000 0.615000 -0.240000
v 0.660000 0.505000 0.240000
v 0.660000 0.615000 0.240000
v 0.570000 0.505000 -0.240000
v 0.570000 0.615000 -0.240000
v 0.570000 0.505000 0.240000
v 0.570000 0.615000 0.240000
v -0.570000 0.505000 -0.240000
v -0.570000 0.615000 -0.240000
v -0.570000 0.505000 0.240000
v -0.570000 0.615000 0.240000
v -0.660000 0.505000 -0.240000
v -0.660000 0.615000 -0.240000
v -0.660000 0.505000 0.240000
v -0.660000 0.615000 0.240000
vn 1.0000 -0.0000 -0.0000
vn -0.0000 -0.0000 1.0000
vn -1.0000 -0.0000 -0.0000
vn -0.0000 -0.0000 -1.0000
vn -0.0000 -1.0000 -0.0000
vn -0.0000 1.0000 -0.0000
vn -0.0000 0.6819 0.7314
vn -0.5172 0.6819 0.5172
vn -0.7314 0.6819 -0.0000
vn -0.5172 0.6819 -0.5172
vn -0.0000 0.6819 -0.7314
vn 0.5172 0.6819 -0.5172
vn 0.7314 0.6819 -0.0000
vn 0.5172 0.6819 0.5172
vt 0.000000 0.194444
vt 1.000000 0.000000
vt 0.000000 0.000000
vt 1.000000 0.194444
vt 1.000000 0.597222
vt 0.000000 0.402778
vt 0.000000 0.597222
vt 1.000000 0.402778
vt 0.060606 0.750000
vt 0.939394 0.166667
vt 0.060606 0.166667
vt 0.029412 0.750000
vt 0.970588 0.166667
vt 0.029412 0.166667
vt 0.939394 0.750000
vt 0.970588 0.750000
vt 0.970588 0.585438
vt 0.029412 0.414562
vt 0.029412 0.585438
vt 0.970588 0.414562
vt 0.250111 1.000000
vt 0.356474 0.694444
vt 0.187643 0.694444
vt 0.609186 1.000000
vt 0.673947 0.694444
vt 0.919945 0.694444
vt 0.545226 1.000000
vt 0.326053 0.694444
vt 0.390814 1.000000
vt 0.080055 0.694444
vt 0.294007 1.000000
vt 0.187643 0.694444
vt 0.326053 0.694444
vt 0.080055 0.694444
vt 0.325046 0.491206
vt 0.325046 0.508794
vt 0.219072 0.491206
vt 0.454774 1.000000
vt 0.673947 0.694444
vt 0.068262 0.466177
vt 0.068262 0.533823
vt 0.475856 0.466177
vt 0.705993 1.000000
vt 0.812357 0.694444
vt 0.643526 0.694444
vt 0.749889 1.000000
vt 0.812357 0.694444
vt 0.780928 0.491206
vt 0.780928 0.508794
vt 0.674954 0.491206
vt 0.524144 0.466177
vt 0.524144 0.533823
vt 0.931738 0.466177
vt 0.045455 0.861111
vt 0.954545 0.416667
vt 0.045455 0.416667
vt 0.466912 0.861111
vt 0.533088 0.416667
vt 0.466912 0.416667
vt 0.954545 0.861111
vt 0.533088 0.861111
vt 0.533088 0.588384
vt 0.466912 0.411616
vt 0.466912 0.588384
vt 0.533088 0.411616
vt 0.000000 0.854167
vt 0.136364 0.701389
vt 0.000000 0.701389
vt 0.014706 0.854167
vt 0.985294 0.701389
vt 0.014706 0.701389
vt 0.136364 0.854167
vt 0.985294 0.854167
vt 0.985294 0.429293
vt 0.014706 0.402778
vt 0.014706 0.429293
vt 0.985294 0.402778
vt 0.863636 0.854167
vt 1.000000 0.701389
vt 0.863636 0.701389
vt 1.000000 0.854167
vt 0.985294 0.597222
vt 0.014706 0.570707
vt 0.014706 0.597222
vt 0.985294 0.570707
vt 0.014706 0.854167
vt 0.080882 0.701389
vt 0.014706 0.701389
vt 0.080882 0.854167
vt 0.080882 0.570707
vt 0.014706 0.429293
vt 0.014706 0.570707
vt 0.080882 0.429293
vt 0.919118 0.854167
vt 0.919118 0.701389
vt 0.919118 0.429293
vt 0.919118 0.570707
vt 0.294007 0.521231
vt 0.250111 0.521231
vt 0.219072 0.508794
vt 0.250111 0.478769
vt 0.294007 0.478769
vt 0.187643 0.581656
vt 0.356474 0.581656
vt 0.475856 0.533823
vt 0.356474 0.418344
vt 0.187643 0.418344
vt 0.749889 0.521231
vt 0.705993 0.521231
vt 0.674954 0.508794
vt 0.705993 0.478769
vt 0.749889 0.478769
vt 0.643526 0.581656
vt 0.812357 0.581656
vt 0.931738 0.533823
vt 0.812357 0.418344
vt 0.643526 0.418344
s 0
usemtl stone
f 2/1/1 3/2/1 1/3/1
f 4/1/2 7/2/2 3/3/2
f 8/4/3 5/3/3 7/2/3
f 6/4/4 1/3/4 5/2/4
f 7/5/5 1/6/5 3/7/5
f 4/7/6 6/8/6 8/5/6
f 10/9/1 11/10/1 9/11/1
f 12/12/2 15/13/2 11/14/2
f 16/15/3 13/11/3 15/10/3
f 14/16/4 9/14/4 13/13/4
f 15/17/5 9/18/5 11/19/5
f 12/19/6 14/20/6 16/17/6
f 2/1/1 4/4/1 3/2/1
f 4/1/2 8/4/2 7/2/2
f 8/4/3 6/1/3 5/3/3
f 6/4/4 2/1/4 1/3/4
f 7/5/5 5/8/5 1/6/5
f 4/7/6 2/6/6 6/8/6
f 10/9/1 12/15/1 11/10/1
f 12/12/2 16/16/2 15/13/2
f 16/15/3 14/9/3 13/11/3
f 14/16/4 10/12/4 9/14/4
f 15/17/5 13/20/5 9/18/5
f 12/19/6 10/18/6 14/20/6
usemtl coal
f 18/21/7 19/22/7 17/23/7
f 20/24/8 21/25/8 19/26/8
f 22/27/9 23/28/9 21/25/9
f 23/28/10 26/29/10 25/30/10
f 26/31/11 27/32/11 25/22/11
f 28/29/12 29/33/12 27/34/12
f 24/35/6 22/36/6 30/37/6
f 30/38/13 31/39/13 29/33/13
f 31/39/14 18/24/14 17/26/14
f 29/40/5 31/41/5 23/42/5
f 18/21/7 20/31/7 19/22/7
f 20/24/8 22/27/8 21/25/8
f 22/27/9 24/38/9 23/28/9
f 23/28/10 24/38/10 26/29/10
f 26/31/11 28/21/11 27/32/11
f 28/29/12 30/38/12 29/33/12
f 22/36/6 20/98/6 18/99/6
f 18/99/6 32/100/6 22/36/6
f 32/100/6 30/37/6 22/36/6
f 30/37/6 28/101/6 26/102/6
f 26/102/6 24/35/6 30/37/6
f 30/38/13 32/27/13 31/39/13
f 31/39/14 32/27/14 18/24/14
f 31/41/5 17/103/5 19/104/5
f 19/104/5 21/105/5 31/41/5
f 21/105/5 23/42/5 31/41/5
f 23/42/5 25/106/5 27/107/5
f 27/107/5 29/40/5 23/42/5
usemtl ore
f 34/43/7 35/44/7 33/45/7
f 36/24/8 37/25/8 35/26/8
f 38/27/9 39/28/9 37/25/9
f 39/28/10 42/29/10 41/30/10
f 42/46/11 43/45/11 41/47/11
f 44/29/12 45/33/12 43/34/12
f 40/48/6 38/49/6 46/50/6
f 46/38/13 47/39/13 45/33/13
f 47/39/14 34/24/14 33/26/14
f 45/51/5 47/52/5 39/53/5
f 34/43/7 36/46/7 35/44/7
f 36/24/8 38/27/8 37/25/8
f 38/27/9 40/38/9 39/28/9
f 39/28/10 40/38/10 42/29/10
f 42/46/11 44/43/11 43/45/11
f 44/29/12 46/38/12 45/33/12
f 38/49/6 36/108/6 34/109/6
f 34/109/6 48/110/6 38/49/6
f 48/110/6 46/50/6 38/49/6
f 46/50/6 44/111/6 42/112/6
f 42/112/6 40/48/6 46/50/6
f 46/38/13 48/27/13 47/39/13
f 47/39/14 48/27/14 34/24/14
f 47/52/5 33/113/5 35/114/5
f 35/114/5 37/115/5 47/52/5
f 37/115/5 39/53/5 47/52/5
f 39/53/5 41/116/5 43/117/5
f 43/117/5 45/51/5 39/53/5
usemtl iron
f 50/54/1 51/55/1 49/56/1
f 52/57/2 55/58/2 51/59/2
f 56/60/3 53/56/3 55/55/3
f 54/61/4 49/59/4 53/58/4
f 55/62/5 49/63/5 51/64/5
f 52/64/6 54/65/6 56/62/6
f 58/66/1 59/67/1 57/68/1
f 60/69/2 63/70/2 59/71/2
f 64/72/3 61/68/3 63/67/3
f 62/73/4 57/71/4 61/70/4
f 63/74/5 57/75/5 59/76/5
f 60/76/6 62/77/6 64/74/6
f 66/78/1 67/79/1 65/80/1
f 68/69/2 71/70/2 67/71/2
f 72/81/3 69/80/3 71/79/3
f 70/73/4 65/71/4 69/70/4
f 71/82/5 65/83/5 67/84/5
f 68/84/6 70/85/6 72/82/6
f 74/72/1 75/80/1 73/67/1
f 76/86/2 79/87/2 75/88/2
f 80/78/3 77/67/3 79/80/3
f 78/89/4 73/88/4 77/87/4
f 79/90/5 73/91/5 75/92/5
f 76/92/6 78/93/6 80/90/6
f 82/72/1 83/80/1 81/67/1
f 84/94/2 87/70/2 83/95/2
f 88/78/3 85/67/3 87/80/3
f 86/73/4 81/95/4 85/70/4
f 87/85/5 81/96/5 83/97/5
f 84/97/6 86/74/6 88/85/6
f 50/54/1 52/60/1 51/55/1
f 52/57/2 56/61/2 55/58/2
f 56/60/3 54/54/3 53/56/3
f 54/61/4 50/57/4 49/59/4
f 55/62/5 53/65/5 49/63/5
f 52/64/6 50/63/6 54/65/6
f 58/66/1 60/72/1 59/67/1
f 60/69/2 64/73/2 63/70/2
f 64/72/3 62/66/3 61/68/3
f 62/73/4 58/69/4 57/71/4
f 63/74/5 61/77/5 57/75/5
f 60/76/6 58/75/6 62/77/6
f 66/78/1 68/81/1 67/79/1
f 68/69/2 72/73/2 71/70/2
f 72/81/3 70/78/3 69/80/3
f 70/73/4 66/69/4 65/71/4
f 71/82/5 69/85/5 65/83/5
f 68/84/6 66/83/6 70/85/6
f 74/72/1 76/78/1 75/80/1
f 76/86/2 80/89/2 79/87/2
f 80/78/3 78/72/3 77/67/3
f 78/89/4 74/86/4 73/88/4
f 79/90/5 77/93/5 73/91/5
f 76/92/6 74/91/6 78/93/6
f 82/72/1 84/78/1 83/80/1
f 84/94/2 88/73/2 87/70/2
f 88/78/3 86/72/3 85/67/3
f 86/73/4 82/94/4 81/95/4
f 87/85/5 85/74/5 81/96/5
f 84/97/6 82/96/6 86/74/6
