# Blender 4.5.10 LTS
# www.blender.org
mtllib stoker_tun_trough.mtl
o stoker_tun_trough
v 0.900077 0.143303 -0.422316
v 0.900038 0.145295 -0.434351
v 0.926133 0.145033 -0.422434
v 0.901243 0.281369 -0.433999
v 0.901317 0.283297 -0.421954
v 0.927338 0.281107 -0.422082
v 0.904000 0.141107 0.413592
v 0.930056 0.142836 0.413474
v 0.904074 0.143035 0.425636
v 0.905240 0.281101 0.413954
v 0.905279 0.279109 0.425988
v 0.931262 0.278911 0.413826
v -0.907752 0.159297 -0.413790
v -0.933774 0.161488 -0.413662
v -0.907791 0.161289 -0.425824
v -0.906512 0.299291 -0.413428
v -0.906586 0.297363 -0.425472
v -0.932568 0.297562 -0.413310
v -0.903829 0.157101 0.422118
v -0.903755 0.159029 0.434163
v -0.929850 0.159291 0.422246
v -0.902589 0.297095 0.422480
v -0.928645 0.295365 0.422598
v -0.902550 0.295103 0.434515
v 0.906157 0.276752 -0.478660
v 0.906091 0.284041 -0.480440
v 0.932153 0.284179 -0.478983
v 0.903268 0.789466 -0.477743
v 0.903253 0.796736 -0.475884
v 0.929331 0.789604 -0.476286
v 0.907920 0.276087 -0.352314
v 0.933917 0.283515 -0.352637
v 0.907905 0.283358 -0.350455
v 0.905017 0.796072 -0.349539
v 0.905083 0.788783 -0.347758
v 0.931094 0.788939 -0.349940
v -0.901559 0.266523 -0.453483
v -0.927637 0.273656 -0.453082
v -0.901625 0.273813 -0.455264
v -0.904463 0.786508 -0.450708
v -0.904447 0.779238 -0.452567
v -0.930459 0.779081 -0.450384
v -0.899796 0.265859 -0.327137
v -0.899811 0.273129 -0.325278
v -0.925873 0.272991 -0.326736
v -0.902699 0.785843 -0.324362
v -0.928696 0.778416 -0.324038
v -0.902633 0.778554 -0.322581
v 0.906438 0.281967 0.343836
v 0.906368 0.289256 0.342054
v 0.932386 0.289563 0.344143
v 0.900193 0.794652 0.344645
v 0.900085 0.801922 0.346502
v 0.926211 0.794959 0.346734
v 0.905141 0.281304 0.470188
v 0.931089 0.288900 0.470494
v 0.905033 0.288573 0.472045
v 0.898788 0.801258 0.472854
v 0.898858 0.793969 0.474636
v 0.924914 0.794295 0.473085
v -0.901252 0.259976 0.325163
v -0.927377 0.266938 0.324931
v -0.901322 0.267265 0.323380
v -0.907605 0.779930 0.327829
v -0.907497 0.772660 0.325972
v -0.933553 0.772334 0.327523
v -0.902549 0.259312 0.451515
v -0.902657 0.266582 0.453372
v -0.928675 0.266275 0.451283
v -0.908902 0.779266 0.454181
v -0.934850 0.771670 0.453874
v -0.908832 0.771978 0.455963
v 0.962564 0.269920 -0.417994
v 0.962530 0.277236 -0.430012
v 0.964397 0.277196 -0.417980
v 0.963487 0.782673 -0.428493
v 0.963549 0.789916 -0.416431
v 0.965355 0.782633 -0.416460
v 0.965881 0.267401 0.417915
v 0.967714 0.274678 0.417930
v 0.965942 0.274645 0.429977
v 0.966866 0.787398 0.419478
v 0.966900 0.780081 0.431496
v 0.968672 0.780114 0.419449
v 0.836205 0.270158 -0.417492
v 0.834399 0.277441 -0.417463
v 0.836171 0.277474 -0.429510
v 0.837190 0.790154 -0.415929
v 0.837128 0.782911 -0.427991
v 0.835356 0.782878 -0.415944
v 0.839522 0.267639 0.418418
v 0.839583 0.274882 0.430479
v 0.837716 0.274922 0.418447
v 0.840507 0.787636 0.419981
v 0.838673 0.780359 0.419966
v 0.840541 0.780319 0.431998
v -0.839524 0.274301 -0.420769
v -0.839646 0.281667 -0.432756
v -0.837710 0.281582 -0.420734
v -0.840051 0.787094 -0.429109
v -0.839941 0.794287 -0.417017
v -0.838116 0.787009 -0.417087
v -0.831487 0.268276 0.415090
v -0.829673 0.275557 0.415125
v -0.831377 0.275469 0.427182
v -0.831904 0.788262 0.418842
v -0.831782 0.780896 0.430829
v -0.830078 0.780984 0.418772
v -0.965878 0.274191 -0.419555
v -0.967704 0.281469 -0.419485
v -0.966000 0.281557 -0.431542
v -0.966295 0.794177 -0.415803
v -0.966405 0.786984 -0.427895
v -0.968110 0.786896 -0.415838
v -0.957841 0.268166 0.416305
v -0.957731 0.275359 0.428396
v -0.959667 0.275444 0.416375
v -0.958258 0.788152 0.420057
v -0.960072 0.780871 0.420022
v -0.958136 0.780786 0.432043
v 0.711301 0.005369 -0.508695
v 0.711105 0.007697 -0.523240
v 0.714082 0.007633 -0.508715
v 0.709782 0.163208 -0.522277
v 0.709940 0.165360 -0.507705
v 0.712758 0.163144 -0.507753
v 0.723602 -0.000782 0.502091
v 0.726383 0.001482 0.502071
v 0.723760 0.001369 0.516664
v 0.722241 0.159209 0.503081
v 0.722437 0.156880 0.517626
v 0.725059 0.156993 0.503034
v 0.516923 0.003700 -0.506340
v 0.514104 0.005916 -0.506292
v 0.516726 0.006028 -0.520885
v 0.515561 0.163691 -0.505350
v 0.515403 0.161540 -0.519922
v 0.512780 0.161427 -0.505330
v 0.529224 -0.002451 0.504447
v 0.529382 -0.000300 0.519019
v 0.526405 -0.000235 0.504494
v 0.527862 0.157540 0.505437
v 0.525081 0.155276 0.505457
v 0.528058 0.155212 0.519982
v -0.516090 -0.006013 -0.505175
v -0.515989 -0.003958 -0.519762
v -0.513318 -0.003739 -0.505179
v -0.517915 0.151538 -0.521744
v -0.518072 0.153961 -0.507215
v -0.515244 0.151757 -0.507162
v -0.525042 0.006765 0.505585
v -0.522270 0.009039 0.505581
v -0.525199 0.009188 0.520114
v -0.527024 0.166739 0.503545
v -0.527125 0.164684 0.518132
v -0.524197 0.164535 0.503598
v -0.710467 -0.008443 -0.506866
v -0.713295 -0.006239 -0.506919
v -0.710366 -0.006388 -0.521452
v -0.712449 0.151531 -0.508906
v -0.712293 0.149108 -0.523435
v -0.715221 0.149257 -0.508901
v -0.719419 0.004335 0.503894
v -0.719576 0.006758 0.518424
v -0.722247 0.006539 0.503841
v -0.721402 0.164309 0.501854
v -0.724173 0.162035 0.501858
v -0.721503 0.162254 0.516441
v 0.945259 0.774225 -0.496944
v 0.945287 0.775662 -0.500006
v 0.972414 0.775681 -0.496654
v 0.945074 0.872855 -0.498823
v 0.945040 0.874217 -0.495727
v 0.972201 0.872873 -0.495471
v 0.943119 0.771617 -0.283131
v 0.970275 0.773073 -0.282841
v 0.943085 0.772979 -0.280034
v 0.942900 0.871609 -0.281913
v 0.942872 0.870172 -0.278851
v 0.970061 0.870266 -0.281658
v -0.940322 0.770317 -0.515864
v -0.967484 0.771661 -0.516119
v -0.940294 0.771755 -0.518926
v -0.940541 0.870310 -0.514646
v -0.940507 0.868947 -0.517743
v -0.967697 0.868853 -0.514936
v -0.942462 0.767710 -0.302050
v -0.942496 0.769072 -0.298954
v -0.969624 0.769053 -0.302306
v -0.942681 0.867702 -0.300833
v -0.969837 0.866246 -0.301122
v -0.942709 0.866264 -0.297770
v 0.942036 0.769880 0.299400
v 0.942056 0.771263 0.296313
v 0.969192 0.771338 0.299598
v 0.941851 0.868462 0.295794
v 0.941825 0.869878 0.298866
v 0.968987 0.868536 0.299079
v 0.940414 0.771019 0.513231
v 0.967571 0.772477 0.513429
v 0.940388 0.772435 0.516303
v 0.940204 0.871017 0.512697
v 0.940183 0.869633 0.515784
v 0.967366 0.869675 0.512910
v -0.943586 0.765836 0.285125
v -0.970748 0.767177 0.284912
v -0.943566 0.767219 0.282037
v -0.943797 0.865834 0.284591
v -0.943770 0.864418 0.281518
v -0.970953 0.864376 0.284392
v -0.945207 0.766974 0.498956
v -0.945234 0.768391 0.502028
v -0.972370 0.768316 0.498742
v -0.945418 0.866973 0.498421
v -0.972574 0.865515 0.498223
v -0.945438 0.865589 0.501509
vn 0.0646 -0.9845 -0.1631
vn 0.0821 0.9840 -0.1580
vn 0.0661 -0.9853 0.1573
vn 0.0836 0.9832 0.1624
vn -0.0836 -0.9832 -0.1624
vn -0.0661 0.9853 -0.1573
vn -0.0820 -0.9840 0.1580
vn -0.0646 0.9845 0.1631
vn 0.0662 -0.9978 -0.0029
vn 0.4154 -0.0013 -0.9096
vn 0.0839 0.9965 0.0022
vn 0.4239 -0.0061 0.9057
vn -0.0080 -0.9874 0.1581
vn 0.0095 0.9865 0.1632
vn -0.4154 0.0013 0.9096
vn -0.0839 -0.9965 -0.0022
vn -0.0662 0.9978 0.0029
vn -0.4239 0.0061 -0.9057
vn -0.0095 -0.9865 -0.1632
vn 0.0080 0.9874 -0.1581
vn -0.0089 -1.0000 -0.0026
vn 0.9999 -0.0088 -0.0047
vn -0.0047 0.0026 -1.0000
vn 0.0089 1.0000 0.0026
vn 0.0047 -0.0026 1.0000
vn -0.9999 0.0088 0.0047
vn 0.0555 -0.2365 -0.9700
vn 0.0528 0.2474 -0.9675
vn 0.0825 -0.2467 0.9656
vn 0.0798 0.2373 0.9682
vn -0.0798 -0.2373 -0.9682
vn -0.0825 0.2467 -0.9656
vn -0.0528 -0.2474 0.9675
vn -0.0555 0.2365 0.9700
vn 0.2746 -0.9615 -0.0089
vn 0.0558 0.0056 -0.9984
vn 0.2638 0.9646 0.0014
vn 0.0836 -0.0049 0.9965
vn 0.0149 -0.2476 0.9687
vn 0.0122 0.2374 0.9713
vn -0.0558 -0.0056 0.9984
vn -0.2638 -0.9646 -0.0014
vn -0.2746 0.9615 0.0089
vn -0.0836 0.0049 -0.9965
vn -0.0122 -0.2374 -0.9713
vn -0.0149 0.2476 -0.9687
vn 0.0056 -1.0000 -0.0053
vn 0.9999 0.0057 -0.0139
vn -0.0140 0.0053 -0.9999
vn -0.0056 1.0000 0.0053
vn 0.0140 -0.0053 0.9999
vn -0.9999 -0.0057 0.0139
vn 0.0805 -0.2361 -0.9684
vn 0.0746 0.2479 -0.9659
vn 0.0607 -0.2462 0.9673
vn 0.0547 0.2377 0.9698
vn -0.0547 -0.2377 -0.9698
vn -0.0607 0.2462 -0.9673
vn -0.0746 -0.2479 0.9659
vn -0.0805 0.2361 0.9684
vn 0.2810 -0.9597 -0.0022
vn 0.0800 0.0061 -0.9968
vn 0.2574 0.9663 0.0077
vn 0.0595 -0.0044 0.9982
vn -0.0070 -0.2476 0.9688
vn -0.0129 0.2374 0.9713
vn -0.0800 -0.0061 0.9968
vn -0.2574 -0.9663 -0.0077
vn -0.2810 0.9597 0.0022
vn -0.0595 0.0044 -0.9982
vn 0.0129 -0.2374 -0.9713
vn 0.0070 0.2476 -0.9688
vn 0.0122 -0.9999 -0.0051
vn 0.9999 0.0122 0.0103
vn 0.0103 0.0053 -0.9999
vn -0.0122 0.9999 0.0051
vn -0.0103 -0.0053 0.9999
vn -0.9999 -0.0122 -0.0103
vn 0.9588 -0.2413 -0.1496
vn 0.9597 0.2386 -0.1482
vn 0.9600 -0.2422 0.1406
vn 0.9609 0.2377 0.1420
vn -0.9609 -0.2377 -0.1420
vn -0.9600 0.2422 -0.1406
vn -0.9597 -0.2386 0.1482
vn -0.9588 0.2413 0.1496
vn 0.9697 -0.2444 -0.0046
vn 0.9882 -0.0014 -0.1534
vn 0.9706 0.2407 -0.0031
vn 0.9893 -0.0023 0.1455
vn 0.0004 -0.8573 0.5148
vn 0.0037 0.8542 0.5200
vn -0.9882 0.0014 0.1534
vn -0.9706 -0.2407 0.0031
vn -0.9697 0.2444 0.0046
vn -0.9894 0.0023 -0.1455
vn -0.0037 -0.8542 -0.5200
vn -0.0004 0.8573 -0.5148
vn -0.0019 -1.0000 -0.0030
vn 1.0000 -0.0019 -0.0040
vn -0.0040 0.0030 -1.0000
vn 0.0019 1.0000 0.0030
vn 0.0040 -0.0030 1.0000
vn -1.0000 0.0019 0.0040
vn 0.9586 -0.2381 -0.1560
vn 0.9582 0.2418 -0.1526
vn 0.9614 -0.2402 0.1341
vn 0.9610 0.2398 0.1376
vn -0.9610 -0.2398 -0.1376
vn -0.9614 0.2402 -0.1341
vn -0.9582 -0.2418 0.1526
vn -0.9586 0.2381 0.1560
vn 0.9703 -0.2417 -0.0111
vn 0.9873 0.0019 -0.1590
vn 0.9699 0.2434 -0.0076
vn 0.9902 -0.0002 0.1400
vn 0.0057 -0.8594 0.5112
vn 0.0043 0.8520 0.5236
vn -0.9873 -0.0019 0.1590
vn -0.9699 -0.2434 0.0076
vn -0.9703 0.2417 0.0111
vn -0.9902 0.0002 -0.1399
vn -0.0043 -0.8520 -0.5236
vn -0.0057 0.8594 -0.5112
vn 0.0008 -1.0000 -0.0072
vn 1.0000 0.0009 -0.0096
vn -0.0096 0.0072 -0.9999
vn -0.0008 1.0000 0.0072
vn 0.0096 -0.0072 0.9999
vn -1.0000 -0.0009 0.0096
vn 0.6253 -0.7692 -0.1316
vn 0.6121 0.7813 -0.1220
vn 0.6282 -0.7707 0.1070
vn 0.6150 0.7799 0.1165
vn -0.6150 -0.7798 -0.1165
vn -0.6282 0.7707 -0.1070
vn -0.6121 -0.7813 0.1220
vn -0.6253 0.7692 0.1316
vn 0.6313 -0.7755 -0.0124
vn 0.9796 0.0096 -0.2007
vn 0.6180 0.7862 -0.0027
vn 0.9842 0.0073 0.1769
vn 0.0103 -0.9892 0.1459
vn -0.0066 0.9874 0.1582
vn -0.9796 -0.0096 0.2007
vn -0.6180 -0.7862 0.0027
vn -0.6313 0.7755 0.0124
vn -0.9842 -0.0073 -0.1769
vn 0.0066 -0.9874 -0.1582
vn -0.0103 0.9892 -0.1459
vn 0.0085 -0.9999 -0.0062
vn 0.9999 0.0086 -0.0121
vn -0.0122 0.0061 -0.9999
vn -0.0085 0.9999 0.0062
vn 0.0122 -0.0061 0.9999
vn -0.9999 -0.0086 0.0121
vn 0.6308 -0.7689 -0.1040
vn 0.6116 0.7814 -0.1238
vn 0.6287 -0.7659 0.1345
vn 0.6095 0.7844 0.1148
vn -0.6095 -0.7844 -0.1148
vn -0.6287 0.7659 -0.1345
vn -0.6116 -0.7814 0.1238
vn -0.6308 0.7689 0.1040
vn 0.6343 -0.7729 0.0154
vn 0.9836 0.0099 -0.1803
vn 0.6150 0.7885 -0.0045
vn 0.9802 0.0147 0.1974
vn 0.0109 -0.9863 0.1646
vn -0.0136 0.9901 0.1394
vn -0.9836 -0.0099 0.1803
vn -0.6150 -0.7886 0.0045
vn -0.6343 0.7729 -0.0154
vn -0.9802 -0.0147 -0.1974
vn 0.0136 -0.9901 -0.1394
vn -0.0109 0.9863 -0.1646
vn 0.0124 -0.9998 0.0127
vn 0.9999 0.0125 0.0087
vn 0.0089 -0.0126 -0.9999
vn -0.0124 0.9998 -0.0127
vn -0.0089 0.0126 0.9999
vn -0.9999 -0.0125 -0.0087
vn 0.0530 -0.9042 -0.4239
vn 0.0490 0.9144 -0.4017
vn 0.0447 -0.9142 0.4027
vn 0.0407 0.9043 0.4249
vn -0.0407 -0.9044 -0.4248
vn -0.0447 0.9142 -0.4027
vn -0.0490 -0.9144 0.4017
vn -0.0530 0.9042 0.4239
vn 0.0537 -0.9985 -0.0116
vn 0.1226 0.0123 -0.9924
vn 0.0493 0.9987 0.0127
vn 0.1027 -0.0119 0.9946
vn -0.0021 -0.9153 0.4027
vn -0.0061 0.9052 0.4249
vn -0.1226 -0.0124 0.9924
vn -0.0493 -0.9987 -0.0127
vn -0.0537 0.9985 0.0116
vn -0.1027 0.0119 -0.9946
vn 0.0061 -0.9053 -0.4248
vn 0.0021 0.9153 -0.4027
vn 0.0022 -0.9999 -0.0122
vn 0.9999 0.0021 0.0100
vn 0.0100 0.0122 -0.9999
vn -0.0022 0.9999 0.0122
vn -0.0100 -0.0122 0.9999
vn -0.9999 -0.0021 -0.0100
vn 0.0519 -0.9114 -0.4081
vn 0.0481 0.9073 -0.4178
vn 0.0457 -0.9071 0.4185
vn 0.0418 0.9117 0.4088
vn -0.0418 -0.9117 -0.4088
vn -0.0457 0.9070 -0.4186
vn -0.0481 -0.9072 0.4178
vn -0.0519 0.9115 0.4081
vn 0.0536 -0.9985 0.0057
vn 0.1202 -0.0050 -0.9927
vn 0.0494 0.9988 -0.0049
vn 0.1051 0.0055 0.9944
vn -0.0012 -0.9081 0.4187
vn -0.0051 0.9126 0.4089
vn -0.1202 0.0051 0.9927
vn -0.0494 -0.9988 0.0049
vn -0.0536 0.9985 -0.0057
vn -0.1051 -0.0055 -0.9944
vn 0.0051 -0.9125 -0.4089
vn 0.0012 0.9081 -0.4187
vn 0.0021 -1.0000 0.0053
vn 1.0000 0.0021 0.0076
vn 0.0076 -0.0053 -1.0000
vn -0.0021 1.0000 -0.0053
vn -0.0076 0.0053 1.0000
vn -1.0000 -0.0021 -0.0076
vn 0.9894 -0.0023 0.1455
vn 0.9873 0.0019 -0.1589
vn -0.9873 -0.0019 0.1589
vn 0.6150 0.7886 -0.0045
vn 0.1226 0.0124 -0.9924
vn -0.0061 0.9053 0.4248
vn 0.0061 -0.9052 -0.4248
vn 0.1202 -0.0051 -0.9927
vn -0.0012 -0.9082 0.4186
vn -0.1202 0.0050 0.9927
vn 0.0051 -0.9126 -0.4089
vn 0.0012 0.9082 -0.4186
vt -0.403960 0.082040
vt -0.403960 0.070000
vt -0.430000 0.082040
vt -0.403960 0.917960
vt -0.430000 0.917960
vt -0.403960 0.930000
vt 1.403960 0.082040
vt 1.430000 0.082040
vt 1.403960 0.070000
vt 1.403960 0.917960
vt 1.403960 0.930000
vt 1.430000 0.917960
vt -0.403960 0.568040
vt -0.430000 0.431960
vt -0.403960 0.431960
vt -0.430000 0.568040
vt 1.430000 0.568040
vt 1.403960 0.431960
vt 1.403960 0.568040
vt 0.082040 0.431960
vt 0.917960 0.568040
vt 0.917960 0.431960
vt -0.403960 0.240000
vt -0.403960 0.247280
vt -0.430000 0.247280
vt -0.403960 0.752720
vt -0.403960 0.760000
vt -0.430000 0.752720
vt 1.403960 0.240000
vt 1.430000 0.247280
vt 1.403960 0.247280
vt 1.403960 0.760000
vt 1.403960 0.752720
vt 1.430000 0.752720
vt -0.403960 0.563180
vt -0.430000 0.436820
vt -0.430000 0.563180
vt -0.403960 0.436820
vt 1.403960 0.563180
vt 1.430000 0.436820
vt 1.403960 0.436820
vt 1.430000 0.563180
vt 0.436820 0.247280
vt 0.563180 0.752720
vt 0.563180 0.247280
vt 0.436820 0.752720
vt 0.082040 0.240000
vt 0.070000 0.247280
vt 0.082040 0.247280
vt 0.070000 0.752720
vt 0.082040 0.760000
vt 0.082040 0.752720
vt 0.917960 0.240000
vt 0.917960 0.247280
vt 0.930000 0.247280
vt 0.917960 0.760000
vt 0.930000 0.752720
vt 0.917960 0.752720
vt 0.563180 0.917960
vt 0.436820 0.930000
vt 0.563180 0.930000
vt 0.436820 0.917960
vt 0.563180 0.082040
vt 0.436820 0.070000
vt 0.436820 0.082040
vt 0.563180 0.070000
vt 0.402800 -0.005440
vt 0.402800 -0.020000
vt 0.400000 -0.005440
vt 0.402800 1.005440
vt 0.400000 1.005440
vt 0.402800 1.020000
vt 0.597200 -0.005440
vt 0.600000 -0.005440
vt 0.597200 -0.020000
vt 0.597200 1.005440
vt 0.597200 1.020000
vt 0.600000 1.005440
vt -0.020000 0.577760
vt -0.005440 0.422240
vt -0.020000 0.422240
vt 1.020000 0.577760
vt 1.005440 0.422240
vt 1.005440 0.577760
vt -0.005440 0.577760
vt 0.597200 0.577760
vt 0.402800 0.422240
vt 0.597200 0.422240
vt 1.020000 0.422240
vt 0.402800 0.577760
vt -0.442840 0.393080
vt -0.442840 0.390000
vt -0.470000 0.393080
vt -0.442840 0.606920
vt -0.470000 0.606920
vt -0.442840 0.610000
vt 1.442840 0.393080
vt 1.470000 0.393080
vt 1.442840 0.390000
vt 1.442840 0.606920
vt 1.442840 0.610000
vt 1.470000 0.606920
vt -0.442840 0.548600
vt -0.470000 0.451400
vt -0.442840 0.451400
vt -0.470000 0.548600
vt 1.470000 0.451400
vt 1.442840 0.548600
vt 1.470000 0.548600
vt 0.393080 0.451400
vt 0.606920 0.548600
vt 0.606920 0.451400
vt 1.442840 0.451400
vt 0.393080 0.548600
vt 1.430000 0.431960
vt 0.082040 0.568040
s 0
usemtl wood
f 1/1/1 2/2/1 3/3/1
f 4/2/2 5/1/2 6/3/2
f 7/4/3 8/5/3 9/6/3
f 10/4/4 11/6/4 12/5/4
f 13/7/5 14/8/5 15/9/5
f 16/7/6 17/9/6 18/8/6
f 19/10/7 20/11/7 21/12/7
f 22/10/8 23/12/8 24/11/8
f 1/1/9 8/5/9 7/4/9
f 4/13/10 3/14/10 2/15/10
f 5/1/11 12/5/11 6/3/11
f 11/13/12 8/14/12 12/16/12
f 7/4/13 20/11/13 19/10/13
f 10/4/14 24/11/14 11/6/14
f 23/17/15 20/18/15 24/19/15
f 19/10/16 14/8/16 13/7/16
f 16/7/17 23/12/17 22/10/17
f 15/18/18 18/17/18 17/19/18
f 1/1/19 15/9/19 2/2/19
f 16/7/20 4/2/20 17/9/20
f 19/10/21 1/1/21 7/4/21
f 3/20/22 12/21/22 8/22/22
f 17/19/23 2/15/23 15/18/23
f 10/4/24 16/7/24 22/10/24
f 9/15/25 24/19/25 20/18/25
f 23/21/26 14/20/26 21/22/26
f 25/23/27 26/24/27 27/25/27
f 28/26/28 29/27/28 30/28/28
f 31/23/29 32/25/29 33/24/29
f 34/27/30 35/26/30 36/28/30
f 37/29/31 38/30/31 39/31/31
f 40/32/32 41/33/32 42/34/32
f 43/29/33 44/31/33 45/30/33
f 46/32/34 47/34/34 48/33/34
f 31/35/35 27/36/35 32/37/35
f 28/26/36 27/25/36 26/24/36
f 34/35/37 30/36/37 29/38/37
f 33/24/38 36/28/38 35/26/38
f 31/23/39 44/31/39 43/29/39
f 34/27/40 48/33/40 35/26/40
f 47/34/41 44/31/41 48/33/41
f 43/39/42 38/40/42 37/41/42
f 40/41/43 47/42/43 46/39/43
f 39/31/44 42/34/44 41/33/44
f 37/29/45 26/24/45 25/23/45
f 29/27/46 41/33/46 40/32/46
f 43/39/47 25/38/47 31/35/47
f 27/43/48 36/44/48 32/45/48
f 39/31/49 28/26/49 26/24/49
f 46/39/50 29/38/50 40/41/50
f 33/24/51 48/33/51 44/31/51
f 47/44/52 38/43/52 45/45/52
f 49/23/53 50/24/53 51/25/53
f 52/26/54 53/27/54 54/28/54
f 55/23/55 56/25/55 57/24/55
f 58/27/56 59/26/56 60/28/56
f 61/29/57 62/30/57 63/31/57
f 64/32/58 65/33/58 66/34/58
f 67/29/59 68/31/59 69/30/59
f 70/32/60 71/34/60 72/33/60
f 49/38/61 56/37/61 55/35/61
f 52/26/62 51/25/62 50/24/62
f 53/38/63 60/37/63 54/36/63
f 59/26/64 56/25/64 60/28/64
f 67/29/65 57/24/65 68/31/65
f 70/32/66 59/26/66 58/27/66
f 69/30/67 72/33/67 71/34/67
f 61/41/68 69/42/68 62/40/68
f 64/41/69 71/42/69 70/39/69
f 63/31/70 66/34/70 65/33/70
f 61/29/71 50/24/71 49/23/71
f 64/32/72 52/26/72 65/33/72
f 55/35/73 61/41/73 49/38/73
f 54/46/74 56/45/74 51/43/74
f 65/33/75 50/24/75 63/31/75
f 58/35/76 64/41/76 70/39/76
f 59/26/77 68/31/77 57/24/77
f 69/45/78 66/46/78 62/43/78
f 73/47/79 74/48/79 75/49/79
f 76/50/80 77/51/80 78/52/80
f 79/53/81 80/54/81 81/55/81
f 82/56/82 83/57/82 84/58/82
f 85/47/83 86/49/83 87/48/83
f 88/51/84 89/50/84 90/52/84
f 91/53/85 92/55/85 93/54/85
f 94/56/86 95/58/86 96/57/86
f 79/53/87 75/49/87 80/54/87
f 76/50/88 75/49/88 74/48/88
f 77/51/89 84/58/89 78/52/89
f 83/57/90 80/54/90 84/58/90
f 91/59/91 81/60/91 92/61/91
f 82/62/92 96/61/92 83/60/92
f 93/54/93 96/57/93 95/58/93
f 91/53/94 86/49/94 85/47/94
f 88/51/95 95/58/95 94/56/95
f 87/48/96 90/52/96 89/50/96
f 85/63/97 74/64/97 73/65/97
f 88/63/98 76/64/98 89/66/98
f 79/62/99 85/63/99 73/65/99
f 75/49/100 84/58/100 80/54/100
f 89/44/101 74/43/101 87/45/101
f 94/59/102 77/65/102 88/63/102
f 83/46/103 92/45/103 81/43/103
f 95/58/104 86/49/104 93/54/104
f 97/47/105 98/48/105 99/49/105
f 100/50/106 101/51/106 102/52/106
f 103/53/107 104/54/107 105/55/107
f 106/56/108 107/57/108 108/58/108
f 109/47/109 110/49/109 111/48/109
f 112/51/110 113/50/110 114/52/110
f 115/53/111 116/55/111 117/54/111
f 118/56/112 119/58/112 120/57/112
f 97/47/113 104/54/113 103/53/113
f 98/48/114 102/52/114 99/49/114
f 106/56/115 102/52/115 101/51/115
f 105/55/116 108/58/116 107/57/116
f 115/59/117 105/60/117 116/61/117
f 106/62/118 120/61/118 107/60/118
f 117/54/119 120/57/119 119/58/119
f 109/47/120 117/54/120 110/49/120
f 112/51/121 119/58/121 118/56/121
f 111/48/122 114/52/122 113/50/122
f 97/65/123 111/66/123 98/64/123
f 112/63/124 100/64/124 113/66/124
f 103/62/125 109/63/125 97/65/125
f 102/52/126 104/54/126 99/49/126
f 113/44/127 98/43/127 111/45/127
f 106/62/128 112/63/128 118/59/128
f 105/43/129 120/44/129 116/45/129
f 119/58/130 110/49/130 117/54/130
f 121/67/131 122/68/131 123/69/131
f 124/68/132 125/67/132 126/69/132
f 127/70/133 128/71/133 129/72/133
f 130/70/134 131/72/134 132/71/134
f 133/73/135 134/74/135 135/75/135
f 136/73/136 137/75/136 138/74/136
f 139/76/137 140/77/137 141/78/137
f 142/76/138 143/78/138 144/77/138
f 121/67/139 128/71/139 127/70/139
f 124/79/140 123/80/140 122/81/140
f 130/70/141 126/69/141 125/67/141
f 131/82/142 128/83/142 132/84/142
f 139/76/143 129/72/143 140/77/143
f 130/70/144 144/77/144 131/72/144
f 141/83/145 144/82/145 143/84/145
f 133/73/146 141/78/146 134/74/146
f 136/73/147 143/78/147 142/76/147
f 135/81/148 138/85/148 137/79/148
f 133/73/149 122/68/149 121/67/149
f 136/73/150 124/68/150 137/75/150
f 139/76/151 121/67/151 127/70/151
f 126/85/152 128/83/152 123/80/152
f 137/86/153 122/87/153 135/88/153
f 130/70/154 136/73/154 142/76/154
f 129/87/155 144/86/155 140/88/155
f 143/84/156 134/80/156 141/83/156
f 145/67/157 146/68/157 147/69/157
f 148/68/158 149/67/158 150/69/158
f 151/70/159 152/71/159 153/72/159
f 154/70/160 155/72/160 156/71/160
f 157/73/161 158/74/161 159/75/161
f 160/73/162 161/75/162 162/74/162
f 163/76/163 164/77/163 165/78/163
f 166/76/164 167/78/164 168/77/164
f 151/70/165 147/69/165 152/71/165
f 148/79/166 147/80/166 146/81/166
f 149/67/167 156/71/167 150/69/167
f 153/89/168 156/84/168 155/82/168
f 163/76/169 153/72/169 164/77/169
f 154/70/170 168/77/170 155/72/170
f 165/83/171 168/82/171 167/84/171
f 163/76/172 158/74/172 157/73/172
f 160/73/173 167/78/173 166/76/173
f 161/79/174 158/80/174 162/85/174
f 157/73/175 146/68/175 145/67/175
f 149/67/176 161/75/176 160/73/176
f 163/76/177 145/67/177 151/70/177
f 150/85/178 152/83/178 147/80/178
f 161/86/179 146/87/179 159/88/179
f 154/70/180 160/73/180 166/76/180
f 155/90/181 164/88/181 153/87/181
f 167/84/182 158/80/182 165/83/182
f 169/91/183 170/92/183 171/93/183
f 172/92/184 173/91/184 174/93/184
f 175/94/185 176/95/185 177/96/185
f 178/94/186 179/96/186 180/95/186
f 181/97/187 182/98/187 183/99/187
f 184/97/188 185/99/188 186/98/188
f 187/100/189 188/101/189 189/102/189
f 190/100/190 191/102/190 192/101/190
f 169/91/191 176/95/191 175/94/191
f 172/103/192 171/104/192 170/105/192
f 178/94/193 174/93/193 173/91/193
f 179/103/194 176/104/194 180/106/194
f 175/94/195 188/101/195 187/100/195
f 190/100/196 179/96/196 178/94/196
f 189/107/197 192/108/197 191/109/197
f 181/97/198 189/102/198 182/98/198
f 190/100/199 186/98/199 191/102/199
f 185/108/200 182/107/200 186/109/200
f 181/97/201 170/92/201 169/91/201
f 173/91/202 185/99/202 184/97/202
f 187/100/203 169/91/203 175/94/203
f 171/110/204 180/111/204 176/112/204
f 185/108/205 170/105/205 183/113/205
f 178/94/206 184/97/206 190/100/206
f 179/103/207 188/113/207 177/105/207
f 191/111/208 182/110/208 189/112/208
f 193/91/209 194/92/209 195/93/209
f 196/92/210 197/91/210 198/93/210
f 199/94/211 200/95/211 201/96/211
f 202/94/212 203/96/212 204/95/212
f 205/97/213 206/98/213 207/99/213
f 208/97/214 209/99/214 210/98/214
f 211/100/215 212/101/215 213/102/215
f 214/100/216 215/102/216 216/101/216
f 193/91/217 200/95/217 199/94/217
f 194/105/218 198/106/218 195/104/218
f 197/91/219 204/95/219 198/93/219
f 201/105/220 204/106/220 203/103/220
f 199/94/221 212/101/221 211/100/221
f 202/94/222 216/101/222 203/96/222
f 215/109/223 212/113/223 216/108/223
f 205/97/224 213/102/224 206/98/224
f 208/97/225 215/102/225 214/100/225
f 209/108/226 206/107/226 210/109/226
f 193/91/227 207/99/227 194/92/227
f 197/91/228 209/99/228 208/97/228
f 211/100/229 193/91/229 199/94/229
f 195/110/230 204/111/230 200/112/230
f 209/108/231 194/105/231 207/113/231
f 202/94/232 208/97/232 214/100/232
f 201/105/233 216/108/233 212/113/233
f 213/112/234 210/114/234 206/110/234
f 1/1/9 3/3/9 8/5/9
f 4/13/10 6/16/10 3/14/10
f 5/1/11 10/4/11 12/5/11
f 11/13/12 9/15/12 8/14/12
f 7/4/13 9/6/13 20/11/13
f 10/4/14 22/10/14 24/11/14
f 23/17/15 21/115/15 20/18/15
f 19/10/16 21/12/16 14/8/16
f 16/7/17 18/8/17 23/12/17
f 15/18/18 14/115/18 18/17/18
f 1/1/19 13/7/19 15/9/19
f 16/7/20 5/1/20 4/2/20
f 19/10/21 13/7/21 1/1/21
f 3/20/22 6/116/22 12/21/22
f 17/19/23 4/13/23 2/15/23
f 10/4/24 5/1/24 16/7/24
f 9/15/25 11/13/25 24/19/25
f 23/21/26 18/116/26 14/20/26
f 31/35/35 25/38/35 27/36/35
f 28/26/36 30/28/36 27/25/36
f 34/35/37 36/37/37 30/36/37
f 33/24/38 32/25/38 36/28/38
f 31/23/39 33/24/39 44/31/39
f 34/27/40 46/32/40 48/33/40
f 47/34/41 45/30/41 44/31/41
f 43/39/42 45/42/42 38/40/42
f 40/41/43 42/40/43 47/42/43
f 39/31/44 38/30/44 42/34/44
f 37/29/45 39/31/45 26/24/45
f 29/27/46 28/26/46 41/33/46
f 43/39/47 37/41/47 25/38/47
f 27/43/48 30/46/48 36/44/48
f 39/31/49 41/33/49 28/26/49
f 46/39/50 34/35/50 29/38/50
f 33/24/51 35/26/51 48/33/51
f 47/44/52 42/46/52 38/43/52
f 49/38/61 51/36/61 56/37/61
f 52/26/62 54/28/62 51/25/62
f 53/38/63 58/35/63 60/37/63
f 59/26/64 57/24/64 56/25/64
f 67/29/65 55/23/65 57/24/65
f 70/32/66 72/33/66 59/26/66
f 69/30/67 68/31/67 72/33/67
f 61/41/68 67/39/68 69/42/68
f 64/41/69 66/40/69 71/42/69
f 63/31/70 62/30/70 66/34/70
f 61/29/71 63/31/71 50/24/71
f 64/32/72 53/27/72 52/26/72
f 55/35/73 67/39/73 61/41/73
f 54/46/74 60/44/74 56/45/74
f 65/33/75 52/26/75 50/24/75
f 58/35/76 53/38/76 64/41/76
f 59/26/77 72/33/77 68/31/77
f 69/45/78 71/44/78 66/46/78
f 79/53/87 73/47/87 75/49/87
f 76/50/88 78/52/88 75/49/88
f 77/51/89 82/56/89 84/58/89
f 83/57/235 81/55/235 80/54/235
f 91/59/91 79/62/91 81/60/91
f 82/62/92 94/59/92 96/61/92
f 93/54/93 92/55/93 96/57/93
f 91/53/94 93/54/94 86/49/94
f 88/51/95 90/52/95 95/58/95
f 87/48/96 86/49/96 90/52/96
f 85/63/97 87/66/97 74/64/97
f 88/63/98 77/65/98 76/64/98
f 79/62/99 91/59/99 85/63/99
f 75/49/100 78/52/100 84/58/100
f 89/44/101 76/46/101 74/43/101
f 94/59/102 82/62/102 77/65/102
f 83/46/103 96/44/103 92/45/103
f 95/58/104 90/52/104 86/49/104
f 97/47/113 99/49/113 104/54/113
f 98/48/236 100/50/236 102/52/236
f 106/56/115 108/58/115 102/52/115
f 105/55/116 104/54/116 108/58/116
f 115/59/117 103/62/117 105/60/117
f 106/62/118 118/59/118 120/61/118
f 117/54/237 116/55/237 120/57/237
f 109/47/120 115/53/120 117/54/120
f 112/51/121 114/52/121 119/58/121
f 111/48/122 110/49/122 114/52/122
f 97/65/123 109/63/123 111/66/123
f 112/63/124 101/65/124 100/64/124
f 103/62/125 115/59/125 109/63/125
f 102/52/126 108/58/126 104/54/126
f 113/44/127 100/46/127 98/43/127
f 106/62/128 101/65/128 112/63/128
f 105/43/129 107/46/129 120/44/129
f 119/58/130 114/52/130 110/49/130
f 121/67/139 123/69/139 128/71/139
f 124/79/140 126/85/140 123/80/140
f 130/70/141 132/71/141 126/69/141
f 131/82/142 129/89/142 128/83/142
f 139/76/143 127/70/143 129/72/143
f 130/70/144 142/76/144 144/77/144
f 141/83/145 140/89/145 144/82/145
f 133/73/146 139/76/146 141/78/146
f 136/73/147 138/74/147 143/78/147
f 135/81/148 134/80/148 138/85/148
f 133/73/149 135/75/149 122/68/149
f 136/73/150 125/67/150 124/68/150
f 139/76/151 133/73/151 121/67/151
f 126/85/152 132/84/152 128/83/152
f 137/86/153 124/90/153 122/87/153
f 130/70/154 125/67/154 136/73/154
f 129/87/155 131/90/155 144/86/155
f 143/84/156 138/85/156 134/80/156
f 151/70/165 145/67/165 147/69/165
f 148/79/166 150/85/166 147/80/166
f 149/67/238 154/70/238 156/71/238
f 153/89/168 152/83/168 156/84/168
f 163/76/169 151/70/169 153/72/169
f 154/70/170 166/76/170 168/77/170
f 165/83/171 164/89/171 168/82/171
f 163/76/172 165/78/172 158/74/172
f 160/73/173 162/74/173 167/78/173
f 161/79/174 159/81/174 158/80/174
f 157/73/175 159/75/175 146/68/175
f 149/67/176 148/68/176 161/75/176
f 163/76/177 157/73/177 145/67/177
f 150/85/178 156/84/178 152/83/178
f 161/86/179 148/90/179 146/87/179
f 154/70/180 149/67/180 160/73/180
f 155/90/181 168/86/181 164/88/181
f 167/84/182 162/85/182 158/80/182
f 169/91/191 171/93/191 176/95/191
f 172/103/239 174/106/239 171/104/239
f 178/94/193 180/95/193 174/93/193
f 179/103/194 177/105/194 176/104/194
f 175/94/195 177/96/195 188/101/195
f 190/100/240 192/101/240 179/96/240
f 189/107/197 188/113/197 192/108/197
f 181/97/198 187/100/198 189/102/198
f 190/100/199 184/97/199 186/98/199
f 185/108/200 183/113/200 182/107/200
f 181/97/241 183/99/241 170/92/241
f 173/91/202 172/92/202 185/99/202
f 187/100/203 181/97/203 169/91/203
f 171/110/204 174/114/204 180/111/204
f 185/108/205 172/103/205 170/105/205
f 178/94/206 173/91/206 184/97/206
f 179/103/207 192/108/207 188/113/207
f 191/111/208 186/114/208 182/110/208
f 193/91/217 195/93/217 200/95/217
f 194/105/242 196/103/242 198/106/242
f 197/91/219 202/94/219 204/95/219
f 201/105/220 200/104/220 204/106/220
f 199/94/243 201/96/243 212/101/243
f 202/94/222 214/100/222 216/101/222
f 215/109/244 213/107/244 212/113/244
f 205/97/224 211/100/224 213/102/224
f 208/97/225 210/98/225 215/102/225
f 209/108/226 207/113/226 206/107/226
f 193/91/245 205/97/245 207/99/245
f 197/91/246 196/92/246 209/99/246
f 211/100/229 205/97/229 193/91/229
f 195/110/230 198/114/230 204/111/230
f 209/108/231 196/103/231 194/105/231
f 202/94/232 197/91/232 208/97/232
f 201/105/233 203/103/233 216/108/233
f 213/112/234 215/111/234 210/114/234
