# Blender 4.5.10 LTS
# www.blender.org
mtllib stoker_ore_barrow.mtl
o stoker_ore_barrow
v 0.040000 0.220000 0.640000
v -0.040000 0.220000 0.640000
v 0.040000 0.110000 0.610526
v -0.040000 0.110000 0.610526
v 0.040000 0.029474 0.530000
v -0.040000 0.029474 0.530000
v 0.040000 0.000000 0.420000
v -0.040000 0.000000 0.420000
v 0.040000 0.029474 0.310000
v -0.040000 0.029474 0.310000
v 0.040000 0.110000 0.229474
v -0.040000 0.110000 0.229474
v 0.040000 0.220000 0.200000
v -0.040000 0.220000 0.200000
v 0.040000 0.330000 0.229474
v -0.040000 0.330000 0.229474
v 0.040000 0.410526 0.310000
v -0.040000 0.410526 0.310000
v 0.040000 0.440000 0.420000
v -0.040000 0.440000 0.420000
v 0.040000 0.410526 0.530000
v -0.040000 0.410526 0.530000
v 0.040000 0.330000 0.610526
v -0.040000 0.330000 0.610526
v 0.070000 0.170000 0.350000
v 0.070000 0.270000 0.350000
v 0.070000 0.170000 0.490000
v 0.070000 0.270000 0.490000
v -0.070000 0.170000 0.350000
v -0.070000 0.270000 0.350000
v -0.070000 0.170000 0.490000
v -0.070000 0.270000 0.490000
v 0.305000 0.556613 -0.549935
v 0.305000 0.643126 -0.525128
v 0.305000 0.236874 0.565128
v 0.305000 0.323387 0.589935
v 0.215000 0.556613 -0.549935
v 0.215000 0.643126 -0.525128
v 0.215000 0.236874 0.565128
v 0.215000 0.323387 0.589935
v 0.300000 0.020000 -0.480000
v 0.300000 0.360000 -0.480000
v 0.300000 0.020000 -0.400000
v 0.300000 0.360000 -0.400000
v 0.220000 0.020000 -0.480000
v 0.220000 0.360000 -0.480000
v 0.220000 0.020000 -0.400000
v 0.220000 0.360000 -0.400000
v -0.215000 0.556613 -0.549935
v -0.215000 0.643126 -0.525128
v -0.215000 0.236874 0.565128
v -0.215000 0.323387 0.589935
v -0.305000 0.556613 -0.549935
v -0.305000 0.643126 -0.525128
v -0.305000 0.236874 0.565128
v -0.305000 0.323387 0.589935
v -0.220000 0.020000 -0.480000
v -0.220000 0.360000 -0.480000
v -0.220000 0.020000 -0.400000
v -0.220000 0.360000 -0.400000
v -0.300000 0.020000 -0.480000
v -0.300000 0.360000 -0.480000
v -0.300000 0.020000 -0.400000
v -0.300000 0.360000 -0.400000
v 0.310000 0.471715 -0.314894
v 0.310000 0.817769 -0.215665
v 0.310000 0.262231 0.415665
v 0.310000 0.608285 0.514894
v -0.310000 0.471715 -0.314894
v -0.310000 0.817769 -0.215665
v -0.310000 0.262231 0.415665
v -0.310000 0.608285 0.514894
v 0.340000 0.450367 -0.334921
v 0.340000 0.777196 -0.241205
v 0.340000 0.422804 -0.238795
v 0.340000 0.749633 -0.145079
v -0.340000 0.450367 -0.334921
v -0.340000 0.777196 -0.241205
v -0.340000 0.422804 -0.238795
v -0.340000 0.749633 -0.145079
v 0.107151 0.620000 0.398686
v 0.030002 0.880000 0.212432
v -0.107151 0.620000 0.398686
v -0.030002 0.880000 0.212432
v -0.258686 0.620000 0.247151
v -0.072432 0.880000 0.170002
v -0.258686 0.620000 0.032849
v -0.072432 0.880000 0.109998
v -0.107151 0.620000 -0.118686
v -0.030002 0.880000 0.067568
v 0.107151 0.620000 -0.118686
v 0.030002 0.880000 0.067568
v 0.258686 0.620000 0.032849
v 0.072432 0.880000 0.109998
v 0.258686 0.620000 0.247151
v 0.072432 0.880000 0.170002
v 0.060000 0.440000 -0.560000
v 0.060000 0.880000 -0.560000
v 0.060000 0.440000 -0.440000
v 0.060000 0.880000 -0.440000
v -0.060000 0.440000 -0.560000
v -0.060000 0.880000 -0.560000
v -0.060000 0.440000 -0.440000
v -0.060000 0.880000 -0.440000
vn -0.0000 -0.2588 0.9659
vn -0.0000 -0.7071 0.7071
vn -0.0000 -0.9659 0.2588
vn -0.0000 -0.9659 -0.2588
vn -0.0000 -0.7071 -0.7071
vn -0.0000 -0.2588 -0.9659
vn -0.0000 0.2588 -0.9659
vn -0.0000 0.7071 -0.7071
vn -0.0000 0.9659 -0.2588
vn -0.0000 0.9659 0.2588
vn -1.0000 -0.0000 -0.0000
vn -0.0000 0.7071 0.7071
vn -0.0000 0.2588 0.9659
vn 1.0000 -0.0000 -0.0000
vn -0.0000 -0.0000 1.0000
vn -0.0000 -0.0000 -1.0000
vn -0.0000 -1.0000 -0.0000
vn -0.0000 1.0000 -0.0000
vn -0.0000 -0.2756 0.9613
vn -0.0000 0.2756 -0.9613
vn -0.0000 -0.9613 -0.2756
vn -0.0000 0.9613 0.2756
vn -0.0000 0.5824 0.8129
vn -0.5748 0.5824 0.5748
vn -0.8129 0.5824 -0.0000
vn -0.5748 0.5824 -0.5748
vn -0.0000 0.5824 -0.8129
vn 0.5748 0.5824 -0.5748
vn 0.8129 0.5824 -0.0000
vn 0.5748 0.5824 0.5748
vt 0.720000 0.540000
vt 0.830000 0.460000
vt 0.720000 0.460000
vt 0.830000 0.540000
vt 0.910526 0.460000
vt 0.990000 0.540000
vt 0.880000 0.460000
vt 0.990000 0.460000
vt 0.880000 0.540000
vt 0.770000 0.460000
vt 0.910526 0.540000
vt 0.610000 0.460000
vt 0.610000 0.540000
vt 0.529474 0.460000
vt 0.770000 0.540000
vt 0.529474 0.990000
vt 0.720000 0.660000
vt 0.910526 0.990000
vt 0.529474 0.540000
vt 0.940000 0.880000
vt 0.610000 0.689474
vt 0.610000 1.070526
vt 0.670000 0.810000
vt 0.770000 0.950000
vt 0.770000 0.810000
vt 0.670000 0.430000
vt 0.770000 0.570000
vt 0.770000 0.430000
vt 0.670000 0.950000
vt 0.950000 0.570000
vt 0.810000 0.430000
vt 0.950000 0.430000
vt 0.810000 0.570000
vt 0.296874 -0.065128
vt 0.703126 1.025128
vt 0.383387 -0.089935
vt 0.703126 0.195000
vt 0.616613 0.285000
vt 0.703126 0.285000
vt 0.616613 1.049935
vt 0.296874 0.285000
vt 0.383387 0.195000
vt 0.383387 0.285000
vt 1.025128 0.285000
vt -0.089935 0.195000
vt 1.025128 0.195000
vt 1.049935 0.285000
vt -0.065128 0.195000
vt -0.065128 0.285000
vt 0.580000 -0.020000
vt 0.920000 0.060000
vt 0.920000 -0.020000
vt 0.920000 0.200000
vt 0.580000 0.280000
vt 0.920000 0.280000
vt 0.580000 0.060000
vt 0.060000 0.280000
vt -0.020000 0.200000
vt 0.060000 0.200000
vt 0.060000 0.200000
vt -0.020000 0.280000
vt 0.616613 0.715000
vt 0.703126 0.805000
vt 0.703126 0.715000
vt 0.296874 0.805000
vt 0.383387 0.715000
vt 0.383387 0.805000
vt 1.025128 0.805000
vt -0.089935 0.715000
vt 1.025128 0.715000
vt 1.049935 0.715000
vt -0.065128 0.805000
vt 1.049935 0.805000
vt 0.580000 -0.020000
vt 0.920000 0.720000
vt 0.580000 0.800000
vt 0.920000 0.800000
vt 0.580000 0.060000
vt 0.060000 0.800000
vt -0.020000 0.720000
vt 0.060000 0.720000
vt -0.020000 0.800000
vt 0.060000 0.800000
vt 0.122231 0.244335
vt 0.677769 0.875665
vt 0.468285 0.145106
vt 0.331715 0.190000
vt 0.677769 0.810000
vt 0.677769 0.190000
vt 0.331715 0.974894
vt 0.468285 0.810000
vt 0.122231 0.190000
vt 0.468285 0.190000
vt 0.875665 0.810000
vt 0.145106 0.190000
vt 0.875665 0.190000
vt 0.974894 0.190000
vt 0.244335 0.810000
vt 0.974894 0.810000
vt 0.162804 0.218795
vt 0.517196 0.221205
vt 0.489633 0.125079
vt 0.190367 0.160000
vt 0.517196 0.840000
vt 0.517196 0.160000
vt 0.190367 0.314921
vt 0.162804 0.840000
vt 0.489633 0.160000
vt 0.489633 0.840000
vt 0.221205 0.840000
vt 0.125079 0.160000
vt 0.221205 0.160000
vt 0.314921 0.160000
vt 0.218795 0.840000
vt 0.314921 0.840000
vt 0.060000 0.469998
vt 0.320000 0.607151
vt 0.320000 0.392849
vt 0.858686 0.607151
vt 0.630002 0.572432
vt 0.707151 0.758686
vt 0.060000 0.630002
vt 0.320000 0.492849
vt 0.320000 0.707151
vt 0.492849 0.758686
vt 0.527568 0.530002
vt 0.341314 0.607151
vt 0.060000 0.530002
vt 0.320000 0.392849
vt 0.527568 0.469998
vt 0.492849 0.241314
vt 0.341314 0.392849
vt 0.569998 0.572432
vt 0.569998 0.427568
vt 0.060000 0.569998
vt 0.320000 0.707151
vt 0.320000 0.492849
vt 0.630002 0.427568
vt 0.858686 0.392849
vt 0.707151 0.241314
vt 0.060000 -0.100000
vt 0.500000 0.020000
vt 0.500000 -0.100000
vt 0.060000 0.440000
vt 0.500000 0.560000
vt 0.500000 0.440000
vt 0.060000 0.020000
vt 0.060000 0.560000
vt 0.020000 0.560000
vt -0.100000 0.440000
vt 0.020000 0.440000
vt 0.020000 0.440000
vt -0.100000 0.560000
vt 0.830000 1.070526
vt 0.720000 1.100000
vt 0.500000 0.880000
vt 0.529474 0.770000
vt 0.830000 0.689474
vt 0.910526 0.770000
vt 0.670000 0.570000
vt 0.616613 0.195000
vt 0.296874 0.195000
vt -0.089935 0.285000
vt 1.049935 0.195000
vt 0.580000 0.200000
vt -0.020000 0.200000
vt 0.296874 -0.065128
vt 0.616613 0.805000
vt 0.296874 0.715000
vt -0.089935 0.805000
vt -0.065128 0.715000
vt 0.580000 0.720000
vt -0.020000 0.800000
vt 0.331715 0.974894
vt 0.331715 0.810000
vt 0.122231 0.244335
vt 0.122231 0.810000
vt 0.145106 0.810000
vt 0.244335 0.190000
vt 0.190367 0.314921
vt 0.190367 0.840000
vt 0.162804 0.160000
vt 0.125079 0.840000
vt 0.218795 0.160000
vt 0.672432 0.530002
vt 0.672432 0.469998
vt -0.100000 0.440000
s 0
usemtl iron
f 2/1/1 3/2/1 1/3/1
f 4/4/2 5/5/2 3/2/2
f 6/6/3 7/7/3 5/8/3
f 8/9/4 9/10/4 7/7/4
f 10/11/5 11/2/5 9/5/5
f 12/4/6 13/3/6 11/2/6
f 14/1/7 15/12/7 13/3/7
f 16/13/8 17/14/8 15/12/8
f 18/15/9 19/7/9 17/10/9
f 20/9/10 21/8/10 19/7/10
f 22/16/11 14/17/11 6/18/11
f 22/19/12 23/12/12 21/14/12
f 24/13/13 1/3/13 23/12/13
f 7/20/14 15/21/14 23/22/14
f 26/23/14 27/24/14 25/25/14
f 28/26/15 31/27/15 27/28/15
f 32/29/11 29/25/11 31/24/11
f 29/27/16 26/26/16 25/28/16
f 31/30/17 25/31/17 27/32/17
f 28/32/18 30/33/18 32/30/18
f 2/1/1 4/4/1 3/2/1
f 4/4/2 6/11/2 5/5/2
f 6/6/3 8/9/3 7/7/3
f 8/9/4 10/15/4 9/10/4
f 10/11/5 12/4/5 11/2/5
f 12/4/6 14/1/6 13/3/6
f 14/1/7 16/13/7 15/12/7
f 16/13/8 18/19/8 17/14/8
f 18/15/9 20/9/9 19/7/9
f 20/9/10 22/6/10 21/8/10
f 6/18/11 4/154/11 2/155/11
f 2/155/11 24/22/11 22/16/11
f 22/16/11 20/156/11 18/157/11
f 18/157/11 16/21/11 14/17/11
f 14/17/11 12/158/11 10/159/11
f 10/159/11 8/20/11 6/18/11
f 6/18/11 2/155/11 22/16/11
f 22/16/11 18/157/11 14/17/11
f 14/17/11 10/159/11 6/18/11
f 22/19/12 24/13/12 23/12/12
f 24/13/13 2/1/13 1/3/13
f 23/22/14 1/155/14 3/154/14
f 3/154/14 5/18/14 7/20/14
f 7/20/14 9/159/14 11/158/14
f 11/158/14 13/17/14 15/21/14
f 15/21/14 17/157/14 19/156/14
f 19/156/14 21/16/14 23/22/14
f 23/22/14 3/154/14 7/20/14
f 7/20/14 11/158/14 15/21/14
f 15/21/14 19/156/14 23/22/14
f 26/23/14 28/29/14 27/24/14
f 28/26/15 32/160/15 31/27/15
f 32/29/11 30/23/11 29/25/11
f 29/27/16 30/160/16 26/26/16
f 31/30/17 29/33/17 25/31/17
f 28/32/18 26/31/18 30/33/18
usemtl wood
f 34/34/14 35/35/14 33/36/14
f 35/37/19 40/38/19 39/39/19
f 40/40/11 37/36/11 39/35/11
f 38/41/20 33/42/20 37/43/20
f 39/44/21 33/45/21 35/46/21
f 40/47/22 34/48/22 38/49/22
f 42/50/14 43/51/14 41/52/14
f 43/53/15 48/54/15 47/55/15
f 48/56/11 45/52/11 47/51/11
f 46/54/16 41/53/16 45/55/16
f 47/57/17 41/58/17 43/59/17
f 44/60/18 46/61/18 48/57/18
f 49/36/14 52/40/14 51/35/14
f 52/62/19 55/63/19 51/64/19
f 56/40/11 53/36/11 55/35/11
f 54/65/20 49/66/20 53/67/20
f 55/68/21 49/69/21 51/70/21
f 52/71/22 54/72/22 56/73/22
f 58/74/14 59/51/14 57/52/14
f 59/75/15 64/76/15 63/77/15
f 64/78/11 61/52/11 63/51/11
f 62/76/16 57/75/16 61/77/16
f 63/79/17 57/80/17 59/81/17
f 60/81/18 62/82/18 64/83/18
f 66/84/14 67/85/14 65/86/14
f 68/87/19 71/88/19 67/89/19
f 72/90/11 69/86/11 71/85/11
f 69/91/20 66/92/20 65/93/20
f 71/94/21 65/95/21 67/96/21
f 68/97/22 70/98/22 72/99/22
f 74/100/14 75/101/14 73/102/14
f 76/103/19 79/104/19 75/105/19
f 80/106/11 77/102/11 79/101/11
f 78/107/20 73/108/20 77/109/20
f 79/110/21 73/111/21 75/112/21
f 76/113/22 78/114/22 80/115/22
f 98/141/14 99/142/14 97/143/14
f 100/144/15 103/145/15 99/146/15
f 104/147/11 101/143/11 103/142/11
f 102/148/16 97/146/16 101/145/16
f 103/149/17 97/150/17 99/151/17
f 100/152/18 102/153/18 104/149/18
f 34/34/14 36/40/14 35/35/14
f 35/37/19 36/161/19 40/38/19
f 40/40/11 38/34/11 37/36/11
f 38/41/20 34/162/20 33/42/20
f 39/44/21 37/163/21 33/45/21
f 40/47/22 36/164/22 34/48/22
f 42/50/14 44/56/14 43/51/14
f 43/53/15 44/165/15 48/54/15
f 48/56/11 46/50/11 45/52/11
f 46/54/16 42/165/16 41/53/16
f 47/57/17 45/61/17 41/58/17
f 44/60/18 42/166/18 46/61/18
f 49/36/14 50/167/14 52/40/14
f 52/62/19 56/168/19 55/63/19
f 56/40/11 54/167/11 53/36/11
f 54/65/20 50/169/20 49/66/20
f 55/68/21 53/170/21 49/69/21
f 52/71/22 50/171/22 54/72/22
f 58/74/14 60/78/14 59/51/14
f 59/75/15 60/172/15 64/76/15
f 64/78/11 62/74/11 61/52/11
f 62/76/16 58/172/16 57/75/16
f 63/79/17 61/173/17 57/80/17
f 60/81/18 58/80/18 62/82/18
f 66/84/14 68/174/14 67/85/14
f 68/87/19 72/175/19 71/88/19
f 72/90/11 70/176/11 69/86/11
f 69/91/20 70/177/20 66/92/20
f 71/94/21 69/178/21 65/95/21
f 68/97/22 66/179/22 70/98/22
f 74/100/14 76/180/14 75/101/14
f 76/103/19 80/181/19 79/104/19
f 80/106/11 78/100/11 77/102/11
f 78/107/20 74/182/20 73/108/20
f 79/110/21 77/183/21 73/111/21
f 76/113/22 74/184/22 78/114/22
f 98/141/14 100/147/14 99/142/14
f 100/144/15 104/148/15 103/145/15
f 104/147/11 102/141/11 101/143/11
f 102/148/16 98/144/16 97/146/16
f 103/149/17 101/153/17 97/150/17
f 100/152/18 98/187/18 102/153/18
usemtl ore
f 82/116/23 83/117/23 81/118/23
f 83/119/24 86/120/24 85/121/24
f 86/122/25 87/123/25 85/124/25
f 87/125/26 90/126/26 89/127/26
f 90/128/27 91/129/27 89/117/27
f 92/130/28 93/131/28 91/132/28
f 88/133/18 86/120/18 94/134/18
f 94/135/29 95/136/29 93/137/29
f 96/138/30 81/139/30 95/140/30
f 87/125/17 91/132/17 95/140/17
f 82/116/23 84/128/23 83/117/23
f 83/119/24 84/185/24 86/120/24
f 86/122/25 88/135/25 87/123/25
f 87/125/26 88/133/26 90/126/26
f 90/128/27 92/116/27 91/129/27
f 92/130/28 94/134/28 93/131/28
f 86/120/18 84/185/18 82/186/18
f 82/186/18 96/138/18 86/120/18
f 96/138/18 94/134/18 86/120/18
f 94/134/18 92/130/18 90/126/18
f 90/126/18 88/133/18 94/134/18
f 94/135/29 96/122/29 95/136/29
f 96/138/30 82/186/30 81/139/30
f 95/140/17 81/139/17 83/119/17
f 83/119/17 85/121/17 87/125/17
f 87/125/17 89/127/17 91/132/17
f 91/132/17 93/131/17 95/140/17
f 95/140/17 83/119/17 87/125/17
