# Blender 4.5.10 LTS
# www.blender.org
mtllib stoker_smelter_orecart.mtl
o stoker_smelter_orecart
v 0.340000 0.020000 -0.550000
v 0.340000 0.080000 -0.550000
v 0.340000 0.020000 0.550000
v 0.340000 0.080000 0.550000
v 0.260000 0.020000 -0.550000
v 0.260000 0.080000 -0.550000
v 0.260000 0.020000 0.550000
v 0.260000 0.080000 0.550000
v -0.260000 0.020000 -0.550000
v -0.260000 0.080000 -0.550000
v -0.260000 0.020000 0.550000
v -0.260000 0.080000 0.550000
v -0.340000 0.020000 -0.550000
v -0.340000 0.080000 -0.550000
v -0.340000 0.020000 0.550000
v -0.340000 0.080000 0.550000
v 0.430000 -0.005000 -0.465000
v 0.430000 0.045000 -0.465000
v 0.430000 -0.005000 -0.375000
v 0.430000 0.045000 -0.375000
v -0.430000 -0.005000 -0.465000
v -0.430000 0.045000 -0.465000
v -0.430000 -0.005000 -0.375000
v -0.430000 0.045000 -0.375000
v 0.430000 -0.005000 -0.045000
v 0.430000 0.045000 -0.045000
v 0.430000 -0.005000 0.045000
v 0.430000 0.045000 0.045000
v -0.430000 -0.005000 -0.045000
v -0.430000 0.045000 -0.045000
v -0.430000 -0.005000 0.045000
v -0.430000 0.045000 0.045000
v 0.430000 -0.005000 0.375000
v 0.430000 0.045000 0.375000
v 0.430000 -0.005000 0.465000
v 0.430000 0.045000 0.465000
v -0.430000 -0.005000 0.375000
v -0.430000 0.045000 0.375000
v -0.430000 -0.005000 0.465000
v -0.430000 0.045000 0.465000
v 0.375000 0.180000 -0.140000
v 0.305000 0.180000 -0.140000
v 0.375000 0.085954 -0.170557
v 0.305000 0.085954 -0.170557
v 0.375000 0.027831 -0.250557
v 0.305000 0.027831 -0.250557
v 0.375000 0.027831 -0.349443
v 0.305000 0.027831 -0.349443
v 0.375000 0.085954 -0.429443
v 0.305000 0.085954 -0.429443
v 0.375000 0.180000 -0.460000
v 0.305000 0.180000 -0.460000
v 0.375000 0.274046 -0.429443
v 0.305000 0.274046 -0.429443
v 0.375000 0.332169 -0.349443
v 0.305000 0.332169 -0.349443
v 0.375000 0.332169 -0.250557
v 0.305000 0.332169 -0.250557
v 0.375000 0.274046 -0.170557
v 0.305000 0.274046 -0.170557
v 0.375000 0.180000 0.460000
v 0.305000 0.180000 0.460000
v 0.375000 0.085954 0.429443
v 0.305000 0.085954 0.429443
v 0.375000 0.027831 0.349443
v 0.305000 0.027831 0.349443
v 0.375000 0.027831 0.250557
v 0.305000 0.027831 0.250557
v 0.375000 0.085954 0.170557
v 0.305000 0.085954 0.170557
v 0.375000 0.180000 0.140000
v 0.305000 0.180000 0.140000
v 0.375000 0.274046 0.170557
v 0.305000 0.274046 0.170557
v 0.375000 0.332169 0.250557
v 0.305000 0.332169 0.250557
v 0.375000 0.332169 0.349443
v 0.305000 0.332169 0.349443
v 0.375000 0.274046 0.429443
v 0.305000 0.274046 0.429443
v -0.305000 0.180000 -0.140000
v -0.375000 0.180000 -0.140000
v -0.305000 0.085954 -0.170557
v -0.375000 0.085954 -0.170557
v -0.305000 0.027831 -0.250557
v -0.375000 0.027831 -0.250557
v -0.305000 0.027831 -0.349443
v -0.375000 0.027831 -0.349443
v -0.305000 0.085954 -0.429443
v -0.375000 0.085954 -0.429443
v -0.305000 0.180000 -0.460000
v -0.375000 0.180000 -0.460000
v -0.305000 0.274046 -0.429443
v -0.375000 0.274046 -0.429443
v -0.305000 0.332169 -0.349443
v -0.375000 0.332169 -0.349443
v -0.305000 0.332169 -0.250557
v -0.375000 0.332169 -0.250557
v -0.305000 0.274046 -0.170557
v -0.375000 0.274046 -0.170557
v -0.305000 0.180000 0.460000
v -0.375000 0.180000 0.460000
v -0.305000 0.085954 0.429443
v -0.375000 0.085954 0.429443
v -0.305000 0.027831 0.349443
v -0.375000 0.027831 0.349443
v -0.305000 0.027831 0.250557
v -0.375000 0.027831 0.250557
v -0.305000 0.085954 0.170557
v -0.375000 0.085954 0.170557
v -0.305000 0.180000 0.140000
v -0.375000 0.180000 0.140000
v -0.305000 0.274046 0.170557
v -0.375000 0.274046 0.170557
v -0.305000 0.332169 0.250557
v -0.375000 0.332169 0.250557
v -0.305000 0.332169 0.349443
v -0.375000 0.332169 0.349443
v -0.305000 0.274046 0.429443
v -0.375000 0.274046 0.429443
v 0.370000 0.145000 -0.335000
v 0.370000 0.215000 -0.335000
v 0.370000 0.145000 -0.265000
v 0.370000 0.215000 -0.265000
v -0.370000 0.145000 -0.335000
v -0.370000 0.215000 -0.335000
v -0.370000 0.145000 -0.265000
v -0.370000 0.215000 -0.265000
v 0.370000 0.145000 0.265000
v 0.370000 0.215000 0.265000
v 0.370000 0.145000 0.335000
v 0.370000 0.215000 0.335000
v -0.370000 0.145000 0.265000
v -0.370000 0.215000 0.265000
v -0.370000 0.145000 0.335000
v -0.370000 0.215000 0.335000
v 0.350000 0.390561 -0.450450
v 0.350000 0.817492 -0.344004
v 0.350000 0.182508 0.384004
v 0.350000 0.609439 0.490450
v -0.350000 0.390561 -0.450450
v -0.350000 0.817492 -0.344004
v -0.350000 0.182508 0.384004
v -0.350000 0.609439 0.490450
v 0.380000 0.439756 -0.423891
v 0.380000 0.497974 -0.409375
v 0.380000 0.222026 0.449375
v 0.380000 0.280244 0.463891
v -0.380000 0.439756 -0.423891
v -0.380000 0.497974 -0.409375
v -0.380000 0.222026 0.449375
v -0.380000 0.280244 0.463891
v 0.380000 0.719756 -0.493891
v 0.380000 0.777974 -0.479375
v 0.380000 0.502026 0.379375
v 0.380000 0.560244 0.393891
v -0.380000 0.719756 -0.493891
v -0.380000 0.777974 -0.479375
v -0.380000 0.502026 0.379375
v -0.380000 0.560244 0.393891
v -0.114679 0.505700 -0.113588
v -0.139765 0.646789 -0.122226
v 0.075895 0.543602 -0.047968
v 0.050809 0.684691 -0.056606
v -0.181449 0.505700 0.080326
v -0.206535 0.646789 0.071688
v 0.009125 0.543602 0.145946
v -0.015961 0.684691 0.137308
v 0.127052 0.494934 -0.104015
v 0.106102 0.643648 -0.115628
v 0.312863 0.529153 -0.001018
v 0.291913 0.677866 -0.012631
v 0.022727 0.494934 0.084191
v 0.001777 0.643648 0.072578
v 0.208538 0.529153 0.187188
v 0.187588 0.677866 0.175575
v 0.014338 0.556633 0.127625
v -0.010696 0.686932 0.120917
v 0.194137 0.593659 0.175802
v 0.169102 0.723957 0.169094
v -0.034782 0.556633 0.310946
v -0.059817 0.686932 0.304238
v 0.145016 0.593659 0.359123
v 0.119981 0.723957 0.352415
v 0.070059 0.539260 0.049363
v 0.046283 0.672980 0.041176
v 0.250681 0.575182 0.111556
v 0.226905 0.708903 0.103369
v 0.006775 0.539260 0.233151
v -0.017001 0.672980 0.224964
v 0.187397 0.575182 0.295344
v 0.163621 0.708903 0.287157
v 0.310268 0.510286 0.273936
v 0.310209 0.652130 0.272823
v 0.320873 0.511878 0.476292
v 0.320814 0.653722 0.475179
v 0.107905 0.510286 0.284541
v 0.107847 0.652130 0.283428
v 0.118510 0.511878 0.486897
v 0.118452 0.653722 0.485784
v 0.106220 0.493689 -0.124943
v 0.080256 0.628820 -0.131900
v 0.292686 0.532088 -0.074979
v 0.266723 0.667218 -0.081936
v 0.055277 0.493689 0.065176
v 0.029314 0.628820 0.058219
v 0.241744 0.532088 0.115140
v 0.215780 0.667218 0.108183
v -0.203055 0.504137 0.295162
v -0.215411 0.614922 0.285851
v -0.076659 0.526238 0.390407
v -0.089015 0.637023 0.381096
v -0.299225 0.504137 0.422783
v -0.311581 0.614922 0.413473
v -0.172829 0.526238 0.518029
v -0.185185 0.637023 0.508718
v 0.155351 0.602432 -0.338678
v 0.143394 0.703103 -0.347051
v 0.273158 0.623284 -0.256189
v 0.261201 0.723956 -0.264561
v 0.071999 0.602432 -0.219639
v 0.060042 0.703103 -0.228011
v 0.189806 0.623284 -0.137149
v 0.177849 0.723956 -0.145522
v 0.037156 0.630195 -0.192573
v 0.033492 0.729553 -0.199183
v 0.105970 0.640992 -0.068429
v 0.102306 0.740350 -0.075040
v -0.087346 0.630195 -0.123560
v -0.091010 0.729553 -0.130171
v -0.018532 0.640992 0.000583
v -0.022196 0.740350 -0.006027
v -0.003735 0.675633 -0.292179
v -0.016902 0.764418 -0.298888
v 0.109276 0.696744 -0.234597
v 0.096109 0.785529 -0.241306
v -0.062109 0.675633 -0.177614
v -0.075276 0.764418 -0.184323
v 0.050902 0.696744 -0.120032
v 0.037735 0.785529 -0.126741
v -0.171808 0.609319 -0.278644
v -0.184826 0.701725 -0.285860
v -0.056351 0.630582 -0.214645
v -0.069368 0.722988 -0.221861
v -0.236632 0.609319 -0.161699
v -0.249649 0.701725 -0.168915
v -0.121174 0.630582 -0.097700
v -0.134192 0.722988 -0.104916
vn 1.0000 -0.0000 -0.0000
vn -0.0000 -0.0000 1.0000
vn -1.0000 -0.0000 -0.0000
vn -0.0000 -0.0000 -1.0000
vn -0.0000 -1.0000 -0.0000
vn -0.0000 1.0000 -0.0000
vn -0.0000 -0.3090 0.9511
vn -0.0000 -0.8090 0.5878
vn -0.0000 -0.8090 -0.5878
vn -0.0000 -0.3090 -0.9511
vn -0.0000 0.3090 -0.9511
vn -0.0000 0.8090 -0.5878
vn -0.0000 0.8090 0.5878
vn -0.0000 0.3090 0.9511
vn -0.0000 -0.2419 0.9703
vn -0.0000 0.2419 -0.9703
vn -0.0000 -0.9703 -0.2419
vn -0.0000 0.9703 0.2419
vn 0.3256 -0.0000 -0.9455
vn 0.9292 0.1848 0.3200
vn -0.3256 -0.0000 0.9455
vn -0.9292 -0.1848 -0.3200
vn 0.1747 -0.9828 0.0602
vn -0.1747 0.9828 -0.0602
vn 0.4848 -0.0000 -0.8746
vn 0.8635 0.1590 0.4786
vn -0.4848 -0.0000 0.8746
vn -0.8635 -0.1590 -0.4786
vn 0.1391 -0.9873 0.0771
vn -0.1391 0.9873 -0.0771
vn 0.2588 -0.0000 -0.9659
vn 0.9474 0.1951 0.2538
vn -0.2588 -0.0000 0.9659
vn -0.9474 -0.1951 -0.2538
vn 0.1884 -0.9808 0.0505
vn -0.1884 0.9808 -0.0505
vn 0.9986 -0.0000 -0.0523
vn 0.0523 0.0079 0.9986
vn -0.9986 -0.0000 0.0523
vn -0.0523 -0.0079 -0.9986
vn 0.0004 -1.0000 0.0078
vn -0.0004 1.0000 -0.0078
vn 0.6018 -0.0000 -0.7986
vn 0.7910 0.1383 0.5960
vn -0.6018 -0.0000 0.7986
vn -0.7910 -0.1383 -0.5960
vn 0.1105 -0.9904 0.0832
vn -0.1105 0.9904 -0.0832
vn 0.5736 -0.0000 -0.8192
vn 0.8107 0.1435 0.5676
vn -0.5736 -0.0000 0.8192
vn -0.8107 -0.1435 -0.5676
vn 0.1175 -0.9897 0.0823
vn -0.1175 0.9897 -0.0823
vn 0.8746 -0.0000 -0.4848
vn 0.4834 0.0758 0.8721
vn -0.8746 -0.0000 0.4848
vn -0.4834 -0.0758 -0.8721
vn 0.0368 -0.9971 0.0663
vn -0.0368 0.9971 -0.0663
vn 0.4540 -0.0000 -0.8910
vn 0.8789 0.1642 0.4478
vn -0.4540 -0.0000 0.8910
vn -0.8789 -0.1642 -0.4478
vn 0.1463 -0.9864 0.0745
vn -0.1463 0.9864 -0.0745
vt 0.000000 -4.937429
vt 1.000000 -5.937429
vt 0.000000 -5.937429
vt -3.750000 -4.937429
vt -2.750000 -5.937429
vt -3.750000 -5.937429
vt 1.000000 -4.937429
vt -2.750000 -4.937429
vt -2.750000 1.000000
vt -3.750000 0.000000
vt -3.750000 1.000000
vt -2.750000 0.000000
vt 3.750000 -4.937429
vt 4.750000 -5.937429
vt 3.750000 -5.937429
vt 4.750000 -4.937429
vt 4.750000 1.000000
vt 3.750000 0.000000
vt 3.750000 1.000000
vt 4.750000 0.000000
vt 0.077273 -5.520763
vt 0.159091 -6.354096
vt 0.077273 -6.354096
vt -4.875000 -5.520763
vt 5.875000 -6.354096
vt -4.875000 -6.354096
vt 0.159091 -5.520763
vt 5.875000 -5.520763
vt 5.875000 0.159091
vt -4.875000 0.077273
vt -4.875000 0.159091
vt 5.875000 0.077273
vt 0.459091 -5.520763
vt 0.540909 -6.354096
vt 0.459091 -6.354096
vt 0.540909 -5.520763
vt 5.875000 0.540909
vt -4.875000 0.459091
vt -4.875000 0.540909
vt 5.875000 0.459091
vt 0.840909 -5.520763
vt 0.922727 -6.354096
vt 0.840909 -6.354096
vt 0.922727 -5.520763
vt 5.875000 0.922727
vt -4.875000 0.840909
vt -4.875000 0.922727
vt 5.875000 0.840909
vt -4.187500 -3.270762
vt -3.312500 -4.838190
vt -4.187500 -4.838190
vt -4.187500 -5.806913
vt -3.312500 0.272221
vt -4.187500 0.182325
vt -4.187500 0.272221
vt -3.312500 -5.806913
vt -3.312500 -3.270762
vt -4.187500 -1.703335
vt -3.312500 -0.734612
vt -4.187500 -0.734612
vt -3.312500 0.182325
vt 0.109598 -4.838190
vt 0.182325 -5.806913
vt 0.272221 -5.806913
vt -3.312500 -1.703335
vt 0.182325 -0.734612
vt 0.272221 -0.734612
vt 0.344948 -1.703335
vt -3.312500 0.817675
vt -4.187500 0.727779
vt -4.187500 0.817675
vt -3.312500 0.727779
vt 0.655052 -4.838190
vt 0.727779 -5.806913
vt 0.817675 -5.806913
vt 0.727779 -0.734612
vt 0.817675 -0.734612
vt 0.890402 -1.703335
vt 5.187500 -3.270762
vt 4.312500 -4.838190
vt 4.312500 -3.270762
vt 5.187500 -4.838190
vt 4.312500 -5.806913
vt 5.187500 0.272221
vt 4.312500 0.182325
vt 4.312500 0.272221
vt 5.187500 -5.806913
vt 4.312500 -1.703335
vt 5.187500 -1.703335
vt 4.312500 -0.734612
vt 5.187500 0.182325
vt 5.187500 -0.734612
vt 5.187500 0.817675
vt 4.312500 0.727779
vt 4.312500 0.817675
vt 5.187500 0.727779
vt 0.195455 -2.687429
vt 0.259091 -3.854096
vt 0.195455 -3.854096
vt -4.125000 -2.687429
vt 5.125000 -3.854096
vt -4.125000 -3.854096
vt 0.259091 -2.687429
vt 5.125000 -2.687429
vt 5.125000 0.259091
vt -4.125000 0.195455
vt -4.125000 0.259091
vt 5.125000 0.195455
vt 0.740909 -2.687429
vt 0.804545 -3.854096
vt 0.740909 -3.854096
vt 0.804545 -2.687429
vt 5.125000 0.804545
vt -4.125000 0.740909
vt -4.125000 0.804545
vt 5.125000 0.740909
vt 0.090500 0.238594
vt 0.945864 3.886549
vt 0.849095 -3.228954
vt -3.875000 3.886549
vt 4.875000 -3.228954
vt -3.875000 -3.228954
vt 4.875000 7.354096
vt -3.875000 0.238594
vt 4.875000 0.238594
vt 4.875000 3.886549
vt 0.114645 1.058504
vt 0.921719 -1.600029
vt 0.908523 -2.570325
vt -4.250000 -1.600029
vt 5.250000 -2.570325
vt -4.250000 -2.570325
vt 5.250000 2.028800
vt -4.250000 1.058504
vt 5.250000 1.058504
vt 5.250000 -1.600029
vt 0.051008 5.725171
vt 0.858083 3.066638
vt 0.844887 2.096342
vt -4.250000 3.066638
vt 5.250000 2.096342
vt -4.250000 2.096342
vt 5.250000 6.695467
vt -4.250000 5.725171
vt 5.250000 5.725171
vt 5.250000 3.066638
vt 2.247064 4.509048
vt -0.448690 2.789271
vt 1.933488 2.157569
vt -0.135115 5.140749
vt 0.385937 2.789271
vt 3.081690 4.509048
vt 2.768115 2.157569
vt 0.699512 5.140749
vt -0.826270 4.456698
vt -3.410783 2.548453
vt -1.088144 1.978140
vt -3.148909 5.027012
vt -2.106730 2.548453
vt 0.477783 4.456698
vt 0.215909 1.978140
vt -1.844856 5.027012
vt 0.633705 5.178099
vt -1.926715 3.623547
vt 0.320769 3.006450
vt -1.613779 5.795196
vt -1.312706 3.623547
vt 1.247715 5.178099
vt 0.934778 3.006450
vt -1.312706 0.826476
vt 0.320769 0.616023
vt -1.926715 0.659820
vt -0.999769 0.820377
vt 0.633705 0.609924
vt 1.247715 0.776580
vt -0.078532 4.945579
vt -2.633509 3.315612
vt -0.375732 2.716898
vt -2.336310 5.544292
vt -1.842468 3.315612
vt 0.712509 4.945579
vt 0.415309 2.716898
vt -1.545269 5.544292
vt 0.748021 4.598073
vt 0.932992 2.260537
vt 0.749032 2.234012
vt -3.510181 4.624598
vt -0.981381 2.260537
vt -3.510911 2.260537
vt 0.942634 2.260537
vt 0.757662 4.598073
vt 0.758674 2.234012
vt -0.848819 2.234012
vt -3.377619 4.598073
vt -3.378347 2.234012
vt -0.981381 0.942634
vt -3.378347 0.749032
vt -3.510911 0.932992
vt -0.980653 0.941622
vt -3.377619 0.748021
vt -0.848090 0.757662
vt -0.503205 4.209564
vt -3.158574 2.597364
vt -0.827746 1.957384
vt -2.834033 4.849545
vt -2.521795 2.597364
vt 0.133574 4.209564
vt -0.190967 1.957384
vt -2.521795 0.604673
vt -0.827746 0.386415
vt -3.158574 0.431837
vt -2.197254 0.598348
vt -0.503205 0.380091
vt 0.133574 0.552927
vt 3.192633 3.977931
vt 1.458242 2.499878
vt 3.038185 2.131516
vt 1.612690 4.346294
vt 2.660367 2.499878
vt 4.394759 3.977931
vt 4.240310 2.131516
vt 2.814816 4.346294
vt -1.292425 5.447626
vt -2.914477 4.117310
vt -1.441886 3.769771
vt -2.765016 5.795165
vt -1.872575 4.117310
vt -0.250523 5.447626
vt -0.399984 3.769771
vt -1.723114 5.795165
vt 0.081349 5.888456
vt -0.824626 4.412441
vt 0.035547 4.232490
vt -0.778824 6.068408
vt 0.731651 4.412441
vt 1.637626 5.888456
vt 1.591824 4.232490
vt 0.777453 6.068408
vt 0.711274 6.469533
vt -0.865951 5.341643
vt 0.546685 4.989791
vt -0.701362 6.821385
vt -0.136275 5.341643
vt 1.440951 6.469533
vt 1.276362 4.989791
vt 0.028315 6.821385
vt 2.810319 5.424660
vt 1.204382 4.238935
vt 2.647599 3.884560
vt 1.367103 5.779036
vt 2.014681 4.238935
vt 3.620618 5.424660
vt 3.457897 3.884560
vt 2.177401 5.779036
vt 0.344948 -4.838190
vt 0.372727 -3.270762
vt 0.109598 -1.703335
vt 0.081818 -3.270762
vt 0.890402 -4.838190
vt 0.918182 -3.270762
vt 0.655052 -1.703335
vt 0.627273 -3.270762
vt 0.187269 7.354096
vt -3.875000 7.354096
vt 0.127841 2.028800
vt -4.250000 2.028800
vt 0.064204 6.695467
vt -4.250000 6.695467
vt -0.999769 5.795196
vt 0.934778 0.782678
vt -1.613779 0.653722
vt 0.931981 4.624598
vt -0.980653 4.624598
vt 0.941622 4.624598
vt -0.848090 4.598073
vt -0.848819 0.758674
vt -3.510181 0.931981
vt -2.197254 4.849545
vt -0.190967 0.559251
vt -2.834033 0.425512
s 0
usemtl iron
f 2/1/1 3/2/1 1/3/1
f 4/4/2 7/5/2 3/6/2
f 8/7/3 5/3/3 7/2/3
f 6/8/4 1/6/4 5/5/4
f 7/9/5 1/10/5 3/11/5
f 4/11/6 6/12/6 8/9/6
f 10/1/1 11/2/1 9/3/1
f 12/13/2 15/14/2 11/15/2
f 16/7/3 13/3/3 15/2/3
f 14/16/4 9/15/4 13/14/4
f 15/17/5 9/18/5 11/19/5
f 12/19/6 14/20/6 16/17/6
f 41/49/7 44/50/7 43/51/7
f 44/50/8 45/52/8 43/51/8
f 46/53/5 47/54/5 45/55/5
f 48/56/9 49/51/9 47/52/9
f 50/50/10 51/49/10 49/51/10
f 52/57/11 53/58/11 51/49/11
f 53/58/12 56/59/12 55/60/12
f 56/61/6 57/55/6 55/54/6
f 50/62/3 48/63/3 46/64/3
f 58/59/13 59/58/13 57/60/13
f 60/65/14 41/49/14 59/58/14
f 55/66/1 57/67/1 59/68/1
f 61/49/7 64/50/7 63/51/7
f 64/50/8 65/52/8 63/51/8
f 66/69/5 67/70/5 65/71/5
f 68/56/9 69/51/9 67/52/9
f 70/50/10 71/49/10 69/51/10
f 72/57/11 73/58/11 71/49/11
f 74/65/12 75/60/12 73/58/12
f 76/72/6 77/71/6 75/70/6
f 70/73/3 68/74/3 66/75/3
f 78/59/13 79/58/13 77/60/13
f 80/65/14 61/49/14 79/58/14
f 75/76/1 77/77/1 79/78/1
f 82/79/7 83/80/7 81/81/7
f 84/82/8 85/83/8 83/80/8
f 86/84/5 87/85/5 85/86/5
f 88/87/9 89/80/9 87/83/9
f 90/82/10 91/81/10 89/80/10
f 92/79/11 93/88/11 91/81/11
f 94/89/12 95/90/12 93/88/12
f 96/91/6 97/86/6 95/85/6
f 90/62/3 88/63/3 86/64/3
f 98/92/13 99/88/13 97/90/13
f 100/89/14 81/81/14 99/88/14
f 95/66/1 97/67/1 99/68/1
f 102/79/7 103/80/7 101/81/7
f 104/82/8 105/83/8 103/80/8
f 106/93/5 107/94/5 105/95/5
f 108/87/9 109/80/9 107/83/9
f 110/82/10 111/81/10 109/80/10
f 112/79/11 113/88/11 111/81/11
f 114/89/12 115/90/12 113/88/12
f 116/96/6 117/95/6 115/94/6
f 110/73/3 108/74/3 106/75/3
f 118/92/13 119/88/13 117/90/13
f 120/89/14 101/81/14 119/88/14
f 115/76/1 117/77/1 119/78/1
f 122/97/1 123/98/1 121/99/1
f 124/100/2 127/101/2 123/102/2
f 128/103/3 125/99/3 127/98/3
f 126/104/4 121/102/4 125/101/4
f 127/105/5 121/106/5 123/107/5
f 124/107/6 126/108/6 128/105/6
f 130/109/1 131/110/1 129/111/1
f 132/100/2 135/101/2 131/102/2
f 136/112/3 133/111/3 135/110/3
f 134/104/4 129/102/4 133/101/4
f 135/113/5 129/114/5 131/115/5
f 132/115/6 134/116/6 136/113/6
f 145/127/1 148/128/1 147/129/1
f 148/130/15 151/131/15 147/132/15
f 152/128/3 149/127/3 151/129/3
f 150/133/16 145/134/16 149/135/16
f 151/131/17 145/134/17 147/132/17
f 148/130/18 150/133/18 152/136/18
f 153/137/1 156/138/1 155/139/1
f 156/140/15 159/141/15 155/142/15
f 160/138/3 157/137/3 159/139/3
f 158/143/16 153/144/16 157/145/16
f 159/141/17 153/144/17 155/142/17
f 156/140/18 158/143/18 160/146/18
f 2/1/1 4/7/1 3/2/1
f 4/4/2 8/8/2 7/5/2
f 8/7/3 6/1/3 5/3/3
f 6/8/4 2/4/4 1/6/4
f 7/9/5 5/12/5 1/10/5
f 4/11/6 2/10/6 6/12/6
f 10/1/1 12/7/1 11/2/1
f 12/13/2 16/16/2 15/14/2
f 16/7/3 14/1/3 13/3/3
f 14/16/4 10/13/4 9/15/4
f 15/17/5 13/20/5 9/18/5
f 12/19/6 10/18/6 14/20/6
f 41/49/7 42/57/7 44/50/7
f 44/50/8 46/56/8 45/52/8
f 46/53/5 48/61/5 47/54/5
f 48/56/9 50/50/9 49/51/9
f 50/50/10 52/57/10 51/49/10
f 52/57/11 54/65/11 53/58/11
f 53/58/12 54/65/12 56/59/12
f 56/61/6 58/53/6 57/55/6
f 46/64/3 44/255/3 50/62/3
f 44/255/3 42/256/3 50/62/3
f 42/256/3 60/68/3 54/257/3
f 60/68/3 58/67/3 54/257/3
f 58/67/3 56/66/3 54/257/3
f 54/257/3 52/258/3 42/256/3
f 52/258/3 50/62/3 42/256/3
f 58/59/13 60/65/13 59/58/13
f 60/65/14 42/57/14 41/49/14
f 59/68/1 41/256/1 51/258/1
f 41/256/1 43/255/1 51/258/1
f 43/255/1 45/64/1 47/63/1
f 47/63/1 49/62/1 43/255/1
f 49/62/1 51/258/1 43/255/1
f 51/258/1 53/257/1 59/68/1
f 53/257/1 55/66/1 59/68/1
f 61/49/7 62/57/7 64/50/7
f 64/50/8 66/56/8 65/52/8
f 66/69/5 68/72/5 67/70/5
f 68/56/9 70/50/9 69/51/9
f 70/50/10 72/57/10 71/49/10
f 72/57/11 74/65/11 73/58/11
f 74/65/12 76/59/12 75/60/12
f 76/72/6 78/69/6 77/71/6
f 66/75/3 64/259/3 70/73/3
f 64/259/3 62/260/3 70/73/3
f 62/260/3 80/78/3 74/261/3
f 80/78/3 78/77/3 74/261/3
f 78/77/3 76/76/3 74/261/3
f 74/261/3 72/262/3 62/260/3
f 72/262/3 70/73/3 62/260/3
f 78/59/13 80/65/13 79/58/13
f 80/65/14 62/57/14 61/49/14
f 79/78/1 61/260/1 71/262/1
f 61/260/1 63/259/1 71/262/1
f 63/259/1 65/75/1 67/74/1
f 67/74/1 69/73/1 63/259/1
f 69/73/1 71/262/1 63/259/1
f 71/262/1 73/261/1 79/78/1
f 73/261/1 75/76/1 79/78/1
f 82/79/7 84/82/7 83/80/7
f 84/82/8 86/87/8 85/83/8
f 86/84/5 88/91/5 87/85/5
f 88/87/9 90/82/9 89/80/9
f 90/82/10 92/79/10 91/81/10
f 92/79/11 94/89/11 93/88/11
f 94/89/12 96/92/12 95/90/12
f 96/91/6 98/84/6 97/86/6
f 86/64/3 84/255/3 90/62/3
f 84/255/3 82/256/3 90/62/3
f 82/256/3 100/68/3 94/257/3
f 100/68/3 98/67/3 94/257/3
f 98/67/3 96/66/3 94/257/3
f 94/257/3 92/258/3 82/256/3
f 92/258/3 90/62/3 82/256/3
f 98/92/13 100/89/13 99/88/13
f 100/89/14 82/79/14 81/81/14
f 99/68/1 81/256/1 91/258/1
f 81/256/1 83/255/1 91/258/1
f 83/255/1 85/64/1 87/63/1
f 87/63/1 89/62/1 83/255/1
f 89/62/1 91/258/1 83/255/1
f 91/258/1 93/257/1 99/68/1
f 93/257/1 95/66/1 99/68/1
f 102/79/7 104/82/7 103/80/7
f 104/82/8 106/87/8 105/83/8
f 106/93/5 108/96/5 107/94/5
f 108/87/9 110/82/9 109/80/9
f 110/82/10 112/79/10 111/81/10
f 112/79/11 114/89/11 113/88/11
f 114/89/12 116/92/12 115/90/12
f 116/96/6 118/93/6 117/95/6
f 106/75/3 104/259/3 110/73/3
f 104/259/3 102/260/3 110/73/3
f 102/260/3 120/78/3 114/261/3
f 120/78/3 118/77/3 114/261/3
f 118/77/3 116/76/3 114/261/3
f 114/261/3 112/262/3 102/260/3
f 112/262/3 110/73/3 102/260/3
f 118/92/13 120/89/13 119/88/13
f 120/89/14 102/79/14 101/81/14
f 119/78/1 101/260/1 111/262/1
f 101/260/1 103/259/1 111/262/1
f 103/259/1 105/75/1 107/74/1
f 107/74/1 109/73/1 103/259/1
f 109/73/1 111/262/1 103/259/1
f 111/262/1 113/261/1 119/78/1
f 113/261/1 115/76/1 119/78/1
f 122/97/1 124/103/1 123/98/1
f 124/100/2 128/104/2 127/101/2
f 128/103/3 126/97/3 125/99/3
f 126/104/4 122/100/4 121/102/4
f 127/105/5 125/108/5 121/106/5
f 124/107/6 122/106/6 126/108/6
f 130/109/1 132/112/1 131/110/1
f 132/100/2 136/104/2 135/101/2
f 136/112/3 134/109/3 133/111/3
f 134/104/4 130/100/4 129/102/4
f 135/113/5 133/116/5 129/114/5
f 132/115/6 130/114/6 134/116/6
f 145/127/1 146/265/1 148/128/1
f 148/130/15 152/136/15 151/131/15
f 152/128/3 150/265/3 149/127/3
f 150/133/16 146/266/16 145/134/16
f 151/131/17 149/135/17 145/134/17
f 148/130/18 146/266/18 150/133/18
f 153/137/1 154/267/1 156/138/1
f 156/140/15 160/146/15 159/141/15
f 160/138/3 158/267/3 157/137/3
f 158/143/16 154/268/16 153/144/16
f 159/141/17 157/145/17 153/144/17
f 156/140/18 154/268/18 158/143/18
usemtl wood
f 18/21/1 19/22/1 17/23/1
f 20/24/2 23/25/2 19/26/2
f 24/27/3 21/23/3 23/22/3
f 22/28/4 17/26/4 21/25/4
f 23/29/5 17/30/5 19/31/5
f 20/31/6 22/32/6 24/29/6
f 26/33/1 27/34/1 25/35/1
f 28/24/2 31/25/2 27/26/2
f 32/36/3 29/35/3 31/34/3
f 30/28/4 25/26/4 29/25/4
f 31/37/5 25/38/5 27/39/5
f 28/39/6 30/40/6 32/37/6
f 34/41/1 35/42/1 33/43/1
f 36/24/2 39/25/2 35/26/2
f 40/44/3 37/43/3 39/42/3
f 38/28/4 33/26/4 37/25/4
f 39/45/5 33/46/5 35/47/5
f 36/47/6 38/48/6 40/45/6
f 137/117/1 140/118/1 139/119/1
f 140/120/15 143/121/15 139/122/15
f 144/118/3 141/117/3 143/119/3
f 142/123/16 137/124/16 141/125/16
f 143/121/17 137/124/17 139/122/17
f 140/120/18 142/123/18 144/126/18
f 18/21/1 20/27/1 19/22/1
f 20/24/2 24/28/2 23/25/2
f 24/27/3 22/21/3 21/23/3
f 22/28/4 18/24/4 17/26/4
f 23/29/5 21/32/5 17/30/5
f 20/31/6 18/30/6 22/32/6
f 26/33/1 28/36/1 27/34/1
f 28/24/2 32/28/2 31/25/2
f 32/36/3 30/33/3 29/35/3
f 30/28/4 26/24/4 25/26/4
f 31/37/5 29/40/5 25/38/5
f 28/39/6 26/38/6 30/40/6
f 34/41/1 36/44/1 35/42/1
f 36/24/2 40/28/2 39/25/2
f 40/44/3 38/41/3 37/43/3
f 38/28/4 34/24/4 33/26/4
f 39/45/5 37/48/5 33/46/5
f 36/47/6 34/46/6 38/48/6
f 137/117/1 138/263/1 140/118/1
f 140/120/15 144/126/15 143/121/15
f 144/118/3 142/263/3 141/117/3
f 142/123/16 138/264/16 137/124/16
f 143/121/17 141/125/17 137/124/17
f 140/120/18 138/264/18 142/123/18
usemtl ore
f 162/147/19 163/148/19 161/149/19
f 164/150/20 167/151/20 163/148/20
f 167/151/21 166/152/21 165/153/21
f 165/153/22 162/147/22 161/149/22
f 167/151/23 161/149/23 163/148/23
f 168/154/24 162/147/24 166/152/24
f 170/155/25 171/156/25 169/157/25
f 172/158/26 175/159/26 171/156/26
f 175/159/27 174/160/27 173/161/27
f 173/161/28 170/155/28 169/157/28
f 175/159/29 169/157/29 171/156/29
f 176/162/30 170/155/30 174/160/30
f 178/163/31 179/164/31 177/165/31
f 180/166/32 183/167/32 179/164/32
f 183/167/33 182/168/33 181/169/33
f 181/169/34 178/163/34 177/165/34
f 183/170/35 177/171/35 179/172/35
f 184/173/36 178/174/36 182/175/36
f 186/176/19 187/177/19 185/178/19
f 188/179/20 191/180/20 187/177/20
f 191/180/21 190/181/21 189/182/21
f 189/182/22 186/176/22 185/178/22
f 191/180/23 185/178/23 187/177/23
f 192/183/24 186/176/24 190/181/24
f 194/184/37 195/185/37 193/186/37
f 196/187/38 199/188/38 195/189/38
f 199/190/39 198/191/39 197/192/39
f 197/193/40 194/194/40 193/195/40
f 199/196/41 193/197/41 195/198/41
f 200/199/42 194/200/42 198/201/42
f 202/202/31 203/203/31 201/204/31
f 204/205/32 207/206/32 203/203/32
f 207/206/33 206/207/33 205/208/33
f 205/208/34 202/202/34 201/204/34
f 207/209/35 201/210/35 203/211/35
f 208/212/36 202/213/36 206/214/36
f 210/215/43 211/216/43 209/217/43
f 212/218/44 215/219/44 211/216/44
f 215/219/45 214/220/45 213/221/45
f 213/221/46 210/215/46 209/217/46
f 215/219/47 209/217/47 211/216/47
f 216/222/48 210/215/48 214/220/48
f 162/147/19 164/150/19 163/148/19
f 164/150/20 168/154/20 167/151/20
f 167/151/21 168/154/21 166/152/21
f 165/153/22 166/152/22 162/147/22
f 167/151/23 165/153/23 161/149/23
f 168/154/24 164/150/24 162/147/24
f 170/155/25 172/158/25 171/156/25
f 172/158/26 176/162/26 175/159/26
f 175/159/27 176/162/27 174/160/27
f 173/161/28 174/160/28 170/155/28
f 175/159/29 173/161/29 169/157/29
f 176/162/30 172/158/30 170/155/30
f 178/163/31 180/166/31 179/164/31
f 180/166/32 184/269/32 183/167/32
f 183/167/33 184/269/33 182/168/33
f 181/169/34 182/168/34 178/163/34
f 183/170/35 181/270/35 177/171/35
f 184/173/36 180/271/36 178/174/36
f 186/176/19 188/179/19 187/177/19
f 188/179/20 192/183/20 191/180/20
f 191/180/21 192/183/21 190/181/21
f 189/182/22 190/181/22 186/176/22
f 191/180/23 189/182/23 185/178/23
f 192/183/24 188/179/24 186/176/24
f 194/184/37 196/272/37 195/185/37
f 196/187/38 200/273/38 199/188/38
f 199/190/39 200/274/39 198/191/39
f 197/193/40 198/275/40 194/194/40
f 199/196/41 197/276/41 193/197/41
f 200/199/42 196/277/42 194/200/42
f 202/202/31 204/205/31 203/203/31
f 204/205/32 208/278/32 207/206/32
f 207/206/33 208/278/33 206/207/33
f 205/208/34 206/207/34 202/202/34
f 207/209/35 205/279/35 201/210/35
f 208/212/36 204/280/36 202/213/36
f 210/215/43 212/218/43 211/216/43
f 212/218/44 216/222/44 215/219/44
f 215/219/45 216/222/45 214/220/45
f 213/221/46 214/220/46 210/215/46
f 215/219/47 213/221/47 209/217/47
f 216/222/48 212/218/48 210/215/48
usemtl coal
f 218/223/49 219/224/49 217/225/49
f 220/226/50 223/227/50 219/224/50
f 223/227/51 222/228/51 221/229/51
f 221/229/52 218/223/52 217/225/52
f 223/227/53 217/225/53 219/224/53
f 224/230/54 218/223/54 222/228/54
f 226/231/55 227/232/55 225/233/55
f 228/234/56 231/235/56 227/232/56
f 231/235/57 230/236/57 229/237/57
f 229/237/58 226/231/58 225/233/58
f 231/235/59 225/233/59 227/232/59
f 232/238/60 226/231/60 230/236/60
f 234/239/61 235/240/61 233/241/61
f 236/242/62 239/243/62 235/240/62
f 239/243/63 238/244/63 237/245/63
f 237/245/64 234/239/64 233/241/64
f 239/243/65 233/241/65 235/240/65
f 240/246/66 234/239/66 238/244/66
f 242/247/25 243/248/25 241/249/25
f 244/250/26 247/251/26 243/248/26
f 247/251/27 246/252/27 245/253/27
f 245/253/28 242/247/28 241/249/28
f 247/251/29 241/249/29 243/248/29
f 248/254/30 242/247/30 246/252/30
f 218/223/49 220/226/49 219/224/49
f 220/226/50 224/230/50 223/227/50
f 223/227/51 224/230/51 222/228/51
f 221/229/52 222/228/52 218/223/52
f 223/227/53 221/229/53 217/225/53
f 224/230/54 220/226/54 218/223/54
f 226/231/55 228/234/55 227/232/55
f 228/234/56 232/238/56 231/235/56
f 231/235/57 232/238/57 230/236/57
f 229/237/58 230/236/58 226/231/58
f 231/235/59 229/237/59 225/233/59
f 232/238/60 228/234/60 226/231/60
f 234/239/61 236/242/61 235/240/61
f 236/242/62 240/246/62 239/243/62
f 239/243/63 240/246/63 238/244/63
f 237/245/64 238/244/64 234/239/64
f 239/243/65 237/245/65 233/241/65
f 240/246/66 236/242/66 234/239/66
f 242/247/25 244/250/25 243/248/25
f 244/250/26 248/254/26 247/251/26
f 247/251/27 248/254/27 246/252/27
f 245/253/28 246/252/28 242/247/28
f 247/251/29 245/253/29 241/249/29
f 248/254/30 244/250/30 242/247/30
