# Blender 4.5.10 LTS
# www.blender.org
mtllib stoker_ore_trough.mtl
o stoker_ore_trough
v 0.680000 0.000000 -0.330000
v 0.680000 0.140000 -0.330000
v 0.680000 0.000000 0.330000
v 0.680000 0.140000 0.330000
v -0.680000 0.000000 -0.330000
v -0.680000 0.140000 -0.330000
v -0.680000 0.000000 0.330000
v -0.680000 0.140000 0.330000
v 0.640000 0.120000 -0.290000
v 0.640000 0.520000 -0.290000
v 0.640000 0.120000 0.290000
v 0.640000 0.520000 0.290000
v -0.640000 0.120000 -0.290000
v -0.640000 0.520000 -0.290000
v -0.640000 0.120000 0.290000
v -0.640000 0.520000 0.290000
v 0.414805 0.480000 0.277164
v 0.332145 0.700000 0.077606
v 0.185195 0.480000 0.277164
v 0.267855 0.700000 0.077606
v 0.022836 0.480000 0.114805
v 0.222394 0.700000 0.032145
v 0.022836 0.480000 -0.114805
v 0.222394 0.700000 -0.032145
v 0.185195 0.480000 -0.277164
v 0.267855 0.700000 -0.077606
v 0.414805 0.480000 -0.277164
v 0.332145 0.700000 -0.077606
v 0.577164 0.480000 -0.114805
v 0.377606 0.700000 -0.032145
v 0.577164 0.480000 0.114805
v 0.377606 0.700000 0.032145
v -0.205195 0.480000 0.277164
v -0.287855 0.700000 0.077606
v -0.434805 0.480000 0.277164
v -0.352145 0.700000 0.077606
v -0.597164 0.480000 0.114805
v -0.397606 0.700000 0.032145
v -0.597164 0.480000 -0.114805
v -0.397606 0.700000 -0.032145
v -0.434805 0.480000 -0.277164
v -0.352145 0.700000 -0.077606
v -0.205195 0.480000 -0.277164
v -0.287855 0.700000 -0.077606
v -0.042836 0.480000 -0.114805
v -0.242394 0.700000 -0.032145
v -0.042836 0.480000 0.114805
v -0.242394 0.700000 0.032145
v 0.045000 0.290000 -0.300000
v 0.045000 0.590000 -0.300000
v 0.045000 0.290000 0.300000
v 0.045000 0.590000 0.300000
v -0.045000 0.290000 -0.300000
v -0.045000 0.590000 -0.300000
v -0.045000 0.290000 0.300000
v -0.045000 0.590000 0.300000
v 0.660000 0.490000 -0.330000
v 0.660000 0.590000 -0.330000
v 0.660000 0.490000 -0.240000
v 0.660000 0.590000 -0.240000
v -0.660000 0.490000 -0.330000
v -0.660000 0.590000 -0.330000
v -0.660000 0.490000 -0.240000
v -0.660000 0.590000 -0.240000
v 0.660000 0.490000 0.240000
v 0.660000 0.590000 0.240000
v 0.660000 0.490000 0.330000
v 0.660000 0.590000 0.330000
v -0.660000 0.490000 0.240000
v -0.660000 0.590000 0.240000
v -0.660000 0.490000 0.330000
v -0.660000 0.590000 0.330000
v 0.660000 0.490000 -0.240000
v 0.660000 0.590000 -0.240000
v 0.660000 0.490000 0.240000
v 0.660000 0.590000 0.240000
v 0.570000 0.490000 -0.240000
v 0.570000 0.590000 -0.240000
v 0.570000 0.490000 0.240000
v 0.570000 0.590000 0.240000
v -0.570000 0.490000 -0.240000
v -0.570000 0.590000 -0.240000
v -0.570000 0.490000 0.240000
v -0.570000 0.590000 0.240000
v -0.660000 0.490000 -0.240000
v -0.660000 0.590000 -0.240000
v -0.660000 0.490000 0.240000
v -0.660000 0.590000 0.240000
vn 1.0000 -0.0000 -0.0000
vn -0.0000 -0.0000 1.0000
vn -1.0000 -0.0000 -0.0000
vn -0.0000 -0.0000 -1.0000
vn -0.0000 -1.0000 -0.0000
vn -0.0000 1.0000 -0.0000
vn -0.0000 0.6719 0.7407
vn -0.5237 0.6719 0.5237
vn -0.7407 0.6719 -0.0000
vn -0.5237 0.6719 -0.5237
vn -0.0000 0.6719 -0.7407
vn 0.5237 0.6719 -0.5237
vn 0.7407 0.6719 -0.0000
vn 0.5237 0.6719 0.5237
vt 0.000000 -1.000000
vt 1.000000 -2.000000
vt 0.000000 -2.000000
vt 1.000000 -1.000000
vt 1.000000 1.000000
vt 0.000000 0.000000
vt 0.000000 1.000000
vt 1.000000 0.000000
vt 0.060606 1.714286
vt 0.939394 -1.142857
vt 0.060606 -1.142857
vt 0.029412 1.714286
vt 0.970588 -1.142857
vt 0.029412 -1.142857
vt 0.939394 1.714286
vt 0.970588 1.714286
vt 0.970588 0.939394
vt 0.029412 0.060606
vt 0.029412 0.939394
vt 0.970588 0.060606
vt 0.255775 3.000000
vt 0.363827 1.428571
vt 0.194996 1.428571
vt 0.617585 3.000000
vt 0.673947 1.428571
vt 0.919945 1.428571
vt 0.548705 3.000000
vt 0.326053 1.428571
vt 0.382415 3.000000
vt 0.080055 1.428571
vt 0.303048 3.000000
vt 0.326053 1.428571
vt 0.080055 1.428571
vt 0.336475 0.451295
vt 0.336475 0.548705
vt 0.222349 0.451295
vt 0.451295 3.000000
vt 0.673947 1.428571
vt 0.075615 0.326053
vt 0.075615 0.673947
vt 0.483209 0.326053
vt 0.711658 3.000000
vt 0.819710 1.428571
vt 0.650879 1.428571
vt 0.792357 0.451295
vt 0.792357 0.548705
vt 0.678231 0.451295
vt 0.531497 0.326053
vt 0.531497 0.673947
vt 0.939091 0.326053
vt 0.045455 2.214286
vt 0.954545 0.071429
vt 0.045455 0.071429
vt 0.466912 2.214286
vt 0.533088 0.071429
vt 0.466912 0.071429
vt 0.954545 2.214286
vt 0.533088 2.214286
vt 0.533088 0.954545
vt 0.466912 0.045455
vt 0.466912 0.954545
vt 0.533088 0.045455
vt 0.000000 2.214286
vt 0.136364 1.500000
vt 0.000000 1.500000
vt 0.014706 2.214286
vt 0.985294 1.500000
vt 0.014706 1.500000
vt 0.136364 2.214286
vt 0.985294 2.214286
vt 0.985294 0.136364
vt 0.014706 0.000000
vt 0.014706 0.136364
vt 0.985294 0.000000
vt 0.863636 2.214286
vt 1.000000 1.500000
vt 0.863636 1.500000
vt 1.000000 2.214286
vt 0.985294 1.000000
vt 0.014706 0.863636
vt 0.014706 1.000000
vt 0.985294 0.863636
vt 0.014706 2.214286
vt 0.080882 1.500000
vt 0.014706 1.500000
vt 0.080882 2.214286
vt 0.080882 0.863636
vt 0.014706 0.136364
vt 0.014706 0.863636
vt 0.080882 0.136364
vt 0.919118 2.214286
vt 0.919118 1.500000
vt 0.919118 0.136364
vt 0.919118 0.863636
vt 0.303048 0.617585
vt 0.255775 0.617585
vt 0.222349 0.548705
vt 0.255775 0.382415
vt 0.303048 0.382415
vt 0.194996 0.919945
vt 0.363827 0.919945
vt 0.483209 0.673947
vt 0.363827 0.080055
vt 0.194996 0.080055
vt 0.758930 3.000000
vt 0.758930 0.617585
vt 0.711658 0.617585
vt 0.678231 0.548705
vt 0.711658 0.382415
vt 0.758930 0.382415
vt 0.650879 0.919945
vt 0.819710 0.919945
vt 0.939091 0.673947
vt 0.819710 0.080055
vt 0.650879 0.080055
s 0
usemtl stone
f 2/1/1 3/2/1 1/3/1
f 4/1/2 7/2/2 3/3/2
f 8/4/3 5/3/3 7/2/3
f 6/4/4 1/3/4 5/2/4
f 7/5/5 1/6/5 3/7/5
f 4/7/6 6/8/6 8/5/6
f 10/9/1 11/10/1 9/11/1
f 12/12/2 15/13/2 11/14/2
f 16/15/3 13/11/3 15/10/3
f 14/16/4 9/14/4 13/13/4
f 15/17/5 9/18/5 11/19/5
f 12/19/6 14/20/6 16/17/6
f 2/1/1 4/4/1 3/2/1
f 4/1/2 8/4/2 7/2/2
f 8/4/3 6/1/3 5/3/3
f 6/4/4 2/1/4 1/3/4
f 7/5/5 5/8/5 1/6/5
f 4/7/6 2/6/6 6/8/6
f 10/9/1 12/15/1 11/10/1
f 12/12/2 16/16/2 15/13/2
f 16/15/3 14/9/3 13/11/3
f 14/16/4 10/12/4 9/14/4
f 15/17/5 13/20/5 9/18/5
f 12/19/6 10/18/6 14/20/6
usemtl coal
f 18/21/7 19/22/7 17/23/7
f 20/24/8 21/25/8 19/26/8
f 22/27/9 23/28/9 21/25/9
f 23/28/10 26/29/10 25/30/10
f 26/31/11 27/23/11 25/22/11
f 28/29/12 29/32/12 27/33/12
f 24/34/6 22/35/6 30/36/6
f 30/37/13 31/38/13 29/32/13
f 31/38/14 18/24/14 17/26/14
f 29/39/5 31/40/5 23/41/5
f 18/21/7 20/31/7 19/22/7
f 20/24/8 22/27/8 21/25/8
f 22/27/9 24/37/9 23/28/9
f 23/28/10 24/37/10 26/29/10
f 26/31/11 28/21/11 27/23/11
f 28/29/12 30/37/12 29/32/12
f 22/35/6 20/95/6 18/96/6
f 18/96/6 32/97/6 22/35/6
f 32/97/6 30/36/6 22/35/6
f 30/36/6 28/98/6 26/99/6
f 26/99/6 24/34/6 30/36/6
f 30/37/13 32/27/13 31/38/13
f 31/38/14 32/27/14 18/24/14
f 31/40/5 17/100/5 19/101/5
f 19/101/5 21/102/5 31/40/5
f 21/102/5 23/41/5 31/40/5
f 23/41/5 25/103/5 27/104/5
f 27/104/5 29/39/5 23/41/5
usemtl ore
f 34/42/7 35/43/7 33/44/7
f 36/24/8 37/25/8 35/26/8
f 38/27/9 39/28/9 37/25/9
f 39/28/10 42/29/10 41/30/10
f 41/43/11 44/42/11 43/44/11
f 44/29/12 45/32/12 43/33/12
f 40/45/6 38/46/6 46/47/6
f 46/37/13 47/38/13 45/32/13
f 47/38/14 34/24/14 33/26/14
f 45/48/5 47/49/5 39/50/5
f 34/42/7 36/105/7 35/43/7
f 36/24/8 38/27/8 37/25/8
f 38/27/9 40/37/9 39/28/9
f 39/28/10 40/37/10 42/29/10
f 41/43/11 42/105/11 44/42/11
f 44/29/12 46/37/12 45/32/12
f 38/46/6 36/106/6 34/107/6
f 34/107/6 48/108/6 38/46/6
f 48/108/6 46/47/6 38/46/6
f 46/47/6 44/109/6 42/110/6
f 42/110/6 40/45/6 46/47/6
f 46/37/13 48/27/13 47/38/13
f 47/38/14 48/27/14 34/24/14
f 47/49/5 33/111/5 35/112/5
f 35/112/5 37/113/5 47/49/5
f 37/113/5 39/50/5 47/49/5
f 39/50/5 41/114/5 43/115/5
f 43/115/5 45/48/5 39/50/5
usemtl iron
f 50/51/1 51/52/1 49/53/1
f 52/54/2 55/55/2 51/56/2
f 56/57/3 53/53/3 55/52/3
f 54/58/4 49/56/4 53/55/4
f 55/59/5 49/60/5 51/61/5
f 52/61/6 54/62/6 56/59/6
f 58/63/1 59/64/1 57/65/1
f 60/66/2 63/67/2 59/68/2
f 64/69/3 61/65/3 63/64/3
f 62/70/4 57/68/4 61/67/4
f 63/71/5 57/72/5 59/73/5
f 60/73/6 62/74/6 64/71/6
f 66/75/1 67/76/1 65/77/1
f 68/66/2 71/67/2 67/68/2
f 72/78/3 69/77/3 71/76/3
f 70/70/4 65/68/4 69/67/4
f 71/79/5 65/80/5 67/81/5
f 68/81/6 70/82/6 72/79/6
f 74/69/1 75/77/1 73/64/1
f 76/83/2 79/84/2 75/85/2
f 80/75/3 77/64/3 79/77/3
f 78/86/4 73/85/4 77/84/4
f 79/87/5 73/88/5 75/89/5
f 76/89/6 78/90/6 80/87/6
f 82/69/1 83/77/1 81/64/1
f 84/91/2 87/67/2 83/92/2
f 88/75/3 85/64/3 87/77/3
f 86/70/4 81/92/4 85/67/4
f 87/82/5 81/93/5 83/94/5
f 84/94/6 86/71/6 88/82/6
f 50/51/1 52/57/1 51/52/1
f 52/54/2 56/58/2 55/55/2
f 56/57/3 54/51/3 53/53/3
f 54/58/4 50/54/4 49/56/4
f 55/59/5 53/62/5 49/60/5
f 52/61/6 50/60/6 54/62/6
f 58/63/1 60/69/1 59/64/1
f 60/66/2 64/70/2 63/67/2
f 64/69/3 62/63/3 61/65/3
f 62/70/4 58/66/4 57/68/4
f 63/71/5 61/74/5 57/72/5
f 60/73/6 58/72/6 62/74/6
f 66/75/1 68/78/1 67/76/1
f 68/66/2 72/70/2 71/67/2
f 72/78/3 70/75/3 69/77/3
f 70/70/4 66/66/4 65/68/4
f 71/79/5 69/82/5 65/80/5
f 68/81/6 66/80/6 70/82/6
f 74/69/1 76/75/1 75/77/1
f 76/83/2 80/86/2 79/84/2
f 80/75/3 78/69/3 77/64/3
f 78/86/4 74/83/4 73/85/4
f 79/87/5 77/90/5 73/88/5
f 76/89/6 74/88/6 78/90/6
f 82/69/1 84/75/1 83/77/1
f 84/91/2 88/70/2 87/67/2
f 88/75/3 86/69/3 85/64/3
f 86/70/4 82/91/4 81/92/4
f 87/82/5 85/71/5 81/93/5
f 84/94/6 82/93/6 86/71/6
