# Blender 4.5.10 LTS
# www.blender.org
mtllib stoker_tun_casks.mtl
o stoker_tun_casks
v 0.434611 0.000000 0.333038
v 0.435124 0.009950 0.344730
v 0.437065 0.525000 0.388984
v 0.437485 0.515050 0.398555
v 0.217120 0.000000 0.264513
v 0.209997 0.009950 0.273800
v 0.183038 0.525000 0.308948
v 0.177208 0.515050 0.316550
v 0.094559 0.000000 0.072220
v 0.083134 0.009950 0.074756
v 0.039889 0.525000 0.084352
v 0.030536 0.515050 0.086428
v 0.124275 0.000000 -0.153866
v 0.113893 0.009950 -0.159268
v 0.074597 0.525000 -0.179713
v 0.066099 0.515050 -0.184135
v 0.292365 0.000000 -0.307956
v 0.287884 0.009950 -0.318767
v 0.270924 0.525000 -0.359689
v 0.267256 0.515050 -0.368539
v 0.520176 0.000000 -0.317950
v 0.523693 0.009950 -0.329113
v 0.537004 0.525000 -0.371362
v 0.539883 0.515050 -0.380500
v 0.701114 0.000000 -0.179172
v 0.710983 0.009950 -0.185462
v 0.748338 0.525000 -0.209271
v 0.756417 0.515050 -0.214420
v 0.750515 0.000000 0.043443
v 0.762119 0.009950 0.044968
v 0.806038 0.525000 0.050741
v 0.815537 0.515050 0.051989
v 0.645265 0.000000 0.245730
v 0.653173 0.009950 0.254357
v 0.683107 0.525000 0.287010
v 0.689581 0.515050 0.294072
v 0.421114 0.525000 0.389357
v 0.421142 0.534950 0.398937
v 0.420954 1.050000 0.333357
v 0.420988 1.040050 0.345060
v 0.170580 0.525000 0.298981
v 0.164443 0.534950 0.306338
v 0.206453 1.050000 0.255980
v 0.198956 1.040050 0.264966
v 0.036752 0.525000 0.068709
v 0.027322 0.534950 0.070399
v 0.091873 1.050000 0.058827
v 0.080354 1.040050 0.060892
v 0.082250 0.525000 -0.193713
v 0.073939 0.534950 -0.198480
v 0.130827 1.050000 -0.165852
v 0.120675 1.040050 -0.171675
v 0.285785 0.525000 -0.365494
v 0.282482 0.534950 -0.374488
v 0.305089 1.050000 -0.312927
v 0.301054 1.040050 -0.323912
v 0.552121 0.525000 -0.366257
v 0.555371 0.534950 -0.375269
v 0.533118 1.050000 -0.313579
v 0.537089 1.040050 -0.324588
v 0.756635 0.525000 -0.195643
v 0.764919 0.534950 -0.200457
v 0.708218 1.050000 -0.167505
v 0.718337 1.040050 -0.173385
v 0.803635 0.525000 0.066514
v 0.813075 0.534950 0.068150
v 0.748458 1.050000 0.056947
v 0.759989 1.040050 0.058946
v 0.671127 0.525000 0.297548
v 0.677307 0.534950 0.304870
v 0.635009 1.050000 0.254753
v 0.642557 1.040050 0.263696
v -0.438041 0.000000 0.281751
v -0.437959 0.009949 0.293469
v -0.437710 0.440000 0.329350
v -0.437643 0.430051 0.338916
v -0.619606 0.000000 0.217093
v -0.627075 0.009949 0.226122
v -0.649948 0.440000 0.253769
v -0.656045 0.430051 0.261139
v -0.717131 0.000000 0.050855
v -0.728656 0.009949 0.052970
v -0.763949 0.440000 0.059446
v -0.773358 0.430051 0.061173
v -0.684983 0.000000 -0.139179
v -0.695172 0.009949 -0.144967
v -0.726371 0.440000 -0.162692
v -0.734688 0.430051 -0.167417
v -0.538206 0.000000 -0.264090
v -0.542290 0.009949 -0.275073
v -0.554796 0.440000 -0.308705
v -0.558131 0.430051 -0.317670
v -0.345476 0.000000 -0.265430
v -0.341545 0.009949 -0.276469
v -0.329508 0.440000 -0.310271
v -0.326299 0.430051 -0.319282
v -0.196976 0.000000 -0.142572
v -0.186869 0.009949 -0.148502
v -0.155919 0.440000 -0.166658
v -0.147669 0.430051 -0.171499
v -0.162189 0.000000 0.046996
v -0.150635 0.009949 0.048951
v -0.115256 0.440000 0.054936
v -0.105824 0.430051 0.056531
v -0.257393 0.000000 0.214575
v -0.249798 0.009949 0.223499
v -0.226543 0.440000 0.250825
v -0.220344 0.430051 0.258110
v -0.444327 0.440000 0.329330
v -0.444453 0.449949 0.338894
v -0.443702 0.880000 0.281734
v -0.443856 0.870051 0.293451
v -0.655004 0.440000 0.249500
v -0.661248 0.449949 0.256746
v -0.623931 0.880000 0.213441
v -0.631580 0.870051 0.222318
v -0.765078 0.440000 0.052926
v -0.774519 0.449949 0.054463
v -0.718097 0.880000 0.045277
v -0.729662 0.870051 0.047160
v -0.723044 0.440000 -0.168412
v -0.731265 0.449949 -0.173304
v -0.682138 0.880000 -0.144073
v -0.692208 0.870051 -0.150065
v -0.548571 0.440000 -0.310949
v -0.551724 0.449949 -0.319980
v -0.532880 0.880000 -0.266009
v -0.536743 0.870051 -0.277072
v -0.323296 0.440000 -0.307989
v -0.319907 0.449949 -0.316934
v -0.340163 0.880000 -0.263477
v -0.336011 0.870051 -0.274435
v -0.152628 0.440000 -0.160917
v -0.144282 0.449949 -0.165591
v -0.194160 0.880000 -0.137661
v -0.183936 0.870051 -0.143386
v -0.116425 0.440000 0.061449
v -0.107027 0.449949 0.063234
v -0.163189 0.880000 0.052568
v -0.151677 0.870051 0.054754
v -0.231626 0.440000 0.255063
v -0.225574 0.449949 0.262471
v -0.261741 0.880000 0.218200
v -0.254327 0.870051 0.227275
v 0.769807 0.007151 -0.160886
v 0.769820 0.008461 -0.165632
v 0.792475 0.008616 -0.160753
v 0.769023 0.095932 -0.164714
v 0.768987 0.097142 -0.159941
v 0.791677 0.096087 -0.159835
v 0.768101 0.003665 0.169572
v 0.790768 0.005130 0.169704
v 0.768065 0.004875 0.174344
v 0.767281 0.093656 0.170516
v 0.767268 0.092346 0.175263
v 0.789971 0.092602 0.170622
v -0.804747 -0.007114 -0.169165
v -0.827437 -0.006059 -0.169271
v -0.804733 -0.005804 -0.173912
v -0.805567 0.082877 -0.168220
v -0.805531 0.081668 -0.172993
v -0.828234 0.081412 -0.168353
v -0.806453 -0.010599 0.161292
v -0.806489 -0.009390 0.166065
v -0.829143 -0.009545 0.161186
v -0.807273 0.079392 0.162237
v -0.829940 0.077927 0.162104
v -0.807286 0.078082 0.166983
vn -0.2016 -0.7415 0.6399
vn -0.2228 0.6709 0.7073
vn -0.5658 -0.7415 0.3606
vn -0.6253 0.6709 0.3986
vn -0.6652 -0.7415 -0.0874
vn -0.7352 0.6709 -0.0966
vn -0.4534 -0.7415 -0.4946
vn -0.5011 0.6709 -0.5466
vn -0.0294 -0.7415 -0.6703
vn -0.0325 0.6709 -0.7408
vn 0.4083 -0.7415 -0.5324
vn 0.4513 0.6709 -0.5884
vn 0.6550 -0.7415 -0.1454
vn 0.7239 0.6709 -0.1606
vn 0.5952 -0.7415 0.3097
vn 0.6578 0.6709 0.3423
vn 0.2569 -0.7415 0.6198
vn 0.2839 0.6709 0.6850
vn -0.0000 -1.0000 -0.0000
vn -0.2990 -0.0997 0.9490
vn 0.3810 -0.0997 0.9192
vn -0.0000 1.0000 -0.0000
vn -0.8391 -0.0997 0.5348
vn -0.9865 -0.0997 -0.1297
vn -0.6724 -0.0997 -0.7335
vn -0.0436 -0.0997 -0.9941
vn 0.6056 -0.0997 -0.7895
vn 0.9714 -0.0997 -0.2156
vn 0.8827 -0.0997 0.4593
vn -0.2516 -0.6709 0.6975
vn -0.2277 0.7415 0.6311
vn -0.6411 -0.6709 0.3726
vn -0.5801 0.7415 0.3371
vn -0.7306 -0.6709 -0.1267
vn -0.6611 0.7415 -0.1146
vn -0.4783 -0.6709 -0.5667
vn -0.4327 0.7415 -0.5127
vn -0.0021 -0.6709 -0.7415
vn -0.0019 0.7415 -0.6709
vn 0.4750 -0.6709 -0.5694
vn 0.4298 0.7415 -0.5152
vn 0.7299 -0.6709 -0.1309
vn 0.6604 0.7415 -0.1184
vn 0.6432 -0.6709 0.3689
vn 0.5820 0.7415 0.3338
vn 0.2556 -0.6709 0.6961
vn 0.2313 0.7415 0.6298
vn -0.3376 0.0997 0.9360
vn 0.3430 0.0997 0.9340
vn -0.8603 0.0997 0.5000
vn -0.9804 0.0997 -0.1700
vn -0.6418 0.0997 -0.7604
vn -0.0028 0.0997 -0.9950
vn 0.6374 0.0997 -0.7641
vn 0.9794 0.0997 -0.1756
vn 0.8631 0.0997 0.4950
vn -0.2249 -0.7420 0.6315
vn -0.2489 0.6704 0.6990
vn -0.5782 -0.7420 0.3392
vn -0.6400 0.6704 0.3755
vn -0.6610 -0.7420 -0.1118
vn -0.7316 0.6704 -0.1238
vn -0.4345 -0.7420 -0.5105
vn -0.4809 0.6704 -0.5651
vn -0.0047 -0.7420 -0.6704
vn -0.0052 0.6704 -0.7420
vn 0.4273 -0.7420 -0.5165
vn 0.4730 0.6704 -0.5717
vn 0.6594 -0.7420 -0.1210
vn 0.7298 0.6704 -0.1339
vn 0.5829 -0.7420 0.3312
vn 0.6452 0.6704 0.3665
vn 0.2337 -0.7420 0.6284
vn 0.2586 0.6704 0.6955
vn -0.3338 -0.1011 0.9372
vn 0.3468 -0.1011 0.9325
vn -0.8581 -0.1011 0.5034
vn -0.9809 -0.1011 -0.1659
vn -0.6448 -0.1011 -0.7577
vn -0.0069 -0.1011 -0.9948
vn 0.6342 -0.1011 -0.7665
vn 0.9785 -0.1011 -0.1796
vn 0.8650 -0.1011 0.4914
vn -0.2629 -0.6704 0.6939
vn -0.2375 0.7420 0.6269
vn -0.6474 -0.6704 0.3625
vn -0.5849 0.7420 0.3275
vn -0.7290 -0.6704 -0.1384
vn -0.6586 0.7420 -0.1251
vn -0.4694 -0.6704 -0.5746
vn -0.4241 0.7420 -0.5192
vn 0.0097 -0.6704 -0.7419
vn 0.0088 0.7420 -0.6703
vn 0.4844 -0.6704 -0.5621
vn 0.4376 0.7420 -0.5078
vn 0.7324 -0.6704 -0.1192
vn 0.6617 0.7420 -0.1077
vn 0.6377 -0.6704 0.3794
vn 0.5761 0.7420 0.3428
vn 0.2446 -0.6704 0.7005
vn 0.2210 0.7420 0.6329
vn -0.3525 0.1011 0.9303
vn 0.3280 0.1011 0.9393
vn -0.8680 0.1011 0.4861
vn -0.9774 0.1011 -0.1856
vn -0.6294 0.1011 -0.7705
vn 0.0131 0.1011 -0.9948
vn 0.6494 0.1011 -0.7536
vn 0.9819 0.1011 -0.1599
vn 0.8550 0.1011 0.5087
vn 0.0637 -0.9620 -0.2654
vn 0.0461 0.9684 -0.2451
vn 0.0611 -0.9674 0.2457
vn 0.0435 0.9630 0.2659
vn -0.0435 -0.9630 -0.2659
vn -0.0611 0.9674 -0.2457
vn -0.0461 -0.9684 0.2451
vn -0.0637 0.9620 0.2654
vn 0.0646 -0.9979 -0.0102
vn 0.2104 0.0122 -0.9775
vn 0.0464 0.9989 0.0108
vn 0.2003 -0.0085 0.9797
vn 0.0075 -0.9693 0.2457
vn -0.0101 0.9639 0.2660
vn -0.2104 -0.0122 0.9775
vn -0.0464 -0.9989 -0.0108
vn -0.0646 0.9979 0.0102
vn -0.2003 0.0085 -0.9797
vn 0.0101 -0.9639 -0.2660
vn -0.0075 0.9693 -0.2457
vn 0.0091 -0.9999 -0.0105
vn 0.9999 0.0091 0.0053
vn 0.0052 0.0105 -0.9999
vn -0.0091 0.9999 0.0105
vn -0.0052 -0.0105 0.9999
vn -0.9999 -0.0091 -0.0053
vt 0.968177 0.373725
vt 1.256637 0.368750
vt 1.256637 0.373725
vt 0.969449 0.626275
vt 1.256637 0.631250
vt 0.969249 0.631250
vt 0.684321 0.373725
vt 0.967844 0.368750
vt 0.686194 0.626275
vt 0.685899 0.631250
vt 0.407013 0.373725
vt 0.683833 0.368750
vt 0.408342 0.631250
vt 0.408591 0.626275
vt 0.134852 0.368750
vt 0.406604 0.368750
vt 0.135519 0.631250
vt 0.135615 0.626275
vt 2.648283 0.373725
vt 2.378422 0.368750
vt 2.648126 0.368750
vt 2.648889 0.626275
vt 2.377755 0.631250
vt 2.377659 0.626275
vt 2.106261 0.373725
vt 2.378266 0.373725
vt 2.104933 0.631250
vt 2.104683 0.626275
vt 1.828954 0.373725
vt 2.106670 0.368750
vt 1.827080 0.626275
vt 1.827375 0.631250
vt 1.545098 0.373725
vt 1.829441 0.368750
vt 1.543825 0.626275
vt 1.544025 0.631250
vt 1.545430 0.368750
vt 1.256637 0.626275
vt 0.933013 0.250000
vt 0.328990 0.030154
vt 0.007596 0.586824
vt 0.007596 0.586824
vt 0.328990 0.030154
vt 0.933013 0.250000
vt 0.135008 0.373725
vt 0.969249 0.368750
vt 0.968177 0.626275
vt 0.967844 0.631250
vt 0.686194 0.373725
vt 0.969449 0.373725
vt 0.683833 0.631250
vt 0.684321 0.626275
vt 0.408342 0.368750
vt 0.685899 0.368750
vt 0.407013 0.626275
vt 0.406604 0.631250
vt 0.135615 0.373725
vt 0.408591 0.373725
vt 0.135008 0.626275
vt 0.134852 0.631250
vt 2.377659 0.373725
vt 2.648793 0.368750
vt 2.648889 0.373725
vt 2.648283 0.626275
vt 2.378422 0.631250
vt 2.378266 0.626275
vt 2.104683 0.373725
vt 2.377755 0.368750
vt 2.106670 0.631250
vt 2.106261 0.626275
vt 1.827080 0.373725
vt 2.104933 0.368750
vt 1.829441 0.631250
vt 1.828954 0.626275
vt 1.543825 0.373725
vt 1.827375 0.368750
vt 1.545098 0.626275
vt 1.545430 0.631250
vt 1.544025 0.368750
vt 0.821394 0.883022
vt 0.500000 1.000000
vt 1.068141 0.394974
vt 0.822625 0.390000
vt 1.068141 0.390000
vt 1.068141 0.605026
vt 0.823831 0.610000
vt 0.824032 0.605026
vt 0.581686 0.394974
vt 0.822959 0.394974
vt 0.582969 0.610000
vt 0.583265 0.605026
vt 0.345972 0.394974
vt 0.581195 0.390000
vt 0.347052 0.610000
vt 0.347302 0.605026
vt 0.114761 0.394974
vt 0.345561 0.390000
vt 0.115273 0.605026
vt 0.115176 0.610000
vt 2.021522 0.394974
vt 2.250887 0.390000
vt 2.251044 0.394974
vt 2.251556 0.605026
vt 2.021107 0.610000
vt 2.021010 0.605026
vt 1.790311 0.394974
vt 2.021679 0.390000
vt 1.789231 0.610000
vt 1.788981 0.605026
vt 1.554597 0.394974
vt 1.790722 0.390000
vt 1.553314 0.610000
vt 1.553018 0.605026
vt 1.313324 0.394974
vt 1.555088 0.390000
vt 1.312452 0.610000
vt 1.312251 0.605026
vt 1.313658 0.390000
vt 1.068141 0.610000
vt 0.821394 0.883022
vt 0.328990 0.030154
vt 0.007596 0.586824
vt 0.328990 0.030154
vt 0.824032 0.394974
vt 0.822625 0.610000
vt 0.822959 0.605026
vt 0.583265 0.394974
vt 0.823831 0.390000
vt 0.581195 0.610000
vt 0.581686 0.605026
vt 0.347302 0.394974
vt 0.582969 0.390000
vt 0.345561 0.610000
vt 0.345972 0.605026
vt 0.115273 0.394974
vt 0.347052 0.390000
vt 0.114761 0.605026
vt 0.114604 0.610000
vt 2.021010 0.394974
vt 2.251460 0.390000
vt 2.251556 0.394974
vt 2.021522 0.605026
vt 2.250887 0.610000
vt 2.021679 0.610000
vt 1.789231 0.390000
vt 2.021107 0.390000
vt 1.790722 0.610000
vt 1.790311 0.605026
vt 1.553018 0.394974
vt 1.788981 0.394974
vt 1.554597 0.605026
vt 1.555088 0.610000
vt 1.312452 0.390000
vt 1.553314 0.390000
vt 1.313658 0.610000
vt 1.313324 0.605026
vt 1.312251 0.394974
vt 2.251044 0.605026
vt -0.287320 0.334760
vt -0.287320 0.330000
vt -0.310000 0.334760
vt -0.287320 0.665240
vt -0.310000 0.665240
vt -0.287320 0.670000
vt 1.287320 0.334760
vt 1.310000 0.334760
vt 1.287320 0.330000
vt 1.287320 0.665240
vt 1.287320 0.670000
vt 1.310000 0.665240
vt -0.287320 0.456260
vt -0.310000 0.543740
vt -0.310000 0.456260
vt -0.287320 0.543740
vt 1.310000 0.456260
vt 1.287320 0.543740
vt 1.310000 0.543740
vt 1.287320 0.456260
vt 0.334760 0.543740
vt 0.665240 0.456260
vt 0.334760 0.456260
vt 0.665240 0.543740
vt 2.648793 0.631250
vt 0.178606 0.883022
vt 0.992404 0.586824
vt 0.671010 0.030154
vt 0.066987 0.250000
vt 0.500000 1.000000
vt 0.178606 0.883022
vt 0.066987 0.250000
vt 0.671010 0.030154
vt 0.135519 0.368750
vt 2.648126 0.631250
vt 0.114604 0.390000
vt 2.251460 0.610000
vt 0.178606 0.883022
vt 0.933013 0.250000
vt 0.671010 0.030154
vt 0.066987 0.250000
vt 0.007596 0.586824
vt 0.066987 0.250000
vt 0.671010 0.030154
vt 0.115176 0.390000
vt 0.007596 0.586824
s 0
usemtl wood
f 6/1/1 1/2/1 2/3/1
f 8/4/2 3/5/2 7/6/2
f 10/7/3 5/8/3 6/1/3
f 12/9/4 7/6/4 11/10/4
f 14/11/5 9/12/5 10/7/5
f 12/9/6 15/13/6 16/14/6
f 14/11/7 17/15/7 13/16/7
f 16/14/8 19/17/8 20/18/8
f 18/19/9 21/20/9 17/21/9
f 20/22/10 23/23/10 24/24/10
f 26/25/11 21/20/11 22/26/11
f 24/24/12 27/27/12 28/28/12
f 30/29/13 25/30/13 26/25/13
f 32/31/14 27/27/14 31/32/14
f 34/33/15 29/34/15 30/29/15
f 36/35/16 31/32/16 35/36/16
f 2/3/17 33/37/17 34/33/17
f 36/35/18 3/5/18 4/38/18
f 4/38/20 6/1/20 2/3/20
f 36/35/21 2/3/21 34/33/21
f 8/4/23 10/7/23 6/1/23
f 12/9/24 14/11/24 10/7/24
f 16/14/25 18/45/25 14/11/25
f 20/22/26 22/26/26 18/19/26
f 24/24/27 26/25/27 22/26/27
f 28/28/28 30/29/28 26/25/28
f 32/31/29 34/33/29 30/29/29
f 38/3/30 41/46/30 37/2/30
f 44/47/31 39/5/31 43/48/31
f 46/49/32 41/46/32 42/50/32
f 44/47/33 47/51/33 48/52/33
f 46/49/34 49/53/34 45/54/34
f 52/55/35 47/51/35 51/56/35
f 54/57/36 49/53/36 50/58/36
f 56/59/37 51/56/37 55/60/37
f 58/61/38 53/62/38 54/63/38
f 56/64/39 59/65/39 60/66/39
f 62/67/40 57/68/40 58/61/40
f 60/66/41 63/69/41 64/70/41
f 66/71/42 61/72/42 62/67/42
f 64/70/43 67/73/43 68/74/43
f 70/75/44 65/76/44 66/71/44
f 72/77/45 67/73/45 71/78/45
f 70/75/46 37/2/46 69/79/46
f 72/77/47 39/5/47 40/38/47
f 40/38/48 42/50/48 38/3/48
f 72/77/49 38/3/49 70/75/49
f 44/47/50 46/49/50 42/50/50
f 46/49/51 52/55/51 50/58/51
f 52/55/52 54/57/52 50/58/52
f 56/64/53 58/61/53 54/63/53
f 60/66/54 62/67/54 58/61/54
f 64/70/55 66/71/55 62/67/55
f 68/74/56 70/75/56 66/71/56
f 74/82/57 77/83/57 73/84/57
f 76/85/58 79/86/58 80/87/58
f 82/88/59 77/83/59 78/89/59
f 80/87/60 83/90/60 84/91/60
f 86/92/61 81/93/61 82/88/61
f 84/91/62 87/94/62 88/95/62
f 90/96/63 85/97/63 86/92/63
f 92/98/64 87/94/64 91/99/64
f 94/100/65 89/101/65 90/102/65
f 92/103/66 95/104/66 96/105/66
f 98/106/67 93/107/67 94/100/67
f 96/105/68 99/108/68 100/109/68
f 102/110/69 97/111/69 98/106/69
f 100/109/70 103/112/70 104/113/70
f 106/114/71 101/115/71 102/110/71
f 104/113/72 107/116/72 108/117/72
f 74/82/73 105/118/73 106/114/73
f 108/117/74 75/119/74 76/85/74
f 76/85/75 78/89/75 74/82/75
f 108/117/76 74/82/76 106/114/76
f 80/87/77 82/88/77 78/89/77
f 84/91/78 86/92/78 82/88/78
f 88/95/79 90/96/79 86/92/79
f 90/102/80 96/105/80 94/100/80
f 96/105/81 98/106/81 94/100/81
f 100/109/82 102/110/82 98/106/82
f 104/113/83 106/114/83 102/110/83
f 114/124/84 109/84/84 110/82/84
f 112/85/85 115/125/85 116/126/85
f 118/127/86 113/128/86 114/124/86
f 116/126/87 119/129/87 120/130/87
f 122/131/88 117/132/88 118/127/88
f 120/130/89 123/133/89 124/134/89
f 126/135/90 121/136/90 122/131/90
f 128/137/91 123/133/91 127/138/91
f 130/139/92 125/140/92 126/141/92
f 132/142/93 127/143/93 131/144/93
f 130/139/94 133/145/94 129/146/94
f 132/142/95 135/147/95 136/148/95
f 138/149/96 133/145/96 134/150/96
f 140/151/97 135/147/97 139/152/97
f 138/149/98 141/153/98 137/154/98
f 140/151/99 143/155/99 144/156/99
f 142/157/100 109/84/100 141/153/100
f 144/156/101 111/119/101 112/85/101
f 112/85/102 114/124/102 110/82/102
f 144/156/103 110/82/103 142/157/103
f 116/126/104 118/127/104 114/124/104
f 118/127/105 124/134/105 122/131/105
f 124/134/106 126/135/106 122/131/106
f 128/158/107 130/139/107 126/141/107
f 132/142/108 134/150/108 130/139/108
f 136/148/109 138/149/109 134/150/109
f 140/151/110 142/157/110 138/149/110
f 145/159/111 146/160/111 147/161/111
f 148/160/112 149/159/112 150/161/112
f 151/162/113 152/163/113 153/164/113
f 154/162/114 155/164/114 156/163/114
f 157/165/115 158/166/115 159/167/115
f 160/165/116 161/167/116 162/166/116
f 163/168/117 164/169/117 165/170/117
f 166/168/118 167/170/118 168/169/118
f 145/159/119 152/163/119 151/162/119
f 146/171/120 150/172/120 147/173/120
f 154/162/121 150/161/121 149/159/121
f 155/174/122 152/173/122 156/172/122
f 151/162/123 164/169/123 163/168/123
f 154/162/124 168/169/124 155/164/124
f 165/175/125 168/176/125 167/177/125
f 163/168/126 158/166/126 157/165/126
f 160/165/127 167/170/127 166/168/127
f 159/178/128 162/177/128 161/176/128
f 157/165/129 146/160/129 145/159/129
f 149/159/130 161/167/130 160/165/130
f 163/168/131 145/159/131 151/162/131
f 150/179/132 152/180/132 147/181/132
f 161/176/133 146/171/133 159/178/133
f 154/162/134 160/165/134 166/168/134
f 155/174/135 164/178/135 153/171/135
f 167/182/136 158/181/136 165/180/136
f 6/1/1 5/8/1 1/2/1
f 8/4/2 4/38/2 3/5/2
f 10/7/3 9/12/3 5/8/3
f 12/9/4 8/4/4 7/6/4
f 14/11/5 13/16/5 9/12/5
f 12/9/6 11/10/6 15/13/6
f 14/11/7 18/45/7 17/15/7
f 16/14/8 15/13/8 19/17/8
f 18/19/9 22/26/9 21/20/9
f 20/22/10 19/183/10 23/23/10
f 26/25/11 25/30/11 21/20/11
f 24/24/12 23/23/12 27/27/12
f 30/29/13 29/34/13 25/30/13
f 32/31/14 28/28/14 27/27/14
f 34/33/15 33/37/15 29/34/15
f 36/35/16 32/31/16 31/32/16
f 2/3/17 1/2/17 33/37/17
f 36/35/18 35/36/18 3/5/18
f 4/38/20 8/4/20 6/1/20
f 36/35/21 4/38/21 2/3/21
f 8/4/23 12/9/23 10/7/23
f 12/9/24 16/14/24 14/11/24
f 16/14/25 20/18/25 18/45/25
f 20/22/26 24/24/26 22/26/26
f 24/24/27 28/28/27 26/25/27
f 28/28/28 32/31/28 30/29/28
f 32/31/29 36/35/29 34/33/29
f 38/3/30 42/50/30 41/46/30
f 44/47/31 40/38/31 39/5/31
f 46/49/32 45/54/32 41/46/32
f 44/47/33 43/48/33 47/51/33
f 46/49/34 50/58/34 49/53/34
f 52/55/35 48/52/35 47/51/35
f 54/57/36 53/192/36 49/53/36
f 56/59/37 52/55/37 51/56/37
f 58/61/38 57/68/38 53/62/38
f 56/64/39 55/193/39 59/65/39
f 62/67/40 61/72/40 57/68/40
f 60/66/41 59/65/41 63/69/41
f 66/71/42 65/76/42 61/72/42
f 64/70/43 63/69/43 67/73/43
f 70/75/44 69/79/44 65/76/44
f 72/77/45 68/74/45 67/73/45
f 70/75/46 38/3/46 37/2/46
f 72/77/47 71/78/47 39/5/47
f 40/38/48 44/47/48 42/50/48
f 72/77/49 40/38/49 38/3/49
f 44/47/50 48/52/50 46/49/50
f 46/49/51 48/52/51 52/55/51
f 52/55/52 56/59/52 54/57/52
f 56/64/53 60/66/53 58/61/53
f 60/66/54 64/70/54 62/67/54
f 64/70/55 68/74/55 66/71/55
f 68/74/56 72/77/56 70/75/56
f 74/82/57 78/89/57 77/83/57
f 76/85/58 75/119/58 79/86/58
f 82/88/59 81/93/59 77/83/59
f 80/87/60 79/86/60 83/90/60
f 86/92/61 85/97/61 81/93/61
f 84/91/62 83/90/62 87/94/62
f 90/96/63 89/194/63 85/97/63
f 92/98/64 88/95/64 87/94/64
f 94/100/65 93/107/65 89/101/65
f 92/103/66 91/195/66 95/104/66
f 98/106/67 97/111/67 93/107/67
f 96/105/68 95/104/68 99/108/68
f 102/110/69 101/115/69 97/111/69
f 100/109/70 99/108/70 103/112/70
f 106/114/71 105/118/71 101/115/71
f 104/113/72 103/112/72 107/116/72
f 74/82/73 73/84/73 105/118/73
f 108/117/74 107/116/74 75/119/74
f 76/85/75 80/87/75 78/89/75
f 108/117/76 76/85/76 74/82/76
f 80/87/77 84/91/77 82/88/77
f 84/91/78 88/95/78 86/92/78
f 88/95/79 92/98/79 90/96/79
f 90/102/80 92/103/80 96/105/80
f 96/105/81 100/109/81 98/106/81
f 100/109/82 104/113/82 102/110/82
f 104/113/83 108/117/83 106/114/83
f 114/124/84 113/128/84 109/84/84
f 112/85/85 111/119/85 115/125/85
f 118/127/86 117/132/86 113/128/86
f 116/126/87 115/125/87 119/129/87
f 122/131/88 121/136/88 117/132/88
f 120/130/89 119/129/89 123/133/89
f 126/135/90 125/203/90 121/136/90
f 128/137/91 124/134/91 123/133/91
f 130/139/92 129/146/92 125/140/92
f 132/142/93 128/158/93 127/143/93
f 130/139/94 134/150/94 133/145/94
f 132/142/95 131/144/95 135/147/95
f 138/149/96 137/154/96 133/145/96
f 140/151/97 136/148/97 135/147/97
f 138/149/98 142/157/98 141/153/98
f 140/151/99 139/152/99 143/155/99
f 142/157/100 110/82/100 109/84/100
f 144/156/101 143/155/101 111/119/101
f 112/85/102 116/126/102 114/124/102
f 144/156/103 112/85/103 110/82/103
f 116/126/104 120/130/104 118/127/104
f 118/127/105 120/130/105 124/134/105
f 124/134/106 128/137/106 126/135/106
f 128/158/107 132/142/107 130/139/107
f 132/142/108 136/148/108 134/150/108
f 136/148/109 140/151/109 138/149/109
f 140/151/110 144/156/110 142/157/110
f 145/159/119 147/161/119 152/163/119
f 146/171/120 148/174/120 150/172/120
f 154/162/121 156/163/121 150/161/121
f 155/174/122 153/171/122 152/173/122
f 151/162/123 153/164/123 164/169/123
f 154/162/124 166/168/124 168/169/124
f 165/175/125 164/178/125 168/176/125
f 163/168/126 165/170/126 158/166/126
f 160/165/127 162/166/127 167/170/127
f 159/178/128 158/175/128 162/177/128
f 157/165/129 159/167/129 146/160/129
f 149/159/130 148/160/130 161/167/130
f 163/168/131 157/165/131 145/159/131
f 150/179/132 156/182/132 152/180/132
f 161/176/133 148/174/133 146/171/133
f 154/162/134 149/159/134 160/165/134
f 155/174/135 168/176/135 164/178/135
f 167/182/136 162/179/136 158/181/136
usemtl wood_end
f 13/39/19 21/40/19 29/41/19
f 31/42/22 23/43/22 15/44/22
f 41/80/19 49/44/19 57/43/19
f 39/81/22 59/40/22 51/39/22
f 77/120/19 93/121/19 101/122/19
f 75/81/22 95/123/22 87/44/22
f 113/80/19 121/44/19 129/123/19
f 111/81/22 139/122/22 131/121/22
f 33/184/19 1/81/19 29/41/19
f 1/81/19 5/120/19 29/41/19
f 5/120/19 9/185/19 13/39/19
f 13/39/19 17/186/19 21/40/19
f 21/40/19 25/187/19 29/41/19
f 5/120/19 13/39/19 29/41/19
f 11/185/22 7/80/22 3/188/22
f 3/188/22 35/189/22 31/42/22
f 31/42/22 27/190/22 23/43/22
f 23/43/22 19/191/22 15/44/22
f 15/44/22 11/185/22 3/188/22
f 3/188/22 31/42/22 15/44/22
f 69/189/19 37/188/19 65/42/19
f 37/188/19 41/80/19 65/42/19
f 41/80/19 45/185/19 49/44/19
f 49/44/19 53/191/19 57/43/19
f 57/43/19 61/190/19 41/80/19
f 61/190/19 65/42/19 41/80/19
f 47/185/22 43/120/22 51/39/22
f 43/120/22 39/81/22 51/39/22
f 39/81/22 71/184/22 67/41/22
f 67/41/22 63/187/22 39/81/22
f 63/187/22 59/40/22 39/81/22
f 59/40/22 55/186/22 51/39/22
f 105/196/19 73/81/19 77/120/19
f 77/120/19 81/185/19 85/197/19
f 85/197/19 89/198/19 93/121/19
f 93/121/19 97/199/19 101/122/19
f 101/122/19 105/196/19 77/120/19
f 77/120/19 85/197/19 93/121/19
f 83/185/22 79/80/22 75/81/22
f 75/81/22 107/184/22 95/123/22
f 107/184/22 103/200/22 95/123/22
f 103/200/22 99/201/22 95/123/22
f 95/123/22 91/202/22 87/44/22
f 87/44/22 83/185/22 75/81/22
f 141/184/19 109/81/19 113/80/19
f 113/80/19 117/185/19 121/44/19
f 121/44/19 125/202/19 129/123/19
f 129/123/19 133/201/19 137/204/19
f 137/204/19 141/184/19 129/123/19
f 141/184/19 113/80/19 129/123/19
f 119/185/22 115/120/22 111/81/22
f 111/81/22 143/196/22 139/122/22
f 139/122/22 135/199/22 131/121/22
f 131/121/22 127/198/22 111/81/22
f 127/198/22 123/197/22 111/81/22
f 123/197/22 119/185/22 111/81/22
