# Blender 4.5.10 LTS
# www.blender.org
mtllib stoker_tun_bin.mtl
o stoker_tun_bin
v 0.528923 -0.004332 -0.531668
v 0.529028 0.008553 -0.533595
v 0.544436 0.008411 -0.531707
v 0.536950 0.902755 -0.531282
v 0.537073 0.915629 -0.529289
v 0.552358 0.902613 -0.529395
v 0.529561 -0.004689 -0.395590
v 0.545075 0.008054 -0.395629
v 0.529685 0.008185 -0.393597
v 0.537712 0.915271 -0.393211
v 0.537607 0.902387 -0.391284
v 0.552997 0.902256 -0.393317
v -0.540224 0.005127 -0.526625
v -0.555509 0.018143 -0.526519
v -0.540119 0.018012 -0.528552
v -0.532073 0.925088 -0.524246
v -0.532197 0.912214 -0.526239
v -0.547587 0.912345 -0.524207
v -0.539585 0.004769 -0.390547
v -0.539462 0.017644 -0.388554
v -0.554870 0.017785 -0.390441
v -0.531435 0.924730 -0.388168
v -0.546948 0.911987 -0.388129
v -0.531540 0.911846 -0.386241
v 0.537888 0.004694 0.380557
v 0.537788 0.017584 0.378666
v 0.553214 0.017660 0.380412
v 0.532795 0.911797 0.383438
v 0.532750 0.924666 0.385467
v 0.548221 0.911874 0.385184
v 0.539787 0.003978 0.516622
v 0.555113 0.016945 0.516476
v 0.539742 0.016847 0.518651
v 0.534649 0.923951 0.521532
v 0.534749 0.911061 0.523423
v 0.550120 0.911158 0.521249
v -0.531192 -0.001355 0.395447
v -0.546662 0.011437 0.395730
v -0.531291 0.011534 0.393556
v -0.536329 0.918617 0.400356
v -0.536284 0.905748 0.398328
v -0.551655 0.905650 0.400502
v -0.529293 -0.002071 0.531511
v -0.529337 0.010798 0.533540
v -0.544763 0.010721 0.531795
v -0.534430 0.917902 0.536421
v -0.549756 0.904935 0.536567
v -0.534331 0.905012 0.538312
v 0.557708 0.004191 -0.517773
v 0.557703 0.017147 -0.532546
v 0.559510 0.017093 -0.517687
v 0.546777 0.911309 -0.527961
v 0.546468 0.924110 -0.513056
v 0.548585 0.911255 -0.513102
v 0.547131 -0.001221 0.512479
v 0.548933 0.011682 0.512565
v 0.546821 0.011580 0.527384
v 0.535891 0.918698 0.517195
v 0.535896 0.905741 0.531968
v 0.538008 0.905843 0.517149
v 0.421645 0.002535 -0.519178
v 0.419528 0.015390 -0.519133
v 0.421640 0.015492 -0.533951
v 0.410405 0.922455 -0.514462
v 0.410715 0.909654 -0.529367
v 0.408603 0.909552 -0.514548
v 0.411068 -0.002876 0.511073
v 0.410759 0.009925 0.525978
v 0.408951 0.009979 0.511119
v 0.399828 0.917043 0.515790
v 0.398026 0.904140 0.515703
v 0.399833 0.904086 0.530563
v -0.413341 0.000205 -0.515813
v -0.413375 0.013129 -0.530614
v -0.411357 0.013081 -0.515782
v -0.411682 0.907364 -0.527927
v -0.411598 0.920199 -0.513048
v -0.409663 0.907315 -0.513095
v -0.409253 -0.002900 0.514494
v -0.407268 0.009976 0.514525
v -0.409169 0.009935 0.529372
v -0.407510 0.917094 0.517259
v -0.407476 0.904170 0.532060
v -0.405574 0.904211 0.517213
v -0.549420 0.000461 -0.515273
v -0.551355 0.013344 -0.515226
v -0.549454 0.013385 -0.530074
v -0.547677 0.920455 -0.512507
v -0.547760 0.907620 -0.527386
v -0.549661 0.907579 -0.512538
v -0.545331 -0.002644 0.515035
v -0.545248 0.010192 0.529913
v -0.547267 0.010240 0.515081
v -0.543589 0.917351 0.517800
v -0.545573 0.904474 0.517769
v -0.543554 0.904426 0.532601
v 0.550031 0.005564 -0.540674
v 0.549882 0.007355 -0.556061
v 0.565989 0.007258 -0.540816
v 0.549788 0.123992 -0.555220
v 0.549935 0.125561 -0.539809
v 0.565895 0.123895 -0.539974
v 0.560311 -0.002142 0.528448
v 0.576269 -0.000449 0.528307
v 0.560458 -0.000573 0.543859
v 0.560215 0.117854 0.529314
v 0.560364 0.116063 0.544701
v 0.576176 0.116188 0.529149
v -0.557997 0.004598 -0.530027
v -0.573958 0.006264 -0.529862
v -0.558147 0.006389 -0.545414
v -0.558094 0.124595 -0.529161
v -0.558240 0.123026 -0.544572
v -0.574052 0.122901 -0.529020
v -0.547717 -0.003108 0.539096
v -0.547570 -0.001539 0.554507
v -0.563678 -0.001442 0.539261
v -0.547813 0.116889 0.539962
v -0.563771 0.115195 0.540103
v -0.547664 0.115098 0.555348
v 0.504794 0.912399 0.352389
v 0.504693 0.921650 0.350626
v 0.506535 0.921654 0.352424
v 0.499234 1.563134 0.354596
v 0.499178 1.572363 0.356473
v 0.501076 1.563139 0.356394
v 0.506332 0.911631 0.478737
v 0.508073 0.920886 0.478772
v 0.506275 0.920859 0.480614
v 0.500715 1.571594 0.482822
v 0.500816 1.562343 0.484584
v 0.502614 1.562370 0.482742
v 0.378448 0.911315 0.353920
v 0.376550 0.920539 0.353999
v 0.378347 0.920565 0.352157
v 0.372832 1.571278 0.358004
v 0.372888 1.562050 0.356127
v 0.371090 1.562023 0.357969
v 0.379986 0.910546 0.480268
v 0.379929 0.919774 0.482145
v 0.378087 0.919770 0.480347
v 0.374369 1.570509 0.484353
v 0.372628 1.561254 0.484318
v 0.374470 1.561259 0.486115
v -0.370925 0.909191 0.359924
v -0.371024 0.918407 0.357986
v -0.369220 0.918453 0.359822
v -0.378971 1.559825 0.349807
v -0.379101 1.569087 0.351509
v -0.377167 1.559871 0.351643
v -0.372045 0.910788 0.486269
v -0.370339 0.920050 0.486167
v -0.372175 0.920050 0.487971
v -0.380220 1.570684 0.477854
v -0.380122 1.561469 0.479792
v -0.378286 1.561468 0.477988
v -0.497271 0.907612 0.358825
v -0.499205 0.916828 0.358691
v -0.497369 0.916827 0.356887
v -0.505447 1.567508 0.350410
v -0.505316 1.558246 0.348708
v -0.507152 1.558246 0.350512
v -0.498390 0.909209 0.485170
v -0.498520 0.918471 0.486872
v -0.500324 0.918425 0.485036
v -0.506566 1.569105 0.476755
v -0.508271 1.559844 0.476857
v -0.506467 1.559889 0.478693
v 0.627238 1.578845 -0.192518
v 0.627344 1.580435 -0.203412
v 0.645154 1.580282 -0.192314
v 0.627125 1.677620 -0.201725
v 0.627013 1.678830 -0.190783
v 0.644935 1.677467 -0.190628
v 0.619659 1.565674 0.565489
v 0.637575 1.567111 0.565693
v 0.619547 1.566884 0.576432
v 0.619435 1.665659 0.567225
v 0.619329 1.664069 0.578118
v 0.637357 1.664296 0.567380
v -0.616857 1.576267 -0.205001
v -0.634779 1.577630 -0.205157
v -0.616751 1.577857 -0.215895
v -0.617082 1.676252 -0.203266
v -0.616969 1.675042 -0.214208
v -0.634997 1.674815 -0.203470
v -0.624435 1.563096 0.553006
v -0.624548 1.564306 0.563948
v -0.642358 1.564459 0.552851
v -0.624660 1.663081 0.554741
v -0.642576 1.661644 0.554537
v -0.624766 1.661492 0.565635
vn 0.1189 -0.1478 -0.9818
vn 0.1216 0.1507 -0.9811
vn 0.1281 -0.1529 0.9799
vn 0.1308 0.1456 0.9807
vn -0.1308 -0.1456 -0.9807
vn -0.1281 0.1529 -0.9799
vn -0.1216 -0.1507 0.9811
vn -0.1189 0.1478 0.9818
vn 0.6347 -0.7727 -0.0050
vn 0.1216 0.0015 -0.9926
vn 0.6483 0.7614 -0.0010
vn 0.1309 -0.0037 0.9914
vn 0.0033 -0.1530 0.9882
vn 0.0060 0.1478 0.9890
vn -0.1216 -0.0015 0.9926
vn -0.6483 -0.7614 0.0010
vn -0.6347 0.7727 0.0050
vn -0.1309 0.0037 -0.9914
vn -0.0060 -0.1478 -0.9890
vn -0.0033 0.1530 -0.9882
vn -0.0089 -1.0000 -0.0026
vn 0.9999 -0.0088 -0.0047
vn -0.0047 0.0026 -1.0000
vn 0.0089 1.0000 0.0026
vn 0.0047 -0.0026 1.0000
vn -0.9999 0.0088 0.0047
vn 0.1120 -0.1434 -0.9833
vn 0.1103 0.1551 -0.9817
vn 0.1393 -0.1537 0.9782
vn 0.1377 0.1448 0.9798
vn -0.1377 -0.1448 -0.9798
vn -0.1393 0.1537 -0.9782
vn -0.1103 -0.1551 0.9817
vn -0.1120 0.1434 0.9833
vn 0.6458 -0.7634 -0.0130
vn 0.1124 0.0059 -0.9936
vn 0.6372 0.7707 -0.0048
vn 0.1401 -0.0045 0.9901
vn 0.0146 -0.1556 0.9877
vn 0.0130 0.1452 0.9893
vn -0.1124 -0.0059 0.9936
vn -0.6372 -0.7707 0.0048
vn -0.6458 0.7634 0.0130
vn -0.1401 0.0045 -0.9901
vn -0.0130 -0.1452 -0.9893
vn -0.0146 0.1556 -0.9877
vn 0.0056 -1.0000 -0.0053
vn 0.9999 0.0057 -0.0139
vn -0.0140 0.0053 -0.9999
vn -0.0056 1.0000 0.0053
vn 0.0140 -0.0053 0.9999
vn -0.9999 -0.0057 0.0139
vn 0.9833 -0.1366 -0.1201
vn 0.9797 0.1618 -0.1186
vn 0.9807 -0.1379 0.1388
vn 0.9770 0.1604 0.1404
vn -0.9770 -0.1604 -0.1404
vn -0.9807 0.1379 -0.1388
vn -0.9797 -0.1618 0.1186
vn -0.9833 0.1366 0.1201
vn 0.9903 -0.1384 0.0094
vn 0.9926 0.0127 -0.1207
vn 0.9867 0.1625 0.0110
vn 0.9899 0.0114 0.1412
vn 0.0025 -0.7586 0.6516
vn -0.0160 0.7517 0.6593
vn -0.9926 -0.0127 0.1207
vn -0.9867 -0.1625 -0.0110
vn -0.9903 0.1384 -0.0094
vn -0.9899 -0.0114 -0.1412
vn 0.0160 -0.7517 -0.6593
vn -0.0025 0.7586 -0.6516
vn 0.0122 -0.9999 -0.0051
vn 0.9999 0.0122 0.0103
vn 0.0103 0.0053 -0.9999
vn -0.0122 0.9999 0.0051
vn -0.0103 -0.0053 0.9999
vn -0.9999 -0.0122 -0.0103
vn 0.9795 -0.1506 -0.1338
vn 0.9801 0.1477 -0.1329
vn 0.9805 -0.1514 0.1251
vn 0.9811 0.1469 0.1260
vn -0.9811 -0.1469 -0.1260
vn -0.9805 0.1514 -0.1251
vn -0.9801 -0.1477 0.1329
vn -0.9795 0.1506 0.1338
vn 0.9883 -0.1523 -0.0044
vn 0.9909 -0.0015 -0.1349
vn 0.9889 0.1486 -0.0035
vn 0.9919 -0.0023 0.1270
vn 0.0012 -0.7572 0.6532
vn 0.0040 0.7532 0.6577
vn -0.9909 0.0015 0.1349
vn -0.9889 -0.1486 0.0035
vn -0.9883 0.1523 0.0044
vn -0.9919 0.0023 -0.1270
vn -0.0040 -0.7532 -0.6577
vn -0.0012 0.7572 -0.6532
vn -0.0019 -1.0000 -0.0030
vn 1.0000 -0.0019 -0.0040
vn -0.0040 0.0030 -1.0000
vn 0.0019 1.0000 0.0030
vn 0.0040 -0.0030 1.0000
vn -1.0000 0.0019 0.0040
vn 0.1038 -0.9878 -0.1160
vn 0.1022 0.9895 -0.1017
vn 0.1059 -0.9894 0.0997
vn 0.1043 0.9880 0.1140
vn -0.1043 -0.9880 -0.1140
vn -0.1059 0.9894 -0.0997
vn -0.1022 -0.9895 0.1017
vn -0.1038 0.9878 0.1160
vn 0.1055 -0.9944 -0.0082
vn 0.6874 0.0058 -0.7262
vn 0.1039 0.9946 0.0062
vn 0.7013 -0.0046 0.7129
vn 0.0018 -0.9949 0.1013
vn 0.0002 0.9933 0.1156
vn -0.6874 -0.0058 0.7262
vn -0.1039 -0.9946 -0.0062
vn -0.1055 0.9944 0.0082
vn -0.7013 0.0046 -0.7129
vn -0.0002 -0.9933 -0.1156
vn -0.0018 0.9949 -0.1013
vn 0.0008 -1.0000 -0.0072
vn 1.0000 0.0009 -0.0096
vn -0.0096 0.0072 -0.9999
vn -0.0008 1.0000 0.0072
vn 0.0096 -0.0072 0.9999
vn -1.0000 -0.0009 0.0096
vn 0.6929 -0.1277 -0.7096
vn 0.6906 0.1482 -0.7079
vn 0.7100 -0.1362 0.6910
vn 0.7076 0.1397 0.6926
vn -0.7076 -0.1397 -0.6926
vn -0.7100 0.1362 -0.6910
vn -0.6906 -0.1482 0.7079
vn -0.6929 0.1277 0.7096
vn 0.9827 -0.1848 -0.0131
vn 0.6984 0.0104 -0.7156
vn 0.9794 0.2017 -0.0107
vn 0.7156 0.0018 0.6985
vn 0.0136 -0.1992 0.9799
vn 0.0103 0.1873 0.9823
vn -0.6984 -0.0104 0.7156
vn -0.9794 -0.2017 0.0107
vn -0.9827 0.1848 0.0131
vn -0.7156 -0.0018 -0.6985
vn -0.0103 -0.1873 -0.9823
vn -0.0136 0.1992 -0.9799
vn 0.0085 -0.9999 -0.0062
vn 0.9999 0.0086 -0.0121
vn -0.0122 0.0061 -0.9999
vn -0.0085 0.9999 0.0062
vn 0.0122 -0.0061 0.9999
vn -0.9999 -0.0086 0.0121
vn 0.7082 -0.1380 -0.6924
vn 0.7048 0.1378 -0.6959
vn 0.6958 -0.1203 0.7081
vn 0.6924 0.1555 0.7046
vn -0.6924 -0.1555 -0.7046
vn -0.6958 0.1203 -0.7081
vn -0.7048 -0.1378 0.6959
vn -0.7081 0.1380 0.6924
vn 0.9834 -0.1810 0.0110
vn 0.7133 -0.0001 -0.7009
vn 0.9786 0.2055 0.0061
vn 0.7008 0.0178 0.7132
vn -0.0063 -0.1808 0.9835
vn -0.0111 0.2056 0.9786
vn -0.7133 0.0001 0.7009
vn -0.9786 -0.2055 -0.0061
vn -0.9834 0.1810 -0.0110
vn -0.7008 -0.0178 -0.7132
vn 0.0111 -0.2056 -0.9786
vn 0.0063 0.1808 -0.9835
vn 0.0124 -0.9998 0.0127
vn 0.9999 0.0125 0.0087
vn 0.0089 -0.0126 -0.9999
vn -0.0124 0.9998 -0.0127
vn -0.0089 0.0126 0.9999
vn -0.9999 -0.0125 -0.0087
vn 0.0807 -0.9864 -0.1431
vn 0.0763 0.9911 -0.1088
vn 0.0782 -0.9908 0.1104
vn 0.0738 0.9867 0.1447
vn -0.0738 -0.9867 -0.1447
vn -0.0782 0.9908 -0.1104
vn -0.0763 -0.9911 0.1088
vn -0.0807 0.9864 0.1431
vn 0.0801 -0.9966 -0.0165
vn 0.5289 0.0159 -0.8485
vn 0.0757 0.9970 0.0181
vn 0.5118 -0.0138 0.8590
vn 0.0010 -0.9939 0.1099
vn -0.0035 0.9895 0.1444
vn -0.5289 -0.0159 0.8485
vn -0.0756 -0.9970 -0.0181
vn -0.0801 0.9966 0.0165
vn -0.5118 0.0138 -0.8590
vn 0.0035 -0.9895 -0.1444
vn -0.0010 0.9939 -0.1099
vn 0.0022 -0.9998 -0.0174
vn 0.9999 0.0021 0.0100
vn 0.0100 0.0174 -0.9998
vn -0.0022 0.9998 0.0174
vn -0.0100 -0.0174 0.9998
vn -0.9999 -0.0021 -0.0100
vn 0.0130 0.1453 0.9893
vn -0.9834 0.1809 -0.0110
vn 0.5289 0.0159 -0.8486
vn 0.0756 0.9970 0.0181
vn -0.5289 -0.0159 0.8486
vn -0.0757 -0.9970 -0.0181
vt -0.034600 0.040000
vt -0.034600 0.052880
vt -0.050000 0.052880
vt -0.034600 0.947120
vt -0.034600 0.960000
vt -0.050000 0.947120
vt 1.034600 0.040000
vt 1.050000 0.052880
vt 1.034600 0.052880
vt 1.034600 0.960000
vt 1.034600 0.947120
vt 1.050000 0.947120
vt -0.034600 0.431960
vt -0.050000 0.568040
vt -0.034600 0.568040
vt -0.050000 0.431960
vt 1.034600 0.431960
vt 1.050000 0.568040
vt 1.050000 0.431960
vt 1.034600 0.568040
vt 0.431960 0.947120
vt 0.568040 0.052880
vt 0.431960 0.052880
vt 0.568040 0.947120
vt -0.015160 0.040000
vt -0.030000 0.052880
vt -0.015160 0.052880
vt -0.030000 0.947120
vt -0.015160 0.960000
vt -0.015160 0.947120
vt 1.015160 0.040000
vt 1.015160 0.052880
vt 1.030000 0.052880
vt 1.015160 0.960000
vt 1.030000 0.947120
vt 1.015160 0.947120
vt 0.431960 1.015160
vt 0.568040 1.030000
vt 0.568040 1.015160
vt 0.431960 1.030000
vt 0.431960 -0.015160
vt 0.568040 -0.030000
vt 0.431960 -0.030000
vt 0.568040 -0.015160
vt -0.054040 -0.034600
vt -0.054040 -0.050000
vt -0.070000 -0.034600
vt -0.054040 1.034600
vt -0.070000 1.034600
vt -0.054040 1.050000
vt 1.054040 -0.034600
vt 1.070000 -0.034600
vt 1.054040 -0.050000
vt 1.054040 1.034600
vt 1.054040 1.050000
vt 1.070000 1.034600
vt -0.054040 0.558320
vt -0.070000 0.441680
vt -0.054040 0.441680
vt -0.070000 0.558320
vt 1.070000 0.558320
vt 1.054040 0.441680
vt 1.054040 0.558320
vt 1.070000 0.441680
vt -0.034600 0.558320
vt 1.034600 0.441680
vt -0.034600 0.441680
vt 1.034600 0.558320
vt 0.436820 0.170000
vt 0.436820 0.179240
vt 0.435000 0.179240
vt 0.436820 0.820760
vt 0.436820 0.830000
vt 0.435000 0.820760
vt 0.563180 0.170000
vt 0.565000 0.179240
vt 0.563180 0.179240
vt 0.563180 0.830000
vt 0.563180 0.820760
vt 0.565000 0.820760
vt 0.436820 0.563180
vt 0.563180 0.436820
vt 0.436820 0.436820
vt 0.563180 0.563180
vt -0.122080 0.120920
vt -0.122080 0.110000
vt -0.140000 0.120920
vt -0.122080 0.879080
vt -0.140000 0.879080
vt -0.122080 0.890000
vt 1.122080 0.120920
vt 1.140000 0.120920
vt 1.122080 0.110000
vt 1.122080 0.879080
vt 1.122080 0.890000
vt 1.140000 0.879080
vt -0.122080 0.451400
vt -0.140000 0.548600
vt -0.140000 0.451400
vt -0.122080 0.548600
vt 1.140000 0.451400
vt 1.122080 0.548600
vt 1.140000 0.548600
vt 0.120920 0.451400
vt 0.879080 0.548600
vt 0.879080 0.451400
vt 1.122080 0.451400
vt 0.120920 0.548600
s 0
usemtl wood
f 1/1/1 2/2/1 3/3/1
f 4/4/2 5/5/2 6/6/2
f 7/1/3 8/3/3 9/2/3
f 10/5/4 11/4/4 12/6/4
f 13/7/5 14/8/5 15/9/5
f 16/10/6 17/11/6 18/12/6
f 19/7/7 20/9/7 21/8/7
f 22/10/8 23/12/8 24/11/8
f 1/13/9 8/14/9 7/15/9
f 2/2/10 6/6/10 3/3/10
f 10/15/11 6/16/11 5/13/11
f 9/2/12 12/6/12 11/4/12
f 7/1/13 20/9/13 19/7/13
f 22/10/14 11/4/14 10/5/14
f 21/8/15 24/11/15 23/12/15
f 13/17/16 21/18/16 14/19/16
f 16/17/17 23/18/17 22/20/17
f 15/9/18 18/12/18 17/11/18
f 13/7/19 2/2/19 1/1/19
f 16/10/20 4/4/20 17/11/20
f 19/20/21 1/13/21 7/15/21
f 6/21/22 8/22/22 3/23/22
f 17/11/23 2/2/23 15/9/23
f 10/15/24 16/17/24 22/20/24
f 9/2/25 24/11/25 20/9/25
f 23/24/26 14/23/26 21/22/26
f 25/1/27 26/2/27 27/3/27
f 28/4/28 29/5/28 30/6/28
f 31/1/29 32/3/29 33/2/29
f 34/5/30 35/4/30 36/6/30
f 37/7/31 38/8/31 39/9/31
f 40/10/32 41/11/32 42/12/32
f 43/7/33 44/9/33 45/8/33
f 46/10/34 47/12/34 48/11/34
f 25/13/35 32/14/35 31/15/35
f 28/4/36 27/3/36 26/2/36
f 29/13/37 36/14/37 30/16/37
f 33/2/38 36/6/38 35/4/38
f 31/1/39 44/9/39 43/7/39
f 34/5/40 48/11/40 35/4/40
f 47/12/41 44/9/41 48/11/41
f 43/20/42 38/19/42 37/17/42
f 40/17/43 47/18/43 46/20/43
f 41/11/44 38/8/44 42/12/44
f 37/7/45 26/2/45 25/1/45
f 29/5/46 41/11/46 40/10/46
f 43/20/47 25/13/47 31/15/47
f 27/23/48 36/24/48 32/22/48
f 41/11/49 26/2/49 39/9/49
f 34/15/50 40/17/50 46/20/50
f 33/2/51 48/11/51 44/9/51
f 47/24/52 38/23/52 45/22/52
f 49/25/53 50/26/53 51/27/53
f 52/28/54 53/29/54 54/30/54
f 55/31/55 56/32/55 57/33/55
f 58/34/56 59/35/56 60/36/56
f 61/25/57 62/27/57 63/26/57
f 64/29/58 65/28/58 66/30/58
f 67/31/59 68/33/59 69/32/59
f 70/34/60 71/36/60 72/35/60
f 55/31/61 51/27/61 56/32/61
f 52/28/62 51/27/62 50/26/62
f 58/34/63 54/30/63 53/29/63
f 57/33/64 60/36/64 59/35/64
f 55/37/65 68/38/65 67/39/65
f 70/39/66 59/40/66 58/37/66
f 69/32/67 72/35/67 71/36/67
f 67/31/68 62/27/68 61/25/68
f 64/29/69 71/36/69 70/34/69
f 63/26/70 66/30/70 65/28/70
f 49/41/71 63/42/71 50/43/71
f 53/41/72 65/42/72 64/44/72
f 67/39/73 49/41/73 55/37/73
f 54/30/74 56/32/74 51/27/74
f 65/24/75 50/23/75 63/22/75
f 58/37/76 64/44/76 70/39/76
f 59/21/77 68/22/77 57/23/77
f 71/36/78 62/27/78 69/32/78
f 73/25/79 74/26/79 75/27/79
f 76/28/80 77/29/80 78/30/80
f 79/31/81 80/32/81 81/33/81
f 82/34/82 83/35/82 84/36/82
f 85/25/83 86/27/83 87/26/83
f 88/29/84 89/28/84 90/30/84
f 91/31/85 92/33/85 93/32/85
f 94/34/86 95/36/86 96/35/86
f 73/25/87 80/32/87 79/31/87
f 76/28/88 75/27/88 74/26/88
f 82/34/89 78/30/89 77/29/89
f 81/33/90 84/36/90 83/35/90
f 91/39/91 81/40/91 92/38/91
f 94/39/92 83/40/92 82/37/92
f 93/32/93 96/35/93 95/36/93
f 91/31/94 86/27/94 85/25/94
f 88/29/95 95/36/95 94/34/95
f 87/26/96 90/30/96 89/28/96
f 73/41/97 87/42/97 74/43/97
f 77/41/98 89/42/98 88/44/98
f 91/39/99 73/41/99 79/37/99
f 78/30/100 80/32/100 75/27/100
f 89/24/101 74/23/101 87/22/101
f 82/37/102 88/44/102 94/39/102
f 83/21/103 92/22/103 81/23/103
f 95/36/104 86/27/104 93/32/104
f 97/45/105 98/46/105 99/47/105
f 100/46/106 101/45/106 102/47/106
f 103/48/107 104/49/107 105/50/107
f 106/48/108 107/50/108 108/49/108
f 109/51/109 110/52/109 111/53/109
f 112/51/110 113/53/110 114/52/110
f 115/54/111 116/55/111 117/56/111
f 118/54/112 119/56/112 120/55/112
f 103/48/113 99/47/113 104/49/113
f 100/57/114 99/58/114 98/59/114
f 101/45/115 108/49/115 102/47/115
f 105/59/116 108/60/116 107/57/116
f 103/48/117 116/55/117 115/54/117
f 118/54/118 107/50/118 106/48/118
f 119/61/119 116/62/119 120/63/119
f 115/54/120 110/52/120 109/51/120
f 118/54/121 114/52/121 119/56/121
f 113/63/122 110/64/122 114/61/122
f 109/51/123 98/46/123 97/45/123
f 112/51/124 100/46/124 113/53/124
f 115/54/125 97/45/125 103/48/125
f 102/65/126 104/66/126 99/67/126
f 113/63/127 98/59/127 111/62/127
f 106/48/128 112/51/128 118/54/128
f 107/57/129 116/62/129 105/59/129
f 119/68/130 110/67/130 117/66/130
f 121/69/131 122/70/131 123/71/131
f 124/72/132 125/73/132 126/74/132
f 127/69/133 128/71/133 129/70/133
f 130/73/134 131/72/134 132/74/134
f 133/75/135 134/76/135 135/77/135
f 136/78/136 137/79/136 138/80/136
f 139/75/137 140/77/137 141/76/137
f 142/78/138 143/80/138 144/79/138
f 121/69/139 128/77/139 127/75/139
f 124/72/140 123/71/140 122/70/140
f 130/78/141 126/72/141 125/73/141
f 129/70/142 132/74/142 131/72/142
f 139/75/143 129/70/143 140/77/143
f 142/78/144 131/72/144 130/73/144
f 143/80/145 140/77/145 144/79/145
f 133/69/146 141/77/146 134/70/146
f 136/73/147 143/79/147 142/78/147
f 135/77/148 138/80/148 137/79/148
f 133/75/149 122/70/149 121/69/149
f 136/78/150 124/72/150 137/79/150
f 127/81/151 133/82/151 121/83/151
f 126/72/152 128/77/152 123/70/152
f 137/79/153 122/70/153 135/77/153
f 130/81/154 136/82/154 142/84/154
f 131/72/155 140/77/155 129/70/155
f 143/79/156 134/70/156 141/77/156
f 145/69/157 146/70/157 147/71/157
f 148/72/158 149/73/158 150/74/158
f 151/69/159 152/71/159 153/70/159
f 154/73/160 155/72/160 156/74/160
f 157/75/161 158/76/161 159/77/161
f 160/78/162 161/79/162 162/80/162
f 163/75/163 164/77/163 165/76/163
f 166/78/164 167/80/164 168/79/164
f 145/69/165 152/77/165 151/75/165
f 146/70/166 150/74/166 147/71/166
f 149/73/167 156/79/167 150/72/167
f 153/70/168 156/74/168 155/72/168
f 163/75/169 153/70/169 164/77/169
f 166/78/170 155/72/170 154/73/170
f 165/76/171 168/79/171 167/80/171
f 157/69/172 165/77/172 158/70/172
f 160/73/173 167/79/173 166/78/173
f 159/77/174 162/80/174 161/79/174
f 145/69/175 159/77/175 146/70/175
f 149/73/176 161/79/176 160/78/176
f 163/84/177 145/83/177 151/81/177
f 147/70/178 156/79/178 152/77/178
f 161/79/179 146/70/179 159/77/179
f 166/84/180 149/83/180 160/82/180
f 155/72/181 164/77/181 153/70/181
f 167/79/182 158/70/182 165/77/182
f 169/85/183 170/86/183 171/87/183
f 172/86/184 173/85/184 174/87/184
f 175/88/185 176/89/185 177/90/185
f 178/88/186 179/90/186 180/89/186
f 181/91/187 182/92/187 183/93/187
f 184/91/188 185/93/188 186/92/188
f 187/94/189 188/95/189 189/96/189
f 190/94/190 191/96/190 192/95/190
f 175/88/191 171/87/191 176/89/191
f 170/97/192 174/98/192 171/99/192
f 178/88/193 174/87/193 173/85/193
f 177/97/194 180/98/194 179/100/194
f 187/94/195 177/90/195 188/95/195
f 190/94/196 179/90/196 178/88/196
f 189/101/197 192/102/197 191/103/197
f 181/91/198 189/96/198 182/92/198
f 190/94/199 186/92/199 191/96/199
f 185/102/200 182/101/200 186/103/200
f 181/91/201 170/86/201 169/85/201
f 173/85/202 185/93/202 184/91/202
f 187/94/203 169/85/203 175/88/203
f 171/104/204 180/105/204 176/106/204
f 185/102/205 170/97/205 183/107/205
f 190/94/206 173/85/206 184/91/206
f 177/97/207 192/102/207 188/107/207
f 191/105/208 182/104/208 189/106/208
f 1/13/9 3/16/9 8/14/9
f 2/2/10 4/4/10 6/6/10
f 10/15/11 12/14/11 6/16/11
f 9/2/12 8/3/12 12/6/12
f 7/1/13 9/2/13 20/9/13
f 22/10/14 24/11/14 11/4/14
f 21/8/15 20/9/15 24/11/15
f 13/17/16 19/20/16 21/18/16
f 16/17/17 18/19/17 23/18/17
f 15/9/18 14/8/18 18/12/18
f 13/7/19 15/9/19 2/2/19
f 16/10/20 5/5/20 4/4/20
f 19/20/21 13/17/21 1/13/21
f 6/21/22 12/24/22 8/22/22
f 17/11/23 4/4/23 2/2/23
f 10/15/24 5/13/24 16/17/24
f 9/2/25 11/4/25 24/11/25
f 23/24/26 18/21/26 14/23/26
f 25/13/35 27/16/35 32/14/35
f 28/4/36 30/6/36 27/3/36
f 29/13/37 34/15/37 36/14/37
f 33/2/38 32/3/38 36/6/38
f 31/1/39 33/2/39 44/9/39
f 34/5/209 46/10/209 48/11/209
f 47/12/41 45/8/41 44/9/41
f 43/20/42 45/18/42 38/19/42
f 40/17/43 42/19/43 47/18/43
f 41/11/44 39/9/44 38/8/44
f 37/7/45 39/9/45 26/2/45
f 29/5/46 28/4/46 41/11/46
f 43/20/47 37/17/47 25/13/47
f 27/23/48 30/21/48 36/24/48
f 41/11/49 28/4/49 26/2/49
f 34/15/50 29/13/50 40/17/50
f 33/2/51 35/4/51 48/11/51
f 47/24/52 42/21/52 38/23/52
f 55/31/61 49/25/61 51/27/61
f 52/28/62 54/30/62 51/27/62
f 58/34/63 60/36/63 54/30/63
f 57/33/64 56/32/64 60/36/64
f 55/37/65 57/40/65 68/38/65
f 70/39/66 72/38/66 59/40/66
f 69/32/67 68/33/67 72/35/67
f 67/31/68 69/32/68 62/27/68
f 64/29/69 66/30/69 71/36/69
f 63/26/70 62/27/70 66/30/70
f 49/41/71 61/44/71 63/42/71
f 53/41/72 52/43/72 65/42/72
f 67/39/73 61/44/73 49/41/73
f 54/30/74 60/36/74 56/32/74
f 65/24/75 52/21/75 50/23/75
f 58/37/76 53/41/76 64/44/76
f 59/21/77 72/24/77 68/22/77
f 71/36/78 66/30/78 62/27/78
f 73/25/87 75/27/87 80/32/87
f 76/28/88 78/30/88 75/27/88
f 82/34/89 84/36/89 78/30/89
f 81/33/90 80/32/90 84/36/90
f 91/39/91 79/37/91 81/40/91
f 94/39/92 96/38/92 83/40/92
f 93/32/93 92/33/93 96/35/93
f 91/31/94 93/32/94 86/27/94
f 88/29/95 90/30/95 95/36/95
f 87/26/96 86/27/96 90/30/96
f 73/41/97 85/44/97 87/42/97
f 77/41/98 76/43/98 89/42/98
f 91/39/99 85/44/99 73/41/99
f 78/30/100 84/36/100 80/32/100
f 89/24/101 76/21/101 74/23/101
f 82/37/102 77/41/102 88/44/102
f 83/21/103 96/24/103 92/22/103
f 95/36/104 90/30/104 86/27/104
f 103/48/113 97/45/113 99/47/113
f 100/57/114 102/60/114 99/58/114
f 101/45/115 106/48/115 108/49/115
f 105/59/116 104/58/116 108/60/116
f 103/48/117 105/50/117 116/55/117
f 118/54/118 120/55/118 107/50/118
f 119/61/119 117/64/119 116/62/119
f 115/54/120 117/56/120 110/52/120
f 118/54/121 112/51/121 114/52/121
f 113/63/122 111/62/122 110/64/122
f 109/51/123 111/53/123 98/46/123
f 112/51/124 101/45/124 100/46/124
f 115/54/125 109/51/125 97/45/125
f 102/65/126 108/68/126 104/66/126
f 113/63/127 100/57/127 98/59/127
f 106/48/128 101/45/128 112/51/128
f 107/57/129 120/63/129 116/62/129
f 119/68/130 114/65/130 110/67/130
f 121/69/139 123/70/139 128/77/139
f 124/72/140 126/74/140 123/71/140
f 130/78/141 132/79/141 126/72/141
f 129/70/142 128/71/142 132/74/142
f 139/75/143 127/69/143 129/70/143
f 142/78/144 144/79/144 131/72/144
f 143/80/145 141/76/145 140/77/145
f 133/69/146 139/75/146 141/77/146
f 136/73/147 138/72/147 143/79/147
f 135/77/148 134/76/148 138/80/148
f 133/75/149 135/77/149 122/70/149
f 136/78/150 125/73/150 124/72/150
f 127/81/151 139/84/151 133/82/151
f 126/72/152 132/79/152 128/77/152
f 137/79/153 124/72/153 122/70/153
f 130/81/154 125/83/154 136/82/154
f 131/72/155 144/79/155 140/77/155
f 143/79/156 138/72/156 134/70/156
f 145/69/165 147/70/165 152/77/165
f 146/70/166 148/72/166 150/74/166
f 149/73/167 154/78/167 156/79/167
f 153/70/168 152/71/168 156/74/168
f 163/75/169 151/69/169 153/70/169
f 166/78/170 168/79/170 155/72/170
f 165/76/171 164/77/171 168/79/171
f 157/69/172 163/75/172 165/77/172
f 160/73/210 162/72/210 167/79/210
f 159/77/174 158/76/174 162/80/174
f 145/69/175 157/75/175 159/77/175
f 149/73/176 148/72/176 161/79/176
f 163/84/177 157/82/177 145/83/177
f 147/70/178 150/72/178 156/79/178
f 161/79/179 148/72/179 146/70/179
f 166/84/180 154/81/180 149/83/180
f 155/72/181 168/79/181 164/77/181
f 167/79/182 162/72/182 158/70/182
f 175/88/191 169/85/191 171/87/191
f 170/97/211 172/100/211 174/98/211
f 178/88/212 180/89/212 174/87/212
f 177/97/194 176/99/194 180/98/194
f 187/94/195 175/88/195 177/90/195
f 190/94/196 192/95/196 179/90/196
f 189/101/213 188/107/213 192/102/213
f 181/91/214 187/94/214 189/96/214
f 190/94/199 184/91/199 186/92/199
f 185/102/200 183/107/200 182/101/200
f 181/91/201 183/93/201 170/86/201
f 173/85/202 172/86/202 185/93/202
f 187/94/203 181/91/203 169/85/203
f 171/104/204 174/108/204 180/105/204
f 185/102/205 172/100/205 170/97/205
f 190/94/206 178/88/206 173/85/206
f 177/97/207 179/100/207 192/102/207
f 191/105/208 186/108/208 182/104/208
