# Blender 4.5.10 LTS
# www.blender.org
mtllib stoker_trough_long.mtl
o stoker_trough_long
v 0.880000 0.000000 -0.290000
v 0.880000 0.120000 -0.290000
v 0.880000 0.000000 0.290000
v 0.880000 0.120000 0.290000
v -0.880000 0.000000 -0.290000
v -0.880000 0.120000 -0.290000
v -0.880000 0.000000 0.290000
v -0.880000 0.120000 0.290000
v 0.840000 0.100000 -0.250000
v 0.840000 0.440000 -0.250000
v 0.840000 0.100000 0.250000
v 0.840000 0.440000 0.250000
v -0.840000 0.100000 -0.250000
v -0.840000 0.440000 -0.250000
v -0.840000 0.100000 0.250000
v -0.840000 0.440000 0.250000
v 0.651844 0.420000 0.221731
v 0.583879 0.590000 0.057650
v 0.468156 0.420000 0.221731
v 0.536121 0.590000 0.057650
v 0.338269 0.420000 0.091844
v 0.502350 0.590000 0.023879
v 0.338269 0.420000 -0.091844
v 0.502350 0.590000 -0.023879
v 0.468156 0.420000 -0.221731
v 0.536121 0.590000 -0.057650
v 0.651844 0.420000 -0.221731
v 0.583879 0.590000 -0.057650
v 0.781731 0.420000 -0.091844
v 0.617650 0.590000 -0.023879
v 0.781731 0.420000 0.091844
v 0.617650 0.590000 0.023879
v 0.091844 0.420000 0.221731
v 0.023879 0.590000 0.057650
v -0.091844 0.420000 0.221731
v -0.023879 0.590000 0.057650
v -0.221731 0.420000 0.091844
v -0.057650 0.590000 0.023879
v -0.221731 0.420000 -0.091844
v -0.057650 0.590000 -0.023879
v -0.091844 0.420000 -0.221731
v -0.023879 0.590000 -0.057650
v 0.091844 0.420000 -0.221731
v 0.023879 0.590000 -0.057650
v 0.221731 0.420000 -0.091844
v 0.057650 0.590000 -0.023879
v 0.221731 0.420000 0.091844
v 0.057650 0.590000 0.023879
v -0.468156 0.420000 0.221731
v -0.536121 0.590000 0.057650
v -0.651844 0.420000 0.221731
v -0.583879 0.590000 0.057650
v -0.781731 0.420000 0.091844
v -0.617650 0.590000 0.023879
v -0.781731 0.420000 -0.091844
v -0.617650 0.590000 -0.023879
v -0.651844 0.420000 -0.221731
v -0.583879 0.590000 -0.057650
v -0.468156 0.420000 -0.221731
v -0.536121 0.590000 -0.057650
v -0.338269 0.420000 -0.091844
v -0.502350 0.590000 -0.023879
v -0.338269 0.420000 0.091844
v -0.502350 0.590000 0.023879
v 0.315000 0.250000 -0.260000
v 0.315000 0.510000 -0.260000
v 0.315000 0.250000 0.260000
v 0.315000 0.510000 0.260000
v 0.245000 0.250000 -0.260000
v 0.245000 0.510000 -0.260000
v 0.245000 0.250000 0.260000
v 0.245000 0.510000 0.260000
v -0.245000 0.250000 -0.260000
v -0.245000 0.510000 -0.260000
v -0.245000 0.250000 0.260000
v -0.245000 0.510000 0.260000
v -0.315000 0.250000 -0.260000
v -0.315000 0.510000 -0.260000
v -0.315000 0.250000 0.260000
v -0.315000 0.510000 0.260000
v 0.860000 0.415000 -0.290000
v 0.860000 0.505000 -0.290000
v 0.860000 0.415000 -0.210000
v 0.860000 0.505000 -0.210000
v -0.860000 0.415000 -0.290000
v -0.860000 0.505000 -0.290000
v -0.860000 0.415000 -0.210000
v -0.860000 0.505000 -0.210000
v 0.860000 0.415000 0.210000
v 0.860000 0.505000 0.210000
v 0.860000 0.415000 0.290000
v 0.860000 0.505000 0.290000
v -0.860000 0.415000 0.210000
v -0.860000 0.505000 0.210000
v -0.860000 0.415000 0.290000
v -0.860000 0.505000 0.290000
v 0.860000 0.415000 -0.210000
v 0.860000 0.505000 -0.210000
v 0.860000 0.415000 0.210000
v 0.860000 0.505000 0.210000
v 0.780000 0.415000 -0.210000
v 0.780000 0.505000 -0.210000
v 0.780000 0.415000 0.210000
v 0.780000 0.505000 0.210000
v -0.780000 0.415000 -0.210000
v -0.780000 0.505000 -0.210000
v -0.780000 0.415000 0.210000
v -0.780000 0.505000 0.210000
v -0.860000 0.415000 -0.210000
v -0.860000 0.505000 -0.210000
v -0.860000 0.415000 0.210000
v -0.860000 0.505000 0.210000
v 0.910000 0.100000 -0.280000
v 0.910000 0.520000 -0.280000
v 0.910000 0.100000 0.280000
v 0.910000 0.520000 0.280000
v 0.810000 0.100000 -0.280000
v 0.810000 0.520000 -0.280000
v 0.810000 0.100000 0.280000
v 0.810000 0.520000 0.280000
v -0.810000 0.100000 -0.280000
v -0.810000 0.520000 -0.280000
v -0.810000 0.100000 0.280000
v -0.810000 0.520000 0.280000
v -0.910000 0.100000 -0.280000
v -0.910000 0.520000 -0.280000
v -0.910000 0.100000 0.280000
v -0.910000 0.520000 0.280000
vn 1.0000 -0.0000 -0.0000
vn -0.0000 -0.0000 1.0000
vn -1.0000 -0.0000 -0.0000
vn -0.0000 -0.0000 -1.0000
vn -0.0000 -1.0000 -0.0000
vn -0.0000 1.0000 -0.0000
vn -0.0000 0.6945 0.7195
vn -0.5088 0.6945 0.5088
vn -0.7195 0.6945 -0.0000
vn -0.5088 0.6945 -0.5088
vn -0.0000 0.6945 -0.7195
vn 0.5088 0.6945 -0.5088
vn 0.7195 0.6945 -0.0000
vn 0.5088 0.6945 0.5088
vt 0.016484 0.203390
vt 0.983516 0.000000
vt 0.016484 0.000000
vt 0.983516 0.203390
vt 0.983516 0.601695
vt 0.016484 0.398305
vt 0.016484 0.601695
vt 0.983516 0.398305
vt 0.083175 0.745763
vt 0.916825 0.169492
vt 0.083175 0.169492
vt 0.038462 0.745763
vt 0.961538 0.169492
vt 0.038462 0.169492
vt 0.916825 0.745763
vt 0.961538 0.745763
vt 0.961538 0.587668
vt 0.038462 0.412332
vt 0.038462 0.587668
vt 0.961538 0.412332
vt 0.141844 0.711864
vt 0.205428 1.000000
vt 0.242771 0.711864
vt 0.596120 1.000000
vt 0.653131 0.711864
vt 0.869692 0.711864
vt 0.539814 1.000000
vt 0.346869 0.711864
vt 0.403880 1.000000
vt 0.130308 0.711864
vt 0.179187 1.000000
vt 0.346869 0.711864
vt 0.223984 0.491626
vt 0.223984 0.508374
vt 0.160632 0.491626
vt 0.460186 1.000000
vt 0.070477 0.467793
vt 0.070477 0.532207
vt 0.314138 0.467793
vt 0.486879 1.000000
vt 0.550464 0.711864
vt 0.449536 0.711864
vt 0.513121 1.000000
vt 0.531676 0.491626
vt 0.531676 0.508374
vt 0.468324 0.491626
vt 0.378170 0.467793
vt 0.378170 0.532207
vt 0.621830 0.467793
vt 0.757228 0.711864
vt 0.820813 1.000000
vt 0.858156 0.711864
vt 0.794572 1.000000
vt 0.839368 0.491626
vt 0.839368 0.508374
vt 0.776016 0.491626
vt 0.685862 0.467793
vt 0.685862 0.532207
vt 0.929522 0.467793
vt 0.066502 0.864407
vt 0.933497 0.423729
vt 0.066502 0.423729
vt 0.326923 0.864407
vt 0.365385 0.423729
vt 0.326923 0.423729
vt 0.933497 0.864407
vt 0.365385 0.864407
vt 0.365385 0.591175
vt 0.326923 0.408825
vt 0.326923 0.591175
vt 0.365385 0.408825
vt 0.634615 0.864407
vt 0.673077 0.423729
vt 0.634615 0.423729
vt 0.673077 0.864407
vt 0.673077 0.591175
vt 0.634615 0.408825
vt 0.634615 0.591175
vt 0.673077 0.408825
vt 0.016484 0.855932
vt 0.149867 0.703390
vt 0.016484 0.703390
vt 0.027472 0.855932
vt 0.972527 0.703390
vt 0.027472 0.703390
vt 0.149867 0.855932
vt 0.972527 0.855932
vt 0.972527 0.426359
vt 0.027472 0.398305
vt 0.027472 0.426359
vt 0.972527 0.398305
vt 0.850133 0.855932
vt 0.983516 0.703390
vt 0.850133 0.703390
vt 0.983516 0.855932
vt 0.972527 0.601695
vt 0.027472 0.573641
vt 0.027472 0.601695
vt 0.972527 0.573641
vt 0.071429 0.703390
vt 0.071429 0.855932
vt 0.071429 0.573641
vt 0.071429 0.426359
vt 0.928571 0.855932
vt 0.928571 0.703390
vt 0.928571 0.426359
vt 0.928571 0.573641
vt 0.033156 0.881356
vt 0.966843 0.169492
vt 0.033156 0.169492
vt 0.000000 0.881356
vt 0.054945 0.169492
vt 0.000000 0.169492
vt 0.966843 0.881356
vt 0.054945 0.881356
vt 0.054945 0.598188
vt 0.000000 0.401812
vt 0.000000 0.598188
vt 0.054945 0.401812
vt 0.945055 0.881356
vt 1.000000 0.169492
vt 0.945055 0.169492
vt 1.000000 0.881356
vt 1.000000 0.598188
vt 0.945055 0.401812
vt 0.945055 0.598188
vt 1.000000 0.401812
vt 0.205428 0.520216
vt 0.179187 0.520216
vt 0.160632 0.508374
vt 0.179187 0.479784
vt 0.205428 0.479784
vt 0.141844 0.577755
vt 0.242771 0.577755
vt 0.314138 0.532207
vt 0.242771 0.422245
vt 0.141844 0.422245
vt 0.513121 0.520216
vt 0.486879 0.520216
vt 0.468324 0.508374
vt 0.486879 0.479784
vt 0.513121 0.479784
vt 0.449536 0.577755
vt 0.550464 0.577755
vt 0.621830 0.532207
vt 0.550464 0.422245
vt 0.449536 0.422245
vt 0.820813 0.520216
vt 0.794572 0.520216
vt 0.776016 0.508374
vt 0.794572 0.479784
vt 0.820813 0.479784
vt 0.757228 0.577755
vt 0.858156 0.577755
vt 0.929522 0.532207
vt 0.858156 0.422245
vt 0.757228 0.422245
s 0
usemtl stone
f 2/1/1 3/2/1 1/3/1
f 4/1/2 7/2/2 3/3/2
f 8/4/3 5/3/3 7/2/3
f 6/4/4 1/3/4 5/2/4
f 7/5/5 1/6/5 3/7/5
f 4/7/6 6/8/6 8/5/6
f 10/9/1 11/10/1 9/11/1
f 12/12/2 15/13/2 11/14/2
f 16/15/3 13/11/3 15/10/3
f 14/16/4 9/14/4 13/13/4
f 15/17/5 9/18/5 11/19/5
f 12/19/6 14/20/6 16/17/6
f 2/1/1 4/4/1 3/2/1
f 4/1/2 8/4/2 7/2/2
f 8/4/3 6/1/3 5/3/3
f 6/4/4 2/1/4 1/3/4
f 7/5/5 5/8/5 1/6/5
f 4/7/6 2/6/6 6/8/6
f 10/9/1 12/15/1 11/10/1
f 12/12/2 16/16/2 15/13/2
f 16/15/3 14/9/3 13/11/3
f 14/16/4 10/12/4 9/14/4
f 15/17/5 13/20/5 9/18/5
f 12/19/6 10/18/6 14/20/6
usemtl coal
f 17/21/7 20/22/7 19/23/7
f 20/24/8 21/25/8 19/26/8
f 22/27/9 23/28/9 21/25/9
f 23/28/10 26/29/10 25/30/10
f 25/23/11 28/31/11 27/21/11
f 28/29/12 29/32/12 27/30/12
f 24/33/6 22/34/6 30/35/6
f 30/36/13 31/25/13 29/32/13
f 31/25/14 18/24/14 17/26/14
f 29/37/5 31/38/5 23/39/5
f 49/50/7 52/51/7 51/52/7
f 52/24/8 53/25/8 51/26/8
f 54/27/9 55/28/9 53/25/9
f 55/28/10 58/29/10 57/30/10
f 57/52/11 60/53/11 59/50/11
f 60/29/12 61/32/12 59/30/12
f 56/54/6 54/55/6 62/56/6
f 62/36/13 63/25/13 61/32/13
f 63/25/14 50/24/14 49/26/14
f 61/57/5 63/58/5 55/59/5
f 17/21/7 18/31/7 20/22/7
f 20/24/8 22/27/8 21/25/8
f 22/27/9 24/36/9 23/28/9
f 23/28/10 24/36/10 26/29/10
f 25/23/11 26/22/11 28/31/11
f 28/29/12 30/36/12 29/32/12
f 22/34/6 20/128/6 18/129/6
f 18/129/6 32/130/6 22/34/6
f 32/130/6 30/35/6 22/34/6
f 30/35/6 28/131/6 26/132/6
f 26/132/6 24/33/6 30/35/6
f 30/36/13 32/27/13 31/25/13
f 31/25/14 32/27/14 18/24/14
f 31/38/5 17/133/5 19/134/5
f 19/134/5 21/135/5 31/38/5
f 21/135/5 23/39/5 31/38/5
f 23/39/5 25/136/5 27/137/5
f 27/137/5 29/37/5 23/39/5
f 49/50/7 50/53/7 52/51/7
f 52/24/8 54/27/8 53/25/8
f 54/27/9 56/36/9 55/28/9
f 55/28/10 56/36/10 58/29/10
f 57/52/11 58/51/11 60/53/11
f 60/29/12 62/36/12 61/32/12
f 54/55/6 52/148/6 50/149/6
f 50/149/6 64/150/6 54/55/6
f 64/150/6 62/56/6 54/55/6
f 62/56/6 60/151/6 58/152/6
f 58/152/6 56/54/6 62/56/6
f 62/36/13 64/27/13 63/25/13
f 63/25/14 64/27/14 50/24/14
f 63/58/5 49/153/5 51/154/5
f 51/154/5 53/155/5 63/58/5
f 53/155/5 55/59/5 63/58/5
f 55/59/5 57/156/5 59/157/5
f 59/157/5 61/57/5 55/59/5
usemtl ore
f 34/40/7 35/41/7 33/42/7
f 36/24/8 37/25/8 35/26/8
f 38/27/9 39/28/9 37/25/9
f 39/28/10 42/29/10 41/30/10
f 42/43/11 43/42/11 41/41/11
f 44/29/12 45/32/12 43/30/12
f 40/44/6 38/45/6 46/46/6
f 46/36/13 47/25/13 45/32/13
f 47/25/14 34/24/14 33/26/14
f 45/47/5 47/48/5 39/49/5
f 34/40/7 36/43/7 35/41/7
f 36/24/8 38/27/8 37/25/8
f 38/27/9 40/36/9 39/28/9
f 39/28/10 40/36/10 42/29/10
f 42/43/11 44/40/11 43/42/11
f 44/29/12 46/36/12 45/32/12
f 38/45/6 36/138/6 34/139/6
f 34/139/6 48/140/6 38/45/6
f 48/140/6 46/46/6 38/45/6
f 46/46/6 44/141/6 42/142/6
f 42/142/6 40/44/6 46/46/6
f 46/36/13 48/27/13 47/25/13
f 47/25/14 48/27/14 34/24/14
f 47/48/5 33/143/5 35/144/5
f 35/144/5 37/145/5 47/48/5
f 37/145/5 39/49/5 47/48/5
f 39/49/5 41/146/5 43/147/5
f 43/147/5 45/47/5 39/49/5
usemtl iron
f 66/60/1 67/61/1 65/62/1
f 68/63/2 71/64/2 67/65/2
f 72/66/3 69/62/3 71/61/3
f 70/67/4 65/65/4 69/64/4
f 71/68/5 65/69/5 67/70/5
f 68/70/6 70/71/6 72/68/6
f 74/60/1 75/61/1 73/62/1
f 76/72/2 79/73/2 75/74/2
f 80/66/3 77/62/3 79/61/3
f 78/75/4 73/74/4 77/73/4
f 79/76/5 73/77/5 75/78/5
f 76/78/6 78/79/6 80/76/6
f 82/80/1 83/81/1 81/82/1
f 84/83/2 87/84/2 83/85/2
f 88/86/3 85/82/3 87/81/3
f 86/87/4 81/85/4 85/84/4
f 87/88/5 81/89/5 83/90/5
f 84/90/6 86/91/6 88/88/6
f 90/92/1 91/93/1 89/94/1
f 92/83/2 95/84/2 91/85/2
f 96/95/3 93/94/3 95/93/3
f 94/87/4 89/85/4 93/84/4
f 95/96/5 89/97/5 91/98/5
f 92/98/6 94/99/6 96/96/6
f 98/86/1 99/94/1 97/81/1
f 100/83/2 103/100/2 99/85/2
f 104/92/3 101/81/3 103/94/3
f 102/101/4 97/85/4 101/100/4
f 103/102/5 97/90/5 99/97/5
f 100/97/6 102/103/6 104/102/6
f 106/86/1 107/94/1 105/81/1
f 108/104/2 111/84/2 107/105/2
f 112/92/3 109/81/3 111/94/3
f 110/87/4 105/105/4 109/84/4
f 111/99/5 105/106/5 107/107/5
f 108/107/6 110/88/6 112/99/6
f 66/60/1 68/66/1 67/61/1
f 68/63/2 72/67/2 71/64/2
f 72/66/3 70/60/3 69/62/3
f 70/67/4 66/63/4 65/65/4
f 71/68/5 69/71/5 65/69/5
f 68/70/6 66/69/6 70/71/6
f 74/60/1 76/66/1 75/61/1
f 76/72/2 80/75/2 79/73/2
f 80/66/3 78/60/3 77/62/3
f 78/75/4 74/72/4 73/74/4
f 79/76/5 77/79/5 73/77/5
f 76/78/6 74/77/6 78/79/6
f 82/80/1 84/86/1 83/81/1
f 84/83/2 88/87/2 87/84/2
f 88/86/3 86/80/3 85/82/3
f 86/87/4 82/83/4 81/85/4
f 87/88/5 85/91/5 81/89/5
f 84/90/6 82/89/6 86/91/6
f 90/92/1 92/95/1 91/93/1
f 92/83/2 96/87/2 95/84/2
f 96/95/3 94/92/3 93/94/3
f 94/87/4 90/83/4 89/85/4
f 95/96/5 93/99/5 89/97/5
f 92/98/6 90/97/6 94/99/6
f 98/86/1 100/92/1 99/94/1
f 100/83/2 104/101/2 103/100/2
f 104/92/3 102/86/3 101/81/3
f 102/101/4 98/83/4 97/85/4
f 103/102/5 101/103/5 97/90/5
f 100/97/6 98/90/6 102/103/6
f 106/86/1 108/92/1 107/94/1
f 108/104/2 112/87/2 111/84/2
f 112/92/3 110/86/3 109/81/3
f 110/87/4 106/104/4 105/105/4
f 111/99/5 109/88/5 105/106/5
f 108/107/6 106/106/6 110/88/6
usemtl wood
f 114/108/1 115/109/1 113/110/1
f 116/111/2 119/112/2 115/113/2
f 120/114/3 117/110/3 119/109/3
f 118/115/4 113/113/4 117/112/4
f 119/116/5 113/117/5 115/118/5
f 116/118/6 118/119/6 120/116/6
f 122/108/1 123/109/1 121/110/1
f 124/120/2 127/121/2 123/122/2
f 128/114/3 125/110/3 127/109/3
f 126/123/4 121/122/4 125/121/4
f 127/124/5 121/125/5 123/126/5
f 124/126/6 126/127/6 128/124/6
f 114/108/1 116/114/1 115/109/1
f 116/111/2 120/115/2 119/112/2
f 120/114/3 118/108/3 117/110/3
f 118/115/4 114/111/4 113/113/4
f 119/116/5 117/119/5 113/117/5
f 116/118/6 114/117/6 118/119/6
f 122/108/1 124/114/1 123/109/1
f 124/120/2 128/123/2 127/121/2
f 128/114/3 126/108/3 125/110/3
f 126/123/4 122/120/4 121/122/4
f 127/124/5 125/127/5 121/125/5
f 124/126/6 122/125/6 126/127/6
