# Blender 4.5.10 LTS
# www.blender.org
mtllib tyrvi_billet.mtl
o tyrvi_billet
v 0.092062 0.049991 0.050817
v 0.083971 0.056509 0.055500
v 0.083899 0.043562 0.055498
v -0.093992 0.051023 0.039135
v -0.086183 0.044505 0.044819
v -0.086111 0.057452 0.044820
v 0.092726 0.003146 0.016787
v 0.084510 0.000530 0.024238
v 0.084822 -0.003471 0.011929
v -0.093417 0.010479 0.009683
v -0.085342 0.003233 0.005434
v -0.085654 0.007234 0.017743
v 0.094321 0.021039 -0.038260
v 0.086287 0.012966 -0.038638
v 0.086551 0.023440 -0.046244
v -0.092037 0.025966 -0.037959
v -0.083808 0.027943 -0.045969
v -0.084073 0.017469 -0.038363
v 0.094641 0.078943 -0.038251
v 0.086846 0.076630 -0.046236
v 0.086697 0.087105 -0.038627
v -0.091759 0.076080 -0.037952
v -0.083702 0.084487 -0.038353
v -0.083553 0.074013 -0.045962
v 0.093245 0.096836 0.016801
v 0.085414 0.103541 0.011945
v 0.085058 0.099540 0.024253
v -0.092968 0.091566 0.009695
v -0.085169 0.094723 0.017757
v -0.084813 0.098724 0.005448
v 0.060362 0.037044 0.073204
v 0.052150 0.042724 0.078367
v 0.052119 0.031409 0.078366
v -0.093027 0.037468 0.063820
v -0.085298 0.031789 0.069959
v -0.085267 0.043103 0.069961
v 0.061201 0.016023 0.052199
v 0.052952 0.010536 0.057509
v 0.053435 0.010536 0.046205
v -0.092301 0.019278 0.045645
v -0.084084 0.013452 0.040333
v -0.084566 0.013452 0.051637
v 0.062155 0.037044 0.031198
v 0.054383 0.031409 0.025353
v 0.054414 0.042724 0.025354
v -0.091475 0.037468 0.027473
v -0.083220 0.043103 0.022017
v -0.083251 0.031789 0.022016
v 0.061317 0.058066 0.052204
v 0.053581 0.063597 0.046211
v 0.053098 0.063597 0.057515
v -0.092201 0.055658 0.045649
v -0.084434 0.061440 0.051643
v -0.083951 0.061440 0.040339
v 0.052136 0.070058 0.005956
v 0.052181 0.070058 0.006175
v 0.051976 0.070058 0.006289
v 0.051804 0.070058 0.006139
v 0.051903 0.070058 0.005933
v 0.035127 0.074393 -0.000930
v 0.035006 0.074469 -0.000905
v 0.035030 0.074517 -0.001095
v 0.035166 0.074469 -0.001238
v 0.035226 0.074393 -0.001136
v 0.054323 0.074393 -0.011528
v 0.054089 0.074393 -0.011551
v 0.054029 0.074469 -0.011653
v 0.054225 0.074517 -0.011693
v 0.054406 0.074469 -0.011616
v 0.070210 0.074393 0.002439
v 0.070164 0.074393 0.002219
v 0.070248 0.074469 0.002131
v 0.070346 0.074517 0.002296
v 0.070322 0.074469 0.002486
v 0.060932 0.074393 0.021463
v 0.061137 0.074393 0.021350
v 0.061249 0.074469 0.021398
v 0.061113 0.074517 0.021540
v 0.060917 0.074469 0.021581
v 0.039189 0.074469 0.019279
v 0.039310 0.074393 0.019254
v 0.039483 0.074393 0.019404
v 0.039468 0.074469 0.019521
v 0.039286 0.074517 0.019444
v 0.043083 0.081531 -0.009384
v 0.042887 0.081483 -0.009344
v 0.042751 0.081531 -0.009201
v 0.042863 0.081607 -0.009153
v 0.043068 0.081607 -0.009267
v 0.064811 0.081531 -0.007082
v 0.064714 0.081483 -0.007247
v 0.064532 0.081531 -0.007324
v 0.064517 0.081607 -0.007207
v 0.064690 0.081607 -0.007057
v 0.068834 0.081531 0.013435
v 0.068970 0.081483 0.013292
v 0.068994 0.081531 0.013102
v 0.068873 0.081607 0.013127
v 0.068774 0.081607 0.013333
v 0.049594 0.081531 0.023813
v 0.049775 0.081483 0.023890
v 0.049971 0.081531 0.023850
v 0.049911 0.081607 0.023748
v 0.049677 0.081607 0.023725
v 0.033678 0.081531 0.009710
v 0.033654 0.081483 0.009901
v 0.033752 0.081531 0.010066
v 0.033836 0.081607 0.009978
v 0.033790 0.081607 0.009758
v 0.052024 0.085942 0.005908
v 0.051819 0.085942 0.006022
v 0.051864 0.085942 0.006241
v 0.052097 0.085942 0.006263
v 0.052196 0.085942 0.006058
v 0.015953 0.070058 -0.005552
v 0.016160 0.070058 -0.005465
v 0.016146 0.070058 -0.005252
v 0.015930 0.070058 -0.005206
v 0.015811 0.070058 -0.005391
v 0.001228 0.074393 0.003261
v 0.001185 0.074469 0.003365
v 0.001039 0.074517 0.003243
v 0.000992 0.074469 0.003065
v 0.001109 0.074393 0.003076
v 0.002546 0.074393 -0.016725
v 0.002404 0.074393 -0.016565
v 0.002287 0.074469 -0.016576
v 0.002357 0.074517 -0.016743
v 0.002517 0.074469 -0.016835
v 0.022576 0.074393 -0.020838
v 0.022369 0.074393 -0.020925
v 0.022340 0.074469 -0.021035
v 0.022529 0.074517 -0.021017
v 0.022675 0.074469 -0.020895
v 0.033518 0.074393 -0.003579
v 0.033532 0.074393 -0.003793
v 0.033631 0.074469 -0.003850
v 0.033678 0.074517 -0.003671
v 0.033608 0.074469 -0.003504
v 0.020208 0.074469 0.011304
v 0.020251 0.074393 0.011201
v 0.020467 0.074393 0.011155
v 0.020557 0.074469 0.011230
v 0.020397 0.074517 0.011322
v -0.001608 0.081531 -0.007242
v -0.001678 0.081483 -0.007075
v -0.001631 0.081531 -0.006897
v -0.001532 0.081607 -0.006954
v -0.001518 0.081607 -0.007167
v 0.011792 0.081531 -0.022050
v 0.011603 0.081483 -0.022068
v 0.011443 0.081531 -0.021976
v 0.011533 0.081607 -0.021901
v 0.011749 0.081607 -0.021947
v 0.031008 0.081531 -0.013811
v 0.030961 0.081483 -0.013990
v 0.030815 0.081531 -0.014111
v 0.030772 0.081607 -0.014008
v 0.030891 0.081607 -0.013822
v 0.029483 0.081531 0.006089
v 0.029643 0.081483 0.005997
v 0.029713 0.081531 0.005830
v 0.029596 0.081607 0.005818
v 0.029454 0.081607 0.005979
v 0.009325 0.081531 0.010149
v 0.009471 0.081483 0.010270
v 0.009660 0.081531 0.010289
v 0.009631 0.081607 0.010178
v 0.009424 0.081607 0.010092
v 0.015854 0.085942 -0.005495
v 0.015840 0.085942 -0.005281
v 0.016047 0.085942 -0.005195
v 0.016189 0.085942 -0.005355
v 0.016070 0.085942 -0.005540
v -0.019958 0.070058 -0.004446
v -0.019828 0.070058 -0.004263
v -0.019936 0.070058 -0.004101
v -0.020132 0.070058 -0.004185
v -0.020146 0.070058 -0.004398
v -0.035929 0.074393 -0.005632
v -0.036011 0.074469 -0.005574
v -0.036074 0.074517 -0.005751
v -0.036032 0.074469 -0.005918
v -0.035942 0.074393 -0.005844
v -0.025832 0.074393 -0.020719
v -0.026020 0.074393 -0.020670
v -0.026110 0.074469 -0.020744
v -0.025978 0.074517 -0.020838
v -0.025806 0.074469 -0.020822
v -0.007662 0.074393 -0.012873
v -0.007792 0.074393 -0.013056
v -0.007766 0.074469 -0.013159
v -0.007620 0.074517 -0.013040
v -0.007556 0.074469 -0.012863
v -0.006543 0.074393 0.006850
v -0.006435 0.074393 0.006689
v -0.006329 0.074469 0.006699
v -0.006371 0.074517 0.006866
v -0.006503 0.074469 0.006959
v -0.024102 0.074469 0.011252
v -0.024021 0.074393 0.011194
v -0.023824 0.074393 0.011277
v -0.023785 0.074469 0.011387
v -0.023957 0.074517 0.011371
v -0.033497 0.081531 -0.015516
v -0.033629 0.081483 -0.015423
v -0.033671 0.081531 -0.015255
v -0.033565 0.081607 -0.015246
v -0.033457 0.081607 -0.015407
v -0.015898 0.081531 -0.019809
v -0.016043 0.081483 -0.019928
v -0.016215 0.081531 -0.019943
v -0.016176 0.081607 -0.019834
v -0.015979 0.081607 -0.019751
v -0.003968 0.081531 -0.002639
v -0.003926 0.081483 -0.002806
v -0.003989 0.081531 -0.002983
v -0.004071 0.081607 -0.002925
v -0.004058 0.081607 -0.002713
v -0.014194 0.081531 0.012265
v -0.014022 0.081483 0.012281
v -0.013890 0.081531 0.012187
v -0.013980 0.081607 0.012114
v -0.014168 0.081607 0.012162
v -0.032444 0.081531 0.004307
v -0.032380 0.081483 0.004484
v -0.032234 0.081531 0.004603
v -0.032208 0.081607 0.004499
v -0.032338 0.081607 0.004316
v -0.020064 0.085942 -0.004455
v -0.020172 0.085942 -0.004294
v -0.020042 0.085942 -0.004111
v -0.019854 0.085942 -0.004159
v -0.019868 0.085942 -0.004372
v -0.056033 0.070058 -0.001101
v -0.055843 0.070058 -0.000982
v -0.055870 0.070058 -0.000810
v -0.056076 0.070058 -0.000823
v -0.056177 0.070058 -0.001003
v -0.070467 0.074393 0.002690
v -0.070514 0.074469 0.002765
v -0.070644 0.074517 0.002631
v -0.070677 0.074469 0.002473
v -0.070567 0.074393 0.002510
v -0.067981 0.074393 -0.013425
v -0.068125 0.074393 -0.013327
v -0.068234 0.074469 -0.013363
v -0.068158 0.074517 -0.013484
v -0.068001 0.074469 -0.013523
v -0.048837 0.074393 -0.012111
v -0.049027 0.074393 -0.012231
v -0.049047 0.074469 -0.012328
v -0.048870 0.074517 -0.012269
v -0.048740 0.074469 -0.012135
v -0.039592 0.074393 0.004636
v -0.039566 0.074393 0.004464
v -0.039469 0.074469 0.004440
v -0.039436 0.074517 0.004598
v -0.039512 0.074469 0.004719
v -0.053070 0.074469 0.013747
v -0.053023 0.074393 0.013672
v -0.052816 0.074393 0.013685
v -0.052736 0.074469 0.013768
v -0.052893 0.074517 0.013806
v -0.072488 0.081531 -0.006606
v -0.072564 0.081483 -0.006485
v -0.072531 0.081531 -0.006328
v -0.072434 0.081607 -0.006351
v -0.072408 0.081607 -0.006523
v -0.058930 0.081531 -0.015634
v -0.059107 0.081483 -0.015693
v -0.059264 0.081531 -0.015655
v -0.059184 0.081607 -0.015572
v -0.058977 0.081607 -0.015559
v -0.041323 0.081531 -0.004360
v -0.041356 0.081483 -0.004518
v -0.041486 0.081531 -0.004652
v -0.041533 0.081607 -0.004577
v -0.041433 0.081607 -0.004397
v -0.043999 0.081531 0.011635
v -0.043842 0.081483 0.011597
v -0.043766 0.081531 0.011476
v -0.043875 0.081607 0.011439
v -0.044019 0.081607 0.011538
v -0.063260 0.081531 0.010248
v -0.063130 0.081483 0.010382
v -0.062953 0.081531 0.010441
v -0.062973 0.081607 0.010343
v -0.063163 0.081607 0.010224
v -0.056130 0.085942 -0.001078
v -0.056157 0.085942 -0.000905
v -0.055967 0.085942 -0.000786
v -0.055823 0.085942 -0.000884
v -0.055924 0.085942 -0.001065
v 0.105363 0.014550 -0.039691
v 0.105352 0.015397 -0.040740
v 0.105723 0.015390 -0.039688
v 0.105298 0.083715 -0.040247
v 0.105307 0.084548 -0.039185
v 0.105668 0.083708 -0.039195
v 0.106189 0.013931 0.046191
v 0.106548 0.014771 0.046194
v 0.106199 0.014763 0.047253
v 0.106133 0.083929 0.046696
v 0.106144 0.083081 0.047746
v 0.106494 0.083089 0.046687
v 0.076085 0.014524 -0.039409
v 0.075724 0.015364 -0.039400
v 0.076074 0.015372 -0.040459
v 0.076029 0.084522 -0.038904
v 0.076019 0.083690 -0.039966
v 0.075669 0.083682 -0.038907
v 0.076910 0.013905 0.046473
v 0.076920 0.014737 0.047535
v 0.076550 0.014745 0.046482
v 0.076854 0.083903 0.046978
v 0.076495 0.083063 0.046975
v 0.076865 0.083056 0.048028
vn 0.4992 -0.0029 0.8665
vn -0.5868 0.0031 0.8098
vn 0.5107 -0.8138 0.2774
vn -0.5756 -0.7819 0.2395
vn 0.5383 -0.5040 -0.6754
vn -0.5489 -0.4820 -0.6829
vn 0.5438 0.4983 -0.6753
vn -0.5435 0.4883 -0.6828
vn 0.5197 0.8080 0.2777
vn -0.5669 0.7881 0.2398
vn 0.6785 -0.4254 0.5989
vn -0.7345 -0.4056 0.5440
vn -0.0627 0.0002 0.9980
vn -0.0492 -0.9502 0.3076
vn 0.6988 -0.6859 -0.2027
vn -0.7147 -0.6588 -0.2348
vn -0.0168 -0.5872 -0.8093
vn 0.7161 -0.0039 -0.6980
vn -0.6980 0.0040 -0.7161
vn -0.0103 0.5876 -0.8091
vn 0.7064 0.6782 -0.2025
vn -0.7074 0.6667 -0.2346
vn -0.0387 0.9506 0.3079
vn 0.6832 0.4177 0.5990
vn -0.7300 0.4136 0.5442
vn 0.9996 -0.0055 0.0272
vn -0.0540 -0.5874 0.8075
vn -0.0475 0.5877 0.8077
vn -0.9996 0.0055 -0.0272
vn -0.0256 -0.9505 -0.3097
vn -0.0016 0.0002 -1.0000
vn -0.0151 0.9508 -0.3094
vn 0.5315 -0.0016 0.8470
vn -0.6212 0.0016 0.7836
vn 0.5644 -0.8252 0.0241
vn -0.5889 -0.8078 -0.0251
vn 0.6018 -0.0016 -0.7986
vn -0.5522 0.0016 -0.8337
vn 0.5689 0.8220 0.0243
vn -0.5845 0.8110 -0.0250
vn 0.6790 -0.5052 0.5327
vn -0.7336 -0.4948 0.4659
vn -0.0611 -0.0000 0.9981
vn -0.0212 -0.9998 -0.0009
vn 0.7219 -0.5052 -0.4729
vn -0.6912 -0.4948 -0.5267
vn 0.0242 0.0001 -0.9997
vn 0.7247 0.5013 -0.4728
vn -0.6885 0.4987 -0.5266
vn -0.0157 0.9999 -0.0007
vn 0.6818 0.5013 0.5328
vn -0.7309 0.4987 0.4660
vn 0.9991 -0.0028 0.0427
vn -0.0451 -0.7070 0.7058
vn -0.0412 0.7071 0.7059
vn -0.9991 0.0028 -0.0427
vn 0.0152 -0.7070 -0.7070
vn 0.0191 0.7071 -0.7069
vn -0.0000 -1.0000 -0.0000
vn -0.5525 -0.7903 -0.2650
vn 0.0595 -0.7822 -0.6202
vn 0.5935 -0.7954 -0.1229
vn 0.3011 -0.7822 0.5454
vn -0.4016 -0.7903 0.4628
vn -0.3011 0.7822 -0.5454
vn 0.4016 0.7903 -0.4628
vn 0.5524 0.7903 0.2651
vn -0.0595 0.7822 0.6202
vn -0.5934 0.7954 0.1230
vn -0.0000 1.0000 -0.0000
vn 0.0228 -0.9710 -0.2379
vn -0.2101 -0.9725 -0.1008
vn -0.2618 -0.8406 -0.4742
vn -0.5138 -0.8513 0.1065
vn -0.1527 -0.9725 0.1760
vn 0.2244 -0.9734 -0.0465
vn 0.3483 -0.8471 -0.4013
vn 0.1155 -0.9710 0.2092
vn 0.4791 -0.8471 0.2299
vn -0.0518 -0.8406 0.5392
vn -0.9923 -0.0000 -0.1241
vn -0.8612 -0.0000 0.5083
vn -0.2029 -0.0000 -0.9792
vn -0.7241 -0.0000 -0.6897
vn 0.8612 -0.0000 -0.5082
vn 0.3903 -0.0000 -0.9207
vn 0.7240 -0.0000 0.6898
vn 0.9923 -0.0000 0.1241
vn -0.3903 -0.0000 0.9207
vn 0.2029 -0.0000 0.9792
vn -0.4790 0.8472 -0.2299
vn 0.0518 0.8406 -0.5392
vn 0.5138 0.8513 -0.1065
vn 0.2618 0.8406 0.4742
vn -0.3483 0.8471 0.4013
vn -0.1155 0.9710 -0.2092
vn -0.2244 0.9734 0.0465
vn 0.1527 0.9725 -0.1760
vn 0.2101 0.9725 0.1008
vn -0.0228 0.9710 0.2379
vn 0.1861 -0.9588 -0.2145
vn -0.1407 -0.9567 -0.2548
vn -0.2736 -0.9602 0.0567
vn 0.2560 -0.9588 0.1228
vn -0.0278 -0.9567 0.2897
vn -0.8753 -0.4482 0.1814
vn -0.8088 0.4419 -0.3880
vn -0.4358 -0.4324 -0.7894
vn 0.0862 0.4324 -0.8975
vn 0.5879 -0.4419 -0.6775
vn 0.8753 0.4482 -0.1814
vn 0.8088 -0.4419 0.3880
vn 0.4358 0.4324 0.7894
vn -0.0862 -0.4324 0.8975
vn -0.5879 0.4419 0.6775
vn 0.0278 0.9567 -0.2897
vn -0.2560 0.9588 -0.1228
vn 0.2736 0.9602 -0.0567
vn 0.1407 0.9567 0.2548
vn -0.1861 0.9588 0.2145
vn -0.5364 -0.7703 0.3448
vn -0.4691 -0.7793 -0.4155
vn 0.2481 -0.7649 -0.5945
vn 0.6253 -0.7793 0.0412
vn 0.1322 -0.7703 0.6238
vn -0.6253 0.7793 -0.0412
vn -0.1322 0.7703 -0.6238
vn 0.5364 0.7703 -0.3448
vn 0.4691 0.7793 0.4155
vn -0.2481 0.7649 0.5945
vn -0.1805 -0.9705 -0.1599
vn -0.2085 -0.9688 0.1340
vn -0.5442 -0.8382 -0.0359
vn -0.2169 -0.8264 0.5196
vn 0.0513 -0.9688 0.2424
vn 0.0970 -0.9678 -0.2324
vn -0.1153 -0.8309 -0.5444
vn 0.2406 -0.9705 0.0159
vn 0.4681 -0.8309 -0.3009
vn 0.4083 -0.8382 0.3616
vn -0.6402 -0.0000 0.7682
vn -0.0958 -0.0000 0.9954
vn -0.9229 -0.0000 -0.3851
vn -0.9670 -0.0000 0.2547
vn 0.0958 -0.0000 -0.9954
vn -0.4991 -0.0000 -0.8665
vn 0.9670 -0.0000 -0.2547
vn 0.6402 -0.0000 -0.7682
vn 0.4991 -0.0000 0.8666
vn 0.9229 -0.0000 0.3851
vn -0.4681 0.8308 0.3009
vn -0.4081 0.8382 -0.3616
vn 0.2169 0.8264 -0.5196
vn 0.5442 0.8382 0.0359
vn 0.1153 0.8309 0.5444
vn -0.2406 0.9705 -0.0159
vn -0.0970 0.9678 0.2324
vn -0.0514 0.9688 -0.2424
vn 0.2085 0.9688 -0.1340
vn 0.1805 0.9705 0.1599
vn -0.0625 -0.9535 -0.2949
vn -0.2930 -0.9559 -0.0193
vn -0.1179 -0.9520 0.2826
vn 0.2536 -0.9535 -0.1630
vn 0.2198 -0.9559 0.1947
vn -0.3508 -0.4131 0.8404
vn -0.7638 0.4190 0.4910
vn -0.9013 -0.4291 -0.0594
vn -0.6761 0.4291 -0.5989
vn -0.1882 -0.4190 -0.8883
vn 0.3508 0.4131 -0.8404
vn 0.7638 -0.4190 -0.4910
vn 0.9013 0.4291 0.0594
vn 0.6761 -0.4291 0.5989
vn 0.1882 0.4190 0.8883
vn -0.2198 0.9559 -0.1947
vn -0.2536 0.9535 0.1630
vn 0.1179 0.9520 -0.2826
vn 0.2930 0.9559 0.0193
vn 0.0625 0.9535 0.2949
vn -0.6656 -0.7451 0.0417
vn -0.1568 -0.7753 -0.6118
vn 0.5595 -0.7282 -0.3960
vn 0.5249 -0.7753 0.3513
vn -0.2607 -0.7452 0.6138
vn -0.5249 0.7753 -0.3513
vn 0.2607 0.7452 -0.6138
vn 0.6656 0.7452 -0.0418
vn 0.1567 0.7753 0.6118
vn -0.5594 0.7282 0.3959
vn -0.0607 -0.9697 -0.2365
vn -0.2660 -0.9638 0.0167
vn -0.4573 -0.8350 -0.3061
vn -0.4945 -0.7956 0.3500
vn -0.1042 -0.9638 0.2453
vn 0.2280 -0.9602 -0.1613
vn 0.2292 -0.8100 -0.5398
vn 0.2028 -0.9698 0.1358
vn 0.5854 -0.8099 -0.0367
vn 0.1366 -0.8350 0.5331
vn -0.9406 -0.0000 0.3395
vn -0.6330 -0.0000 0.7742
vn -0.5777 -0.0000 -0.8162
vn -0.9695 -0.0000 -0.2451
vn 0.6330 -0.0000 -0.7741
vn 0.0912 -0.0000 -0.9958
vn 0.9695 -0.0000 0.2451
vn 0.9406 -0.0000 -0.3396
vn -0.0912 -0.0000 0.9958
vn 0.5777 -0.0000 0.8162
vn -0.5853 0.8100 0.0367
vn -0.1365 0.8350 -0.5331
vn 0.4945 0.7956 -0.3500
vn 0.4572 0.8350 0.3061
vn -0.2293 0.8100 0.5398
vn -0.2029 0.9697 -0.1358
vn -0.2280 0.9602 0.1613
vn 0.1041 0.9638 -0.2453
vn 0.2660 0.9638 -0.0167
vn 0.0605 0.9698 0.2365
vn 0.1264 -0.9462 -0.2977
vn -0.2469 -0.9549 -0.1652
vn -0.2761 -0.9410 0.1954
vn 0.3228 -0.9462 -0.0203
vn 0.0737 -0.9549 0.2878
vn -0.7563 -0.3761 0.5353
vn -0.9179 0.3925 0.0576
vn -0.7525 -0.4246 -0.5035
vn -0.2247 0.4246 -0.8771
vn 0.3596 -0.3925 -0.8465
vn 0.7563 0.3761 -0.5353
vn 0.9179 -0.3925 -0.0576
vn 0.7525 0.4246 0.5035
vn 0.2247 -0.4246 0.8771
vn -0.3596 0.3925 0.8465
vn -0.0737 0.9549 -0.2878
vn -0.3228 0.9462 0.0203
vn 0.2761 0.9410 -0.1954
vn 0.2469 0.9549 0.1652
vn -0.1264 0.9462 0.2977
vn -0.6118 -0.7132 0.3422
vn -0.3605 -0.7698 -0.5268
vn 0.3887 -0.6839 -0.6174
vn 0.6309 -0.7697 0.0973
vn -0.0441 -0.7132 0.6996
vn -0.6309 0.7698 -0.0973
vn 0.0441 0.7132 -0.6995
vn 0.6117 0.7132 -0.3422
vn 0.3605 0.7698 0.5268
vn -0.3887 0.6839 0.6174
vn -0.1401 -0.9687 -0.2048
vn -0.2536 -0.9569 0.1418
vn -0.5507 -0.8304 -0.0849
vn -0.3481 -0.7571 0.5529
vn -0.0183 -0.9568 0.2900
vn 0.1668 -0.9497 -0.2649
vn 0.0391 -0.7827 -0.6211
vn 0.2453 -0.9687 0.0378
vn 0.5432 -0.7827 -0.3038
vn 0.3146 -0.8304 0.4598
vn -0.7180 -0.0000 0.6961
vn -0.3173 -0.0000 0.9483
vn -0.8463 -0.0000 -0.5328
vn -0.9785 -0.0000 0.2061
vn 0.3173 -0.0000 -0.9483
vn -0.2371 -0.0000 -0.9715
vn 0.9785 -0.0000 -0.2061
vn 0.7180 -0.0000 -0.6960
vn 0.2371 -0.0000 0.9715
vn 0.8463 -0.0000 0.5327
vn -0.5433 0.7827 0.3038
vn -0.3146 0.8304 -0.4598
vn 0.3481 0.7571 -0.5529
vn 0.5507 0.8304 0.0849
vn -0.0391 0.7827 0.6211
vn -0.2453 0.9687 -0.0378
vn -0.1668 0.9497 0.2649
vn 0.0183 0.9568 -0.2900
vn 0.2536 0.9569 -0.1419
vn 0.1402 0.9687 0.2049
vn 0.0221 -0.9362 -0.3507
vn -0.2984 -0.9533 -0.0460
vn -0.2010 -0.9261 0.3193
vn 0.3067 -0.9362 -0.1716
vn 0.1705 -0.9533 0.2492
vn -0.5016 -0.3371 0.7967
vn -0.8135 0.3623 0.4550
vn -0.8976 -0.4184 -0.1385
vn -0.5129 0.4184 -0.7496
vn 0.0586 -0.3623 -0.9302
vn 0.5016 0.3371 -0.7967
vn 0.8135 -0.3623 -0.4550
vn 0.8976 0.4184 0.1385
vn 0.5129 -0.4184 0.7496
vn -0.0586 0.3623 0.9302
vn -0.1705 0.9533 -0.2492
vn -0.3067 0.9362 0.1716
vn 0.2010 0.9261 -0.3193
vn 0.2984 0.9533 0.0460
vn -0.0221 0.9362 0.3507
vn 0.8745 -0.3730 -0.3101
vn 0.8739 0.3788 -0.3047
vn 0.8802 -0.3773 0.2879
vn 0.8796 0.3745 0.2933
vn -0.8796 -0.3745 -0.2933
vn -0.8802 0.3773 -0.2878
vn -0.8739 -0.3788 0.3047
vn -0.8745 0.3730 0.3101
vn 0.9194 -0.3931 -0.0117
vn 0.9434 0.0032 -0.3317
vn 0.9188 0.3947 -0.0060
vn 0.9496 -0.0015 0.3135
vn 0.0066 -0.7871 0.6168
vn 0.0054 0.7781 0.6281
vn -0.9434 -0.0032 0.3317
vn -0.9188 -0.3947 0.0060
vn -0.9194 0.3931 0.0117
vn -0.9496 0.0015 -0.3136
vn -0.0054 -0.7781 -0.6281
vn -0.0066 0.7871 -0.6168
vn 0.0008 -1.0000 -0.0072
vn 1.0000 0.0009 -0.0096
vn -0.0096 0.0072 -0.9999
vn -0.0008 1.0000 0.0072
vn 0.0096 -0.0072 0.9999
vn -1.0000 -0.0009 0.0096
vn -0.0611 0.0001 0.9981
vn -0.5524 -0.7903 -0.2651
vn 0.0596 -0.7822 -0.6202
vn 0.5934 -0.7954 -0.1230
vn 0.5935 -0.7954 -0.1230
vn -0.4016 -0.7903 0.4627
vn 0.5524 0.7903 0.2650
vn 0.5525 0.7903 0.2650
vn -0.0596 0.7822 0.6202
vn -0.5935 0.7954 0.1230
vn -0.0001 1.0000 -0.0000
vn -0.5139 -0.8512 0.1065
vn -0.8612 -0.0000 0.5082
vn 0.9923 -0.0000 0.1240
vn -0.4791 0.8471 -0.2299
vn 0.5139 0.8512 -0.1065
vn -0.3482 0.8472 0.4013
vn -0.5365 -0.7703 0.3448
vn -0.4691 -0.7792 -0.4156
vn 0.6253 -0.7793 0.0413
vn 0.1322 -0.7703 0.6239
vn -0.6254 0.7793 -0.0412
vn -0.1321 0.7703 -0.6238
vn 0.5365 0.7702 -0.3448
vn 0.4691 0.7793 0.4156
vn -0.5441 -0.8382 -0.0359
vn 0.0514 -0.9688 0.2424
vn 0.4681 -0.8308 -0.3009
vn 0.4081 -0.8382 0.3616
vn -0.4991 -0.0000 -0.8666
vn 0.4991 -0.0000 0.8665
vn -0.4083 0.8382 -0.3616
vn -0.6656 -0.7452 0.0418
vn -0.1567 -0.7753 -0.6118
vn 0.5594 -0.7282 -0.3959
vn -0.2607 -0.7451 0.6138
vn -0.5249 0.7753 -0.3512
vn 0.6656 0.7451 -0.0418
vn 0.1568 0.7753 0.6118
vn -0.5595 0.7282 0.3959
vn -0.5594 0.7282 0.3960
vn -0.0605 -0.9698 -0.2365
vn -0.4574 -0.8350 -0.3060
vn -0.4944 -0.7956 0.3500
vn 0.2279 -0.9602 -0.1613
vn 0.2293 -0.8100 -0.5398
vn 0.5853 -0.8100 -0.0367
vn -0.9406 -0.0000 0.3396
vn -0.5777 -0.0000 -0.8163
vn 0.6330 -0.0000 -0.7742
vn 0.9406 -0.0000 -0.3395
vn -0.1366 0.8350 -0.5331
vn 0.4944 0.7956 -0.3500
vn 0.4573 0.8350 0.3060
vn -0.2279 0.9602 0.1613
vn 0.1042 0.9638 -0.2453
vn -0.6117 -0.7132 0.3422
vn 0.3886 -0.6839 -0.6174
vn 0.6309 -0.7698 0.0973
vn 0.6308 -0.7698 0.0973
vn -0.6308 0.7698 -0.0973
vn 0.0441 0.7132 -0.6996
vn 0.6118 0.7132 -0.3422
vn -0.3887 0.6840 0.6173
vn -0.1402 -0.9687 -0.2048
vn -0.2536 -0.9568 0.1419
vn -0.5506 -0.8304 -0.0849
vn -0.3481 -0.7570 0.5529
vn 0.5431 -0.7828 -0.3038
vn -0.7180 -0.0000 0.6960
vn 0.8462 -0.0000 0.5328
vn -0.5431 0.7827 0.3038
vn 0.3481 0.7570 -0.5529
vn 0.5506 0.8305 0.0849
vn 0.2536 0.9568 -0.1419
vn 0.1401 0.9687 0.2048
vn 0.9496 -0.0015 0.3136
vt 0.185809 0.453424
vt 0.193293 0.457422
vt 0.178325 0.457422
vt 0.185809 0.546576
vt 0.177327 0.542578
vt 0.194291 0.542578
vt 0.107679 0.453424
vt 0.115225 0.457422
vt 0.100935 0.457422
vt 0.107075 0.546576
vt 0.099612 0.542578
vt 0.115704 0.542578
vt 0.034973 0.453424
vt 0.041892 0.457422
vt 0.028483 0.457422
vt 0.034653 0.546576
vt 0.027465 0.542578
vt 0.042453 0.542578
vt 0.336645 0.453424
vt 0.343134 0.457422
vt 0.329726 0.457422
vt 0.336965 0.546576
vt 0.329165 0.542578
vt 0.344153 0.542578
vt 0.263938 0.453424
vt 0.270683 0.457422
vt 0.256393 0.457422
vt 0.264542 0.546576
vt 0.255914 0.542578
vt 0.272006 0.542578
vt 0.406591 0.453424
vt 0.400101 0.457422
vt 0.406271 0.546576
vt 0.975528 0.654509
vt 0.206107 0.095491
vt 0.024472 0.654509
vt 0.500000 1.000000
vt 0.206107 0.095492
vt 0.793893 0.095492
vt 0.399083 0.542578
vt 0.101586 0.461587
vt 0.108379 0.465587
vt 0.094792 0.465587
vt 0.101586 0.538413
vt 0.094098 0.534413
vt 0.109073 0.534413
vt 0.050793 0.461587
vt 0.057586 0.465587
vt 0.043999 0.465587
vt 0.050793 0.538413
vt 0.043305 0.534413
vt 0.058280 0.534413
vt 0.203171 0.461587
vt 0.209964 0.465587
vt 0.196378 0.465587
vt 0.203171 0.538413
vt 0.195684 0.534413
vt 0.210659 0.534413
vt 0.152378 0.461587
vt 0.159172 0.465587
vt 0.145585 0.465587
vt 0.152378 0.538413
vt 0.144891 0.534413
vt 0.159866 0.534413
vt 0.006793 0.465587
vt 0.000000 0.538413
vt 0.007487 0.534413
vt 0.500000 1.000000
vt 0.500000 0.000000
vt 0.000000 0.500000
vt 1.000000 0.500000
vt 0.500062 0.500181
vt 0.500200 0.500000
vt 0.500062 0.499819
vt 0.515157 0.489512
vt 0.514995 0.489400
vt 0.514957 0.489512
vt 0.494373 0.483142
vt 0.494411 0.483030
vt 0.494211 0.483030
vt 0.481426 0.499888
vt 0.481326 0.499819
vt 0.481264 0.500000
vt 0.494149 0.516789
vt 0.494049 0.516858
vt 0.494211 0.516970
vt 0.514957 0.510488
vt 0.514995 0.510600
vt 0.515157 0.510488
vt 0.505789 0.483030
vt 0.505851 0.483211
vt 0.505627 0.483142
vt 0.484843 0.489512
vt 0.485043 0.489512
vt 0.484905 0.489693
vt 0.484843 0.510488
vt 0.484905 0.510307
vt 0.485043 0.510488
vt 0.505789 0.516970
vt 0.505627 0.516858
vt 0.505851 0.516789
vt 0.518736 0.500000
vt 0.518574 0.500112
vt 0.518574 0.499888
vt 0.500162 0.499888
vt 0.500162 0.500112
vt 0.499938 0.500181
vt 0.499838 0.499888
vt 0.494149 0.483211
vt 0.515219 0.489693
vt 0.515095 0.510307
vt 0.515219 0.510307
vt 0.481426 0.500112
vt 0.494049 0.483142
vt 0.494373 0.516858
vt 0.499838 0.500112
vt 0.481326 0.500181
vt 0.494411 0.516970
vt 0.499819 0.503531
vt 0.489693 0.496469
vt 0.500000 0.503483
vt 0.500181 0.503531
vt 0.510307 0.496469
vt 0.510488 0.496517
vt 0.505589 0.503531
vt 0.494411 0.496469
vt 0.505789 0.503483
vt 0.505951 0.503531
vt 0.514995 0.496469
vt 0.515157 0.496517
vt 0.489693 0.503531
vt 0.499819 0.496469
vt 0.489512 0.503483
vt 0.485005 0.503531
vt 0.494049 0.496469
vt 0.494211 0.496517
vt 0.484843 0.503483
vt 0.510307 0.503531
vt 0.500181 0.496469
vt 0.500000 0.496517
vt 0.505951 0.483142
vt 0.518674 0.499819
vt 0.505589 0.483030
vt 0.484781 0.489693
vt 0.505589 0.516970
vt 0.485005 0.510600
vt 0.505951 0.516858
vt 0.499938 0.499819
vt 0.499800 0.500000
vt 0.515095 0.489693
vt 0.489512 0.496517
vt 0.483142 0.503531
vt 0.483142 0.496469
vt 0.516858 0.496469
vt 0.510488 0.503483
vt 0.516858 0.503531
vt 0.499853 0.500112
vt 0.500056 0.500181
vt 0.500181 0.500000
vt 0.513714 0.489512
vt 0.513567 0.489400
vt 0.513533 0.489512
vt 0.494908 0.483142
vt 0.494943 0.483030
vt 0.494762 0.483030
vt 0.483195 0.499888
vt 0.483105 0.499819
vt 0.483049 0.500000
vt 0.494706 0.516789
vt 0.494615 0.516858
vt 0.494762 0.516970
vt 0.513533 0.510488
vt 0.513567 0.510600
vt 0.513714 0.510488
vt 0.505238 0.483030
vt 0.505294 0.483211
vt 0.505092 0.483142
vt 0.486286 0.489512
vt 0.486467 0.489512
vt 0.486342 0.489693
vt 0.486286 0.510488
vt 0.486342 0.510307
vt 0.486467 0.510488
vt 0.505238 0.516970
vt 0.505092 0.516858
vt 0.505294 0.516789
vt 0.516951 0.500000
vt 0.516805 0.500112
vt 0.516805 0.499888
vt 0.500147 0.500112
vt 0.499944 0.500181
vt 0.499819 0.500000
vt 0.494706 0.483211
vt 0.500056 0.499819
vt 0.513658 0.489693
vt 0.513770 0.510307
vt 0.513658 0.510307
vt 0.483195 0.500112
vt 0.494615 0.483142
vt 0.494908 0.516858
vt 0.483105 0.500181
vt 0.494943 0.516970
vt 0.505057 0.503531
vt 0.494943 0.496469
vt 0.505238 0.503483
vt 0.505385 0.503531
vt 0.513567 0.496469
vt 0.513714 0.496517
vt 0.486433 0.503531
vt 0.494615 0.496469
vt 0.494762 0.496517
vt 0.486286 0.503483
vt 0.516895 0.499819
vt 0.486433 0.489400
vt 0.505057 0.483030
vt 0.486230 0.489693
vt 0.486433 0.510600
vt 0.516895 0.500181
vt 0.505385 0.516858
vt 0.499944 0.499819
vt 0.500147 0.499888
vt 0.499853 0.499888
vt 0.499869 0.500112
vt 0.500050 0.500181
vt 0.500162 0.500000
vt 0.512270 0.489512
vt 0.512139 0.489400
vt 0.512108 0.489512
vt 0.495444 0.483142
vt 0.495475 0.483030
vt 0.495313 0.483030
vt 0.484964 0.499888
vt 0.484883 0.499819
vt 0.484833 0.500000
vt 0.495263 0.516789
vt 0.495182 0.516858
vt 0.495313 0.516970
vt 0.512108 0.510488
vt 0.512139 0.510600
vt 0.512270 0.510488
vt 0.504687 0.483030
vt 0.504737 0.483211
vt 0.504556 0.483142
vt 0.487730 0.489512
vt 0.487892 0.489512
vt 0.487780 0.489693
vt 0.487730 0.510488
vt 0.487780 0.510307
vt 0.487892 0.510488
vt 0.504687 0.516970
vt 0.504556 0.516858
vt 0.504737 0.516789
vt 0.515167 0.500000
vt 0.515036 0.500112
vt 0.515036 0.499888
vt 0.500131 0.500112
vt 0.499950 0.500181
vt 0.499838 0.500000
vt 0.495263 0.483211
vt 0.500050 0.499819
vt 0.512220 0.489693
vt 0.512320 0.489693
vt 0.512220 0.510307
vt 0.512320 0.510307
vt 0.484964 0.500112
vt 0.495182 0.483142
vt 0.495444 0.516858
vt 0.484883 0.500181
vt 0.495475 0.516970
vt 0.504525 0.503531
vt 0.495475 0.496469
vt 0.504687 0.503483
vt 0.504818 0.503531
vt 0.512139 0.496469
vt 0.512270 0.496517
vt 0.487861 0.503531
vt 0.495182 0.496469
vt 0.495313 0.496517
vt 0.487730 0.503483
vt 0.515117 0.499819
vt 0.487861 0.489400
vt 0.504525 0.483030
vt 0.487680 0.489693
vt 0.487861 0.510600
vt 0.515117 0.500181
vt 0.504818 0.516858
vt 0.499950 0.499819
vt 0.500131 0.499888
vt 0.499869 0.499888
vt 0.499884 0.500112
vt 0.500044 0.500181
vt 0.500143 0.500000
vt 0.510827 0.489512
vt 0.510711 0.489400
vt 0.510684 0.489512
vt 0.495980 0.483142
vt 0.496008 0.483030
vt 0.495865 0.483030
vt 0.499888 0.496393
vt 0.495820 0.516789
vt 0.495749 0.516858
vt 0.495865 0.516970
vt 0.510684 0.510488
vt 0.510711 0.510600
vt 0.510827 0.510488
vt 0.504135 0.483030
vt 0.504180 0.483211
vt 0.504020 0.483142
vt 0.489173 0.489512
vt 0.489316 0.489512
vt 0.489218 0.489693
vt 0.489173 0.510488
vt 0.489218 0.510307
vt 0.489316 0.510488
vt 0.504135 0.516970
vt 0.504020 0.516858
vt 0.504180 0.516789
vt 0.500112 0.503607
vt 0.499888 0.503607
vt 0.500116 0.500112
vt 0.499956 0.500181
vt 0.499857 0.500000
vt 0.495820 0.483211
vt 0.500044 0.499819
vt 0.510782 0.489693
vt 0.510871 0.489693
vt 0.510782 0.510307
vt 0.510871 0.510307
vt 0.486733 0.499888
vt 0.486733 0.500112
vt 0.486662 0.499819
vt 0.495749 0.483142
vt 0.495980 0.516858
vt 0.486662 0.500181
vt 0.496008 0.516970
vt 0.503992 0.503531
vt 0.496008 0.496469
vt 0.504135 0.503483
vt 0.504251 0.503531
vt 0.510711 0.496469
vt 0.510827 0.496517
vt 0.489289 0.503531
vt 0.495749 0.496469
vt 0.495865 0.496517
vt 0.489173 0.503483
vt 0.513338 0.499819
vt 0.513267 0.499888
vt 0.489289 0.489400
vt 0.503992 0.483030
vt 0.489129 0.489693
vt 0.489289 0.510600
vt 0.513338 0.500181
vt 0.504251 0.516858
vt 0.499956 0.499819
vt 0.500116 0.499888
vt 0.513267 0.500112
vt 0.499884 0.499888
vt 0.457056 0.465000
vt 0.456000 0.465840
vt 0.457056 0.465840
vt 0.456000 0.534160
vt 0.457056 0.535000
vt 0.457056 0.534160
vt 0.542944 0.465000
vt 0.542944 0.465840
vt 0.544000 0.465840
vt 0.542944 0.535000
vt 0.544000 0.534160
vt 0.542944 0.534160
vt 0.485360 0.542944
vt 0.514640 0.544000
vt 0.514640 0.542944
vt 0.485360 0.544000
vt 0.514640 0.457056
vt 0.485360 0.456000
vt 0.485360 0.457056
vt 0.514640 0.456000
vt 0.514640 0.465840
vt 0.485360 0.534160
vt 0.485360 0.465840
vt 0.793893 0.095491
vt 0.975528 0.654508
vt 0.024472 0.654508
vt 0.000000 0.461587
vt 0.485005 0.489400
vt 0.484781 0.510307
vt 0.518674 0.500181
vt 0.513770 0.489693
vt 0.505385 0.483142
vt 0.486230 0.510307
vt 0.505057 0.516970
vt 0.504818 0.483142
vt 0.487680 0.510307
vt 0.504525 0.516970
vt 0.500112 0.496393
vt 0.504251 0.483142
vt 0.489129 0.510307
vt 0.503992 0.516970
vt 0.514640 0.534160
s 0
usemtl wood
f 1/1/1 2/2/1 3/3/1
f 4/4/2 5/5/2 6/6/2
f 7/7/3 8/8/3 9/9/3
f 10/10/4 11/11/4 12/12/4
f 13/13/5 14/14/5 15/15/5
f 16/16/6 17/17/6 18/18/6
f 19/19/7 20/20/7 21/21/7
f 22/22/8 23/23/8 24/24/8
f 25/25/9 26/26/9 27/27/9
f 28/28/10 29/29/10 30/30/10
f 3/3/11 7/7/11 1/1/11
f 12/12/12 4/4/12 10/10/12
f 6/6/13 3/3/13 2/2/13
f 9/9/14 12/12/14 11/11/14
f 14/14/15 7/7/15 9/9/15
f 11/11/16 16/16/16 18/18/16
f 15/15/17 18/18/17 17/17/17
f 20/20/18 13/31/18 15/32/18
f 24/24/19 16/33/19 22/22/19
f 21/21/20 24/24/20 23/23/20
f 26/26/21 19/19/21 21/21/21
f 23/23/22 28/28/22 30/30/22
f 27/27/23 30/30/23 29/29/23
f 2/2/24 25/25/24 27/27/24
f 29/29/25 4/4/25 6/6/25
f 5/5/27 8/8/27 3/3/27
f 29/29/28 2/2/28 27/27/28
f 11/11/30 14/14/30 9/9/30
f 17/40/31 20/20/31 15/32/31
f 21/21/32 30/30/32 26/26/32
f 31/41/33 32/42/33 33/43/33
f 34/44/34 35/45/34 36/46/34
f 37/47/35 38/48/35 39/49/35
f 40/50/36 41/51/36 42/52/36
f 43/53/37 44/54/37 45/55/37
f 46/56/38 47/57/38 48/58/38
f 49/59/39 50/60/39 51/61/39
f 52/62/40 53/63/40 54/64/40
f 33/43/41 37/47/41 31/41/41
f 35/45/42 40/50/42 42/52/42
f 36/46/43 33/43/43 32/42/43
f 39/49/44 42/52/44 41/51/44
f 44/65/45 37/47/45 39/49/45
f 41/51/46 46/66/46 48/67/46
f 45/55/47 48/58/47 47/57/47
f 45/55/48 49/59/48 43/53/48
f 47/57/49 52/62/49 54/64/49
f 51/61/50 54/64/50 53/63/50
f 32/42/51 49/59/51 51/61/51
f 53/63/52 34/44/52 36/46/52
f 33/43/54 42/52/54 38/48/54
f 53/63/55 32/42/55 51/61/55
f 41/51/57 44/65/57 39/49/57
f 47/57/58 50/60/58 45/55/58
f 3/3/11 8/8/11 7/7/11
f 12/12/12 5/5/12 4/4/12
f 6/6/13 5/5/13 3/3/13
f 9/9/14 8/8/14 12/12/14
f 14/14/15 13/13/15 7/7/15
f 11/11/16 10/10/16 16/16/16
f 15/15/17 14/14/17 18/18/17
f 20/20/18 19/19/18 13/31/18
f 24/24/19 17/40/19 16/33/19
f 21/21/20 20/20/20 24/24/20
f 26/26/21 25/25/21 19/19/21
f 23/23/22 22/22/22 28/28/22
f 27/27/23 26/26/23 30/30/23
f 2/2/24 1/1/24 25/25/24
f 29/29/25 28/28/25 4/4/25
f 5/5/27 12/12/27 8/8/27
f 29/29/28 6/6/28 2/2/28
f 11/11/30 18/18/30 14/14/30
f 17/40/31 24/24/31 20/20/31
f 21/21/32 23/23/32 30/30/32
f 33/43/41 38/48/41 37/47/41
f 35/45/42 34/44/42 40/50/42
f 36/46/327 35/45/327 33/43/327
f 39/49/44 38/48/44 42/52/44
f 44/65/45 43/384/45 37/47/45
f 41/51/46 40/50/46 46/66/46
f 45/55/47 44/54/47 48/58/47
f 45/55/48 50/60/48 49/59/48
f 47/57/49 46/56/49 52/62/49
f 51/61/50 50/60/50 54/64/50
f 32/42/51 31/41/51 49/59/51
f 53/63/52 52/62/52 34/44/52
f 33/43/54 35/45/54 42/52/54
f 53/63/55 36/46/55 32/42/55
f 41/51/57 48/67/57 44/65/57
f 47/57/58 54/64/58 50/60/58
usemtl wood_end
f 7/34/26 19/35/26 25/36/26
f 4/37/29 22/38/29 16/39/29
f 31/68/53 43/69/53 49/70/53
f 34/68/56 46/69/56 40/71/56
f 25/36/26 1/68/26 7/34/26
f 7/34/26 13/381/26 19/35/26
f 16/39/29 10/382/29 4/37/29
f 4/37/29 28/383/29 22/38/29
f 31/68/53 37/71/53 43/69/53
f 34/68/56 52/70/56 46/69/56
usemtl resin
f 57/72/59 58/73/59 59/74/59
f 62/75/60 63/76/60 64/77/60
f 66/78/61 67/79/61 68/80/61
f 71/81/62 72/82/62 73/83/62
f 76/84/63 77/85/63 78/86/63
f 82/87/64 83/88/64 84/89/64
f 86/90/65 88/91/65 89/92/65
f 91/93/66 93/94/66 94/95/66
f 96/96/67 98/97/67 99/98/67
f 101/99/68 103/100/68 104/101/68
f 106/102/69 108/103/69 109/104/69
f 111/105/70 112/106/70 113/107/70
f 55/108/71 66/78/71 65/109/71
f 58/73/72 64/77/72 59/74/72
f 67/79/73 64/77/73 63/76/73
f 61/110/74 81/111/74 80/112/74
f 82/87/75 58/73/75 57/72/75
f 70/113/76 55/108/76 71/81/76
f 69/114/77 71/81/77 65/109/77
f 75/115/78 56/116/78 76/84/78
f 77/85/79 70/113/79 74/117/79
f 79/118/80 82/87/80 75/115/80
f 105/119/81 61/120/81 106/121/81
f 107/122/82 80/123/82 84/124/82
f 85/125/83 67/126/83 86/127/83
f 87/128/84 63/129/84 62/130/84
f 90/131/85 72/132/85 91/133/85
f 92/134/86 69/135/86 68/136/86
f 95/134/87 77/135/87 96/137/87
f 97/138/88 74/139/88 73/140/88
f 100/128/89 83/129/89 101/127/89
f 102/125/90 79/126/90 78/136/90
f 109/104/91 87/141/91 105/142/91
f 93/94/92 85/143/92 89/92/92
f 98/97/93 90/144/93 94/95/93
f 99/98/94 102/145/94 95/146/94
f 108/103/95 100/147/95 104/101/95
f 89/92/96 111/105/96 110/148/96
f 112/106/97 109/104/97 108/103/97
f 114/149/98 93/94/98 110/148/98
f 99/98/99 114/149/99 113/107/99
f 112/106/100 103/100/100 113/107/100
f 55/108/101 65/109/101 71/81/101
f 59/74/102 64/77/102 66/78/102
f 60/150/103 58/73/103 81/111/103
f 56/116/104 70/113/104 76/84/104
f 57/72/105 75/115/105 82/87/105
f 61/120/106 80/123/106 106/121/106
f 62/151/107 105/119/107 87/152/107
f 67/126/108 63/129/108 86/127/108
f 68/136/109 85/125/109 92/134/109
f 72/132/110 69/153/110 91/133/110
f 73/140/111 90/131/111 97/138/111
f 77/154/112 74/139/112 96/155/112
f 78/136/113 95/134/113 102/125/113
f 83/129/114 79/126/114 101/127/114
f 84/124/115 100/156/115 107/122/115
f 93/94/116 89/92/116 110/148/116
f 88/91/117 109/104/117 111/105/117
f 98/97/118 94/95/118 114/149/118
f 103/100/119 99/98/119 113/107/119
f 108/103/120 104/101/120 112/106/120
f 116/157/59 117/158/59 118/159/59
f 122/160/121 123/161/121 124/162/121
f 126/163/122 127/164/122 128/165/122
f 131/166/123 132/167/123 133/168/123
f 136/169/124 137/170/124 138/171/124
f 142/172/125 143/173/125 144/174/125
f 146/175/126 148/176/126 149/177/126
f 151/178/127 153/179/127 154/180/127
f 156/181/128 158/182/128 159/183/128
f 161/184/129 163/185/129 164/186/129
f 166/187/130 168/188/130 169/189/130
f 172/190/70 173/191/70 174/192/70
f 125/193/131 119/194/131 126/163/131
f 120/195/132 119/194/132 118/159/132
f 123/161/133 126/163/133 124/162/133
f 140/196/134 120/195/134 141/197/134
f 117/158/135 141/197/135 118/159/135
f 116/157/136 131/166/136 130/198/136
f 132/167/137 125/193/137 129/199/137
f 117/158/138 136/169/138 135/200/138
f 134/201/139 136/169/139 130/198/139
f 143/173/140 135/200/140 139/202/140
f 165/119/141 121/120/141 166/121/141
f 167/122/142 140/123/142 144/124/142
f 145/203/143 127/204/143 146/205/143
f 147/206/144 123/207/144 122/208/144
f 150/131/145 132/132/145 151/133/145
f 152/209/146 129/210/146 128/211/146
f 155/209/147 137/210/147 156/212/147
f 157/138/148 134/139/148 133/140/148
f 160/206/149 143/207/149 161/205/149
f 162/203/150 139/204/150 138/211/150
f 148/176/151 165/213/151 169/189/151
f 149/177/152 152/214/152 145/215/152
f 158/182/153 150/216/153 154/180/153
f 163/185/154 155/217/154 159/183/154
f 164/186/155 167/218/155 160/219/155
f 170/220/156 148/176/156 171/221/156
f 172/190/157 169/189/157 168/188/157
f 154/180/158 170/220/158 174/192/158
f 173/191/159 158/182/159 174/192/159
f 164/186/160 173/191/160 172/190/160
f 115/222/161 125/193/161 131/166/161
f 119/194/162 124/162/162 126/163/162
f 120/195/163 118/159/163 141/197/163
f 116/157/164 130/198/164 136/169/164
f 117/158/165 135/200/165 142/172/165
f 121/120/166 140/123/166 166/121/166
f 122/151/167 165/119/167 147/152/167
f 127/204/168 123/207/168 146/205/168
f 128/211/169 145/203/169 152/209/169
f 132/132/170 129/153/170 151/133/170
f 133/140/171 150/131/171 157/138/171
f 137/154/172 134/139/172 156/155/172
f 138/211/173 155/209/173 162/203/173
f 143/207/174 139/204/174 161/205/174
f 144/124/175 160/156/175 167/122/175
f 153/179/176 149/177/176 170/220/176
f 148/176/177 169/189/177 171/221/177
f 158/182/178 154/180/178 174/192/178
f 163/185/179 159/183/179 173/191/179
f 168/188/180 164/186/180 172/190/180
f 176/223/59 177/224/59 178/225/59
f 182/226/181 183/227/181 184/228/181
f 186/229/182 187/230/182 188/231/182
f 191/232/183 192/233/183 193/234/183
f 196/235/184 197/236/184 198/237/184
f 202/238/185 203/239/185 204/240/185
f 206/241/186 208/242/186 209/243/186
f 211/244/187 213/245/187 214/246/187
f 216/247/188 218/248/188 219/249/188
f 221/250/189 223/251/189 224/252/189
f 226/253/190 228/254/190 229/255/190
f 232/256/70 233/257/70 234/258/70
f 185/259/191 179/260/191 186/229/191
f 180/261/192 179/260/192 178/225/192
f 183/227/193 186/229/193 184/228/193
f 181/262/194 201/263/194 200/264/194
f 177/224/195 201/263/195 178/225/195
f 176/223/196 191/232/196 190/265/196
f 192/233/197 185/259/197 189/266/197
f 177/224/198 196/235/198 195/267/198
f 194/268/199 196/235/199 190/265/199
f 203/239/200 195/267/200 199/269/200
f 225/119/201 181/120/201 226/121/201
f 227/122/202 200/123/202 204/124/202
f 205/270/203 187/271/203 206/272/203
f 207/273/204 183/274/204 182/275/204
f 210/131/205 192/132/205 211/133/205
f 212/276/206 189/277/206 188/278/206
f 215/276/207 197/277/207 216/279/207
f 217/138/208 194/139/208 193/140/208
f 220/273/209 203/274/209 221/272/209
f 222/270/210 199/271/210 198/278/210
f 208/242/211 225/280/211 229/255/211
f 209/243/212 212/281/212 205/282/212
f 218/248/213 210/283/213 214/246/213
f 223/251/214 215/284/214 219/249/214
f 224/252/215 227/285/215 220/286/215
f 230/287/216 208/242/216 231/288/216
f 228/254/217 231/288/217 229/255/217
f 214/246/218 230/287/218 234/258/218
f 233/257/219 218/248/219 234/258/219
f 224/252/220 233/257/220 232/256/220
f 175/289/221 185/259/221 191/232/221
f 179/260/222 184/228/222 186/229/222
f 180/261/223 178/225/223 201/263/223
f 176/223/224 190/265/224 196/235/224
f 177/224/225 195/267/225 202/238/225
f 181/120/226 200/123/226 226/121/226
f 182/151/227 225/119/227 207/152/227
f 187/271/228 183/274/228 206/272/228
f 188/278/229 205/270/229 212/276/229
f 192/132/230 189/153/230 211/133/230
f 193/140/231 210/131/231 217/138/231
f 197/154/232 194/139/232 216/155/232
f 198/278/233 215/276/233 222/270/233
f 203/274/234 199/271/234 221/272/234
f 204/124/235 220/156/235 227/122/235
f 213/245/236 209/243/236 230/287/236
f 208/242/237 229/255/237 231/288/237
f 218/248/238 214/246/238 234/258/238
f 223/251/239 219/249/239 233/257/239
f 228/254/240 224/252/240 232/256/240
f 236/290/59 237/291/59 238/292/59
f 242/293/241 243/294/241 244/295/241
f 246/296/242 247/297/242 248/298/242
f 251/299/243 252/132/243 253/140/243
f 256/300/244 257/301/244 258/302/244
f 262/303/245 263/304/245 264/305/245
f 266/306/246 268/307/246 269/308/246
f 271/309/247 273/310/247 274/311/247
f 276/312/248 278/313/248 279/314/248
f 281/315/249 283/316/249 284/317/249
f 286/121/250 288/318/250 289/319/250
f 292/320/70 293/321/70 294/322/70
f 245/323/251 239/324/251 246/296/251
f 240/325/252 239/324/252 238/292/252
f 243/294/253 246/296/253 244/295/253
f 241/326/254 261/327/254 260/328/254
f 237/291/255 261/327/255 238/292/255
f 236/290/256 251/329/256 250/330/256
f 252/331/257 245/323/257 249/332/257
f 237/291/258 256/300/258 255/333/258
f 254/334/259 256/300/259 250/330/259
f 263/304/260 255/333/260 259/335/260
f 285/119/261 241/120/261 286/121/261
f 287/122/262 260/123/262 264/124/262
f 265/336/263 247/337/263 266/338/263
f 267/339/264 243/340/264 242/341/264
f 270/131/265 252/132/265 271/133/265
f 272/342/266 249/343/266 248/344/266
f 275/342/267 257/343/267 276/345/267
f 277/138/268 254/139/268 253/140/268
f 280/339/269 263/340/269 281/338/269
f 282/336/270 259/337/270 258/344/270
f 268/307/271 285/346/271 289/347/271
f 269/308/272 272/348/272 265/349/272
f 278/313/273 270/350/273 274/311/273
f 283/316/274 275/351/274 279/314/274
f 284/317/275 287/352/275 280/353/275
f 290/354/276 268/307/276 291/355/276
f 292/320/277 289/347/277 288/356/277
f 274/311/278 290/354/278 294/322/278
f 293/321/279 278/313/279 294/322/279
f 284/317/280 293/321/280 292/320/280
f 235/357/281 245/323/281 251/329/281
f 239/324/282 244/295/282 246/296/282
f 240/325/283 238/292/283 261/327/283
f 236/290/284 250/330/284 256/300/284
f 237/291/285 255/333/285 262/303/285
f 241/120/286 260/123/286 286/121/286
f 242/151/287 285/119/287 267/152/287
f 247/337/288 243/340/288 266/338/288
f 248/344/289 265/336/289 272/342/289
f 252/132/290 249/153/290 271/133/290
f 253/140/291 270/131/291 277/138/291
f 257/154/292 254/139/292 276/155/292
f 258/344/293 275/342/293 282/336/293
f 263/340/294 259/337/294 281/338/294
f 264/124/295 280/156/295 287/122/295
f 273/310/296 269/308/296 290/354/296
f 268/307/297 289/347/297 291/355/297
f 278/313/298 274/311/298 294/322/298
f 283/316/299 279/314/299 293/321/299
f 288/356/300 284/317/300 292/320/300
f 59/74/59 55/108/59 56/116/59
f 56/116/59 57/72/59 59/74/59
f 64/77/328 60/150/328 62/75/328
f 60/150/60 61/110/60 62/75/60
f 69/114/329 65/109/329 68/80/329
f 65/109/329 66/78/329 68/80/329
f 74/117/330 70/113/330 73/83/330
f 70/113/331 71/81/331 73/83/331
f 79/118/63 75/115/63 78/86/63
f 75/115/63 76/84/63 78/86/63
f 84/89/332 80/112/332 81/111/332
f 81/111/64 82/87/64 84/89/64
f 89/92/65 85/143/65 86/90/65
f 86/90/65 87/141/65 88/91/65
f 94/95/66 90/144/66 91/93/66
f 91/93/66 92/385/66 93/94/66
f 99/98/333 95/146/333 96/96/333
f 96/96/334 97/386/334 98/97/334
f 104/101/335 100/147/335 101/99/335
f 101/99/335 102/145/335 103/100/335
f 109/104/336 105/142/336 106/102/336
f 106/102/336 107/387/336 108/103/336
f 114/149/337 110/148/337 113/107/337
f 110/148/70 111/105/70 113/107/70
f 55/108/71 59/74/71 66/78/71
f 58/73/72 60/150/72 64/77/72
f 67/79/73 66/78/73 64/77/73
f 61/110/338 60/150/338 81/111/338
f 82/87/75 81/111/75 58/73/75
f 70/113/76 56/116/76 55/108/76
f 69/114/77 72/82/77 71/81/77
f 75/115/78 57/72/78 56/116/78
f 77/85/79 76/84/79 70/113/79
f 79/118/80 83/88/80 82/87/80
f 105/119/81 62/151/81 61/120/81
f 107/122/339 106/121/339 80/123/339
f 85/125/83 68/136/83 67/126/83
f 87/128/84 86/127/84 63/129/84
f 90/131/85 73/140/85 72/132/85
f 92/134/86 91/137/86 69/135/86
f 95/134/87 78/136/87 77/135/87
f 97/138/340 96/155/340 74/139/340
f 100/128/89 84/130/89 83/129/89
f 102/125/90 101/127/90 79/126/90
f 109/104/341 88/91/341 87/141/341
f 93/94/92 92/385/92 85/143/92
f 98/97/342 97/386/342 90/144/342
f 99/98/94 103/100/94 102/145/94
f 108/103/343 107/387/343 100/147/343
f 89/92/96 88/91/96 111/105/96
f 112/106/97 111/105/97 109/104/97
f 114/149/98 94/95/98 93/94/98
f 99/98/99 98/97/99 114/149/99
f 112/106/100 104/101/100 103/100/100
f 119/194/59 115/222/59 118/159/59
f 115/222/59 116/157/59 118/159/59
f 124/162/121 120/195/121 122/160/121
f 120/195/344 121/388/344 122/160/344
f 129/199/345 125/193/345 128/165/345
f 125/193/122 126/163/122 128/165/122
f 134/201/123 130/198/123 133/168/123
f 130/198/123 131/166/123 133/168/123
f 139/202/124 135/200/124 138/171/124
f 135/200/346 136/169/346 138/171/346
f 144/174/347 140/196/347 141/197/347
f 141/197/125 142/172/125 144/174/125
f 149/177/126 145/215/126 146/175/126
f 146/175/348 147/389/348 148/176/348
f 154/180/349 150/216/349 151/178/349
f 151/178/127 152/214/127 153/179/127
f 159/183/128 155/217/128 156/181/128
f 156/181/350 157/390/350 158/182/350
f 164/186/351 160/219/351 161/184/351
f 161/184/129 162/391/129 163/185/129
f 169/189/130 165/213/130 166/187/130
f 166/187/130 167/218/130 168/188/130
f 174/192/70 170/220/70 171/221/70
f 171/221/70 172/190/70 174/192/70
f 125/193/131 115/222/131 119/194/131
f 120/195/132 124/162/132 119/194/132
f 123/161/352 127/164/352 126/163/352
f 140/196/134 121/388/134 120/195/134
f 117/158/353 142/172/353 141/197/353
f 116/157/136 115/222/136 131/166/136
f 132/167/137 131/166/137 125/193/137
f 117/158/138 116/157/138 136/169/138
f 134/201/354 137/170/354 136/169/354
f 143/173/355 142/172/355 135/200/355
f 165/119/141 122/151/141 121/120/141
f 167/122/142 166/121/142 140/123/142
f 145/203/143 128/211/143 127/204/143
f 147/206/144 146/205/144 123/207/144
f 150/131/145 133/140/145 132/132/145
f 152/209/356 151/212/356 129/210/356
f 155/209/147 138/211/147 137/210/147
f 157/138/148 156/155/148 134/139/148
f 160/206/357 144/208/357 143/207/357
f 162/203/150 161/205/150 139/204/150
f 148/176/151 147/389/151 165/213/151
f 149/177/358 153/179/358 152/214/358
f 158/182/153 157/390/153 150/216/153
f 163/185/154 162/391/154 155/217/154
f 164/186/155 168/188/155 167/218/155
f 170/220/156 149/177/156 148/176/156
f 172/190/157 171/221/157 169/189/157
f 154/180/158 153/179/158 170/220/158
f 173/191/159 159/183/159 158/182/159
f 164/186/160 163/185/160 173/191/160
f 179/260/59 175/289/59 178/225/59
f 175/289/59 176/223/59 178/225/59
f 184/228/359 180/261/359 182/226/359
f 180/261/181 181/262/181 182/226/181
f 189/266/360 185/259/360 188/231/360
f 185/259/360 186/229/360 188/231/360
f 194/268/361 190/265/361 193/234/361
f 190/265/361 191/232/361 193/234/361
f 199/269/184 195/267/184 198/237/184
f 195/267/184 196/235/184 198/237/184
f 204/240/185 200/264/185 201/263/185
f 201/263/362 202/238/362 204/240/362
f 209/243/186 205/282/186 206/241/186
f 206/241/363 207/392/363 208/242/363
f 214/246/187 210/283/187 211/244/187
f 211/244/187 212/281/187 213/245/187
f 219/249/364 215/284/364 216/247/364
f 216/247/364 217/393/364 218/248/364
f 224/252/189 220/286/189 221/250/189
f 221/250/365 222/394/365 223/251/365
f 229/255/366 225/280/366 226/253/366
f 226/253/367 227/285/367 228/254/367
f 234/258/70 230/287/70 231/288/70
f 231/288/70 232/256/70 234/258/70
f 185/259/368 175/289/368 179/260/368
f 180/261/192 184/228/192 179/260/192
f 183/227/369 187/230/369 186/229/369
f 181/262/370 180/261/370 201/263/370
f 177/224/195 202/238/195 201/263/195
f 176/223/371 175/289/371 191/232/371
f 192/233/372 191/232/372 185/259/372
f 177/224/198 176/223/198 196/235/198
f 194/268/373 197/236/373 196/235/373
f 203/239/200 202/238/200 195/267/200
f 225/119/374 182/151/374 181/120/374
f 227/122/202 226/121/202 200/123/202
f 205/270/375 188/278/375 187/271/375
f 207/273/204 206/272/204 183/274/204
f 210/131/376 193/140/376 192/132/376
f 212/276/206 211/279/206 189/277/206
f 215/276/207 198/278/207 197/277/207
f 217/138/377 216/155/377 194/139/377
f 220/273/209 204/275/209 203/274/209
f 222/270/210 221/272/210 199/271/210
f 208/242/211 207/392/211 225/280/211
f 209/243/378 213/245/378 212/281/378
f 218/248/379 217/393/379 210/283/379
f 223/251/380 222/394/380 215/284/380
f 224/252/215 228/254/215 227/285/215
f 230/287/216 209/243/216 208/242/216
f 228/254/381 232/256/381 231/288/381
f 214/246/382 213/245/382 230/287/382
f 233/257/219 219/249/219 218/248/219
f 224/252/220 223/251/220 233/257/220
f 239/324/59 235/357/59 238/292/59
f 235/357/59 236/290/59 238/292/59
f 244/295/383 240/325/383 242/293/383
f 240/325/383 241/326/383 242/293/383
f 249/332/242 245/323/242 248/298/242
f 245/323/242 246/296/242 248/298/242
f 254/139/384 250/395/384 253/140/384
f 250/395/243 251/299/243 253/140/243
f 259/335/385 255/333/385 258/302/385
f 255/333/386 256/300/386 258/302/386
f 264/305/245 260/328/245 261/327/245
f 261/327/245 262/303/245 264/305/245
f 269/308/387 265/349/387 266/306/387
f 266/306/246 267/396/246 268/307/246
f 274/311/388 270/350/388 271/309/388
f 271/309/388 272/348/388 273/310/388
f 279/314/389 275/351/389 276/312/389
f 276/312/248 277/397/248 278/313/248
f 284/317/249 280/353/249 281/315/249
f 281/315/249 282/398/249 283/316/249
f 289/319/250 285/119/250 286/121/250
f 286/121/390 287/122/390 288/318/390
f 294/322/70 290/354/70 291/355/70
f 291/355/70 292/320/70 294/322/70
f 245/323/391 235/357/391 239/324/391
f 240/325/392 244/295/392 239/324/392
f 243/294/393 247/297/393 246/296/393
f 241/326/394 240/325/394 261/327/394
f 237/291/255 262/303/255 261/327/255
f 236/290/256 235/357/256 251/329/256
f 252/331/257 251/329/257 245/323/257
f 237/291/258 236/290/258 256/300/258
f 254/334/395 257/301/395 256/300/395
f 263/304/260 262/303/260 255/333/260
f 285/119/396 242/151/396 241/120/396
f 287/122/262 286/121/262 260/123/262
f 265/336/263 248/344/263 247/337/263
f 267/339/264 266/338/264 243/340/264
f 270/131/265 253/140/265 252/132/265
f 272/342/266 271/345/266 249/343/266
f 275/342/267 258/344/267 257/343/267
f 277/138/268 276/155/268 254/139/268
f 280/339/269 264/341/269 263/340/269
f 282/336/397 281/338/397 259/337/397
f 268/307/398 267/396/398 285/346/398
f 269/308/272 273/310/272 272/348/272
f 278/313/399 277/397/399 270/350/399
f 283/316/400 282/398/400 275/351/400
f 284/317/275 288/356/275 287/352/275
f 290/354/276 269/308/276 268/307/276
f 292/320/277 291/355/277 289/347/277
f 274/311/278 273/310/278 290/354/278
f 293/321/401 279/314/401 278/313/401
f 284/317/402 283/316/402 293/321/402
usemtl soak
f 295/358/301 296/359/301 297/360/301
f 298/361/302 299/362/302 300/363/302
f 301/364/303 302/365/303 303/366/303
f 304/367/304 305/368/304 306/369/304
f 307/358/305 308/360/305 309/359/305
f 310/362/306 311/361/306 312/363/306
f 313/364/307 314/366/307 315/365/307
f 316/367/308 317/369/308 318/368/308
f 295/358/309 302/365/309 301/364/309
f 298/361/310 297/360/310 296/359/310
f 304/367/311 300/363/311 299/362/311
f 303/366/312 306/369/312 305/368/312
f 301/370/313 314/371/313 313/372/313
f 316/372/314 305/373/314 304/370/314
f 315/365/315 318/368/315 317/369/315
f 313/364/316 308/360/316 307/358/316
f 310/362/317 317/369/317 316/367/317
f 311/361/318 308/360/318 312/363/318
f 307/374/319 296/375/319 295/376/319
f 299/376/320 311/377/320 310/374/320
f 301/370/321 307/374/321 295/376/321
f 300/363/322 302/365/322 297/360/322
f 309/378/323 298/379/323 296/380/323
f 304/370/324 310/374/324 316/372/324
f 305/379/325 314/378/325 303/380/325
f 317/369/326 308/360/326 315/365/326
f 295/358/309 297/360/309 302/365/309
f 298/361/310 300/363/310 297/360/310
f 304/367/311 306/369/311 300/363/311
f 303/366/403 302/365/403 306/369/403
f 301/370/313 303/373/313 314/371/313
f 316/372/314 318/371/314 305/373/314
f 315/365/315 314/366/315 318/368/315
f 313/364/316 315/365/316 308/360/316
f 310/362/317 312/363/317 317/369/317
f 311/361/318 309/359/318 308/360/318
f 307/374/319 309/377/319 296/375/319
f 299/376/320 298/375/320 311/377/320
f 301/370/321 313/372/321 307/374/321
f 300/363/322 306/369/322 302/365/322
f 309/378/323 311/399/323 298/379/323
f 304/370/324 299/376/324 310/374/324
f 305/379/325 318/399/325 314/378/325
f 317/369/326 312/363/326 308/360/326
