# Blender 4.5.10 LTS
# www.blender.org
mtllib tyrvi_bundle.mtl
o tyrvi_bundle
v 0.152196 0.017422 -0.034532
v 0.145920 0.020507 -0.027576
v 0.145938 0.014301 -0.027576
v -0.150106 0.016524 -0.038462
v -0.143954 0.013440 -0.031344
v -0.143972 0.019646 -0.031344
v 0.152216 0.016320 -0.036441
v 0.146041 0.008679 -0.037313
v 0.146079 0.011782 -0.042688
v -0.150106 0.016524 -0.038462
v -0.143832 0.011977 -0.044626
v -0.143870 0.008874 -0.039251
v 0.152210 0.018524 -0.036441
v 0.146045 0.023026 -0.042688
v 0.145989 0.026129 -0.037314
v -0.150106 0.016524 -0.038462
v -0.143916 0.024211 -0.039252
v -0.143860 0.021108 -0.044626
v 0.153743 0.029497 -0.009148
v 0.145580 0.035982 -0.004258
v 0.145560 0.023038 -0.004258
v -0.159208 0.029993 -0.020631
v -0.151402 0.023508 -0.015155
v -0.151381 0.036452 -0.015154
v 0.153846 0.025094 -0.012345
v 0.145580 0.022192 -0.004872
v 0.145996 0.018192 -0.017176
v -0.159121 0.026284 -0.023324
v -0.150981 0.019321 -0.027594
v -0.151397 0.023321 -0.015290
v 0.154026 0.026776 -0.017518
v 0.146031 0.018515 -0.018169
v 0.146308 0.028987 -0.025773
v -0.158970 0.027701 -0.027681
v -0.150696 0.029865 -0.035416
v -0.150973 0.019393 -0.027813
v 0.154035 0.032218 -0.017518
v 0.146310 0.030032 -0.025773
v 0.146065 0.040505 -0.018168
v -0.158962 0.032285 -0.027681
v -0.150940 0.040567 -0.027812
v -0.150695 0.030095 -0.035416
v 0.153859 0.033900 -0.012345
v 0.146032 0.040828 -0.017175
v 0.145603 0.036828 -0.004872
v -0.159110 0.033701 -0.023324
v -0.151376 0.036638 -0.015290
v -0.150947 0.040638 -0.027593
v 0.148651 0.017117 0.009823
v 0.140391 0.022731 0.015075
v 0.140451 0.011418 0.015077
v -0.152363 0.015511 -0.005197
v -0.144583 0.009896 0.000855
v -0.144643 0.021210 0.000852
v 0.148765 0.014730 0.007439
v 0.140562 0.009090 0.012752
v 0.141043 0.009090 0.001448
v -0.152354 0.015333 -0.005374
v -0.144091 0.009661 -0.010684
v -0.144572 0.009661 0.000619
v 0.148854 0.017117 0.005054
v 0.141130 0.011418 -0.000878
v 0.141070 0.022731 -0.000881
v -0.152348 0.015511 -0.005551
v -0.144142 0.021210 -0.010922
v -0.144082 0.009896 -0.010920
v 0.148740 0.019504 0.007438
v 0.140958 0.025059 0.001445
v 0.140477 0.025059 0.012748
v -0.152356 0.015688 -0.005374
v -0.144634 0.021446 0.000617
v -0.144153 0.021446 -0.010687
v 0.134125 0.028632 0.023427
v 0.127666 0.033836 0.027612
v 0.127708 0.023376 0.027612
v -0.144169 0.027499 0.023175
v -0.137657 0.022295 0.027371
v -0.137700 0.032755 0.027372
v 0.134123 0.023919 0.020003
v 0.127707 0.021567 0.026298
v 0.127658 0.018335 0.016350
v -0.144170 0.024682 0.021129
v -0.137706 0.019063 0.017424
v -0.137657 0.022295 0.027371
v 0.134081 0.025719 0.014462
v 0.127642 0.019026 0.014224
v 0.127569 0.027488 0.008076
v -0.144196 0.025758 0.017818
v -0.137779 0.027525 0.011276
v -0.137706 0.019063 0.017424
v 0.134057 0.031545 0.014462
v 0.127560 0.029724 0.008076
v 0.127564 0.038186 0.014224
v -0.144210 0.029239 0.017818
v -0.137775 0.035987 0.017424
v -0.137779 0.027525 0.011276
v 0.134084 0.033346 0.020003
v 0.127574 0.038877 0.016351
v 0.127650 0.035645 0.026298
v -0.144193 0.030315 0.021129
v -0.137700 0.032755 0.027372
v -0.137775 0.035987 0.017424
v 0.165131 0.015400 0.040649
v 0.159720 0.018103 0.046613
v 0.159692 0.012752 0.046613
v -0.152315 0.017061 0.034588
v -0.147056 0.014358 0.040756
v -0.147028 0.019708 0.040756
v 0.165160 0.013587 0.037510
v 0.159785 0.007054 0.036744
v 0.159857 0.009730 0.032111
v -0.152315 0.017061 0.034588
v -0.146919 0.013086 0.029287
v -0.146991 0.010411 0.033920
v 0.165179 0.017212 0.037511
v 0.159917 0.021126 0.032112
v 0.159873 0.023801 0.036745
v -0.152315 0.017061 0.034588
v -0.146922 0.023655 0.033921
v -0.146878 0.020980 0.029287
v 0.082661 0.022667 0.036431
v 0.074560 0.022680 0.044671
v 0.066662 0.022693 0.036236
v 0.074560 0.022680 0.044671
v 0.082699 0.003387 0.030770
v 0.074607 -0.001108 0.037686
v 0.066700 0.003412 0.030575
v 0.074607 -0.001108 0.037686
v 0.082863 -0.009772 0.015584
v 0.074809 -0.017344 0.018950
v 0.066864 -0.009747 0.015389
v 0.074809 -0.017344 0.018950
v 0.083101 -0.012632 -0.004304
v 0.075103 -0.020872 -0.005588
v 0.067102 -0.012606 -0.004499
v 0.075103 -0.020872 -0.005588
v 0.083337 -0.004285 -0.022581
v 0.075394 -0.010573 -0.028139
v 0.067338 -0.004259 -0.022776
v 0.075394 -0.010573 -0.028139
v 0.083496 0.012620 -0.033444
v 0.075591 0.010284 -0.041541
v 0.067498 0.012646 -0.033639
v 0.075591 0.010284 -0.041541
v 0.083528 0.032714 -0.033444
v 0.075630 0.035076 -0.041541
v 0.067530 0.032740 -0.033639
v 0.075630 0.035076 -0.041541
v 0.083423 0.049619 -0.022580
v 0.075500 0.055933 -0.028137
v 0.067424 0.049644 -0.022775
v 0.075500 0.055933 -0.028137
v 0.083214 0.057966 -0.004303
v 0.075242 0.066232 -0.005587
v 0.067215 0.057992 -0.004498
v 0.075242 0.066232 -0.005587
v 0.082967 0.055107 0.015585
v 0.074937 0.062704 0.018951
v 0.066968 0.055132 0.015391
v 0.074937 0.062704 0.018951
v 0.082761 0.041948 0.030770
v 0.074683 0.046468 0.037687
v 0.066762 0.041973 0.030575
v 0.074683 0.046468 0.037687
v -0.072818 0.021419 0.035074
v -0.080835 0.021444 0.043395
v -0.088818 0.021469 0.035041
v -0.080835 0.021444 0.043395
v -0.072866 0.002139 0.029412
v -0.080894 -0.002344 0.036410
v -0.088866 0.002188 0.029380
v -0.080894 -0.002344 0.036410
v -0.072876 -0.011020 0.014226
v -0.080906 -0.018580 0.017673
v -0.088876 -0.010971 0.014193
v -0.080906 -0.018580 0.017673
v -0.072844 -0.013880 -0.005664
v -0.080867 -0.022108 -0.006867
v -0.088844 -0.013830 -0.005696
v -0.080867 -0.022108 -0.006867
v -0.072781 -0.005532 -0.023942
v -0.080789 -0.011809 -0.029419
v -0.088781 -0.005483 -0.023975
v -0.080789 -0.011809 -0.029419
v -0.072707 0.011372 -0.034806
v -0.080697 0.009048 -0.042822
v -0.088706 0.011422 -0.034839
v -0.080697 0.009048 -0.042822
v -0.072644 0.031467 -0.034806
v -0.080621 0.033840 -0.042822
v -0.088644 0.031516 -0.034839
v -0.080621 0.033840 -0.042822
v -0.072614 0.048371 -0.023942
v -0.080584 0.054697 -0.029418
v -0.088614 0.048420 -0.023975
v -0.080584 0.054697 -0.029418
v -0.072626 0.056718 -0.005663
v -0.080598 0.064996 -0.006866
v -0.088626 0.056768 -0.005696
v -0.080598 0.064996 -0.006866
v -0.072675 0.053859 0.014226
v -0.080659 0.061468 0.017674
v -0.088675 0.053908 0.014194
v -0.080659 0.061468 0.017674
v -0.072747 0.040700 0.029413
v -0.080747 0.045232 0.036411
v -0.088747 0.040749 0.029380
v -0.080747 0.045232 0.036411
v -0.115026 0.029051 -0.020105
v -0.114919 0.029051 -0.020072
v -0.114924 0.029051 -0.019939
v -0.115034 0.029051 -0.019891
v -0.115097 0.029051 -0.019993
v -0.122478 0.032844 -0.013288
v -0.122499 0.032911 -0.013221
v -0.122575 0.032952 -0.013281
v -0.122601 0.032911 -0.013386
v -0.122541 0.032844 -0.013391
v -0.122027 0.032844 -0.025681
v -0.122098 0.032844 -0.025569
v -0.122158 0.032911 -0.025564
v -0.122124 0.032952 -0.025674
v -0.122043 0.032911 -0.025746
v -0.111802 0.032844 -0.030120
v -0.111909 0.032844 -0.030154
v -0.111925 0.032911 -0.030218
v -0.111828 0.032952 -0.030225
v -0.111752 0.032911 -0.030165
v -0.105997 0.032844 -0.020574
v -0.105992 0.032844 -0.020706
v -0.105942 0.032911 -0.020751
v -0.105916 0.032952 -0.020646
v -0.105950 0.032911 -0.020536
v -0.112655 0.032911 -0.010167
v -0.112634 0.032844 -0.010234
v -0.112524 0.032844 -0.010283
v -0.112477 0.032911 -0.010246
v -0.112558 0.032952 -0.010174
v -0.124050 0.039089 -0.019464
v -0.124084 0.039048 -0.019354
v -0.124058 0.039089 -0.019249
v -0.124008 0.039156 -0.019294
v -0.124003 0.039156 -0.019426
v -0.117345 0.039089 -0.029833
v -0.117442 0.039048 -0.029826
v -0.117523 0.039089 -0.029754
v -0.117476 0.039156 -0.029717
v -0.117366 0.039156 -0.029766
v -0.107399 0.039089 -0.026614
v -0.107425 0.039048 -0.026719
v -0.107501 0.039089 -0.026779
v -0.107522 0.039156 -0.026712
v -0.107459 0.039156 -0.026609
v -0.107957 0.039089 -0.014254
v -0.107876 0.039048 -0.014326
v -0.107842 0.039089 -0.014436
v -0.107902 0.039156 -0.014431
v -0.107973 0.039156 -0.014319
v -0.118248 0.039089 -0.009835
v -0.118172 0.039048 -0.009775
v -0.118075 0.039089 -0.009782
v -0.118091 0.039156 -0.009846
v -0.118198 0.039156 -0.009880
v -0.115076 0.042949 -0.020061
v -0.115081 0.042949 -0.019928
v -0.114974 0.042949 -0.019895
v -0.114903 0.042949 -0.020007
v -0.114966 0.042949 -0.020109
v -0.132913 0.029051 -0.000064
v -0.132903 0.029051 0.000048
v -0.133027 0.029051 0.000093
v -0.133114 0.029051 0.000010
v -0.133043 0.029051 -0.000087
v -0.142041 0.032844 -0.004384
v -0.142112 0.032911 -0.004378
v -0.142084 0.032952 -0.004471
v -0.141997 0.032911 -0.004535
v -0.141970 0.032844 -0.004481
v -0.130399 0.032844 -0.008653
v -0.130529 0.032844 -0.008677
v -0.130556 0.032911 -0.008730
v -0.130442 0.032952 -0.008740
v -0.130345 0.032911 -0.008693
v -0.122422 0.032844 -0.000867
v -0.122432 0.032844 -0.000978
v -0.122378 0.032911 -0.001018
v -0.122334 0.032952 -0.000930
v -0.122362 0.032911 -0.000837
v -0.129064 0.032844 0.008118
v -0.128939 0.032844 0.008072
v -0.128879 0.032911 0.008101
v -0.128967 0.032952 0.008165
v -0.129081 0.032911 0.008175
v -0.141216 0.032911 0.005890
v -0.141145 0.032844 0.005883
v -0.141059 0.032844 0.005967
v -0.141076 0.032911 0.006025
v -0.141173 0.032952 0.005977
v -0.136919 0.039089 -0.008175
v -0.137033 0.039048 -0.008165
v -0.137121 0.039089 -0.008101
v -0.137061 0.039156 -0.008072
v -0.136936 0.039156 -0.008118
v -0.124784 0.039089 -0.005890
v -0.124827 0.039048 -0.005977
v -0.124924 0.039089 -0.006025
v -0.124941 0.039156 -0.005967
v -0.124855 0.039156 -0.005883
v -0.124003 0.039089 0.004535
v -0.123916 0.039048 0.004471
v -0.123888 0.039089 0.004378
v -0.123959 0.039156 0.004384
v -0.124030 0.039156 0.004481
v -0.135655 0.039089 0.008693
v -0.135558 0.039048 0.008740
v -0.135444 0.039089 0.008730
v -0.135471 0.039156 0.008677
v -0.135601 0.039156 0.008653
v -0.143638 0.039089 0.000837
v -0.143666 0.039048 0.000930
v -0.143622 0.039089 0.001018
v -0.143568 0.039156 0.000978
v -0.143578 0.039156 0.000867
v -0.132973 0.042949 -0.000093
v -0.133097 0.042949 -0.000048
v -0.133087 0.042949 0.000064
v -0.132957 0.042949 0.000087
v -0.132886 0.042949 -0.000010
v -0.151048 0.029051 0.019903
v -0.150936 0.029051 0.019913
v -0.150913 0.029051 0.020043
v -0.151010 0.029051 0.020114
v -0.151093 0.029051 0.020027
v -0.156898 0.032844 0.028135
v -0.156904 0.032911 0.028206
v -0.156991 0.032952 0.028162
v -0.157039 0.032911 0.028065
v -0.156981 0.032844 0.028048
v -0.159065 0.032844 0.015926
v -0.159111 0.032844 0.016050
v -0.159169 0.032911 0.016067
v -0.159158 0.032952 0.015953
v -0.159094 0.032911 0.015865
v -0.150003 0.032844 0.009433
v -0.150115 0.032844 0.009423
v -0.150145 0.032911 0.009363
v -0.150051 0.032952 0.009336
v -0.149964 0.032911 0.009379
v -0.142319 0.032844 0.017544
v -0.142342 0.032844 0.017414
v -0.142303 0.032911 0.017360
v -0.142255 0.032952 0.017457
v -0.142265 0.032911 0.017571
v -0.146638 0.032911 0.029119
v -0.146632 0.032844 0.029049
v -0.146534 0.032844 0.028978
v -0.146480 0.032911 0.029005
v -0.146544 0.032952 0.029092
v -0.159735 0.039089 0.022429
v -0.159745 0.039048 0.022543
v -0.159697 0.039089 0.022640
v -0.159658 0.039156 0.022586
v -0.159681 0.039156 0.022456
v -0.155362 0.039089 0.010881
v -0.155456 0.039048 0.010908
v -0.155520 0.039089 0.010995
v -0.155466 0.039156 0.011022
v -0.155368 0.039156 0.010951
v -0.144961 0.039089 0.011935
v -0.145009 0.039048 0.011838
v -0.145096 0.039089 0.011794
v -0.145102 0.039156 0.011865
v -0.145019 0.039156 0.011952
v -0.142906 0.039089 0.024135
v -0.142842 0.039048 0.024047
v -0.142831 0.039089 0.023933
v -0.142889 0.039156 0.023950
v -0.142935 0.039156 0.024074
v -0.152036 0.039089 0.030621
v -0.151949 0.039048 0.030664
v -0.151855 0.039089 0.030637
v -0.151885 0.039156 0.030577
v -0.151997 0.039156 0.030567
v -0.151087 0.042949 0.019957
v -0.151064 0.042949 0.020087
v -0.150952 0.042949 0.020097
v -0.150907 0.042949 0.019973
v -0.150990 0.042949 0.019886
vn 0.7429 0.0022 0.6694
vn -0.7570 -0.0022 0.6534
vn 0.7534 -0.5718 -0.3248
vn -0.7466 -0.5738 -0.3366
vn 0.7500 0.5762 -0.3248
vn -0.7500 0.5694 -0.3366
vn 0.7050 -0.6109 0.3601
vn 0.4401 0.8980 -0.0000
vn -0.0130 -0.0000 0.9999
vn 0.0028 -0.8660 -0.5000
vn 0.7126 0.0021 -0.7016
vn -0.0000 1.0000 -0.0000
vn -0.0024 0.8660 -0.5000
vn 0.7014 0.6151 0.3601
vn 0.3592 -0.9333 -0.0000
vn 1.0000 0.0030 0.0088
vn -0.0039 -0.8660 0.5000
vn -0.0091 0.8660 0.4999
vn 0.0067 -0.0000 -1.0000
vn 0.5134 -0.0009 0.8581
vn -0.5738 0.0009 0.8190
vn 0.5321 -0.7997 0.2780
vn -0.5552 -0.7963 0.2401
vn 0.5648 -0.4946 -0.6606
vn -0.5225 -0.4918 -0.6965
vn 0.5664 0.4929 -0.6605
vn -0.5210 0.4935 -0.6964
vn 0.5346 0.7980 0.2781
vn -0.5527 0.7980 0.2402
vn 0.6857 -0.4171 0.5965
vn -0.7276 -0.4141 0.5469
vn -0.0367 -0.0000 0.9993
vn -0.0144 -0.9510 0.3087
vn 0.7125 -0.6742 -0.1944
vn -0.7009 -0.6707 -0.2425
vn 0.0245 -0.5878 -0.8086
vn 0.7303 -0.0011 -0.6831
vn -0.6831 0.0011 -0.7303
vn 0.0264 0.5878 -0.8086
vn 0.7146 0.6720 -0.1943
vn -0.6988 0.6730 -0.2424
vn -0.0114 0.9511 0.3088
vn 0.6870 0.4149 0.5965
vn -0.7263 0.4164 0.5469
vn 0.9994 -0.0016 0.0343
vn -0.0306 -0.5878 0.8084
vn -0.0287 0.5878 0.8085
vn -0.9994 0.0016 -0.0343
vn 0.0072 -0.9511 -0.3090
vn 0.0325 -0.0000 -0.9995
vn 0.0102 0.9511 -0.3088
vn 0.5380 0.0031 0.8430
vn -0.6154 -0.0031 0.7882
vn 0.5772 -0.8163 0.0246
vn -0.5765 -0.8168 -0.0245
vn 0.6076 0.0031 -0.7942
vn -0.5462 -0.0031 -0.8377
vn 0.5684 0.8224 0.0242
vn -0.5851 0.8106 -0.0249
vn 0.6860 -0.4975 0.5309
vn -0.7268 -0.5025 0.4682
vn -0.0498 -0.0000 0.9988
vn -0.0020 -1.0000 -0.0001
vn 0.7286 -0.4975 -0.4707
vn -0.6844 -0.5025 -0.5282
vn 0.0352 -0.0000 -0.9994
vn 0.7233 0.5050 -0.4710
vn -0.6897 0.4949 -0.5285
vn -0.0127 0.9999 -0.0005
vn 0.6806 0.5050 0.5307
vn -0.7321 0.4949 0.4680
vn 0.9991 0.0053 0.0425
vn -0.0315 -0.7071 0.7064
vn -0.0390 0.7071 0.7061
vn -0.9991 -0.0053 -0.0425
vn 0.0286 -0.7071 -0.7065
vn 0.0211 0.7071 -0.7068
vn 0.5450 0.0022 0.8384
vn -0.5429 -0.0022 0.8398
vn 0.5446 -0.7984 0.2567
vn -0.5433 -0.7976 0.2619
vn 0.5375 -0.4926 -0.6844
vn -0.5504 -0.4938 -0.6732
vn 0.5334 0.4970 -0.6844
vn -0.5544 0.4894 -0.6732
vn 0.5381 0.8028 0.2568
vn -0.5498 0.7932 0.2619
vn 0.7103 -0.4140 0.5693
vn -0.7039 -0.4173 0.5748
vn -0.0009 -0.0000 1.0000
vn -0.0014 -0.9511 0.3090
vn 0.7064 -0.6716 -0.2236
vn -0.7078 -0.6734 -0.2134
vn -0.0098 -0.5878 -0.8090
vn 0.7006 0.0029 -0.7136
vn -0.7135 -0.0029 -0.7006
vn -0.0146 0.5877 -0.8089
vn 0.7009 0.6773 -0.2235
vn -0.7132 0.6677 -0.2134
vn -0.0091 0.9510 0.3091
vn 0.7069 0.4197 0.5693
vn -0.7073 0.4115 0.5748
vn 1.0000 0.0041 -0.0063
vn 0.0017 -0.5878 0.8090
vn -0.0031 0.5877 0.8090
vn -1.0000 -0.0041 0.0063
vn -0.0039 -0.9511 -0.3090
vn -0.0121 -0.0000 -0.9999
vn -0.0116 0.9510 -0.3089
vn 0.7397 -0.0039 0.6729
vn -0.7601 0.0039 0.6498
vn 0.7492 -0.5786 -0.3225
vn -0.7507 -0.5670 -0.3390
vn 0.7552 0.5708 -0.3224
vn -0.7447 0.5749 -0.3390
vn 0.6982 -0.6171 0.3629
vn 0.0357 -0.0000 0.9994
vn -0.0191 -0.0000 0.9998
vn -0.0049 -0.8660 -0.5001
vn 0.7147 -0.0037 -0.6994
vn -0.4446 -0.0000 0.8957
vn 0.0042 0.8660 -0.5000
vn 0.7047 0.6097 0.3630
vn -0.3169 -0.0000 0.9485
vn 0.9999 -0.0052 0.0125
vn -0.0141 -0.8660 0.4999
vn -0.0050 0.8660 0.5000
vn 0.0092 -0.0000 -1.0000
vn 0.6985 -0.2003 0.6870
vn -0.7156 -0.1981 0.6698
vn 0.7006 -0.5355 0.4716
vn -0.7135 -0.5333 0.4544
vn 0.7047 -0.7010 0.1092
vn -0.7094 -0.6988 0.0920
vn 0.7096 -0.6443 -0.2851
vn -0.7045 -0.6421 -0.3023
vn 0.7137 -0.3834 -0.5862
vn -0.7004 -0.3812 -0.6034
vn 0.7157 -0.0011 -0.6984
vn -0.6984 0.0011 -0.7157
vn 0.7149 0.3812 -0.5862
vn -0.6992 0.3834 -0.6034
vn 0.7117 0.6421 -0.2851
vn -0.7024 0.6443 -0.3023
vn 0.7069 0.6988 0.1093
vn -0.7072 0.7010 0.0920
vn 0.7023 0.5333 0.4716
vn -0.7118 0.5355 0.4544
vn 0.6991 0.1981 0.6870
vn -0.7150 0.2003 0.6698
vn 0.9999 -0.0016 0.0122
vn -0.9999 0.0016 -0.0122
vn 0.7051 -0.2014 0.6799
vn -0.7091 -0.1970 0.6770
vn 0.7045 -0.5366 0.4645
vn -0.7097 -0.5322 0.4616
vn 0.7047 -0.7021 0.1021
vn -0.7095 -0.6977 0.0992
vn 0.7057 -0.6454 -0.2923
vn -0.7085 -0.6410 -0.2952
vn 0.7071 -0.3845 -0.5934
vn -0.7071 -0.3801 -0.5963
vn 0.7085 -0.0022 -0.7057
vn -0.7057 0.0022 -0.7085
vn 0.7095 0.3801 -0.5934
vn -0.7047 0.3845 -0.5963
vn 0.7097 0.6410 -0.2923
vn -0.7045 0.6454 -0.2952
vn 0.7091 0.6977 0.1021
vn -0.7051 0.7021 0.0992
vn 0.7078 0.5322 0.4645
vn -0.7064 0.5366 0.4616
vn 0.7063 0.1970 0.6799
vn -0.7079 0.2014 0.6770
vn 1.0000 -0.0031 0.0020
vn -1.0000 0.0031 -0.0020
vn -0.0000 -1.0000 -0.0000
vn -0.6650 -0.6241 0.4103
vn -0.6837 -0.5869 -0.4337
vn 0.2250 -0.6508 -0.7251
vn 0.8091 -0.5870 0.0295
vn 0.3159 -0.6240 0.7147
vn -0.8091 0.5870 -0.0295
vn -0.3159 0.6240 -0.7147
vn 0.6650 0.6240 -0.4104
vn 0.6837 0.5870 0.4336
vn -0.2249 0.6508 0.7252
vn -0.3311 -0.9199 -0.2101
vn -0.3071 -0.9326 0.1895
vn -0.7443 -0.6673 -0.0271
vn -0.2034 -0.7272 0.6556
vn 0.1459 -0.9326 0.3301
vn 0.1005 -0.9407 -0.3239
vn -0.2877 -0.7025 -0.6509
vn 0.3919 -0.9199 0.0143
vn 0.6056 -0.7025 -0.3738
vn 0.6289 -0.6673 0.3989
vn -0.6230 -0.0000 0.7822
vn 0.0709 -0.0000 0.9975
vn -0.9551 -0.0000 -0.2963
vn -0.9705 -0.0000 0.2412
vn -0.0709 -0.0000 -0.9975
vn -0.6635 -0.0000 -0.7482
vn 0.9705 -0.0000 -0.2412
vn 0.6230 -0.0000 -0.7822
vn 0.6635 -0.0000 0.7482
vn 0.9551 -0.0000 0.2964
vn -0.6057 0.7025 0.3738
vn -0.6289 0.6674 -0.3989
vn 0.2034 0.7272 -0.6556
vn 0.7443 0.6673 0.0271
vn 0.2878 0.7025 0.6509
vn -0.3919 0.9199 -0.0143
vn -0.1004 0.9407 0.3240
vn -0.1459 0.9326 -0.3301
vn 0.3071 0.9326 -0.1895
vn 0.3312 0.9199 0.2100
vn -0.1745 -0.9021 -0.3946
vn -0.4658 -0.8847 -0.0170
vn -0.1206 -0.9134 0.3888
vn 0.3672 -0.9021 -0.2266
vn 0.3936 -0.8847 0.2497
vn -0.2816 -0.3112 0.9077
vn -0.8140 0.2918 0.5023
vn -0.9631 -0.2669 -0.0351
vn -0.8138 0.2669 -0.5162
vn -0.3867 -0.2918 -0.8748
vn 0.2816 0.3112 -0.9077
vn 0.8140 -0.2918 -0.5023
vn 0.9631 0.2669 0.0351
vn 0.8138 -0.2669 0.5162
vn 0.3867 0.2918 0.8748
vn -0.3936 0.8847 -0.2497
vn -0.3672 0.9021 0.2266
vn 0.1206 0.9134 -0.3888
vn 0.4658 0.8847 0.0170
vn 0.1745 0.9021 0.3946
vn -0.6314 -0.6240 -0.4604
vn 0.1429 -0.5869 -0.7970
vn 0.7564 -0.6508 -0.0661
vn 0.2787 -0.5868 0.7602
vn -0.5421 -0.6240 0.5627
vn -0.2787 0.5870 -0.7601
vn 0.5421 0.6241 -0.5628
vn 0.6314 0.6241 0.4603
vn -0.1429 0.5870 0.7969
vn -0.7564 0.6508 0.0659
vn 0.0692 -0.9200 -0.3859
vn -0.2916 -0.9326 -0.2126
vn -0.2564 -0.6673 -0.6992
vn -0.6838 -0.7272 0.0597
vn -0.2504 -0.9326 0.2598
vn 0.3379 -0.9407 -0.0295
vn 0.4937 -0.7025 -0.5126
vn 0.1350 -0.9199 0.3680
vn 0.5750 -0.7025 0.4193
vn -0.1314 -0.6673 0.7331
vn -0.9597 -0.0000 -0.2810
vn -0.8966 -0.0000 0.4428
vn -0.0869 -0.0000 -0.9962
vn -0.5902 -0.0000 -0.8073
vn 0.8965 -0.0000 -0.4430
vn 0.4417 -0.0000 -0.8972
vn 0.5902 -0.0000 0.8073
vn 0.9598 -0.0000 0.2808
vn -0.4416 -0.0000 0.8972
vn 0.0869 -0.0000 0.9962
vn -0.5751 0.7025 -0.4193
vn 0.1314 0.6673 -0.7331
vn 0.6838 0.7272 -0.0597
vn 0.2564 0.6673 0.6992
vn -0.4938 0.7025 0.5125
vn -0.1350 0.9199 -0.3681
vn -0.3379 0.9407 0.0295
vn 0.2504 0.9326 -0.2599
vn 0.2916 0.9326 0.2126
vn -0.0692 0.9199 0.3860
vn 0.2994 -0.9021 -0.3108
vn -0.1605 -0.8847 -0.4377
vn -0.4055 -0.9134 0.0354
vn 0.3486 -0.9021 0.2542
vn -0.0823 -0.8847 0.4588
vn -0.9468 -0.3112 0.0826
vn -0.7729 0.2918 -0.5635
vn -0.3318 -0.2669 -0.9048
vn 0.1701 0.2669 -0.9486
vn 0.6636 -0.2918 -0.6889
vn 0.9468 0.3112 -0.0826
vn 0.7729 -0.2918 0.5635
vn 0.3318 0.2669 0.9048
vn -0.1701 -0.2669 0.9486
vn -0.6636 0.2918 0.6889
vn 0.0823 0.8847 -0.4588
vn -0.3486 0.9021 -0.2542
vn 0.4055 0.9134 -0.0354
vn 0.1605 0.8847 0.4377
vn -0.2994 0.9021 0.3108
vn -0.5637 -0.6239 0.5413
vn -0.7596 -0.5869 -0.2802
vn 0.0674 -0.6509 -0.7562
vn 0.7972 -0.5870 -0.1415
vn 0.4592 -0.6241 0.6322
vn -0.7972 0.5869 0.1414
vn -0.4592 0.6240 -0.6323
vn 0.5637 0.6240 -0.5412
vn 0.7597 0.5869 0.2800
vn -0.0673 0.6508 0.7562
vn -0.3679 -0.9199 -0.1357
vn -0.2603 -0.9326 0.2499
vn -0.7334 -0.6672 0.1302
vn -0.0608 -0.7273 0.6837
vn 0.2121 -0.9326 0.2920
vn 0.0301 -0.9407 -0.3378
vn -0.4183 -0.7025 -0.5758
vn 0.3861 -0.9199 -0.0686
vn 0.5134 -0.7025 -0.4928
vn 0.6988 -0.6673 0.2576
vn -0.4444 -0.0000 0.8958
vn 0.2793 -0.0000 0.9602
vn -0.9961 -0.0000 -0.0888
vn -0.8980 -0.0000 0.4400
vn -0.2793 -0.0000 -0.9602
vn -0.8061 -0.0000 -0.5917
vn 0.8980 -0.0000 -0.4401
vn 0.4444 -0.0000 -0.8958
vn 0.8061 -0.0000 0.5918
vn 0.9961 -0.0000 0.0888
vn -0.5134 0.7025 0.4929
vn -0.6988 0.6673 -0.2576
vn 0.0608 0.7272 -0.6837
vn 0.7334 0.6673 -0.1302
vn 0.4183 0.7025 0.5758
vn -0.3861 0.9199 0.0686
vn -0.0300 0.9407 0.3378
vn -0.2121 0.9326 -0.2920
vn 0.2603 0.9326 -0.2499
vn 0.3679 0.9199 0.1356
vn -0.2536 -0.9021 -0.3491
vn -0.4590 -0.8847 0.0815
vn -0.0361 -0.9134 0.4054
vn 0.3113 -0.9021 -0.2988
vn 0.4374 -0.8847 0.1612
vn -0.0842 -0.3112 0.9466
vn -0.6900 0.2918 0.6624
vn -0.9489 -0.2669 0.1684
vn -0.9043 0.2669 -0.3333
vn -0.5622 -0.2918 -0.7738
vn 0.0842 0.3112 -0.9466
vn 0.6900 -0.2918 -0.6624
vn 0.9489 0.2669 -0.1684
vn 0.9043 -0.2669 0.3333
vn 0.5622 0.2918 0.7738
vn -0.4374 0.8847 -0.1612
vn -0.3113 0.9021 0.2988
vn 0.0361 0.9134 -0.4054
vn 0.4590 0.8847 -0.0815
vn 0.2536 0.9021 0.3491
vn -0.7091 -0.6138 0.3470
vn -0.7016 -0.0021 -0.7126
vn -0.7127 0.6096 0.3469
vn 0.0072 -0.9511 -0.3089
vn 0.0102 0.9510 -0.3089
vn -0.6844 -0.5025 -0.5283
vn -0.7322 0.4949 0.4679
vn 0.7071 0.7071 -0.0000
vn -0.0043 1.0000 -0.0000
vn 0.0097 -0.6857 0.7278
vn -0.7158 -0.6076 0.3441
vn -0.6994 0.0037 -0.7147
vn -0.7094 0.6151 0.3441
vn -0.6650 -0.6240 0.4104
vn -0.6837 -0.5869 -0.4336
vn 0.2250 -0.6509 -0.7251
vn 0.2249 -0.6507 -0.7252
vn 0.8091 -0.5869 0.0296
vn 0.8091 -0.5870 0.0294
vn 0.3160 -0.6240 0.7147
vn -0.8090 0.5870 -0.0293
vn -0.8091 0.5870 -0.0293
vn -0.3159 0.6241 -0.7146
vn 0.6649 0.6240 -0.4104
vn 0.6650 0.6240 -0.4103
vn 0.6837 0.5869 0.4336
vn -0.2250 0.6508 0.7251
vn -0.3311 -0.9199 -0.2100
vn -0.7442 -0.6674 -0.0271
vn -0.2878 -0.7025 -0.6509
vn -0.9551 -0.0000 -0.2962
vn -0.6636 -0.0000 -0.7481
vn 0.6635 -0.0000 0.7481
vn 0.9551 -0.0000 0.2962
vn -0.6056 0.7025 0.3738
vn -0.6289 0.6673 -0.3989
vn 0.2877 0.7025 0.6509
vn -0.1005 0.9407 0.3239
vn -0.1458 0.9326 -0.3301
vn 0.3311 0.9199 0.2100
vn -0.6314 -0.6241 -0.4603
vn -0.6313 -0.6240 -0.4605
vn 0.1429 -0.5870 -0.7969
vn 0.7563 -0.6508 -0.0659
vn 0.7564 -0.6508 -0.0660
vn 0.2788 -0.5869 0.7602
vn 0.2787 -0.5870 0.7601
vn -0.5421 -0.6240 0.5628
vn -0.2788 0.5870 -0.7601
vn -0.2787 0.5868 -0.7603
vn 0.5422 0.6240 -0.5628
vn 0.5421 0.6240 -0.5627
vn 0.6314 0.6240 0.4605
vn 0.6313 0.6240 0.4606
vn -0.1429 0.5869 0.7969
vn -0.7564 0.6508 0.0662
vn 0.0692 -0.9199 -0.3860
vn -0.6837 -0.7273 0.0596
vn -0.2504 -0.9326 0.2599
vn 0.4938 -0.7025 -0.5125
vn 0.1350 -0.9199 0.3681
vn -0.8966 -0.0001 0.4428
vn -0.5904 -0.0000 -0.8071
vn 0.8966 -0.0000 -0.4428
vn 0.4416 -0.0000 -0.8972
vn 0.5904 -0.0000 0.8071
vn 0.9597 -0.0000 0.2810
vn -0.5750 0.7025 -0.4193
vn 0.6838 0.7273 -0.0597
vn 0.2564 0.6674 0.6992
vn -0.4937 0.7026 0.5125
vn -0.3379 0.9407 0.0294
vn -0.5637 -0.6240 0.5412
vn -0.7597 -0.5869 -0.2800
vn 0.0673 -0.6508 -0.7563
vn 0.0673 -0.6507 -0.7563
vn 0.7972 -0.5869 -0.1415
vn 0.7972 -0.5869 -0.1414
vn 0.4594 -0.6241 0.6320
vn 0.4593 -0.6240 0.6322
vn -0.7972 0.5869 0.1417
vn -0.7972 0.5869 0.1415
vn -0.4593 0.6240 -0.6321
vn -0.4592 0.6241 -0.6322
vn 0.5637 0.6241 -0.5410
vn 0.7597 0.5869 0.2801
vn 0.7596 0.5869 0.2803
vn -0.0672 0.6507 0.7564
vn -0.0673 0.6508 0.7563
vn -0.3679 -0.9199 -0.1356
vn -0.7332 -0.6674 0.1302
vn -0.0608 -0.7272 0.6837
vn 0.2120 -0.9326 0.2920
vn 0.5134 -0.7025 -0.4929
vn 0.2792 -0.0000 0.9602
vn -0.9960 -0.0000 -0.0889
vn -0.8980 -0.0000 0.4401
vn -0.8062 -0.0001 -0.5916
vn 0.8063 -0.0000 0.5916
vn 0.9961 -0.0000 0.0886
vn 0.7333 0.6674 -0.1302
vn 0.4183 0.7026 0.5757
vn -0.2120 0.9326 -0.2920
vt 0.042989 0.424418
vt 0.048321 0.427521
vt 0.037657 0.427521
vt 0.000000 0.575582
vt 0.036757 0.572479
vt 0.049221 0.572479
vt 0.009301 0.424418
vt 0.018142 0.427521
vt 0.008753 0.427521
vt 0.007957 0.572479
vt 0.018728 0.572479
vt 0.076677 0.424418
vt 0.077225 0.427521
vt 0.067836 0.427521
vt 0.085978 0.575582
vt 0.067250 0.572479
vt 0.078021 0.572479
vt 0.095279 0.424418
vt 0.094731 0.427521
vt 0.500000 1.000000
vt 0.933012 0.250000
vt 0.066988 0.250000
vt 0.187652 0.578087
vt 0.421913 0.109566
vt 0.890434 0.812348
vt 0.093935 0.572479
vt 0.045610 0.421710
vt 0.053470 0.425710
vt 0.037750 0.425710
vt 0.045610 0.578290
vt 0.037317 0.574290
vt 0.053903 0.574290
vt 0.030043 0.421710
vt 0.036541 0.425710
vt 0.020065 0.425710
vt 0.030496 0.578290
vt 0.019621 0.574290
vt 0.037038 0.574290
vt 0.011250 0.421710
vt 0.018748 0.425710
vt 0.000704 0.425710
vt 0.011739 0.578290
vt 0.000164 0.574290
vt 0.019316 0.574290
vt 0.079970 0.421710
vt 0.090516 0.425710
vt 0.072472 0.425710
vt 0.079481 0.578290
vt 0.071904 0.574290
vt 0.091056 0.574290
vt 0.061177 0.421710
vt 0.071155 0.425710
vt 0.054679 0.425710
vt 0.060724 0.578290
vt 0.054182 0.574290
vt 0.071599 0.574290
vt 0.091924 0.425710
vt 0.102470 0.421710
vt 0.102959 0.578290
vt 0.975528 0.654508
vt 0.206107 0.095492
vt 0.024472 0.654508
vt 0.500000 1.000000
vt 0.206107 0.095492
vt 0.793893 0.095492
vt 0.091384 0.574290
vt 0.043042 0.424654
vt 0.051486 0.428654
vt 0.034597 0.428654
vt 0.043042 0.575346
vt 0.032561 0.571346
vt 0.053523 0.571346
vt 0.021521 0.424654
vt 0.029966 0.428654
vt 0.013076 0.428654
vt 0.021521 0.575346
vt 0.011040 0.571346
vt 0.032002 0.571346
vt 0.086084 0.424654
vt 0.094528 0.428654
vt 0.077639 0.428654
vt 0.086084 0.575346
vt 0.075603 0.571346
vt 0.096565 0.571346
vt 0.064563 0.424654
vt 0.073007 0.428654
vt 0.056118 0.428654
vt 0.064563 0.575346
vt 0.054082 0.571346
vt 0.075044 0.571346
vt 0.008445 0.428654
vt 0.010481 0.571346
vt 0.000000 0.575346
vt 1.000000 0.500000
vt 0.000000 0.500000
vt 0.499999 1.000000
vt 0.500001 0.000000
vt 1.000000 0.500001
vt 0.040672 0.430428
vt 0.047036 0.433660
vt 0.034308 0.433660
vt 0.040672 0.569572
vt 0.033076 0.566340
vt 0.048268 0.566340
vt 0.025988 0.430428
vt 0.031683 0.433660
vt 0.018466 0.433660
vt 0.026966 0.569572
vt 0.017213 0.566340
vt 0.009283 0.430428
vt 0.015658 0.433660
vt 0.001475 0.433660
vt 0.010216 0.569572
vt 0.000000 0.566340
vt 0.072061 0.430428
vt 0.079869 0.433660
vt 0.065686 0.433660
vt 0.071128 0.569572
vt 0.064131 0.566340
vt 0.081344 0.566340
vt 0.055356 0.430428
vt 0.062878 0.433660
vt 0.049661 0.433660
vt 0.054378 0.569572
vt 0.082819 0.433660
vt 0.090627 0.430428
vt 0.091560 0.569572
vt 0.793893 0.095492
vt 0.206107 0.095492
vt 0.024472 0.654508
vt 0.024472 0.654508
vt 0.206107 0.095492
vt 0.793893 0.095492
vt 0.040190 0.420625
vt 0.044711 0.423300
vt 0.035668 0.423300
vt 0.000000 0.579375
vt 0.034141 0.576700
vt 0.046239 0.576700
vt 0.009681 0.420625
vt 0.016218 0.423300
vt 0.008520 0.423300
vt 0.007215 0.576700
vt 0.017049 0.576700
vt 0.070698 0.420625
vt 0.071859 0.423300
vt 0.064161 0.423300
vt 0.080379 0.579375
vt 0.063330 0.576700
vt 0.073165 0.576700
vt 0.090061 0.420625
vt 0.088899 0.423300
vt 0.500000 1.000000
vt 0.933013 0.250000
vt 0.066987 0.250000
vt 0.833333 0.333333
vt 0.166667 0.166667
vt 0.087594 0.576700
vt 0.138230 0.500000
vt 0.112490 0.496000
vt 0.138230 0.496000
vt 0.112490 0.504000
vt 0.112607 0.500000
vt 0.086954 0.496000
vt 0.087147 0.500000
vt 0.086954 0.504000
vt 0.061952 0.500000
vt 0.061748 0.504000
vt 0.037034 0.500000
vt 0.061748 0.496000
vt 0.036882 0.504000
vt 0.012320 0.500000
vt 0.036882 0.496000
vt 0.012264 0.504000
vt 0.264140 0.500000
vt 0.288724 0.496000
vt 0.288780 0.500000
vt 0.288724 0.504000
vt 0.264196 0.504000
vt 0.239426 0.500000
vt 0.264196 0.496000
vt 0.239579 0.504000
vt 0.214508 0.500000
vt 0.239579 0.496000
vt 0.214713 0.504000
vt 0.189313 0.500000
vt 0.214713 0.496000
vt 0.189506 0.504000
vt 0.163970 0.496000
vt 0.189506 0.496000
vt 0.163853 0.500000
vt 0.163970 0.504000
vt 0.138230 0.504000
vt 0.640866 0.020254
vt 0.122125 0.172570
vt 0.045184 0.707707
vt 0.020254 0.640866
vt 0.979746 0.359134
vt 0.020254 0.359134
vt 0.979746 0.640866
vt 0.994911 0.428843
vt 0.500000 1.000000
vt 0.172570 0.877875
vt 0.827430 0.122125
vt 0.428843 0.994911
vt 0.571157 0.005089
vt 0.707707 0.954816
vt 0.292293 0.045184
vt 0.920627 0.770320
vt 0.079373 0.229680
vt 0.920627 0.229680
vt 0.079373 0.770320
vt 0.707707 0.045184
vt 0.292293 0.954816
vt 0.428843 0.005089
vt 0.571157 0.994911
vt 0.172570 0.122125
vt 0.827430 0.877875
vt 0.012264 0.496000
vt 0.770320 0.920627
vt 0.954816 0.707707
vt 0.500035 0.500091
vt 0.500114 0.500000
vt 0.500035 0.499909
vt 0.508661 0.494756
vt 0.508569 0.494700
vt 0.508547 0.494756
vt 0.496784 0.496844
vt 0.496806 0.496911
vt 0.496692 0.496952
vt 0.499944 0.496844
vt 0.499909 0.496911
vt 0.500000 0.496952
vt 0.496656 0.496844
vt 0.496599 0.496911
vt 0.508547 0.505244
vt 0.508569 0.505300
vt 0.508661 0.505244
vt 0.503308 0.503048
vt 0.503344 0.503156
vt 0.503216 0.503156
vt 0.491339 0.494756
vt 0.491453 0.494756
vt 0.491374 0.494847
vt 0.491339 0.505244
vt 0.491374 0.505153
vt 0.491453 0.505244
vt 0.500000 0.503048
vt 0.500056 0.503156
vt 0.499944 0.503156
vt 0.500093 0.499944
vt 0.500093 0.500056
vt 0.499965 0.500091
vt 0.499907 0.499944
vt 0.496784 0.491571
vt 0.496656 0.491606
vt 0.508547 0.496844
vt 0.508569 0.496911
vt 0.508697 0.494847
vt 0.508626 0.505153
vt 0.508697 0.505153
vt 0.499907 0.500056
vt 0.489386 0.499944
vt 0.489386 0.500056
vt 0.496599 0.491571
vt 0.496784 0.508429
vt 0.496656 0.508394
vt 0.496599 0.508429
vt 0.489329 0.500091
vt 0.499909 0.503089
vt 0.494847 0.496911
vt 0.500091 0.503089
vt 0.505153 0.496911
vt 0.505244 0.496952
vt 0.503194 0.503089
vt 0.503401 0.503089
vt 0.508661 0.496952
vt 0.494847 0.503089
vt 0.494756 0.503048
vt 0.491431 0.503089
vt 0.491339 0.503048
vt 0.505153 0.503089
vt 0.500091 0.496911
vt 0.510614 0.499944
vt 0.503401 0.491571
vt 0.510671 0.499909
vt 0.491453 0.503156
vt 0.491303 0.505153
vt 0.491303 0.494847
vt 0.510614 0.500056
vt 0.503401 0.508429
vt 0.503344 0.508394
vt 0.503216 0.491571
vt 0.499965 0.499909
vt 0.499886 0.500000
vt 0.503216 0.508429
vt 0.508626 0.494847
vt 0.494756 0.496952
vt 0.491571 0.503089
vt 0.491571 0.496911
vt 0.508429 0.496911
vt 0.505244 0.503048
vt 0.508429 0.503089
vt 0.503344 0.491606
vt 0.793893 0.095492
vt 0.975528 0.654509
vt 0.024472 0.654508
vt 0.000000 0.424654
vt 0.500000 0.000000
vt 0.000000 0.499999
vt 0.975528 0.654509
vt 0.500000 1.000000
vt 0.229680 0.920627
vt 0.877875 0.172570
vt 0.359134 0.020254
vt 0.005089 0.428843
vt 0.005089 0.428843
vt 0.877875 0.172570
vt 0.500056 0.496844
vt 0.491431 0.494700
vt 0.491431 0.505300
vt 0.489329 0.499909
vt 0.510671 0.500091
s 0
usemtl wood
f 1/1/1 2/2/1 3/3/1
f 4/4/2 5/5/2 6/6/2
f 7/7/3 8/8/3 9/9/3
f 10/4/4 11/10/4 12/11/4
f 13/12/5 14/13/5 15/14/5
f 16/15/6 17/16/6 18/17/6
f 8/8/7 1/1/7 3/3/7
f 12/11/8 4/4/8 10/4/8
f 6/6/9 3/3/9 2/2/9
f 9/9/10 12/11/10 11/10/10
f 14/13/11 7/18/11 9/19/11
f 18/17/12 10/15/12 16/15/12
f 15/14/13 18/17/13 17/16/13
f 2/2/14 13/12/14 15/14/14
f 6/6/15 16/15/15 4/15/15
f 3/3/17 12/11/17 8/8/17
f 17/16/18 2/2/18 15/14/18
f 11/26/19 14/13/19 9/19/19
f 19/27/20 20/28/20 21/29/20
f 22/30/21 23/31/21 24/32/21
f 25/33/22 26/34/22 27/35/22
f 28/36/23 29/37/23 30/38/23
f 31/39/24 32/40/24 33/41/24
f 34/42/25 35/43/25 36/44/25
f 37/45/26 38/46/26 39/47/26
f 40/48/27 41/49/27 42/50/27
f 43/51/28 44/52/28 45/53/28
f 46/54/29 47/55/29 48/56/29
f 26/34/30 19/27/30 21/29/30
f 23/31/31 28/36/31 30/38/31
f 24/32/32 21/29/32 20/28/32
f 27/35/33 30/38/33 29/37/33
f 27/35/34 31/39/34 25/33/34
f 29/37/35 34/42/35 36/44/35
f 35/43/36 32/40/36 36/44/36
f 33/57/37 37/45/37 31/58/37
f 42/50/38 34/59/38 40/48/38
f 39/47/39 42/50/39 41/49/39
f 44/52/40 37/45/40 39/47/40
f 48/56/41 40/48/41 46/54/41
f 47/55/42 44/52/42 48/56/42
f 45/53/43 19/27/43 43/51/43
f 24/32/44 46/54/44 22/30/44
f 21/29/46 30/38/46 26/34/46
f 47/55/47 20/28/47 45/53/47
f 27/35/49 36/44/49 32/40/49
f 35/66/50 38/46/50 33/57/50
f 41/49/51 44/52/51 39/47/51
f 49/67/52 50/68/52 51/69/52
f 52/70/53 53/71/53 54/72/53
f 55/73/54 56/74/54 57/75/54
f 58/76/55 59/77/55 60/78/55
f 61/79/56 62/80/56 63/81/56
f 64/82/57 65/83/57 66/84/57
f 67/85/58 68/86/58 69/87/58
f 70/88/59 71/89/59 72/90/59
f 56/74/60 49/67/60 51/69/60
f 53/71/61 58/76/61 60/78/61
f 50/68/62 53/71/62 51/69/62
f 57/75/63 60/78/63 59/77/63
f 62/91/64 55/73/64 57/75/64
f 66/92/65 58/76/65 64/93/65
f 63/81/66 66/84/66 65/83/66
f 63/81/67 67/85/67 61/79/67
f 65/83/68 70/88/68 72/90/68
f 69/87/69 72/90/69 71/89/69
f 50/68/70 67/85/70 69/87/70
f 71/89/71 52/70/71 54/72/71
f 53/71/73 56/74/73 51/69/73
f 69/87/74 54/72/74 50/68/74
f 59/77/76 62/91/76 57/75/76
f 63/81/77 72/90/77 68/86/77
f 73/99/78 74/100/78 75/101/78
f 76/102/79 77/103/79 78/104/79
f 79/105/80 80/106/80 81/107/80
f 82/108/81 83/109/81 84/103/81
f 85/110/82 86/111/82 87/112/82
f 88/113/83 89/114/83 90/109/83
f 91/115/84 92/116/84 93/117/84
f 94/118/85 95/119/85 96/120/85
f 97/121/86 98/122/86 99/123/86
f 100/124/87 101/104/87 102/119/87
f 75/101/88 79/105/88 73/99/88
f 84/103/89 76/102/89 82/108/89
f 78/104/90 75/101/90 74/100/90
f 81/107/91 84/103/91 83/109/91
f 81/107/92 85/110/92 79/105/92
f 90/109/93 82/108/93 88/113/93
f 87/112/94 90/109/94 89/114/94
f 87/125/95 91/115/95 85/126/95
f 96/120/96 88/127/96 94/118/96
f 93/117/97 96/120/97 95/119/97
f 98/122/98 91/115/98 93/117/98
f 102/119/99 94/118/99 100/124/99
f 99/123/100 102/119/100 101/104/100
f 99/123/101 73/99/101 97/121/101
f 78/104/102 100/124/102 76/102/102
f 75/101/104 84/103/104 80/106/104
f 99/123/105 78/104/105 74/100/105
f 81/107/107 90/109/107 86/111/107
f 87/125/108 96/120/108 92/116/108
f 93/117/109 102/119/109 98/122/109
f 103/134/110 104/135/110 105/136/110
f 106/137/111 107/138/111 108/139/111
f 109/140/112 110/141/112 111/142/112
f 112/137/113 113/143/113 114/144/113
f 115/145/114 116/146/114 117/147/114
f 118/148/115 119/149/115 120/150/115
f 105/136/116 109/140/116 103/134/116
f 114/144/117 106/137/117 112/137/117
f 104/135/118 107/138/118 105/136/118
f 113/143/119 110/141/119 114/144/119
f 116/146/120 109/151/120 111/152/120
f 120/150/121 112/148/121 118/148/121
f 117/147/122 120/150/122 119/149/122
f 117/147/123 103/134/123 115/145/123
f 108/139/124 118/148/124 106/148/124
f 107/138/126 110/141/126 105/136/126
f 119/149/127 104/135/127 117/147/127
f 113/158/128 116/146/128 111/152/128
f 8/8/7 7/7/7 1/1/7
f 12/11/358 5/5/358 4/4/358
f 6/6/9 5/5/9 3/3/9
f 9/9/10 8/8/10 12/11/10
f 14/13/11 13/12/11 7/18/11
f 18/17/359 11/26/359 10/15/359
f 15/14/13 14/13/13 18/17/13
f 2/2/14 1/1/14 13/12/14
f 6/6/360 17/16/360 16/15/360
f 3/3/17 5/5/17 12/11/17
f 17/16/18 6/6/18 2/2/18
f 11/26/19 18/17/19 14/13/19
f 26/34/30 25/33/30 19/27/30
f 23/31/31 22/30/31 28/36/31
f 24/32/32 23/31/32 21/29/32
f 27/35/33 26/34/33 30/38/33
f 27/35/34 32/40/34 31/39/34
f 29/37/35 28/36/35 34/42/35
f 35/43/36 33/41/36 32/40/36
f 33/57/37 38/46/37 37/45/37
f 42/50/38 35/66/38 34/59/38
f 39/47/39 38/46/39 42/50/39
f 44/52/40 43/51/40 37/45/40
f 48/56/41 41/49/41 40/48/41
f 47/55/42 45/53/42 44/52/42
f 45/53/43 20/28/43 19/27/43
f 24/32/44 47/55/44 46/54/44
f 21/29/46 23/31/46 30/38/46
f 47/55/47 24/32/47 20/28/47
f 27/35/361 29/37/361 36/44/361
f 35/66/50 42/50/50 38/46/50
f 41/49/362 48/56/362 44/52/362
f 56/74/60 55/73/60 49/67/60
f 53/71/61 52/70/61 58/76/61
f 50/68/62 54/72/62 53/71/62
f 57/75/63 56/74/63 60/78/63
f 62/91/64 61/308/64 55/73/64
f 66/92/363 59/77/363 58/76/363
f 63/81/66 62/80/66 66/84/66
f 63/81/67 68/86/67 67/85/67
f 65/83/68 64/82/68 70/88/68
f 69/87/69 68/86/69 72/90/69
f 50/68/70 49/67/70 67/85/70
f 71/89/364 70/88/364 52/70/364
f 53/71/73 60/78/73 56/74/73
f 69/87/74 71/89/74 54/72/74
f 59/77/76 66/92/76 62/91/76
f 63/81/77 65/83/77 72/90/77
f 75/101/88 80/106/88 79/105/88
f 84/103/365 77/103/365 76/102/365
f 78/104/90 77/103/90 75/101/90
f 81/107/91 80/106/91 84/103/91
f 81/107/92 86/111/92 85/110/92
f 90/109/12 83/109/12 82/108/12
f 87/112/94 86/111/94 90/109/94
f 87/125/95 92/116/95 91/115/95
f 96/120/177 89/120/177 88/127/177
f 93/117/97 92/116/97 96/120/97
f 98/122/98 97/121/98 91/115/98
f 102/119/12 95/119/12 94/118/12
f 99/123/100 98/122/100 102/119/100
f 99/123/101 74/100/101 73/99/101
f 78/104/12 101/104/12 100/124/12
f 75/101/366 77/103/366 84/103/366
f 99/123/12 101/104/12 78/104/12
f 81/107/12 83/109/12 90/109/12
f 87/125/367 89/120/367 96/120/367
f 93/117/12 95/119/12 102/119/12
f 105/136/116 110/141/116 109/140/116
f 114/144/368 107/138/368 106/137/368
f 104/135/118 108/139/118 107/138/118
f 113/143/119 111/142/119 110/141/119
f 116/146/120 115/145/120 109/151/120
f 120/150/369 113/158/369 112/148/369
f 117/147/122 116/146/122 120/150/122
f 117/147/123 104/135/123 103/134/123
f 108/139/370 119/149/370 118/148/370
f 107/138/126 114/144/126 110/141/126
f 119/149/127 108/139/127 104/135/127
f 113/158/128 120/150/128 116/146/128
usemtl wood_end
f 1/20/16 7/21/16 13/22/16
f 10/23/12 4/24/12 16/25/12
f 25/60/45 37/61/45 43/62/45
f 22/63/48 40/64/48 34/65/48
f 55/94/72 67/95/72 49/63/72
f 52/96/75 64/97/75 58/98/75
f 85/128/103 91/129/103 97/130/103
f 100/131/106 94/132/106 88/133/106
f 103/153/125 109/154/125 115/155/125
f 112/156/12 106/63/12 118/157/12
f 43/62/45 19/202/45 25/60/45
f 25/60/45 31/305/45 37/61/45
f 34/65/48 28/306/48 22/63/48
f 22/63/48 46/307/48 40/64/48
f 55/94/72 61/309/72 67/95/72
f 52/96/75 70/310/75 64/97/75
f 97/130/103 73/202/103 79/311/103
f 79/311/103 85/128/103 97/130/103
f 88/133/106 82/311/106 76/312/106
f 76/312/106 100/131/106 88/133/106
usemtl soak
f 122/159/129 125/160/129 121/161/129
f 124/159/130 127/162/130 128/163/130
f 126/163/131 129/164/131 125/160/131
f 132/165/132 127/162/132 131/166/132
f 134/167/133 129/164/133 130/165/133
f 132/165/134 135/168/134 136/167/134
f 138/169/135 133/170/135 134/167/135
f 136/167/136 139/171/136 140/169/136
f 142/172/137 137/173/137 138/169/137
f 140/169/138 143/174/138 144/172/138
f 146/175/139 141/176/139 142/177/139
f 148/175/140 143/178/140 147/179/140
f 150/180/141 145/181/141 146/175/141
f 152/180/142 147/179/142 151/182/142
f 154/183/143 149/184/143 150/180/143
f 156/183/144 151/182/144 155/185/144
f 158/186/145 153/187/145 154/183/145
f 156/183/146 159/188/146 160/186/146
f 158/186/147 161/189/147 157/190/147
f 164/191/148 159/188/148 163/192/148
f 122/159/149 161/189/149 162/191/149
f 124/159/150 163/192/150 123/193/150
f 170/163/153 165/161/153 166/159/153
f 168/159/154 171/162/154 172/163/154
f 174/165/155 169/160/155 170/163/155
f 172/163/156 175/166/156 176/165/156
f 178/167/157 173/164/157 174/165/157
f 180/167/158 175/166/158 179/168/158
f 178/167/159 181/173/159 177/170/159
f 180/167/160 183/171/160 184/169/160
f 182/169/161 185/219/161 181/173/161
f 184/169/162 187/174/162 188/172/162
f 186/177/163 189/181/163 185/176/163
f 188/177/164 191/179/164 192/175/164
f 194/180/165 189/181/165 190/175/165
f 196/180/166 191/179/166 195/182/166
f 194/180/167 197/187/167 193/184/167
f 200/183/168 195/182/168 199/185/168
f 202/186/169 197/187/169 198/183/169
f 200/183/170 203/188/170 204/186/170
f 206/191/171 201/190/171 202/186/171
f 204/186/172 207/192/172 208/191/172
f 166/159/173 205/189/173 206/191/173
f 208/191/174 167/193/174 168/159/174
f 122/159/129 126/163/129 125/160/129
f 124/159/130 123/193/130 127/162/130
f 126/163/131 130/165/131 129/164/131
f 132/165/132 128/163/132 127/162/132
f 134/167/133 133/170/133 129/164/133
f 132/165/134 131/166/134 135/168/134
f 138/169/135 137/173/135 133/170/135
f 136/167/136 135/168/136 139/171/136
f 142/172/137 141/219/137 137/173/137
f 140/169/138 139/171/138 143/174/138
f 146/175/139 145/181/139 141/176/139
f 148/175/140 144/177/140 143/178/140
f 150/180/141 149/184/141 145/181/141
f 152/180/142 148/175/142 147/179/142
f 154/183/143 153/187/143 149/184/143
f 156/183/144 152/180/144 151/182/144
f 158/186/145 157/190/145 153/187/145
f 156/183/146 155/185/146 159/188/146
f 158/186/147 162/191/147 161/189/147
f 164/191/148 160/186/148 159/188/148
f 122/159/149 121/161/149 161/189/149
f 124/159/150 164/191/150 163/192/150
f 170/163/153 169/160/153 165/161/153
f 168/159/154 167/193/154 171/162/154
f 174/165/155 173/164/155 169/160/155
f 172/163/156 171/162/156 175/166/156
f 178/167/157 177/170/157 173/164/157
f 180/167/158 176/165/158 175/166/158
f 178/167/159 182/169/159 181/173/159
f 180/167/160 179/168/160 183/171/160
f 182/169/161 186/172/161 185/219/161
f 184/169/162 183/171/162 187/174/162
f 186/177/163 190/175/163 189/181/163
f 188/177/164 187/178/164 191/179/164
f 194/180/165 193/184/165 189/181/165
f 196/180/166 192/175/166 191/179/166
f 194/180/167 198/183/167 197/187/167
f 200/183/168 196/180/168 195/182/168
f 202/186/169 201/190/169 197/187/169
f 200/183/170 199/185/170 203/188/170
f 206/191/171 205/189/171 201/190/171
f 204/186/172 203/188/172 207/192/172
f 166/159/173 165/161/173 205/189/173
f 208/191/174 207/192/174 167/193/174
usemtl soak_end
f 141/194/151 149/195/151 157/196/151
f 122/197/12 128/198/12 126/198/12
f 162/199/12 124/200/12 122/200/12
f 143/194/152 135/201/152 123/202/152
f 126/203/12 132/204/12 130/204/12
f 130/205/12 136/206/12 134/206/12
f 134/207/12 140/208/12 138/208/12
f 138/209/12 144/210/12 142/210/12
f 142/94/12 148/95/12 146/95/12
f 146/211/12 152/212/12 150/212/12
f 150/213/12 156/214/12 154/214/12
f 154/215/12 160/216/12 158/216/12
f 158/217/12 164/218/12 162/218/12
f 193/195/175 201/196/175 169/220/175
f 166/197/12 172/198/12 170/198/12
f 206/199/12 168/200/12 166/200/12
f 175/221/176 167/202/176 195/195/176
f 170/203/12 176/204/12 174/204/12
f 174/205/12 180/206/12 178/206/12
f 178/207/12 184/208/12 182/208/12
f 182/209/12 188/210/12 186/210/12
f 186/94/12 192/95/12 190/95/12
f 190/211/12 196/212/12 194/212/12
f 194/213/12 200/214/12 198/214/12
f 198/215/12 204/216/12 202/216/12
f 202/217/12 208/218/12 206/218/12
f 161/313/151 121/202/151 125/220/151
f 125/220/151 129/221/151 133/201/151
f 133/201/151 137/314/151 141/194/151
f 141/194/151 145/315/151 149/195/151
f 149/195/151 153/316/151 157/196/151
f 157/196/151 161/313/151 141/194/151
f 161/313/151 125/220/151 141/194/151
f 125/220/151 133/201/151 141/194/151
f 122/197/12 124/197/12 128/198/12
f 162/199/12 164/199/12 124/200/12
f 131/221/152 127/220/152 123/202/152
f 123/202/152 163/313/152 159/196/152
f 159/196/152 155/317/152 123/202/152
f 155/317/152 151/195/152 123/202/152
f 151/195/152 147/315/152 143/194/152
f 143/194/152 139/318/152 135/201/152
f 135/201/152 131/221/152 123/202/152
f 151/195/152 143/194/152 123/202/152
f 126/203/12 128/203/12 132/204/12
f 130/205/12 132/205/12 136/206/12
f 134/207/12 136/207/12 140/208/12
f 138/209/12 140/209/12 144/210/12
f 142/94/12 144/94/12 148/95/12
f 146/211/12 148/211/12 152/212/12
f 150/213/12 152/213/12 156/214/12
f 154/215/12 156/215/12 160/216/12
f 158/217/12 160/217/12 164/218/12
f 205/313/175 165/202/175 201/196/175
f 165/202/175 169/220/175 201/196/175
f 169/220/175 173/221/175 177/201/175
f 177/201/175 181/314/175 185/194/175
f 185/194/175 189/315/175 193/195/175
f 193/195/175 197/316/175 201/196/175
f 169/220/175 177/201/175 185/194/175
f 185/194/175 193/195/175 169/220/175
f 166/197/12 168/197/12 172/198/12
f 206/199/12 208/199/12 168/200/12
f 175/221/176 171/220/176 167/202/176
f 167/202/176 207/313/176 203/196/176
f 203/196/176 199/317/176 167/202/176
f 199/317/176 195/195/176 167/202/176
f 195/195/176 191/315/176 179/201/176
f 191/315/176 187/194/176 179/201/176
f 187/194/176 183/318/176 179/201/176
f 179/201/176 175/221/176 195/195/176
f 170/203/12 172/203/12 176/204/12
f 174/205/12 176/205/12 180/206/12
f 178/207/12 180/207/12 184/208/12
f 182/209/12 184/209/12 188/210/12
f 186/94/12 188/94/12 192/95/12
f 190/211/12 192/211/12 196/212/12
f 194/213/12 196/213/12 200/214/12
f 198/215/12 200/215/12 204/216/12
f 202/217/12 204/217/12 208/218/12
usemtl resin
f 211/222/177 212/223/177 213/224/177
f 216/225/178 217/226/178 218/227/178
f 220/228/179 221/229/179 222/230/179
f 225/231/180 226/232/180 227/233/180
f 230/234/181 231/235/181 232/230/181
f 236/236/182 237/237/182 238/238/182
f 240/239/183 242/240/183 243/241/183
f 245/242/184 247/243/184 248/244/184
f 250/245/185 252/246/185 253/247/185
f 255/239/186 257/241/186 258/240/186
f 260/248/187 262/249/187 263/250/187
f 265/251/12 266/252/12 267/253/12
f 209/254/188 220/255/188 219/256/188
f 212/223/189 218/227/189 213/224/189
f 221/229/190 218/257/190 217/258/190
f 215/259/191 235/260/191 234/261/191
f 236/236/192 212/223/192 211/222/192
f 210/262/193 225/263/193 224/264/193
f 223/265/194 225/263/194 219/256/194
f 229/266/195 210/262/195 230/267/195
f 231/268/196 224/264/196 228/269/196
f 233/229/197 236/257/197 229/228/197
f 259/270/198 215/271/198 260/248/198
f 261/272/199 234/273/199 238/274/199
f 239/275/200 221/229/200 240/239/200
f 241/276/201 217/258/201 216/277/201
f 244/278/202 226/232/202 245/279/202
f 246/280/203 223/235/203 222/230/203
f 249/280/204 231/235/204 250/281/204
f 251/282/205 228/283/205 227/233/205
f 254/276/206 237/258/206 255/239/206
f 256/275/207 233/229/207 232/230/207
f 263/284/208 241/285/208 259/286/208
f 247/287/209 239/275/209 243/241/209
f 248/244/210 251/288/210 244/289/210
f 253/287/211 256/275/211 249/280/211
f 262/290/212 254/291/212 258/292/212
f 243/293/213 265/251/213 264/294/213
f 262/290/214 265/251/214 263/284/214
f 268/295/215 247/243/215 264/294/215
f 253/247/216 268/295/216 267/253/216
f 266/252/217 257/296/217 267/253/217
f 209/254/218 219/256/218 225/263/218
f 213/224/219 218/227/219 220/255/219
f 214/297/220 212/223/220 235/260/220
f 210/262/221 224/264/221 230/267/221
f 211/222/222 229/266/222 236/236/222
f 215/271/223 234/273/223 260/248/223
f 216/298/224 259/270/224 241/299/224
f 221/229/225 217/258/225 240/239/225
f 222/230/226 239/275/226 246/280/226
f 226/232/227 223/300/227 245/279/227
f 227/233/228 244/278/228 251/282/228
f 231/301/229 228/283/229 250/302/229
f 232/230/230 249/280/230 256/275/230
f 237/258/231 233/229/231 255/239/231
f 238/274/232 254/303/232 261/272/232
f 247/243/233 243/293/233 264/294/233
f 242/304/234 263/284/234 265/251/234
f 252/246/235 248/244/235 268/295/235
f 257/296/236 253/247/236 267/253/236
f 262/290/237 258/292/237 266/252/237
f 271/222/177 272/223/177 273/224/177
f 276/225/238 277/226/238 278/227/238
f 280/228/239 281/229/239 282/230/239
f 285/231/240 286/232/240 287/233/240
f 290/234/241 291/235/241 292/230/241
f 296/236/242 297/237/242 298/238/242
f 300/239/243 302/240/243 303/241/243
f 305/242/244 307/243/244 308/244/244
f 310/245/245 312/246/245 313/247/245
f 315/239/246 317/241/246 318/240/246
f 320/248/247 322/249/247 323/250/247
f 325/251/12 326/252/12 327/253/12
f 269/254/248 280/255/248 279/256/248
f 272/223/249 278/227/249 273/224/249
f 281/229/250 278/257/250 277/258/250
f 275/259/251 295/260/251 294/261/251
f 296/236/252 272/223/252 271/222/252
f 284/264/253 269/254/253 285/263/253
f 283/265/254 285/263/254 279/256/254
f 289/266/255 270/262/255 290/267/255
f 291/268/256 284/264/256 288/269/256
f 293/229/257 296/257/257 289/228/257
f 319/270/258 275/271/258 320/248/258
f 321/272/259 294/273/259 298/274/259
f 299/275/260 281/229/260 300/239/260
f 301/276/261 277/258/261 276/277/261
f 304/278/262 286/232/262 305/279/262
f 306/280/263 283/235/263 282/230/263
f 309/280/264 291/235/264 310/281/264
f 311/282/265 288/283/265 287/233/265
f 314/276/266 297/258/266 315/239/266
f 316/275/267 293/229/267 292/230/267
f 323/284/268 301/285/268 319/286/268
f 307/287/269 299/275/269 303/241/269
f 312/246/270 304/289/270 308/244/270
f 313/287/271 316/275/271 309/280/271
f 322/290/272 314/291/272 318/292/272
f 303/293/273 325/251/273 324/294/273
f 322/290/274 325/251/274 323/284/274
f 328/295/275 307/243/275 324/294/275
f 313/247/276 328/295/276 327/253/276
f 326/252/277 317/296/277 327/253/277
f 269/254/278 279/256/278 285/263/278
f 273/224/279 278/227/279 280/255/279
f 274/297/280 272/223/280 295/260/280
f 270/262/281 284/264/281 290/267/281
f 271/222/282 289/266/282 296/236/282
f 275/271/283 294/273/283 320/248/283
f 276/298/284 319/270/284 301/299/284
f 281/229/285 277/258/285 300/239/285
f 282/230/286 299/275/286 306/280/286
f 286/232/287 283/300/287 305/279/287
f 287/233/288 304/278/288 311/282/288
f 291/301/289 288/283/289 310/302/289
f 292/230/290 309/280/290 316/275/290
f 297/258/291 293/229/291 315/239/291
f 298/274/292 314/303/292 321/272/292
f 307/243/293 303/293/293 324/294/293
f 302/304/294 323/284/294 325/251/294
f 312/246/295 308/244/295 328/295/295
f 317/296/296 313/247/296 327/253/296
f 322/290/297 318/292/297 326/252/297
f 331/222/177 332/223/177 333/224/177
f 336/225/298 337/226/298 338/227/298
f 340/228/299 341/229/299 342/230/299
f 345/231/300 346/232/300 347/233/300
f 350/234/301 351/235/301 352/230/301
f 356/236/302 357/237/302 358/238/302
f 360/239/303 362/240/303 363/241/303
f 365/242/304 367/243/304 368/244/304
f 370/245/305 372/246/305 373/247/305
f 375/239/306 377/241/306 378/240/306
f 380/248/307 382/249/307 383/250/307
f 385/251/12 386/252/12 387/253/12
f 329/254/308 340/255/308 339/256/308
f 332/223/309 338/227/309 333/224/309
f 341/229/310 338/257/310 337/258/310
f 335/259/311 355/260/311 354/261/311
f 356/236/312 332/223/312 331/222/312
f 330/262/313 345/263/313 344/264/313
f 343/265/314 345/263/314 339/256/314
f 349/266/315 330/262/315 350/267/315
f 351/268/316 344/264/316 348/269/316
f 353/229/317 356/257/317 349/228/317
f 379/270/318 335/271/318 380/248/318
f 381/272/319 354/273/319 358/274/319
f 359/275/320 341/229/320 360/239/320
f 361/276/321 337/258/321 336/277/321
f 364/278/322 346/232/322 365/279/322
f 366/280/323 343/235/323 342/230/323
f 369/280/324 351/235/324 370/281/324
f 371/282/325 348/283/325 347/233/325
f 374/276/326 357/258/326 375/239/326
f 376/275/327 353/229/327 352/230/327
f 383/284/328 361/285/328 379/286/328
f 367/287/329 359/275/329 363/241/329
f 368/244/330 371/288/330 364/289/330
f 373/287/331 376/275/331 369/280/331
f 382/290/332 374/291/332 378/292/332
f 363/293/333 385/251/333 384/294/333
f 382/290/334 385/251/334 383/284/334
f 388/295/335 367/243/335 384/294/335
f 373/247/336 388/295/336 387/253/336
f 386/252/337 377/296/337 387/253/337
f 329/254/338 339/256/338 345/263/338
f 333/224/339 338/227/339 340/255/339
f 334/297/340 332/223/340 355/260/340
f 330/262/341 344/264/341 350/267/341
f 331/222/342 349/266/342 356/236/342
f 335/271/343 354/273/343 380/248/343
f 336/298/344 379/270/344 361/299/344
f 341/229/345 337/258/345 360/239/345
f 342/230/346 359/275/346 366/280/346
f 346/232/347 343/300/347 365/279/347
f 347/233/348 364/278/348 371/282/348
f 351/301/349 348/283/349 370/302/349
f 352/230/350 369/280/350 376/275/350
f 357/258/351 353/229/351 375/239/351
f 358/274/352 374/303/352 381/272/352
f 367/243/353 363/293/353 384/294/353
f 362/304/354 383/284/354 385/251/354
f 372/246/355 368/244/355 388/295/355
f 377/296/356 373/247/356 387/253/356
f 382/290/357 378/292/357 386/252/357
f 213/224/177 209/254/177 210/262/177
f 210/262/177 211/222/177 213/224/177
f 218/227/371 214/297/371 216/225/371
f 214/297/178 215/259/178 216/225/178
f 223/235/372 219/234/372 222/230/372
f 219/234/372 220/228/372 222/230/372
f 228/283/373 224/319/373 227/233/373
f 224/319/374 225/231/374 227/233/374
f 233/229/375 229/228/375 232/230/375
f 229/228/376 230/234/376 232/230/376
f 238/238/377 234/261/377 235/260/377
f 235/260/182 236/236/182 238/238/182
f 243/241/378 239/275/378 240/239/378
f 240/239/379 241/276/379 242/240/379
f 248/244/380 244/289/380 245/242/380
f 245/242/184 246/320/184 247/243/184
f 253/247/381 249/321/381 250/245/381
f 250/245/382 251/288/382 252/246/382
f 258/240/186 254/276/186 255/239/186
f 255/239/383 256/275/383 257/241/383
f 263/250/384 259/270/384 260/248/384
f 260/248/187 261/272/187 262/249/187
f 268/295/12 264/294/12 267/253/12
f 264/294/12 265/251/12 267/253/12
f 209/254/385 213/224/385 220/255/385
f 212/223/189 214/297/189 218/227/189
f 221/229/386 220/228/386 218/257/386
f 215/259/191 214/297/191 235/260/191
f 236/236/192 235/260/192 212/223/192
f 210/262/193 209/254/193 225/263/193
f 223/265/387 226/322/387 225/263/387
f 229/266/195 211/222/195 210/262/195
f 231/268/196 230/267/196 224/264/196
f 233/229/197 237/258/197 236/257/197
f 259/270/198 216/298/198 215/271/198
f 261/272/199 260/248/199 234/273/199
f 239/275/388 222/230/388 221/229/388
f 241/276/201 240/239/201 217/258/201
f 244/278/202 227/233/202 226/232/202
f 246/280/389 245/281/389 223/235/389
f 249/280/204 232/230/204 231/235/204
f 251/282/205 250/302/205 228/283/205
f 254/276/390 238/277/390 237/258/390
f 256/275/391 255/239/391 233/229/391
f 263/284/392 242/304/392 241/285/392
f 247/287/393 246/280/393 239/275/393
f 248/244/210 252/246/210 251/288/210
f 253/287/211 257/241/211 256/275/211
f 262/290/394 261/323/394 254/291/394
f 243/293/213 242/304/213 265/251/213
f 262/290/395 266/252/395 265/251/395
f 268/295/396 248/244/396 247/243/396
f 253/247/216 252/246/216 268/295/216
f 266/252/397 258/292/397 257/296/397
f 273/224/177 269/254/177 270/262/177
f 270/262/177 271/222/177 273/224/177
f 278/227/398 274/297/398 276/225/398
f 274/297/399 275/259/399 276/225/399
f 283/235/400 279/234/400 282/230/400
f 279/234/400 280/228/400 282/230/400
f 288/283/401 284/319/401 287/233/401
f 284/319/402 285/231/402 287/233/402
f 293/229/403 289/228/403 292/230/403
f 289/228/404 290/234/404 292/230/404
f 298/238/405 294/261/405 295/260/405
f 295/260/405 296/236/405 298/238/405
f 303/241/406 299/275/406 300/239/406
f 300/239/407 301/276/407 302/240/407
f 308/244/408 304/289/408 305/242/408
f 305/242/409 306/320/409 307/243/409
f 313/247/410 309/321/410 310/245/410
f 310/245/411 311/288/411 312/246/411
f 318/240/412 314/276/412 315/239/412
f 315/239/412 316/275/412 317/241/412
f 323/250/413 319/270/413 320/248/413
f 320/248/247 321/272/247 322/249/247
f 328/295/12 324/294/12 327/253/12
f 324/294/12 325/251/12 327/253/12
f 269/254/414 273/224/414 280/255/414
f 272/223/249 274/297/249 278/227/249
f 281/229/250 280/228/250 278/257/250
f 275/259/415 274/297/415 295/260/415
f 296/236/416 295/260/416 272/223/416
f 284/264/253 270/262/253 269/254/253
f 283/265/417 286/322/417 285/263/417
f 289/266/418 271/222/418 270/262/418
f 291/268/256 290/267/256 284/264/256
f 293/229/257 297/258/257 296/257/257
f 319/270/258 276/298/258 275/271/258
f 321/272/419 320/248/419 294/273/419
f 299/275/260 282/230/260 281/229/260
f 301/276/420 300/239/420 277/258/420
f 304/278/421 287/233/421 286/232/421
f 306/280/422 305/281/422 283/235/422
f 309/280/423 292/230/423 291/235/423
f 311/282/424 310/302/424 288/283/424
f 314/276/266 298/277/266 297/258/266
f 316/275/267 315/239/267 293/229/267
f 323/284/425 302/304/425 301/285/425
f 307/287/269 306/280/269 299/275/269
f 312/246/426 311/288/426 304/289/426
f 313/287/427 317/241/427 316/275/427
f 322/290/428 321/323/428 314/291/428
f 303/293/273 302/304/273 325/251/273
f 322/290/429 326/252/429 325/251/429
f 328/295/275 308/244/275 307/243/275
f 313/247/276 312/246/276 328/295/276
f 326/252/277 318/292/277 317/296/277
f 333/224/177 329/254/177 330/262/177
f 330/262/177 331/222/177 333/224/177
f 338/227/430 334/297/430 336/225/430
f 334/297/298 335/259/298 336/225/298
f 343/235/431 339/234/431 342/230/431
f 339/234/431 340/228/431 342/230/431
f 348/283/432 344/319/432 347/233/432
f 344/319/433 345/231/433 347/233/433
f 353/229/434 349/228/434 352/230/434
f 349/228/435 350/234/435 352/230/435
f 358/238/436 354/261/436 355/260/436
f 355/260/437 356/236/437 358/238/437
f 363/241/438 359/275/438 360/239/438
f 360/239/439 361/276/439 362/240/439
f 368/244/440 364/289/440 365/242/440
f 365/242/441 366/320/441 367/243/441
f 373/247/442 369/321/442 370/245/442
f 370/245/305 371/288/305 372/246/305
f 378/240/443 374/276/443 375/239/443
f 375/239/444 376/275/444 377/241/444
f 383/250/445 379/270/445 380/248/445
f 380/248/446 381/272/446 382/249/446
f 388/295/12 384/294/12 387/253/12
f 384/294/12 385/251/12 387/253/12
f 329/254/447 333/224/447 340/255/447
f 332/223/309 334/297/309 338/227/309
f 341/229/448 340/228/448 338/257/448
f 335/259/449 334/297/449 355/260/449
f 356/236/450 355/260/450 332/223/450
f 330/262/313 329/254/313 345/263/313
f 343/265/314 346/322/314 345/263/314
f 349/266/315 331/222/315 330/262/315
f 351/268/451 350/267/451 344/264/451
f 353/229/317 357/258/317 356/257/317
f 379/270/318 336/298/318 335/271/318
f 381/272/452 380/248/452 354/273/452
f 359/275/453 342/230/453 341/229/453
f 361/276/454 360/239/454 337/258/454
f 364/278/322 347/233/322 346/232/322
f 366/280/455 365/281/455 343/235/455
f 369/280/324 352/230/324 351/235/324
f 371/282/325 370/302/325 348/283/325
f 374/276/456 358/277/456 357/258/456
f 376/275/457 375/239/457 353/229/457
f 383/284/328 362/304/328 361/285/328
f 367/287/329 366/280/329 359/275/329
f 368/244/330 372/246/330 371/288/330
f 373/287/458 377/241/458 376/275/458
f 382/290/459 381/323/459 374/291/459
f 363/293/333 362/304/333 385/251/333
f 382/290/334 386/252/334 385/251/334
f 388/295/460 368/244/460 367/243/460
f 373/247/336 372/246/336 388/295/336
f 386/252/337 378/292/337 377/296/337
