# Blender 4.5.10 LTS
# www.blender.org
mtllib tyrvi_splint.mtl
o tyrvi_splint
v 0.151792 0.030858 0.025671
v 0.143695 0.037374 0.030511
v 0.143623 0.024430 0.030509
v -0.082400 0.032156 0.015573
v -0.074584 0.025639 0.021101
v -0.074512 0.038584 0.021103
v 0.152109 0.008558 0.009471
v 0.143888 0.005792 0.016970
v 0.144200 0.001791 0.004662
v -0.082134 0.013408 0.001954
v -0.074054 0.006310 -0.002342
v -0.074366 0.010310 0.009966
v 0.152868 0.017076 -0.016733
v 0.144834 0.008911 -0.017239
v 0.145099 0.019383 -0.024844
v -0.081496 0.020569 -0.020076
v -0.073268 0.022638 -0.027959
v -0.073532 0.012165 -0.020355
v 0.153021 0.044640 -0.016729
v 0.145226 0.042421 -0.024840
v 0.145078 0.052894 -0.017233
v -0.081367 0.043742 -0.020073
v -0.073311 0.052057 -0.020349
v -0.073163 0.041585 -0.027956
v 0.152356 0.053157 0.009478
v 0.144522 0.060013 0.004671
v 0.144166 0.056013 0.016977
v -0.081926 0.050903 0.001960
v -0.074125 0.053912 0.009972
v -0.073768 0.057913 -0.002334
v -0.026526 0.031085 0.027440
v -0.034322 0.037580 0.032702
v -0.034358 0.024634 0.032703
v -0.150662 0.031427 0.028683
v -0.142494 0.024933 0.033786
v -0.142458 0.037878 0.033785
v -0.027259 0.005636 0.008965
v -0.034984 0.002923 0.016942
v -0.035436 -0.001077 0.004638
v -0.151308 0.009031 0.012424
v -0.143495 0.001880 0.007651
v -0.143043 0.005881 0.019955
v -0.028305 0.015357 -0.020934
v -0.036329 0.007216 -0.020869
v -0.036573 0.017689 -0.028475
v -0.152228 0.017586 -0.013889
v -0.144522 0.019631 -0.022338
v -0.144278 0.009157 -0.014732
v -0.028218 0.046813 -0.020937
v -0.036499 0.044525 -0.028478
v -0.036197 0.054999 -0.020874
v -0.152152 0.045269 -0.013891
v -0.144156 0.053653 -0.014737
v -0.144457 0.043180 -0.022340
v -0.027119 0.056534 0.008960
v -0.035259 0.063291 0.004631
v -0.034828 0.059291 0.016936
v -0.151184 0.053824 0.012419
v -0.142902 0.056930 0.019950
v -0.143333 0.060930 0.007645
v -0.055101 0.037109 -0.012224
v -0.054856 0.037109 -0.012199
v -0.054810 0.037109 -0.011899
v -0.055026 0.037109 -0.011739
v -0.055207 0.037109 -0.011940
v -0.068276 0.045237 0.006522
v -0.068292 0.045380 0.006683
v -0.068482 0.045469 0.006582
v -0.068583 0.045380 0.006359
v -0.068456 0.045237 0.006321
v -0.072599 0.045237 -0.021488
v -0.072705 0.045237 -0.021204
v -0.072832 0.045380 -0.021167
v -0.072806 0.045469 -0.021428
v -0.072662 0.045380 -0.021626
v -0.052421 0.045237 -0.036186
v -0.052666 0.045237 -0.036211
v -0.052729 0.045380 -0.036349
v -0.052522 0.045469 -0.036409
v -0.052332 0.045380 -0.036309
v -0.035807 0.045237 -0.017459
v -0.035853 0.045237 -0.017758
v -0.035764 0.045380 -0.017881
v -0.035663 0.045469 -0.017658
v -0.035689 0.045380 -0.017397
v -0.045733 0.045380 0.008973
v -0.045717 0.045237 0.008812
v -0.045500 0.045237 0.008652
v -0.045383 0.045380 0.008714
v -0.045527 0.045469 0.008913
v -0.074311 0.058620 -0.006603
v -0.074337 0.058531 -0.006342
v -0.074236 0.058620 -0.006119
v -0.074147 0.058763 -0.006242
v -0.074193 0.058763 -0.006541
v -0.064267 0.058620 -0.032973
v -0.064473 0.058531 -0.032913
v -0.064617 0.058620 -0.032714
v -0.064500 0.058763 -0.032652
v -0.064283 0.058763 -0.032812
v -0.041417 0.058620 -0.030359
v -0.041518 0.058531 -0.030582
v -0.041708 0.058620 -0.030683
v -0.041724 0.058763 -0.030522
v -0.041544 0.058763 -0.030321
v -0.037338 0.058620 -0.002374
v -0.037194 0.058531 -0.002572
v -0.037168 0.058620 -0.002833
v -0.037295 0.058763 -0.002796
v -0.037401 0.058763 -0.002512
v -0.057668 0.058620 0.012309
v -0.057478 0.058531 0.012409
v -0.057271 0.058620 0.012349
v -0.057334 0.058763 0.012211
v -0.057579 0.058763 0.012186
v -0.055190 0.066891 -0.012101
v -0.055144 0.066891 -0.011801
v -0.054899 0.066891 -0.011776
v -0.054793 0.066891 -0.012060
v -0.054974 0.066891 -0.012261
v -0.127868 0.036087 0.013875
v -0.127830 0.036087 0.014062
v -0.128026 0.036087 0.014163
v -0.128187 0.036087 0.014039
v -0.128089 0.036087 0.013861
v -0.143855 0.042590 0.008339
v -0.143971 0.042704 0.008363
v -0.143944 0.042775 0.008200
v -0.143813 0.042704 0.008076
v -0.143758 0.042590 0.008162
v -0.125439 0.042590 -0.001104
v -0.125660 0.042590 -0.001119
v -0.125715 0.042704 -0.001205
v -0.125528 0.042775 -0.001243
v -0.125358 0.042704 -0.001181
v -0.110660 0.042590 0.010503
v -0.110698 0.042590 0.010317
v -0.110617 0.042704 0.010240
v -0.110528 0.042775 0.010379
v -0.110554 0.042704 0.010542
v -0.119844 0.042590 0.026943
v -0.119647 0.042590 0.026842
v -0.119542 0.042704 0.026881
v -0.119674 0.042775 0.027005
v -0.119860 0.042704 0.027044
v -0.140415 0.042704 0.025520
v -0.140300 0.042590 0.025496
v -0.140139 0.042590 0.025620
v -0.140156 0.042704 0.025721
v -0.140326 0.042775 0.025659
v -0.136140 0.053296 0.000956
v -0.136326 0.053225 0.000995
v -0.136458 0.053296 0.001119
v -0.136353 0.053410 0.001158
v -0.136156 0.053410 0.001057
v -0.115585 0.053296 0.002480
v -0.115674 0.053225 0.002341
v -0.115844 0.053296 0.002279
v -0.115861 0.053410 0.002380
v -0.115700 0.053410 0.002504
v -0.112187 0.053296 0.019924
v -0.112056 0.053225 0.019800
v -0.112029 0.053296 0.019637
v -0.112145 0.053410 0.019661
v -0.112242 0.053410 0.019838
v -0.130642 0.053296 0.029181
v -0.130472 0.053225 0.029243
v -0.130285 0.053296 0.029205
v -0.130340 0.053410 0.029119
v -0.130561 0.053410 0.029104
v -0.145446 0.053296 0.017458
v -0.145472 0.053225 0.017621
v -0.145383 0.053296 0.017760
v -0.145302 0.053410 0.017683
v -0.145340 0.053410 0.017497
v -0.127974 0.059913 0.013837
v -0.128170 0.059913 0.013938
v -0.128132 0.059913 0.014125
v -0.127911 0.059913 0.014139
v -0.127813 0.059913 0.013961
vn 0.5113 -0.0030 0.8594
vn -0.5757 0.0031 0.8176
vn 0.5227 -0.8068 0.2755
vn -0.5645 -0.7891 0.2422
vn 0.5501 -0.4997 -0.6691
vn -0.5375 -0.4865 -0.6887
vn 0.5556 0.4938 -0.6689
vn -0.5321 0.4927 -0.6886
vn 0.5316 0.8008 0.2757
vn -0.5557 0.7953 0.2424
vn 0.6843 -0.4222 0.5945
vn -0.7291 -0.4090 0.5488
vn -0.0431 0.0001 0.9991
vn -0.0296 -0.9508 0.3083
vn 0.7045 -0.6807 -0.2009
vn -0.7092 -0.6642 -0.2364
vn 0.0028 -0.5876 -0.8091
vn 0.7216 -0.0039 -0.6923
vn -0.6923 0.0039 -0.7216
vn 0.0093 0.5878 -0.8090
vn 0.7120 0.6729 -0.2007
vn -0.7018 0.6721 -0.2362
vn -0.0191 0.9510 0.3086
vn 0.6889 0.4144 0.5947
vn -0.7245 0.4169 0.5489
vn 0.9996 -0.0055 0.0272
vn -0.0381 -0.5877 0.8082
vn -0.0316 0.5878 0.8084
vn -0.9996 0.0055 -0.0272
vn -0.0098 -0.9509 -0.3094
vn 0.0143 0.0001 -0.9999
vn 0.0008 0.9510 -0.3091
vn 0.5586 -0.0015 0.8295
vn -0.5289 0.0015 0.8487
vn 0.5353 -0.8089 0.2433
vn -0.5517 -0.7870 0.2762
vn 0.5021 -0.5005 -0.7053
vn -0.5841 -0.4858 -0.6503
vn 0.5049 0.4975 -0.7054
vn -0.5814 0.4889 -0.6504
vn 0.5398 0.8059 0.2431
vn -0.5473 0.7901 0.2760
vn 0.7188 -0.4219 0.5526
vn -0.6948 -0.4093 0.5913
vn 0.0100 0.0001 0.9999
vn -0.0174 -0.9507 0.3097
vn 0.6894 -0.6814 -0.2457
vn -0.7236 -0.6635 -0.1904
vn -0.0565 -0.5875 -0.8072
vn 0.6736 -0.0019 -0.7391
vn -0.7391 0.0020 -0.6736
vn -0.0532 0.5877 -0.8074
vn 0.6932 0.6776 -0.2458
vn -0.7199 0.6674 -0.1905
vn -0.0121 0.9508 0.3095
vn 0.7211 0.4180 0.5525
vn -0.6926 0.4132 0.5913
vn 0.9994 -0.0028 -0.0359
vn 0.0065 -0.5876 0.8091
vn 0.0097 0.5877 0.8090
vn -0.9994 0.0028 0.0359
vn -0.0346 -0.9508 -0.3079
vn -0.0568 0.0001 -0.9984
vn -0.0294 0.9509 -0.3081
vn -0.0000 -1.0000 -0.0000
vn -0.5697 -0.6426 0.5123
vn -0.7513 -0.5981 -0.2790
vn 0.0745 -0.6757 -0.7334
vn 0.7920 -0.5981 -0.1223
vn 0.4552 -0.6426 0.6163
vn -0.7921 0.5981 0.1222
vn -0.4552 0.6426 -0.6163
vn 0.5698 0.6426 -0.5122
vn 0.7513 0.5981 0.2789
vn -0.0744 0.6757 0.7334
vn -0.0001 1.0000 -0.0000
vn -0.3587 -0.9239 -0.1331
vn -0.2571 -0.9383 0.2311
vn -0.7264 -0.6780 0.1121
vn -0.0668 -0.7498 0.6583
vn 0.2054 -0.9383 0.2781
vn 0.0323 -0.9476 -0.3178
vn -0.4125 -0.7197 -0.5584
vn 0.3781 -0.9239 -0.0584
vn 0.5163 -0.7197 -0.4642
vn 0.6891 -0.6780 0.2558
vn -0.4680 -0.0000 0.8837
vn 0.2808 -0.0000 0.9598
vn -0.9949 -0.0000 -0.1010
vn -0.9109 -0.0000 0.4126
vn -0.2808 -0.0000 -0.9598
vn -0.8094 -0.0000 -0.5873
vn 0.9109 -0.0000 -0.4126
vn 0.4680 -0.0000 -0.8838
vn 0.8094 -0.0000 0.5873
vn 0.9949 -0.0000 0.1010
vn -0.5162 0.7198 0.4641
vn -0.6891 0.6780 -0.2558
vn 0.0668 0.7497 -0.6583
vn 0.7264 0.6780 -0.1121
vn 0.4124 0.7198 0.5584
vn -0.3781 0.9239 0.0584
vn -0.0323 0.9476 0.3178
vn -0.2054 0.9383 -0.2781
vn 0.2571 0.9383 -0.2311
vn 0.3586 0.9239 0.1332
vn -0.2462 -0.9101 -0.3334
vn -0.4503 -0.8902 0.0695
vn -0.0388 -0.9231 0.3827
vn 0.3082 -0.9101 -0.2771
vn 0.4271 -0.8902 0.1586
vn -0.0953 -0.3305 0.9390
vn -0.7082 0.3051 0.6367
vn -0.9504 -0.2741 0.1467
vn -0.9016 0.2741 -0.3347
vn -0.5658 -0.3051 -0.7660
vn 0.0953 0.3305 -0.9390
vn 0.7082 -0.3051 -0.6367
vn 0.9504 0.2741 -0.1467
vn 0.9016 -0.2741 0.3347
vn 0.5658 0.3051 0.7660
vn -0.4271 0.8902 -0.1586
vn -0.3082 0.9101 0.2771
vn 0.0388 0.9231 -0.3827
vn 0.4503 0.8902 -0.0695
vn 0.2462 0.9101 0.3334
vn -0.6899 -0.6165 -0.3794
vn 0.0529 -0.5832 -0.8106
vn 0.7522 -0.6402 -0.1560
vn 0.3706 -0.5832 0.7228
vn -0.4822 -0.6165 0.6224
vn -0.3707 0.5832 -0.7228
vn 0.4822 0.6165 -0.6224
vn 0.6899 0.6165 0.3795
vn -0.0529 0.5832 0.8106
vn -0.7522 0.6402 0.1559
vn -0.0000 1.0000 -0.0000
vn 0.0258 -0.9185 -0.3946
vn -0.3217 -0.9302 -0.1769
vn -0.3413 -0.6637 -0.6656
vn -0.6821 -0.7175 0.1414
vn -0.2248 -0.9302 0.2902
vn 0.3405 -0.9376 -0.0706
vn 0.4401 -0.6954 -0.5680
vn 0.1804 -0.9185 0.3518
vn 0.6296 -0.6954 0.3463
vn -0.0487 -0.6637 0.7464
vn -0.9871 -0.0000 -0.1601
vn -0.8422 -0.0000 0.5392
vn -0.2030 -0.0000 -0.9792
vn -0.6872 -0.0000 -0.7265
vn 0.8422 -0.0000 -0.5392
vn 0.3418 -0.0000 -0.9398
vn 0.6871 -0.0000 0.7266
vn 0.9871 -0.0000 0.1601
vn -0.3418 -0.0000 0.9398
vn 0.2029 -0.0000 0.9792
vn -0.6296 0.6954 -0.3463
vn 0.0487 0.6637 -0.7464
vn 0.6821 0.7175 -0.1414
vn 0.3413 0.6637 0.6656
vn -0.4401 0.6954 0.5680
vn -0.1804 0.9185 -0.3518
vn -0.3404 0.9376 0.0706
vn 0.2248 0.9302 -0.2902
vn 0.3217 0.9302 0.1769
vn -0.0257 0.9185 0.3945
vn 0.2685 -0.8988 -0.3466
vn -0.2143 -0.8828 -0.4180
vn -0.4080 -0.9091 0.0846
vn 0.3842 -0.8988 0.2113
vn -0.0306 -0.8828 0.4687
vn -0.9331 -0.3033 0.1934
vn -0.8395 0.2865 -0.4618
vn -0.4401 -0.2645 -0.8581
vn 0.0627 0.2644 -0.9624
vn 0.5868 -0.2865 -0.7574
vn 0.9331 0.3033 -0.1934
vn 0.8395 -0.2865 0.4618
vn 0.4401 0.2645 0.8581
vn -0.0627 -0.2644 0.9624
vn -0.5868 0.2865 0.7574
vn 0.0306 0.8828 -0.4687
vn -0.3842 0.8988 -0.2113
vn 0.4080 0.9091 -0.0846
vn 0.2143 0.8828 0.4180
vn -0.2685 0.8988 0.3466
vn -0.5698 -0.6427 0.5122
vn -0.7513 -0.5981 -0.2789
vn -0.7514 -0.5981 -0.2789
vn 0.0744 -0.6757 -0.7334
vn 0.7921 -0.5981 -0.1222
vn 0.7921 -0.5981 -0.1223
vn -0.7921 0.5981 0.1223
vn -0.7920 0.5981 0.1223
vn -0.4552 0.6427 -0.6163
vn 0.5697 0.6426 -0.5123
vn 0.7513 0.5981 0.2790
vn -0.0745 0.6757 0.7334
vn -0.3587 -0.9239 -0.1332
vn -0.2571 -0.9384 0.2311
vn -0.7264 -0.6781 0.1121
vn 0.0322 -0.9476 -0.3178
vn -0.4125 -0.7198 -0.5584
vn 0.5162 -0.7198 -0.4642
vn -0.4679 -0.0000 0.8838
vn -0.9109 -0.0000 0.4127
vn 0.4679 -0.0000 -0.8838
vn 0.8094 -0.0000 0.5872
vn 0.4125 0.7197 0.5584
vn -0.0322 0.9476 0.3178
vn 0.3587 0.9239 0.1331
vn -0.6899 -0.6165 -0.3795
vn 0.7522 -0.6402 -0.1558
vn 0.7523 -0.6402 -0.1558
vn 0.3706 -0.5832 0.7229
vn 0.3707 -0.5832 0.7228
vn -0.4823 -0.6165 0.6223
vn -0.3706 0.5832 -0.7229
vn 0.4823 0.6165 -0.6224
vn 0.6899 0.6165 0.3794
vn -0.0529 0.5831 0.8106
vn -0.0528 0.5832 0.8106
vn -0.7522 0.6402 0.1560
vn -0.7522 0.6402 0.1558
vn 0.0257 -0.9185 -0.3945
vn -0.2249 -0.9302 0.2902
vn 0.3404 -0.9376 -0.0706
vn 0.6296 -0.6955 0.3463
vn -0.9871 -0.0001 -0.1600
vn -0.2029 -0.0000 -0.9792
vn 0.6872 -0.0000 0.7265
vn 0.9871 0.0001 0.1600
vn 0.2030 -0.0000 0.9792
vn -0.6296 0.6955 -0.3463
vn -0.1805 0.9185 -0.3518
vn -0.3405 0.9376 0.0706
vn 0.2249 0.9302 -0.2902
vn -0.0257 0.9185 0.3946
vt 0.104729 0.441404
vt 0.112384 0.445404
vt 0.097073 0.445404
vt 0.104729 0.558596
vt 0.096019 0.554596
vt 0.113438 0.554596
vt 0.061717 0.441404
vt 0.069465 0.445404
vt 0.054461 0.445404
vt 0.061502 0.558596
vt 0.053343 0.554596
vt 0.070367 0.554596
vt 0.020279 0.441404
vt 0.027698 0.445404
vt 0.013144 0.445404
vt 0.020157 0.558596
vt 0.012133 0.554596
vt 0.028583 0.554596
vt 0.189178 0.441404
vt 0.196314 0.445404
vt 0.181759 0.445404
vt 0.189300 0.558596
vt 0.180874 0.554596
vt 0.197325 0.554596
vt 0.147740 0.441404
vt 0.154996 0.445404
vt 0.139992 0.445404
vt 0.147955 0.558596
vt 0.139090 0.554596
vt 0.156114 0.554596
vt 0.229737 0.441404
vt 0.222601 0.445404
vt 0.221590 0.554596
vt 0.793893 0.095492
vt 0.206107 0.095492
vt 0.024472 0.654508
vt 0.500000 1.000000
vt 0.024472 0.654508
vt 0.206107 0.095491
vt 0.115130 0.468975
vt 0.122767 0.472974
vt 0.107493 0.472974
vt 0.115130 0.531025
vt 0.106751 0.527026
vt 0.123510 0.527026
vt 0.067590 0.468975
vt 0.075321 0.472974
vt 0.060432 0.472974
vt 0.067384 0.531025
vt 0.059622 0.527026
vt 0.075918 0.527026
vt 0.022148 0.468975
vt 0.029479 0.472974
vt 0.015140 0.472974
vt 0.022033 0.531025
vt 0.014428 0.527026
vt 0.030070 0.527026
vt 0.208113 0.468975
vt 0.215120 0.472974
vt 0.200781 0.472974
vt 0.208228 0.531025
vt 0.200191 0.527026
vt 0.215833 0.527026
vt 0.162671 0.468975
vt 0.169828 0.472974
vt 0.154939 0.472974
vt 0.162876 0.531025
vt 0.154342 0.527026
vt 0.170638 0.527026
vt 0.252408 0.468975
vt 0.245401 0.472974
vt 0.244688 0.527026
vt 0.975528 0.654508
vt 0.206107 0.095491
vt 0.024472 0.654509
vt 0.500000 1.000000
vt 0.024472 0.654508
vt 0.206107 0.095491
vt 0.500081 0.500199
vt 0.500262 0.500000
vt 0.500081 0.499800
vt 0.519849 0.488463
vt 0.519637 0.488340
vt 0.519587 0.488463
vt 0.492631 0.493237
vt 0.492681 0.493380
vt 0.492419 0.493469
vt 0.499877 0.493237
vt 0.499800 0.493380
vt 0.500000 0.493469
vt 0.492337 0.493237
vt 0.492206 0.493380
vt 0.519587 0.511537
vt 0.519637 0.511660
vt 0.519849 0.511537
vt 0.507581 0.506531
vt 0.507662 0.506763
vt 0.507369 0.506763
vt 0.480151 0.488463
vt 0.480413 0.488463
vt 0.480232 0.488663
vt 0.480151 0.511537
vt 0.480232 0.511337
vt 0.480413 0.511537
vt 0.500000 0.506531
vt 0.500123 0.506763
vt 0.499877 0.506763
vt 0.500212 0.499877
vt 0.500212 0.500123
vt 0.499919 0.500199
vt 0.499788 0.499877
vt 0.492631 0.481456
vt 0.492337 0.481533
vt 0.519587 0.493237
vt 0.519637 0.493380
vt 0.519930 0.488663
vt 0.519768 0.511337
vt 0.519930 0.511337
vt 0.499788 0.500123
vt 0.475677 0.499877
vt 0.475677 0.500123
vt 0.492206 0.481456
vt 0.492631 0.518544
vt 0.492337 0.518467
vt 0.492206 0.518544
vt 0.475546 0.500199
vt 0.492681 0.493380
vt 0.499800 0.506620
vt 0.488663 0.493380
vt 0.500199 0.506620
vt 0.511337 0.493380
vt 0.511537 0.493469
vt 0.507319 0.506620
vt 0.507794 0.506620
vt 0.519849 0.493469
vt 0.488663 0.506620
vt 0.488463 0.506531
vt 0.480363 0.506620
vt 0.480151 0.506531
vt 0.511337 0.506620
vt 0.500199 0.493380
vt 0.524323 0.499877
vt 0.507794 0.481456
vt 0.524454 0.499800
vt 0.480413 0.506763
vt 0.480070 0.511337
vt 0.480070 0.488663
vt 0.524323 0.500123
vt 0.507794 0.518544
vt 0.507662 0.518467
vt 0.507369 0.481456
vt 0.499919 0.499800
vt 0.499738 0.500000
vt 0.507369 0.518544
vt 0.519768 0.488663
vt 0.488463 0.493469
vt 0.481456 0.506620
vt 0.481456 0.493380
vt 0.518544 0.493380
vt 0.511537 0.506531
vt 0.518544 0.506620
vt 0.507662 0.481533
vt 0.500059 0.500154
vt 0.500191 0.500000
vt 0.500059 0.499846
vt 0.514436 0.491085
vt 0.514281 0.490990
vt 0.514245 0.491085
vt 0.494640 0.494590
vt 0.494677 0.494704
vt 0.494486 0.494775
vt 0.499905 0.494590
vt 0.499846 0.494704
vt 0.500000 0.494775
vt 0.494427 0.494590
vt 0.494332 0.494704
vt 0.514245 0.508915
vt 0.514281 0.509010
vt 0.514436 0.508915
vt 0.505514 0.505225
vt 0.505573 0.505410
vt 0.505359 0.505410
vt 0.485564 0.491085
vt 0.485755 0.491085
vt 0.485623 0.491239
vt 0.485564 0.508915
vt 0.485623 0.508761
vt 0.485755 0.508915
vt 0.500000 0.505225
vt 0.500095 0.505410
vt 0.499905 0.505410
vt 0.500154 0.499905
vt 0.500154 0.500095
vt 0.499941 0.500154
vt 0.499846 0.499905
vt 0.494640 0.485671
vt 0.494427 0.485730
vt 0.514245 0.494590
vt 0.514281 0.494704
vt 0.514495 0.491239
vt 0.514377 0.508761
vt 0.514495 0.508761
vt 0.499846 0.500095
vt 0.482311 0.499905
vt 0.482311 0.500095
vt 0.494332 0.485671
vt 0.494640 0.514329
vt 0.494427 0.514270
vt 0.494332 0.514329
vt 0.482215 0.500154
vt 0.499846 0.505296
vt 0.491239 0.494704
vt 0.500154 0.505296
vt 0.508761 0.494704
vt 0.508915 0.494775
vt 0.505323 0.505296
vt 0.505668 0.505296
vt 0.514436 0.494775
vt 0.491239 0.505296
vt 0.491085 0.505225
vt 0.485719 0.505296
vt 0.485564 0.505225
vt 0.508761 0.505296
vt 0.500154 0.494704
vt 0.517689 0.499905
vt 0.505668 0.485671
vt 0.517785 0.499846
vt 0.485755 0.505410
vt 0.485505 0.491239
vt 0.517689 0.500095
vt 0.505668 0.514329
vt 0.505573 0.514270
vt 0.505359 0.485671
vt 0.499941 0.499846
vt 0.499809 0.500000
vt 0.505359 0.514329
vt 0.514377 0.491239
vt 0.491085 0.494775
vt 0.485671 0.505296
vt 0.485671 0.494704
vt 0.514329 0.494704
vt 0.508915 0.505225
vt 0.514329 0.505296
vt 0.505573 0.485730
vt 0.229615 0.558596
vt 0.975528 0.654508
vt 0.793893 0.095491
vt 0.975528 0.654509
vt 0.252293 0.531025
vt 0.793893 0.095491
vt 0.500123 0.493237
vt 0.480363 0.488340
vt 0.480363 0.511660
vt 0.475546 0.499800
vt 0.524454 0.500199
vt 0.500095 0.494590
vt 0.485719 0.490990
vt 0.485719 0.509010
vt 0.485505 0.508761
vt 0.482215 0.499846
vt 0.517785 0.500154
s 0
usemtl wood
f 1/1/1 2/2/1 3/3/1
f 4/4/2 5/5/2 6/6/2
f 7/7/3 8/8/3 9/9/3
f 10/10/4 11/11/4 12/12/4
f 13/13/5 14/14/5 15/15/5
f 16/16/6 17/17/6 18/18/6
f 19/19/7 20/20/7 21/21/7
f 22/22/8 23/23/8 24/24/8
f 25/25/9 26/26/9 27/27/9
f 28/28/10 29/29/10 30/30/10
f 3/3/11 7/7/11 1/1/11
f 5/5/12 10/10/12 12/12/12
f 6/6/13 3/3/13 2/2/13
f 11/11/14 8/8/14 12/12/14
f 14/14/15 7/7/15 9/9/15
f 18/18/16 10/10/16 16/16/16
f 15/15/17 18/18/17 17/17/17
f 20/20/18 13/31/18 15/32/18
f 17/33/19 22/22/19 24/24/19
f 21/21/20 24/24/20 23/23/20
f 26/26/21 19/19/21 21/21/21
f 30/30/22 22/22/22 28/28/22
f 27/27/23 30/30/23 29/29/23
f 2/2/24 25/25/24 27/27/24
f 29/29/25 4/4/25 6/6/25
f 3/3/27 12/12/27 8/8/27
f 29/29/28 2/2/28 27/27/28
f 11/11/30 14/14/30 9/9/30
f 17/33/31 20/20/31 15/32/31
f 23/23/32 26/26/32 21/21/32
f 31/40/33 32/41/33 33/42/33
f 34/43/34 35/44/34 36/45/34
f 37/46/35 38/47/35 39/48/35
f 40/49/36 41/50/36 42/51/36
f 43/52/37 44/53/37 45/54/37
f 46/55/38 47/56/38 48/57/38
f 49/58/39 50/59/39 51/60/39
f 52/61/40 53/62/40 54/63/40
f 55/64/41 56/65/41 57/66/41
f 58/67/42 59/68/42 60/69/42
f 38/47/43 31/40/43 33/42/43
f 35/44/44 40/49/44 42/51/44
f 36/45/45 33/42/45 32/41/45
f 39/48/46 42/51/46 41/50/46
f 44/53/47 37/46/47 39/48/47
f 41/50/48 46/55/48 48/57/48
f 45/54/49 48/57/49 47/56/49
f 50/59/50 43/70/50 45/71/50
f 47/72/51 52/61/51 54/63/51
f 51/60/52 54/63/52 53/62/52
f 56/65/53 49/58/53 51/60/53
f 60/69/54 52/61/54 58/67/54
f 57/66/55 60/69/55 59/68/55
f 32/41/56 55/64/56 57/66/56
f 36/45/57 58/67/57 34/43/57
f 35/44/59 38/47/59 33/42/59
f 59/68/60 32/41/60 57/66/60
f 39/48/62 48/57/62 44/53/62
f 45/71/63 54/63/63 50/59/63
f 53/62/64 56/65/64 51/60/64
f 3/3/11 8/8/11 7/7/11
f 5/5/12 4/4/12 10/10/12
f 6/6/13 5/5/13 3/3/13
f 11/11/14 9/9/14 8/8/14
f 14/14/15 13/13/15 7/7/15
f 18/18/16 11/11/16 10/10/16
f 15/15/17 14/14/17 18/18/17
f 20/20/18 19/19/18 13/31/18
f 17/33/19 16/245/19 22/22/19
f 21/21/20 20/20/20 24/24/20
f 26/26/21 25/25/21 19/19/21
f 30/30/22 23/23/22 22/22/22
f 27/27/23 26/26/23 30/30/23
f 2/2/24 1/1/24 25/25/24
f 29/29/25 28/28/25 4/4/25
f 3/3/27 5/5/27 12/12/27
f 29/29/28 6/6/28 2/2/28
f 11/11/30 18/18/30 14/14/30
f 17/33/31 24/24/31 20/20/31
f 23/23/32 30/30/32 26/26/32
f 38/47/43 37/46/43 31/40/43
f 35/44/44 34/43/44 40/49/44
f 36/45/45 35/44/45 33/42/45
f 39/48/46 38/47/46 42/51/46
f 44/53/47 43/52/47 37/46/47
f 41/50/48 40/49/48 46/55/48
f 45/54/49 44/53/49 48/57/49
f 50/59/50 49/58/50 43/70/50
f 47/72/51 46/249/51 52/61/51
f 51/60/52 50/59/52 54/63/52
f 56/65/53 55/64/53 49/58/53
f 60/69/54 53/62/54 52/61/54
f 57/66/55 56/65/55 60/69/55
f 32/41/56 31/40/56 55/64/56
f 36/45/57 59/68/57 58/67/57
f 35/44/59 42/51/59 38/47/59
f 59/68/60 36/45/60 32/41/60
f 39/48/62 41/50/62 48/57/62
f 45/71/63 47/72/63 54/63/63
f 53/62/64 60/69/64 56/65/64
usemtl wood_end
f 13/34/26 19/35/26 25/36/26
f 4/37/29 28/38/29 22/39/29
f 37/73/58 49/74/58 55/75/58
f 34/76/61 58/77/61 52/78/61
f 25/36/26 1/76/26 7/246/26
f 7/246/26 13/34/26 25/36/26
f 16/247/29 10/248/29 22/39/29
f 10/248/29 4/37/29 22/39/29
f 55/75/58 31/76/58 37/73/58
f 37/73/58 43/250/58 49/74/58
f 46/247/61 40/248/61 52/78/61
f 40/248/61 34/76/61 52/78/61
usemtl resin
f 63/79/65 64/80/65 65/81/65
f 68/82/66 69/83/66 70/84/66
f 72/85/67 73/86/67 74/87/67
f 77/88/68 78/89/68 79/90/68
f 82/91/69 83/92/69 84/87/69
f 88/93/70 89/94/70 90/95/70
f 92/96/71 94/97/71 95/98/71
f 97/99/72 99/100/72 100/101/72
f 102/102/73 104/103/73 105/104/73
f 107/96/74 109/98/74 110/97/74
f 112/105/75 114/106/75 115/107/75
f 117/108/76 118/109/76 119/110/76
f 61/111/77 72/112/77 71/113/77
f 64/80/78 70/84/78 65/81/78
f 73/86/79 70/114/79 69/115/79
f 67/116/80 87/117/80 86/118/80
f 88/93/81 64/80/81 63/79/81
f 62/119/82 77/120/82 76/121/82
f 75/122/83 77/120/83 71/113/83
f 81/123/84 62/119/84 82/124/84
f 83/125/85 76/121/85 80/126/85
f 85/127/86 88/114/86 81/85/86
f 111/128/87 67/129/87 112/105/87
f 113/130/88 86/131/88 90/132/88
f 91/133/89 73/86/89 92/96/89
f 93/134/90 69/115/90 68/135/90
f 96/136/91 78/89/91 97/137/91
f 98/138/92 75/92/92 74/87/92
f 101/138/93 83/92/93 102/139/93
f 103/140/94 80/141/94 79/90/94
f 106/134/95 89/115/95 107/96/95
f 108/133/96 85/127/96 84/87/96
f 115/142/97 93/143/97 111/144/97
f 99/145/98 91/133/98 95/98/98
f 100/101/99 103/146/99 96/147/99
f 105/145/100 108/133/100 101/138/100
f 114/148/101 106/149/101 110/150/101
f 95/151/102 117/108/102 116/152/102
f 118/109/103 115/142/103 114/148/103
f 120/153/104 99/100/104 116/152/104
f 105/104/105 120/153/105 119/110/105
f 118/109/106 109/154/106 119/110/106
f 61/111/107 71/113/107 77/120/107
f 65/81/108 70/84/108 72/112/108
f 66/155/109 64/80/109 87/117/109
f 62/119/110 76/121/110 82/124/110
f 63/79/111 81/123/111 88/93/111
f 67/129/112 86/131/112 112/105/112
f 68/156/113 111/128/113 93/157/113
f 73/86/114 69/115/114 92/96/114
f 74/87/115 91/133/115 98/138/115
f 78/89/116 75/158/116 97/137/116
f 79/90/117 96/136/117 103/140/117
f 83/159/118 80/141/118 102/160/118
f 84/87/119 101/138/119 108/133/119
f 89/115/120 85/127/120 107/96/120
f 90/132/121 106/161/121 113/130/121
f 99/100/122 95/151/122 116/152/122
f 94/162/123 115/142/123 117/108/123
f 104/103/124 100/101/124 120/153/124
f 109/154/125 105/104/125 119/110/125
f 114/148/126 110/150/126 118/109/126
f 123/163/65 124/164/65 125/165/65
f 128/166/127 129/167/127 130/168/127
f 132/169/128 133/170/128 134/171/128
f 137/172/129 138/173/129 139/174/129
f 142/175/130 143/176/130 144/171/130
f 148/177/131 149/178/131 150/179/131
f 152/180/132 154/181/132 155/182/132
f 157/183/133 159/184/133 160/185/133
f 162/186/134 164/187/134 165/188/134
f 167/180/135 169/182/135 170/181/135
f 172/189/136 174/190/136 175/191/136
f 177/192/137 178/193/137 179/194/137
f 121/195/138 132/196/138 131/197/138
f 124/164/139 130/168/139 125/165/139
f 133/170/140 130/198/140 129/199/140
f 127/200/141 147/201/141 146/202/141
f 148/177/142 124/164/142 123/163/142
f 122/203/143 137/204/143 136/205/143
f 135/206/144 137/204/144 131/197/144
f 141/207/145 122/203/145 142/208/145
f 143/209/146 136/205/146 140/210/146
f 145/170/147 148/198/147 141/169/147
f 171/211/148 127/212/148 172/189/148
f 173/213/149 146/214/149 150/215/149
f 151/216/150 133/170/150 152/180/150
f 153/217/151 129/199/151 128/218/151
f 156/219/152 138/173/152 157/220/152
f 158/221/153 135/176/153 134/171/153
f 161/221/154 143/176/154 162/222/154
f 163/223/155 140/224/155 139/174/155
f 166/217/156 149/199/156 167/180/156
f 168/216/157 145/170/157 144/171/157
f 175/225/158 153/226/158 171/227/158
f 159/228/159 151/216/159 155/182/159
f 164/187/160 156/229/160 160/185/160
f 165/228/161 168/216/161 161/221/161
f 174/230/162 166/231/162 170/232/162
f 155/233/163 177/192/163 176/234/163
f 178/193/164 175/225/164 174/230/164
f 180/235/165 159/184/165 176/234/165
f 165/188/166 180/235/166 179/194/166
f 178/193/167 169/236/167 179/194/167
f 121/195/168 131/197/168 137/204/168
f 125/165/169 130/168/169 132/196/169
f 126/237/170 124/164/170 147/201/170
f 122/203/171 136/205/171 142/208/171
f 123/163/172 141/207/172 148/177/172
f 127/212/173 146/214/173 172/189/173
f 128/238/174 171/211/174 153/239/174
f 133/170/175 129/199/175 152/180/175
f 134/171/176 151/216/176 158/221/176
f 138/173/177 135/240/177 157/220/177
f 139/174/178 156/219/178 163/223/178
f 143/241/179 140/224/179 162/242/179
f 144/171/180 161/221/180 168/216/180
f 149/199/181 145/170/181 167/180/181
f 150/215/182 166/243/182 173/213/182
f 159/184/183 155/233/183 176/234/183
f 154/244/184 175/225/184 177/192/184
f 164/187/185 160/185/185 180/235/185
f 169/236/186 165/188/186 179/194/186
f 174/230/187 170/232/187 178/193/187
f 65/81/65 61/111/65 62/119/65
f 62/119/65 63/79/65 65/81/65
f 70/84/188 66/155/188 68/82/188
f 66/155/66 67/116/66 68/82/66
f 75/92/189 71/91/189 74/87/189
f 71/91/190 72/85/190 74/87/190
f 80/141/191 76/251/191 79/90/191
f 76/251/191 77/88/191 79/90/191
f 85/127/192 81/85/192 84/87/192
f 81/85/193 82/91/193 84/87/193
f 90/95/70 86/118/70 87/117/70
f 87/117/70 88/93/70 90/95/70
f 95/98/194 91/133/194 92/96/194
f 92/96/195 93/134/195 94/97/195
f 100/101/72 96/147/72 97/99/72
f 97/99/196 98/252/196 99/100/196
f 105/104/197 101/253/197 102/102/197
f 102/102/197 103/146/197 104/103/197
f 110/97/74 106/134/74 107/96/74
f 107/96/198 108/133/198 109/98/198
f 115/107/75 111/128/75 112/105/75
f 112/105/199 113/130/199 114/106/199
f 120/153/137 116/152/137 119/110/137
f 116/152/137 117/108/137 119/110/137
f 61/111/200 65/81/200 72/112/200
f 64/80/201 66/155/201 70/84/201
f 73/86/202 72/85/202 70/114/202
f 67/116/80 66/155/80 87/117/80
f 88/93/81 87/117/81 64/80/81
f 62/119/203 61/111/203 77/120/203
f 75/122/204 78/254/204 77/120/204
f 81/123/84 63/79/84 62/119/84
f 83/125/205 82/124/205 76/121/205
f 85/127/86 89/115/86 88/114/86
f 111/128/206 68/156/206 67/129/206
f 113/130/88 112/105/88 86/131/88
f 91/133/89 74/87/89 73/86/89
f 93/134/207 92/96/207 69/115/207
f 96/136/91 79/90/91 78/89/91
f 98/138/92 97/139/92 75/92/92
f 101/138/93 84/87/93 83/92/93
f 103/140/208 102/160/208 80/141/208
f 106/134/209 90/135/209 89/115/209
f 108/133/96 107/96/96 85/127/96
f 115/142/97 94/162/97 93/143/97
f 99/145/98 98/138/98 91/133/98
f 100/101/99 104/103/99 103/146/99
f 105/145/100 109/98/100 108/133/100
f 114/148/210 113/255/210 106/149/210
f 95/151/102 94/162/102 117/108/102
f 118/109/211 117/108/211 115/142/211
f 120/153/104 100/101/104 99/100/104
f 105/104/105 104/103/105 120/153/105
f 118/109/212 110/150/212 109/154/212
f 125/165/65 121/195/65 122/203/65
f 122/203/65 123/163/65 125/165/65
f 130/168/213 126/237/213 128/166/213
f 126/237/213 127/200/213 128/166/213
f 135/176/128 131/175/128 134/171/128
f 131/175/128 132/169/128 134/171/128
f 140/224/214 136/256/214 139/174/214
f 136/256/215 137/172/215 139/174/215
f 145/170/216 141/169/216 144/171/216
f 141/169/217 142/175/217 144/171/217
f 150/179/218 146/202/218 147/201/218
f 147/201/131 148/177/131 150/179/131
f 155/182/132 151/216/132 152/180/132
f 152/180/219 153/217/219 154/181/219
f 160/185/220 156/229/220 157/183/220
f 157/183/133 158/257/133 159/184/133
f 165/188/134 161/258/134 162/186/134
f 162/186/221 163/259/221 164/187/221
f 170/181/222 166/217/222 167/180/222
f 167/180/223 168/216/223 169/182/223
f 175/191/224 171/211/224 172/189/224
f 172/189/225 173/213/225 174/190/225
f 180/235/137 176/234/137 179/194/137
f 176/234/137 177/192/137 179/194/137
f 121/195/226 125/165/226 132/196/226
f 124/164/139 126/237/139 130/168/139
f 133/170/140 132/169/140 130/198/140
f 127/200/141 126/237/141 147/201/141
f 148/177/227 147/201/227 124/164/227
f 122/203/228 121/195/228 137/204/228
f 135/206/144 138/260/144 137/204/144
f 141/207/145 123/163/145 122/203/145
f 143/209/229 142/208/229 136/205/229
f 145/170/147 149/199/147 148/198/147
f 171/211/230 128/238/230 127/212/230
f 173/213/149 172/189/149 146/214/149
f 151/216/231 134/171/231 133/170/231
f 153/217/151 152/180/151 129/199/151
f 156/219/152 139/174/152 138/173/152
f 158/221/153 157/222/153 135/176/153
f 161/221/232 144/171/232 143/176/232
f 163/223/233 162/242/233 140/224/233
f 166/217/156 150/218/156 149/199/156
f 168/216/234 167/180/234 145/170/234
f 175/225/235 154/244/235 153/226/235
f 159/228/159 158/221/159 151/216/159
f 164/187/160 163/259/160 156/229/160
f 165/228/161 169/182/161 168/216/161
f 174/230/162 173/261/162 166/231/162
f 155/233/236 154/244/236 177/192/236
f 178/193/237 177/192/237 175/225/237
f 180/235/238 160/185/238 159/184/238
f 165/188/166 164/187/166 180/235/166
f 178/193/239 170/232/239 169/236/239
