# Blender 4.5.10 LTS
# www.blender.org
mtllib stoker_tun_camp.mtl
o stoker_tun_camp
v 0.330062 1.186264 0.154606
v 0.108770 0.673122 0.142750
v 0.330044 0.673122 0.083514
v 0.138941 1.107750 0.194951
v 0.521083 1.107750 0.194884
v 0.329969 1.107750 0.143667
v -0.001049 1.107750 0.334828
v 0.661039 1.107750 0.334842
v 0.712164 1.107750 0.525935
v -0.052209 1.107750 0.525965
v 0.661026 1.107750 0.717016
v -0.000948 1.107750 0.717049
v 0.521149 1.107750 0.856939
v 0.138894 1.107750 0.856959
v 0.330032 1.107750 0.908120
v 0.701351 1.186264 0.525882
v 0.651655 1.186264 0.340270
v 0.713161 0.673122 0.304703
v 0.772420 0.673122 0.525921
v 0.651639 1.186264 0.711608
v 0.713162 0.673122 0.747134
v 0.515664 1.186264 0.847532
v 0.551208 0.673122 0.909094
v 0.651655 1.186264 0.340270
v 0.551257 0.673122 0.142772
v 0.713161 0.673122 0.304703
v 0.515709 1.186264 0.204352
v 0.330044 0.673122 0.083514
v 0.330062 1.186264 0.154606
v 0.330029 1.186264 0.897284
v 0.515664 1.186264 0.847532
v 0.551208 0.673122 0.909094
v 0.330046 0.673122 0.968376
v 0.330062 1.186264 0.154606
v 0.144313 1.186264 0.204311
v 0.108770 0.673122 0.142750
v -0.053184 0.673122 0.304710
v 0.008451 1.186264 0.340282
v -0.112442 0.673122 0.525923
v -0.041350 1.186264 0.525906
v -0.053184 0.673122 0.747141
v 0.008435 1.186264 0.711621
v 0.008435 1.186264 0.711621
v 0.108857 0.673122 0.909061
v -0.053184 0.673122 0.747141
v 0.144382 1.186264 0.847539
v 0.330046 0.673122 0.968376
v 0.330029 1.186264 0.897284
v 0.771490 1.220058 0.525932
v 0.785555 0.610031 0.262944
v 0.712293 1.220058 0.305202
v 0.855934 0.610031 0.525896
v 0.712306 1.220058 0.746647
v 0.785444 0.610031 0.788900
v 0.550765 1.220058 0.908250
v 0.771490 0.000000 0.525932
v 0.712306 0.000000 0.746647
v 0.712293 -0.000000 0.305202
v 0.550770 -0.000000 0.143628
v 0.592990 0.610031 0.070410
v 0.712293 1.220058 0.305202
v 0.785555 0.610031 0.262944
v 0.592990 0.610031 0.070410
v 0.550770 1.220058 0.143628
v 0.330020 0.610031 0.000000
v 0.330056 1.220058 0.084444
v 0.330056 -0.000000 0.084444
v 0.550770 -0.000000 0.143628
v 0.329958 0.610031 1.051844
v 0.330058 0.000000 0.967390
v 0.550765 0.000000 0.908250
v 0.592990 0.610031 0.981432
v 0.330058 1.220058 0.967390
v 0.712306 0.000000 0.746647
v 0.550765 1.220058 0.908250
v 0.785444 0.610031 0.788900
v 0.109326 1.220058 0.143641
v -0.125467 0.610031 0.262944
v -0.052329 1.220058 0.305197
v 0.066988 0.610031 0.070412
v 0.330056 1.220058 0.084444
v -0.052329 -0.000000 0.305197
v 0.330020 0.610031 0.000000
v 0.109326 -0.000000 0.143641
v 0.330056 -0.000000 0.084444
v -0.052316 1.220058 0.746642
v 0.067011 0.610031 0.981377
v 0.109320 1.220058 0.908262
v -0.125442 0.610031 0.788890
v 0.109320 0.000000 0.908262
v -0.111400 1.220058 0.525958
v -0.052316 0.000000 0.746642
v -0.195934 0.610031 0.525890
v -0.052329 1.220058 0.305197
v -0.111400 0.000000 0.525958
v -0.125467 0.610031 0.262944
v -0.052329 -0.000000 0.305197
v 0.109320 1.220058 0.908262
v 0.329958 0.610031 1.051844
v 0.330058 1.220058 0.967390
v 0.067011 0.610031 0.981377
v 0.330058 0.000000 0.967390
v 0.109320 0.000000 0.908262
v -0.041350 1.186264 0.525906
v -0.111400 1.220058 0.525958
v -0.052316 1.220058 0.746642
v 0.008435 1.186264 0.711621
v 0.008435 1.186264 0.711621
v 0.109320 1.220058 0.908262
v 0.144382 1.186264 0.847539
v 0.144382 1.186264 0.847539
v 0.330058 1.220058 0.967390
v 0.330029 1.186264 0.897284
v 0.330029 1.186264 0.897284
v 0.550765 1.220058 0.908250
v 0.515664 1.186264 0.847532
v 0.515664 1.186264 0.847532
v 0.712306 1.220058 0.746647
v 0.651639 1.186264 0.711608
v 0.651639 1.186264 0.711608
v 0.771490 1.220058 0.525932
v 0.701351 1.186264 0.525882
v 0.008339 0.033798 0.340235
v 0.008435 0.033798 0.711621
v -0.041350 0.033798 0.525906
v 0.144313 0.033798 0.204311
v 0.144382 0.033798 0.847539
v 0.330029 0.033798 0.897284
v 0.329949 0.033798 0.154560
v 0.515664 0.033798 0.847532
v 0.515709 0.033798 0.204352
v 0.651639 0.033798 0.711608
v 0.651543 0.033798 0.340223
v 0.701351 0.033798 0.525882
v 0.701351 0.033798 0.525882
v 0.771490 0.000000 0.525932
v 0.712306 0.000000 0.746647
v 0.651639 0.033798 0.711608
v 0.651639 0.033798 0.711608
v 0.550765 0.000000 0.908250
v 0.515664 0.033798 0.847532
v 0.515664 0.033798 0.847532
v 0.330058 0.000000 0.967390
v 0.330029 0.033798 0.897284
v 0.330029 0.033798 0.897284
v 0.109320 0.000000 0.908262
v 0.144382 0.033798 0.847539
v 0.144382 0.033798 0.847539
v -0.052316 0.000000 0.746642
v 0.008435 0.033798 0.711621
v 0.008435 0.033798 0.711621
v -0.111400 0.000000 0.525958
v -0.041350 0.033798 0.525906
v -0.041350 0.033798 0.525906
v -0.111400 0.000000 0.525958
v -0.052329 -0.000000 0.305197
v 0.008339 0.033798 0.340235
v 0.008339 0.033798 0.340235
v 0.109326 -0.000000 0.143641
v 0.144313 0.033798 0.204311
v 0.144313 0.033798 0.204311
v 0.330056 -0.000000 0.084444
v 0.329949 0.033798 0.154560
v 0.329949 0.033798 0.154560
v 0.550770 -0.000000 0.143628
v 0.515709 0.033798 0.204352
v 0.515709 0.033798 0.204352
v 0.712293 -0.000000 0.305202
v 0.651543 0.033798 0.340223
v 0.651543 0.033798 0.340223
v 0.771490 0.000000 0.525932
v 0.701351 0.033798 0.525882
v 0.701351 1.186264 0.525882
v 0.771490 1.220058 0.525932
v 0.712293 1.220058 0.305202
v 0.651655 1.186264 0.340270
v 0.651655 1.186264 0.340270
v 0.550770 1.220058 0.143628
v 0.515709 1.186264 0.204352
v 0.515709 1.186264 0.204352
v 0.330056 1.220058 0.084444
v 0.330062 1.186264 0.154606
v 0.330062 1.186264 0.154606
v 0.109326 1.220058 0.143641
v 0.144313 1.186264 0.204311
v 0.144313 1.186264 0.204311
v -0.052329 1.220058 0.305197
v 0.008451 1.186264 0.340282
v 0.008451 1.186264 0.340282
v -0.111400 1.220058 0.525958
v -0.041350 1.186264 0.525906
v -0.636826 0.679710 0.118145
v -0.403103 0.679710 0.118173
v -0.520001 0.679710 0.086829
v -0.722336 0.679710 0.203690
v -0.317627 0.679710 0.203688
v -0.286339 0.679710 0.320500
v -0.753673 0.679710 0.320492
v -0.317676 0.679710 0.437303
v -0.722261 0.679710 0.437323
v -0.403175 0.679710 0.522819
v -0.636785 0.679710 0.522838
v -0.519998 0.679710 0.554134
v -0.520011 0.722843 0.094192
v -0.654729 0.410160 0.087046
v -0.519915 0.410160 0.050894
v -0.633129 0.722843 0.124533
v -0.753458 0.410160 0.185679
v -0.715931 0.722843 0.207366
v -0.789604 0.410160 0.320473
v -0.746271 0.722843 0.320486
v -0.746271 0.722843 0.320486
v -0.753480 0.410160 0.455277
v -0.789604 0.410160 0.320473
v -0.715970 0.722843 0.433619
v -0.654824 0.410160 0.553947
v -0.633091 0.722843 0.516473
v -0.633091 0.722843 0.516473
v -0.519988 0.722843 0.546773
v -0.519961 0.410160 0.590089
v -0.654824 0.410160 0.553947
v -0.293730 0.722843 0.320479
v -0.324031 0.722843 0.207345
v -0.286521 0.410160 0.185688
v -0.250397 0.410160 0.320491
v -0.323957 0.722843 0.433644
v -0.286543 0.410160 0.455286
v -0.324031 0.722843 0.207345
v -0.385176 0.410160 0.087017
v -0.286521 0.410160 0.185688
v -0.406797 0.722843 0.124538
v -0.519915 0.410160 0.050894
v -0.520011 0.722843 0.094192
v -0.519988 0.722843 0.546773
v -0.385158 0.410160 0.553965
v -0.519961 0.410160 0.590089
v -0.406871 0.722843 0.516432
v -0.286543 0.410160 0.455286
v -0.323957 0.722843 0.433644
v -0.752928 0.743435 0.185997
v -0.840475 0.371719 0.320476
v -0.788958 0.743435 0.320510
v -0.797500 0.371719 0.160267
v -0.654519 0.743435 0.087496
v -0.788958 0.000000 0.320510
v -0.752955 0.000000 0.454965
v -0.752928 -0.000000 0.185997
v -0.680194 0.371719 0.042938
v -0.520012 0.743435 0.051448
v -0.654519 -0.000000 0.087496
v -0.519974 0.371719 0.000000
v -0.520012 -0.000000 0.051448
v -0.654489 0.743435 0.553458
v -0.520026 0.371719 0.640964
v -0.519976 0.743435 0.589488
v -0.680230 0.371719 0.598058
v -0.519976 0.000000 0.589488
v -0.752955 0.743435 0.454965
v -0.654489 0.000000 0.553458
v -0.797576 0.371719 0.480713
v -0.788958 0.743435 0.320510
v -0.752955 0.000000 0.454965
v -0.840475 0.371719 0.320476
v -0.385522 0.743435 0.087534
v -0.519974 0.371719 0.000000
v -0.520012 0.743435 0.051448
v -0.359770 0.371719 0.042906
v -0.520012 -0.000000 0.051448
v -0.287034 0.743435 0.185970
v -0.385522 -0.000000 0.087534
v -0.242413 0.371719 0.160224
v -0.250930 0.743435 0.320501
v -0.287034 -0.000000 0.185970
v -0.199526 0.371719 0.320488
v -0.287073 0.743435 0.454967
v -0.250930 0.000000 0.320501
v -0.242388 0.371719 0.480744
v -0.287073 0.000000 0.454967
v -0.287073 0.743435 0.454967
v -0.242388 0.371719 0.480744
v -0.199526 0.371719 0.320488
v -0.385469 0.743435 0.553440
v -0.359694 0.371719 0.598073
v -0.519976 0.743435 0.589488
v -0.287073 0.000000 0.454967
v -0.520026 0.371719 0.640964
v -0.385469 0.000000 0.553440
v -0.519976 0.000000 0.589488
v -0.746271 0.722843 0.320486
v -0.788958 0.743435 0.320510
v -0.752955 0.743435 0.454965
v -0.715970 0.722843 0.433619
v -0.715970 0.722843 0.433619
v -0.654489 0.743435 0.553458
v -0.633091 0.722843 0.516473
v -0.633091 0.722843 0.516473
v -0.519976 0.743435 0.589488
v -0.519988 0.722843 0.546773
v -0.519988 0.722843 0.546773
v -0.385469 0.743435 0.553440
v -0.406871 0.722843 0.516432
v -0.406871 0.722843 0.516432
v -0.287073 0.743435 0.454967
v -0.323957 0.722843 0.433644
v -0.323957 0.722843 0.433644
v -0.250930 0.743435 0.320501
v -0.293730 0.722843 0.320479
v -0.293730 0.722843 0.320479
v -0.250930 0.743435 0.320501
v -0.287034 0.743435 0.185970
v -0.324031 0.722843 0.207345
v -0.324031 0.722843 0.207345
v -0.385522 0.743435 0.087534
v -0.406797 0.722843 0.124538
v -0.406797 0.722843 0.124538
v -0.520012 0.743435 0.051448
v -0.520011 0.722843 0.094192
v -0.520011 0.722843 0.094192
v -0.654519 0.743435 0.087496
v -0.633129 0.722843 0.124533
v -0.633129 0.722843 0.124533
v -0.752928 0.743435 0.185997
v -0.715931 0.722843 0.207366
v -0.715931 0.722843 0.207366
v -0.788958 0.743435 0.320510
v -0.746271 0.722843 0.320486
v -0.293730 0.020596 0.320479
v -0.250930 0.000000 0.320501
v -0.287073 0.000000 0.454967
v -0.324069 0.020596 0.433598
v -0.324069 0.020596 0.433598
v -0.385469 0.000000 0.553440
v -0.406871 0.020596 0.516432
v -0.406871 0.020596 0.516432
v -0.519976 0.000000 0.589488
v -0.519988 0.020596 0.546773
v -0.519988 0.020596 0.546773
v -0.654489 0.000000 0.553458
v -0.633080 0.020596 0.516445
v -0.633080 0.020596 0.516445
v -0.752955 0.000000 0.454965
v -0.715970 0.020596 0.433619
v -0.715970 0.020596 0.433619
v -0.788958 0.000000 0.320510
v -0.746271 0.020596 0.320486
v -0.746271 0.020596 0.320486
v -0.788958 0.000000 0.320510
v -0.752928 -0.000000 0.185997
v -0.715931 0.020596 0.207366
v -0.715931 0.020596 0.207366
v -0.654519 -0.000000 0.087496
v -0.633117 0.020596 0.124505
v -0.633117 0.020596 0.124505
v -0.520012 -0.000000 0.051448
v -0.520011 0.020596 0.094192
v -0.520011 0.020596 0.094192
v -0.385522 -0.000000 0.087534
v -0.406797 0.020596 0.124538
v -0.406797 0.020596 0.124538
v -0.287034 -0.000000 0.185970
v -0.324031 0.020596 0.207345
v -0.324031 0.020596 0.207345
v -0.250930 0.000000 0.320501
v -0.293730 0.020596 0.320479
v -0.715931 0.020596 0.207366
v -0.715970 0.020596 0.433619
v -0.746271 0.020596 0.320486
v -0.633117 0.020596 0.124505
v -0.633080 0.020596 0.516445
v -0.519988 0.020596 0.546773
v -0.520011 0.020596 0.094192
v -0.406871 0.020596 0.516432
v -0.406797 0.020596 0.124538
v -0.324069 0.020596 0.433598
v -0.324031 0.020596 0.207345
v -0.293730 0.020596 0.320479
vn 0.2563 -0.1327 0.9574
vn 0.5000 -0.0000 0.8660
vn 0.2407 -0.0075 0.9706
vn -0.0000 1.0000 -0.0000
vn -0.9905 -0.1372 0.0001
vn -0.8658 -0.1456 0.4788
vn -0.8660 -0.0000 0.5000
vn -1.0000 -0.0039 -0.0092
vn -0.8475 -0.1456 -0.5104
vn -0.8660 -0.0000 -0.5000
vn -0.4953 -0.1372 -0.8578
vn -0.4920 -0.0039 -0.8706
vn -0.8657 -0.1456 0.4788
vn -0.5079 -0.0039 0.8614
vn -0.8660 -0.0000 0.5001
vn -0.4952 -0.1372 0.8579
vn -0.2588 -0.0000 0.9659
vn -0.2916 -0.1474 0.9451
vn -0.2566 -0.1326 -0.9574
vn -0.4952 -0.1372 -0.8579
vn -0.2588 -0.0001 -0.9659
vn 0.2562 -0.1326 0.9575
vn 0.4788 -0.1456 0.8658
vn 0.8614 -0.0039 0.5079
vn 0.8579 -0.1373 0.4952
vn 1.0000 -0.0000 -0.0000
vn 0.9892 -0.1456 0.0183
vn 0.8706 -0.0039 -0.4920
vn 0.8578 -0.1372 -0.4953
vn 0.4920 -0.0039 -0.8706
vn 0.4953 -0.1372 -0.8579
vn 0.2588 -0.0000 -0.9659
vn 0.2565 -0.1326 -0.9574
vn 0.9905 0.1372 0.0001
vn 0.8660 -0.0000 -0.5000
vn 0.8579 0.1372 -0.4952
vn 1.0000 -0.0000 0.0001
vn 0.8579 0.1371 0.4953
vn 0.8661 -0.0000 0.5000
vn 0.4953 0.1372 0.8578
vn 0.9906 -0.1371 -0.0000
vn 0.8579 -0.1372 0.4952
vn 0.8578 -0.1372 -0.4952
vn 0.4953 -0.1372 -0.8578
vn 0.5000 -0.0000 -0.8660
vn 0.8578 0.1372 -0.4953
vn 0.4954 0.1372 -0.8578
vn 0.2587 -0.0000 -0.9660
vn 0.2567 0.1325 -0.9574
vn 0.2566 -0.1326 -0.9574
vn 0.4952 -0.1372 -0.8579
vn 0.2586 -0.0000 0.9660
vn 0.2565 -0.1325 0.9574
vn 0.4953 -0.1372 0.8578
vn 0.2565 0.1326 0.9574
vn 0.8578 -0.1372 0.4953
vn 0.4952 0.1372 0.8579
vn 0.8660 -0.0000 0.5001
vn -0.4953 0.1373 -0.8578
vn -0.8578 0.1372 -0.4953
vn -0.5000 -0.0000 -0.8660
vn 0.2565 0.1326 -0.9574
vn -0.8578 -0.1372 -0.4953
vn -0.4952 -0.1373 -0.8579
vn -0.8579 0.1372 0.4952
vn -0.5001 -0.0000 0.8660
vn -0.4953 0.1372 0.8578
vn -0.4953 -0.1372 0.8578
vn -0.9905 0.1372 0.0001
vn -0.8579 -0.1372 0.4952
vn -1.0000 -0.0000 -0.0000
vn -0.8579 0.1372 -0.4952
vn -0.9905 -0.1372 -0.0000
vn -0.8661 -0.0000 -0.5000
vn -0.8579 -0.1372 -0.4952
vn -0.4952 0.1372 0.8579
vn 0.2588 -0.0000 0.9659
vn -0.5000 -0.0000 0.8660
vn 0.2565 -0.1326 0.9574
vn -0.4953 -0.1372 0.8579
vn 0.4696 0.8709 -0.1446
vn 0.4315 0.8947 -0.1155
vn 0.3761 0.9008 -0.2171
vn 0.4311 0.8948 -0.1156
vn 0.3157 0.8948 -0.3157
vn 0.3761 0.9008 -0.2172
vn 0.2146 0.8907 -0.4009
vn 0.1155 0.8948 -0.4313
vn 0.2145 0.8907 -0.4009
vn -0.0000 0.9008 -0.4343
vn 0.1096 0.8710 -0.4789
vn -0.1446 0.8710 -0.4696
vn -0.0001 0.9008 -0.4343
vn -0.2171 0.9008 -0.3761
vn -0.1156 0.8947 -0.4315
vn -0.3157 0.8948 -0.3156
vn -0.2172 0.9008 -0.3760
vn -0.4009 0.8907 -0.2146
vn -0.3157 0.8948 -0.3157
vn -0.4314 0.8947 -0.1156
vn -0.4009 0.8907 -0.2145
vn -0.4312 0.8948 -0.1155
vn -0.4790 0.8710 -0.1096
vn -0.0000 -1.0000 -0.0000
vn -0.4312 -0.8948 -0.1156
vn -0.5080 -0.8435 -0.1744
vn -0.3966 -0.8794 -0.2633
vn -0.4696 -0.8710 -0.1446
vn -0.3159 -0.8947 -0.3158
vn -0.3966 -0.8794 -0.2634
vn -0.2118 -0.8794 -0.4263
vn -0.3156 -0.8949 -0.3157
vn -0.1156 -0.8948 -0.4313
vn -0.0000 -0.9008 -0.4342
vn -0.1446 -0.8710 -0.4695
vn 0.1744 -0.8436 -0.5079
vn 0.2171 -0.9008 -0.3760
vn 0.1156 -0.8948 -0.4313
vn 0.3157 -0.8948 -0.3158
vn 0.3966 -0.8794 -0.2634
vn 0.4790 -0.8710 -0.1096
vn 0.3967 -0.8794 -0.2633
vn 0.5080 -0.8435 -0.1744
vn 0.4316 -0.8946 -0.1157
vn 0.4696 -0.8710 0.1446
vn 0.4313 -0.8948 0.1156
vn 0.4265 -0.8794 0.2118
vn 0.4312 -0.8948 0.1156
vn 0.3158 -0.8947 0.3158
vn 0.4264 -0.8794 0.2119
vn 0.2634 -0.8794 0.3966
vn 0.3158 -0.8947 0.3159
vn 0.1157 -0.8946 0.4316
vn 0.2634 -0.8794 0.3967
vn -0.0000 -0.8566 0.5159
vn 0.1156 -0.8947 0.4314
vn -0.1155 -0.8946 0.4316
vn -0.2633 -0.8794 0.3967
vn -0.1744 -0.8435 0.5080
vn -0.3158 -0.8948 0.3157
vn -0.2634 -0.8794 0.3966
vn -0.4264 -0.8794 0.2119
vn -0.4312 -0.8948 0.1156
vn -0.4264 -0.8794 0.2118
vn -0.4315 -0.8947 0.1155
vn -0.4790 -0.8710 0.1096
vn -0.4313 0.8948 0.1156
vn -0.4696 0.8710 0.1446
vn -0.3862 0.8907 0.2398
vn -0.3159 0.8947 0.3158
vn -0.3862 0.8907 0.2399
vn -0.2171 0.9008 0.3760
vn -0.3157 0.8948 0.3157
vn -0.1156 0.8948 0.4312
vn -0.2170 0.9008 0.3760
vn -0.0000 0.9008 0.4342
vn -0.1446 0.8710 0.4695
vn 0.1155 0.8947 0.4315
vn 0.2398 0.8907 0.3862
vn 0.1446 0.8710 0.4695
vn 0.3159 0.8947 0.3160
vn 0.2399 0.8907 0.3862
vn 0.3761 0.9008 0.2171
vn 0.3158 0.8948 0.3157
vn 0.4790 0.8710 0.1096
vn 0.4315 0.8947 0.1157
vn 0.4313 0.8948 0.1155
vn 0.2568 -0.1325 0.9573
vn 0.4886 -0.0056 0.8725
vn 0.4954 -0.1372 0.8578
vn 0.8660 -0.0000 0.5000
vn 0.8430 -0.1492 0.5168
vn 0.9999 -0.0056 0.0132
vn 0.9905 -0.1372 -0.0000
vn 0.9905 -0.1372 -0.0001
vn 0.9999 -0.0055 0.0131
vn 0.8691 -0.1492 -0.4717
vn 0.5114 -0.0056 -0.8593
vn 0.3066 -0.1538 -0.9393
vn 0.5113 -0.0056 -0.8594
vn -0.9885 -0.1492 -0.0261
vn -0.8725 -0.0056 0.4885
vn -0.8594 -0.0056 -0.5113
vn -0.8578 -0.1372 0.4953
vn -0.8725 -0.0056 0.4886
vn -0.5168 -0.1493 0.8430
vn -0.2846 -0.0107 0.9586
vn -0.2566 -0.1326 0.9574
vn -0.3066 -0.1538 -0.9393
vn -0.2588 -0.0000 -0.9659
vn -0.4954 -0.1373 -0.8577
vn -0.8593 -0.0056 -0.5114
vn -0.8579 0.1372 -0.4951
vn -0.9905 0.1372 -0.0001
vn -0.8660 -0.0001 -0.5000
vn -0.4955 0.1371 -0.8577
vn -0.9905 -0.1372 -0.0001
vn -0.8577 -0.1373 -0.4954
vn -0.5001 -0.0000 -0.8660
vn -0.2566 0.1325 -0.9574
vn -0.4955 -0.1370 -0.8577
vn -0.2589 -0.0000 -0.9659
vn -0.2566 -0.1325 -0.9574
vn -0.2587 -0.0000 0.9660
vn -0.2564 0.1326 0.9574
vn -0.5000 -0.0000 0.8661
vn -0.2564 -0.1326 0.9574
vn -0.8579 0.1373 0.4952
vn -0.8661 -0.0000 0.4999
vn 0.4953 0.1372 -0.8578
vn -0.2565 0.1326 -0.9574
vn 0.4999 -0.0000 -0.8661
vn -0.2565 -0.1326 -0.9574
vn 0.8577 0.1373 -0.4955
vn 0.4953 -0.1373 -0.8578
vn 0.8660 -0.0001 -0.5000
vn 0.9906 0.1371 0.0003
vn 0.8577 -0.1372 -0.4955
vn 0.8579 0.1372 0.4952
vn 0.8578 0.1372 0.4953
vn 0.4954 0.1374 0.8577
vn 0.4999 -0.0001 0.8661
vn -0.2565 0.1326 0.9574
vn 0.4954 -0.1373 0.8577
vn -0.2565 -0.1326 0.9574
vn 0.4312 0.8948 -0.1156
vn 0.4314 0.8947 -0.1156
vn 0.3158 0.8947 -0.3158
vn 0.2145 0.8906 -0.4009
vn 0.1096 0.8710 -0.4790
vn -0.1156 0.8949 -0.4311
vn -0.3158 0.8948 -0.3156
vn -0.4310 0.8949 -0.1153
vn -0.4312 0.8948 0.1156
vn -0.3157 0.8948 0.3158
vn -0.1157 0.8948 0.4313
vn 0.1155 0.8949 0.4311
vn 0.3157 0.8948 0.3158
vn 0.2407 0.8901 0.3869
vn 0.3760 0.9008 0.2172
vn 0.3157 0.8948 0.3156
vn 0.4315 0.8946 0.1157
vn 0.4314 0.8947 0.1156
vn -0.4314 -0.8947 -0.1156
vn -0.4815 -0.8628 -0.1538
vn -0.3894 -0.8873 -0.2471
vn -0.3158 -0.8948 -0.3156
vn -0.2137 -0.8873 -0.4087
vn -0.3158 -0.8948 -0.3158
vn -0.1156 -0.8948 -0.4312
vn 0.1538 -0.8629 -0.4815
vn 0.0001 -0.9008 -0.4342
vn 0.1156 -0.8949 -0.4311
vn 0.3156 -0.8949 -0.3156
vn 0.3894 -0.8873 -0.2472
vn 0.3157 -0.8948 -0.3157
vn 0.3895 -0.8873 -0.2471
vn 0.4816 -0.8628 -0.1538
vn 0.4313 -0.8948 -0.1156
vn 0.4696 -0.8709 0.1446
vn 0.4314 -0.8947 0.1156
vn 0.4088 -0.8873 0.2137
vn 0.4313 -0.8948 0.1157
vn 0.3158 -0.8948 0.3155
vn 0.2171 -0.9008 0.3761
vn 0.3157 -0.8949 0.3155
vn 0.1156 -0.8948 0.4312
vn -0.0000 -0.9008 0.4342
vn -0.1157 -0.8948 0.4312
vn -0.2471 -0.8873 0.3895
vn -0.1155 -0.8948 0.4312
vn -0.3160 -0.8946 0.3161
vn -0.2472 -0.8873 0.3894
vn -0.4087 -0.8873 0.2137
vn -0.3158 -0.8948 0.3156
vn -0.4312 -0.8948 0.1157
vn -0.4088 -0.8873 0.2137
vn -0.4309 -0.8950 0.1155
vt 0.010136 0.492187
vt 0.061651 0.629713
vt 0.010136 0.629709
vt 0.305193 0.162641
vt 0.694740 0.162573
vt 0.499923 0.110367
vt 0.162490 0.305220
vt 0.837408 0.305234
vt 0.889524 0.500018
vt 0.110338 0.500049
vt 0.837395 0.694790
vt 0.162593 0.694824
vt 0.694807 0.837416
vt 0.305145 0.837436
vt 0.499987 0.889585
vt 0.164666 0.492189
vt 0.216186 0.492187
vt 0.216181 0.629713
vt 0.164667 0.629716
vt 0.113146 0.492193
vt 0.113149 0.629718
vt 0.061627 0.492200
vt 0.061630 0.629726
vt 0.267694 0.629713
vt 0.267706 0.492187
vt 0.319208 0.629712
vt 0.319224 0.492191
vt 0.010111 0.492203
vt 0.010112 0.629735
vt 0.061656 0.492187
vt 0.113164 0.629718
vt 0.113182 0.492192
vt 0.164678 0.629727
vt 0.164702 0.492201
vt 0.216195 0.629733
vt 0.216219 0.492208
vt 0.267717 0.629743
vt 0.267734 0.492219
vt 0.319237 0.629755
vt 0.319250 0.492225
vt 0.164688 0.767240
vt 0.113181 0.767243
vt 0.216199 0.767239
vt 0.267717 0.767239
vt 0.319237 0.767232
vt 0.010157 0.767266
vt 0.061673 0.767252
vt 0.113141 0.767244
vt 0.061627 0.767239
vt 0.010111 0.767232
vt 0.267675 0.767267
vt 0.216168 0.767258
vt 0.164655 0.767252
vt 0.319186 0.767285
vt 0.121408 0.499989
vt 0.050000 0.500042
vt 0.110229 0.724988
vt 0.172157 0.689291
vt 0.274997 0.889730
vt 0.310739 0.827834
vt 0.500013 0.950000
vt 0.499984 0.878540
vt 0.724997 0.889718
vt 0.689216 0.827827
vt 0.889669 0.724993
vt 0.827826 0.689278
vt 0.950000 0.500015
vt 0.878502 0.499964
vt 0.702373 0.543729
vt 0.702377 0.627348
vt 0.713423 0.585540
vt 0.671980 0.513093
vt 0.671987 0.657988
vt 0.630398 0.669215
vt 0.630390 0.501870
vt 0.588809 0.657994
vt 0.588803 0.513099
vt 0.558423 0.627358
vt 0.558419 0.543739
vt 0.547370 0.585551
vt 0.529888 0.585552
vt 0.543241 0.636024
vt 0.579999 0.673106
vt 0.630399 0.686715
vt 0.680800 0.673099
vt 0.717555 0.636012
vt 0.730906 0.585538
vt 0.717551 0.535065
vt 0.680791 0.497983
vt 0.630389 0.484374
vt 0.579990 0.497990
vt 0.543236 0.535078
vt 0.889656 0.275022
vt 0.827843 0.310767
vt 0.725003 0.110327
vt 0.689262 0.172224
vt 0.500011 0.050000
vt 0.500017 0.121517
vt 0.275004 0.110340
vt 0.310669 0.172182
vt 0.110216 0.275017
vt 0.172174 0.310779
vt 0.275026 0.110313
vt 0.725134 0.110367
vt 0.500008 0.050000
vt 0.110349 0.275067
vt 0.889745 0.275063
vt 0.950000 0.500036
vt 0.050000 0.500020
vt 0.889651 0.724991
vt 0.110494 0.725029
vt 0.724995 0.889689
vt 0.275105 0.889726
vt 0.500015 0.950000
vt 0.330878 0.500007
vt 0.362283 0.583802
vt 0.330894 0.583805
vt 0.362273 0.500001
vt 0.393671 0.583803
vt 0.393671 0.500003
vt 0.425061 0.583803
vt 0.425064 0.500003
vt 0.456451 0.583805
vt 0.456456 0.500004
vt 0.487843 0.583810
vt 0.487847 0.500010
vt 0.519238 0.500010
vt 0.519235 0.583811
vt 0.425068 0.500008
vt 0.456459 0.500012
vt 0.456449 0.583812
vt 0.425057 0.583808
vt 0.393676 0.500004
vt 0.393666 0.583805
vt 0.487839 0.583812
vt 0.487852 0.500012
vt 0.519230 0.583817
vt 0.519245 0.500018
vt 0.330895 0.500001
vt 0.362272 0.583807
vt 0.330878 0.583806
vt 0.362286 0.500007
vt 0.425053 0.667603
vt 0.456440 0.667605
vt 0.393665 0.667605
vt 0.362274 0.667602
vt 0.330882 0.667602
vt 0.519222 0.667612
vt 0.487830 0.667610
vt 0.519233 0.667615
vt 0.487841 0.667612
vt 0.456450 0.667612
vt 0.425061 0.667609
vt 0.393671 0.667605
vt 0.362286 0.667606
vt 0.330897 0.667610
vt 0.845453 0.553833
vt 0.856106 0.553833
vt 0.847968 0.523078
vt 0.838718 0.528356
vt 0.825570 0.500480
vt 0.820200 0.509688
vt 0.794858 0.492187
vt 0.794858 0.502848
vt 0.764147 0.500480
vt 0.769517 0.509688
vt 0.741751 0.523078
vt 0.751003 0.528356
vt 0.733616 0.553834
vt 0.744270 0.553834
vt 0.741753 0.584590
vt 0.751004 0.579309
vt 0.764151 0.607187
vt 0.769519 0.597979
vt 0.794862 0.615481
vt 0.794862 0.604818
vt 0.825573 0.607187
vt 0.820203 0.597979
vt 0.847969 0.584588
vt 0.838719 0.579309
s 1
usemtl wood
f 1/1/1 2/2/2 3/3/3
f 16/16/5 17/17/6 18/18/7
f 16/16/5 18/18/7 19/19/8
f 20/20/9 16/16/5 19/19/8
f 20/20/9 19/19/8 21/21/10
f 22/22/11 20/20/9 21/21/10
f 22/22/11 21/21/10 23/23/12
f 24/17/13 25/24/14 26/18/15
f 24/17/13 27/25/16 25/24/14
f 27/25/16 28/26/17 25/24/14
f 27/25/16 29/27/18 28/26/17
f 30/28/19 31/22/20 32/23/12
f 30/28/19 32/23/12 33/29/21
f 34/1/22 35/30/23 36/2/2
f 35/30/23 37/31/24 36/2/2
f 35/30/23 38/32/25 37/31/24
f 38/32/25 39/33/26 37/31/24
f 38/32/25 40/34/27 39/33/26
f 40/34/27 41/35/28 39/33/26
f 40/34/27 42/36/29 41/35/28
f 43/36/29 44/37/30 45/35/28
f 43/36/29 46/38/31 44/37/30
f 46/38/31 47/39/32 44/37/30
f 46/38/31 48/40/33 47/39/32
f 49/16/34 50/18/35 51/17/36
f 49/16/34 52/19/37 50/18/35
f 53/20/38 52/19/37 49/16/34
f 53/20/38 54/21/39 52/19/37
f 55/22/40 54/21/39 53/20/38
f 54/21/39 56/41/41 52/19/37
f 54/21/39 57/42/42 56/41/41
f 52/19/37 56/41/41 58/43/43
f 52/19/37 58/43/43 50/18/35
f 50/18/35 58/43/43 59/44/44
f 50/18/35 59/44/44 60/24/45
f 61/17/46 62/18/35 63/24/45
f 61/17/46 63/24/45 64/25/47
f 64/25/47 63/24/45 65/26/48
f 64/25/47 65/26/48 66/27/49
f 63/24/45 67/45/50 65/26/48
f 63/24/45 68/44/51 67/45/50
f 69/29/52 70/46/53 71/47/54
f 69/29/52 71/47/54 72/23/2
f 73/28/55 69/29/52 72/23/2
f 72/23/2 71/47/54 74/42/56
f 73/28/55 72/23/2 75/22/57
f 72/23/2 74/42/56 76/21/58
f 75/22/57 72/23/2 76/21/58
f 77/30/59 78/31/10 79/32/60
f 77/30/59 80/2/61 78/31/10
f 81/1/62 80/2/61 77/30/59
f 80/2/61 82/48/63 78/31/10
f 81/1/62 83/3/32 80/2/61
f 80/2/61 84/49/64 82/48/63
f 83/3/32 84/49/64 80/2/61
f 83/3/32 85/50/33 84/49/64
f 86/36/65 87/37/66 88/38/67
f 86/36/65 89/35/7 87/37/66
f 89/35/7 90/51/68 87/37/66
f 91/34/69 89/35/7 86/36/65
f 89/35/7 92/52/70 90/51/68
f 91/34/69 93/33/71 89/35/7
f 93/33/71 92/52/70 89/35/7
f 94/32/72 93/33/71 91/34/69
f 93/33/71 95/53/73 92/52/70
f 94/32/72 96/31/74 93/33/71
f 96/31/74 95/53/73 93/33/71
f 96/31/74 97/48/75 95/53/73
f 98/38/76 99/39/77 100/40/55
f 98/38/76 101/37/78 99/39/77
f 101/37/78 102/54/79 99/39/77
f 101/37/78 103/51/80 102/54/79
f 123/69/104 124/70/104 125/71/104
f 126/72/104 124/70/104 123/69/104
f 126/72/104 127/73/104 124/70/104
f 126/72/104 128/74/104 127/73/104
f 126/72/104 129/75/104 128/74/104
f 129/75/104 130/76/104 128/74/104
f 129/75/104 131/77/104 130/76/104
f 131/77/104 132/78/104 130/76/104
f 131/77/104 133/79/104 132/78/104
f 133/79/104 134/80/104 132/78/104
f 135/80/105 136/81/106 137/82/107
f 135/80/105 137/82/107 138/78/108
f 139/78/109 137/82/110 140/83/111
f 139/78/109 140/83/111 141/76/112
f 142/76/113 140/83/111 143/84/114
f 142/76/113 143/84/114 144/74/115
f 145/74/116 143/84/114 146/85/117
f 145/74/116 146/85/117 147/73/118
f 148/73/119 146/85/117 149/86/120
f 148/73/119 149/86/120 150/70/119
f 151/70/121 149/86/122 152/87/123
f 151/70/121 152/87/123 153/71/124
f 154/71/125 155/87/126 156/88/127
f 154/71/125 156/88/127 157/69/128
f 158/69/129 156/88/130 159/89/131
f 158/69/129 159/89/131 160/72/132
f 161/72/133 159/89/134 162/90/135
f 161/72/133 162/90/135 163/75/136
f 164/75/137 162/90/135 165/91/138
f 164/75/137 165/91/138 166/77/139
f 167/77/140 165/91/141 168/92/142
f 167/77/140 168/92/142 169/79/140
f 170/79/143 168/92/144 171/81/145
f 170/79/143 171/81/145 172/80/146
f 204/115/168 205/116/169 206/117/77
f 204/115/168 207/118/170 205/116/169
f 207/118/170 208/119/171 205/116/169
f 207/118/170 209/120/172 208/119/171
f 209/120/172 210/121/173 208/119/171
f 209/120/172 211/122/174 210/121/173
f 212/122/175 213/123/35 214/121/176
f 212/122/175 215/124/177 213/123/35
f 215/124/177 216/125/178 213/123/35
f 215/124/177 217/126/44 216/125/178
f 218/126/51 219/127/179 220/128/32
f 218/126/51 220/128/32 221/125/180
f 222/129/181 223/130/70 224/131/182
f 222/129/181 224/131/182 225/132/71
f 226/133/63 222/129/181 225/132/71
f 226/133/63 225/132/71 227/134/183
f 228/130/184 229/135/78 230/131/185
f 228/130/184 231/136/186 229/135/78
f 231/136/186 232/137/187 229/135/78
f 231/136/186 233/138/188 232/137/187
f 234/139/189 235/140/61 236/141/190
f 234/139/189 237/142/191 235/140/61
f 237/142/191 238/134/192 235/140/61
f 237/142/191 239/133/63 238/134/192
f 240/120/193 241/121/71 242/122/194
f 240/120/193 243/119/195 241/121/71
f 244/118/196 243/119/195 240/120/193
f 243/119/195 245/143/197 241/121/71
f 241/121/71 245/143/197 246/144/70
f 243/119/195 247/145/198 245/143/197
f 244/118/196 248/116/199 243/119/195
f 248/116/199 247/145/198 243/119/195
f 249/115/200 248/116/199 244/118/196
f 248/116/199 250/146/201 247/145/198
f 249/115/200 251/117/202 248/116/199
f 251/117/202 250/146/201 248/116/199
f 251/117/202 252/147/203 250/146/201
f 253/126/67 254/128/204 255/127/205
f 253/126/67 256/125/206 254/128/204
f 256/125/206 257/148/207 254/128/204
f 258/124/208 256/125/206 253/126/67
f 256/125/206 259/149/68 257/148/207
f 258/124/208 260/123/209 256/125/206
f 260/123/209 259/149/68 256/125/206
f 261/122/69 260/123/209 258/124/208
f 260/123/209 262/144/184 259/149/68
f 261/122/69 263/121/71 260/123/209
f 263/121/71 262/144/184 260/123/209
f 264/136/210 265/137/190 266/138/211
f 264/136/210 267/135/212 265/137/190
f 267/135/212 268/150/213 265/137/190
f 269/130/214 267/135/212 264/136/210
f 267/135/212 270/151/215 268/150/213
f 269/130/214 271/131/216 267/135/212
f 271/131/216 270/151/215 267/135/212
f 272/129/217 271/131/216 269/130/214
f 271/131/216 273/152/218 270/151/215
f 272/129/217 274/132/26 271/131/216
f 274/132/26 273/152/218 271/131/216
f 275/133/219 274/132/26 272/129/217
f 274/132/26 276/153/174 273/152/218
f 277/134/171 276/153/174 274/132/26
f 277/134/171 278/154/56 276/153/174
f 279/133/220 280/134/171 281/132/26
f 282/142/221 280/134/171 279/133/220
f 282/142/221 283/140/222 280/134/171
f 284/139/223 283/140/222 282/142/221
f 283/140/222 285/154/56 280/134/171
f 284/139/223 286/141/17 283/140/222
f 283/140/222 287/155/224 285/154/56
f 286/141/17 287/155/224 283/140/222
f 286/141/17 288/156/225 287/155/224
f 289/157/81 290/158/226 291/159/83
f 289/157/81 291/159/83 292/160/227
f 293/160/228 291/159/86 294/161/87
f 293/160/228 294/161/87 295/162/228
f 296/162/88 294/161/229 297/163/90
f 296/162/88 297/163/90 298/164/230
f 299/164/92 297/163/90 300/165/94
f 299/164/92 300/165/94 301/166/231
f 302/166/232 300/165/94 303/167/98
f 302/166/232 303/167/98 304/168/99
f 305/168/100 303/167/101 306/169/233
f 305/168/100 306/169/233 307/170/103
f 308/170/234 309/169/148 310/171/151
f 308/170/234 310/171/151 311/172/148
f 312/172/235 310/171/151 313/173/152
f 312/172/235 313/173/152 314/174/150
f 315/174/236 313/173/152 316/175/156
f 315/174/236 316/175/156 317/176/157
f 318/176/237 316/175/156 319/177/162
f 318/176/237 319/177/162 320/178/160
f 321/178/238 319/177/239 322/179/240
f 321/178/238 322/179/240 323/180/241
f 324/180/165 322/179/163 325/158/242
f 324/180/165 325/158/242 326/157/243
f 327/170/244 328/169/245 329/171/246
f 327/170/244 329/171/246 330/172/108
f 331/172/247 329/171/246 332/173/248
f 331/172/247 332/173/248 333/174/249
f 334/174/250 332/173/248 335/175/114
f 334/174/250 335/175/114 336/176/115
f 337/176/251 335/175/252 338/177/117
f 337/176/251 338/177/117 339/178/253
f 340/178/254 338/177/117 341/179/255
f 340/178/254 341/179/255 342/180/256
f 343/180/121 341/179/257 344/158/258
f 343/180/121 344/158/258 345/157/259
f 346/157/260 347/158/261 348/159/262
f 346/157/260 348/159/262 349/160/263
f 350/160/264 348/159/262 351/161/265
f 350/160/264 351/161/265 352/162/266
f 353/162/267 351/161/265 354/163/268
f 353/162/267 354/163/268 355/164/267
f 356/164/269 354/163/268 357/165/270
f 356/164/269 357/165/270 358/166/271
f 359/166/272 357/165/273 360/167/274
f 359/166/272 360/167/274 361/168/275
f 362/168/276 360/167/277 363/169/278
f 362/168/276 363/169/278 364/170/146
f 365/160/104 366/180/104 367/157/104
f 368/162/104 366/180/104 365/160/104
f 368/162/104 369/178/104 366/180/104
f 368/162/104 370/176/104 369/178/104
f 368/162/104 371/164/104 370/176/104
f 371/164/104 372/174/104 370/176/104
f 371/164/104 373/166/104 372/174/104
f 373/166/104 374/172/104 372/174/104
f 373/166/104 375/168/104 374/172/104
f 375/168/104 376/170/104 374/172/104
usemtl coal
f 4/4/4 5/5/4 6/6/4
f 7/7/4 5/5/4 4/4/4
f 7/7/4 8/8/4 5/5/4
f 7/7/4 9/9/4 8/8/4
f 7/7/4 10/10/4 9/9/4
f 10/10/4 11/11/4 9/9/4
f 10/10/4 12/12/4 11/11/4
f 12/12/4 13/13/4 11/11/4
f 12/12/4 14/14/4 13/13/4
f 14/14/4 15/15/4 13/13/4
f 104/55/81 105/56/82 106/57/83
f 104/55/81 106/57/83 107/58/84
f 108/58/85 106/57/86 109/59/87
f 108/58/85 109/59/87 110/60/85
f 111/60/88 109/59/89 112/61/90
f 111/60/88 112/61/90 113/62/91
f 114/62/92 112/61/93 115/63/94
f 114/62/92 115/63/94 116/64/95
f 117/64/96 115/63/97 118/65/98
f 117/64/96 118/65/98 119/66/99
f 120/66/100 118/65/101 121/67/102
f 120/66/100 121/67/102 122/68/103
f 173/68/147 174/67/148 175/93/149
f 173/68/147 175/93/149 176/94/148
f 177/94/150 175/93/151 178/95/152
f 177/94/150 178/95/152 179/96/153
f 180/96/154 178/95/155 181/97/156
f 180/96/154 181/97/156 182/98/157
f 183/98/158 181/97/156 184/99/159
f 183/98/158 184/99/159 185/100/160
f 186/100/161 184/99/162 187/101/163
f 186/100/161 187/101/163 188/102/164
f 189/102/165 187/101/163 190/56/166
f 189/102/165 190/56/166 191/55/167
usemtl ore
f 192/103/4 193/104/4 194/105/4
f 195/106/4 193/104/4 192/103/4
f 195/106/4 196/107/4 193/104/4
f 195/106/4 197/108/4 196/107/4
f 195/106/4 198/109/4 197/108/4
f 198/109/4 199/110/4 197/108/4
f 198/109/4 200/111/4 199/110/4
f 200/111/4 201/112/4 199/110/4
f 200/111/4 202/113/4 201/112/4
f 202/113/4 203/114/4 201/112/4
