# Blender 4.5.10 LTS
# www.blender.org
mtllib stoker_tun_casks.mtl
o stoker_tun_casks
v 0.434971 0.000000 0.341250
v 0.435468 0.009962 0.352572
v 0.437075 0.525000 0.389203
v 0.437492 0.515038 0.398706
v 0.248101 0.000000 0.295171
v 0.242398 0.009962 0.304965
v 0.223945 0.525000 0.336650
v 0.219158 0.515038 0.344869
v 0.115808 0.000000 0.155378
v 0.105715 0.009962 0.160533
v 0.073061 0.525000 0.177213
v 0.064591 0.515038 0.181539
v 0.080093 0.000000 -0.033746
v 0.068816 0.009962 -0.034866
v 0.032328 0.525000 -0.038489
v 0.022863 0.515038 -0.039428
v 0.152297 0.000000 -0.212157
v 0.143415 0.009962 -0.219196
v 0.114678 0.525000 -0.241970
v 0.107224 0.515038 -0.247878
v 0.309494 0.000000 -0.323209
v 0.305828 0.009962 -0.333932
v 0.293966 0.525000 -0.368628
v 0.290889 0.515038 -0.377627
v 0.501777 0.000000 -0.331644
v 0.504490 0.009962 -0.342648
v 0.513268 0.525000 -0.378248
v 0.515545 0.515038 -0.387483
v 0.668095 0.000000 -0.234785
v 0.676327 0.009962 -0.242575
v 0.702959 0.525000 -0.267778
v 0.709867 0.515038 -0.274316
v 0.755646 0.000000 -0.063383
v 0.766782 0.009962 -0.065486
v 0.802812 0.525000 -0.072290
v 0.812158 0.515038 -0.074055
v 0.736631 0.000000 0.128142
v 0.747136 0.009962 0.132394
v 0.781125 0.525000 0.146149
v 0.789942 0.515038 0.149718
v 0.617088 0.000000 0.278984
v 0.623627 0.009962 0.288240
v 0.644783 0.525000 0.318188
v 0.650271 0.515038 0.325956
v 0.421115 0.525000 0.389576
v 0.421142 0.534962 0.399088
v 0.420978 1.050000 0.341576
v 0.421010 1.040038 0.352909
v 0.210317 0.525000 0.328335
v 0.205198 0.534962 0.336351
v 0.236152 1.050000 0.287881
v 0.230053 1.040038 0.297432
v 0.066092 0.525000 0.162850
v 0.057452 0.534962 0.166826
v 0.109697 1.050000 0.142785
v 0.099402 1.040038 0.147523
v 0.034230 0.525000 -0.054339
v 0.024812 0.534962 -0.055665
v 0.081761 1.050000 -0.047644
v 0.070539 1.040038 -0.049224
v 0.124848 0.525000 -0.254275
v 0.117642 0.534962 -0.260484
v 0.161213 1.050000 -0.222946
v 0.152627 1.040038 -0.230343
v 0.309174 0.525000 -0.373482
v 0.306468 0.534962 -0.382600
v 0.322829 1.050000 -0.327465
v 0.319605 1.040038 -0.338329
v 0.528686 0.525000 -0.374110
v 0.531340 0.534962 -0.383244
v 0.515295 1.050000 -0.328016
v 0.518457 1.040038 -0.338899
v 0.713692 0.525000 -0.255961
v 0.720862 0.534962 -0.262210
v 0.677506 1.050000 -0.224424
v 0.686050 1.040038 -0.231870
v 0.805452 0.525000 -0.056546
v 0.814863 0.534962 -0.057927
v 0.757960 1.050000 -0.049579
v 0.769173 1.040038 -0.051224
v 0.774834 0.525000 0.160821
v 0.783497 0.534962 0.164748
v 0.731115 1.050000 0.141007
v 0.741437 1.040038 0.145685
v 0.631559 0.525000 0.327130
v 0.636724 0.534962 0.335116
v 0.605493 1.050000 0.286824
v 0.611647 1.040038 0.296340
v 0.422095 0.245500 0.401741
v 0.422128 0.251500 0.407994
v 0.422095 0.300500 0.401741
v 0.422128 0.294500 0.407994
v 0.204565 0.245500 0.339099
v 0.201211 0.251500 0.344377
v 0.204565 0.300500 0.339099
v 0.201211 0.294500 0.344377
v 0.055434 0.245500 0.168795
v 0.049759 0.251500 0.171422
v 0.055434 0.300500 0.168795
v 0.049759 0.294500 0.171422
v 0.022050 0.245500 -0.055100
v 0.015856 0.251500 -0.055958
v 0.022050 0.300500 -0.055100
v 0.015856 0.294500 -0.055958
v 0.115012 0.245500 -0.261501
v 0.110265 0.251500 -0.265572
v 0.115012 0.300500 -0.261501
v 0.110265 0.294500 -0.265572
v 0.304806 0.245500 -0.384878
v 0.303013 0.251500 -0.390868
v 0.304806 0.300500 -0.384878
v 0.303013 0.294500 -0.390868
v 0.531173 0.245500 -0.386058
v 0.532904 0.251500 -0.392067
v 0.531173 0.300500 -0.386058
v 0.532904 0.294500 -0.392067
v 0.722244 0.245500 -0.264668
v 0.726948 0.251500 -0.268788
v 0.722244 0.300500 -0.264668
v 0.726948 0.294500 -0.268788
v 0.817354 0.245500 -0.059248
v 0.823539 0.251500 -0.060170
v 0.817354 0.300500 -0.059248
v 0.823539 0.294500 -0.060170
v 0.786307 0.245500 0.164984
v 0.792009 0.251500 0.167552
v 0.786307 0.300500 0.164984
v 0.792009 0.294500 0.167552
v 0.638960 0.245500 0.336834
v 0.642368 0.251500 0.342076
v 0.638960 0.300500 0.336834
v 0.642368 0.294500 0.342076
v 0.416041 0.749500 0.401727
v 0.415980 0.755500 0.407980
v 0.416041 0.804500 0.401727
v 0.415980 0.798500 0.407980
v 0.199480 0.749500 0.335814
v 0.196047 0.755500 0.341041
v 0.199480 0.804500 0.335814
v 0.196047 0.798500 0.341041
v 0.052932 0.749500 0.163282
v 0.047218 0.755500 0.165824
v 0.052932 0.804500 0.163282
v 0.047218 0.798500 0.165824
v 0.022925 0.749500 -0.061090
v 0.016745 0.755500 -0.062041
v 0.022925 0.804500 -0.061090
v 0.016745 0.798500 -0.062041
v 0.118987 0.749500 -0.266067
v 0.114302 0.755500 -0.270209
v 0.118987 0.804500 -0.266067
v 0.114302 0.798500 -0.270209
v 0.310619 0.749500 -0.386570
v 0.308916 0.755500 -0.392587
v 0.310619 0.804500 -0.386570
v 0.308916 0.798500 -0.392587
v 0.536978 0.749500 -0.384339
v 0.538799 0.755500 -0.390321
v 0.536978 0.804500 -0.384339
v 0.538799 0.798500 -0.390321
v 0.726198 0.749500 -0.260083
v 0.730964 0.755500 -0.264132
v 0.726198 0.804500 -0.260083
v 0.730964 0.798500 -0.264132
v 0.818202 0.749500 -0.053253
v 0.824400 0.755500 -0.054082
v 0.818202 0.804500 -0.053253
v 0.824400 0.798500 -0.054082
v 0.783779 0.749500 0.170485
v 0.789442 0.755500 0.173138
v 0.783779 0.804500 0.170485
v 0.789442 0.798500 0.173138
v 0.633860 0.749500 0.340095
v 0.637189 0.755500 0.345388
v 0.633860 0.804500 0.340095
v 0.637189 0.798500 0.345388
v -0.452770 0.000000 0.288495
v -0.453271 0.009961 0.299830
v -0.454574 0.440000 0.329255
v -0.454994 0.430039 0.338745
v -0.606715 0.000000 0.235794
v -0.613265 0.009961 0.245058
v -0.630269 0.440000 0.269108
v -0.635753 0.430039 0.276864
v -0.707729 0.000000 0.108230
v -0.718248 0.009961 0.112482
v -0.745556 0.440000 0.123521
v -0.754362 0.430039 0.127081
v -0.723742 0.000000 -0.053697
v -0.734890 0.009961 -0.055806
v -0.763830 0.440000 -0.061283
v -0.773163 0.430039 -0.063049
v -0.649668 0.000000 -0.198575
v -0.657906 0.009961 -0.206377
v -0.679291 0.440000 -0.226631
v -0.686187 0.430039 -0.233162
v -0.509026 0.000000 -0.280407
v -0.511738 0.009961 -0.291424
v -0.518779 0.440000 -0.320024
v -0.521049 0.430039 -0.329247
v -0.346469 0.000000 -0.273212
v -0.342795 0.009961 -0.283946
v -0.333255 0.440000 -0.311812
v -0.330178 0.430039 -0.320799
v -0.213608 0.000000 -0.179274
v -0.204713 0.009961 -0.186317
v -0.181622 0.440000 -0.204602
v -0.174175 0.430039 -0.210499
v -0.152624 0.000000 -0.028418
v -0.141333 0.009961 -0.029534
v -0.112022 0.440000 -0.032433
v -0.102569 0.430039 -0.033367
v -0.182880 0.000000 0.131461
v -0.172778 0.009961 0.136626
v -0.146553 0.440000 0.150034
v -0.138096 0.430039 0.154358
v -0.294770 0.000000 0.249601
v -0.289064 0.009961 0.259408
v -0.274251 0.440000 0.284866
v -0.269474 0.430039 0.293076
v -0.432228 0.440000 0.329486
v -0.432004 0.449961 0.338982
v -0.433190 0.880000 0.288698
v -0.432923 0.870039 0.300040
v -0.611596 0.440000 0.281383
v -0.616541 0.449961 0.289493
v -0.590353 0.880000 0.246549
v -0.596260 0.870039 0.256236
v -0.736483 0.440000 0.143943
v -0.745027 0.449961 0.148091
v -0.699780 0.880000 0.126124
v -0.709986 0.870039 0.131079
v -0.767238 0.440000 -0.039198
v -0.776670 0.449961 -0.040328
v -0.726728 0.880000 -0.034346
v -0.737993 0.870039 -0.035695
v -0.694098 0.440000 -0.209894
v -0.701422 0.449961 -0.215943
v -0.662642 0.880000 -0.183910
v -0.671390 0.870039 -0.191136
v -0.540284 0.440000 -0.313950
v -0.543174 0.449961 -0.322998
v -0.527869 0.880000 -0.275085
v -0.531322 0.870039 -0.285893
v -0.354630 0.440000 -0.318329
v -0.352169 0.449961 -0.327504
v -0.365198 0.880000 -0.278922
v -0.362259 0.870039 -0.289880
v -0.196080 0.440000 -0.221641
v -0.189051 0.449961 -0.228029
v -0.226276 0.880000 -0.194203
v -0.217879 0.870039 -0.201833
v -0.114974 0.440000 -0.054583
v -0.105606 0.449961 -0.056156
v -0.155210 0.880000 -0.047826
v -0.144021 0.870039 -0.049705
v -0.137060 0.440000 0.129804
v -0.128330 0.449961 0.133545
v -0.174563 0.880000 0.113735
v -0.164134 0.870039 0.118204
v -0.255328 0.440000 0.272980
v -0.250006 0.449961 0.280847
v -0.278190 0.880000 0.239186
v -0.271832 0.870039 0.248584
v -0.455408 0.201300 0.340198
v -0.455691 0.207300 0.346445
v -0.455408 0.256300 0.340198
v -0.455691 0.250300 0.346445
v -0.636887 0.201300 0.277863
v -0.640502 0.207300 0.282965
v -0.636887 0.256300 0.277863
v -0.640502 0.250300 0.282965
v -0.755856 0.201300 0.127308
v -0.761656 0.207300 0.129646
v -0.755856 0.256300 0.127308
v -0.761656 0.250300 0.129646
v -0.774542 0.201300 -0.063666
v -0.780686 0.207300 -0.064835
v -0.774542 0.256300 -0.063666
v -0.780686 0.250300 -0.064835
v -0.687014 0.201300 -0.234427
v -0.691550 0.207300 -0.238731
v -0.687014 0.256300 -0.234427
v -0.691550 0.250300 -0.238731
v -0.521061 0.201300 -0.330758
v -0.522550 0.207300 -0.336832
v -0.521061 0.256300 -0.330758
v -0.522550 0.250300 -0.336832
v -0.329371 0.201300 -0.322077
v -0.327340 0.207300 -0.327991
v -0.329371 0.256300 -0.322077
v -0.327340 0.250300 -0.327991
v -0.172806 0.201300 -0.211138
v -0.167899 0.207300 -0.215015
v -0.172806 0.256300 -0.211138
v -0.167899 0.250300 -0.215015
v -0.101072 0.201300 -0.033164
v -0.094848 0.207300 -0.033773
v -0.101072 0.256300 -0.033164
v -0.094848 0.250300 -0.033773
v -0.136946 0.201300 0.155339
v -0.131381 0.207300 0.158191
v -0.136946 0.256300 0.155339
v -0.131381 0.250300 0.158191
v -0.269037 0.201300 0.294523
v -0.265898 0.207300 0.299931
v -0.269037 0.256300 0.294523
v -0.265898 0.250300 0.299931
v -0.453466 0.623700 0.340280
v -0.453713 0.629700 0.346529
v -0.453466 0.678700 0.340280
v -0.453713 0.672700 0.346529
v -0.635298 0.623700 0.278982
v -0.638884 0.629700 0.284105
v -0.635298 0.678700 0.278982
v -0.638884 0.672700 0.284105
v -0.755124 0.623700 0.129108
v -0.760910 0.629700 0.131479
v -0.755124 0.678700 0.129108
v -0.760910 0.672700 0.131479
v -0.774900 0.623700 -0.061756
v -0.781050 0.629700 -0.062890
v -0.774900 0.678700 -0.061756
v -0.781050 0.672700 -0.062890
v -0.688348 0.623700 -0.233013
v -0.692909 0.629700 -0.237292
v -0.688348 0.678700 -0.233013
v -0.692909 0.672700 -0.237292
v -0.522948 0.623700 -0.330290
v -0.524471 0.629700 -0.336355
v -0.522948 0.678700 -0.330290
v -0.524471 0.672700 -0.336355
v -0.331211 0.623700 -0.322703
v -0.329214 0.629700 -0.328628
v -0.331211 0.678700 -0.322703
v -0.329214 0.672700 -0.328628
v -0.174015 0.623700 -0.212659
v -0.169131 0.629700 -0.216564
v -0.174015 0.678700 -0.212659
v -0.169131 0.672700 -0.216564
v -0.101267 0.623700 -0.035098
v -0.095047 0.629700 -0.035742
v -0.101267 0.678700 -0.035098
v -0.095047 0.672700 -0.035742
v -0.136064 0.623700 0.153607
v -0.130483 0.629700 0.156427
v -0.136064 0.678700 0.153607
v -0.130483 0.672700 0.156427
v -0.267359 0.623700 0.293542
v -0.264189 0.629700 0.298932
v -0.267359 0.678700 0.293542
v -0.264189 0.672700 0.298932
v 0.767521 0.005287 -0.159894
v 0.767543 0.006481 -0.164671
v 0.790189 0.006742 -0.159754
v 0.766800 0.093949 -0.165894
v 0.766755 0.095275 -0.161152
v 0.789445 0.094210 -0.160978
v 0.765193 0.009889 0.170546
v 0.787861 0.011344 0.170686
v 0.765149 0.011215 0.175288
v 0.764428 0.099877 0.169287
v 0.764405 0.098684 0.174065
v 0.787117 0.098812 0.169462
v -0.807023 -0.008256 -0.170794
v -0.829713 -0.007191 -0.170968
v -0.807001 -0.007063 -0.175571
v -0.807789 0.081732 -0.172053
v -0.807745 0.080406 -0.176794
v -0.830457 0.080277 -0.172192
v -0.809351 -0.003654 0.159646
v -0.809395 -0.002328 0.164388
v -0.832040 -0.002589 0.159471
v -0.810116 0.086334 0.158387
v -0.832784 0.084879 0.158248
v -0.810139 0.085140 0.163164
vn -0.1617 -0.7374 0.6559
vn -0.1765 0.6755 0.7159
vn -0.4906 -0.7374 0.4643
vn -0.5356 0.6755 0.5068
vn -0.6638 -0.7374 0.1253
vn -0.7246 0.6755 0.1368
vn -0.6262 -0.7374 -0.2534
vn -0.6835 0.6755 -0.2766
vn -0.3898 -0.7374 -0.5517
vn -0.4254 0.6755 -0.6022
vn -0.0296 -0.7374 -0.6749
vn -0.0323 0.6755 -0.7366
vn 0.3399 -0.7374 -0.5837
vn 0.3711 0.6755 -0.6372
vn 0.6016 -0.7374 -0.3073
vn 0.6567 0.6755 -0.3354
vn 0.6722 -0.7374 0.0667
vn 0.7337 0.6755 0.0728
vn 0.5294 -0.7374 0.4196
vn 0.5779 0.6755 0.4580
vn 0.2185 -0.7374 0.6392
vn 0.2385 0.6755 0.6977
vn -0.0000 -1.0000 -0.0000
vn -0.2385 -0.0874 0.9672
vn 0.3223 -0.0874 0.9426
vn -0.0000 1.0000 -0.0000
vn -0.7235 -0.0874 0.6847
vn -0.9789 -0.0874 0.1849
vn -0.9234 -0.0874 -0.3737
vn -0.5748 -0.0874 -0.8136
vn -0.0437 -0.0874 -0.9952
vn 0.5013 -0.0874 -0.8608
vn 0.8871 -0.0874 -0.4531
vn 0.9913 -0.0874 0.0984
vn 0.7807 -0.0874 0.6187
vn -0.2057 -0.6755 0.7081
vn -0.1885 0.7374 0.6487
vn -0.5559 -0.6755 0.4845
vn -0.5092 0.7374 0.4438
vn -0.7295 -0.6755 0.1070
vn -0.6683 0.7374 0.0980
vn -0.6716 -0.6755 -0.3044
vn -0.6153 0.7374 -0.2789
vn -0.4004 -0.6755 -0.6192
vn -0.3668 0.7374 -0.5672
vn -0.0021 -0.6755 -0.7374
vn -0.0019 0.7374 -0.6755
vn 0.3969 -0.6755 -0.6214
vn 0.3636 0.7374 -0.5693
vn 0.6698 -0.6755 -0.3082
vn 0.6136 0.7374 -0.2824
vn 0.7302 -0.6755 0.1028
vn 0.6689 0.7374 0.0942
vn 0.5586 -0.6755 0.4813
vn 0.5118 0.7374 0.4409
vn 0.2098 -0.6755 0.7069
vn 0.1922 0.7374 0.6476
vn -0.2779 0.0874 0.9566
vn 0.2834 0.0874 0.9550
vn -0.7510 0.0874 0.6545
vn -0.9856 0.0874 0.1446
vn -0.9073 0.0874 -0.4112
vn -0.5410 0.0874 -0.8365
vn -0.0029 0.0874 -0.9962
vn 0.5362 0.0874 -0.8396
vn 0.9050 0.0874 -0.4164
vn 0.9864 0.0874 0.1389
vn 0.7547 0.0874 0.6502
vn -0.1957 -0.7071 0.6795
vn -0.1957 0.7071 0.6795
vn -0.5320 -0.7071 0.4658
vn -0.5320 0.7071 0.4658
vn -0.6994 -0.7071 0.1043
vn -0.6994 0.7071 0.1043
vn -0.6447 -0.7071 -0.2904
vn -0.6447 0.7071 -0.2904
vn -0.3854 -0.7071 -0.5929
vn -0.3854 0.7071 -0.5929
vn -0.0037 -0.7071 -0.7071
vn -0.0037 0.7071 -0.7071
vn 0.3792 -0.7071 -0.5968
vn 0.3792 0.7071 -0.5968
vn 0.6417 -0.7071 -0.2971
vn 0.6417 0.7071 -0.2971
vn 0.7004 -0.7071 0.0970
vn 0.7004 0.7071 0.0970
vn 0.5368 -0.7071 0.4603
vn 0.5368 0.7071 0.4603
vn 0.2028 -0.7071 0.6774
vn 0.2028 0.7071 0.6774
vn -0.2767 -0.0000 0.9609
vn 0.2867 -0.0000 0.9580
vn -0.7523 -0.0000 0.6588
vn -0.9891 -0.0000 0.1475
vn -0.9118 -0.0000 -0.4107
vn -0.5450 -0.0000 -0.8384
vn -0.0052 -0.0000 -1.0000
vn 0.5362 -0.0000 -0.8441
vn 0.9075 -0.0000 -0.4202
vn 0.9906 -0.0000 0.1372
vn 0.7592 -0.0000 0.6509
vn -0.2059 -0.7071 0.6765
vn -0.2059 0.7071 0.6765
vn -0.5389 -0.7071 0.4578
vn -0.5389 0.7071 0.4578
vn -0.7009 -0.7071 0.0937
vn -0.7009 0.7071 0.0937
vn -0.6403 -0.7071 -0.3001
vn -0.6403 0.7071 -0.3001
vn -0.3764 -0.7071 -0.5986
vn -0.3764 0.7071 -0.5986
vn 0.0070 -0.7071 -0.7071
vn 0.0070 0.7071 -0.7071
vn 0.3881 -0.7071 -0.5911
vn 0.3881 0.7071 -0.5911
vn 0.6461 -0.7071 -0.2874
vn 0.6461 0.7071 -0.2874
vn 0.6989 -0.7071 0.1075
vn 0.6989 0.7071 0.1075
vn 0.5298 -0.7071 0.4683
vn 0.5298 0.7071 0.4683
vn 0.1925 -0.7071 0.6804
vn 0.1925 0.7071 0.6804
vn -0.2912 -0.0000 0.9567
vn 0.2723 -0.0000 0.9622
vn -0.7622 -0.0000 0.6474
vn -0.9912 -0.0000 0.1326
vn -0.9055 -0.0000 -0.4244
vn -0.5323 -0.0000 -0.8465
vn 0.0099 -0.0000 -1.0000
vn 0.5489 -0.0000 -0.8359
vn 0.9137 -0.0000 -0.4064
vn 0.9884 -0.0000 0.1521
vn 0.7493 -0.0000 0.6623
vn -0.2186 -0.7378 0.6387
vn -0.2390 0.6750 0.6980
vn -0.5292 -0.7378 0.4191
vn -0.5784 0.6750 0.4580
vn -0.6718 -0.7378 0.0664
vn -0.7342 0.6750 0.0726
vn -0.6010 -0.7378 -0.3073
vn -0.6569 0.6750 -0.3359
vn -0.3395 -0.7378 -0.5835
vn -0.3710 0.6751 -0.6377
vn 0.0299 -0.7378 -0.6744
vn 0.0326 0.6750 -0.7371
vn 0.3897 -0.7378 -0.5512
vn 0.4259 0.6750 -0.6024
vn 0.6258 -0.7378 -0.2530
vn 0.6840 0.6750 -0.2765
vn 0.6633 -0.7378 0.1255
vn 0.7249 0.6751 0.1372
vn 0.4901 -0.7378 0.4642
vn 0.5357 0.6750 0.5073
vn 0.1614 -0.7378 0.6555
vn 0.1763 0.6750 0.7164
vn -0.3226 -0.0886 0.9424
vn 0.2381 -0.0886 0.9672
vn -0.7809 -0.0886 0.6184
vn -0.9912 -0.0886 0.0980
vn -0.8869 -0.0886 -0.4534
vn -0.5009 -0.0886 -0.8609
vn 0.0440 -0.0886 -0.9951
vn 0.5750 -0.0886 -0.8133
vn 0.9235 -0.0886 -0.3733
vn 0.9787 -0.0886 0.1852
vn 0.7232 -0.0886 0.6849
vn -0.1911 -0.6750 0.7126
vn -0.1749 0.7378 0.6520
vn -0.5460 -0.6750 0.4962
vn -0.4996 0.7378 0.4540
vn -0.7276 -0.6750 0.1222
vn -0.6657 0.7378 0.1118
vn -0.6781 -0.6751 -0.2906
vn -0.6205 0.7378 -0.2659
vn -0.4134 -0.6750 -0.6111
vn -0.3783 0.7378 -0.5591
vn -0.0174 -0.6750 -0.7376
vn -0.0159 0.7378 -0.6749
vn 0.3841 -0.6750 -0.6299
vn 0.3515 0.7378 -0.5763
vn 0.6637 -0.6750 -0.3222
vn 0.6073 0.7378 -0.2948
vn 0.7325 -0.6750 0.0877
vn 0.6703 0.7378 0.0803
vn 0.5688 -0.6750 0.4699
vn 0.5204 0.7378 0.4299
vn 0.2245 -0.6750 0.7028
vn 0.2054 0.7378 0.6430
vn -0.2580 0.0886 0.9621
vn 0.3031 0.0886 0.9488
vn -0.7372 0.0886 0.6699
vn -0.9823 0.0886 0.1650
vn -0.9156 0.0886 -0.3923
vn -0.5581 0.0886 -0.8250
vn -0.0235 0.0886 -0.9958
vn 0.5186 0.0886 -0.8504
vn 0.8960 0.0886 -0.4350
vn 0.9890 0.0886 0.1185
vn 0.7679 0.0886 0.6344
vn -0.2297 -0.7071 0.6688
vn -0.2297 0.7071 0.6688
vn -0.5548 -0.7071 0.4384
vn -0.5548 0.7071 0.4384
vn -0.7037 -0.7071 0.0689
vn -0.7037 0.7071 0.0689
vn -0.6293 -0.7071 -0.3225
vn -0.6293 0.7071 -0.3225
vn -0.3550 -0.7071 -0.6115
vn -0.3550 0.7071 -0.6115
vn 0.0320 -0.7071 -0.7064
vn 0.0320 0.7071 -0.7064
vn 0.4088 -0.7071 -0.5770
vn 0.4088 0.7071 -0.5770
vn 0.6558 -0.7071 -0.2643
vn 0.6558 0.7071 -0.2643
vn 0.6946 -0.7071 0.1322
vn 0.6946 0.7071 0.1322
vn 0.5129 -0.7071 0.4868
vn 0.5129 0.7071 0.4868
vn 0.1683 -0.7071 0.6868
vn 0.1683 0.7071 0.6868
vn -0.3249 -0.0000 0.9458
vn 0.2380 -0.0000 0.9713
vn -0.7846 -0.0000 0.6200
vn -0.9952 -0.0000 0.0974
vn -0.8899 -0.0000 -0.4561
vn -0.5020 -0.0000 -0.8649
vn 0.0452 -0.0000 -0.9990
vn 0.5781 -0.0000 -0.8159
vn 0.9275 -0.0000 -0.3738
vn 0.9824 -0.0000 0.1870
vn 0.7253 -0.0000 0.6884
vn -0.2259 -0.7071 0.6701
vn -0.2259 0.7071 0.6701
vn -0.5523 -0.7071 0.4416
vn -0.5523 0.7071 0.4416
vn -0.7033 -0.7071 0.0729
vn -0.7033 0.7071 0.0729
vn -0.6311 -0.7071 -0.3189
vn -0.6311 0.7071 -0.3189
vn -0.3585 -0.7071 -0.6095
vn -0.3585 0.7071 -0.6095
vn 0.0280 -0.7071 -0.7066
vn 0.0280 0.7071 -0.7066
vn 0.4055 -0.7071 -0.5793
vn 0.4055 0.7071 -0.5793
vn 0.6543 -0.7071 -0.2681
vn 0.6543 0.7071 -0.2681
vn 0.6954 -0.7071 0.1282
vn 0.6954 0.7071 0.1282
vn 0.5157 -0.7071 0.4838
vn 0.5157 0.7071 0.4838
vn 0.1722 -0.7071 0.6858
vn 0.1722 0.7071 0.6858
vn -0.3195 -0.0000 0.9476
vn 0.2436 -0.0000 0.9699
vn -0.7811 -0.0000 0.6245
vn -0.9947 -0.0000 0.1031
vn -0.8925 -0.0000 -0.4511
vn -0.5070 -0.0000 -0.8620
vn 0.0395 -0.0000 -0.9992
vn 0.5735 -0.0000 -0.8192
vn 0.9253 -0.0000 -0.3791
vn 0.9834 -0.0000 0.1813
vn 0.7293 -0.0000 0.6842
vn 0.0636 -0.9683 -0.2416
vn 0.0472 0.9621 -0.2686
vn 0.0600 -0.9612 0.2694
vn 0.0436 0.9692 0.2424
vn -0.0436 -0.9692 -0.2424
vn -0.0600 0.9612 -0.2694
vn -0.0472 -0.9621 0.2686
vn -0.0636 0.9683 0.2416
vn 0.0640 -0.9978 0.0143
vn 0.2123 -0.0119 -0.9771
vn 0.0470 0.9988 -0.0136
vn 0.1985 0.0154 0.9800
vn 0.0064 -0.9630 0.2694
vn -0.0100 0.9701 0.2423
vn -0.2123 0.0119 0.9771
vn -0.0470 -0.9988 0.0136
vn -0.0640 0.9978 -0.0143
vn -0.1985 -0.0154 -0.9800
vn 0.0100 -0.9701 -0.2423
vn -0.0064 0.9630 -0.2694
vn 0.0085 -0.9999 0.0140
vn 0.9999 0.0086 0.0069
vn 0.0070 -0.0139 -0.9999
vn -0.0085 0.9999 -0.0140
vn -0.0070 0.0139 0.9999
vn -0.9999 -0.0086 -0.0069
vn -0.7245 0.6755 0.1368
vn -0.6153 0.7374 -0.2788
vn 0.7301 -0.6755 0.1028
vn -0.3710 0.6750 -0.6377
vn 0.7249 0.6750 0.1372
vn -0.7276 -0.6751 0.1222
vn -0.6781 -0.6750 -0.2906
vn -0.3782 0.7378 -0.5591
vn 0.5688 -0.6751 0.4699
vn 0.5205 0.7378 0.4299
vn -0.7034 0.7071 0.0729
vn -0.6311 -0.7071 -0.3190
vt 1.256637 0.373731
vt 1.022936 0.368750
vt 1.256637 0.368750
vt 1.256637 0.626269
vt 1.023591 0.631250
vt 1.023702 0.626269
vt 0.791266 0.373731
vt 1.023108 0.373731
vt 0.792064 0.631250
vt 0.792247 0.626269
vt 0.562161 0.373731
vt 0.790984 0.368750
vt 0.563009 0.631250
vt 0.563204 0.626269
vt 0.335898 0.373731
vt 0.561863 0.368750
vt 0.336532 0.631250
vt 0.336677 0.626269
vt 0.111714 0.373731
vt 0.335676 0.368750
vt 0.112001 0.626269
vt 0.111947 0.631250
vt 2.401560 0.373731
vt 2.624906 0.368750
vt 2.624988 0.373731
vt 2.625275 0.626269
vt 2.401327 0.631250
vt 2.401273 0.626269
vt 2.177376 0.373731
vt 2.401642 0.368750
vt 2.176597 0.626269
vt 2.176742 0.631250
vt 1.951113 0.373731
vt 2.177598 0.368750
vt 1.950265 0.631250
vt 1.950070 0.626269
vt 1.722008 0.373731
vt 1.951411 0.368750
vt 1.721210 0.631250
vt 1.721027 0.626269
vt 1.490167 0.373731
vt 1.722290 0.368750
vt 1.489572 0.626269
vt 1.489683 0.631250
vt 1.490337 0.368750
vt 1.256637 0.631250
vt 3.076283 0.631250
vt 1.023591 0.368750
vt 1.022936 0.631250
vt 1.023108 0.626269
vt 1.023702 0.373731
vt 0.792064 0.368750
vt 0.790984 0.631250
vt 0.791266 0.626269
vt 0.563204 0.373731
vt 0.792247 0.373731
vt 0.561863 0.631250
vt 0.562161 0.626269
vt 0.336677 0.373731
vt 0.563009 0.368750
vt 0.335676 0.631250
vt 0.335898 0.626269
vt 0.111947 0.368750
vt 0.336532 0.368750
vt 0.111714 0.626269
vt 0.111632 0.631250
vt 2.401273 0.373731
vt 2.625221 0.368750
vt 2.625275 0.373731
vt 2.624988 0.626269
vt 2.401642 0.631250
vt 2.401560 0.626269
vt 2.176597 0.373731
vt 2.401327 0.368750
vt 2.177376 0.626269
vt 2.177598 0.631250
vt 1.950070 0.373731
vt 2.176742 0.368750
vt 1.951411 0.631250
vt 1.951113 0.626269
vt 1.721027 0.373731
vt 1.950265 0.368750
vt 1.722290 0.631250
vt 1.722008 0.626269
vt 1.489572 0.373731
vt 1.721210 0.368750
vt 1.490337 0.631250
vt 1.490167 0.626269
vt 1.489683 0.368750
vt 3.076283 0.368750
vt 3.075137 0.631250
vt 0.112001 0.373731
vt 1.044176 0.489250
vt 1.281770 0.486250
vt 1.281770 0.489250
vt 1.281770 0.510750
vt 1.044104 0.513750
vt 1.044176 0.510750
vt 0.808092 0.489250
vt 1.044104 0.486250
vt 0.807973 0.513750
vt 0.808092 0.510750
vt 0.574468 0.489250
vt 0.807973 0.486250
vt 0.574341 0.513750
vt 0.574468 0.510750
vt 0.343411 0.489250
vt 0.574341 0.486250
vt 0.343316 0.513750
vt 0.343411 0.510750
vt 0.114206 0.486250
vt 0.343316 0.486250
vt 0.114206 0.513750
vt 0.114241 0.510750
vt 2.449299 0.489250
vt 2.677746 0.486250
vt 2.677781 0.489250
vt 2.677781 0.510750
vt 2.449334 0.513750
vt 2.449299 0.510750
vt 2.220129 0.489250
vt 2.449334 0.486250
vt 2.220129 0.510750
vt 2.220224 0.513750
vt 1.989072 0.489250
vt 2.220224 0.486250
vt 1.989072 0.510750
vt 1.989198 0.513750
vt 1.755448 0.489250
vt 1.989198 0.486250
vt 1.755566 0.513750
vt 1.755448 0.510750
vt 1.519364 0.489250
vt 1.755566 0.486250
vt 1.519364 0.510750
vt 1.519436 0.513750
vt 1.519436 0.486250
vt 1.281770 0.513750
vt 3.137881 0.513750
vt 0.114241 0.489250
vt 2.677746 0.513750
vt 0.869645 0.394980
vt 1.068141 0.390000
vt 1.068141 0.394980
vt 0.870147 0.605020
vt 1.068141 0.610000
vt 0.870036 0.610000
vt 0.672583 0.394980
vt 0.869474 0.390000
vt 0.673227 0.610000
vt 0.673410 0.605020
vt 0.477844 0.394980
vt 0.672299 0.390000
vt 0.478528 0.610000
vt 0.478723 0.605020
vt 0.285519 0.394980
vt 0.477544 0.390000
vt 0.286030 0.610000
vt 0.286176 0.605020
vt 0.094959 0.394980
vt 0.285295 0.390000
vt 0.095147 0.610000
vt 0.095201 0.605020
vt 2.041324 0.394980
vt 2.231160 0.390000
vt 2.231242 0.394980
vt 2.041082 0.605020
vt 2.231430 0.610000
vt 2.041136 0.610000
vt 1.850988 0.390000
vt 2.041406 0.390000
vt 1.850253 0.610000
vt 1.850107 0.605020
vt 1.850764 0.394980
vt 1.658739 0.390000
vt 1.657755 0.610000
vt 1.657560 0.605020
vt 1.658439 0.394980
vt 1.463984 0.390000
vt 1.463057 0.610000
vt 1.462873 0.605020
vt 1.266638 0.394980
vt 1.463700 0.394980
vt 1.266136 0.605020
vt 1.266247 0.610000
vt 1.266810 0.390000
vt 1.068141 0.605020
vt 2.614811 0.610000
vt 2.231484 0.605020
vt 0.870036 0.390000
vt 0.869474 0.610000
vt 0.869645 0.605020
vt 0.870147 0.394980
vt 0.673227 0.390000
vt 0.672299 0.610000
vt 0.672583 0.605020
vt 0.478723 0.394980
vt 0.673410 0.394980
vt 0.477544 0.610000
vt 0.477844 0.605020
vt 0.286030 0.390000
vt 0.478528 0.390000
vt 0.285295 0.610000
vt 0.285519 0.605020
vt 0.095201 0.394980
vt 0.286176 0.394980
vt 0.094877 0.610000
vt 0.094959 0.605020
vt 2.041082 0.394980
vt 2.231430 0.390000
vt 2.231484 0.394980
vt 2.231242 0.605020
vt 2.041406 0.610000
vt 2.041324 0.605020
vt 1.850107 0.394980
vt 2.041136 0.390000
vt 1.850988 0.610000
vt 1.850764 0.605020
vt 1.657560 0.394980
vt 1.850253 0.390000
vt 1.658739 0.610000
vt 1.658439 0.605020
vt 1.462873 0.394980
vt 1.657755 0.390000
vt 1.463984 0.610000
vt 1.463700 0.605020
vt 1.266136 0.394980
vt 1.463057 0.390000
vt 1.266810 0.610000
vt 1.266638 0.605020
vt 1.266247 0.390000
vt 2.613827 0.610000
vt 0.887550 0.489250
vt 1.089504 0.486250
vt 1.089504 0.489250
vt 0.887550 0.510750
vt 1.089504 0.513750
vt 0.887477 0.513750
vt 0.686759 0.486250
vt 0.887477 0.486250
vt 0.686759 0.513750
vt 0.686878 0.510750
vt 0.488298 0.489250
vt 0.686878 0.489250
vt 0.488171 0.513750
vt 0.488298 0.510750
vt 0.291899 0.489250
vt 0.488171 0.486250
vt 0.291899 0.510750
vt 0.291804 0.513750
vt 0.097105 0.489250
vt 0.291804 0.486250
vt 0.097105 0.510750
vt 0.097070 0.513750
vt 2.081904 0.489250
vt 2.276078 0.486250
vt 2.276114 0.489250
vt 2.276114 0.510750
vt 2.081939 0.513750
vt 2.081904 0.510750
vt 1.887110 0.489250
vt 2.081939 0.486250
vt 1.887205 0.513750
vt 1.887110 0.510750
vt 1.690711 0.489250
vt 1.887205 0.486250
vt 1.690711 0.510750
vt 1.690838 0.513750
vt 1.492130 0.489250
vt 1.690838 0.486250
vt 1.492250 0.513750
vt 1.492130 0.510750
vt 1.291531 0.486250
vt 1.492250 0.486250
vt 1.291531 0.513750
vt 1.291459 0.510750
vt 1.291459 0.489250
vt 1.089504 0.510750
vt 2.667180 0.513750
vt 2.276078 0.513750
vt -0.287320 0.334760
vt -0.287320 0.330000
vt -0.310000 0.334760
vt -0.287320 0.665240
vt -0.310000 0.665240
vt -0.287320 0.670000
vt 1.287320 0.334760
vt 1.310000 0.334760
vt 1.287320 0.330000
vt 1.287320 0.665240
vt 1.287320 0.670000
vt 1.310000 0.665240
vt -0.287320 0.456260
vt -0.310000 0.543740
vt -0.310000 0.456260
vt -0.287320 0.543740
vt 1.310000 0.543740
vt 1.287320 0.456260
vt 1.287320 0.543740
vt 0.334760 0.543740
vt 0.665240 0.456260
vt 0.334760 0.456260
vt 0.665240 0.543740
vt 0.111632 0.368750
vt 2.625221 0.631250
vt 3.075137 0.368750
vt 2.848950 0.368750
vt 2.849806 0.631250
vt 2.624906 0.631250
vt 2.849806 0.368750
vt 2.848950 0.631250
vt 3.137881 0.486250
vt 2.906856 0.486250
vt 2.906856 0.513750
vt 0.094877 0.390000
vt 2.613827 0.390000
vt 2.421578 0.390000
vt 2.422312 0.610000
vt 0.095147 0.390000
vt 2.231160 0.610000
vt 2.614811 0.390000
vt 2.422312 0.390000
vt 2.421578 0.610000
vt 0.097070 0.486250
vt 2.667180 0.486250
vt 2.470813 0.486250
vt 2.470813 0.513750
vt 1.310000 0.456260
s 0
usemtl wood
f 2/1/1 5/2/1 1/3/1
f 4/4/2 7/5/2 8/6/2
f 10/7/3 5/2/3 6/8/3
f 8/6/4 11/9/4 12/10/4
f 14/11/5 9/12/5 10/7/5
f 12/10/6 15/13/6 16/14/6
f 18/15/7 13/16/7 14/11/7
f 16/14/8 19/17/8 20/18/8
f 22/19/9 17/20/9 18/15/9
f 24/21/10 19/17/10 23/22/10
f 26/23/11 21/24/11 22/25/11
f 24/26/12 27/27/12 28/28/12
f 30/29/13 25/30/13 26/23/13
f 32/31/14 27/27/14 31/32/14
f 34/33/15 29/34/15 30/29/15
f 32/31/16 35/35/16 36/36/16
f 38/37/17 33/38/17 34/33/17
f 36/36/18 39/39/18 40/40/18
f 42/41/19 37/42/19 38/37/19
f 44/43/20 39/39/20 43/44/20
f 2/1/21 41/45/21 42/41/21
f 4/4/22 43/44/22 3/46/22
f 5/2/23 21/24/23 37/42/23
f 4/4/24 6/8/24 2/1/24
f 44/43/25 2/1/25 42/41/25
f 3/46/26 31/32/26 15/47/26
f 8/6/27 10/7/27 6/8/27
f 12/10/28 14/11/28 10/7/28
f 16/14/29 18/15/29 14/11/29
f 20/18/30 22/19/30 18/15/30
f 24/26/31 26/23/31 22/25/31
f 28/28/32 30/29/32 26/23/32
f 32/31/33 34/33/33 30/29/33
f 36/36/34 38/37/34 34/33/34
f 40/40/35 42/41/35 38/37/35
f 46/1/36 49/48/36 45/3/36
f 48/4/37 51/49/37 52/50/37
f 50/51/38 53/52/38 49/48/38
f 52/50/39 55/53/39 56/54/39
f 58/55/40 53/52/40 54/56/40
f 56/54/41 59/57/41 60/58/41
f 62/59/42 57/60/42 58/55/42
f 60/58/43 63/61/43 64/62/43
f 62/59/44 65/63/44 61/64/44
f 68/65/45 63/61/45 67/66/45
f 70/67/46 65/68/46 66/69/46
f 68/70/47 71/71/47 72/72/47
f 74/73/48 69/74/48 70/67/48
f 76/75/49 71/71/49 75/76/49
f 78/77/50 73/78/50 74/73/50
f 76/75/51 79/79/51 80/80/51
f 82/81/52 77/82/52 78/77/52
f 80/80/53 83/83/53 84/84/53
f 86/85/54 81/86/54 82/81/54
f 84/84/55 87/87/55 88/88/55
f 46/1/56 85/89/56 86/85/56
f 48/4/57 87/87/57 47/46/57
f 57/90/23 65/68/23 81/86/23
f 48/4/58 50/51/58 46/1/58
f 88/88/59 46/1/59 86/85/59
f 47/46/26 75/76/26 59/91/26
f 52/50/60 54/56/60 50/51/60
f 56/54/61 58/55/61 54/56/61
f 60/58/62 62/59/62 58/55/62
f 64/62/63 66/92/63 62/59/63
f 68/70/64 70/67/64 66/69/64
f 72/72/65 74/73/65 70/67/65
f 76/75/66 78/77/66 74/73/66
f 80/80/67 82/81/67 78/77/67
f 84/84/68 86/85/68 82/81/68
f 94/93/69 89/94/69 90/95/69
f 92/96/70 95/97/70 96/98/70
f 98/99/71 93/100/71 94/93/71
f 96/98/72 99/101/72 100/102/72
f 102/103/73 97/104/73 98/99/73
f 100/102/74 103/105/74 104/106/74
f 106/107/75 101/108/75 102/103/75
f 104/106/76 107/109/76 108/110/76
f 106/107/77 109/111/77 105/112/77
f 108/110/78 111/113/78 112/114/78
f 114/115/79 109/116/79 110/117/79
f 112/118/80 115/119/80 116/120/80
f 118/121/81 113/122/81 114/115/81
f 120/123/82 115/119/82 119/124/82
f 122/125/83 117/126/83 118/121/83
f 124/127/84 119/124/84 123/128/84
f 126/129/85 121/130/85 122/125/85
f 124/127/86 127/131/86 128/132/86
f 130/133/87 125/134/87 126/129/87
f 132/135/88 127/131/88 131/136/88
f 90/95/89 129/137/89 130/133/89
f 92/96/90 131/136/90 91/138/90
f 109/116/23 117/126/23 125/134/23
f 92/96/91 94/93/91 90/95/91
f 132/135/92 90/95/92 130/133/92
f 91/138/26 119/124/26 103/139/26
f 96/98/93 98/99/93 94/93/93
f 100/102/94 102/103/94 98/99/94
f 104/106/95 106/107/95 102/103/95
f 108/110/96 110/140/96 106/107/96
f 112/118/97 114/115/97 110/117/97
f 116/120/98 118/121/98 114/115/98
f 120/123/99 122/125/99 118/121/99
f 124/127/100 126/129/100 122/125/100
f 128/132/101 130/133/101 126/129/101
f 134/95/102 137/100/102 133/94/102
f 136/96/103 139/97/103 140/98/103
f 138/93/104 141/104/104 137/100/104
f 140/98/105 143/101/105 144/102/105
f 146/103/106 141/104/106 142/99/106
f 144/102/107 147/105/107 148/106/107
f 146/103/108 149/112/108 145/108/108
f 148/106/109 151/109/109 152/110/109
f 150/107/110 153/111/110 149/112/110
f 152/110/111 155/113/111 156/114/111
f 158/115/112 153/116/112 154/117/112
f 156/118/113 159/119/113 160/120/113
f 162/121/114 157/122/114 158/115/114
f 164/123/115 159/119/115 163/124/115
f 166/125/116 161/126/116 162/121/116
f 164/123/117 167/128/117 168/127/117
f 166/125/118 169/134/118 165/130/118
f 168/127/119 171/131/119 172/132/119
f 174/133/120 169/134/120 170/129/120
f 172/132/121 175/136/121 176/135/121
f 174/133/122 133/94/122 173/137/122
f 176/135/123 135/138/123 136/96/123
f 153/116/23 161/126/23 169/134/23
f 136/96/124 138/93/124 134/95/124
f 176/135/125 134/95/125 174/133/125
f 163/124/26 155/141/26 147/139/26
f 140/98/126 142/99/126 138/93/126
f 144/102/127 146/103/127 142/99/127
f 148/106/128 150/107/128 146/103/128
f 152/110/129 154/140/129 150/107/129
f 156/118/130 158/115/130 154/117/130
f 160/120/131 162/121/131 158/115/131
f 164/123/132 166/125/132 162/121/132
f 168/127/133 170/129/133 166/125/133
f 172/132/134 174/133/134 170/129/134
f 182/142/135 177/143/135 178/144/135
f 184/145/136 179/146/136 183/147/136
f 186/148/137 181/149/137 182/142/137
f 184/145/138 187/150/138 188/151/138
f 190/152/139 185/153/139 186/148/139
f 188/151/140 191/154/140 192/155/140
f 194/156/141 189/157/141 190/152/141
f 192/155/142 195/158/142 196/159/142
f 198/160/143 193/161/143 194/156/143
f 196/159/144 199/162/144 200/163/144
f 202/164/145 197/165/145 198/166/145
f 204/167/146 199/168/146 203/169/146
f 202/164/147 205/170/147 201/171/147
f 204/167/148 207/172/148 208/173/148
f 206/174/149 209/175/149 205/170/149
f 208/173/150 211/176/150 212/177/150
f 210/178/151 213/179/151 209/175/151
f 212/177/152 215/180/152 216/181/152
f 218/182/153 213/179/153 214/183/153
f 220/184/154 215/180/154 219/185/154
f 178/144/155 217/186/155 218/182/155
f 180/187/156 219/185/156 179/146/156
f 181/149/23 197/165/23 213/179/23
f 180/187/157 182/142/157 178/144/157
f 220/184/158 178/144/158 218/182/158
f 215/180/26 207/172/26 191/188/26
f 184/145/159 186/148/159 182/142/159
f 188/151/160 190/152/160 186/148/160
f 192/155/161 194/156/161 190/152/161
f 196/159/162 198/160/162 194/156/162
f 200/189/163 202/164/163 198/166/163
f 204/167/164 206/174/164 202/164/164
f 208/173/165 210/178/165 206/174/165
f 212/177/166 214/183/166 210/178/166
f 216/181/167 218/182/167 214/183/167
f 222/144/168 225/190/168 221/143/168
f 224/187/169 227/191/169 228/192/169
f 226/193/170 229/194/170 225/190/170
f 228/192/171 231/195/171 232/196/171
f 234/197/172 229/194/172 230/198/172
f 232/196/173 235/199/173 236/200/173
f 234/197/174 237/201/174 233/202/174
f 236/200/175 239/203/175 240/204/175
f 242/205/176 237/201/176 238/206/176
f 240/204/177 243/207/177 244/208/177
f 246/209/178 241/210/178 242/211/178
f 244/212/179 247/213/179 248/214/179
f 250/215/180 245/216/180 246/209/180
f 248/214/181 251/217/181 252/218/181
f 254/219/182 249/220/182 250/215/182
f 252/218/183 255/221/183 256/222/183
f 258/223/184 253/224/184 254/219/184
f 256/222/185 259/225/185 260/226/185
f 262/227/186 257/228/186 258/223/186
f 260/226/187 263/229/187 264/230/187
f 222/144/188 261/231/188 262/227/188
f 264/230/189 223/146/189 224/187/189
f 241/210/23 249/220/23 257/228/23
f 224/187/190 226/193/190 222/144/190
f 264/230/191 222/144/191 262/227/191
f 223/146/26 251/217/26 235/232/26
f 228/192/192 230/198/192 226/193/192
f 232/196/193 234/197/193 230/198/193
f 236/200/194 238/206/194 234/197/194
f 240/204/195 242/205/195 238/206/195
f 242/211/196 248/214/196 246/209/196
f 248/214/197 250/215/197 246/209/197
f 252/218/198 254/219/198 250/215/198
f 256/222/199 258/223/199 254/219/199
f 260/226/200 262/227/200 258/223/200
f 270/233/201 265/234/201 266/235/201
f 272/236/202 267/237/202 271/238/202
f 270/233/203 273/239/203 269/240/203
f 272/236/204 275/241/204 276/242/204
f 278/243/205 273/239/205 274/244/205
f 276/242/206 279/245/206 280/246/206
f 282/247/207 277/248/207 278/243/207
f 284/249/208 279/245/208 283/250/208
f 286/251/209 281/252/209 282/247/209
f 288/253/210 283/250/210 287/254/210
f 290/255/211 285/256/211 286/257/211
f 288/258/212 291/259/212 292/260/212
f 294/261/213 289/262/213 290/255/213
f 292/260/214 295/263/214 296/264/214
f 298/265/215 293/266/215 294/261/215
f 300/267/216 295/263/216 299/268/216
f 302/269/217 297/270/217 298/265/217
f 300/267/218 303/271/218 304/272/218
f 302/269/219 305/273/219 301/274/219
f 304/272/220 307/275/220 308/276/220
f 266/235/221 305/273/221 306/277/221
f 268/278/222 307/275/222 267/237/222
f 285/256/23 293/266/23 301/274/23
f 268/278/223 270/233/223 266/235/223
f 308/276/224 266/235/224 306/277/224
f 267/237/26 295/263/26 279/279/26
f 272/236/225 274/244/225 270/233/225
f 276/242/226 278/243/226 274/244/226
f 280/246/227 282/247/227 278/243/227
f 284/249/228 286/251/228 282/247/228
f 288/258/229 290/255/229 286/257/229
f 292/260/230 294/261/230 290/255/230
f 296/264/231 298/265/231 294/261/231
f 300/267/232 302/269/232 298/265/232
f 304/272/233 306/277/233 302/269/233
f 314/233/234 309/234/234 310/235/234
f 312/278/235 315/238/235 316/236/235
f 318/244/236 313/240/236 314/233/236
f 316/236/237 319/241/237 320/242/237
f 318/244/238 321/248/238 317/239/238
f 320/242/239 323/245/239 324/246/239
f 322/243/240 325/252/240 321/248/240
f 324/246/241 327/250/241 328/249/241
f 330/251/242 325/252/242 326/247/242
f 328/249/243 331/254/243 332/253/243
f 334/255/244 329/256/244 330/257/244
f 336/260/245 331/280/245 335/259/245
f 334/255/246 337/266/246 333/262/246
f 336/260/247 339/263/247 340/264/247
f 342/265/248 337/266/248 338/261/248
f 340/264/249 343/268/249 344/267/249
f 346/269/250 341/270/250 342/265/250
f 348/272/251 343/268/251 347/271/251
f 350/277/252 345/274/252 346/269/252
f 348/272/253 351/275/253 352/276/253
f 310/235/254 349/273/254 350/277/254
f 352/276/255 311/237/255 312/278/255
f 313/240/23 329/256/23 345/274/23
f 312/278/256 314/233/256 310/235/256
f 352/276/257 310/235/257 350/277/257
f 311/237/26 339/263/26 323/279/26
f 316/236/258 318/244/258 314/233/258
f 320/242/259 322/243/259 318/244/259
f 324/246/260 326/247/260 322/243/260
f 328/249/261 330/251/261 326/247/261
f 332/258/262 334/255/262 330/257/262
f 336/260/263 338/261/263 334/255/263
f 340/264/264 342/265/264 338/261/264
f 344/267/265 346/269/265 342/265/265
f 348/272/266 350/277/266 346/269/266
f 353/281/267 354/282/267 355/283/267
f 356/282/268 357/281/268 358/283/268
f 359/284/269 360/285/269 361/286/269
f 362/284/270 363/286/270 364/285/270
f 365/287/271 366/288/271 367/289/271
f 368/287/272 369/289/272 370/288/272
f 371/290/273 372/291/273 373/292/273
f 374/290/274 375/292/274 376/291/274
f 353/281/275 360/285/275 359/284/275
f 354/293/276 358/294/276 355/295/276
f 362/284/277 358/283/277 357/281/277
f 363/296/278 360/295/278 364/294/278
f 359/284/279 372/291/279 371/290/279
f 362/284/280 376/291/280 363/286/280
f 375/297/281 372/298/281 376/299/281
f 365/287/282 373/292/282 366/288/282
f 374/290/283 370/288/283 375/292/283
f 367/298/284 370/297/284 369/299/284
f 365/287/285 354/282/285 353/281/285
f 357/281/286 369/289/286 368/287/286
f 371/290/287 353/281/287 359/284/287
f 358/300/288 360/301/288 355/302/288
f 369/299/289 354/293/289 367/298/289
f 362/284/290 368/287/290 374/290/290
f 363/296/291 372/298/291 361/293/291
f 375/303/292 366/302/292 373/301/292
f 2/1/1 6/8/1 5/2/1
f 4/4/2 3/46/2 7/5/2
f 10/7/3 9/12/3 5/2/3
f 8/6/4 7/5/4 11/9/4
f 14/11/5 13/16/5 9/12/5
f 12/10/293 11/9/293 15/13/293
f 18/15/7 17/20/7 13/16/7
f 16/14/8 15/13/8 19/17/8
f 22/19/9 21/304/9 17/20/9
f 24/21/10 20/18/10 19/17/10
f 26/23/11 25/30/11 21/24/11
f 24/26/12 23/305/12 27/27/12
f 30/29/13 29/34/13 25/30/13
f 32/31/14 28/28/14 27/27/14
f 34/33/15 33/38/15 29/34/15
f 32/31/16 31/32/16 35/35/16
f 38/37/17 37/42/17 33/38/17
f 36/36/18 35/35/18 39/39/18
f 42/41/19 41/45/19 37/42/19
f 44/43/20 40/40/20 39/39/20
f 2/1/21 1/3/21 41/45/21
f 4/4/22 44/43/22 43/44/22
f 41/45/23 1/3/23 37/42/23
f 1/3/23 5/2/23 37/42/23
f 5/2/23 9/12/23 13/306/23
f 13/306/23 17/307/23 21/24/23
f 21/24/23 25/30/23 29/34/23
f 29/34/23 33/38/23 21/24/23
f 33/38/23 37/42/23 21/24/23
f 5/2/23 13/306/23 21/24/23
f 4/4/24 8/6/24 6/8/24
f 44/43/25 4/4/25 2/1/25
f 11/9/26 7/5/26 3/46/26
f 3/46/26 43/44/26 39/39/26
f 39/39/26 35/35/26 31/32/26
f 31/32/26 27/27/26 23/305/26
f 23/305/26 19/308/26 15/47/26
f 15/47/26 11/9/26 3/46/26
f 3/46/26 39/39/26 31/32/26
f 31/32/26 23/305/26 15/47/26
f 8/6/27 12/10/27 10/7/27
f 12/10/28 16/14/28 14/11/28
f 16/14/29 20/18/29 18/15/29
f 20/18/30 24/21/30 22/19/30
f 24/26/31 28/28/31 26/23/31
f 28/28/32 32/31/32 30/29/32
f 32/31/33 36/36/33 34/33/33
f 36/36/34 40/40/34 38/37/34
f 40/40/35 44/43/35 42/41/35
f 46/1/36 50/51/36 49/48/36
f 48/4/37 47/46/37 51/49/37
f 50/51/38 54/56/38 53/52/38
f 52/50/39 51/49/39 55/53/39
f 58/55/40 57/60/40 53/52/40
f 56/54/41 55/53/41 59/57/41
f 62/59/42 61/64/42 57/60/42
f 60/58/294 59/57/294 63/61/294
f 62/59/44 66/92/44 65/63/44
f 68/65/45 64/62/45 63/61/45
f 70/67/46 69/74/46 65/68/46
f 68/70/47 67/309/47 71/71/47
f 74/73/48 73/78/48 69/74/48
f 76/75/49 72/72/49 71/71/49
f 78/77/50 77/82/50 73/78/50
f 76/75/51 75/76/51 79/79/51
f 82/81/295 81/86/295 77/82/295
f 80/80/53 79/79/53 83/83/53
f 86/85/54 85/89/54 81/86/54
f 84/84/55 83/83/55 87/87/55
f 46/1/56 45/3/56 85/89/56
f 48/4/57 88/88/57 87/87/57
f 85/89/23 45/3/23 49/48/23
f 49/48/23 53/52/23 57/90/23
f 57/90/23 61/310/23 65/68/23
f 65/68/23 69/74/23 81/86/23
f 69/74/23 73/78/23 81/86/23
f 73/78/23 77/82/23 81/86/23
f 81/86/23 85/89/23 49/48/23
f 49/48/23 57/90/23 81/86/23
f 48/4/58 52/50/58 50/51/58
f 88/88/59 48/4/59 46/1/59
f 55/53/26 51/49/26 47/46/26
f 47/46/26 87/87/26 83/83/26
f 83/83/26 79/79/26 47/46/26
f 79/79/26 75/76/26 47/46/26
f 75/76/26 71/71/26 59/91/26
f 71/71/26 67/309/26 59/91/26
f 67/309/26 63/311/26 59/91/26
f 59/91/26 55/53/26 47/46/26
f 52/50/60 56/54/60 54/56/60
f 56/54/61 60/58/61 58/55/61
f 60/58/62 64/62/62 62/59/62
f 64/62/63 68/65/63 66/92/63
f 68/70/64 72/72/64 70/67/64
f 72/72/65 76/75/65 74/73/65
f 76/75/66 80/80/66 78/77/66
f 80/80/67 84/84/67 82/81/67
f 84/84/68 88/88/68 86/85/68
f 94/93/69 93/100/69 89/94/69
f 92/96/70 91/138/70 95/97/70
f 98/99/71 97/104/71 93/100/71
f 96/98/72 95/97/72 99/101/72
f 102/103/73 101/108/73 97/104/73
f 100/102/74 99/101/74 103/105/74
f 106/107/75 105/112/75 101/108/75
f 104/106/76 103/105/76 107/109/76
f 106/107/77 110/140/77 109/111/77
f 108/110/78 107/109/78 111/113/78
f 114/115/79 113/122/79 109/116/79
f 112/118/80 111/141/80 115/119/80
f 118/121/81 117/126/81 113/122/81
f 120/123/82 116/120/82 115/119/82
f 122/125/83 121/130/83 117/126/83
f 124/127/84 120/123/84 119/124/84
f 126/129/85 125/134/85 121/130/85
f 124/127/86 123/128/86 127/131/86
f 130/133/87 129/137/87 125/134/87
f 132/135/88 128/132/88 127/131/88
f 90/95/89 89/94/89 129/137/89
f 92/96/90 132/135/90 131/136/90
f 129/137/23 89/94/23 93/100/23
f 93/100/23 97/104/23 101/312/23
f 101/312/23 105/313/23 109/116/23
f 109/116/23 113/122/23 117/126/23
f 117/126/23 121/130/23 125/134/23
f 125/134/23 129/137/23 93/100/23
f 93/100/23 101/312/23 125/134/23
f 101/312/23 109/116/23 125/134/23
f 92/96/91 96/98/91 94/93/91
f 132/135/92 92/96/92 90/95/92
f 99/101/26 95/97/26 91/138/26
f 91/138/26 131/136/26 127/131/26
f 127/131/26 123/128/26 119/124/26
f 119/124/26 115/119/26 111/141/26
f 111/141/26 107/314/26 103/139/26
f 103/139/26 99/101/26 91/138/26
f 91/138/26 127/131/26 119/124/26
f 119/124/26 111/141/26 103/139/26
f 96/98/93 100/102/93 98/99/93
f 100/102/94 104/106/94 102/103/94
f 104/106/95 108/110/95 106/107/95
f 108/110/96 112/114/96 110/140/96
f 112/118/97 116/120/97 114/115/97
f 116/120/98 120/123/98 118/121/98
f 120/123/99 124/127/99 122/125/99
f 124/127/100 128/132/100 126/129/100
f 128/132/101 132/135/101 130/133/101
f 134/95/102 138/93/102 137/100/102
f 136/96/103 135/138/103 139/97/103
f 138/93/104 142/99/104 141/104/104
f 140/98/105 139/97/105 143/101/105
f 146/103/106 145/108/106 141/104/106
f 144/102/107 143/101/107 147/105/107
f 146/103/108 150/107/108 149/112/108
f 148/106/109 147/105/109 151/109/109
f 150/107/110 154/140/110 153/111/110
f 152/110/111 151/109/111 155/113/111
f 158/115/112 157/122/112 153/116/112
f 156/118/113 155/141/113 159/119/113
f 162/121/114 161/126/114 157/122/114
f 164/123/115 160/120/115 159/119/115
f 166/125/116 165/130/116 161/126/116
f 164/123/117 163/124/117 167/128/117
f 166/125/118 170/129/118 169/134/118
f 168/127/119 167/128/119 171/131/119
f 174/133/120 173/137/120 169/134/120
f 172/132/121 171/131/121 175/136/121
f 174/133/122 134/95/122 133/94/122
f 176/135/123 175/136/123 135/138/123
f 173/137/23 133/94/23 169/134/23
f 133/94/23 137/100/23 169/134/23
f 137/100/23 141/104/23 145/312/23
f 145/312/23 149/313/23 153/116/23
f 153/116/23 157/122/23 161/126/23
f 161/126/23 165/130/23 169/134/23
f 137/100/23 145/312/23 169/134/23
f 145/312/23 153/116/23 169/134/23
f 136/96/124 140/98/124 138/93/124
f 176/135/125 136/96/125 134/95/125
f 143/101/26 139/97/26 135/138/26
f 135/138/26 175/136/26 171/131/26
f 171/131/26 167/128/26 163/124/26
f 163/124/26 159/119/26 155/141/26
f 155/141/26 151/314/26 147/139/26
f 147/139/26 143/101/26 135/138/26
f 135/138/26 171/131/26 147/139/26
f 171/131/26 163/124/26 147/139/26
f 140/98/126 144/102/126 142/99/126
f 144/102/127 148/106/127 146/103/127
f 148/106/128 152/110/128 150/107/128
f 152/110/129 156/114/129 154/140/129
f 156/118/130 160/120/130 158/115/130
f 160/120/131 164/123/131 162/121/131
f 164/123/132 168/127/132 166/125/132
f 168/127/133 172/132/133 170/129/133
f 172/132/134 176/135/134 174/133/134
f 182/142/135 181/149/135 177/143/135
f 184/145/136 180/187/136 179/146/136
f 186/148/137 185/153/137 181/149/137
f 184/145/138 183/147/138 187/150/138
f 190/152/139 189/157/139 185/153/139
f 188/151/140 187/150/140 191/154/140
f 194/156/141 193/161/141 189/157/141
f 192/155/142 191/154/142 195/158/142
f 198/160/143 197/315/143 193/161/143
f 196/159/296 195/158/296 199/162/296
f 202/164/145 201/171/145 197/165/145
f 204/167/146 200/189/146 199/168/146
f 202/164/147 206/174/147 205/170/147
f 204/167/148 203/169/148 207/172/148
f 206/174/149 210/178/149 209/175/149
f 208/173/150 207/172/150 211/176/150
f 210/178/151 214/183/151 213/179/151
f 212/177/297 211/176/297 215/180/297
f 218/182/153 217/186/153 213/179/153
f 220/184/154 216/181/154 215/180/154
f 178/144/155 177/143/155 217/186/155
f 180/187/156 220/184/156 219/185/156
f 217/186/23 177/143/23 181/149/23
f 181/149/23 185/153/23 197/165/23
f 185/153/23 189/316/23 197/165/23
f 189/316/23 193/317/23 197/165/23
f 197/165/23 201/171/23 205/170/23
f 205/170/23 209/175/23 213/179/23
f 213/179/23 217/186/23 181/149/23
f 197/165/23 205/170/23 213/179/23
f 180/187/157 184/145/157 182/142/157
f 220/184/158 180/187/158 178/144/158
f 187/150/26 183/147/26 191/188/26
f 183/147/26 179/146/26 191/188/26
f 179/146/26 219/185/26 215/180/26
f 215/180/26 211/176/26 207/172/26
f 207/172/26 203/169/26 191/188/26
f 203/169/26 199/168/26 191/188/26
f 199/168/26 195/318/26 191/188/26
f 179/146/26 215/180/26 191/188/26
f 184/145/159 188/151/159 186/148/159
f 188/151/160 192/155/160 190/152/160
f 192/155/161 196/159/161 194/156/161
f 196/159/162 200/163/162 198/160/162
f 200/189/163 204/167/163 202/164/163
f 204/167/164 208/173/164 206/174/164
f 208/173/165 212/177/165 210/178/165
f 212/177/166 216/181/166 214/183/166
f 216/181/167 220/184/167 218/182/167
f 222/144/168 226/193/168 225/190/168
f 224/187/169 223/146/169 227/191/169
f 226/193/170 230/198/170 229/194/170
f 228/192/171 227/191/171 231/195/171
f 234/197/298 233/202/298 229/194/298
f 232/196/173 231/195/173 235/199/173
f 234/197/299 238/206/299 237/201/299
f 236/200/175 235/199/175 239/203/175
f 242/205/176 241/319/176 237/201/176
f 240/204/300 239/203/300 243/207/300
f 246/209/178 245/216/178 241/210/178
f 244/212/179 243/320/179 247/213/179
f 250/215/180 249/220/180 245/216/180
f 248/214/181 247/213/181 251/217/181
f 254/219/182 253/224/182 249/220/182
f 252/218/183 251/217/183 255/221/183
f 258/223/184 257/228/184 253/224/184
f 256/222/185 255/221/185 259/225/185
f 262/227/301 261/231/301 257/228/301
f 260/226/302 259/225/302 263/229/302
f 222/144/188 221/143/188 261/231/188
f 264/230/189 263/229/189 223/146/189
f 261/231/23 221/143/23 225/190/23
f 225/190/23 229/194/23 233/321/23
f 233/321/23 237/322/23 241/210/23
f 241/210/23 245/216/23 249/220/23
f 249/220/23 253/224/23 257/228/23
f 257/228/23 261/231/23 225/190/23
f 225/190/23 233/321/23 257/228/23
f 233/321/23 241/210/23 257/228/23
f 224/187/190 228/192/190 226/193/190
f 264/230/191 224/187/191 222/144/191
f 231/195/26 227/191/26 235/232/26
f 227/191/26 223/146/26 235/232/26
f 223/146/26 263/229/26 259/225/26
f 259/225/26 255/221/26 251/217/26
f 251/217/26 247/213/26 243/320/26
f 243/320/26 239/323/26 235/232/26
f 223/146/26 259/225/26 251/217/26
f 251/217/26 243/320/26 235/232/26
f 228/192/192 232/196/192 230/198/192
f 232/196/193 236/200/193 234/197/193
f 236/200/194 240/204/194 238/206/194
f 240/204/195 244/208/195 242/205/195
f 242/211/196 244/212/196 248/214/196
f 248/214/197 252/218/197 250/215/197
f 252/218/198 256/222/198 254/219/198
f 256/222/199 260/226/199 258/223/199
f 260/226/200 264/230/200 262/227/200
f 270/233/201 269/240/201 265/234/201
f 272/236/202 268/278/202 267/237/202
f 270/233/203 274/244/203 273/239/203
f 272/236/204 271/238/204 275/241/204
f 278/243/205 277/248/205 273/239/205
f 276/242/206 275/241/206 279/245/206
f 282/247/207 281/252/207 277/248/207
f 284/249/208 280/246/208 279/245/208
f 286/251/209 285/324/209 281/252/209
f 288/253/210 284/249/210 283/250/210
f 290/255/211 289/262/211 285/256/211
f 288/258/212 287/280/212 291/259/212
f 294/261/213 293/266/213 289/262/213
f 292/260/214 291/259/214 295/263/214
f 298/265/215 297/270/215 293/266/215
f 300/267/216 296/264/216 295/263/216
f 302/269/217 301/274/217 297/270/217
f 300/267/218 299/268/218 303/271/218
f 302/269/219 306/277/219 305/273/219
f 304/272/220 303/271/220 307/275/220
f 266/235/221 265/234/221 305/273/221
f 268/278/222 308/276/222 307/275/222
f 305/273/23 265/234/23 269/240/23
f 269/240/23 273/239/23 277/325/23
f 277/325/23 281/326/23 285/256/23
f 285/256/23 289/262/23 293/266/23
f 293/266/23 297/270/23 301/274/23
f 301/274/23 305/273/23 269/240/23
f 269/240/23 277/325/23 301/274/23
f 277/325/23 285/256/23 301/274/23
f 268/278/223 272/236/223 270/233/223
f 308/276/224 268/278/224 266/235/224
f 275/241/26 271/238/26 279/279/26
f 271/238/26 267/237/26 279/279/26
f 267/237/26 307/275/26 295/263/26
f 307/275/26 303/271/26 295/263/26
f 303/271/26 299/268/26 295/263/26
f 295/263/26 291/259/26 287/280/26
f 287/280/26 283/327/26 279/279/26
f 295/263/26 287/280/26 279/279/26
f 272/236/225 276/242/225 274/244/225
f 276/242/226 280/246/226 278/243/226
f 280/246/227 284/249/227 282/247/227
f 284/249/228 288/253/228 286/251/228
f 288/258/229 292/260/229 290/255/229
f 292/260/230 296/264/230 294/261/230
f 296/264/231 300/267/231 298/265/231
f 300/267/232 304/272/232 302/269/232
f 304/272/233 308/276/233 306/277/233
f 314/233/234 313/240/234 309/234/234
f 312/278/235 311/237/235 315/238/235
f 318/244/236 317/239/236 313/240/236
f 316/236/237 315/238/237 319/241/237
f 318/244/238 322/243/238 321/248/238
f 320/242/303 319/241/303 323/245/303
f 322/243/304 326/247/304 325/252/304
f 324/246/241 323/245/241 327/250/241
f 330/251/242 329/324/242 325/252/242
f 328/249/243 327/250/243 331/254/243
f 334/255/244 333/262/244 329/256/244
f 336/260/245 332/258/245 331/280/245
f 334/255/246 338/261/246 337/266/246
f 336/260/247 335/259/247 339/263/247
f 342/265/248 341/270/248 337/266/248
f 340/264/249 339/263/249 343/268/249
f 346/269/250 345/274/250 341/270/250
f 348/272/251 344/267/251 343/268/251
f 350/277/252 349/273/252 345/274/252
f 348/272/253 347/271/253 351/275/253
f 310/235/254 309/234/254 349/273/254
f 352/276/255 351/275/255 311/237/255
f 349/273/23 309/234/23 313/240/23
f 313/240/23 317/239/23 321/325/23
f 321/325/23 325/326/23 313/240/23
f 325/326/23 329/256/23 313/240/23
f 329/256/23 333/262/23 345/274/23
f 333/262/23 337/266/23 345/274/23
f 337/266/23 341/270/23 345/274/23
f 345/274/23 349/273/23 313/240/23
f 312/278/256 316/236/256 314/233/256
f 352/276/257 312/278/257 310/235/257
f 319/241/26 315/238/26 323/279/26
f 315/238/26 311/237/26 323/279/26
f 311/237/26 351/275/26 347/271/26
f 347/271/26 343/268/26 339/263/26
f 339/263/26 335/259/26 331/280/26
f 331/280/26 327/327/26 323/279/26
f 311/237/26 347/271/26 339/263/26
f 339/263/26 331/280/26 323/279/26
f 316/236/258 320/242/258 318/244/258
f 320/242/259 324/246/259 322/243/259
f 324/246/260 328/249/260 326/247/260
f 328/249/261 332/253/261 330/251/261
f 332/258/262 336/260/262 334/255/262
f 336/260/263 340/264/263 338/261/263
f 340/264/264 344/267/264 342/265/264
f 344/267/265 348/272/265 346/269/265
f 348/272/266 352/276/266 350/277/266
f 353/281/275 355/283/275 360/285/275
f 354/293/276 356/296/276 358/294/276
f 362/284/277 364/285/277 358/283/277
f 363/296/278 361/293/278 360/295/278
f 359/284/279 361/286/279 372/291/279
f 362/284/280 374/290/280 376/291/280
f 375/297/281 373/328/281 372/298/281
f 365/287/282 371/290/282 373/292/282
f 374/290/283 368/287/283 370/288/283
f 367/298/284 366/328/284 370/297/284
f 365/287/285 367/289/285 354/282/285
f 357/281/286 356/282/286 369/289/286
f 371/290/287 365/287/287 353/281/287
f 358/300/288 364/303/288 360/301/288
f 369/299/289 356/296/289 354/293/289
f 362/284/290 357/281/290 368/287/290
f 363/296/291 376/299/291 372/298/291
f 375/303/292 370/300/292 366/302/292
