# Blender 4.5.10 LTS
# www.blender.org
mtllib stoker_twin_bins.mtl
o stoker_twin_bins
v 0.510000 0.000000 -0.280000
v 0.510000 0.140000 -0.280000
v 0.510000 0.000000 0.280000
v 0.510000 0.140000 0.280000
v -0.510000 0.000000 -0.280000
v -0.510000 0.140000 -0.280000
v -0.510000 0.000000 0.280000
v -0.510000 0.140000 0.280000
v 0.470000 0.140000 -0.240000
v 0.470000 1.060000 -0.240000
v 0.470000 0.140000 0.240000
v 0.470000 1.060000 0.240000
v 0.030000 0.140000 -0.240000
v 0.030000 1.060000 -0.240000
v 0.030000 0.140000 0.240000
v 0.030000 1.060000 0.240000
v 0.330364 1.040000 0.194015
v 0.272502 1.220000 0.054324
v 0.169636 1.040000 0.194015
v 0.227498 1.220000 0.054324
v 0.055985 1.040000 0.080364
v 0.195676 1.220000 0.022502
v 0.055985 1.040000 -0.080363
v 0.195676 1.220000 -0.022502
v 0.169636 1.040000 -0.194015
v 0.227498 1.220000 -0.054324
v 0.330363 1.040000 -0.194015
v 0.272502 1.220000 -0.054324
v 0.444015 1.040000 -0.080364
v 0.304324 1.220000 -0.022502
v 0.444015 1.040000 0.080363
v 0.304324 1.220000 0.022502
v 0.490000 0.745000 -0.260000
v 0.490000 0.815000 -0.260000
v 0.490000 0.745000 0.260000
v 0.490000 0.815000 0.260000
v 0.010000 0.745000 -0.260000
v 0.010000 0.815000 -0.260000
v 0.010000 0.745000 0.260000
v 0.010000 0.815000 0.260000
v 0.490000 0.305000 -0.260000
v 0.490000 0.375000 -0.260000
v 0.490000 0.305000 0.260000
v 0.490000 0.375000 0.260000
v 0.010000 0.305000 -0.260000
v 0.010000 0.375000 -0.260000
v 0.010000 0.305000 0.260000
v 0.010000 0.375000 0.260000
v -0.030000 0.140000 -0.240000
v -0.030000 1.060000 -0.240000
v -0.030000 0.140000 0.240000
v -0.030000 1.060000 0.240000
v -0.470000 0.140000 -0.240000
v -0.470000 1.060000 -0.240000
v -0.470000 0.140000 0.240000
v -0.470000 1.060000 0.240000
v -0.169636 1.040000 0.194015
v -0.227498 1.220000 0.054324
v -0.330363 1.040000 0.194015
v -0.272502 1.220000 0.054324
v -0.444015 1.040000 0.080364
v -0.304324 1.220000 0.022502
v -0.444015 1.040000 -0.080363
v -0.304324 1.220000 -0.022502
v -0.330364 1.040000 -0.194015
v -0.272502 1.220000 -0.054324
v -0.169636 1.040000 -0.194015
v -0.227498 1.220000 -0.054324
v -0.055985 1.040000 -0.080364
v -0.195676 1.220000 -0.022502
v -0.055985 1.040000 0.080363
v -0.195676 1.220000 0.022502
v -0.010000 0.745000 -0.260000
v -0.010000 0.815000 -0.260000
v -0.010000 0.745000 0.260000
v -0.010000 0.815000 0.260000
v -0.490000 0.745000 -0.260000
v -0.490000 0.815000 -0.260000
v -0.490000 0.745000 0.260000
v -0.490000 0.815000 0.260000
v -0.010000 0.305000 -0.260000
v -0.010000 0.375000 -0.260000
v -0.010000 0.305000 0.260000
v -0.010000 0.375000 0.260000
v -0.490000 0.305000 -0.260000
v -0.490000 0.375000 -0.260000
v -0.490000 0.305000 0.260000
v -0.490000 0.375000 0.260000
v 0.040000 0.120000 -0.260000
v 0.040000 1.140000 -0.260000
v 0.040000 0.120000 0.260000
v 0.040000 1.140000 0.260000
v -0.040000 0.120000 -0.260000
v -0.040000 1.140000 -0.260000
v -0.040000 0.120000 0.260000
v -0.040000 1.140000 0.260000
v 0.520000 0.120000 -0.040000
v 0.520000 1.120000 -0.040000
v 0.520000 0.120000 0.040000
v 0.520000 1.120000 0.040000
v 0.440000 0.120000 -0.040000
v 0.440000 1.120000 -0.040000
v 0.440000 0.120000 0.040000
v 0.440000 1.120000 0.040000
v -0.440000 0.120000 -0.040000
v -0.440000 1.120000 -0.040000
v -0.440000 0.120000 0.040000
v -0.440000 1.120000 0.040000
v -0.520000 0.120000 -0.040000
v -0.520000 1.120000 -0.040000
v -0.520000 0.120000 0.040000
v -0.520000 1.120000 0.040000
vn 1.0000 -0.0000 -0.0000
vn -0.0000 -0.0000 1.0000
vn -1.0000 -0.0000 -0.0000
vn -0.0000 -0.0000 -1.0000
vn -0.0000 -1.0000 -0.0000
vn -0.0000 1.0000 -0.0000
vn -0.0000 0.6131 0.7900
vn -0.5586 0.6131 0.5586
vn -0.7900 0.6131 -0.0000
vn -0.5586 0.6131 -0.5586
vn -0.0000 0.6131 -0.7900
vn 0.5586 0.6131 -0.5586
vn 0.7900 0.6131 -0.0000
vn 0.5586 0.6131 0.5586
vt 0.000000 -2.857143
vt 1.000000 -3.857143
vt 0.000000 -3.857143
vt 1.000000 -2.857143
vt 1.000000 1.000000
vt 0.000000 0.000000
vt 0.000000 1.000000
vt 1.000000 0.000000
vt 0.071429 3.714285
vt 0.928571 -2.857143
vt 0.071429 -2.857143
vt 0.039216 3.714285
vt 0.470588 -2.857143
vt 0.039216 -2.857143
vt 0.928571 3.714285
vt 0.470588 3.714285
vt 0.470588 0.928571
vt 0.039216 0.071429
vt 0.039216 0.928571
vt 0.470588 0.071429
vt 0.232841 4.857143
vt 0.333690 3.571428
vt 0.176114 3.571428
vt 0.597007 4.857143
vt 0.643506 3.571428
vt 0.846455 3.571428
vt 0.540182 4.857143
vt 0.356494 3.571428
vt 0.402993 4.857143
vt 0.153545 3.571428
vt 0.276963 4.857143
vt 0.176114 3.571428
vt 0.333690 3.571428
vt 0.356494 3.571428
vt 0.153545 3.571428
vt 0.308161 0.459818
vt 0.308161 0.540182
vt 0.201643 0.459818
vt 0.459818 4.857143
vt 0.643506 3.571428
vt 0.064692 0.356494
vt 0.064692 0.643506
vt 0.445112 0.356494
vt 0.035714 1.964285
vt 0.964286 1.464285
vt 0.035714 1.464285
vt 0.019608 1.964285
vt 0.490196 1.464285
vt 0.019608 1.464285
vt 0.964286 1.964285
vt 0.490196 1.964285
vt 0.490196 0.964286
vt 0.019608 0.035714
vt 0.019608 0.964286
vt 0.490196 0.035714
vt 0.035714 -1.178572
vt 0.964286 -1.678572
vt 0.035714 -1.678572
vt 0.019608 -1.178572
vt 0.490196 -1.678572
vt 0.019608 -1.678572
vt 0.964286 -1.178572
vt 0.490196 -1.178572
vt 0.529412 3.714285
vt 0.960784 -2.857143
vt 0.529412 -2.857143
vt 0.960784 3.714285
vt 0.960784 0.928571
vt 0.529412 0.071429
vt 0.529412 0.928571
vt 0.960784 0.071429
vt 0.723037 4.857143
vt 0.823886 3.571428
vt 0.666310 3.571428
vt 0.767159 4.857143
vt 0.666310 3.571428
vt 0.798357 0.459818
vt 0.798357 0.540182
vt 0.691839 0.459818
vt 0.554888 0.356494
vt 0.554888 0.643506
vt 0.935308 0.356494
vt 0.509804 1.964285
vt 0.980392 1.464285
vt 0.509804 1.464285
vt 0.980392 1.964285
vt 0.980392 0.964286
vt 0.509804 0.035714
vt 0.509804 0.964286
vt 0.980392 0.035714
vt 0.509804 -1.178572
vt 0.980392 -1.678572
vt 0.509804 -1.678572
vt 0.980392 -1.178572
vt 0.035714 4.285714
vt 0.964286 -3.000000
vt 0.035714 -3.000000
vt 0.460784 4.285714
vt 0.539216 -3.000000
vt 0.460784 -3.000000
vt 0.964286 4.285714
vt 0.539216 4.285714
vt 0.539216 0.964286
vt 0.460784 0.035714
vt 0.460784 0.964286
vt 0.539216 0.035714
vt 0.428571 4.142857
vt 0.571429 -3.000000
vt 0.428571 -3.000000
vt -0.009804 4.142857
vt 0.068627 -3.000000
vt -0.009804 -3.000000
vt 0.571429 4.142857
vt 0.068627 4.142857
vt 0.068627 0.571429
vt -0.009804 0.428571
vt -0.009804 0.571429
vt 0.068627 0.428571
vt 0.931373 4.142857
vt 1.009804 -3.000000
vt 0.931373 -3.000000
vt 1.009804 4.142857
vt 1.009804 0.571429
vt 0.931373 0.428571
vt 0.931373 0.571429
vt 1.009804 0.428571
vt 0.276963 0.597007
vt 0.232841 0.597007
vt 0.201643 0.540182
vt 0.232841 0.402993
vt 0.276963 0.402993
vt 0.176114 0.846455
vt 0.333690 0.846455
vt 0.445112 0.643506
vt 0.333690 0.153545
vt 0.176114 0.153545
vt 0.767159 0.597007
vt 0.723037 0.597007
vt 0.691839 0.540182
vt 0.723037 0.402993
vt 0.767159 0.402993
vt 0.666310 0.846455
vt 0.823886 0.846455
vt 0.935308 0.643506
vt 0.823886 0.153545
vt 0.666310 0.153545
s 0
usemtl stone
f 2/1/1 3/2/1 1/3/1
f 4/1/2 7/2/2 3/3/2
f 8/4/3 5/3/3 7/2/3
f 6/4/4 1/3/4 5/2/4
f 7/5/5 1/6/5 3/7/5
f 4/7/6 6/8/6 8/5/6
f 2/1/1 4/4/1 3/2/1
f 4/1/2 8/4/2 7/2/2
f 8/4/3 6/1/3 5/3/3
f 6/4/4 2/1/4 1/3/4
f 7/5/5 5/8/5 1/6/5
f 4/7/6 2/6/6 6/8/6
usemtl wood
f 10/9/1 11/10/1 9/11/1
f 12/12/2 15/13/2 11/14/2
f 16/15/3 13/11/3 15/10/3
f 14/16/4 9/14/4 13/13/4
f 15/17/5 9/18/5 11/19/5
f 12/19/6 14/20/6 16/17/6
f 50/9/1 51/10/1 49/11/1
f 52/64/2 55/65/2 51/66/2
f 56/15/3 53/11/3 55/10/3
f 54/67/4 49/66/4 53/65/4
f 55/68/5 49/69/5 51/70/5
f 52/70/6 54/71/6 56/68/6
f 98/107/1 99/108/1 97/109/1
f 100/110/2 103/111/2 99/112/2
f 104/113/3 101/109/3 103/108/3
f 102/114/4 97/112/4 101/111/4
f 103/115/5 97/116/5 99/117/5
f 100/117/6 102/118/6 104/115/6
f 106/107/1 107/108/1 105/109/1
f 108/119/2 111/120/2 107/121/2
f 112/113/3 109/109/3 111/108/3
f 110/122/4 105/121/4 109/120/4
f 111/123/5 105/124/5 107/125/5
f 108/125/6 110/126/6 112/123/6
f 10/9/1 12/15/1 11/10/1
f 12/12/2 16/16/2 15/13/2
f 16/15/3 14/9/3 13/11/3
f 14/16/4 10/12/4 9/14/4
f 15/17/5 13/20/5 9/18/5
f 12/19/6 10/18/6 14/20/6
f 50/9/1 52/15/1 51/10/1
f 52/64/2 56/67/2 55/65/2
f 56/15/3 54/9/3 53/11/3
f 54/67/4 50/64/4 49/66/4
f 55/68/5 53/71/5 49/69/5
f 52/70/6 50/69/6 54/71/6
f 98/107/1 100/113/1 99/108/1
f 100/110/2 104/114/2 103/111/2
f 104/113/3 102/107/3 101/109/3
f 102/114/4 98/110/4 97/112/4
f 103/115/5 101/118/5 97/116/5
f 100/117/6 98/116/6 102/118/6
f 106/107/1 108/113/1 107/108/1
f 108/119/2 112/122/2 111/120/2
f 112/113/3 110/107/3 109/109/3
f 110/122/4 106/119/4 105/121/4
f 111/123/5 109/126/5 105/124/5
f 108/125/6 106/124/6 110/126/6
usemtl coal
f 18/21/7 19/22/7 17/23/7
f 20/24/8 21/25/8 19/26/8
f 22/27/9 23/28/9 21/25/9
f 23/28/10 26/29/10 25/30/10
f 26/31/11 27/32/11 25/33/11
f 28/29/12 29/34/12 27/35/12
f 24/36/6 22/37/6 30/38/6
f 30/39/13 31/40/13 29/34/13
f 31/40/14 18/24/14 17/26/14
f 29/41/5 31/42/5 23/43/5
f 18/21/7 20/31/7 19/22/7
f 20/24/8 22/27/8 21/25/8
f 22/27/9 24/39/9 23/28/9
f 23/28/10 24/39/10 26/29/10
f 26/31/11 28/21/11 27/32/11
f 28/29/12 30/39/12 29/34/12
f 22/37/6 20/127/6 18/128/6
f 18/128/6 32/129/6 22/37/6
f 32/129/6 30/38/6 22/37/6
f 30/38/6 28/130/6 26/131/6
f 26/131/6 24/36/6 30/38/6
f 30/39/13 32/27/13 31/40/13
f 31/40/14 32/27/14 18/24/14
f 31/42/5 17/132/5 19/133/5
f 19/133/5 21/134/5 31/42/5
f 21/134/5 23/43/5 31/42/5
f 23/43/5 25/135/5 27/136/5
f 27/136/5 29/41/5 23/43/5
usemtl iron
f 34/44/1 35/45/1 33/46/1
f 36/47/2 39/48/2 35/49/2
f 40/50/3 37/46/3 39/45/3
f 38/51/4 33/49/4 37/48/4
f 39/52/5 33/53/5 35/54/5
f 36/54/6 38/55/6 40/52/6
f 42/56/1 43/57/1 41/58/1
f 44/59/2 47/60/2 43/61/2
f 48/62/3 45/58/3 47/57/3
f 46/63/4 41/61/4 45/60/4
f 47/52/5 41/53/5 43/54/5
f 44/54/6 46/55/6 48/52/6
f 74/44/1 75/45/1 73/46/1
f 76/83/2 79/84/2 75/85/2
f 80/50/3 77/46/3 79/45/3
f 78/86/4 73/85/4 77/84/4
f 79/87/5 73/88/5 75/89/5
f 76/89/6 78/90/6 80/87/6
f 82/56/1 83/57/1 81/58/1
f 84/91/2 87/92/2 83/93/2
f 88/62/3 85/58/3 87/57/3
f 86/94/4 81/93/4 85/92/4
f 87/87/5 81/88/5 83/89/5
f 84/89/6 86/90/6 88/87/6
f 90/95/1 91/96/1 89/97/1
f 92/98/2 95/99/2 91/100/2
f 96/101/3 93/97/3 95/96/3
f 94/102/4 89/100/4 93/99/4
f 95/103/5 89/104/5 91/105/5
f 92/105/6 94/106/6 96/103/6
f 34/44/1 36/50/1 35/45/1
f 36/47/2 40/51/2 39/48/2
f 40/50/3 38/44/3 37/46/3
f 38/51/4 34/47/4 33/49/4
f 39/52/5 37/55/5 33/53/5
f 36/54/6 34/53/6 38/55/6
f 42/56/1 44/62/1 43/57/1
f 44/59/2 48/63/2 47/60/2
f 48/62/3 46/56/3 45/58/3
f 46/63/4 42/59/4 41/61/4
f 47/52/5 45/55/5 41/53/5
f 44/54/6 42/53/6 46/55/6
f 74/44/1 76/50/1 75/45/1
f 76/83/2 80/86/2 79/84/2
f 80/50/3 78/44/3 77/46/3
f 78/86/4 74/83/4 73/85/4
f 79/87/5 77/90/5 73/88/5
f 76/89/6 74/88/6 78/90/6
f 82/56/1 84/62/1 83/57/1
f 84/91/2 88/94/2 87/92/2
f 88/62/3 86/56/3 85/58/3
f 86/94/4 82/91/4 81/93/4
f 87/87/5 85/90/5 81/88/5
f 84/89/6 82/88/6 86/90/6
f 90/95/1 92/101/1 91/96/1
f 92/98/2 96/102/2 95/99/2
f 96/101/3 94/95/3 93/97/3
f 94/102/4 90/98/4 89/100/4
f 95/103/5 93/106/5 89/104/5
f 92/105/6 90/104/6 94/106/6
usemtl ore
f 58/72/7 59/73/7 57/74/7
f 60/24/8 61/25/8 59/26/8
f 62/27/9 63/28/9 61/25/9
f 63/28/10 66/29/10 65/30/10
f 66/75/11 67/76/11 65/73/11
f 68/29/12 69/34/12 67/35/12
f 64/77/6 62/78/6 70/79/6
f 70/39/13 71/40/13 69/34/13
f 71/40/14 58/24/14 57/26/14
f 69/80/5 71/81/5 63/82/5
f 58/72/7 60/75/7 59/73/7
f 60/24/8 62/27/8 61/25/8
f 62/27/9 64/39/9 63/28/9
f 63/28/10 64/39/10 66/29/10
f 66/75/11 68/72/11 67/76/11
f 68/29/12 70/39/12 69/34/12
f 62/78/6 60/137/6 58/138/6
f 58/138/6 72/139/6 62/78/6
f 72/139/6 70/79/6 62/78/6
f 70/79/6 68/140/6 66/141/6
f 66/141/6 64/77/6 70/79/6
f 70/39/13 72/27/13 71/40/13
f 71/40/14 72/27/14 58/24/14
f 71/81/5 57/142/5 59/143/5
f 59/143/5 61/144/5 71/81/5
f 61/144/5 63/82/5 71/81/5
f 63/82/5 65/145/5 67/146/5
f 67/146/5 69/80/5 63/82/5
