# Blender 4.5.10 LTS
# www.blender.org
mtllib stoker_ore_cairn.mtl
o stoker_ore_cairn
v 0.550000 0.000000 -0.510000
v 0.550000 0.720000 -0.510000
v 0.550000 0.000000 -0.370000
v 0.550000 0.720000 -0.370000
v -0.550000 0.000000 -0.510000
v -0.550000 0.720000 -0.510000
v -0.550000 0.000000 -0.370000
v -0.550000 0.720000 -0.370000
v 0.550000 0.000000 -0.470000
v 0.550000 0.720000 -0.470000
v 0.550000 0.000000 0.470000
v 0.550000 0.720000 0.470000
v 0.410000 0.000000 -0.470000
v 0.410000 0.720000 -0.470000
v 0.410000 0.000000 0.470000
v 0.410000 0.720000 0.470000
v 0.288381 0.020000 0.306507
v 0.167147 0.540000 0.013822
v -0.048381 0.020000 0.306507
v 0.072853 0.540000 0.013822
v -0.286507 0.020000 0.068381
v 0.006178 0.540000 -0.052853
v -0.286507 0.020000 -0.268381
v 0.006178 0.540000 -0.147147
v -0.048381 0.020000 -0.506507
v 0.072853 0.540000 -0.213822
v 0.288381 0.020000 -0.506507
v 0.167147 0.540000 -0.213822
v 0.526507 0.020000 -0.268381
v 0.233822 0.540000 -0.147147
v 0.526507 0.020000 0.068381
v 0.233822 0.540000 -0.052853
v -0.129888 0.020000 0.474119
v -0.223569 0.420000 0.247953
v -0.390112 0.020000 0.474119
v -0.296431 0.420000 0.247953
v -0.574119 0.020000 0.290112
v -0.347953 0.420000 0.196432
v -0.574119 0.020000 0.029888
v -0.347953 0.420000 0.123569
v -0.390112 0.020000 -0.154119
v -0.296431 0.420000 0.072047
v -0.129888 0.020000 -0.154119
v -0.223569 0.420000 0.072047
v 0.054119 0.020000 0.029888
v -0.172047 0.420000 0.123569
v 0.054119 0.020000 0.290112
v -0.172047 0.420000 0.196432
v 0.530000 0.000000 -0.490000
v 0.530000 0.860000 -0.490000
v 0.530000 0.000000 -0.390000
v 0.530000 0.860000 -0.390000
v 0.430000 0.000000 -0.490000
v 0.430000 0.860000 -0.490000
v 0.430000 0.000000 -0.390000
v 0.430000 0.860000 -0.390000
v 0.620000 0.000000 -0.550000
v 0.620000 0.100000 -0.550000
v 0.620000 0.000000 0.510000
v 0.620000 0.100000 0.510000
v -0.620000 0.000000 -0.550000
v -0.620000 0.100000 -0.550000
v -0.620000 0.000000 0.510000
v -0.620000 0.100000 0.510000
vn 1.0000 -0.0000 -0.0000
vn -0.0000 -0.0000 1.0000
vn -1.0000 -0.0000 -0.0000
vn -0.0000 -0.0000 -1.0000
vn -0.0000 -1.0000 -0.0000
vn -0.0000 1.0000 -0.0000
vn -0.0000 0.4905 0.8714
vn -0.6162 0.4905 0.6162
vn -0.8714 0.4905 -0.0000
vn -0.6162 0.4905 -0.6162
vn -0.0000 0.4905 -0.8714
vn 0.6162 0.4905 -0.6162
vn 0.8714 0.4905 -0.0000
vn 0.6162 0.4905 0.6162
vn -0.0000 0.4922 0.8705
vn -0.6155 0.4922 0.6155
vn -0.8705 0.4922 -0.0000
vn -0.6155 0.4922 -0.6155
vn -0.0000 0.4922 -0.8705
vn 0.6155 0.4922 -0.6155
vn 0.8705 0.4922 -0.0000
vn 0.6155 0.4922 0.6155
vt -3.000000 0.902778
vt -2.000000 -0.097222
vt -3.000000 -0.097222
vt 0.000000 0.902778
vt 1.000000 -0.097222
vt 0.000000 -0.097222
vt -2.000000 0.902778
vt 1.000000 0.902778
vt 1.000000 -2.000000
vt 0.000000 -3.000000
vt 0.000000 -2.000000
vt 1.000000 -3.000000
vt -2.714286 0.902778
vt 4.000000 -0.097222
vt -2.714286 -0.097222
vt 0.127273 -0.097222
vt 4.000000 0.902778
vt 0.127273 0.902778
vt 0.127273 4.000000
vt 0.000000 -2.714286
vt 0.000000 4.000000
vt 0.127273 -2.714286
vt 0.237836 2.832193
vt 0.433770 0.741585
vt 0.543982 2.832193
vt 0.741585 0.652778
vt 1.131291 -0.069444
vt 2.832193 -0.069444
vt -0.408190 0.652778
vt -1.274148 -0.069444
vt -0.884443 0.652778
vt -2.975050 -0.069444
vt 0.433770 -0.884443
vt 0.237836 -2.975050
vt 0.543983 -2.975050
vt -1.274148 -0.069444
vt -2.975050 -0.069444
vt 0.494384 -0.408190
vt 0.494384 0.265333
vt 0.287435 -0.408190
vt 2.832193 -0.069444
vt 0.021357 -1.274148
vt 0.021357 1.131291
vt 0.760461 -1.274148
vt 0.703244 2.413953
vt 0.854648 4.029422
vt 0.618080 4.029422
vt 2.413953 0.486111
vt 2.715089 -0.069444
vt 4.029422 -0.069444
vt 2.045939 0.486111
vt 0.856340 -0.069444
vt 1.157476 0.486111
vt -0.457993 -0.069444
vt 0.854648 -0.457993
vt 0.703244 1.157476
vt 0.618080 -0.457993
vt 0.856340 -0.069444
vt -0.457993 -0.069444
vt 0.816321 1.525490
vt 0.816321 2.045939
vt 0.656406 1.525490
vt 0.450801 0.856340
vt 0.450801 2.715089
vt 1.021926 0.856340
vt -2.857143 1.097222
vt -2.142857 -0.097222
vt -2.857143 -0.097222
vt 0.018182 1.097222
vt 0.109091 -0.097222
vt 0.018182 -0.097222
vt -2.142857 1.097222
vt 0.109091 1.097222
vt 0.109091 -2.142857
vt 0.018182 -2.857143
vt 0.018182 -2.142857
vt 0.109091 -2.857143
vt -3.285714 0.041667
vt 4.285714 -0.097222
vt -3.285714 -0.097222
vt -0.063636 0.041667
vt 1.063636 -0.097222
vt -0.063636 -0.097222
vt 4.285714 0.041667
vt 1.063636 0.041667
vt 1.063636 4.285714
vt -0.063636 -3.285714
vt -0.063636 4.285714
vt 1.063636 -3.285714
vt 0.348049 0.741585
vt 0.265333 0.652778
vt 0.348049 -0.884443
vt 0.287435 0.265333
vt 0.760461 1.131291
vt 0.769483 2.413953
vt 1.525490 0.486111
vt 0.769483 1.157476
vt 0.656406 2.045939
vt 1.021926 2.715089
s 0
usemtl wood
f 2/1/1 3/2/1 1/3/1
f 4/4/2 7/5/2 3/6/2
f 8/7/3 5/3/3 7/2/3
f 6/8/4 1/6/4 5/5/4
f 7/9/5 1/10/5 3/11/5
f 4/11/6 6/12/6 8/9/6
f 10/13/1 11/14/1 9/15/1
f 12/4/2 15/16/2 11/6/2
f 16/17/3 13/15/3 15/14/3
f 14/18/4 9/6/4 13/16/4
f 15/19/5 9/20/5 11/21/5
f 12/21/6 14/22/6 16/19/6
f 50/66/1 51/67/1 49/68/1
f 52/69/2 55/70/2 51/71/2
f 56/72/3 53/68/3 55/67/3
f 54/73/4 49/71/4 53/70/4
f 55/74/5 49/75/5 51/76/5
f 52/76/6 54/77/6 56/74/6
f 2/1/1 4/7/1 3/2/1
f 4/4/2 8/8/2 7/5/2
f 8/7/3 6/1/3 5/3/3
f 6/8/4 2/4/4 1/6/4
f 7/9/5 5/12/5 1/10/5
f 4/11/6 2/10/6 6/12/6
f 10/13/1 12/17/1 11/14/1
f 12/4/2 16/18/2 15/16/2
f 16/17/3 14/13/3 13/15/3
f 14/18/4 10/4/4 9/6/4
f 15/19/5 13/22/5 9/20/5
f 12/21/6 10/20/6 14/22/6
f 50/66/1 52/72/1 51/67/1
f 52/69/2 56/73/2 55/70/2
f 56/72/3 54/66/3 53/68/3
f 54/73/4 50/69/4 49/71/4
f 55/74/5 53/77/5 49/75/5
f 52/76/6 50/75/6 54/77/6
usemtl ore
f 17/23/7 20/24/7 19/25/7
f 20/26/8 21/27/8 19/28/8
f 21/27/9 24/29/9 23/30/9
f 23/30/10 26/31/10 25/32/10
f 26/33/11 27/34/11 25/35/11
f 28/31/12 29/36/12 27/37/12
f 24/38/6 22/39/6 30/40/6
f 30/29/13 31/27/13 29/36/13
f 31/27/14 18/26/14 17/41/14
f 29/42/5 31/43/5 23/44/5
f 17/23/7 18/90/7 20/24/7
f 20/26/8 22/91/8 21/27/8
f 21/27/9 22/91/9 24/29/9
f 23/30/10 24/29/10 26/31/10
f 26/33/11 28/92/11 27/34/11
f 28/31/12 30/29/12 29/36/12
f 22/39/6 20/24/6 18/90/6
f 18/90/6 32/93/6 22/39/6
f 32/93/6 30/40/6 22/39/6
f 30/40/6 28/92/6 26/33/6
f 26/33/6 24/38/6 30/40/6
f 30/29/13 32/91/13 31/27/13
f 31/27/14 32/91/14 18/26/14
f 31/43/5 17/23/5 19/25/5
f 19/25/5 21/94/5 31/43/5
f 21/94/5 23/44/5 31/43/5
f 23/44/5 25/35/5 27/34/5
f 27/34/5 29/42/5 23/44/5
usemtl coal
f 34/45/15 35/46/15 33/47/15
f 36/48/16 37/49/16 35/50/16
f 38/51/17 39/52/17 37/49/17
f 39/52/18 42/53/18 41/54/18
f 41/55/19 44/56/19 43/57/19
f 44/53/20 45/58/20 43/59/20
f 40/60/6 38/61/6 46/62/6
f 45/58/21 48/51/21 47/49/21
f 47/49/22 34/48/22 33/50/22
f 45/63/5 47/64/5 39/65/5
f 34/45/15 36/95/15 35/46/15
f 36/48/16 38/51/16 37/49/16
f 38/51/17 40/96/17 39/52/17
f 39/52/18 40/96/18 42/53/18
f 41/55/19 42/97/19 44/56/19
f 44/53/20 46/96/20 45/58/20
f 38/61/6 36/95/6 34/45/6
f 34/45/6 48/98/6 38/61/6
f 48/98/6 46/62/6 38/61/6
f 46/62/6 44/56/6 42/97/6
f 42/97/6 40/60/6 46/62/6
f 45/58/21 46/96/21 48/51/21
f 47/49/22 48/51/22 34/48/22
f 47/64/5 33/47/5 35/46/5
f 35/46/5 37/99/5 47/64/5
f 37/99/5 39/65/5 47/64/5
f 39/65/5 41/55/5 43/57/5
f 43/57/5 45/63/5 39/65/5
usemtl stone
f 58/78/1 59/79/1 57/80/1
f 60/81/2 63/82/2 59/83/2
f 64/84/3 61/80/3 63/79/3
f 62/85/4 57/83/4 61/82/4
f 63/86/5 57/87/5 59/88/5
f 60/88/6 62/89/6 64/86/6
f 58/78/1 60/84/1 59/79/1
f 60/81/2 64/85/2 63/82/2
f 64/84/3 62/78/3 61/80/3
f 62/85/4 58/81/4 57/83/4
f 63/86/5 61/89/5 57/87/5
f 60/88/6 58/87/6 62/89/6
