# Blender 4.5.10 LTS
# www.blender.org
mtllib stoker_trough_raised.mtl
o stoker_trough_raised
v 0.560000 0.000000 -0.280000
v 0.560000 0.440000 -0.280000
v 0.560000 0.000000 -0.160000
v 0.560000 0.440000 -0.160000
v 0.440000 0.000000 -0.280000
v 0.440000 0.440000 -0.280000
v 0.440000 0.000000 -0.160000
v 0.440000 0.440000 -0.160000
v 0.560000 0.000000 0.160000
v 0.560000 0.440000 0.160000
v 0.560000 0.000000 0.280000
v 0.560000 0.440000 0.280000
v 0.440000 0.000000 0.160000
v 0.440000 0.440000 0.160000
v 0.440000 0.000000 0.280000
v 0.440000 0.440000 0.280000
v -0.440000 0.000000 -0.280000
v -0.440000 0.440000 -0.280000
v -0.440000 0.000000 -0.160000
v -0.440000 0.440000 -0.160000
v -0.560000 0.000000 -0.280000
v -0.560000 0.440000 -0.280000
v -0.560000 0.000000 -0.160000
v -0.560000 0.440000 -0.160000
v -0.440000 0.000000 0.160000
v -0.440000 0.440000 0.160000
v -0.440000 0.000000 0.280000
v -0.440000 0.440000 0.280000
v -0.560000 0.000000 0.160000
v -0.560000 0.440000 0.160000
v -0.560000 0.000000 0.280000
v -0.560000 0.440000 0.280000
v 0.570000 0.350000 -0.310000
v 0.570000 0.450000 -0.310000
v 0.570000 0.350000 0.310000
v 0.570000 0.450000 0.310000
v 0.430000 0.350000 -0.310000
v 0.430000 0.450000 -0.310000
v 0.430000 0.350000 0.310000
v 0.430000 0.450000 0.310000
v -0.430000 0.350000 -0.310000
v -0.430000 0.450000 -0.310000
v -0.430000 0.350000 0.310000
v -0.430000 0.450000 0.310000
v -0.570000 0.350000 -0.310000
v -0.570000 0.450000 -0.310000
v -0.570000 0.350000 0.310000
v -0.570000 0.450000 0.310000
v 0.610000 0.440000 -0.280000
v 0.610000 0.820000 -0.280000
v 0.610000 0.440000 0.280000
v 0.610000 0.820000 0.280000
v -0.610000 0.440000 -0.280000
v -0.610000 0.820000 -0.280000
v -0.610000 0.440000 0.280000
v -0.610000 0.820000 0.280000
v 0.403325 0.800000 0.249447
v 0.326864 0.990000 0.064856
v 0.196675 0.800000 0.249447
v 0.273136 0.990000 0.064856
v 0.050552 0.800000 0.103325
v 0.235144 0.990000 0.026864
v 0.050552 0.800000 -0.103325
v 0.235144 0.990000 -0.026864
v 0.196675 0.800000 -0.249447
v 0.273136 0.990000 -0.064856
v 0.403325 0.800000 -0.249447
v 0.326864 0.990000 -0.064856
v 0.549447 0.800000 -0.103325
v 0.364856 0.990000 -0.026864
v 0.549447 0.800000 0.103325
v 0.364856 0.990000 0.026864
v -0.196675 0.800000 0.249447
v -0.273136 0.990000 0.064856
v -0.403325 0.800000 0.249447
v -0.326864 0.990000 0.064856
v -0.549447 0.800000 0.103325
v -0.364856 0.990000 0.026864
v -0.549447 0.800000 -0.103325
v -0.364856 0.990000 -0.026864
v -0.403325 0.800000 -0.249447
v -0.326864 0.990000 -0.064856
v -0.196675 0.800000 -0.249447
v -0.273136 0.990000 -0.064856
v -0.050553 0.800000 -0.103325
v -0.235144 0.990000 -0.026864
v -0.050553 0.800000 0.103325
v -0.235144 0.990000 0.026864
v 0.040000 0.610000 -0.290000
v 0.040000 0.910000 -0.290000
v 0.040000 0.610000 0.290000
v 0.040000 0.910000 0.290000
v -0.040000 0.610000 -0.290000
v -0.040000 0.910000 -0.290000
v -0.040000 0.610000 0.290000
v -0.040000 0.910000 0.290000
v 0.630000 0.790000 -0.300000
v 0.630000 0.890000 -0.300000
v 0.630000 0.790000 -0.220000
v 0.630000 0.890000 -0.220000
v -0.630000 0.790000 -0.300000
v -0.630000 0.890000 -0.300000
v -0.630000 0.790000 -0.220000
v -0.630000 0.890000 -0.220000
v 0.630000 0.790000 0.220000
v 0.630000 0.890000 0.220000
v 0.630000 0.790000 0.300000
v 0.630000 0.890000 0.300000
v -0.630000 0.790000 0.220000
v -0.630000 0.890000 0.220000
v -0.630000 0.790000 0.300000
v -0.630000 0.890000 0.300000
v 0.630000 0.790000 -0.220000
v 0.630000 0.890000 -0.220000
v 0.630000 0.790000 0.220000
v 0.630000 0.890000 0.220000
v 0.550000 0.790000 -0.220000
v 0.550000 0.890000 -0.220000
v 0.550000 0.790000 0.220000
v 0.550000 0.890000 0.220000
v -0.550000 0.790000 -0.220000
v -0.550000 0.890000 -0.220000
v -0.550000 0.790000 0.220000
v -0.550000 0.890000 0.220000
v -0.630000 0.790000 -0.220000
v -0.630000 0.890000 -0.220000
v -0.630000 0.790000 0.220000
v -0.630000 0.890000 0.220000
vn 1.0000 -0.0000 -0.0000
vn -0.0000 -0.0000 1.0000
vn -1.0000 -0.0000 -0.0000
vn -0.0000 -0.0000 -1.0000
vn -0.0000 -1.0000 -0.0000
vn -0.0000 1.0000 -0.0000
vn -0.0000 0.6968 0.7172
vn -0.5072 0.6968 0.5072
vn -0.7172 0.6968 -0.0000
vn -0.5072 0.6968 -0.5072
vn -0.0000 0.6968 -0.7172
vn 0.5072 0.6968 -0.5072
vn 0.7172 0.6968 -0.0000
vn 0.5072 0.6968 0.5072
vt 0.277778 0.475806
vt 0.373016 0.282258
vt 0.277778 0.282258
vt 0.055556 0.475806
vt 0.150794 0.282258
vt 0.055556 0.282258
vt 0.373016 0.475806
vt 0.150794 0.475806
vt 0.150794 0.241935
vt 0.055556 0.048387
vt 0.055556 0.241935
vt 0.150794 0.048387
vt 0.626984 0.475806
vt 0.722222 0.282258
vt 0.626984 0.282258
vt 0.722222 0.475806
vt 0.150794 0.951613
vt 0.055556 0.758065
vt 0.055556 0.951613
vt 0.150794 0.758065
vt 0.849206 0.475806
vt 0.944444 0.282258
vt 0.849206 0.282258
vt 0.944444 0.475806
vt 0.944444 0.241935
vt 0.849206 0.048387
vt 0.849206 0.241935
vt 0.944444 0.048387
vt 0.944444 0.951613
vt 0.849206 0.758065
vt 0.849206 0.951613
vt 0.944444 0.758065
vt 0.253968 0.480205
vt 0.746032 0.436217
vt 0.253968 0.436217
vt 0.047619 0.480205
vt 0.158730 0.436217
vt 0.047619 0.436217
vt 0.746032 0.480205
vt 0.158730 0.480205
vt 0.158730 1.000000
vt 0.047619 0.000000
vt 0.047619 1.000000
vt 0.158730 0.000000
vt 0.841270 0.480205
vt 0.952381 0.436217
vt 0.841270 0.436217
vt 0.952381 0.480205
vt 0.952381 1.000000
vt 0.841270 0.000000
vt 0.841270 1.000000
vt 0.952381 0.000000
vt 0.277778 0.642962
vt 0.015873 0.642962
vt 0.984127 0.475806
vt 0.015873 0.475806
vt 0.722222 0.642962
vt 0.984127 0.642962
vt 0.984127 0.951613
vt 0.015873 0.048387
vt 0.015873 0.951613
vt 0.984127 0.048387
vt 0.240584 0.604607
vt 0.343908 0.902335
vt 0.179901 0.902335
vt 0.283226 0.604607
vt 0.459879 0.666653
vt 0.313378 0.543330
vt 0.459879 0.333348
vt 0.313378 0.456670
vt 0.343908 0.097665
vt 0.283226 0.395393
vt 0.179901 0.097665
vt 0.240584 0.395393
vt 0.063931 0.333348
vt 0.210431 0.456670
vt 0.063931 0.666653
vt 0.210431 0.543330
vt 0.716774 0.604607
vt 0.820099 0.902335
vt 0.656092 0.902335
vt 0.759416 0.604607
vt 0.936069 0.666653
vt 0.789568 0.543330
vt 0.936069 0.333348
vt 0.789568 0.456670
vt 0.820099 0.097665
vt 0.759416 0.395393
vt 0.656092 0.097665
vt 0.686622 0.456670
vt 0.540121 0.333348
vt 0.540121 0.666653
vt 0.686622 0.543330
vt 0.269841 0.682551
vt 0.730159 0.550587
vt 0.269841 0.550587
vt 0.468254 0.682551
vt 0.531746 0.550587
vt 0.468254 0.550587
vt 0.730159 0.682551
vt 0.531746 0.682551
vt 0.531746 0.967742
vt 0.468254 0.032258
vt 0.468254 0.967742
vt 0.531746 0.032258
vt 0.261905 0.673754
vt 0.325397 0.629765
vt 0.261905 0.629765
vt 0.000000 0.673754
vt 1.000000 0.629765
vt 0.000000 0.629765
vt 0.325397 0.673754
vt 1.000000 0.673754
vt 1.000000 0.145161
vt 0.000000 0.016129
vt 0.000000 0.145161
vt 1.000000 0.016129
vt 0.674603 0.673754
vt 0.738095 0.629765
vt 0.674603 0.629765
vt 0.738095 0.673754
vt 1.000000 0.983871
vt 0.000000 0.854839
vt 0.000000 0.983871
vt 1.000000 0.854839
vt 0.063492 0.629765
vt 0.063492 0.673754
vt 0.063492 0.854839
vt 0.000000 0.145161
vt 0.063492 0.145161
vt 0.936508 0.673754
vt 1.000000 0.629765
vt 0.936508 0.629765
vt 1.000000 0.673754
vt 1.000000 0.854839
vt 0.936508 0.145161
vt 0.936508 0.854839
vt 1.000000 0.145161
vt 0.716774 0.395393
s 0
usemtl wood
f 2/1/1 3/2/1 1/3/1
f 4/4/2 7/5/2 3/6/2
f 8/7/3 5/3/3 7/2/3
f 6/8/4 1/6/4 5/5/4
f 7/9/5 1/10/5 3/11/5
f 4/11/6 6/12/6 8/9/6
f 10/13/1 11/14/1 9/15/1
f 12/4/2 15/5/2 11/6/2
f 16/16/3 13/15/3 15/14/3
f 14/8/4 9/6/4 13/5/4
f 15/17/5 9/18/5 11/19/5
f 12/19/6 14/20/6 16/17/6
f 18/1/1 19/2/1 17/3/1
f 20/21/2 23/22/2 19/23/2
f 24/7/3 21/3/3 23/2/3
f 22/24/4 17/23/4 21/22/4
f 23/25/5 17/26/5 19/27/5
f 20/27/6 22/28/6 24/25/6
f 26/13/1 27/14/1 25/15/1
f 28/21/2 31/22/2 27/23/2
f 32/16/3 29/15/3 31/14/3
f 30/24/4 25/23/4 29/22/4
f 31/29/5 25/30/5 27/31/5
f 28/31/6 30/32/6 32/29/6
f 34/33/1 35/34/1 33/35/1
f 36/36/2 39/37/2 35/38/2
f 40/39/3 37/35/3 39/34/3
f 38/40/4 33/38/4 37/37/4
f 39/41/5 33/42/5 35/43/5
f 36/43/6 38/44/6 40/41/6
f 42/33/1 43/34/1 41/35/1
f 44/45/2 47/46/2 43/47/2
f 48/39/3 45/35/3 47/34/3
f 46/48/4 41/47/4 45/46/4
f 47/49/5 41/50/5 43/51/5
f 44/51/6 46/52/6 48/49/6
f 50/53/1 51/16/1 49/1/1
f 52/54/2 55/55/2 51/56/2
f 56/57/3 53/1/3 55/16/3
f 54/58/4 49/56/4 53/55/4
f 55/59/5 49/60/5 51/61/5
f 52/61/6 54/62/6 56/59/6
f 2/1/1 4/7/1 3/2/1
f 4/4/2 8/8/2 7/5/2
f 8/7/3 6/1/3 5/3/3
f 6/8/4 2/4/4 1/6/4
f 7/9/5 5/12/5 1/10/5
f 4/11/6 2/10/6 6/12/6
f 10/13/1 12/16/1 11/14/1
f 12/4/2 16/8/2 15/5/2
f 16/16/3 14/13/3 13/15/3
f 14/8/4 10/4/4 9/6/4
f 15/17/5 13/20/5 9/18/5
f 12/19/6 10/18/6 14/20/6
f 18/1/1 20/7/1 19/2/1
f 20/21/2 24/24/2 23/22/2
f 24/7/3 22/1/3 21/3/3
f 22/24/4 18/21/4 17/23/4
f 23/25/5 21/28/5 17/26/5
f 20/27/6 18/26/6 22/28/6
f 26/13/1 28/16/1 27/14/1
f 28/21/2 32/24/2 31/22/2
f 32/16/3 30/13/3 29/15/3
f 30/24/4 26/21/4 25/23/4
f 31/29/5 29/32/5 25/30/5
f 28/31/6 26/30/6 30/32/6
f 34/33/1 36/39/1 35/34/1
f 36/36/2 40/40/2 39/37/2
f 40/39/3 38/33/3 37/35/3
f 38/40/4 34/36/4 33/38/4
f 39/41/5 37/44/5 33/42/5
f 36/43/6 34/42/6 38/44/6
f 42/33/1 44/39/1 43/34/1
f 44/45/2 48/48/2 47/46/2
f 48/39/3 46/33/3 45/35/3
f 46/48/4 42/45/4 41/47/4
f 47/49/5 45/52/5 41/50/5
f 44/51/6 42/50/6 46/52/6
f 50/53/1 52/57/1 51/16/1
f 52/54/2 56/58/2 55/55/2
f 56/57/3 54/53/3 53/1/3
f 54/58/4 50/54/4 49/56/4
f 55/59/5 53/62/5 49/60/5
f 52/61/6 50/60/6 54/62/6
usemtl coal
f 58/63/7 59/64/7 57/65/7
f 60/66/8 61/67/8 59/64/8
f 62/68/9 63/69/9 61/67/9
f 64/70/10 65/71/10 63/69/10
f 66/72/11 67/73/11 65/71/11
f 68/74/12 69/75/12 67/73/12
f 70/76/6 66/72/6 62/68/6
f 70/76/13 71/77/13 69/75/13
f 72/78/14 57/65/14 71/77/14
f 63/69/5 67/73/5 71/77/5
f 58/63/7 60/66/7 59/64/7
f 60/66/8 62/68/8 61/67/8
f 62/68/9 64/70/9 63/69/9
f 64/70/10 66/72/10 65/71/10
f 66/72/11 68/74/11 67/73/11
f 68/74/12 70/76/12 69/75/12
f 62/68/6 60/66/6 58/63/6
f 58/63/6 72/78/6 70/76/6
f 70/76/6 68/74/6 66/72/6
f 66/72/6 64/70/6 62/68/6
f 62/68/6 58/63/6 70/76/6
f 70/76/13 72/78/13 71/77/13
f 72/78/14 58/63/14 57/65/14
f 71/77/5 57/65/5 59/64/5
f 59/64/5 61/67/5 63/69/5
f 63/69/5 65/71/5 67/73/5
f 67/73/5 69/75/5 71/77/5
f 71/77/5 59/64/5 63/69/5
usemtl ore
f 74/79/7 75/80/7 73/81/7
f 76/82/8 77/83/8 75/80/8
f 78/84/9 79/85/9 77/83/9
f 80/86/10 81/87/10 79/85/10
f 82/88/11 83/89/11 81/87/11
f 83/89/12 86/90/12 85/91/12
f 86/90/6 82/88/6 78/84/6
f 86/90/13 87/92/13 85/91/13
f 88/93/14 73/81/14 87/92/14
f 79/85/5 83/89/5 87/92/5
f 74/79/7 76/82/7 75/80/7
f 76/82/8 78/84/8 77/83/8
f 78/84/9 80/86/9 79/85/9
f 80/86/10 82/88/10 81/87/10
f 82/88/11 84/139/11 83/89/11
f 83/89/12 84/139/12 86/90/12
f 78/84/6 76/82/6 74/79/6
f 74/79/6 88/93/6 86/90/6
f 86/90/6 84/139/6 82/88/6
f 82/88/6 80/86/6 78/84/6
f 78/84/6 74/79/6 86/90/6
f 86/90/13 88/93/13 87/92/13
f 88/93/14 74/79/14 73/81/14
f 87/92/5 73/81/5 75/80/5
f 75/80/5 77/83/5 87/92/5
f 77/83/5 79/85/5 87/92/5
f 79/85/5 81/87/5 83/89/5
f 83/89/5 85/91/5 87/92/5
usemtl iron
f 90/94/1 91/95/1 89/96/1
f 92/97/2 95/98/2 91/99/2
f 96/100/3 93/96/3 95/95/3
f 94/101/4 89/99/4 93/98/4
f 95/102/5 89/103/5 91/104/5
f 92/104/6 94/105/6 96/102/6
f 98/106/1 99/107/1 97/108/1
f 100/109/2 103/110/2 99/111/2
f 104/112/3 101/108/3 103/107/3
f 102/113/4 97/111/4 101/110/4
f 103/114/5 97/115/5 99/116/5
f 100/116/6 102/117/6 104/114/6
f 106/118/1 107/119/1 105/120/1
f 108/109/2 111/110/2 107/111/2
f 112/121/3 109/120/3 111/119/3
f 110/113/4 105/111/4 109/110/4
f 111/122/5 105/123/5 107/124/5
f 108/124/6 110/125/6 112/122/6
f 114/112/1 115/120/1 113/107/1
f 116/109/2 119/126/2 115/111/2
f 120/118/3 117/107/3 119/120/3
f 118/127/4 113/111/4 117/126/4
f 119/128/5 113/129/5 115/123/5
f 116/123/6 118/130/6 120/128/6
f 122/112/1 123/120/1 121/107/1
f 124/131/2 127/132/2 123/133/2
f 128/118/3 125/107/3 127/120/3
f 126/134/4 121/133/4 125/132/4
f 127/135/5 121/136/5 123/137/5
f 124/137/6 126/138/6 128/135/6
f 90/94/1 92/100/1 91/95/1
f 92/97/2 96/101/2 95/98/2
f 96/100/3 94/94/3 93/96/3
f 94/101/4 90/97/4 89/99/4
f 95/102/5 93/105/5 89/103/5
f 92/104/6 90/103/6 94/105/6
f 98/106/1 100/112/1 99/107/1
f 100/109/2 104/113/2 103/110/2
f 104/112/3 102/106/3 101/108/3
f 102/113/4 98/109/4 97/111/4
f 103/114/5 101/117/5 97/115/5
f 100/116/6 98/115/6 102/117/6
f 106/118/1 108/121/1 107/119/1
f 108/109/2 112/113/2 111/110/2
f 112/121/3 110/118/3 109/120/3
f 110/113/4 106/109/4 105/111/4
f 111/122/5 109/125/5 105/123/5
f 108/124/6 106/123/6 110/125/6
f 114/112/1 116/118/1 115/120/1
f 116/109/2 120/127/2 119/126/2
f 120/118/3 118/112/3 117/107/3
f 118/127/4 114/109/4 113/111/4
f 119/128/5 117/130/5 113/129/5
f 116/123/6 114/129/6 118/130/6
f 122/112/1 124/118/1 123/120/1
f 124/131/2 128/134/2 127/132/2
f 128/118/3 126/112/3 125/107/3
f 126/134/4 122/131/4 121/133/4
f 127/135/5 125/138/5 121/136/5
f 124/137/6 122/136/6 126/138/6
